<?xml version="1.0" encoding="UTF-8" standalone="no"?>
<!DOCTYPE svg PUBLIC "-//W3C//DTD SVG 1.1//EN"
 "http://www.w3.org/Graphics/SVG/1.1/DTD/svg11.dtd">
<!-- Generated by graphviz version 2.50.0 (20211204.2007)
 -->
<!-- Title: app.cpp Pages: 1 -->
<svg width="491pt" height="420pt"
 viewBox="0.00 0.00 490.50 420.00" xmlns="http://www.w3.org/2000/svg" xmlns:xlink="http://www.w3.org/1999/xlink">
<g id="graph0" class="graph" transform="scale(1 1) rotate(0) translate(4 416)">
<title>app.cpp</title>
<polygon fill="white" stroke="transparent" points="-4,4 -4,-416 486.5,-416 486.5,4 -4,4"/>
<!-- Node1 -->
<g id="node1" class="node">
<title>Node1</title>
<g id="a_node1"><a xlink:title=" ">
<polygon fill="#bfbfbf" stroke="black" points="219.5,-392.5 219.5,-411.5 270.5,-411.5 270.5,-392.5 219.5,-392.5"/>
<text text-anchor="middle" x="245" y="-399.5" font-family="Helvetica,sans-Serif" font-size="10.00">app.cpp</text>
</a>
</g>
</g>
<!-- Node2 -->
<g id="node2" class="node">
<title>Node2</title>
<g id="a_node2"><a xlink:title=" ">
<polygon fill="white" stroke="#bfbfbf" points="143,-56.5 143,-75.5 195,-75.5 195,-56.5 143,-56.5"/>
<text text-anchor="middle" x="169" y="-63.5" font-family="Helvetica,sans-Serif" font-size="10.00">assert.h</text>
</a>
</g>
</g>
<!-- Node1&#45;&gt;Node2 -->
<g id="edge1" class="edge">
<title>Node1&#45;&gt;Node2</title>
<path fill="none" stroke="midnightblue" d="M219.24,-401.01C156.34,-399.56 0,-386.35 0,-291 0,-291 0,-291 0,-177 0,-114.08 83.29,-85.29 132.93,-73.72"/>
<polygon fill="midnightblue" stroke="midnightblue" points="133.95,-77.08 142.96,-71.51 132.44,-70.24 133.95,-77.08"/>
</g>
<!-- Node3 -->
<g id="node3" class="node">
<title>Node3</title>
<g id="a_node3"><a xlink:title=" ">
<polygon fill="white" stroke="#bfbfbf" points="199,-224.5 199,-243.5 243,-243.5 243,-224.5 199,-224.5"/>
<text text-anchor="middle" x="221" y="-231.5" font-family="Helvetica,sans-Serif" font-size="10.00">SDL.h</text>
</a>
</g>
</g>
<!-- Node1&#45;&gt;Node3 -->
<g id="edge2" class="edge">
<title>Node1&#45;&gt;Node3</title>
<path fill="none" stroke="midnightblue" d="M250.13,-392.41C255.06,-383.61 262.16,-369.38 265,-356 266.85,-347.3 266.01,-344.83 265,-336 262.09,-310.62 262.32,-303.38 252,-280 247.56,-269.93 240.77,-259.74 234.68,-251.62"/>
<polygon fill="midnightblue" stroke="midnightblue" points="237.41,-249.42 228.49,-243.71 231.9,-253.74 237.41,-249.42"/>
</g>
<!-- Node4 -->
<g id="node4" class="node">
<title>Node4</title>
<g id="a_node4"><a xlink:href="app_8h.html" target="_top" xlink:title=" ">
<polygon fill="white" stroke="black" points="378.5,-336.5 378.5,-355.5 437.5,-355.5 437.5,-336.5 378.5,-336.5"/>
<text text-anchor="middle" x="408" y="-343.5" font-family="Helvetica,sans-Serif" font-size="10.00">app/app.h</text>
</a>
</g>
</g>
<!-- Node1&#45;&gt;Node4 -->
<g id="edge3" class="edge">
<title>Node1&#45;&gt;Node4</title>
<path fill="none" stroke="midnightblue" d="M270.83,-392.44C298.25,-383.36 341.78,-368.94 372.43,-358.78"/>
<polygon fill="midnightblue" stroke="midnightblue" points="373.9,-361.98 382.29,-355.52 371.7,-355.34 373.9,-361.98"/>
</g>
<!-- Node7 -->
<g id="node7" class="node">
<title>Node7</title>
<g id="a_node7"><a xlink:href="window_8h.html" target="_top" xlink:title=" ">
<polygon fill="white" stroke="black" points="120,-336.5 120,-355.5 256,-355.5 256,-336.5 120,-336.5"/>
<text text-anchor="middle" x="188" y="-343.5" font-family="Helvetica,sans-Serif" font-size="10.00">graphics_wrapper/window.h</text>
</a>
</g>
</g>
<!-- Node1&#45;&gt;Node7 -->
<g id="edge6" class="edge">
<title>Node1&#45;&gt;Node7</title>
<path fill="none" stroke="midnightblue" d="M235.84,-392.32C227.5,-384.42 214.97,-372.55 204.82,-362.94"/>
<polygon fill="midnightblue" stroke="midnightblue" points="206.99,-360.17 197.32,-355.83 202.18,-365.25 206.99,-360.17"/>
</g>
<!-- Node5 -->
<g id="node5" class="node">
<title>Node5</title>
<g id="a_node5"><a xlink:title=" ">
<polygon fill="white" stroke="#bfbfbf" points="433.5,-224.5 433.5,-243.5 482.5,-243.5 482.5,-224.5 433.5,-224.5"/>
<text text-anchor="middle" x="458" y="-231.5" font-family="Helvetica,sans-Serif" font-size="10.00">stdint.h</text>
</a>
</g>
</g>
<!-- Node4&#45;&gt;Node5 -->
<g id="edge4" class="edge">
<title>Node4&#45;&gt;Node5</title>
<path fill="none" stroke="midnightblue" d="M415.32,-336.22C422.26,-327.51 432.56,-313.54 439,-300 446.1,-285.07 451.13,-266.93 454.23,-253.61"/>
<polygon fill="midnightblue" stroke="midnightblue" points="457.67,-254.25 456.37,-243.73 450.83,-252.76 457.67,-254.25"/>
</g>
<!-- Node6 -->
<g id="node6" class="node">
<title>Node6</title>
<g id="a_node6"><a xlink:title=" ">
<polygon fill="white" stroke="#bfbfbf" points="386,-280.5 386,-299.5 430,-299.5 430,-280.5 386,-280.5"/>
<text text-anchor="middle" x="408" y="-287.5" font-family="Helvetica,sans-Serif" font-size="10.00">vector</text>
</a>
</g>
</g>
<!-- Node4&#45;&gt;Node6 -->
<g id="edge5" class="edge">
<title>Node4&#45;&gt;Node6</title>
<path fill="none" stroke="midnightblue" d="M408,-336.08C408,-329.01 408,-318.86 408,-309.99"/>
<polygon fill="midnightblue" stroke="midnightblue" points="411.5,-309.75 408,-299.75 404.5,-309.75 411.5,-309.75"/>
</g>
<!-- Node7&#45;&gt;Node2 -->
<g id="edge7" class="edge">
<title>Node7&#45;&gt;Node2</title>
<path fill="none" stroke="midnightblue" d="M168.21,-336.36C153.18,-328.82 133.08,-316.51 121,-300 103.22,-275.71 102,-265.1 102,-235 102,-235 102,-235 102,-177 102,-138.7 131.99,-102.42 151.84,-82.59"/>
<polygon fill="midnightblue" stroke="midnightblue" points="154.33,-85.05 159.11,-75.6 149.48,-80 154.33,-85.05"/>
</g>
<!-- Node7&#45;&gt;Node3 -->
<g id="edge9" class="edge">
<title>Node7&#45;&gt;Node3</title>
<path fill="none" stroke="midnightblue" d="M202.66,-336.4C214.41,-328.58 230.03,-315.86 237,-300 243.71,-284.74 237.87,-266.17 231.45,-252.8"/>
<polygon fill="midnightblue" stroke="midnightblue" points="234.41,-250.9 226.62,-243.72 228.23,-254.19 234.41,-250.9"/>
</g>
<!-- Node8 -->
<g id="node8" class="node">
<title>Node8</title>
<g id="a_node8"><a xlink:title=" ">
<polygon fill="white" stroke="#bfbfbf" points="28,-280.5 28,-299.5 74,-299.5 74,-280.5 28,-280.5"/>
<text text-anchor="middle" x="51" y="-287.5" font-family="Helvetica,sans-Serif" font-size="10.00">stdio.h</text>
</a>
</g>
</g>
<!-- Node7&#45;&gt;Node8 -->
<g id="edge8" class="edge">
<title>Node7&#45;&gt;Node8</title>
<path fill="none" stroke="midnightblue" d="M166.29,-336.44C143.65,-327.52 107.93,-313.44 82.25,-303.32"/>
<polygon fill="midnightblue" stroke="midnightblue" points="83.19,-299.93 72.61,-299.52 80.63,-306.44 83.19,-299.93"/>
</g>
<!-- Node9 -->
<g id="node9" class="node">
<title>Node9</title>
<g id="a_node9"><a xlink:href="color_8h.html" target="_top" xlink:title=" ">
<polygon fill="white" stroke="black" points="322.5,-280.5 322.5,-299.5 367.5,-299.5 367.5,-280.5 322.5,-280.5"/>
<text text-anchor="middle" x="345" y="-287.5" font-family="Helvetica,sans-Serif" font-size="10.00">color.h</text>
</a>
</g>
</g>
<!-- Node7&#45;&gt;Node9 -->
<g id="edge10" class="edge">
<title>Node7&#45;&gt;Node9</title>
<path fill="none" stroke="midnightblue" d="M212.88,-336.44C239.91,-327.15 283.2,-312.26 312.8,-302.07"/>
<polygon fill="midnightblue" stroke="midnightblue" points="313.96,-305.38 322.28,-298.82 311.68,-298.76 313.96,-305.38"/>
</g>
<!-- Node18 -->
<g id="node18" class="node">
<title>Node18</title>
<g id="a_node18"><a xlink:href="rectangle_8h.html" target="_top" xlink:title=" ">
<polygon fill="white" stroke="black" points="130,-280.5 130,-299.5 228,-299.5 228,-280.5 130,-280.5"/>
<text text-anchor="middle" x="179" y="-287.5" font-family="Helvetica,sans-Serif" font-size="10.00">../math/rectangle.h</text>
</a>
</g>
</g>
<!-- Node7&#45;&gt;Node18 -->
<g id="edge27" class="edge">
<title>Node7&#45;&gt;Node18</title>
<path fill="none" stroke="midnightblue" d="M186.51,-336.08C185.32,-328.93 183.61,-318.64 182.12,-309.69"/>
<polygon fill="midnightblue" stroke="midnightblue" points="185.55,-309.04 180.46,-299.75 178.65,-310.19 185.55,-309.04"/>
</g>
<!-- Node9&#45;&gt;Node3 -->
<g id="edge12" class="edge">
<title>Node9&#45;&gt;Node3</title>
<path fill="none" stroke="midnightblue" d="M325.35,-280.44C305.04,-271.6 273.1,-257.69 249.9,-247.59"/>
<polygon fill="midnightblue" stroke="midnightblue" points="251.12,-244.3 240.56,-243.52 248.33,-250.72 251.12,-244.3"/>
</g>
<!-- Node9&#45;&gt;Node5 -->
<g id="edge11" class="edge">
<title>Node9&#45;&gt;Node5</title>
<path fill="none" stroke="midnightblue" d="M362.91,-280.44C381.25,-271.68 410.01,-257.94 431.09,-247.86"/>
<polygon fill="midnightblue" stroke="midnightblue" points="432.67,-250.99 440.18,-243.52 429.65,-244.67 432.67,-250.99"/>
</g>
<!-- Node10 -->
<g id="node10" class="node">
<title>Node10</title>
<g id="a_node10"><a xlink:title=" ">
<polygon fill="white" stroke="#bfbfbf" points="261,-224.5 261,-243.5 317,-243.5 317,-224.5 261,-224.5"/>
<text text-anchor="middle" x="289" y="-231.5" font-family="Helvetica,sans-Serif" font-size="10.00">algorithm</text>
</a>
</g>
</g>
<!-- Node9&#45;&gt;Node10 -->
<g id="edge13" class="edge">
<title>Node9&#45;&gt;Node10</title>
<path fill="none" stroke="midnightblue" d="M336,-280.32C327.81,-272.42 315.49,-260.55 305.53,-250.94"/>
<polygon fill="midnightblue" stroke="midnightblue" points="307.79,-248.26 298.16,-243.83 302.93,-253.29 307.79,-248.26"/>
</g>
<!-- Node11 -->
<g id="node11" class="node">
<title>Node11</title>
<g id="a_node11"><a xlink:href="vec4_8h.html" target="_top" xlink:title=" ">
<polygon fill="white" stroke="black" points="335,-224.5 335,-243.5 415,-243.5 415,-224.5 335,-224.5"/>
<text text-anchor="middle" x="375" y="-231.5" font-family="Helvetica,sans-Serif" font-size="10.00">../math/vec4.h</text>
</a>
</g>
</g>
<!-- Node9&#45;&gt;Node11 -->
<g id="edge14" class="edge">
<title>Node9&#45;&gt;Node11</title>
<path fill="none" stroke="midnightblue" d="M349.95,-280.08C354.1,-272.61 360.15,-261.72 365.27,-252.52"/>
<polygon fill="midnightblue" stroke="midnightblue" points="368.34,-254.19 370.14,-243.75 362.22,-250.79 368.34,-254.19"/>
</g>
<!-- Node11&#45;&gt;Node2 -->
<g id="edge15" class="edge">
<title>Node11&#45;&gt;Node2</title>
<path fill="none" stroke="midnightblue" d="M350.88,-224.4C330.68,-216.58 301.6,-203.86 279,-188 236.57,-158.23 198.71,-109.38 180.48,-83.8"/>
<polygon fill="midnightblue" stroke="midnightblue" points="183.29,-81.7 174.69,-75.51 177.55,-85.71 183.29,-81.7"/>
</g>
<!-- Node12 -->
<g id="node12" class="node">
<title>Node12</title>
<g id="a_node12"><a xlink:title=" ">
<polygon fill="white" stroke="#bfbfbf" points="355.5,-56.5 355.5,-75.5 402.5,-75.5 402.5,-56.5 355.5,-56.5"/>
<text text-anchor="middle" x="379" y="-63.5" font-family="Helvetica,sans-Serif" font-size="10.00">math.h</text>
</a>
</g>
</g>
<!-- Node11&#45;&gt;Node12 -->
<g id="edge16" class="edge">
<title>Node11&#45;&gt;Node12</title>
<path fill="none" stroke="midnightblue" d="M375.22,-224.08C375.84,-197.95 377.69,-121.21 378.55,-85.58"/>
<polygon fill="midnightblue" stroke="midnightblue" points="382.05,-85.65 378.79,-75.57 375.05,-85.48 382.05,-85.65"/>
</g>
<!-- Node13 -->
<g id="node13" class="node">
<title>Node13</title>
<g id="a_node13"><a xlink:href="vec3_8h.html" target="_top" xlink:title=" ">
<polygon fill="white" stroke="black" points="288,-168.5 288,-187.5 334,-187.5 334,-168.5 288,-168.5"/>
<text text-anchor="middle" x="311" y="-175.5" font-family="Helvetica,sans-Serif" font-size="10.00">vec3.h</text>
</a>
</g>
</g>
<!-- Node11&#45;&gt;Node13 -->
<g id="edge17" class="edge">
<title>Node11&#45;&gt;Node13</title>
<path fill="none" stroke="midnightblue" d="M364.72,-224.32C355.16,-216.26 340.72,-204.08 329.22,-194.37"/>
<polygon fill="midnightblue" stroke="midnightblue" points="331.37,-191.61 321.47,-187.83 326.86,-196.96 331.37,-191.61"/>
</g>
<!-- Node13&#45;&gt;Node2 -->
<g id="edge18" class="edge">
<title>Node13&#45;&gt;Node2</title>
<path fill="none" stroke="midnightblue" d="M299.86,-168.37C275.7,-149.65 218.25,-105.15 188.15,-81.83"/>
<polygon fill="midnightblue" stroke="midnightblue" points="190.14,-78.95 180.09,-75.59 185.85,-84.48 190.14,-78.95"/>
</g>
<!-- Node13&#45;&gt;Node12 -->
<g id="edge19" class="edge">
<title>Node13&#45;&gt;Node12</title>
<path fill="none" stroke="midnightblue" d="M316.34,-168.37C327.51,-150.3 353.55,-108.18 368.3,-84.31"/>
<polygon fill="midnightblue" stroke="midnightblue" points="371.41,-85.94 373.69,-75.59 365.45,-82.26 371.41,-85.94"/>
</g>
<!-- Node14 -->
<g id="node14" class="node">
<title>Node14</title>
<g id="a_node14"><a xlink:href="vec2_8h.html" target="_top" xlink:title=" ">
<polygon fill="white" stroke="black" points="269,-112.5 269,-131.5 315,-131.5 315,-112.5 269,-112.5"/>
<text text-anchor="middle" x="292" y="-119.5" font-family="Helvetica,sans-Serif" font-size="10.00">vec2.h</text>
</a>
</g>
</g>
<!-- Node13&#45;&gt;Node14 -->
<g id="edge20" class="edge">
<title>Node13&#45;&gt;Node14</title>
<path fill="none" stroke="midnightblue" d="M307.86,-168.08C305.32,-160.85 301.64,-150.41 298.47,-141.4"/>
<polygon fill="midnightblue" stroke="midnightblue" points="301.7,-140.02 295.08,-131.75 295.1,-142.35 301.7,-140.02"/>
</g>
<!-- Node14&#45;&gt;Node2 -->
<g id="edge21" class="edge">
<title>Node14&#45;&gt;Node2</title>
<path fill="none" stroke="midnightblue" d="M272.51,-112.44C252.36,-103.6 220.68,-89.69 197.67,-79.59"/>
<polygon fill="midnightblue" stroke="midnightblue" points="198.96,-76.33 188.4,-75.52 196.15,-82.74 198.96,-76.33"/>
</g>
<!-- Node14&#45;&gt;Node12 -->
<g id="edge23" class="edge">
<title>Node14&#45;&gt;Node12</title>
<path fill="none" stroke="midnightblue" d="M305.98,-112.32C319.55,-103.9 340.38,-90.97 356.32,-81.07"/>
<polygon fill="midnightblue" stroke="midnightblue" points="358.41,-83.9 365.06,-75.65 354.71,-77.95 358.41,-83.9"/>
</g>
<!-- Node15 -->
<g id="node15" class="node">
<title>Node15</title>
<g id="a_node15"><a xlink:title=" ">
<polygon fill="white" stroke="#bfbfbf" points="194.5,-0.5 194.5,-19.5 253.5,-19.5 253.5,-0.5 194.5,-0.5"/>
<text text-anchor="middle" x="224" y="-7.5" font-family="Helvetica,sans-Serif" font-size="10.00">inttypes.h</text>
</a>
</g>
</g>
<!-- Node14&#45;&gt;Node15 -->
<g id="edge22" class="edge">
<title>Node14&#45;&gt;Node15</title>
<path fill="none" stroke="midnightblue" d="M278.57,-112.23C267.22,-104.13 251.34,-91.1 242,-76 233.24,-61.84 228.66,-43.36 226.32,-29.72"/>
<polygon fill="midnightblue" stroke="midnightblue" points="229.75,-29 224.83,-19.61 222.82,-30.01 229.75,-29"/>
</g>
<!-- Node16 -->
<g id="node16" class="node">
<title>Node16</title>
<g id="a_node16"><a xlink:href="float__compare_8h.html" target="_top" xlink:title=" ">
<polygon fill="white" stroke="black" points="251,-56.5 251,-75.5 337,-75.5 337,-56.5 251,-56.5"/>
<text text-anchor="middle" x="294" y="-63.5" font-family="Helvetica,sans-Serif" font-size="10.00">float_compare.h</text>
</a>
</g>
</g>
<!-- Node14&#45;&gt;Node16 -->
<g id="edge24" class="edge">
<title>Node14&#45;&gt;Node16</title>
<path fill="none" stroke="midnightblue" d="M292.33,-112.08C292.59,-105.01 292.97,-94.86 293.3,-85.99"/>
<polygon fill="midnightblue" stroke="midnightblue" points="296.8,-85.87 293.68,-75.75 289.81,-85.61 296.8,-85.87"/>
</g>
<!-- Node16&#45;&gt;Node15 -->
<g id="edge25" class="edge">
<title>Node16&#45;&gt;Node15</title>
<path fill="none" stroke="midnightblue" d="M282.75,-56.32C272.2,-48.18 256.2,-35.84 243.56,-26.09"/>
<polygon fill="midnightblue" stroke="midnightblue" points="245.51,-23.17 235.45,-19.83 241.23,-28.71 245.51,-23.17"/>
</g>
<!-- Node17 -->
<g id="node17" class="node">
<title>Node17</title>
<g id="a_node17"><a xlink:title=" ">
<polygon fill="white" stroke="#bfbfbf" points="272,-0.5 272,-19.5 316,-19.5 316,-0.5 272,-0.5"/>
<text text-anchor="middle" x="294" y="-7.5" font-family="Helvetica,sans-Serif" font-size="10.00">float.h</text>
</a>
</g>
</g>
<!-- Node16&#45;&gt;Node17 -->
<g id="edge26" class="edge">
<title>Node16&#45;&gt;Node17</title>
<path fill="none" stroke="midnightblue" d="M294,-56.08C294,-49.01 294,-38.86 294,-29.99"/>
<polygon fill="midnightblue" stroke="midnightblue" points="297.5,-29.75 294,-19.75 290.5,-29.75 297.5,-29.75"/>
</g>
<!-- Node18&#45;&gt;Node3 -->
<g id="edge28" class="edge">
<title>Node18&#45;&gt;Node3</title>
<path fill="none" stroke="midnightblue" d="M185.94,-280.08C191.93,-272.38 200.75,-261.03 208.05,-251.65"/>
<polygon fill="midnightblue" stroke="midnightblue" points="210.82,-253.79 214.19,-243.75 205.29,-249.5 210.82,-253.79"/>
</g>
<!-- Node18&#45;&gt;Node14 -->
<g id="edge29" class="edge">
<title>Node18&#45;&gt;Node14</title>
<path fill="none" stroke="midnightblue" d="M178.82,-280.48C178.89,-267.54 180.4,-242.49 190,-224 209.25,-186.94 247.01,-155.11 270.79,-137.56"/>
<polygon fill="midnightblue" stroke="midnightblue" points="273.08,-140.22 279.16,-131.54 269,-134.54 273.08,-140.22"/>
</g>
</g>
</svg>
