<?xml version="1.0" encoding="UTF-8" standalone="no"?>
<!DOCTYPE svg PUBLIC "-//W3C//DTD SVG 1.1//EN"
 "http://www.w3.org/Graphics/SVG/1.1/DTD/svg11.dtd">
<!-- Generated by graphviz version 2.50.0 (20211204.2007)
 -->
<!-- Title: array.h Pages: 1 -->
<svg width="133pt" height="140pt"
 viewBox="0.00 0.00 133.00 140.00" xmlns="http://www.w3.org/2000/svg" xmlns:xlink="http://www.w3.org/1999/xlink">
<g id="graph0" class="graph" transform="scale(1 1) rotate(0) translate(4 136)">
<title>array.h</title>
<polygon fill="white" stroke="transparent" points="-4,4 -4,-136 129,-136 129,4 -4,4"/>
<!-- Node1 -->
<g id="node1" class="node">
<title>Node1</title>
<g id="a_node1"><a xlink:title=" ">
<polygon fill="#bfbfbf" stroke="black" points="57,-112.5 57,-131.5 102,-131.5 102,-112.5 57,-112.5"/>
<text text-anchor="middle" x="79.5" y="-119.5" font-family="Helvetica,sans-Serif" font-size="10.00">array.h</text>
</a>
</g>
</g>
<!-- Node2 -->
<g id="node2" class="node">
<title>Node2</title>
<g id="a_node2"><a xlink:href="dynamic__array_8h.html" target="_top" xlink:title="General dynamic array container.">
<polygon fill="white" stroke="black" points="0,-56.5 0,-75.5 87,-75.5 87,-56.5 0,-56.5"/>
<text text-anchor="middle" x="43.5" y="-63.5" font-family="Helvetica,sans-Serif" font-size="10.00">dynamic_array.h</text>
</a>
</g>
</g>
<!-- Node1&#45;&gt;Node2 -->
<g id="edge1" class="edge">
<title>Node1&#45;&gt;Node2</title>
<path fill="none" stroke="midnightblue" d="M67.88,-103.57C61.68,-94.27 54.33,-83.25 49.33,-75.75"/>
<polygon fill="midnightblue" stroke="midnightblue" points="65.1,-105.7 73.56,-112.08 70.92,-101.82 65.1,-105.7"/>
</g>
<!-- Node3 -->
<g id="node3" class="node">
<title>Node3</title>
<g id="a_node3"><a xlink:href="sml__containers_8h.html" target="_top" xlink:title=" ">
<polygon fill="white" stroke="black" points="34,-0.5 34,-19.5 125,-19.5 125,-0.5 34,-0.5"/>
<text text-anchor="middle" x="79.5" y="-7.5" font-family="Helvetica,sans-Serif" font-size="10.00">sml_containers.h</text>
</a>
</g>
</g>
<!-- Node1&#45;&gt;Node3 -->
<g id="edge3" class="edge">
<title>Node1&#45;&gt;Node3</title>
<path fill="none" stroke="midnightblue" d="M87.95,-103.15C91.33,-95.05 94.81,-85.24 96.5,-76 100.23,-55.58 90.55,-32.13 84.31,-19.74"/>
<polygon fill="midnightblue" stroke="midnightblue" points="84.74,-101.75 83.87,-112.31 91.13,-104.6 84.74,-101.75"/>
</g>
<!-- Node2&#45;&gt;Node3 -->
<g id="edge2" class="edge">
<title>Node2&#45;&gt;Node3</title>
<path fill="none" stroke="midnightblue" d="M55.12,-47.57C61.32,-38.27 68.67,-27.25 73.67,-19.75"/>
<polygon fill="midnightblue" stroke="midnightblue" points="52.08,-45.82 49.44,-56.08 57.9,-49.7 52.08,-45.82"/>
</g>
</g>
</svg>
