<?xml version="1.0" encoding="UTF-8" standalone="no"?>
<!DOCTYPE svg PUBLIC "-//W3C//DTD SVG 1.1//EN"
 "http://www.w3.org/Graphics/SVG/1.1/DTD/svg11.dtd">
<!-- Generated by graphviz version 2.50.0 (20211204.2007)
 -->
<!-- Title: blur.h Pages: 1 -->
<svg width="908pt" height="476pt"
 viewBox="0.00 0.00 908.00 476.00" xmlns="http://www.w3.org/2000/svg" xmlns:xlink="http://www.w3.org/1999/xlink">
<g id="graph0" class="graph" transform="scale(1 1) rotate(0) translate(4 472)">
<title>blur.h</title>
<polygon fill="white" stroke="transparent" points="-4,4 -4,-472 904,-472 904,4 -4,4"/>
<!-- Node1 -->
<g id="node1" class="node">
<title>Node1</title>
<g id="a_node1"><a xlink:title=" ">
<polygon fill="#bfbfbf" stroke="black" points="564,-448.5 564,-467.5 604,-467.5 604,-448.5 564,-448.5"/>
<text text-anchor="middle" x="584" y="-455.5" font-family="Helvetica,sans-Serif" font-size="10.00">blur.h</text>
</a>
</g>
</g>
<!-- Node2 -->
<g id="node2" class="node">
<title>Node2</title>
<g id="a_node2"><a xlink:href="renderer_8h.html" target="_top" xlink:title=" ">
<polygon fill="white" stroke="black" points="510,-392.5 510,-411.5 658,-411.5 658,-392.5 510,-392.5"/>
<text text-anchor="middle" x="584" y="-399.5" font-family="Helvetica,sans-Serif" font-size="10.00">../graphics_wrapper/renderer.h</text>
</a>
</g>
</g>
<!-- Node1&#45;&gt;Node2 -->
<g id="edge1" class="edge">
<title>Node1&#45;&gt;Node2</title>
<path fill="none" stroke="midnightblue" d="M584,-448.08C584,-441.01 584,-430.86 584,-421.99"/>
<polygon fill="midnightblue" stroke="midnightblue" points="587.5,-421.75 584,-411.75 580.5,-421.75 587.5,-421.75"/>
</g>
<!-- Node10 -->
<g id="node10" class="node">
<title>Node10</title>
<g id="a_node10"><a xlink:href="color_8h.html" target="_top" xlink:title=" ">
<polygon fill="white" stroke="black" points="676.5,-280.5 676.5,-299.5 721.5,-299.5 721.5,-280.5 676.5,-280.5"/>
<text text-anchor="middle" x="699" y="-287.5" font-family="Helvetica,sans-Serif" font-size="10.00">color.h</text>
</a>
</g>
</g>
<!-- Node1&#45;&gt;Node10 -->
<g id="edge46" class="edge">
<title>Node1&#45;&gt;Node10</title>
<path fill="none" stroke="midnightblue" d="M604.03,-449.75C622.15,-442.42 648.72,-429.64 667,-412 687.79,-391.94 692.4,-383.87 700,-356 702.34,-347.42 700.1,-344.89 700,-336 699.9,-327.4 699.71,-317.87 699.51,-309.8"/>
<polygon fill="midnightblue" stroke="midnightblue" points="703.01,-309.53 699.25,-299.63 696.01,-309.71 703.01,-309.53"/>
</g>
<!-- Node15 -->
<g id="node15" class="node">
<title>Node15</title>
<g id="a_node15"><a xlink:href="vec2_8h.html" target="_top" xlink:title=" ">
<polygon fill="white" stroke="black" points="265,-112.5 265,-131.5 311,-131.5 311,-112.5 265,-112.5"/>
<text text-anchor="middle" x="288" y="-119.5" font-family="Helvetica,sans-Serif" font-size="10.00">vec2.h</text>
</a>
</g>
</g>
<!-- Node1&#45;&gt;Node15 -->
<g id="edge47" class="edge">
<title>Node1&#45;&gt;Node15</title>
<path fill="none" stroke="midnightblue" d="M563.9,-455.4C461.21,-446.94 0,-405.68 0,-347 0,-347 0,-347 0,-233 0,-178.94 179.31,-141.71 254.96,-128.4"/>
<polygon fill="midnightblue" stroke="midnightblue" points="255.66,-131.83 264.92,-126.69 254.47,-124.94 255.66,-131.83"/>
</g>
<!-- Node3 -->
<g id="node3" class="node">
<title>Node3</title>
<g id="a_node3"><a xlink:title=" ">
<polygon fill="white" stroke="#bfbfbf" points="822.5,-224.5 822.5,-243.5 871.5,-243.5 871.5,-224.5 822.5,-224.5"/>
<text text-anchor="middle" x="847" y="-231.5" font-family="Helvetica,sans-Serif" font-size="10.00">stdint.h</text>
</a>
</g>
</g>
<!-- Node2&#45;&gt;Node3 -->
<g id="edge2" class="edge">
<title>Node2&#45;&gt;Node3</title>
<path fill="none" stroke="midnightblue" d="M613.78,-392.35C637.95,-384.66 672.41,-372.14 700,-356 752.52,-325.27 805.51,-276.17 831.15,-251.01"/>
<polygon fill="midnightblue" stroke="midnightblue" points="833.84,-253.26 838.47,-243.73 828.91,-248.3 833.84,-253.26"/>
</g>
<!-- Node4 -->
<g id="node4" class="node">
<title>Node4</title>
<g id="a_node4"><a xlink:title=" ">
<polygon fill="white" stroke="#bfbfbf" points="381.5,-336.5 381.5,-355.5 464.5,-355.5 464.5,-336.5 381.5,-336.5"/>
<text text-anchor="middle" x="423" y="-343.5" font-family="Helvetica,sans-Serif" font-size="10.00">unordered_map</text>
</a>
</g>
</g>
<!-- Node2&#45;&gt;Node4 -->
<g id="edge3" class="edge">
<title>Node2&#45;&gt;Node4</title>
<path fill="none" stroke="midnightblue" d="M558.49,-392.44C531.4,-383.36 488.41,-368.94 458.13,-358.78"/>
<polygon fill="midnightblue" stroke="midnightblue" points="458.99,-355.38 448.39,-355.52 456.76,-362.01 458.99,-355.38"/>
</g>
<!-- Node5 -->
<g id="node5" class="node">
<title>Node5</title>
<g id="a_node5"><a xlink:title=" ">
<polygon fill="white" stroke="#bfbfbf" points="630.5,-336.5 630.5,-355.5 671.5,-355.5 671.5,-336.5 630.5,-336.5"/>
<text text-anchor="middle" x="651" y="-343.5" font-family="Helvetica,sans-Serif" font-size="10.00">stack</text>
</a>
</g>
</g>
<!-- Node2&#45;&gt;Node5 -->
<g id="edge4" class="edge">
<title>Node2&#45;&gt;Node5</title>
<path fill="none" stroke="midnightblue" d="M594.76,-392.32C604.77,-384.26 619.89,-372.08 631.93,-362.37"/>
<polygon fill="midnightblue" stroke="midnightblue" points="634.45,-364.83 640.04,-355.83 630.06,-359.38 634.45,-364.83"/>
</g>
<!-- Node6 -->
<g id="node6" class="node">
<title>Node6</title>
<g id="a_node6"><a xlink:href="window_8h.html" target="_top" xlink:title=" ">
<polygon fill="white" stroke="black" points="556,-336.5 556,-355.5 612,-355.5 612,-336.5 556,-336.5"/>
<text text-anchor="middle" x="584" y="-343.5" font-family="Helvetica,sans-Serif" font-size="10.00">window.h</text>
</a>
</g>
</g>
<!-- Node2&#45;&gt;Node6 -->
<g id="edge5" class="edge">
<title>Node2&#45;&gt;Node6</title>
<path fill="none" stroke="midnightblue" d="M584,-392.08C584,-385.01 584,-374.86 584,-365.99"/>
<polygon fill="midnightblue" stroke="midnightblue" points="587.5,-365.75 584,-355.75 580.5,-365.75 587.5,-365.75"/>
</g>
<!-- Node2&#45;&gt;Node10 -->
<g id="edge44" class="edge">
<title>Node2&#45;&gt;Node10</title>
<path fill="none" stroke="midnightblue" d="M620.02,-392.4C640.62,-385.72 665.39,-374.41 681,-356 691.99,-343.03 696.31,-323.87 697.98,-309.7"/>
<polygon fill="midnightblue" stroke="midnightblue" points="701.48,-309.89 698.84,-299.63 694.5,-309.3 701.48,-309.89"/>
</g>
<!-- Node20 -->
<g id="node20" class="node">
<title>Node20</title>
<g id="a_node20"><a xlink:href="texture_8h.html" target="_top" xlink:title="Basic texture management.">
<polygon fill="white" stroke="black" points="482.5,-336.5 482.5,-355.5 537.5,-355.5 537.5,-336.5 482.5,-336.5"/>
<text text-anchor="middle" x="510" y="-343.5" font-family="Helvetica,sans-Serif" font-size="10.00">texture.h</text>
</a>
</g>
</g>
<!-- Node2&#45;&gt;Node20 -->
<g id="edge29" class="edge">
<title>Node2&#45;&gt;Node20</title>
<path fill="none" stroke="midnightblue" d="M572.11,-392.32C560.85,-384.11 543.71,-371.6 530.29,-361.81"/>
<polygon fill="midnightblue" stroke="midnightblue" points="532.25,-358.9 522.11,-355.83 528.12,-364.56 532.25,-358.9"/>
</g>
<!-- Node21 -->
<g id="node21" class="node">
<title>Node21</title>
<g id="a_node21"><a xlink:href="sml__math_8h.html" target="_top" xlink:title=" ">
<polygon fill="white" stroke="black" points="252.5,-280.5 252.5,-299.5 329.5,-299.5 329.5,-280.5 252.5,-280.5"/>
<text text-anchor="middle" x="291" y="-287.5" font-family="Helvetica,sans-Serif" font-size="10.00">../sml_math.h</text>
</a>
</g>
</g>
<!-- Node2&#45;&gt;Node21 -->
<g id="edge45" class="edge">
<title>Node2&#45;&gt;Node21</title>
<path fill="none" stroke="midnightblue" d="M509.65,-393.83C467.69,-387.7 415.18,-376.47 372,-356 346.43,-343.88 321.77,-322.19 306.51,-307.22"/>
<polygon fill="midnightblue" stroke="midnightblue" points="308.58,-304.34 299.06,-299.7 303.61,-309.27 308.58,-304.34"/>
</g>
<!-- Node7 -->
<g id="node7" class="node">
<title>Node7</title>
<g id="a_node7"><a xlink:title=" ">
<polygon fill="white" stroke="#bfbfbf" points="640,-56.5 640,-75.5 692,-75.5 692,-56.5 640,-56.5"/>
<text text-anchor="middle" x="666" y="-63.5" font-family="Helvetica,sans-Serif" font-size="10.00">assert.h</text>
</a>
</g>
</g>
<!-- Node6&#45;&gt;Node7 -->
<g id="edge6" class="edge">
<title>Node6&#45;&gt;Node7</title>
<path fill="none" stroke="midnightblue" d="M612.04,-338.31C689.38,-319.46 900,-265.35 900,-235 900,-235 900,-235 900,-177 900,-90.89 768.62,-72.07 702.75,-68.04"/>
<polygon fill="midnightblue" stroke="midnightblue" points="702.56,-64.52 692.39,-67.49 702.19,-71.51 702.56,-64.52"/>
</g>
<!-- Node8 -->
<g id="node8" class="node">
<title>Node8</title>
<g id="a_node8"><a xlink:title=" ">
<polygon fill="white" stroke="#bfbfbf" points="612,-280.5 612,-299.5 658,-299.5 658,-280.5 612,-280.5"/>
<text text-anchor="middle" x="635" y="-287.5" font-family="Helvetica,sans-Serif" font-size="10.00">stdio.h</text>
</a>
</g>
</g>
<!-- Node6&#45;&gt;Node8 -->
<g id="edge7" class="edge">
<title>Node6&#45;&gt;Node8</title>
<path fill="none" stroke="midnightblue" d="M592.42,-336.08C599.85,-328.22 610.85,-316.57 619.81,-307.08"/>
<polygon fill="midnightblue" stroke="midnightblue" points="622.41,-309.42 626.74,-299.75 617.32,-304.62 622.41,-309.42"/>
</g>
<!-- Node9 -->
<g id="node9" class="node">
<title>Node9</title>
<g id="a_node9"><a xlink:title=" ">
<polygon fill="white" stroke="#bfbfbf" points="525,-168.5 525,-187.5 569,-187.5 569,-168.5 525,-168.5"/>
<text text-anchor="middle" x="547" y="-175.5" font-family="Helvetica,sans-Serif" font-size="10.00">SDL.h</text>
</a>
</g>
</g>
<!-- Node6&#45;&gt;Node9 -->
<g id="edge8" class="edge">
<title>Node6&#45;&gt;Node9</title>
<path fill="none" stroke="midnightblue" d="M582.56,-336.44C579.17,-316.57 570.17,-265.83 560,-224 557.84,-215.1 555.06,-205.32 552.63,-197.16"/>
<polygon fill="midnightblue" stroke="midnightblue" points="555.97,-196.12 549.71,-187.57 549.27,-198.15 555.97,-196.12"/>
</g>
<!-- Node6&#45;&gt;Node10 -->
<g id="edge9" class="edge">
<title>Node6&#45;&gt;Node10</title>
<path fill="none" stroke="midnightblue" d="M602.22,-336.44C620.9,-327.68 650.16,-313.94 671.62,-303.86"/>
<polygon fill="midnightblue" stroke="midnightblue" points="673.3,-306.93 680.86,-299.52 670.32,-300.6 673.3,-306.93"/>
</g>
<!-- Node19 -->
<g id="node19" class="node">
<title>Node19</title>
<g id="a_node19"><a xlink:href="rectangle_8h.html" target="_top" xlink:title=" ">
<polygon fill="white" stroke="black" points="420,-224.5 420,-243.5 518,-243.5 518,-224.5 420,-224.5"/>
<text text-anchor="middle" x="469" y="-231.5" font-family="Helvetica,sans-Serif" font-size="10.00">../math/rectangle.h</text>
</a>
</g>
</g>
<!-- Node6&#45;&gt;Node19 -->
<g id="edge26" class="edge">
<title>Node6&#45;&gt;Node19</title>
<path fill="none" stroke="midnightblue" d="M574.98,-336.37C555.66,-317.89 510.08,-274.29 485.46,-250.74"/>
<polygon fill="midnightblue" stroke="midnightblue" points="487.63,-247.97 477.98,-243.59 482.79,-253.03 487.63,-247.97"/>
</g>
<!-- Node10&#45;&gt;Node3 -->
<g id="edge10" class="edge">
<title>Node10&#45;&gt;Node3</title>
<path fill="none" stroke="midnightblue" d="M721.8,-280.68C746.46,-271.68 786,-257.26 814.04,-247.02"/>
<polygon fill="midnightblue" stroke="midnightblue" points="815.24,-250.31 823.44,-243.6 812.85,-243.74 815.24,-250.31"/>
</g>
<!-- Node10&#45;&gt;Node9 -->
<g id="edge11" class="edge">
<title>Node10&#45;&gt;Node9</title>
<path fill="none" stroke="midnightblue" d="M687.07,-280.37C661.1,-261.57 599.19,-216.77 567.08,-193.53"/>
<polygon fill="midnightblue" stroke="midnightblue" points="569.02,-190.62 558.87,-187.59 564.92,-196.29 569.02,-190.62"/>
</g>
<!-- Node11 -->
<g id="node11" class="node">
<title>Node11</title>
<g id="a_node11"><a xlink:title=" ">
<polygon fill="white" stroke="#bfbfbf" points="748,-224.5 748,-243.5 804,-243.5 804,-224.5 748,-224.5"/>
<text text-anchor="middle" x="776" y="-231.5" font-family="Helvetica,sans-Serif" font-size="10.00">algorithm</text>
</a>
</g>
</g>
<!-- Node10&#45;&gt;Node11 -->
<g id="edge12" class="edge">
<title>Node10&#45;&gt;Node11</title>
<path fill="none" stroke="midnightblue" d="M711.37,-280.32C723.16,-272.06 741.13,-259.45 755.14,-249.63"/>
<polygon fill="midnightblue" stroke="midnightblue" points="757.48,-252.26 763.66,-243.65 753.46,-246.53 757.48,-252.26"/>
</g>
<!-- Node12 -->
<g id="node12" class="node">
<title>Node12</title>
<g id="a_node12"><a xlink:href="vec4_8h.html" target="_top" xlink:title=" ">
<polygon fill="white" stroke="black" points="650,-224.5 650,-243.5 730,-243.5 730,-224.5 650,-224.5"/>
<text text-anchor="middle" x="690" y="-231.5" font-family="Helvetica,sans-Serif" font-size="10.00">../math/vec4.h</text>
</a>
</g>
</g>
<!-- Node10&#45;&gt;Node12 -->
<g id="edge13" class="edge">
<title>Node10&#45;&gt;Node12</title>
<path fill="none" stroke="midnightblue" d="M697.51,-280.08C696.32,-272.93 694.61,-262.64 693.12,-253.69"/>
<polygon fill="midnightblue" stroke="midnightblue" points="696.55,-253.04 691.46,-243.75 689.65,-254.19 696.55,-253.04"/>
</g>
<!-- Node12&#45;&gt;Node7 -->
<g id="edge14" class="edge">
<title>Node12&#45;&gt;Node7</title>
<path fill="none" stroke="midnightblue" d="M688.71,-224.08C684.93,-197.95 673.84,-121.21 668.69,-85.58"/>
<polygon fill="midnightblue" stroke="midnightblue" points="672.13,-84.96 667.24,-75.57 665.21,-85.97 672.13,-84.96"/>
</g>
<!-- Node13 -->
<g id="node13" class="node">
<title>Node13</title>
<g id="a_node13"><a xlink:title=" ">
<polygon fill="white" stroke="#bfbfbf" points="338.5,-56.5 338.5,-75.5 385.5,-75.5 385.5,-56.5 338.5,-56.5"/>
<text text-anchor="middle" x="362" y="-63.5" font-family="Helvetica,sans-Serif" font-size="10.00">math.h</text>
</a>
</g>
</g>
<!-- Node12&#45;&gt;Node13 -->
<g id="edge15" class="edge">
<title>Node12&#45;&gt;Node13</title>
<path fill="none" stroke="midnightblue" d="M676.08,-224.39C655.12,-211.54 614.06,-186.85 578,-168 512.45,-133.74 433.18,-98.1 391.27,-79.7"/>
<polygon fill="midnightblue" stroke="midnightblue" points="392.51,-76.42 381.94,-75.62 389.7,-82.83 392.51,-76.42"/>
</g>
<!-- Node14 -->
<g id="node14" class="node">
<title>Node14</title>
<g id="a_node14"><a xlink:href="vec3_8h.html" target="_top" xlink:title=" ">
<polygon fill="white" stroke="black" points="339,-168.5 339,-187.5 385,-187.5 385,-168.5 339,-168.5"/>
<text text-anchor="middle" x="362" y="-175.5" font-family="Helvetica,sans-Serif" font-size="10.00">vec3.h</text>
</a>
</g>
</g>
<!-- Node12&#45;&gt;Node14 -->
<g id="edge16" class="edge">
<title>Node12&#45;&gt;Node14</title>
<path fill="none" stroke="midnightblue" d="M649.78,-226.38C584.42,-215.62 456.36,-194.54 395.57,-184.53"/>
<polygon fill="midnightblue" stroke="midnightblue" points="395.81,-181.02 385.38,-182.85 394.67,-187.93 395.81,-181.02"/>
</g>
<!-- Node14&#45;&gt;Node7 -->
<g id="edge17" class="edge">
<title>Node14&#45;&gt;Node7</title>
<path fill="none" stroke="midnightblue" d="M385.1,-168.64C438.39,-149.36 570.11,-101.7 632.37,-79.17"/>
<polygon fill="midnightblue" stroke="midnightblue" points="633.89,-82.34 642.1,-75.65 631.5,-75.76 633.89,-82.34"/>
</g>
<!-- Node14&#45;&gt;Node13 -->
<g id="edge18" class="edge">
<title>Node14&#45;&gt;Node13</title>
<path fill="none" stroke="midnightblue" d="M362,-168.37C362,-150.62 362,-109.67 362,-85.6"/>
<polygon fill="midnightblue" stroke="midnightblue" points="365.5,-85.59 362,-75.59 358.5,-85.59 365.5,-85.59"/>
</g>
<!-- Node14&#45;&gt;Node15 -->
<g id="edge19" class="edge">
<title>Node14&#45;&gt;Node15</title>
<path fill="none" stroke="midnightblue" d="M350.11,-168.32C338.85,-160.11 321.71,-147.6 308.29,-137.81"/>
<polygon fill="midnightblue" stroke="midnightblue" points="310.25,-134.9 300.11,-131.83 306.12,-140.56 310.25,-134.9"/>
</g>
<!-- Node15&#45;&gt;Node7 -->
<g id="edge20" class="edge">
<title>Node15&#45;&gt;Node7</title>
<path fill="none" stroke="midnightblue" d="M311.08,-117.7C374.61,-108.63 552.48,-83.22 629.58,-72.2"/>
<polygon fill="midnightblue" stroke="midnightblue" points="630.37,-75.63 639.77,-70.75 629.38,-68.7 630.37,-75.63"/>
</g>
<!-- Node15&#45;&gt;Node13 -->
<g id="edge22" class="edge">
<title>Node15&#45;&gt;Node13</title>
<path fill="none" stroke="midnightblue" d="M299.89,-112.32C311.15,-104.11 328.29,-91.6 341.71,-81.81"/>
<polygon fill="midnightblue" stroke="midnightblue" points="343.88,-84.56 349.89,-75.83 339.75,-78.9 343.88,-84.56"/>
</g>
<!-- Node16 -->
<g id="node16" class="node">
<title>Node16</title>
<g id="a_node16"><a xlink:title=" ">
<polygon fill="white" stroke="#bfbfbf" points="152.5,-0.5 152.5,-19.5 211.5,-19.5 211.5,-0.5 152.5,-0.5"/>
<text text-anchor="middle" x="182" y="-7.5" font-family="Helvetica,sans-Serif" font-size="10.00">inttypes.h</text>
</a>
</g>
</g>
<!-- Node15&#45;&gt;Node16 -->
<g id="edge21" class="edge">
<title>Node15&#45;&gt;Node16</title>
<path fill="none" stroke="midnightblue" d="M279.68,-112.37C261.96,-93.97 220.23,-50.67 197.47,-27.05"/>
<polygon fill="midnightblue" stroke="midnightblue" points="199.74,-24.36 190.28,-19.59 194.7,-29.22 199.74,-24.36"/>
</g>
<!-- Node17 -->
<g id="node17" class="node">
<title>Node17</title>
<g id="a_node17"><a xlink:href="float__compare_8h.html" target="_top" xlink:title=" ">
<polygon fill="white" stroke="black" points="68,-56.5 68,-75.5 154,-75.5 154,-56.5 68,-56.5"/>
<text text-anchor="middle" x="111" y="-63.5" font-family="Helvetica,sans-Serif" font-size="10.00">float_compare.h</text>
</a>
</g>
</g>
<!-- Node15&#45;&gt;Node17 -->
<g id="edge23" class="edge">
<title>Node15&#45;&gt;Node17</title>
<path fill="none" stroke="midnightblue" d="M264.86,-113.94C235.44,-104.96 184.23,-89.34 149.03,-78.6"/>
<polygon fill="midnightblue" stroke="midnightblue" points="149.7,-75.15 139.11,-75.58 147.65,-81.84 149.7,-75.15"/>
</g>
<!-- Node17&#45;&gt;Node16 -->
<g id="edge24" class="edge">
<title>Node17&#45;&gt;Node16</title>
<path fill="none" stroke="midnightblue" d="M122.41,-56.32C133.11,-48.18 149.34,-35.84 162.16,-26.09"/>
<polygon fill="midnightblue" stroke="midnightblue" points="164.54,-28.67 170.39,-19.83 160.31,-23.1 164.54,-28.67"/>
</g>
<!-- Node18 -->
<g id="node18" class="node">
<title>Node18</title>
<g id="a_node18"><a xlink:title=" ">
<polygon fill="white" stroke="#bfbfbf" points="89,-0.5 89,-19.5 133,-19.5 133,-0.5 89,-0.5"/>
<text text-anchor="middle" x="111" y="-7.5" font-family="Helvetica,sans-Serif" font-size="10.00">float.h</text>
</a>
</g>
</g>
<!-- Node17&#45;&gt;Node18 -->
<g id="edge25" class="edge">
<title>Node17&#45;&gt;Node18</title>
<path fill="none" stroke="midnightblue" d="M111,-56.08C111,-49.01 111,-38.86 111,-29.99"/>
<polygon fill="midnightblue" stroke="midnightblue" points="114.5,-29.75 111,-19.75 107.5,-29.75 114.5,-29.75"/>
</g>
<!-- Node19&#45;&gt;Node9 -->
<g id="edge27" class="edge">
<title>Node19&#45;&gt;Node9</title>
<path fill="none" stroke="midnightblue" d="M481.53,-224.32C493.59,-215.98 512.03,-203.21 526.27,-193.35"/>
<polygon fill="midnightblue" stroke="midnightblue" points="528.27,-196.22 534.5,-187.65 524.28,-190.47 528.27,-196.22"/>
</g>
<!-- Node19&#45;&gt;Node15 -->
<g id="edge28" class="edge">
<title>Node19&#45;&gt;Node15</title>
<path fill="none" stroke="midnightblue" d="M419.8,-225.56C391.31,-219.29 356.05,-208.01 330,-188 314.05,-175.75 302.4,-155.6 295.46,-140.98"/>
<polygon fill="midnightblue" stroke="midnightblue" points="298.51,-139.23 291.26,-131.51 292.12,-142.07 298.51,-139.23"/>
</g>
<!-- Node20&#45;&gt;Node9 -->
<g id="edge30" class="edge">
<title>Node20&#45;&gt;Node9</title>
<path fill="none" stroke="midnightblue" d="M511.99,-336.08C517.81,-309.95 534.92,-233.21 542.86,-197.58"/>
<polygon fill="midnightblue" stroke="midnightblue" points="546.33,-198.09 545.09,-187.57 539.5,-196.57 546.33,-198.09"/>
</g>
<!-- Node20&#45;&gt;Node10 -->
<g id="edge31" class="edge">
<title>Node20&#45;&gt;Node10</title>
<path fill="none" stroke="midnightblue" d="M537.89,-337.03C572.09,-327.26 629.99,-310.72 666.27,-300.35"/>
<polygon fill="midnightblue" stroke="midnightblue" points="667.68,-303.59 676.34,-297.48 665.76,-296.86 667.68,-303.59"/>
</g>
<!-- Node20&#45;&gt;Node21 -->
<g id="edge32" class="edge">
<title>Node20&#45;&gt;Node21</title>
<path fill="none" stroke="midnightblue" d="M482.26,-338.16C445.32,-329.05 379.52,-312.83 335.57,-301.99"/>
<polygon fill="midnightblue" stroke="midnightblue" points="336.27,-298.56 325.72,-299.56 334.59,-305.35 336.27,-298.56"/>
</g>
<!-- Node21&#45;&gt;Node14 -->
<g id="edge43" class="edge">
<title>Node21&#45;&gt;Node14</title>
<path fill="none" stroke="midnightblue" d="M322.81,-280.38C340.95,-273.66 362.16,-262.31 373,-244 381.45,-229.72 376.8,-210.75 371.17,-197"/>
<polygon fill="midnightblue" stroke="midnightblue" points="374.24,-195.29 366.89,-187.66 367.88,-198.21 374.24,-195.29"/>
</g>
<!-- Node21&#45;&gt;Node15 -->
<g id="edge42" class="edge">
<title>Node21&#45;&gt;Node15</title>
<path fill="none" stroke="midnightblue" d="M255.15,-280.4C236.12,-273.81 214.37,-262.59 203,-244 178.51,-203.97 232.34,-159.4 265.13,-137.2"/>
<polygon fill="midnightblue" stroke="midnightblue" points="267.29,-139.96 273.73,-131.55 263.45,-134.11 267.29,-139.96"/>
</g>
<!-- Node21&#45;&gt;Node17 -->
<g id="edge33" class="edge">
<title>Node21&#45;&gt;Node17</title>
<path fill="none" stroke="midnightblue" d="M252.43,-287.74C189.96,-284.79 70.96,-275.14 45,-244 27.66,-223.2 -28.38,-267.76 55,-112 61.87,-99.16 74.13,-88.67 85.43,-81.06"/>
<polygon fill="midnightblue" stroke="midnightblue" points="87.55,-83.86 94.16,-75.58 83.83,-77.93 87.55,-83.86"/>
</g>
<!-- Node21&#45;&gt;Node19 -->
<g id="edge39" class="edge">
<title>Node21&#45;&gt;Node19</title>
<path fill="none" stroke="midnightblue" d="M319.2,-280.44C349.41,-271.28 397.51,-256.69 431.03,-246.52"/>
<polygon fill="midnightblue" stroke="midnightblue" points="432.37,-249.77 440.93,-243.52 430.34,-243.07 432.37,-249.77"/>
</g>
<!-- Node22 -->
<g id="node22" class="node">
<title>Node22</title>
<g id="a_node22"><a xlink:href="geometry_8h.html" target="_top" xlink:title=" ">
<polygon fill="white" stroke="black" points="66.5,-224.5 66.5,-243.5 155.5,-243.5 155.5,-224.5 66.5,-224.5"/>
<text text-anchor="middle" x="111" y="-231.5" font-family="Helvetica,sans-Serif" font-size="10.00">math/geometry.h</text>
</a>
</g>
</g>
<!-- Node21&#45;&gt;Node22 -->
<g id="edge34" class="edge">
<title>Node21&#45;&gt;Node22</title>
<path fill="none" stroke="midnightblue" d="M262.48,-280.44C231.93,-271.28 183.29,-256.69 149.4,-246.52"/>
<polygon fill="midnightblue" stroke="midnightblue" points="149.97,-243.04 139.39,-243.52 147.96,-249.74 149.97,-243.04"/>
</g>
<!-- Node23 -->
<g id="node23" class="node">
<title>Node23</title>
<g id="a_node23"><a xlink:href="mat4_8h.html" target="_top" xlink:title=" ">
<polygon fill="white" stroke="black" points="212.5,-224.5 212.5,-243.5 283.5,-243.5 283.5,-224.5 212.5,-224.5"/>
<text text-anchor="middle" x="248" y="-231.5" font-family="Helvetica,sans-Serif" font-size="10.00">math/mat4.h</text>
</a>
</g>
</g>
<!-- Node21&#45;&gt;Node23 -->
<g id="edge35" class="edge">
<title>Node21&#45;&gt;Node23</title>
<path fill="none" stroke="midnightblue" d="M283.9,-280.08C277.76,-272.38 268.73,-261.03 261.26,-251.65"/>
<polygon fill="midnightblue" stroke="midnightblue" points="263.94,-249.39 254.97,-243.75 258.46,-253.75 263.94,-249.39"/>
</g>
<!-- Node24 -->
<g id="node24" class="node">
<title>Node24</title>
<g id="a_node24"><a xlink:href="ray_8h.html" target="_top" xlink:title=" ">
<polygon fill="white" stroke="black" points="302,-224.5 302,-243.5 364,-243.5 364,-224.5 302,-224.5"/>
<text text-anchor="middle" x="333" y="-231.5" font-family="Helvetica,sans-Serif" font-size="10.00">math/ray.h</text>
</a>
</g>
</g>
<!-- Node21&#45;&gt;Node24 -->
<g id="edge37" class="edge">
<title>Node21&#45;&gt;Node24</title>
<path fill="none" stroke="midnightblue" d="M297.94,-280.08C303.93,-272.38 312.75,-261.03 320.05,-251.65"/>
<polygon fill="midnightblue" stroke="midnightblue" points="322.82,-253.79 326.19,-243.75 317.29,-249.5 322.82,-253.79"/>
</g>
<!-- Node25 -->
<g id="node25" class="node">
<title>Node25</title>
<g id="a_node25"><a xlink:href="solve__equation_8h.html" target="_top" xlink:title=" ">
<polygon fill="white" stroke="black" points="64.5,-112.5 64.5,-131.5 179.5,-131.5 179.5,-112.5 64.5,-112.5"/>
<text text-anchor="middle" x="122" y="-119.5" font-family="Helvetica,sans-Serif" font-size="10.00">math/solve_equation.h</text>
</a>
</g>
</g>
<!-- Node21&#45;&gt;Node25 -->
<g id="edge40" class="edge">
<title>Node21&#45;&gt;Node25</title>
<path fill="none" stroke="midnightblue" d="M252.12,-287.32C192.12,-283.81 81.3,-273.42 57,-244 29.06,-210.18 74.85,-162.48 102.82,-138.31"/>
<polygon fill="midnightblue" stroke="midnightblue" points="105.41,-140.71 110.83,-131.61 100.92,-135.35 105.41,-140.71"/>
</g>
<!-- Node23&#45;&gt;Node14 -->
<g id="edge36" class="edge">
<title>Node23&#45;&gt;Node14</title>
<path fill="none" stroke="midnightblue" d="M266.06,-224.44C284.57,-215.68 313.58,-201.94 334.86,-191.86"/>
<polygon fill="midnightblue" stroke="midnightblue" points="336.48,-194.96 344.02,-187.52 333.49,-188.63 336.48,-194.96"/>
</g>
<!-- Node24&#45;&gt;Node14 -->
<g id="edge38" class="edge">
<title>Node24&#45;&gt;Node14</title>
<path fill="none" stroke="midnightblue" d="M337.79,-224.08C341.76,-216.69 347.53,-205.95 352.43,-196.81"/>
<polygon fill="midnightblue" stroke="midnightblue" points="355.65,-198.22 357.3,-187.75 349.49,-194.91 355.65,-198.22"/>
</g>
<!-- Node25&#45;&gt;Node16 -->
<g id="edge41" class="edge">
<title>Node25&#45;&gt;Node16</title>
<path fill="none" stroke="midnightblue" d="M132.19,-112.35C141.47,-103.94 154.93,-90.38 163,-76 171.09,-61.58 176.03,-43.39 178.83,-29.92"/>
<polygon fill="midnightblue" stroke="midnightblue" points="182.31,-30.38 180.71,-19.91 175.43,-29.09 182.31,-30.38"/>
</g>
</g>
</svg>
