<?xml version="1.0" encoding="UTF-8" standalone="no"?>
<!DOCTYPE svg PUBLIC "-//W3C//DTD SVG 1.1//EN"
 "http://www.w3.org/Graphics/SVG/1.1/DTD/svg11.dtd">
<!-- Generated by graphviz version 2.50.0 (20211204.2007)
 -->
<!-- Title: blur.cpp Pages: 1 -->
<svg width="1172pt" height="532pt"
 viewBox="0.00 0.00 1171.50 532.00" xmlns="http://www.w3.org/2000/svg" xmlns:xlink="http://www.w3.org/1999/xlink">
<g id="graph0" class="graph" transform="scale(1 1) rotate(0) translate(4 528)">
<title>blur.cpp</title>
<polygon fill="white" stroke="transparent" points="-4,4 -4,-528 1167.5,-528 1167.5,4 -4,4"/>
<!-- Node1 -->
<g id="node1" class="node">
<title>Node1</title>
<g id="a_node1"><a xlink:title=" ">
<polygon fill="#bfbfbf" stroke="black" points="1066.5,-504.5 1066.5,-523.5 1116.5,-523.5 1116.5,-504.5 1066.5,-504.5"/>
<text text-anchor="middle" x="1091.5" y="-511.5" font-family="Helvetica,sans-Serif" font-size="10.00">blur.cpp</text>
</a>
</g>
</g>
<!-- Node2 -->
<g id="node2" class="node">
<title>Node2</title>
<g id="a_node2"><a xlink:title=" ">
<polygon fill="white" stroke="#bfbfbf" points="798.5,-56.5 798.5,-75.5 850.5,-75.5 850.5,-56.5 798.5,-56.5"/>
<text text-anchor="middle" x="824.5" y="-63.5" font-family="Helvetica,sans-Serif" font-size="10.00">assert.h</text>
</a>
</g>
</g>
<!-- Node1&#45;&gt;Node2 -->
<g id="edge1" class="edge">
<title>Node1&#45;&gt;Node2</title>
<path fill="none" stroke="midnightblue" d="M1091.5,-504.44C1091.5,-485.94 1091.5,-440.81 1091.5,-403 1091.5,-403 1091.5,-403 1091.5,-177 1091.5,-78.33 933.68,-66.36 860.71,-66.1"/>
<polygon fill="midnightblue" stroke="midnightblue" points="860.57,-62.6 850.59,-66.14 860.6,-69.6 860.57,-62.6"/>
</g>
<!-- Node3 -->
<g id="node3" class="node">
<title>Node3</title>
<g id="a_node3"><a xlink:title=" ">
<polygon fill="white" stroke="#bfbfbf" points="1119.5,-448.5 1119.5,-467.5 1163.5,-467.5 1163.5,-448.5 1119.5,-448.5"/>
<text text-anchor="middle" x="1141.5" y="-455.5" font-family="Helvetica,sans-Serif" font-size="10.00">vector</text>
</a>
</g>
</g>
<!-- Node1&#45;&gt;Node3 -->
<g id="edge2" class="edge">
<title>Node1&#45;&gt;Node3</title>
<path fill="none" stroke="midnightblue" d="M1099.76,-504.08C1106.96,-496.3 1117.61,-484.8 1126.35,-475.37"/>
<polygon fill="midnightblue" stroke="midnightblue" points="1129.17,-477.47 1133.4,-467.75 1124.03,-472.71 1129.17,-477.47"/>
</g>
<!-- Node4 -->
<g id="node4" class="node">
<title>Node4</title>
<g id="a_node4"><a xlink:href="blur_8h.html" target="_top" xlink:title=" ">
<polygon fill="white" stroke="black" points="801,-448.5 801,-467.5 866,-467.5 866,-448.5 801,-448.5"/>
<text text-anchor="middle" x="833.5" y="-455.5" font-family="Helvetica,sans-Serif" font-size="10.00">math/blur.h</text>
</a>
</g>
</g>
<!-- Node1&#45;&gt;Node4 -->
<g id="edge3" class="edge">
<title>Node1&#45;&gt;Node4</title>
<path fill="none" stroke="midnightblue" d="M1066.29,-507.72C1022.1,-498.47 930.2,-479.24 876.02,-467.9"/>
<polygon fill="midnightblue" stroke="midnightblue" points="876.54,-464.43 866.04,-465.81 875.11,-471.28 876.54,-464.43"/>
</g>
<!-- Node5 -->
<g id="node5" class="node">
<title>Node5</title>
<g id="a_node5"><a xlink:href="renderer_8h.html" target="_top" xlink:title=" ">
<polygon fill="white" stroke="black" points="694.5,-392.5 694.5,-411.5 842.5,-411.5 842.5,-392.5 694.5,-392.5"/>
<text text-anchor="middle" x="768.5" y="-399.5" font-family="Helvetica,sans-Serif" font-size="10.00">../graphics_wrapper/renderer.h</text>
</a>
</g>
</g>
<!-- Node4&#45;&gt;Node5 -->
<g id="edge4" class="edge">
<title>Node4&#45;&gt;Node5</title>
<path fill="none" stroke="midnightblue" d="M823.06,-448.32C813.35,-440.26 798.68,-428.08 787,-418.37"/>
<polygon fill="midnightblue" stroke="midnightblue" points="789.06,-415.53 779.13,-411.83 784.59,-420.92 789.06,-415.53"/>
</g>
<!-- Node12 -->
<g id="node12" class="node">
<title>Node12</title>
<g id="a_node12"><a xlink:href="color_8h.html" target="_top" xlink:title=" ">
<polygon fill="white" stroke="black" points="768,-280.5 768,-299.5 813,-299.5 813,-280.5 768,-280.5"/>
<text text-anchor="middle" x="790.5" y="-287.5" font-family="Helvetica,sans-Serif" font-size="10.00">color.h</text>
</a>
</g>
</g>
<!-- Node4&#45;&gt;Node12 -->
<g id="edge49" class="edge">
<title>Node4&#45;&gt;Node12</title>
<path fill="none" stroke="midnightblue" d="M847.01,-448.39C876.64,-428.42 942.5,-377.49 913.5,-336 893.31,-307.12 852.49,-296.71 823.42,-293"/>
<polygon fill="midnightblue" stroke="midnightblue" points="823.61,-289.5 813.3,-291.91 822.87,-296.46 823.61,-289.5"/>
</g>
<!-- Node17 -->
<g id="node17" class="node">
<title>Node17</title>
<g id="a_node17"><a xlink:href="vec2_8h.html" target="_top" xlink:title=" ">
<polygon fill="white" stroke="black" points="328.5,-112.5 328.5,-131.5 374.5,-131.5 374.5,-112.5 328.5,-112.5"/>
<text text-anchor="middle" x="351.5" y="-119.5" font-family="Helvetica,sans-Serif" font-size="10.00">vec2.h</text>
</a>
</g>
</g>
<!-- Node4&#45;&gt;Node17 -->
<g id="edge50" class="edge">
<title>Node4&#45;&gt;Node17</title>
<path fill="none" stroke="midnightblue" d="M800.59,-455.8C653.97,-450.03 67.5,-422.24 67.5,-347 67.5,-347 67.5,-347 67.5,-289 67.5,-174.15 242.77,-137.3 317.93,-126.78"/>
<polygon fill="midnightblue" stroke="midnightblue" points="318.8,-130.2 328.26,-125.41 317.89,-123.26 318.8,-130.2"/>
</g>
<!-- Node6 -->
<g id="node6" class="node">
<title>Node6</title>
<g id="a_node6"><a xlink:title=" ">
<polygon fill="white" stroke="#bfbfbf" points="679,-224.5 679,-243.5 728,-243.5 728,-224.5 679,-224.5"/>
<text text-anchor="middle" x="703.5" y="-231.5" font-family="Helvetica,sans-Serif" font-size="10.00">stdint.h</text>
</a>
</g>
</g>
<!-- Node5&#45;&gt;Node6 -->
<g id="edge5" class="edge">
<title>Node5&#45;&gt;Node6</title>
<path fill="none" stroke="midnightblue" d="M763.81,-392.17C759.14,-383.2 751.89,-368.83 746.5,-356 731.5,-320.34 717.08,-277.43 709.34,-253.48"/>
<polygon fill="midnightblue" stroke="midnightblue" points="712.58,-252.09 706.2,-243.64 705.91,-254.23 712.58,-252.09"/>
</g>
<!-- Node7 -->
<g id="node7" class="node">
<title>Node7</title>
<g id="a_node7"><a xlink:title=" ">
<polygon fill="white" stroke="#bfbfbf" points="762,-336.5 762,-355.5 845,-355.5 845,-336.5 762,-336.5"/>
<text text-anchor="middle" x="803.5" y="-343.5" font-family="Helvetica,sans-Serif" font-size="10.00">unordered_map</text>
</a>
</g>
</g>
<!-- Node5&#45;&gt;Node7 -->
<g id="edge6" class="edge">
<title>Node5&#45;&gt;Node7</title>
<path fill="none" stroke="midnightblue" d="M774.28,-392.08C779.17,-384.53 786.33,-373.49 792.33,-364.23"/>
<polygon fill="midnightblue" stroke="midnightblue" points="795.33,-366.05 797.83,-355.75 789.45,-362.24 795.33,-366.05"/>
</g>
<!-- Node8 -->
<g id="node8" class="node">
<title>Node8</title>
<g id="a_node8"><a xlink:title=" ">
<polygon fill="white" stroke="#bfbfbf" points="863,-336.5 863,-355.5 904,-355.5 904,-336.5 863,-336.5"/>
<text text-anchor="middle" x="883.5" y="-343.5" font-family="Helvetica,sans-Serif" font-size="10.00">stack</text>
</a>
</g>
</g>
<!-- Node5&#45;&gt;Node8 -->
<g id="edge7" class="edge">
<title>Node5&#45;&gt;Node8</title>
<path fill="none" stroke="midnightblue" d="M786.72,-392.44C805.4,-383.68 834.66,-369.94 856.12,-359.86"/>
<polygon fill="midnightblue" stroke="midnightblue" points="857.8,-362.93 865.36,-355.52 854.82,-356.6 857.8,-362.93"/>
</g>
<!-- Node9 -->
<g id="node9" class="node">
<title>Node9</title>
<g id="a_node9"><a xlink:href="window_8h.html" target="_top" xlink:title=" ">
<polygon fill="white" stroke="black" points="960.5,-336.5 960.5,-355.5 1016.5,-355.5 1016.5,-336.5 960.5,-336.5"/>
<text text-anchor="middle" x="988.5" y="-343.5" font-family="Helvetica,sans-Serif" font-size="10.00">window.h</text>
</a>
</g>
</g>
<!-- Node5&#45;&gt;Node9 -->
<g id="edge8" class="edge">
<title>Node5&#45;&gt;Node9</title>
<path fill="none" stroke="midnightblue" d="M803.36,-392.44C843.46,-382.6 909.07,-366.5 950.46,-356.34"/>
<polygon fill="midnightblue" stroke="midnightblue" points="951.56,-359.67 960.44,-353.89 949.89,-352.87 951.56,-359.67"/>
</g>
<!-- Node5&#45;&gt;Node12 -->
<g id="edge47" class="edge">
<title>Node5&#45;&gt;Node12</title>
<path fill="none" stroke="midnightblue" d="M763.46,-392.4C756.74,-379.79 746.47,-355.62 753.5,-336 757.44,-325 765.36,-314.77 772.86,-306.85"/>
<polygon fill="midnightblue" stroke="midnightblue" points="775.39,-309.27 780.06,-299.76 770.48,-304.28 775.39,-309.27"/>
</g>
<!-- Node22 -->
<g id="node22" class="node">
<title>Node22</title>
<g id="a_node22"><a xlink:href="texture_8h.html" target="_top" xlink:title="Basic texture management.">
<polygon fill="white" stroke="black" points="612,-336.5 612,-355.5 667,-355.5 667,-336.5 612,-336.5"/>
<text text-anchor="middle" x="639.5" y="-343.5" font-family="Helvetica,sans-Serif" font-size="10.00">texture.h</text>
</a>
</g>
</g>
<!-- Node5&#45;&gt;Node22 -->
<g id="edge32" class="edge">
<title>Node5&#45;&gt;Node22</title>
<path fill="none" stroke="midnightblue" d="M748.06,-392.44C726.83,-383.56 693.4,-369.56 669.25,-359.45"/>
<polygon fill="midnightblue" stroke="midnightblue" points="670.42,-356.15 659.84,-355.52 667.72,-362.61 670.42,-356.15"/>
</g>
<!-- Node23 -->
<g id="node23" class="node">
<title>Node23</title>
<g id="a_node23"><a xlink:href="sml__math_8h.html" target="_top" xlink:title=" ">
<polygon fill="white" stroke="black" points="294,-280.5 294,-299.5 371,-299.5 371,-280.5 294,-280.5"/>
<text text-anchor="middle" x="332.5" y="-287.5" font-family="Helvetica,sans-Serif" font-size="10.00">../sml_math.h</text>
</a>
</g>
</g>
<!-- Node5&#45;&gt;Node23 -->
<g id="edge48" class="edge">
<title>Node5&#45;&gt;Node23</title>
<path fill="none" stroke="midnightblue" d="M734.65,-392.46C656.42,-372.72 463.12,-323.96 376.15,-302.01"/>
<polygon fill="midnightblue" stroke="midnightblue" points="376.88,-298.59 366.33,-299.53 375.17,-305.37 376.88,-298.59"/>
</g>
<!-- Node9&#45;&gt;Node2 -->
<g id="edge9" class="edge">
<title>Node9&#45;&gt;Node2</title>
<path fill="none" stroke="midnightblue" d="M1000.37,-336.29C1010.8,-328.04 1025.65,-314.75 1034.5,-300 1049.98,-274.19 1053.5,-265.1 1053.5,-235 1053.5,-235 1053.5,-235 1053.5,-177 1053.5,-92.6 925.56,-72.92 860.94,-68.36"/>
<polygon fill="midnightblue" stroke="midnightblue" points="860.97,-64.85 850.77,-67.73 860.53,-71.84 860.97,-64.85"/>
</g>
<!-- Node10 -->
<g id="node10" class="node">
<title>Node10</title>
<g id="a_node10"><a xlink:title=" ">
<polygon fill="white" stroke="#bfbfbf" points="979.5,-280.5 979.5,-299.5 1025.5,-299.5 1025.5,-280.5 979.5,-280.5"/>
<text text-anchor="middle" x="1002.5" y="-287.5" font-family="Helvetica,sans-Serif" font-size="10.00">stdio.h</text>
</a>
</g>
</g>
<!-- Node9&#45;&gt;Node10 -->
<g id="edge10" class="edge">
<title>Node9&#45;&gt;Node10</title>
<path fill="none" stroke="midnightblue" d="M990.81,-336.08C992.67,-328.93 995.34,-318.64 997.65,-309.69"/>
<polygon fill="midnightblue" stroke="midnightblue" points="1001.11,-310.31 1000.23,-299.75 994.33,-308.55 1001.11,-310.31"/>
</g>
<!-- Node11 -->
<g id="node11" class="node">
<title>Node11</title>
<g id="a_node11"><a xlink:title=" ">
<polygon fill="white" stroke="#bfbfbf" points="634.5,-168.5 634.5,-187.5 678.5,-187.5 678.5,-168.5 634.5,-168.5"/>
<text text-anchor="middle" x="656.5" y="-175.5" font-family="Helvetica,sans-Serif" font-size="10.00">SDL.h</text>
</a>
</g>
</g>
<!-- Node9&#45;&gt;Node11 -->
<g id="edge11" class="edge">
<title>Node9&#45;&gt;Node11</title>
<path fill="none" stroke="midnightblue" d="M984.83,-336.46C981.02,-327.47 975.01,-312.86 970.5,-300 958.82,-266.7 974.14,-247.14 947.5,-224 909.31,-190.83 756.24,-182.05 688.75,-179.78"/>
<polygon fill="midnightblue" stroke="midnightblue" points="688.79,-176.27 678.68,-179.46 688.57,-183.27 688.79,-176.27"/>
</g>
<!-- Node9&#45;&gt;Node12 -->
<g id="edge12" class="edge">
<title>Node9&#45;&gt;Node12</title>
<path fill="none" stroke="midnightblue" d="M960.13,-337.26C923.97,-327.4 861.56,-310.38 823.37,-299.96"/>
<polygon fill="midnightblue" stroke="midnightblue" points="823.85,-296.47 813.28,-297.21 822,-303.22 823.85,-296.47"/>
</g>
<!-- Node21 -->
<g id="node21" class="node">
<title>Node21</title>
<g id="a_node21"><a xlink:href="rectangle_8h.html" target="_top" xlink:title=" ">
<polygon fill="white" stroke="black" points="524.5,-224.5 524.5,-243.5 622.5,-243.5 622.5,-224.5 524.5,-224.5"/>
<text text-anchor="middle" x="573.5" y="-231.5" font-family="Helvetica,sans-Serif" font-size="10.00">../math/rectangle.h</text>
</a>
</g>
</g>
<!-- Node9&#45;&gt;Node21 -->
<g id="edge29" class="edge">
<title>Node9&#45;&gt;Node21</title>
<path fill="none" stroke="midnightblue" d="M960.36,-340.79C916.86,-333.99 830.86,-319.37 759.5,-300 703.83,-284.88 640.79,-261.48 604.25,-247.26"/>
<polygon fill="midnightblue" stroke="midnightblue" points="605.26,-243.9 594.67,-243.51 602.7,-250.42 605.26,-243.9"/>
</g>
<!-- Node12&#45;&gt;Node6 -->
<g id="edge13" class="edge">
<title>Node12&#45;&gt;Node6</title>
<path fill="none" stroke="midnightblue" d="M776.52,-280.32C762.95,-271.9 742.12,-258.97 726.18,-249.07"/>
<polygon fill="midnightblue" stroke="midnightblue" points="727.79,-245.95 717.44,-243.65 724.09,-251.9 727.79,-245.95"/>
</g>
<!-- Node12&#45;&gt;Node11 -->
<g id="edge14" class="edge">
<title>Node12&#45;&gt;Node11</title>
<path fill="none" stroke="midnightblue" d="M784.87,-280.11C776.04,-266.69 757.82,-241.01 737.5,-224 721.93,-210.97 702.02,-199.85 685.84,-191.92"/>
<polygon fill="midnightblue" stroke="midnightblue" points="687.34,-188.76 676.8,-187.63 684.34,-195.08 687.34,-188.76"/>
</g>
<!-- Node13 -->
<g id="node13" class="node">
<title>Node13</title>
<g id="a_node13"><a xlink:title=" ">
<polygon fill="white" stroke="#bfbfbf" points="882.5,-224.5 882.5,-243.5 938.5,-243.5 938.5,-224.5 882.5,-224.5"/>
<text text-anchor="middle" x="910.5" y="-231.5" font-family="Helvetica,sans-Serif" font-size="10.00">algorithm</text>
</a>
</g>
</g>
<!-- Node12&#45;&gt;Node13 -->
<g id="edge15" class="edge">
<title>Node12&#45;&gt;Node13</title>
<path fill="none" stroke="midnightblue" d="M809.51,-280.44C829.09,-271.64 859.81,-257.81 882.23,-247.72"/>
<polygon fill="midnightblue" stroke="midnightblue" points="883.89,-250.81 891.57,-243.52 881.02,-244.43 883.89,-250.81"/>
</g>
<!-- Node14 -->
<g id="node14" class="node">
<title>Node14</title>
<g id="a_node14"><a xlink:href="vec4_8h.html" target="_top" xlink:title=" ">
<polygon fill="white" stroke="black" points="784.5,-224.5 784.5,-243.5 864.5,-243.5 864.5,-224.5 784.5,-224.5"/>
<text text-anchor="middle" x="824.5" y="-231.5" font-family="Helvetica,sans-Serif" font-size="10.00">../math/vec4.h</text>
</a>
</g>
</g>
<!-- Node12&#45;&gt;Node14 -->
<g id="edge16" class="edge">
<title>Node12&#45;&gt;Node14</title>
<path fill="none" stroke="midnightblue" d="M796.11,-280.08C800.87,-272.53 807.82,-261.49 813.65,-252.23"/>
<polygon fill="midnightblue" stroke="midnightblue" points="816.62,-254.08 818.99,-243.75 810.7,-250.35 816.62,-254.08"/>
</g>
<!-- Node14&#45;&gt;Node2 -->
<g id="edge17" class="edge">
<title>Node14&#45;&gt;Node2</title>
<path fill="none" stroke="midnightblue" d="M824.5,-224.08C824.5,-197.95 824.5,-121.21 824.5,-85.58"/>
<polygon fill="midnightblue" stroke="midnightblue" points="828,-85.57 824.5,-75.57 821,-85.57 828,-85.57"/>
</g>
<!-- Node15 -->
<g id="node15" class="node">
<title>Node15</title>
<g id="a_node15"><a xlink:title=" ">
<polygon fill="white" stroke="#bfbfbf" points="424,-56.5 424,-75.5 471,-75.5 471,-56.5 424,-56.5"/>
<text text-anchor="middle" x="447.5" y="-63.5" font-family="Helvetica,sans-Serif" font-size="10.00">math.h</text>
</a>
</g>
</g>
<!-- Node14&#45;&gt;Node15 -->
<g id="edge18" class="edge">
<title>Node14&#45;&gt;Node15</title>
<path fill="none" stroke="midnightblue" d="M806.88,-224.33C780.91,-211.62 730.76,-187.35 687.5,-168 612.92,-134.63 524.02,-98.04 478.2,-79.4"/>
<polygon fill="midnightblue" stroke="midnightblue" points="479.41,-76.12 468.83,-75.6 476.78,-82.61 479.41,-76.12"/>
</g>
<!-- Node16 -->
<g id="node16" class="node">
<title>Node16</title>
<g id="a_node16"><a xlink:href="vec3_8h.html" target="_top" xlink:title=" ">
<polygon fill="white" stroke="black" points="424.5,-168.5 424.5,-187.5 470.5,-187.5 470.5,-168.5 424.5,-168.5"/>
<text text-anchor="middle" x="447.5" y="-175.5" font-family="Helvetica,sans-Serif" font-size="10.00">vec3.h</text>
</a>
</g>
</g>
<!-- Node14&#45;&gt;Node16 -->
<g id="edge19" class="edge">
<title>Node14&#45;&gt;Node16</title>
<path fill="none" stroke="midnightblue" d="M784.15,-227.22C709.17,-216.48 549.7,-193.64 480.59,-183.74"/>
<polygon fill="midnightblue" stroke="midnightblue" points="481.08,-180.27 470.68,-182.32 480.09,-187.2 481.08,-180.27"/>
</g>
<!-- Node16&#45;&gt;Node2 -->
<g id="edge20" class="edge">
<title>Node16&#45;&gt;Node2</title>
<path fill="none" stroke="midnightblue" d="M470.52,-170.28C534.01,-151.76 712,-99.82 788.65,-77.46"/>
<polygon fill="midnightblue" stroke="midnightblue" points="789.72,-80.79 798.34,-74.63 787.76,-74.07 789.72,-80.79"/>
</g>
<!-- Node16&#45;&gt;Node15 -->
<g id="edge21" class="edge">
<title>Node16&#45;&gt;Node15</title>
<path fill="none" stroke="midnightblue" d="M447.5,-168.37C447.5,-150.62 447.5,-109.67 447.5,-85.6"/>
<polygon fill="midnightblue" stroke="midnightblue" points="451,-85.59 447.5,-75.59 444,-85.59 451,-85.59"/>
</g>
<!-- Node16&#45;&gt;Node17 -->
<g id="edge22" class="edge">
<title>Node16&#45;&gt;Node17</title>
<path fill="none" stroke="midnightblue" d="M432.08,-168.32C416.96,-159.82 393.68,-146.73 376.03,-136.8"/>
<polygon fill="midnightblue" stroke="midnightblue" points="377.32,-133.51 366.89,-131.65 373.89,-139.61 377.32,-133.51"/>
</g>
<!-- Node17&#45;&gt;Node2 -->
<g id="edge23" class="edge">
<title>Node17&#45;&gt;Node2</title>
<path fill="none" stroke="midnightblue" d="M374.63,-118.36C450.98,-109.64 695.35,-81.74 788.22,-71.14"/>
<polygon fill="midnightblue" stroke="midnightblue" points="788.73,-74.61 798.26,-70 787.93,-67.65 788.73,-74.61"/>
</g>
<!-- Node17&#45;&gt;Node15 -->
<g id="edge25" class="edge">
<title>Node17&#45;&gt;Node15</title>
<path fill="none" stroke="midnightblue" d="M366.92,-112.32C382.04,-103.82 405.32,-90.73 422.97,-80.8"/>
<polygon fill="midnightblue" stroke="midnightblue" points="425.11,-83.61 432.11,-75.65 421.68,-77.51 425.11,-83.61"/>
</g>
<!-- Node18 -->
<g id="node18" class="node">
<title>Node18</title>
<g id="a_node18"><a xlink:title=" ">
<polygon fill="white" stroke="#bfbfbf" points="206,-0.5 206,-19.5 265,-19.5 265,-0.5 206,-0.5"/>
<text text-anchor="middle" x="235.5" y="-7.5" font-family="Helvetica,sans-Serif" font-size="10.00">inttypes.h</text>
</a>
</g>
</g>
<!-- Node17&#45;&gt;Node18 -->
<g id="edge24" class="edge">
<title>Node17&#45;&gt;Node18</title>
<path fill="none" stroke="midnightblue" d="M328.15,-116.04C306.09,-110.17 273.63,-98.24 254.5,-76 243.37,-63.06 238.75,-43.89 236.84,-29.72"/>
<polygon fill="midnightblue" stroke="midnightblue" points="240.31,-29.24 235.82,-19.64 233.35,-29.94 240.31,-29.24"/>
</g>
<!-- Node19 -->
<g id="node19" class="node">
<title>Node19</title>
<g id="a_node19"><a xlink:href="float__compare_8h.html" target="_top" xlink:title=" ">
<polygon fill="white" stroke="black" points="263.5,-56.5 263.5,-75.5 349.5,-75.5 349.5,-56.5 263.5,-56.5"/>
<text text-anchor="middle" x="306.5" y="-63.5" font-family="Helvetica,sans-Serif" font-size="10.00">float_compare.h</text>
</a>
</g>
</g>
<!-- Node17&#45;&gt;Node19 -->
<g id="edge26" class="edge">
<title>Node17&#45;&gt;Node19</title>
<path fill="none" stroke="midnightblue" d="M344.07,-112.08C337.65,-104.38 328.19,-93.03 320.38,-83.65"/>
<polygon fill="midnightblue" stroke="midnightblue" points="322.88,-81.19 313.79,-75.75 317.51,-85.67 322.88,-81.19"/>
</g>
<!-- Node19&#45;&gt;Node18 -->
<g id="edge27" class="edge">
<title>Node19&#45;&gt;Node18</title>
<path fill="none" stroke="midnightblue" d="M295.09,-56.32C284.39,-48.18 268.16,-35.84 255.34,-26.09"/>
<polygon fill="midnightblue" stroke="midnightblue" points="257.19,-23.1 247.11,-19.83 252.96,-28.67 257.19,-23.1"/>
</g>
<!-- Node20 -->
<g id="node20" class="node">
<title>Node20</title>
<g id="a_node20"><a xlink:title=" ">
<polygon fill="white" stroke="#bfbfbf" points="284.5,-0.5 284.5,-19.5 328.5,-19.5 328.5,-0.5 284.5,-0.5"/>
<text text-anchor="middle" x="306.5" y="-7.5" font-family="Helvetica,sans-Serif" font-size="10.00">float.h</text>
</a>
</g>
</g>
<!-- Node19&#45;&gt;Node20 -->
<g id="edge28" class="edge">
<title>Node19&#45;&gt;Node20</title>
<path fill="none" stroke="midnightblue" d="M306.5,-56.08C306.5,-49.01 306.5,-38.86 306.5,-29.99"/>
<polygon fill="midnightblue" stroke="midnightblue" points="310,-29.75 306.5,-19.75 303,-29.75 310,-29.75"/>
</g>
<!-- Node21&#45;&gt;Node11 -->
<g id="edge30" class="edge">
<title>Node21&#45;&gt;Node11</title>
<path fill="none" stroke="midnightblue" d="M586.84,-224.32C599.66,-215.98 619.28,-203.21 634.44,-193.35"/>
<polygon fill="midnightblue" stroke="midnightblue" points="636.72,-196.04 643.2,-187.65 632.91,-190.17 636.72,-196.04"/>
</g>
<!-- Node21&#45;&gt;Node17 -->
<g id="edge31" class="edge">
<title>Node21&#45;&gt;Node17</title>
<path fill="none" stroke="midnightblue" d="M563.09,-224.4C546.36,-210.91 512.02,-184.58 479.5,-168 448.75,-152.32 411.26,-139.85 384.82,-132.04"/>
<polygon fill="midnightblue" stroke="midnightblue" points="385.5,-128.6 374.92,-129.19 383.56,-135.32 385.5,-128.6"/>
</g>
<!-- Node22&#45;&gt;Node11 -->
<g id="edge33" class="edge">
<title>Node22&#45;&gt;Node11</title>
<path fill="none" stroke="midnightblue" d="M640.41,-336.08C643.09,-309.95 650.95,-233.21 654.6,-197.58"/>
<polygon fill="midnightblue" stroke="midnightblue" points="658.09,-197.87 655.62,-187.57 651.12,-197.16 658.09,-197.87"/>
</g>
<!-- Node22&#45;&gt;Node12 -->
<g id="edge34" class="edge">
<title>Node22&#45;&gt;Node12</title>
<path fill="none" stroke="midnightblue" d="M663.43,-336.44C689.02,-327.29 729.75,-312.73 758.18,-302.56"/>
<polygon fill="midnightblue" stroke="midnightblue" points="759.44,-305.83 767.67,-299.16 757.08,-299.23 759.44,-305.83"/>
</g>
<!-- Node22&#45;&gt;Node23 -->
<g id="edge35" class="edge">
<title>Node22&#45;&gt;Node23</title>
<path fill="none" stroke="midnightblue" d="M611.99,-340.16C559.95,-331.01 446.49,-311.05 381.27,-299.58"/>
<polygon fill="midnightblue" stroke="midnightblue" points="381.68,-296.1 371.23,-297.81 380.47,-302.99 381.68,-296.1"/>
</g>
<!-- Node23&#45;&gt;Node16 -->
<g id="edge46" class="edge">
<title>Node23&#45;&gt;Node16</title>
<path fill="none" stroke="midnightblue" d="M299.39,-280.43C264.58,-269.82 217.56,-249.93 238.5,-224 260.21,-197.12 360.88,-185.54 414.18,-181.22"/>
<polygon fill="midnightblue" stroke="midnightblue" points="414.78,-184.68 424.48,-180.43 414.24,-177.7 414.78,-184.68"/>
</g>
<!-- Node23&#45;&gt;Node17 -->
<g id="edge45" class="edge">
<title>Node23&#45;&gt;Node17</title>
<path fill="none" stroke="midnightblue" d="M293.84,-281.35C258.93,-272.35 215.1,-254.61 229.5,-224 248.93,-182.69 294.47,-152.48 324.09,-136.35"/>
<polygon fill="midnightblue" stroke="midnightblue" points="325.87,-139.36 333.09,-131.61 322.61,-133.17 325.87,-139.36"/>
</g>
<!-- Node23&#45;&gt;Node19 -->
<g id="edge36" class="edge">
<title>Node23&#45;&gt;Node19</title>
<path fill="none" stroke="midnightblue" d="M293.85,-283.98C269.22,-278.56 239.1,-267.31 223.5,-244 186.46,-188.64 255,-114.13 289,-82.37"/>
<polygon fill="midnightblue" stroke="midnightblue" points="291.41,-84.91 296.44,-75.59 286.69,-79.74 291.41,-84.91"/>
</g>
<!-- Node23&#45;&gt;Node21 -->
<g id="edge42" class="edge">
<title>Node23&#45;&gt;Node21</title>
<path fill="none" stroke="midnightblue" d="M370.69,-280.44C412.64,-271.04 480.09,-255.93 525.57,-245.74"/>
<polygon fill="midnightblue" stroke="midnightblue" points="526.5,-249.12 535.49,-243.52 524.97,-242.29 526.5,-249.12"/>
</g>
<!-- Node24 -->
<g id="node24" class="node">
<title>Node24</title>
<g id="a_node24"><a xlink:href="geometry_8h.html" target="_top" xlink:title=" ">
<polygon fill="white" stroke="black" points="337,-224.5 337,-243.5 426,-243.5 426,-224.5 337,-224.5"/>
<text text-anchor="middle" x="381.5" y="-231.5" font-family="Helvetica,sans-Serif" font-size="10.00">math/geometry.h</text>
</a>
</g>
</g>
<!-- Node23&#45;&gt;Node24 -->
<g id="edge37" class="edge">
<title>Node23&#45;&gt;Node24</title>
<path fill="none" stroke="midnightblue" d="M340.59,-280.08C347.66,-272.3 358.09,-260.8 366.65,-251.37"/>
<polygon fill="midnightblue" stroke="midnightblue" points="369.43,-253.51 373.56,-243.75 364.25,-248.8 369.43,-253.51"/>
</g>
<!-- Node25 -->
<g id="node25" class="node">
<title>Node25</title>
<g id="a_node25"><a xlink:href="mat4_8h.html" target="_top" xlink:title=" ">
<polygon fill="white" stroke="black" points="248,-224.5 248,-243.5 319,-243.5 319,-224.5 248,-224.5"/>
<text text-anchor="middle" x="283.5" y="-231.5" font-family="Helvetica,sans-Serif" font-size="10.00">math/mat4.h</text>
</a>
</g>
</g>
<!-- Node23&#45;&gt;Node25 -->
<g id="edge38" class="edge">
<title>Node23&#45;&gt;Node25</title>
<path fill="none" stroke="midnightblue" d="M324.41,-280.08C317.34,-272.3 306.91,-260.8 298.35,-251.37"/>
<polygon fill="midnightblue" stroke="midnightblue" points="300.75,-248.8 291.44,-243.75 295.57,-253.51 300.75,-248.8"/>
</g>
<!-- Node26 -->
<g id="node26" class="node">
<title>Node26</title>
<g id="a_node26"><a xlink:href="ray_8h.html" target="_top" xlink:title=" ">
<polygon fill="white" stroke="black" points="444.5,-224.5 444.5,-243.5 506.5,-243.5 506.5,-224.5 444.5,-224.5"/>
<text text-anchor="middle" x="475.5" y="-231.5" font-family="Helvetica,sans-Serif" font-size="10.00">math/ray.h</text>
</a>
</g>
</g>
<!-- Node23&#45;&gt;Node26 -->
<g id="edge40" class="edge">
<title>Node23&#45;&gt;Node26</title>
<path fill="none" stroke="midnightblue" d="M355.16,-280.44C378.9,-271.48 416.41,-257.31 443.24,-247.18"/>
<polygon fill="midnightblue" stroke="midnightblue" points="444.83,-250.32 452.95,-243.52 442.36,-243.77 444.83,-250.32"/>
</g>
<!-- Node27 -->
<g id="node27" class="node">
<title>Node27</title>
<g id="a_node27"><a xlink:href="solve__equation_8h.html" target="_top" xlink:title=" ">
<polygon fill="white" stroke="black" points="0,-112.5 0,-131.5 115,-131.5 115,-112.5 0,-112.5"/>
<text text-anchor="middle" x="57.5" y="-119.5" font-family="Helvetica,sans-Serif" font-size="10.00">math/solve_equation.h</text>
</a>
</g>
</g>
<!-- Node23&#45;&gt;Node27 -->
<g id="edge43" class="edge">
<title>Node23&#45;&gt;Node27</title>
<path fill="none" stroke="midnightblue" d="M293.67,-289.27C249.85,-287.71 178.35,-279.33 129.5,-244 93.64,-218.07 72.49,-168.29 63.18,-141.37"/>
<polygon fill="midnightblue" stroke="midnightblue" points="66.44,-140.08 60,-131.67 59.79,-142.26 66.44,-140.08"/>
</g>
<!-- Node25&#45;&gt;Node16 -->
<g id="edge39" class="edge">
<title>Node25&#45;&gt;Node16</title>
<path fill="none" stroke="midnightblue" d="M309.49,-224.44C337.89,-215.09 383.46,-200.09 414.4,-189.9"/>
<polygon fill="midnightblue" stroke="midnightblue" points="415.88,-193.1 424.29,-186.64 413.69,-186.45 415.88,-193.1"/>
</g>
<!-- Node26&#45;&gt;Node16 -->
<g id="edge41" class="edge">
<title>Node26&#45;&gt;Node16</title>
<path fill="none" stroke="midnightblue" d="M470.88,-224.08C467.04,-216.69 461.48,-205.95 456.74,-196.81"/>
<polygon fill="midnightblue" stroke="midnightblue" points="459.75,-195.02 452.04,-187.75 453.53,-198.24 459.75,-195.02"/>
</g>
<!-- Node27&#45;&gt;Node18 -->
<g id="edge44" class="edge">
<title>Node27&#45;&gt;Node18</title>
<path fill="none" stroke="midnightblue" d="M71.47,-112.37C102.14,-93.41 175.63,-48 212.94,-24.94"/>
<polygon fill="midnightblue" stroke="midnightblue" points="214.93,-27.83 221.6,-19.59 211.25,-21.87 214.93,-27.83"/>
</g>
</g>
</svg>
