<?xml version="1.0" encoding="UTF-8" standalone="no"?>
<!DOCTYPE svg PUBLIC "-//W3C//DTD SVG 1.1//EN"
 "http://www.w3.org/Graphics/SVG/1.1/DTD/svg11.dtd">
<!-- Generated by graphviz version 2.50.0 (20211204.2007)
 -->
<!-- Title: Sml::MouseButtonEvent Pages: 1 -->
<svg width="342pt" height="491pt"
 viewBox="0.00 0.00 342.00 491.00" xmlns="http://www.w3.org/2000/svg" xmlns:xlink="http://www.w3.org/1999/xlink">
<g id="graph0" class="graph" transform="scale(1 1) rotate(0) translate(4 487)">
<title>Sml::MouseButtonEvent</title>
<polygon fill="white" stroke="transparent" points="-4,4 -4,-487 338,-487 338,4 -4,4"/>
<!-- Node1 -->
<g id="node1" class="node">
<title>Node1</title>
<g id="a_node1"><a xlink:title=" ">
<polygon fill="#bfbfbf" stroke="black" points="183,-0.5 183,-57.5 306,-57.5 306,-0.5 183,-0.5"/>
<text text-anchor="middle" x="244.5" y="-45.5" font-family="Helvetica,sans-Serif" font-size="10.00">Sml::MouseButtonEvent</text>
<polyline fill="none" stroke="black" points="183,-38.5 306,-38.5 "/>
<text text-anchor="middle" x="244.5" y="-26.5" font-family="Helvetica,sans-Serif" font-size="10.00"> </text>
<polyline fill="none" stroke="black" points="183,-19.5 306,-19.5 "/>
<text text-anchor="start" x="191" y="-7.5" font-family="Helvetica,sans-Serif" font-size="10.00">+ MouseButtonEvent()</text>
</a>
</g>
</g>
<!-- Node2 -->
<g id="node2" class="node">
<title>Node2</title>
<g id="a_node2"><a xlink:href="class_sml_1_1_mouse_event.html" target="_top" xlink:title=" ">
<polygon fill="white" stroke="black" points="146,-105.5 146,-206.5 241,-206.5 241,-105.5 146,-105.5"/>
<text text-anchor="middle" x="193.5" y="-194.5" font-family="Helvetica,sans-Serif" font-size="10.00">Sml::MouseEvent</text>
<polyline fill="none" stroke="black" points="146,-187.5 241,-187.5 "/>
<text text-anchor="middle" x="193.5" y="-175.5" font-family="Helvetica,sans-Serif" font-size="10.00"> </text>
<polyline fill="none" stroke="black" points="146,-168.5 241,-168.5 "/>
<text text-anchor="start" x="154" y="-156.5" font-family="Helvetica,sans-Serif" font-size="10.00">+ MouseEvent()</text>
<text text-anchor="start" x="154" y="-145.5" font-family="Helvetica,sans-Serif" font-size="10.00">+ setX()</text>
<text text-anchor="start" x="154" y="-134.5" font-family="Helvetica,sans-Serif" font-size="10.00">+ setY()</text>
<text text-anchor="start" x="154" y="-123.5" font-family="Helvetica,sans-Serif" font-size="10.00">+ getX()</text>
<text text-anchor="start" x="154" y="-112.5" font-family="Helvetica,sans-Serif" font-size="10.00">+ getY()</text>
</a>
</g>
</g>
<!-- Node2&#45;&gt;Node1 -->
<g id="edge1" class="edge">
<title>Node2&#45;&gt;Node1</title>
<path fill="none" stroke="midnightblue" d="M217.72,-95.64C223.13,-82.37 228.63,-68.91 233.22,-57.66"/>
<polygon fill="none" stroke="midnightblue" points="214.34,-94.66 213.8,-105.24 220.82,-97.3 214.34,-94.66"/>
</g>
<!-- Node3 -->
<g id="node3" class="node">
<title>Node3</title>
<g id="a_node3"><a xlink:href="class_sml_1_1_event.html" target="_top" xlink:title=" ">
<polygon fill="white" stroke="black" points="109,-265.5 109,-377.5 194,-377.5 194,-265.5 109,-265.5"/>
<text text-anchor="middle" x="151.5" y="-365.5" font-family="Helvetica,sans-Serif" font-size="10.00">Sml::Event</text>
<polyline fill="none" stroke="black" points="109,-358.5 194,-358.5 "/>
<text text-anchor="middle" x="151.5" y="-346.5" font-family="Helvetica,sans-Serif" font-size="10.00"> </text>
<polyline fill="none" stroke="black" points="109,-339.5 194,-339.5 "/>
<text text-anchor="start" x="117" y="-327.5" font-family="Helvetica,sans-Serif" font-size="10.00">+ Event()</text>
<text text-anchor="start" x="117" y="-316.5" font-family="Helvetica,sans-Serif" font-size="10.00">+ ~Event()</text>
<text text-anchor="start" x="117" y="-305.5" font-family="Helvetica,sans-Serif" font-size="10.00">+ setType()</text>
<text text-anchor="start" x="117" y="-294.5" font-family="Helvetica,sans-Serif" font-size="10.00">+ setCategory()</text>
<text text-anchor="start" x="117" y="-283.5" font-family="Helvetica,sans-Serif" font-size="10.00">+ getType()</text>
<text text-anchor="start" x="117" y="-272.5" font-family="Helvetica,sans-Serif" font-size="10.00">and 6 more...</text>
</a>
</g>
</g>
<!-- Node3&#45;&gt;Node2 -->
<g id="edge2" class="edge">
<title>Node3&#45;&gt;Node2</title>
<path fill="none" stroke="midnightblue" d="M168.28,-255.19C172.44,-238.97 176.84,-221.85 180.78,-206.53"/>
<polygon fill="none" stroke="midnightblue" points="164.82,-254.59 165.72,-265.15 171.6,-256.33 164.82,-254.59"/>
</g>
<!-- Node4 -->
<g id="node4" class="node">
<title>Node4</title>
<g id="a_node4"><a xlink:title=" ">
<polygon fill="white" stroke="#bfbfbf" points="0,-425.5 0,-482.5 51,-482.5 51,-425.5 0,-425.5"/>
<text text-anchor="middle" x="25.5" y="-470.5" font-family="Helvetica,sans-Serif" font-size="10.00">uint32_t</text>
<polyline fill="none" stroke="#bfbfbf" points="0,-463.5 51,-463.5 "/>
<text text-anchor="middle" x="25.5" y="-451.5" font-family="Helvetica,sans-Serif" font-size="10.00"> </text>
<polyline fill="none" stroke="#bfbfbf" points="0,-444.5 51,-444.5 "/>
<text text-anchor="middle" x="25.5" y="-432.5" font-family="Helvetica,sans-Serif" font-size="10.00"> </text>
</a>
</g>
</g>
<!-- Node4&#45;&gt;Node3 -->
<g id="edge3" class="edge">
<title>Node4&#45;&gt;Node3</title>
<path fill="none" stroke="#404040" d="M45.12,-425.5C52.42,-415.86 60.99,-405.16 69.5,-396 78.86,-385.93 89.43,-375.71 99.8,-366.23"/>
<polygon fill="none" stroke="#404040" points="99.9,-366.14 101.69,-359.15 108.82,-358.11 107.04,-365.09 99.9,-366.14"/>
<text text-anchor="middle" x="91" y="-399" font-family="Helvetica,sans-Serif" font-size="10.00"> #m_Type</text>
</g>
<!-- Node5 -->
<g id="node5" class="node">
<title>Node5</title>
<g id="a_node5"><a xlink:title=" ">
<polygon fill="white" stroke="#bfbfbf" points="69,-425.5 69,-482.5 120,-482.5 120,-425.5 69,-425.5"/>
<text text-anchor="middle" x="94.5" y="-470.5" font-family="Helvetica,sans-Serif" font-size="10.00">uint64_t</text>
<polyline fill="none" stroke="#bfbfbf" points="69,-463.5 120,-463.5 "/>
<text text-anchor="middle" x="94.5" y="-451.5" font-family="Helvetica,sans-Serif" font-size="10.00"> </text>
<polyline fill="none" stroke="#bfbfbf" points="69,-444.5 120,-444.5 "/>
<text text-anchor="middle" x="94.5" y="-432.5" font-family="Helvetica,sans-Serif" font-size="10.00"> </text>
</a>
</g>
</g>
<!-- Node5&#45;&gt;Node3 -->
<g id="edge4" class="edge">
<title>Node5&#45;&gt;Node3</title>
<path fill="none" stroke="#404040" d="M106.59,-425.32C111.29,-414.56 116.89,-401.73 122.52,-388.84"/>
<polygon fill="none" stroke="#404040" points="122.65,-388.55 121.39,-381.45 127.46,-377.55 128.72,-384.65 122.65,-388.55"/>
<text text-anchor="middle" x="149.5" y="-399" font-family="Helvetica,sans-Serif" font-size="10.00"> #m_Category</text>
</g>
<!-- Node6 -->
<g id="node6" class="node">
<title>Node6</title>
<g id="a_node6"><a xlink:href="class_sml_1_1_event_target.html" target="_top" xlink:title=" ">
<polygon fill="white" stroke="black" points="138.5,-425.5 138.5,-482.5 280.5,-482.5 280.5,-425.5 138.5,-425.5"/>
<text text-anchor="middle" x="209.5" y="-470.5" font-family="Helvetica,sans-Serif" font-size="10.00">Sml::EventTarget</text>
<polyline fill="none" stroke="black" points="138.5,-463.5 280.5,-463.5 "/>
<text text-anchor="middle" x="209.5" y="-451.5" font-family="Helvetica,sans-Serif" font-size="10.00"> </text>
<polyline fill="none" stroke="black" points="138.5,-444.5 280.5,-444.5 "/>
<text text-anchor="start" x="146.5" y="-432.5" font-family="Helvetica,sans-Serif" font-size="10.00">+ buildEventDispatchChain()</text>
</a>
</g>
</g>
<!-- Node6&#45;&gt;Node3 -->
<g id="edge5" class="edge">
<title>Node6&#45;&gt;Node3</title>
<path fill="none" stroke="#404040" d="M197.47,-425.44C193.37,-416.08 188.75,-405.58 184.5,-396 183.48,-393.7 182.44,-391.37 181.39,-389.01"/>
<polygon fill="none" stroke="#404040" points="181.31,-388.82 175.21,-384.97 176.42,-377.86 182.52,-381.71 181.31,-388.82"/>
<text text-anchor="middle" x="214" y="-399" font-family="Helvetica,sans-Serif" font-size="10.00"> #m_Target</text>
</g>
<!-- Node7 -->
<g id="node7" class="node">
<title>Node7</title>
<g id="a_node7"><a xlink:title=" ">
<polygon fill="white" stroke="#bfbfbf" points="299,-425.5 299,-482.5 334,-482.5 334,-425.5 299,-425.5"/>
<text text-anchor="middle" x="316.5" y="-470.5" font-family="Helvetica,sans-Serif" font-size="10.00">bool</text>
<polyline fill="none" stroke="#bfbfbf" points="299,-463.5 334,-463.5 "/>
<text text-anchor="middle" x="316.5" y="-451.5" font-family="Helvetica,sans-Serif" font-size="10.00"> </text>
<polyline fill="none" stroke="#bfbfbf" points="299,-444.5 334,-444.5 "/>
<text text-anchor="middle" x="316.5" y="-432.5" font-family="Helvetica,sans-Serif" font-size="10.00"> </text>
</a>
</g>
</g>
<!-- Node7&#45;&gt;Node3 -->
<g id="edge6" class="edge">
<title>Node7&#45;&gt;Node3</title>
<path fill="none" stroke="#404040" d="M298.8,-433.36C295.81,-430.43 292.66,-427.54 289.5,-425 270.39,-409.6 264.13,-407.61 242.5,-396 225.68,-386.97 218.98,-389.17 203.5,-378 203.4,-377.93 203.3,-377.85 203.2,-377.78"/>
<polygon fill="none" stroke="#404040" points="203.4,-377.95 196.22,-377.34 194.02,-370.47 201.2,-371.08 203.4,-377.95"/>
<text text-anchor="middle" x="297.5" y="-399" font-family="Helvetica,sans-Serif" font-size="10.00"> #m_Consumed</text>
</g>
<!-- Node8 -->
<g id="node8" class="node">
<title>Node8</title>
<g id="a_node8"><a xlink:title=" ">
<polygon fill="white" stroke="#bfbfbf" points="212.5,-293 212.5,-350 258.5,-350 258.5,-293 212.5,-293"/>
<text text-anchor="middle" x="235.5" y="-338" font-family="Helvetica,sans-Serif" font-size="10.00">int32_t</text>
<polyline fill="none" stroke="#bfbfbf" points="212.5,-331 258.5,-331 "/>
<text text-anchor="middle" x="235.5" y="-319" font-family="Helvetica,sans-Serif" font-size="10.00"> </text>
<polyline fill="none" stroke="#bfbfbf" points="212.5,-312 258.5,-312 "/>
<text text-anchor="middle" x="235.5" y="-300" font-family="Helvetica,sans-Serif" font-size="10.00"> </text>
</a>
</g>
</g>
<!-- Node8&#45;&gt;Node2 -->
<g id="edge7" class="edge">
<title>Node8&#45;&gt;Node2</title>
<path fill="none" stroke="#404040" d="M228.38,-292.76C223.16,-272.47 215.89,-244.14 209.33,-218.61"/>
<polygon fill="none" stroke="#404040" points="209.26,-218.35 203.89,-213.54 206.28,-206.73 211.64,-211.55 209.26,-218.35"/>
<text text-anchor="middle" x="231" y="-239" font-family="Helvetica,sans-Serif" font-size="10.00"> #m_X</text>
<text text-anchor="middle" x="231" y="-228" font-family="Helvetica,sans-Serif" font-size="10.00">#m_Y</text>
</g>
<!-- Node9 -->
<g id="node9" class="node">
<title>Node9</title>
<g id="a_node9"><a xlink:title=" ">
<polygon fill="white" stroke="#bfbfbf" points="259.5,-127.5 259.5,-184.5 333.5,-184.5 333.5,-127.5 259.5,-127.5"/>
<text text-anchor="middle" x="296.5" y="-172.5" font-family="Helvetica,sans-Serif" font-size="10.00">MouseButton</text>
<polyline fill="none" stroke="#bfbfbf" points="259.5,-165.5 333.5,-165.5 "/>
<text text-anchor="middle" x="296.5" y="-153.5" font-family="Helvetica,sans-Serif" font-size="10.00"> </text>
<polyline fill="none" stroke="#bfbfbf" points="259.5,-146.5 333.5,-146.5 "/>
<text text-anchor="middle" x="296.5" y="-134.5" font-family="Helvetica,sans-Serif" font-size="10.00"> </text>
</a>
</g>
</g>
<!-- Node9&#45;&gt;Node1 -->
<g id="edge8" class="edge">
<title>Node9&#45;&gt;Node1</title>
<path fill="none" stroke="#404040" d="M284.96,-127.26C277.82,-110.1 268.56,-87.83 260.69,-68.92"/>
<polygon fill="none" stroke="#404040" points="260.62,-68.74 254.62,-64.74 256.01,-57.66 262.01,-61.67 260.62,-68.74"/>
<text text-anchor="middle" x="292" y="-79" font-family="Helvetica,sans-Serif" font-size="10.00"> #m_Button</text>
</g>
</g>
</svg>
