<?xml version="1.0" encoding="UTF-8" standalone="no"?>
<!DOCTYPE svg PUBLIC "-//W3C//DTD SVG 1.1//EN"
 "http://www.w3.org/Graphics/SVG/1.1/DTD/svg11.dtd">
<!-- Generated by graphviz version 2.50.0 (20211204.2007)
 -->
<!-- Title: Sml::WindowCloseEvent Pages: 1 -->
<svg width="346pt" height="416pt"
 viewBox="0.00 0.00 345.50 416.00" xmlns="http://www.w3.org/2000/svg" xmlns:xlink="http://www.w3.org/1999/xlink">
<g id="graph0" class="graph" transform="scale(1 1) rotate(0) translate(4 412)">
<title>Sml::WindowCloseEvent</title>
<polygon fill="white" stroke="transparent" points="-4,4 -4,-412 341.5,-412 341.5,4 -4,4"/>
<!-- Node1 -->
<g id="node1" class="node">
<title>Node1</title>
<g id="a_node1"><a xlink:title=" ">
<polygon fill="#bfbfbf" stroke="black" points="88.5,-0.5 88.5,-57.5 214.5,-57.5 214.5,-0.5 88.5,-0.5"/>
<text text-anchor="middle" x="151.5" y="-45.5" font-family="Helvetica,sans-Serif" font-size="10.00">Sml::WindowCloseEvent</text>
<polyline fill="none" stroke="black" points="88.5,-38.5 214.5,-38.5 "/>
<text text-anchor="middle" x="151.5" y="-26.5" font-family="Helvetica,sans-Serif" font-size="10.00"> </text>
<polyline fill="none" stroke="black" points="88.5,-19.5 214.5,-19.5 "/>
<text text-anchor="start" x="96.5" y="-7.5" font-family="Helvetica,sans-Serif" font-size="10.00">+ WindowCloseEvent()</text>
</a>
</g>
</g>
<!-- Node2 -->
<g id="node2" class="node">
<title>Node2</title>
<g id="a_node2"><a xlink:href="class_sml_1_1_window_event.html" target="_top" xlink:title=" ">
<polygon fill="white" stroke="black" points="101,-95.5 101,-152.5 202,-152.5 202,-95.5 101,-95.5"/>
<text text-anchor="middle" x="151.5" y="-140.5" font-family="Helvetica,sans-Serif" font-size="10.00">Sml::WindowEvent</text>
<polyline fill="none" stroke="black" points="101,-133.5 202,-133.5 "/>
<text text-anchor="middle" x="151.5" y="-121.5" font-family="Helvetica,sans-Serif" font-size="10.00"> </text>
<polyline fill="none" stroke="black" points="101,-114.5 202,-114.5 "/>
<text text-anchor="start" x="109" y="-102.5" font-family="Helvetica,sans-Serif" font-size="10.00">+ WindowEvent()</text>
</a>
</g>
</g>
<!-- Node2&#45;&gt;Node1 -->
<g id="edge1" class="edge">
<title>Node2&#45;&gt;Node1</title>
<path fill="none" stroke="midnightblue" d="M151.5,-85.24C151.5,-76.03 151.5,-66.35 151.5,-57.71"/>
<polygon fill="none" stroke="midnightblue" points="148,-85.35 151.5,-95.35 155,-85.35 148,-85.35"/>
</g>
<!-- Node3 -->
<g id="node3" class="node">
<title>Node3</title>
<g id="a_node3"><a xlink:href="class_sml_1_1_event.html" target="_top" xlink:title=" ">
<polygon fill="white" stroke="black" points="109,-190.5 109,-302.5 194,-302.5 194,-190.5 109,-190.5"/>
<text text-anchor="middle" x="151.5" y="-290.5" font-family="Helvetica,sans-Serif" font-size="10.00">Sml::Event</text>
<polyline fill="none" stroke="black" points="109,-283.5 194,-283.5 "/>
<text text-anchor="middle" x="151.5" y="-271.5" font-family="Helvetica,sans-Serif" font-size="10.00"> </text>
<polyline fill="none" stroke="black" points="109,-264.5 194,-264.5 "/>
<text text-anchor="start" x="117" y="-252.5" font-family="Helvetica,sans-Serif" font-size="10.00">+ Event()</text>
<text text-anchor="start" x="117" y="-241.5" font-family="Helvetica,sans-Serif" font-size="10.00">+ ~Event()</text>
<text text-anchor="start" x="117" y="-230.5" font-family="Helvetica,sans-Serif" font-size="10.00">+ setType()</text>
<text text-anchor="start" x="117" y="-219.5" font-family="Helvetica,sans-Serif" font-size="10.00">+ setCategory()</text>
<text text-anchor="start" x="117" y="-208.5" font-family="Helvetica,sans-Serif" font-size="10.00">+ getType()</text>
<text text-anchor="start" x="117" y="-197.5" font-family="Helvetica,sans-Serif" font-size="10.00">and 6 more...</text>
</a>
</g>
</g>
<!-- Node3&#45;&gt;Node2 -->
<g id="edge2" class="edge">
<title>Node3&#45;&gt;Node2</title>
<path fill="none" stroke="midnightblue" d="M151.5,-180.12C151.5,-170.48 151.5,-161.01 151.5,-152.72"/>
<polygon fill="none" stroke="midnightblue" points="148,-180.19 151.5,-190.19 155,-180.19 148,-180.19"/>
</g>
<!-- Node4 -->
<g id="node4" class="node">
<title>Node4</title>
<g id="a_node4"><a xlink:title=" ">
<polygon fill="white" stroke="#bfbfbf" points="0,-350.5 0,-407.5 51,-407.5 51,-350.5 0,-350.5"/>
<text text-anchor="middle" x="25.5" y="-395.5" font-family="Helvetica,sans-Serif" font-size="10.00">uint32_t</text>
<polyline fill="none" stroke="#bfbfbf" points="0,-388.5 51,-388.5 "/>
<text text-anchor="middle" x="25.5" y="-376.5" font-family="Helvetica,sans-Serif" font-size="10.00"> </text>
<polyline fill="none" stroke="#bfbfbf" points="0,-369.5 51,-369.5 "/>
<text text-anchor="middle" x="25.5" y="-357.5" font-family="Helvetica,sans-Serif" font-size="10.00"> </text>
</a>
</g>
</g>
<!-- Node4&#45;&gt;Node3 -->
<g id="edge3" class="edge">
<title>Node4&#45;&gt;Node3</title>
<path fill="none" stroke="#404040" d="M44.57,-350.44C51.68,-340.79 60.09,-330.1 68.5,-321 78,-310.72 88.8,-300.36 99.39,-290.78"/>
<polygon fill="none" stroke="#404040" points="99.64,-290.56 101.47,-283.58 108.61,-282.59 106.78,-289.56 99.64,-290.56"/>
<text text-anchor="middle" x="90" y="-324" font-family="Helvetica,sans-Serif" font-size="10.00"> #m_Type</text>
</g>
<!-- Node5 -->
<g id="node5" class="node">
<title>Node5</title>
<g id="a_node5"><a xlink:title=" ">
<polygon fill="white" stroke="#bfbfbf" points="69,-350.5 69,-407.5 120,-407.5 120,-350.5 69,-350.5"/>
<text text-anchor="middle" x="94.5" y="-395.5" font-family="Helvetica,sans-Serif" font-size="10.00">uint64_t</text>
<polyline fill="none" stroke="#bfbfbf" points="69,-388.5 120,-388.5 "/>
<text text-anchor="middle" x="94.5" y="-376.5" font-family="Helvetica,sans-Serif" font-size="10.00"> </text>
<polyline fill="none" stroke="#bfbfbf" points="69,-369.5 120,-369.5 "/>
<text text-anchor="middle" x="94.5" y="-357.5" font-family="Helvetica,sans-Serif" font-size="10.00"> </text>
</a>
</g>
</g>
<!-- Node5&#45;&gt;Node3 -->
<g id="edge4" class="edge">
<title>Node5&#45;&gt;Node3</title>
<path fill="none" stroke="#404040" d="M106.59,-350.32C111.29,-339.56 116.89,-326.73 122.52,-313.84"/>
<polygon fill="none" stroke="#404040" points="122.65,-313.55 121.39,-306.45 127.46,-302.55 128.72,-309.65 122.65,-313.55"/>
<text text-anchor="middle" x="148.5" y="-324" font-family="Helvetica,sans-Serif" font-size="10.00"> #m_Category</text>
</g>
<!-- Node6 -->
<g id="node6" class="node">
<title>Node6</title>
<g id="a_node6"><a xlink:href="class_sml_1_1_event_target.html" target="_top" xlink:title=" ">
<polygon fill="white" stroke="black" points="138.5,-350.5 138.5,-407.5 280.5,-407.5 280.5,-350.5 138.5,-350.5"/>
<text text-anchor="middle" x="209.5" y="-395.5" font-family="Helvetica,sans-Serif" font-size="10.00">Sml::EventTarget</text>
<polyline fill="none" stroke="black" points="138.5,-388.5 280.5,-388.5 "/>
<text text-anchor="middle" x="209.5" y="-376.5" font-family="Helvetica,sans-Serif" font-size="10.00"> </text>
<polyline fill="none" stroke="black" points="138.5,-369.5 280.5,-369.5 "/>
<text text-anchor="start" x="146.5" y="-357.5" font-family="Helvetica,sans-Serif" font-size="10.00">+ buildEventDispatchChain()</text>
</a>
</g>
</g>
<!-- Node6&#45;&gt;Node3 -->
<g id="edge5" class="edge">
<title>Node6&#45;&gt;Node3</title>
<path fill="none" stroke="#404040" d="M197.2,-350.32C192.42,-339.56 186.71,-326.73 180.98,-313.84"/>
<polygon fill="none" stroke="#404040" points="180.84,-313.51 174.75,-309.66 175.97,-302.55 182.06,-306.41 180.84,-313.51"/>
<text text-anchor="middle" x="211" y="-324" font-family="Helvetica,sans-Serif" font-size="10.00"> #m_Target</text>
</g>
<!-- Node7 -->
<g id="node7" class="node">
<title>Node7</title>
<g id="a_node7"><a xlink:title=" ">
<polygon fill="white" stroke="#bfbfbf" points="299,-350.5 299,-407.5 334,-407.5 334,-350.5 299,-350.5"/>
<text text-anchor="middle" x="316.5" y="-395.5" font-family="Helvetica,sans-Serif" font-size="10.00">bool</text>
<polyline fill="none" stroke="#bfbfbf" points="299,-388.5 334,-388.5 "/>
<text text-anchor="middle" x="316.5" y="-376.5" font-family="Helvetica,sans-Serif" font-size="10.00"> </text>
<polyline fill="none" stroke="#bfbfbf" points="299,-369.5 334,-369.5 "/>
<text text-anchor="middle" x="316.5" y="-357.5" font-family="Helvetica,sans-Serif" font-size="10.00"> </text>
</a>
</g>
</g>
<!-- Node7&#45;&gt;Node3 -->
<g id="edge6" class="edge">
<title>Node7&#45;&gt;Node3</title>
<path fill="none" stroke="#404040" d="M298.9,-358.89C295.85,-355.83 292.64,-352.76 289.5,-350 262.57,-326.32 230.52,-302.29 204.09,-283.46"/>
<polygon fill="none" stroke="#404040" points="204.05,-283.43 196.85,-283.23 194.26,-276.5 201.46,-276.7 204.05,-283.43"/>
<text text-anchor="middle" x="302.5" y="-324" font-family="Helvetica,sans-Serif" font-size="10.00"> #m_Consumed</text>
</g>
</g>
</svg>
