<?xml version="1.0" encoding="UTF-8" standalone="no"?>
<!DOCTYPE svg PUBLIC "-//W3C//DTD SVG 1.1//EN"
 "http://www.w3.org/Graphics/SVG/1.1/DTD/svg11.dtd">
<!-- Generated by graphviz version 2.50.0 (20211204.2007)
 -->
<!-- Title: Sml::KeyReleasedEvent Pages: 1 -->
<svg width="438pt" height="503pt"
 viewBox="0.00 0.00 438.00 503.00" xmlns="http://www.w3.org/2000/svg" xmlns:xlink="http://www.w3.org/1999/xlink">
<g id="graph0" class="graph" transform="scale(1 1) rotate(0) translate(4 499)">
<title>Sml::KeyReleasedEvent</title>
<polygon fill="white" stroke="transparent" points="-4,4 -4,-499 434,-499 434,4 -4,4"/>
<!-- Node1 -->
<g id="node1" class="node">
<title>Node1</title>
<g id="a_node1"><a xlink:title=" ">
<polygon fill="#bfbfbf" stroke="black" points="173,-0.5 173,-68.5 422,-68.5 422,-0.5 173,-0.5"/>
<text text-anchor="middle" x="297.5" y="-56.5" font-family="Helvetica,sans-Serif" font-size="10.00">Sml::KeyReleasedEvent</text>
<polyline fill="none" stroke="black" points="173,-49.5 422,-49.5 "/>
<text text-anchor="middle" x="297.5" y="-37.5" font-family="Helvetica,sans-Serif" font-size="10.00"> </text>
<polyline fill="none" stroke="black" points="173,-30.5 422,-30.5 "/>
<text text-anchor="start" x="181" y="-18.5" font-family="Helvetica,sans-Serif" font-size="10.00">+ KeyReleasedEvent(Scancode scancode</text>
<text text-anchor="start" x="181" y="-7.5" font-family="Helvetica,sans-Serif" font-size="10.00">=SCANCODE_INVALID, EventTarget *target=nullptr)</text>
</a>
</g>
</g>
<!-- Node2 -->
<g id="node2" class="node">
<title>Node2</title>
<g id="a_node2"><a xlink:href="class_sml_1_1_key_event.html" target="_top" xlink:title=" ">
<polygon fill="white" stroke="black" points="185.5,-106.5 185.5,-196.5 409.5,-196.5 409.5,-106.5 185.5,-106.5"/>
<text text-anchor="middle" x="297.5" y="-184.5" font-family="Helvetica,sans-Serif" font-size="10.00">Sml::KeyEvent</text>
<polyline fill="none" stroke="black" points="185.5,-177.5 409.5,-177.5 "/>
<text text-anchor="middle" x="297.5" y="-165.5" font-family="Helvetica,sans-Serif" font-size="10.00"> </text>
<polyline fill="none" stroke="black" points="185.5,-158.5 409.5,-158.5 "/>
<text text-anchor="start" x="193.5" y="-146.5" font-family="Helvetica,sans-Serif" font-size="10.00">+ KeyEvent(Scancode scancode=SCANCODE</text>
<text text-anchor="start" x="193.5" y="-135.5" font-family="Helvetica,sans-Serif" font-size="10.00">_INVALID, EventTarget *target=nullptr)</text>
<text text-anchor="start" x="193.5" y="-124.5" font-family="Helvetica,sans-Serif" font-size="10.00">+ void setScancode(Scancode scancode)</text>
<text text-anchor="start" x="193.5" y="-113.5" font-family="Helvetica,sans-Serif" font-size="10.00">+ Scancode getScancode() const</text>
</a>
</g>
</g>
<!-- Node2&#45;&gt;Node1 -->
<g id="edge1" class="edge">
<title>Node2&#45;&gt;Node1</title>
<path fill="none" stroke="midnightblue" d="M297.5,-96.23C297.5,-86.8 297.5,-77.26 297.5,-68.62"/>
<polygon fill="none" stroke="midnightblue" points="294,-96.37 297.5,-106.37 301,-96.37 294,-96.37"/>
</g>
<!-- Node3 -->
<g id="node3" class="node">
<title>Node3</title>
<g id="a_node3"><a xlink:href="class_sml_1_1_event.html" target="_top" xlink:title=" ">
<polygon fill="white" stroke="black" points="60.5,-244.5 60.5,-378.5 290.5,-378.5 290.5,-244.5 60.5,-244.5"/>
<text text-anchor="middle" x="175.5" y="-366.5" font-family="Helvetica,sans-Serif" font-size="10.00">Sml::Event</text>
<polyline fill="none" stroke="black" points="60.5,-359.5 290.5,-359.5 "/>
<text text-anchor="middle" x="175.5" y="-347.5" font-family="Helvetica,sans-Serif" font-size="10.00"> </text>
<polyline fill="none" stroke="black" points="60.5,-340.5 290.5,-340.5 "/>
<text text-anchor="start" x="68.5" y="-328.5" font-family="Helvetica,sans-Serif" font-size="10.00">+ Event(EventType type=INVALID_EVENT</text>
<text text-anchor="start" x="68.5" y="-317.5" font-family="Helvetica,sans-Serif" font-size="10.00">_TYPE, EventCategory category=0, EventTarget</text>
<text text-anchor="start" x="68.5" y="-306.5" font-family="Helvetica,sans-Serif" font-size="10.00"> *target=nullptr)</text>
<text text-anchor="start" x="68.5" y="-295.5" font-family="Helvetica,sans-Serif" font-size="10.00">+ virtual ~Event()=default</text>
<text text-anchor="start" x="68.5" y="-284.5" font-family="Helvetica,sans-Serif" font-size="10.00">+ void setType(EventType type)</text>
<text text-anchor="start" x="68.5" y="-273.5" font-family="Helvetica,sans-Serif" font-size="10.00">+ void setCategory(EventCategory category)</text>
<text text-anchor="start" x="68.5" y="-262.5" font-family="Helvetica,sans-Serif" font-size="10.00">+ EventType getType() const</text>
<text text-anchor="start" x="68.5" y="-251.5" font-family="Helvetica,sans-Serif" font-size="10.00">and 6 more...</text>
</a>
</g>
</g>
<!-- Node3&#45;&gt;Node2 -->
<g id="edge2" class="edge">
<title>Node3&#45;&gt;Node2</title>
<path fill="none" stroke="midnightblue" d="M232.67,-236.45C243.15,-222.88 253.78,-209.12 263.32,-196.77"/>
<polygon fill="none" stroke="midnightblue" points="229.87,-234.36 226.53,-244.41 235.41,-238.63 229.87,-234.36"/>
</g>
<!-- Node4 -->
<g id="node4" class="node">
<title>Node4</title>
<g id="a_node4"><a xlink:title=" ">
<polygon fill="white" stroke="#bfbfbf" points="0,-432 0,-489 51,-489 51,-432 0,-432"/>
<text text-anchor="middle" x="25.5" y="-477" font-family="Helvetica,sans-Serif" font-size="10.00">uint32_t</text>
<polyline fill="none" stroke="#bfbfbf" points="0,-470 51,-470 "/>
<text text-anchor="middle" x="25.5" y="-458" font-family="Helvetica,sans-Serif" font-size="10.00"> </text>
<polyline fill="none" stroke="#bfbfbf" points="0,-451 51,-451 "/>
<text text-anchor="middle" x="25.5" y="-439" font-family="Helvetica,sans-Serif" font-size="10.00"> </text>
</a>
</g>
</g>
<!-- Node4&#45;&gt;Node3 -->
<g id="edge3" class="edge">
<title>Node4&#45;&gt;Node3</title>
<path fill="none" stroke="#404040" d="M46.32,-431.83C55.19,-420.63 65.92,-407.81 76.5,-397 79.78,-393.64 83.19,-390.27 86.67,-386.92"/>
<polygon fill="none" stroke="#404040" points="86.74,-386.85 88.35,-379.83 95.46,-378.61 93.84,-385.64 86.74,-386.85"/>
<text text-anchor="middle" x="98" y="-400" font-family="Helvetica,sans-Serif" font-size="10.00"> #m_Type</text>
</g>
<!-- Node5 -->
<g id="node5" class="node">
<title>Node5</title>
<g id="a_node5"><a xlink:title=" ">
<polygon fill="white" stroke="#bfbfbf" points="69,-432 69,-489 120,-489 120,-432 69,-432"/>
<text text-anchor="middle" x="94.5" y="-477" font-family="Helvetica,sans-Serif" font-size="10.00">uint64_t</text>
<polyline fill="none" stroke="#bfbfbf" points="69,-470 120,-470 "/>
<text text-anchor="middle" x="94.5" y="-458" font-family="Helvetica,sans-Serif" font-size="10.00"> </text>
<polyline fill="none" stroke="#bfbfbf" points="69,-451 120,-451 "/>
<text text-anchor="middle" x="94.5" y="-439" font-family="Helvetica,sans-Serif" font-size="10.00"> </text>
</a>
</g>
</g>
<!-- Node5&#45;&gt;Node3 -->
<g id="edge4" class="edge">
<title>Node5&#45;&gt;Node3</title>
<path fill="none" stroke="#404040" d="M109.74,-431.85C116.47,-419.62 124.77,-404.57 133.17,-389.33"/>
<polygon fill="none" stroke="#404040" points="133.19,-389.28 132.58,-382.1 138.98,-378.77 139.59,-385.96 133.19,-389.28"/>
<text text-anchor="middle" x="159.5" y="-400" font-family="Helvetica,sans-Serif" font-size="10.00"> #m_Category</text>
</g>
<!-- Node6 -->
<g id="node6" class="node">
<title>Node6</title>
<g id="a_node6"><a xlink:href="class_sml_1_1_event_target.html" target="_top" xlink:title=" ">
<polygon fill="white" stroke="black" points="138,-426.5 138,-494.5 377,-494.5 377,-426.5 138,-426.5"/>
<text text-anchor="middle" x="257.5" y="-482.5" font-family="Helvetica,sans-Serif" font-size="10.00">Sml::EventTarget</text>
<polyline fill="none" stroke="black" points="138,-475.5 377,-475.5 "/>
<text text-anchor="middle" x="257.5" y="-463.5" font-family="Helvetica,sans-Serif" font-size="10.00"> </text>
<polyline fill="none" stroke="black" points="138,-456.5 377,-456.5 "/>
<text text-anchor="start" x="146" y="-444.5" font-family="Helvetica,sans-Serif" font-size="10.00">+ virtual EventDispatchChain * buildEventDispatch</text>
<text text-anchor="start" x="146" y="-433.5" font-family="Helvetica,sans-Serif" font-size="10.00">Chain(EventDispatchChain *chain)=0</text>
</a>
</g>
</g>
<!-- Node6&#45;&gt;Node3 -->
<g id="edge5" class="edge">
<title>Node6&#45;&gt;Node3</title>
<path fill="none" stroke="#404040" d="M238.89,-426.14C232.76,-415.16 225.67,-402.45 218.5,-389.59"/>
<polygon fill="none" stroke="#404040" points="218.32,-389.27 211.91,-385.98 212.48,-378.79 218.89,-382.08 218.32,-389.27"/>
<text text-anchor="middle" x="254" y="-400" font-family="Helvetica,sans-Serif" font-size="10.00"> #m_Target</text>
</g>
<!-- Node7 -->
<g id="node7" class="node">
<title>Node7</title>
<g id="a_node7"><a xlink:title=" ">
<polygon fill="white" stroke="#bfbfbf" points="395,-432 395,-489 430,-489 430,-432 395,-432"/>
<text text-anchor="middle" x="412.5" y="-477" font-family="Helvetica,sans-Serif" font-size="10.00">bool</text>
<polyline fill="none" stroke="#bfbfbf" points="395,-470 430,-470 "/>
<text text-anchor="middle" x="412.5" y="-458" font-family="Helvetica,sans-Serif" font-size="10.00"> </text>
<polyline fill="none" stroke="#bfbfbf" points="395,-451 430,-451 "/>
<text text-anchor="middle" x="412.5" y="-439" font-family="Helvetica,sans-Serif" font-size="10.00"> </text>
</a>
</g>
</g>
<!-- Node7&#45;&gt;Node3 -->
<g id="edge6" class="edge">
<title>Node7&#45;&gt;Node3</title>
<path fill="none" stroke="#404040" d="M394.85,-434.3C392.23,-431.32 389.42,-428.47 386.5,-426 385.95,-425.53 346.31,-404.19 301.53,-380.13"/>
<polygon fill="none" stroke="#404040" points="301.25,-379.98 294.07,-380.66 290.68,-374.3 297.86,-373.62 301.25,-379.98"/>
<text text-anchor="middle" x="385.5" y="-400" font-family="Helvetica,sans-Serif" font-size="10.00"> #m_Consumed</text>
</g>
<!-- Node8 -->
<g id="node8" class="node">
<title>Node8</title>
<g id="a_node8"><a xlink:title=" ">
<polygon fill="white" stroke="#bfbfbf" points="308.5,-283 308.5,-340 368.5,-340 368.5,-283 308.5,-283"/>
<text text-anchor="middle" x="338.5" y="-328" font-family="Helvetica,sans-Serif" font-size="10.00">Scancode</text>
<polyline fill="none" stroke="#bfbfbf" points="308.5,-321 368.5,-321 "/>
<text text-anchor="middle" x="338.5" y="-309" font-family="Helvetica,sans-Serif" font-size="10.00"> </text>
<polyline fill="none" stroke="#bfbfbf" points="308.5,-302 368.5,-302 "/>
<text text-anchor="middle" x="338.5" y="-290" font-family="Helvetica,sans-Serif" font-size="10.00"> </text>
</a>
</g>
</g>
<!-- Node8&#45;&gt;Node2 -->
<g id="edge7" class="edge">
<title>Node8&#45;&gt;Node2</title>
<path fill="none" stroke="#404040" d="M331.36,-282.98C326.03,-262.45 318.57,-233.7 312.01,-208.41"/>
<polygon fill="none" stroke="#404040" points="311.98,-208.32 306.61,-203.51 308.97,-196.7 314.35,-201.51 311.98,-208.32"/>
<text text-anchor="middle" x="348.5" y="-218" font-family="Helvetica,sans-Serif" font-size="10.00"> #m_Scancode</text>
</g>
</g>
</svg>
