<?xml version="1.0" encoding="UTF-8" standalone="no"?>
<!DOCTYPE svg PUBLIC "-//W3C//DTD SVG 1.1//EN"
 "http://www.w3.org/Graphics/SVG/1.1/DTD/svg11.dtd">
<!-- Generated by graphviz version 2.50.0 (20211204.2007)
 -->
<!-- Title: Sml::MouseEvent Pages: 1 -->
<svg width="342pt" height="386pt"
 viewBox="0.00 0.00 342.00 386.00" xmlns="http://www.w3.org/2000/svg" xmlns:xlink="http://www.w3.org/1999/xlink">
<g id="graph0" class="graph" transform="scale(1 1) rotate(0) translate(4 382)">
<title>Sml::MouseEvent</title>
<polygon fill="white" stroke="transparent" points="-4,4 -4,-382 338,-382 338,4 -4,4"/>
<!-- Node1 -->
<g id="node1" class="node">
<title>Node1</title>
<g id="a_node1"><a xlink:title=" ">
<polygon fill="#bfbfbf" stroke="black" points="146,-0.5 146,-101.5 241,-101.5 241,-0.5 146,-0.5"/>
<text text-anchor="middle" x="193.5" y="-89.5" font-family="Helvetica,sans-Serif" font-size="10.00">Sml::MouseEvent</text>
<polyline fill="none" stroke="black" points="146,-82.5 241,-82.5 "/>
<text text-anchor="middle" x="193.5" y="-70.5" font-family="Helvetica,sans-Serif" font-size="10.00"> </text>
<polyline fill="none" stroke="black" points="146,-63.5 241,-63.5 "/>
<text text-anchor="start" x="154" y="-51.5" font-family="Helvetica,sans-Serif" font-size="10.00">+ MouseEvent()</text>
<text text-anchor="start" x="154" y="-40.5" font-family="Helvetica,sans-Serif" font-size="10.00">+ setX()</text>
<text text-anchor="start" x="154" y="-29.5" font-family="Helvetica,sans-Serif" font-size="10.00">+ setY()</text>
<text text-anchor="start" x="154" y="-18.5" font-family="Helvetica,sans-Serif" font-size="10.00">+ getX()</text>
<text text-anchor="start" x="154" y="-7.5" font-family="Helvetica,sans-Serif" font-size="10.00">+ getY()</text>
</a>
</g>
</g>
<!-- Node2 -->
<g id="node2" class="node">
<title>Node2</title>
<g id="a_node2"><a xlink:href="class_sml_1_1_event.html" target="_top" xlink:title=" ">
<polygon fill="white" stroke="black" points="109,-160.5 109,-272.5 194,-272.5 194,-160.5 109,-160.5"/>
<text text-anchor="middle" x="151.5" y="-260.5" font-family="Helvetica,sans-Serif" font-size="10.00">Sml::Event</text>
<polyline fill="none" stroke="black" points="109,-253.5 194,-253.5 "/>
<text text-anchor="middle" x="151.5" y="-241.5" font-family="Helvetica,sans-Serif" font-size="10.00"> </text>
<polyline fill="none" stroke="black" points="109,-234.5 194,-234.5 "/>
<text text-anchor="start" x="117" y="-222.5" font-family="Helvetica,sans-Serif" font-size="10.00">+ Event()</text>
<text text-anchor="start" x="117" y="-211.5" font-family="Helvetica,sans-Serif" font-size="10.00">+ ~Event()</text>
<text text-anchor="start" x="117" y="-200.5" font-family="Helvetica,sans-Serif" font-size="10.00">+ setType()</text>
<text text-anchor="start" x="117" y="-189.5" font-family="Helvetica,sans-Serif" font-size="10.00">+ setCategory()</text>
<text text-anchor="start" x="117" y="-178.5" font-family="Helvetica,sans-Serif" font-size="10.00">+ getType()</text>
<text text-anchor="start" x="117" y="-167.5" font-family="Helvetica,sans-Serif" font-size="10.00">and 6 more...</text>
</a>
</g>
</g>
<!-- Node2&#45;&gt;Node1 -->
<g id="edge1" class="edge">
<title>Node2&#45;&gt;Node1</title>
<path fill="none" stroke="midnightblue" d="M168.28,-150.19C172.44,-133.97 176.84,-116.85 180.78,-101.53"/>
<polygon fill="none" stroke="midnightblue" points="164.82,-149.59 165.72,-160.15 171.6,-151.33 164.82,-149.59"/>
</g>
<!-- Node3 -->
<g id="node3" class="node">
<title>Node3</title>
<g id="a_node3"><a xlink:title=" ">
<polygon fill="white" stroke="#bfbfbf" points="0,-320.5 0,-377.5 51,-377.5 51,-320.5 0,-320.5"/>
<text text-anchor="middle" x="25.5" y="-365.5" font-family="Helvetica,sans-Serif" font-size="10.00">uint32_t</text>
<polyline fill="none" stroke="#bfbfbf" points="0,-358.5 51,-358.5 "/>
<text text-anchor="middle" x="25.5" y="-346.5" font-family="Helvetica,sans-Serif" font-size="10.00"> </text>
<polyline fill="none" stroke="#bfbfbf" points="0,-339.5 51,-339.5 "/>
<text text-anchor="middle" x="25.5" y="-327.5" font-family="Helvetica,sans-Serif" font-size="10.00"> </text>
</a>
</g>
</g>
<!-- Node3&#45;&gt;Node2 -->
<g id="edge2" class="edge">
<title>Node3&#45;&gt;Node2</title>
<path fill="none" stroke="#404040" d="M45.12,-320.5C52.42,-310.86 60.99,-300.16 69.5,-291 78.86,-280.93 89.43,-270.71 99.8,-261.23"/>
<polygon fill="none" stroke="#404040" points="99.9,-261.14 101.69,-254.15 108.82,-253.11 107.04,-260.09 99.9,-261.14"/>
<text text-anchor="middle" x="91" y="-294" font-family="Helvetica,sans-Serif" font-size="10.00"> #m_Type</text>
</g>
<!-- Node4 -->
<g id="node4" class="node">
<title>Node4</title>
<g id="a_node4"><a xlink:title=" ">
<polygon fill="white" stroke="#bfbfbf" points="69,-320.5 69,-377.5 120,-377.5 120,-320.5 69,-320.5"/>
<text text-anchor="middle" x="94.5" y="-365.5" font-family="Helvetica,sans-Serif" font-size="10.00">uint64_t</text>
<polyline fill="none" stroke="#bfbfbf" points="69,-358.5 120,-358.5 "/>
<text text-anchor="middle" x="94.5" y="-346.5" font-family="Helvetica,sans-Serif" font-size="10.00"> </text>
<polyline fill="none" stroke="#bfbfbf" points="69,-339.5 120,-339.5 "/>
<text text-anchor="middle" x="94.5" y="-327.5" font-family="Helvetica,sans-Serif" font-size="10.00"> </text>
</a>
</g>
</g>
<!-- Node4&#45;&gt;Node2 -->
<g id="edge3" class="edge">
<title>Node4&#45;&gt;Node2</title>
<path fill="none" stroke="#404040" d="M106.59,-320.32C111.29,-309.56 116.89,-296.73 122.52,-283.84"/>
<polygon fill="none" stroke="#404040" points="122.65,-283.55 121.39,-276.45 127.46,-272.55 128.72,-279.65 122.65,-283.55"/>
<text text-anchor="middle" x="149.5" y="-294" font-family="Helvetica,sans-Serif" font-size="10.00"> #m_Category</text>
</g>
<!-- Node5 -->
<g id="node5" class="node">
<title>Node5</title>
<g id="a_node5"><a xlink:href="class_sml_1_1_event_target.html" target="_top" xlink:title=" ">
<polygon fill="white" stroke="black" points="138.5,-320.5 138.5,-377.5 280.5,-377.5 280.5,-320.5 138.5,-320.5"/>
<text text-anchor="middle" x="209.5" y="-365.5" font-family="Helvetica,sans-Serif" font-size="10.00">Sml::EventTarget</text>
<polyline fill="none" stroke="black" points="138.5,-358.5 280.5,-358.5 "/>
<text text-anchor="middle" x="209.5" y="-346.5" font-family="Helvetica,sans-Serif" font-size="10.00"> </text>
<polyline fill="none" stroke="black" points="138.5,-339.5 280.5,-339.5 "/>
<text text-anchor="start" x="146.5" y="-327.5" font-family="Helvetica,sans-Serif" font-size="10.00">+ buildEventDispatchChain()</text>
</a>
</g>
</g>
<!-- Node5&#45;&gt;Node2 -->
<g id="edge4" class="edge">
<title>Node5&#45;&gt;Node2</title>
<path fill="none" stroke="#404040" d="M197.47,-320.44C193.37,-311.08 188.75,-300.58 184.5,-291 183.48,-288.7 182.44,-286.37 181.39,-284.01"/>
<polygon fill="none" stroke="#404040" points="181.31,-283.82 175.21,-279.97 176.42,-272.86 182.52,-276.71 181.31,-283.82"/>
<text text-anchor="middle" x="214" y="-294" font-family="Helvetica,sans-Serif" font-size="10.00"> #m_Target</text>
</g>
<!-- Node6 -->
<g id="node6" class="node">
<title>Node6</title>
<g id="a_node6"><a xlink:title=" ">
<polygon fill="white" stroke="#bfbfbf" points="299,-320.5 299,-377.5 334,-377.5 334,-320.5 299,-320.5"/>
<text text-anchor="middle" x="316.5" y="-365.5" font-family="Helvetica,sans-Serif" font-size="10.00">bool</text>
<polyline fill="none" stroke="#bfbfbf" points="299,-358.5 334,-358.5 "/>
<text text-anchor="middle" x="316.5" y="-346.5" font-family="Helvetica,sans-Serif" font-size="10.00"> </text>
<polyline fill="none" stroke="#bfbfbf" points="299,-339.5 334,-339.5 "/>
<text text-anchor="middle" x="316.5" y="-327.5" font-family="Helvetica,sans-Serif" font-size="10.00"> </text>
</a>
</g>
</g>
<!-- Node6&#45;&gt;Node2 -->
<g id="edge5" class="edge">
<title>Node6&#45;&gt;Node2</title>
<path fill="none" stroke="#404040" d="M298.8,-328.36C295.81,-325.43 292.66,-322.54 289.5,-320 270.39,-304.6 264.13,-302.61 242.5,-291 225.68,-281.97 218.98,-284.17 203.5,-273 203.4,-272.93 203.3,-272.85 203.2,-272.78"/>
<polygon fill="none" stroke="#404040" points="203.4,-272.95 196.22,-272.34 194.02,-265.47 201.2,-266.08 203.4,-272.95"/>
<text text-anchor="middle" x="297.5" y="-294" font-family="Helvetica,sans-Serif" font-size="10.00"> #m_Consumed</text>
</g>
<!-- Node7 -->
<g id="node7" class="node">
<title>Node7</title>
<g id="a_node7"><a xlink:title=" ">
<polygon fill="white" stroke="#bfbfbf" points="212.5,-188 212.5,-245 258.5,-245 258.5,-188 212.5,-188"/>
<text text-anchor="middle" x="235.5" y="-233" font-family="Helvetica,sans-Serif" font-size="10.00">int32_t</text>
<polyline fill="none" stroke="#bfbfbf" points="212.5,-226 258.5,-226 "/>
<text text-anchor="middle" x="235.5" y="-214" font-family="Helvetica,sans-Serif" font-size="10.00"> </text>
<polyline fill="none" stroke="#bfbfbf" points="212.5,-207 258.5,-207 "/>
<text text-anchor="middle" x="235.5" y="-195" font-family="Helvetica,sans-Serif" font-size="10.00"> </text>
</a>
</g>
</g>
<!-- Node7&#45;&gt;Node1 -->
<g id="edge6" class="edge">
<title>Node7&#45;&gt;Node1</title>
<path fill="none" stroke="#404040" d="M228.38,-187.76C223.16,-167.47 215.89,-139.14 209.33,-113.61"/>
<polygon fill="none" stroke="#404040" points="209.26,-113.35 203.89,-108.54 206.28,-101.73 211.64,-106.55 209.26,-113.35"/>
<text text-anchor="middle" x="230" y="-134" font-family="Helvetica,sans-Serif" font-size="10.00"> #m_X</text>
<text text-anchor="middle" x="230" y="-123" font-family="Helvetica,sans-Serif" font-size="10.00">#m_Y</text>
</g>
</g>
</svg>
