<?xml version="1.0" encoding="UTF-8" standalone="no"?>
<!DOCTYPE svg PUBLIC "-//W3C//DTD SVG 1.1//EN"
 "http://www.w3.org/Graphics/SVG/1.1/DTD/svg11.dtd">
<!-- Generated by graphviz version 2.50.0 (20211204.2007)
 -->
<!-- Title: Sml::Event Pages: 1 -->
<svg width="346pt" height="226pt"
 viewBox="0.00 0.00 345.50 226.00" xmlns="http://www.w3.org/2000/svg" xmlns:xlink="http://www.w3.org/1999/xlink">
<g id="graph0" class="graph" transform="scale(1 1) rotate(0) translate(4 222)">
<title>Sml::Event</title>
<polygon fill="white" stroke="transparent" points="-4,4 -4,-222 341.5,-222 341.5,4 -4,4"/>
<!-- Node1 -->
<g id="node1" class="node">
<title>Node1</title>
<g id="a_node1"><a xlink:title=" ">
<polygon fill="#bfbfbf" stroke="black" points="109,-0.5 109,-112.5 194,-112.5 194,-0.5 109,-0.5"/>
<text text-anchor="middle" x="151.5" y="-100.5" font-family="Helvetica,sans-Serif" font-size="10.00">Sml::Event</text>
<polyline fill="none" stroke="black" points="109,-93.5 194,-93.5 "/>
<text text-anchor="middle" x="151.5" y="-81.5" font-family="Helvetica,sans-Serif" font-size="10.00"> </text>
<polyline fill="none" stroke="black" points="109,-74.5 194,-74.5 "/>
<text text-anchor="start" x="117" y="-62.5" font-family="Helvetica,sans-Serif" font-size="10.00">+ Event()</text>
<text text-anchor="start" x="117" y="-51.5" font-family="Helvetica,sans-Serif" font-size="10.00">+ ~Event()</text>
<text text-anchor="start" x="117" y="-40.5" font-family="Helvetica,sans-Serif" font-size="10.00">+ setType()</text>
<text text-anchor="start" x="117" y="-29.5" font-family="Helvetica,sans-Serif" font-size="10.00">+ setCategory()</text>
<text text-anchor="start" x="117" y="-18.5" font-family="Helvetica,sans-Serif" font-size="10.00">+ getType()</text>
<text text-anchor="start" x="117" y="-7.5" font-family="Helvetica,sans-Serif" font-size="10.00">and 6 more...</text>
</a>
</g>
</g>
<!-- Node2 -->
<g id="node2" class="node">
<title>Node2</title>
<g id="a_node2"><a xlink:title=" ">
<polygon fill="white" stroke="#bfbfbf" points="0,-160.5 0,-217.5 51,-217.5 51,-160.5 0,-160.5"/>
<text text-anchor="middle" x="25.5" y="-205.5" font-family="Helvetica,sans-Serif" font-size="10.00">uint32_t</text>
<polyline fill="none" stroke="#bfbfbf" points="0,-198.5 51,-198.5 "/>
<text text-anchor="middle" x="25.5" y="-186.5" font-family="Helvetica,sans-Serif" font-size="10.00"> </text>
<polyline fill="none" stroke="#bfbfbf" points="0,-179.5 51,-179.5 "/>
<text text-anchor="middle" x="25.5" y="-167.5" font-family="Helvetica,sans-Serif" font-size="10.00"> </text>
</a>
</g>
</g>
<!-- Node2&#45;&gt;Node1 -->
<g id="edge1" class="edge">
<title>Node2&#45;&gt;Node1</title>
<path fill="none" stroke="#404040" d="M44.57,-160.44C51.68,-150.79 60.09,-140.1 68.5,-131 78,-120.72 88.8,-110.36 99.39,-100.78"/>
<polygon fill="none" stroke="#404040" points="99.64,-100.56 101.47,-93.58 108.61,-92.59 106.78,-99.56 99.64,-100.56"/>
<text text-anchor="middle" x="90" y="-134" font-family="Helvetica,sans-Serif" font-size="10.00"> #m_Type</text>
</g>
<!-- Node3 -->
<g id="node3" class="node">
<title>Node3</title>
<g id="a_node3"><a xlink:title=" ">
<polygon fill="white" stroke="#bfbfbf" points="69,-160.5 69,-217.5 120,-217.5 120,-160.5 69,-160.5"/>
<text text-anchor="middle" x="94.5" y="-205.5" font-family="Helvetica,sans-Serif" font-size="10.00">uint64_t</text>
<polyline fill="none" stroke="#bfbfbf" points="69,-198.5 120,-198.5 "/>
<text text-anchor="middle" x="94.5" y="-186.5" font-family="Helvetica,sans-Serif" font-size="10.00"> </text>
<polyline fill="none" stroke="#bfbfbf" points="69,-179.5 120,-179.5 "/>
<text text-anchor="middle" x="94.5" y="-167.5" font-family="Helvetica,sans-Serif" font-size="10.00"> </text>
</a>
</g>
</g>
<!-- Node3&#45;&gt;Node1 -->
<g id="edge2" class="edge">
<title>Node3&#45;&gt;Node1</title>
<path fill="none" stroke="#404040" d="M106.59,-160.32C111.29,-149.56 116.89,-136.73 122.52,-123.84"/>
<polygon fill="none" stroke="#404040" points="122.65,-123.55 121.39,-116.45 127.46,-112.55 128.72,-119.65 122.65,-123.55"/>
<text text-anchor="middle" x="148.5" y="-134" font-family="Helvetica,sans-Serif" font-size="10.00"> #m_Category</text>
</g>
<!-- Node4 -->
<g id="node4" class="node">
<title>Node4</title>
<g id="a_node4"><a xlink:href="class_sml_1_1_event_target.html" target="_top" xlink:title=" ">
<polygon fill="white" stroke="black" points="138.5,-160.5 138.5,-217.5 280.5,-217.5 280.5,-160.5 138.5,-160.5"/>
<text text-anchor="middle" x="209.5" y="-205.5" font-family="Helvetica,sans-Serif" font-size="10.00">Sml::EventTarget</text>
<polyline fill="none" stroke="black" points="138.5,-198.5 280.5,-198.5 "/>
<text text-anchor="middle" x="209.5" y="-186.5" font-family="Helvetica,sans-Serif" font-size="10.00"> </text>
<polyline fill="none" stroke="black" points="138.5,-179.5 280.5,-179.5 "/>
<text text-anchor="start" x="146.5" y="-167.5" font-family="Helvetica,sans-Serif" font-size="10.00">+ buildEventDispatchChain()</text>
</a>
</g>
</g>
<!-- Node4&#45;&gt;Node1 -->
<g id="edge3" class="edge">
<title>Node4&#45;&gt;Node1</title>
<path fill="none" stroke="#404040" d="M197.2,-160.32C192.42,-149.56 186.71,-136.73 180.98,-123.84"/>
<polygon fill="none" stroke="#404040" points="180.84,-123.51 174.75,-119.66 175.97,-112.55 182.06,-116.41 180.84,-123.51"/>
<text text-anchor="middle" x="211" y="-134" font-family="Helvetica,sans-Serif" font-size="10.00"> #m_Target</text>
</g>
<!-- Node5 -->
<g id="node5" class="node">
<title>Node5</title>
<g id="a_node5"><a xlink:title=" ">
<polygon fill="white" stroke="#bfbfbf" points="299,-160.5 299,-217.5 334,-217.5 334,-160.5 299,-160.5"/>
<text text-anchor="middle" x="316.5" y="-205.5" font-family="Helvetica,sans-Serif" font-size="10.00">bool</text>
<polyline fill="none" stroke="#bfbfbf" points="299,-198.5 334,-198.5 "/>
<text text-anchor="middle" x="316.5" y="-186.5" font-family="Helvetica,sans-Serif" font-size="10.00"> </text>
<polyline fill="none" stroke="#bfbfbf" points="299,-179.5 334,-179.5 "/>
<text text-anchor="middle" x="316.5" y="-167.5" font-family="Helvetica,sans-Serif" font-size="10.00"> </text>
</a>
</g>
</g>
<!-- Node5&#45;&gt;Node1 -->
<g id="edge4" class="edge">
<title>Node5&#45;&gt;Node1</title>
<path fill="none" stroke="#404040" d="M298.9,-168.89C295.85,-165.83 292.64,-162.76 289.5,-160 262.57,-136.32 230.52,-112.29 204.09,-93.46"/>
<polygon fill="none" stroke="#404040" points="204.05,-93.43 196.85,-93.23 194.26,-86.5 201.46,-86.7 204.05,-93.43"/>
<text text-anchor="middle" x="302.5" y="-134" font-family="Helvetica,sans-Serif" font-size="10.00"> #m_Consumed</text>
</g>
</g>
</svg>
