<?xml version="1.0" encoding="UTF-8" standalone="no"?>
<!DOCTYPE svg PUBLIC "-//W3C//DTD SVG 1.1//EN"
 "http://www.w3.org/Graphics/SVG/1.1/DTD/svg11.dtd">
<!-- Generated by graphviz version 2.50.0 (20211204.2007)
 -->
<!-- Title: Sml::MouseButtonPressedEvent Pages: 1 -->
<!--zoomable 491 -->
<svg id="main" version="1.1" xmlns="http://www.w3.org/2000/svg" xmlns:xlink="http://www.w3.org/1999/xlink" xml:space="preserve" onload="init(evt)">
<style type="text/css"><![CDATA[
.edge:hover path { stroke: red; }
.edge:hover polygon { stroke: red; fill: red; }
]]></style>
<script type="text/javascript"><![CDATA[
var edges = document.getElementsByTagName('g');
if (edges && edges.length) {
  for (var i=0;i<edges.length;i++) {
    if (edges[i].id.substr(0,4)=='edge') {
      edges[i].setAttribute('class','edge');
    }
  }
}
]]></script>
        <defs>
                <circle id="rim" cx="0" cy="0" r="7"/>
                <circle id="rim2" cx="0" cy="0" r="3.5"/>
                <g id="zoomPlus">
                        <use xlink:href="#rim" fill="#404040">
                                <set attributeName="fill" to="#808080" begin="zoomplus.mouseover" end="zoomplus.mouseout"/>
                        </use>
                        <path d="M-4,0h8M0,-4v8" fill="none" stroke="white" stroke-width="1.5" pointer-events="none"/>
                </g>
                <g id="zoomMin">
                        <use xlink:href="#rim" fill="#404040">
                                <set attributeName="fill" to="#808080" begin="zoomminus.mouseover" end="zoomminus.mouseout"/>
                        </use>
                        <path d="M-4,0h8" fill="none" stroke="white" stroke-width="1.5" pointer-events="none"/>
                </g>
                <g id="dirArrow">
                        <path fill="none" stroke="white" stroke-width="1.5" d="M0,-3.0v7 M-2.5,-0.5L0,-3.0L2.5,-0.5"/>
                </g>
               <g id="resetDef">
                       <use xlink:href="#rim2" fill="#404040">
                               <set attributeName="fill" to="#808080" begin="reset.mouseover" end="reset.mouseout"/>
                       </use>
               </g>
        </defs>

<script type="text/javascript">
var viewWidth = 167;
var viewHeight = 491;
var sectionId = 'dynsection-0';
</script>
<script xlink:href="svgpan.js"/>
<svg id="graph" class="graph">
<g id="viewport">
<title>Sml::MouseButtonPressedEvent</title>
<polygon fill="white" stroke="transparent" points="-4,4 -4,-487 163,-487 163,4 -4,4"/>
<!-- Node1 -->
<g id="node1" class="node">
<title>Node1</title>
<g id="a_node1"><a xlink:title=" ">
<polygon fill="#bfbfbf" stroke="black" points="0,-0.5 0,-57.5 159,-57.5 159,-0.5 0,-0.5"/>
<text text-anchor="middle" x="79.5" y="-45.5" font-family="Helvetica,sans-Serif" font-size="10.00">Sml::MouseButtonPressedEvent</text>
<polyline fill="none" stroke="black" points="0,-38.5 159,-38.5 "/>
<text text-anchor="middle" x="79.5" y="-26.5" font-family="Helvetica,sans-Serif" font-size="10.00"> </text>
<polyline fill="none" stroke="black" points="0,-19.5 159,-19.5 "/>
<text text-anchor="start" x="8" y="-7.5" font-family="Helvetica,sans-Serif" font-size="10.00">+ MouseButtonPressedEvent()</text>
</a>
</g>
</g>
<!-- Node2 -->
<g id="node2" class="node">
<title>Node2</title>
<g id="a_node2"><a xlink:href="class_sml_1_1_mouse_button_event.html" target="_top" xlink:title=" ">
<polygon fill="white" stroke="black" points="18,-94.5 18,-151.5 141,-151.5 141,-94.5 18,-94.5"/>
<text text-anchor="middle" x="79.5" y="-139.5" font-family="Helvetica,sans-Serif" font-size="10.00">Sml::MouseButtonEvent</text>
<polyline fill="none" stroke="black" points="18,-132.5 141,-132.5 "/>
<text text-anchor="start" x="26" y="-120.5" font-family="Helvetica,sans-Serif" font-size="10.00"># m_Button</text>
<polyline fill="none" stroke="black" points="18,-113.5 141,-113.5 "/>
<text text-anchor="start" x="26" y="-101.5" font-family="Helvetica,sans-Serif" font-size="10.00">+ MouseButtonEvent()</text>
</a>
</g>
</g>
<!-- Node2&#45;&gt;Node1 -->
<g id="edge1" class="edge">
<title>Node2&#45;&gt;Node1</title>
<path fill="none" stroke="midnightblue" d="M79.5,-84.21C79.5,-75.29 79.5,-65.95 79.5,-57.58"/>
<polygon fill="none" stroke="midnightblue" points="76,-84.4 79.5,-94.4 83,-84.4 76,-84.4"/>
</g>
<!-- Node3 -->
<g id="node3" class="node">
<title>Node3</title>
<g id="a_node3"><a xlink:href="class_sml_1_1_mouse_event.html" target="_top" xlink:title=" ">
<polygon fill="white" stroke="black" points="32,-188.5 32,-300.5 127,-300.5 127,-188.5 32,-188.5"/>
<text text-anchor="middle" x="79.5" y="-288.5" font-family="Helvetica,sans-Serif" font-size="10.00">Sml::MouseEvent</text>
<polyline fill="none" stroke="black" points="32,-281.5 127,-281.5 "/>
<text text-anchor="start" x="40" y="-269.5" font-family="Helvetica,sans-Serif" font-size="10.00"># m_X</text>
<text text-anchor="start" x="40" y="-258.5" font-family="Helvetica,sans-Serif" font-size="10.00"># m_Y</text>
<polyline fill="none" stroke="black" points="32,-251.5 127,-251.5 "/>
<text text-anchor="start" x="40" y="-239.5" font-family="Helvetica,sans-Serif" font-size="10.00">+ MouseEvent()</text>
<text text-anchor="start" x="40" y="-228.5" font-family="Helvetica,sans-Serif" font-size="10.00">+ setX()</text>
<text text-anchor="start" x="40" y="-217.5" font-family="Helvetica,sans-Serif" font-size="10.00">+ setY()</text>
<text text-anchor="start" x="40" y="-206.5" font-family="Helvetica,sans-Serif" font-size="10.00">+ getX()</text>
<text text-anchor="start" x="40" y="-195.5" font-family="Helvetica,sans-Serif" font-size="10.00">+ getY()</text>
</a>
</g>
</g>
<!-- Node3&#45;&gt;Node2 -->
<g id="edge2" class="edge">
<title>Node3&#45;&gt;Node2</title>
<path fill="none" stroke="midnightblue" d="M79.5,-178.15C79.5,-168.82 79.5,-159.67 79.5,-151.63"/>
<polygon fill="none" stroke="midnightblue" points="76,-178.3 79.5,-188.3 83,-178.3 76,-178.3"/>
</g>
<!-- Node4 -->
<g id="node4" class="node">
<title>Node4</title>
<g id="a_node4"><a xlink:href="class_sml_1_1_event.html" target="_top" xlink:title=" ">
<polygon fill="white" stroke="black" points="36.5,-337.5 36.5,-482.5 122.5,-482.5 122.5,-337.5 36.5,-337.5"/>
<text text-anchor="middle" x="79.5" y="-470.5" font-family="Helvetica,sans-Serif" font-size="10.00">Sml::Event</text>
<polyline fill="none" stroke="black" points="36.5,-463.5 122.5,-463.5 "/>
<text text-anchor="start" x="44.5" y="-451.5" font-family="Helvetica,sans-Serif" font-size="10.00"># m_Type</text>
<text text-anchor="start" x="44.5" y="-440.5" font-family="Helvetica,sans-Serif" font-size="10.00"># m_Category</text>
<text text-anchor="start" x="44.5" y="-429.5" font-family="Helvetica,sans-Serif" font-size="10.00"># m_Target</text>
<text text-anchor="start" x="44.5" y="-418.5" font-family="Helvetica,sans-Serif" font-size="10.00"># m_Consumed</text>
<polyline fill="none" stroke="black" points="36.5,-411.5 122.5,-411.5 "/>
<text text-anchor="start" x="44.5" y="-399.5" font-family="Helvetica,sans-Serif" font-size="10.00">+ Event()</text>
<text text-anchor="start" x="44.5" y="-388.5" font-family="Helvetica,sans-Serif" font-size="10.00">+ ~Event()</text>
<text text-anchor="start" x="44.5" y="-377.5" font-family="Helvetica,sans-Serif" font-size="10.00">+ setType()</text>
<text text-anchor="start" x="44.5" y="-366.5" font-family="Helvetica,sans-Serif" font-size="10.00">+ setCategory()</text>
<text text-anchor="start" x="44.5" y="-355.5" font-family="Helvetica,sans-Serif" font-size="10.00">+ getType()</text>
<text text-anchor="start" x="44.5" y="-344.5" font-family="Helvetica,sans-Serif" font-size="10.00">and 6 more...</text>
</a>
</g>
</g>
<!-- Node4&#45;&gt;Node3 -->
<g id="edge3" class="edge">
<title>Node4&#45;&gt;Node3</title>
<path fill="none" stroke="midnightblue" d="M79.5,-327.25C79.5,-318.33 79.5,-309.42 79.5,-300.93"/>
<polygon fill="none" stroke="midnightblue" points="76,-327.29 79.5,-337.29 83,-327.29 76,-327.29"/>
</g>
</g>
</svg>
        <g id="navigator" transform="translate(0 0)" fill="#404254">
                <rect fill="#f2f5e9" fill-opacity="0.5" stroke="#606060" stroke-width=".5" x="0" y="0" width="60" height="60"/>
                <use id="zoomplus" xlink:href="#zoomPlus" x="17" y="9" onmousedown="handleZoom(evt,'in')"/>
                <use id="zoomminus" xlink:href="#zoomMin" x="42" y="9" onmousedown="handleZoom(evt,'out')"/>
                <use id="reset" xlink:href="#resetDef" x="30" y="36" onmousedown="handleReset()"/>
                <g id="arrowUp" xlink:href="#dirArrow" transform="translate(30 24)" onmousedown="handlePan(0,-1)">
                  <use xlink:href="#rim" fill="#404040">
                        <set attributeName="fill" to="#808080" begin="arrowUp.mouseover" end="arrowUp.mouseout"/>
                  </use>
                  <path fill="none" stroke="white" stroke-width="1.5" d="M0,-3.0v7 M-2.5,-0.5L0,-3.0L2.5,-0.5"/>
                </g>
                <g id="arrowRight" xlink:href="#dirArrow" transform="rotate(90) translate(36 -43)" onmousedown="handlePan(1,0)">
                  <use xlink:href="#rim" fill="#404040">
                        <set attributeName="fill" to="#808080" begin="arrowRight.mouseover" end="arrowRight.mouseout"/>
                  </use>
                  <path fill="none" stroke="white" stroke-width="1.5" d="M0,-3.0v7 M-2.5,-0.5L0,-3.0L2.5,-0.5"/>
                </g>
                <g id="arrowDown" xlink:href="#dirArrow" transform="rotate(180) translate(-30 -48)" onmousedown="handlePan(0,1)">
                  <use xlink:href="#rim" fill="#404040">
                        <set attributeName="fill" to="#808080" begin="arrowDown.mouseover" end="arrowDown.mouseout"/>
                  </use>
                  <path fill="none" stroke="white" stroke-width="1.5" d="M0,-3.0v7 M-2.5,-0.5L0,-3.0L2.5,-0.5"/>
                </g>
                <g id="arrowLeft" xlink:href="#dirArrow" transform="rotate(270) translate(-36 17)" onmousedown="handlePan(-1,0)">
                  <use xlink:href="#rim" fill="#404040">
                        <set attributeName="fill" to="#808080" begin="arrowLeft.mouseover" end="arrowLeft.mouseout"/>
                  </use>
                  <path fill="none" stroke="white" stroke-width="1.5" d="M0,-3.0v7 M-2.5,-0.5L0,-3.0L2.5,-0.5"/>
                </g>
        </g>
        <svg viewBox="0 0 15 15" width="100%" height="30px" preserveAspectRatio="xMaxYMin meet">
         <g id="arrow_out" transform="scale(0.3 0.3)">
          <a xlink:href="class_sml_1_1_mouse_button_pressed_event__inherit__graph_org.svg" target="_base">
           <rect id="button" ry="5" rx="5" y="6" x="6" height="38" width="38"
                fill="#f2f5e9" fill-opacity="0.5" stroke="#606060" stroke-width="1.0"/>
           <path id="arrow"
             d="M 11.500037,31.436501 C 11.940474,20.09759 22.043105,11.32322 32.158766,21.979434 L 37.068811,17.246167 C 37.068811,17.246167 37.088388,32 37.088388,32 L 22.160133,31.978069 C 22.160133,31.978069 26.997745,27.140456 26.997745,27.140456 C 18.528582,18.264221 13.291696,25.230495 11.500037,31.436501 z"
             style="fill:#404040;"/>
          </a>
         </g>
        </svg>
</svg>
