<?xml version="1.0" encoding="UTF-8" standalone="no"?>
<!DOCTYPE svg PUBLIC "-//W3C//DTD SVG 1.1//EN"
 "http://www.w3.org/Graphics/SVG/1.1/DTD/svg11.dtd">
<!-- Generated by graphviz version 2.50.0 (20211204.2007)
 -->
<!-- Title: Sml::PropertyChangeEvent&lt; T &gt; Pages: 1 -->
<svg width="346pt" height="343pt"
 viewBox="0.00 0.00 345.50 343.00" xmlns="http://www.w3.org/2000/svg" xmlns:xlink="http://www.w3.org/1999/xlink">
<g id="graph0" class="graph" transform="scale(1 1) rotate(0) translate(4 339)">
<title>Sml::PropertyChangeEvent&lt; T &gt;</title>
<polygon fill="white" stroke="transparent" points="-4,4 -4,-339 341.5,-339 341.5,4 -4,4"/>
<!-- Node1 -->
<g id="node1" class="node">
<title>Node1</title>
<g id="a_node1"><a xlink:title=" ">
<polygon fill="#bfbfbf" stroke="black" points="71.5,-0.5 71.5,-79.5 231.5,-79.5 231.5,-0.5 71.5,-0.5"/>
<text text-anchor="middle" x="151.5" y="-67.5" font-family="Helvetica,sans-Serif" font-size="10.00">Sml::PropertyChangeEvent&lt; T &gt;</text>
<polyline fill="none" stroke="black" points="71.5,-60.5 231.5,-60.5 "/>
<text text-anchor="middle" x="151.5" y="-48.5" font-family="Helvetica,sans-Serif" font-size="10.00"> </text>
<polyline fill="none" stroke="black" points="71.5,-41.5 231.5,-41.5 "/>
<text text-anchor="start" x="79.5" y="-29.5" font-family="Helvetica,sans-Serif" font-size="10.00">+ PropertyChangeEvent()</text>
<text text-anchor="start" x="79.5" y="-18.5" font-family="Helvetica,sans-Serif" font-size="10.00">+ getOldValue()</text>
<text text-anchor="start" x="79.5" y="-7.5" font-family="Helvetica,sans-Serif" font-size="10.00">+ getNewValue()</text>
</a>
</g>
</g>
<!-- Node2 -->
<g id="node2" class="node">
<title>Node2</title>
<g id="a_node2"><a xlink:href="class_sml_1_1_event.html" target="_top" xlink:title=" ">
<polygon fill="white" stroke="black" points="109,-117.5 109,-229.5 194,-229.5 194,-117.5 109,-117.5"/>
<text text-anchor="middle" x="151.5" y="-217.5" font-family="Helvetica,sans-Serif" font-size="10.00">Sml::Event</text>
<polyline fill="none" stroke="black" points="109,-210.5 194,-210.5 "/>
<text text-anchor="middle" x="151.5" y="-198.5" font-family="Helvetica,sans-Serif" font-size="10.00"> </text>
<polyline fill="none" stroke="black" points="109,-191.5 194,-191.5 "/>
<text text-anchor="start" x="117" y="-179.5" font-family="Helvetica,sans-Serif" font-size="10.00">+ Event()</text>
<text text-anchor="start" x="117" y="-168.5" font-family="Helvetica,sans-Serif" font-size="10.00">+ ~Event()</text>
<text text-anchor="start" x="117" y="-157.5" font-family="Helvetica,sans-Serif" font-size="10.00">+ setType()</text>
<text text-anchor="start" x="117" y="-146.5" font-family="Helvetica,sans-Serif" font-size="10.00">+ setCategory()</text>
<text text-anchor="start" x="117" y="-135.5" font-family="Helvetica,sans-Serif" font-size="10.00">+ getType()</text>
<text text-anchor="start" x="117" y="-124.5" font-family="Helvetica,sans-Serif" font-size="10.00">and 6 more...</text>
</a>
</g>
</g>
<!-- Node2&#45;&gt;Node1 -->
<g id="edge1" class="edge">
<title>Node2&#45;&gt;Node1</title>
<path fill="none" stroke="midnightblue" d="M151.5,-107.32C151.5,-97.9 151.5,-88.47 151.5,-79.8"/>
<polygon fill="none" stroke="midnightblue" points="148,-107.49 151.5,-117.49 155,-107.49 148,-107.49"/>
</g>
<!-- Node3 -->
<g id="node3" class="node">
<title>Node3</title>
<g id="a_node3"><a xlink:title=" ">
<polygon fill="white" stroke="#bfbfbf" points="0,-277.5 0,-334.5 51,-334.5 51,-277.5 0,-277.5"/>
<text text-anchor="middle" x="25.5" y="-322.5" font-family="Helvetica,sans-Serif" font-size="10.00">uint32_t</text>
<polyline fill="none" stroke="#bfbfbf" points="0,-315.5 51,-315.5 "/>
<text text-anchor="middle" x="25.5" y="-303.5" font-family="Helvetica,sans-Serif" font-size="10.00"> </text>
<polyline fill="none" stroke="#bfbfbf" points="0,-296.5 51,-296.5 "/>
<text text-anchor="middle" x="25.5" y="-284.5" font-family="Helvetica,sans-Serif" font-size="10.00"> </text>
</a>
</g>
</g>
<!-- Node3&#45;&gt;Node2 -->
<g id="edge2" class="edge">
<title>Node3&#45;&gt;Node2</title>
<path fill="none" stroke="#404040" d="M44.57,-277.44C51.68,-267.79 60.09,-257.1 68.5,-248 78,-237.72 88.8,-227.36 99.39,-217.78"/>
<polygon fill="none" stroke="#404040" points="99.64,-217.56 101.47,-210.58 108.61,-209.59 106.78,-216.56 99.64,-217.56"/>
<text text-anchor="middle" x="90" y="-251" font-family="Helvetica,sans-Serif" font-size="10.00"> #m_Type</text>
</g>
<!-- Node4 -->
<g id="node4" class="node">
<title>Node4</title>
<g id="a_node4"><a xlink:title=" ">
<polygon fill="white" stroke="#bfbfbf" points="69,-277.5 69,-334.5 120,-334.5 120,-277.5 69,-277.5"/>
<text text-anchor="middle" x="94.5" y="-322.5" font-family="Helvetica,sans-Serif" font-size="10.00">uint64_t</text>
<polyline fill="none" stroke="#bfbfbf" points="69,-315.5 120,-315.5 "/>
<text text-anchor="middle" x="94.5" y="-303.5" font-family="Helvetica,sans-Serif" font-size="10.00"> </text>
<polyline fill="none" stroke="#bfbfbf" points="69,-296.5 120,-296.5 "/>
<text text-anchor="middle" x="94.5" y="-284.5" font-family="Helvetica,sans-Serif" font-size="10.00"> </text>
</a>
</g>
</g>
<!-- Node4&#45;&gt;Node2 -->
<g id="edge3" class="edge">
<title>Node4&#45;&gt;Node2</title>
<path fill="none" stroke="#404040" d="M106.59,-277.32C111.29,-266.56 116.89,-253.73 122.52,-240.84"/>
<polygon fill="none" stroke="#404040" points="122.65,-240.55 121.39,-233.45 127.46,-229.55 128.72,-236.65 122.65,-240.55"/>
<text text-anchor="middle" x="148.5" y="-251" font-family="Helvetica,sans-Serif" font-size="10.00"> #m_Category</text>
</g>
<!-- Node5 -->
<g id="node5" class="node">
<title>Node5</title>
<g id="a_node5"><a xlink:href="class_sml_1_1_event_target.html" target="_top" xlink:title=" ">
<polygon fill="white" stroke="black" points="138.5,-277.5 138.5,-334.5 280.5,-334.5 280.5,-277.5 138.5,-277.5"/>
<text text-anchor="middle" x="209.5" y="-322.5" font-family="Helvetica,sans-Serif" font-size="10.00">Sml::EventTarget</text>
<polyline fill="none" stroke="black" points="138.5,-315.5 280.5,-315.5 "/>
<text text-anchor="middle" x="209.5" y="-303.5" font-family="Helvetica,sans-Serif" font-size="10.00"> </text>
<polyline fill="none" stroke="black" points="138.5,-296.5 280.5,-296.5 "/>
<text text-anchor="start" x="146.5" y="-284.5" font-family="Helvetica,sans-Serif" font-size="10.00">+ buildEventDispatchChain()</text>
</a>
</g>
</g>
<!-- Node5&#45;&gt;Node2 -->
<g id="edge4" class="edge">
<title>Node5&#45;&gt;Node2</title>
<path fill="none" stroke="#404040" d="M197.2,-277.32C192.42,-266.56 186.71,-253.73 180.98,-240.84"/>
<polygon fill="none" stroke="#404040" points="180.84,-240.51 174.75,-236.66 175.97,-229.55 182.06,-233.41 180.84,-240.51"/>
<text text-anchor="middle" x="211" y="-251" font-family="Helvetica,sans-Serif" font-size="10.00"> #m_Target</text>
</g>
<!-- Node6 -->
<g id="node6" class="node">
<title>Node6</title>
<g id="a_node6"><a xlink:title=" ">
<polygon fill="white" stroke="#bfbfbf" points="299,-277.5 299,-334.5 334,-334.5 334,-277.5 299,-277.5"/>
<text text-anchor="middle" x="316.5" y="-322.5" font-family="Helvetica,sans-Serif" font-size="10.00">bool</text>
<polyline fill="none" stroke="#bfbfbf" points="299,-315.5 334,-315.5 "/>
<text text-anchor="middle" x="316.5" y="-303.5" font-family="Helvetica,sans-Serif" font-size="10.00"> </text>
<polyline fill="none" stroke="#bfbfbf" points="299,-296.5 334,-296.5 "/>
<text text-anchor="middle" x="316.5" y="-284.5" font-family="Helvetica,sans-Serif" font-size="10.00"> </text>
</a>
</g>
</g>
<!-- Node6&#45;&gt;Node2 -->
<g id="edge5" class="edge">
<title>Node6&#45;&gt;Node2</title>
<path fill="none" stroke="#404040" d="M298.9,-285.89C295.85,-282.83 292.64,-279.76 289.5,-277 262.57,-253.32 230.52,-229.29 204.09,-210.46"/>
<polygon fill="none" stroke="#404040" points="204.05,-210.43 196.85,-210.23 194.26,-203.5 201.46,-203.7 204.05,-210.43"/>
<text text-anchor="middle" x="302.5" y="-251" font-family="Helvetica,sans-Serif" font-size="10.00"> #m_Consumed</text>
</g>
</g>
</svg>
