<?xml version="1.0" encoding="UTF-8" standalone="no"?>
<!DOCTYPE svg PUBLIC "-//W3C//DTD SVG 1.1//EN"
 "http://www.w3.org/Graphics/SVG/1.1/DTD/svg11.dtd">
<!-- Generated by graphviz version 2.50.0 (20211204.2007)
 -->
<!-- Title: Sml::WindowEvent Pages: 1 -->
<svg width="346pt" height="321pt"
 viewBox="0.00 0.00 345.50 321.00" xmlns="http://www.w3.org/2000/svg" xmlns:xlink="http://www.w3.org/1999/xlink">
<g id="graph0" class="graph" transform="scale(1 1) rotate(0) translate(4 317)">
<title>Sml::WindowEvent</title>
<polygon fill="white" stroke="transparent" points="-4,4 -4,-317 341.5,-317 341.5,4 -4,4"/>
<!-- Node1 -->
<g id="node1" class="node">
<title>Node1</title>
<g id="a_node1"><a xlink:title=" ">
<polygon fill="#bfbfbf" stroke="black" points="101,-0.5 101,-57.5 202,-57.5 202,-0.5 101,-0.5"/>
<text text-anchor="middle" x="151.5" y="-45.5" font-family="Helvetica,sans-Serif" font-size="10.00">Sml::WindowEvent</text>
<polyline fill="none" stroke="black" points="101,-38.5 202,-38.5 "/>
<text text-anchor="middle" x="151.5" y="-26.5" font-family="Helvetica,sans-Serif" font-size="10.00"> </text>
<polyline fill="none" stroke="black" points="101,-19.5 202,-19.5 "/>
<text text-anchor="start" x="109" y="-7.5" font-family="Helvetica,sans-Serif" font-size="10.00">+ WindowEvent()</text>
</a>
</g>
</g>
<!-- Node2 -->
<g id="node2" class="node">
<title>Node2</title>
<g id="a_node2"><a xlink:href="class_sml_1_1_event.html" target="_top" xlink:title=" ">
<polygon fill="white" stroke="black" points="109,-95.5 109,-207.5 194,-207.5 194,-95.5 109,-95.5"/>
<text text-anchor="middle" x="151.5" y="-195.5" font-family="Helvetica,sans-Serif" font-size="10.00">Sml::Event</text>
<polyline fill="none" stroke="black" points="109,-188.5 194,-188.5 "/>
<text text-anchor="middle" x="151.5" y="-176.5" font-family="Helvetica,sans-Serif" font-size="10.00"> </text>
<polyline fill="none" stroke="black" points="109,-169.5 194,-169.5 "/>
<text text-anchor="start" x="117" y="-157.5" font-family="Helvetica,sans-Serif" font-size="10.00">+ Event()</text>
<text text-anchor="start" x="117" y="-146.5" font-family="Helvetica,sans-Serif" font-size="10.00">+ ~Event()</text>
<text text-anchor="start" x="117" y="-135.5" font-family="Helvetica,sans-Serif" font-size="10.00">+ setType()</text>
<text text-anchor="start" x="117" y="-124.5" font-family="Helvetica,sans-Serif" font-size="10.00">+ setCategory()</text>
<text text-anchor="start" x="117" y="-113.5" font-family="Helvetica,sans-Serif" font-size="10.00">+ getType()</text>
<text text-anchor="start" x="117" y="-102.5" font-family="Helvetica,sans-Serif" font-size="10.00">and 6 more...</text>
</a>
</g>
</g>
<!-- Node2&#45;&gt;Node1 -->
<g id="edge1" class="edge">
<title>Node2&#45;&gt;Node1</title>
<path fill="none" stroke="midnightblue" d="M151.5,-85.12C151.5,-75.48 151.5,-66.01 151.5,-57.72"/>
<polygon fill="none" stroke="midnightblue" points="148,-85.19 151.5,-95.19 155,-85.19 148,-85.19"/>
</g>
<!-- Node3 -->
<g id="node3" class="node">
<title>Node3</title>
<g id="a_node3"><a xlink:title=" ">
<polygon fill="white" stroke="#bfbfbf" points="0,-255.5 0,-312.5 51,-312.5 51,-255.5 0,-255.5"/>
<text text-anchor="middle" x="25.5" y="-300.5" font-family="Helvetica,sans-Serif" font-size="10.00">uint32_t</text>
<polyline fill="none" stroke="#bfbfbf" points="0,-293.5 51,-293.5 "/>
<text text-anchor="middle" x="25.5" y="-281.5" font-family="Helvetica,sans-Serif" font-size="10.00"> </text>
<polyline fill="none" stroke="#bfbfbf" points="0,-274.5 51,-274.5 "/>
<text text-anchor="middle" x="25.5" y="-262.5" font-family="Helvetica,sans-Serif" font-size="10.00"> </text>
</a>
</g>
</g>
<!-- Node3&#45;&gt;Node2 -->
<g id="edge2" class="edge">
<title>Node3&#45;&gt;Node2</title>
<path fill="none" stroke="#404040" d="M44.57,-255.44C51.68,-245.79 60.09,-235.1 68.5,-226 78,-215.72 88.8,-205.36 99.39,-195.78"/>
<polygon fill="none" stroke="#404040" points="99.64,-195.56 101.47,-188.58 108.61,-187.59 106.78,-194.56 99.64,-195.56"/>
<text text-anchor="middle" x="90" y="-229" font-family="Helvetica,sans-Serif" font-size="10.00"> #m_Type</text>
</g>
<!-- Node4 -->
<g id="node4" class="node">
<title>Node4</title>
<g id="a_node4"><a xlink:title=" ">
<polygon fill="white" stroke="#bfbfbf" points="69,-255.5 69,-312.5 120,-312.5 120,-255.5 69,-255.5"/>
<text text-anchor="middle" x="94.5" y="-300.5" font-family="Helvetica,sans-Serif" font-size="10.00">uint64_t</text>
<polyline fill="none" stroke="#bfbfbf" points="69,-293.5 120,-293.5 "/>
<text text-anchor="middle" x="94.5" y="-281.5" font-family="Helvetica,sans-Serif" font-size="10.00"> </text>
<polyline fill="none" stroke="#bfbfbf" points="69,-274.5 120,-274.5 "/>
<text text-anchor="middle" x="94.5" y="-262.5" font-family="Helvetica,sans-Serif" font-size="10.00"> </text>
</a>
</g>
</g>
<!-- Node4&#45;&gt;Node2 -->
<g id="edge3" class="edge">
<title>Node4&#45;&gt;Node2</title>
<path fill="none" stroke="#404040" d="M106.59,-255.32C111.29,-244.56 116.89,-231.73 122.52,-218.84"/>
<polygon fill="none" stroke="#404040" points="122.65,-218.55 121.39,-211.45 127.46,-207.55 128.72,-214.65 122.65,-218.55"/>
<text text-anchor="middle" x="148.5" y="-229" font-family="Helvetica,sans-Serif" font-size="10.00"> #m_Category</text>
</g>
<!-- Node5 -->
<g id="node5" class="node">
<title>Node5</title>
<g id="a_node5"><a xlink:href="class_sml_1_1_event_target.html" target="_top" xlink:title=" ">
<polygon fill="white" stroke="black" points="138.5,-255.5 138.5,-312.5 280.5,-312.5 280.5,-255.5 138.5,-255.5"/>
<text text-anchor="middle" x="209.5" y="-300.5" font-family="Helvetica,sans-Serif" font-size="10.00">Sml::EventTarget</text>
<polyline fill="none" stroke="black" points="138.5,-293.5 280.5,-293.5 "/>
<text text-anchor="middle" x="209.5" y="-281.5" font-family="Helvetica,sans-Serif" font-size="10.00"> </text>
<polyline fill="none" stroke="black" points="138.5,-274.5 280.5,-274.5 "/>
<text text-anchor="start" x="146.5" y="-262.5" font-family="Helvetica,sans-Serif" font-size="10.00">+ buildEventDispatchChain()</text>
</a>
</g>
</g>
<!-- Node5&#45;&gt;Node2 -->
<g id="edge4" class="edge">
<title>Node5&#45;&gt;Node2</title>
<path fill="none" stroke="#404040" d="M197.2,-255.32C192.42,-244.56 186.71,-231.73 180.98,-218.84"/>
<polygon fill="none" stroke="#404040" points="180.84,-218.51 174.75,-214.66 175.97,-207.55 182.06,-211.41 180.84,-218.51"/>
<text text-anchor="middle" x="211" y="-229" font-family="Helvetica,sans-Serif" font-size="10.00"> #m_Target</text>
</g>
<!-- Node6 -->
<g id="node6" class="node">
<title>Node6</title>
<g id="a_node6"><a xlink:title=" ">
<polygon fill="white" stroke="#bfbfbf" points="299,-255.5 299,-312.5 334,-312.5 334,-255.5 299,-255.5"/>
<text text-anchor="middle" x="316.5" y="-300.5" font-family="Helvetica,sans-Serif" font-size="10.00">bool</text>
<polyline fill="none" stroke="#bfbfbf" points="299,-293.5 334,-293.5 "/>
<text text-anchor="middle" x="316.5" y="-281.5" font-family="Helvetica,sans-Serif" font-size="10.00"> </text>
<polyline fill="none" stroke="#bfbfbf" points="299,-274.5 334,-274.5 "/>
<text text-anchor="middle" x="316.5" y="-262.5" font-family="Helvetica,sans-Serif" font-size="10.00"> </text>
</a>
</g>
</g>
<!-- Node6&#45;&gt;Node2 -->
<g id="edge5" class="edge">
<title>Node6&#45;&gt;Node2</title>
<path fill="none" stroke="#404040" d="M298.9,-263.89C295.85,-260.83 292.64,-257.76 289.5,-255 262.57,-231.32 230.52,-207.29 204.09,-188.46"/>
<polygon fill="none" stroke="#404040" points="204.05,-188.43 196.85,-188.23 194.26,-181.5 201.46,-181.7 204.05,-188.43"/>
<text text-anchor="middle" x="302.5" y="-229" font-family="Helvetica,sans-Serif" font-size="10.00"> #m_Consumed</text>
</g>
</g>
</svg>
