<?xml version="1.0" encoding="UTF-8" standalone="no"?>
<!DOCTYPE svg PUBLIC "-//W3C//DTD SVG 1.1//EN"
 "http://www.w3.org/Graphics/SVG/1.1/DTD/svg11.dtd">
<!-- Generated by graphviz version 2.50.0 (20211204.2007)
 -->
<!-- Title: Sml::KeyEvent Pages: 1 -->
<svg width="270pt" height="364pt"
 viewBox="0.00 0.00 269.50 364.00" xmlns="http://www.w3.org/2000/svg" xmlns:xlink="http://www.w3.org/1999/xlink">
<g id="graph0" class="graph" transform="scale(1 1) rotate(0) translate(4 360)">
<title>Sml::KeyEvent</title>
<polygon fill="white" stroke="transparent" points="-4,4 -4,-360 265.5,-360 265.5,4 -4,4"/>
<!-- Node1 -->
<g id="node1" class="node">
<title>Node1</title>
<g id="a_node1"><a xlink:title=" ">
<polygon fill="#bfbfbf" stroke="black" points="85,-94.5 85,-173.5 174,-173.5 174,-94.5 85,-94.5"/>
<text text-anchor="middle" x="129.5" y="-161.5" font-family="Helvetica,sans-Serif" font-size="10.00">Sml::KeyEvent</text>
<polyline fill="none" stroke="black" points="85,-154.5 174,-154.5 "/>
<text text-anchor="start" x="93" y="-142.5" font-family="Helvetica,sans-Serif" font-size="10.00"># m_Scancode</text>
<polyline fill="none" stroke="black" points="85,-135.5 174,-135.5 "/>
<text text-anchor="start" x="93" y="-123.5" font-family="Helvetica,sans-Serif" font-size="10.00">+ KeyEvent()</text>
<text text-anchor="start" x="93" y="-112.5" font-family="Helvetica,sans-Serif" font-size="10.00">+ setScancode()</text>
<text text-anchor="start" x="93" y="-101.5" font-family="Helvetica,sans-Serif" font-size="10.00">+ getScancode()</text>
</a>
</g>
</g>
<!-- Node3 -->
<g id="node3" class="node">
<title>Node3</title>
<g id="a_node3"><a xlink:href="class_sml_1_1_key_pressed_event.html" target="_top" xlink:title=" ">
<polygon fill="white" stroke="black" points="0,-0.5 0,-57.5 119,-57.5 119,-0.5 0,-0.5"/>
<text text-anchor="middle" x="59.5" y="-45.5" font-family="Helvetica,sans-Serif" font-size="10.00">Sml::KeyPressedEvent</text>
<polyline fill="none" stroke="black" points="0,-38.5 119,-38.5 "/>
<text text-anchor="middle" x="59.5" y="-26.5" font-family="Helvetica,sans-Serif" font-size="10.00"> </text>
<polyline fill="none" stroke="black" points="0,-19.5 119,-19.5 "/>
<text text-anchor="start" x="8" y="-7.5" font-family="Helvetica,sans-Serif" font-size="10.00">+ KeyPressedEvent()</text>
</a>
</g>
</g>
<!-- Node1&#45;&gt;Node3 -->
<g id="edge2" class="edge">
<title>Node1&#45;&gt;Node3</title>
<path fill="none" stroke="midnightblue" d="M97.51,-85.93C90.92,-76.24 84.19,-66.34 78.26,-57.61"/>
<polygon fill="none" stroke="midnightblue" points="94.72,-88.05 103.24,-94.35 100.51,-84.12 94.72,-88.05"/>
</g>
<!-- Node4 -->
<g id="node4" class="node">
<title>Node4</title>
<g id="a_node4"><a xlink:href="class_sml_1_1_key_released_event.html" target="_top" xlink:title=" ">
<polygon fill="white" stroke="black" points="137.5,-0.5 137.5,-57.5 261.5,-57.5 261.5,-0.5 137.5,-0.5"/>
<text text-anchor="middle" x="199.5" y="-45.5" font-family="Helvetica,sans-Serif" font-size="10.00">Sml::KeyReleasedEvent</text>
<polyline fill="none" stroke="black" points="137.5,-38.5 261.5,-38.5 "/>
<text text-anchor="middle" x="199.5" y="-26.5" font-family="Helvetica,sans-Serif" font-size="10.00"> </text>
<polyline fill="none" stroke="black" points="137.5,-19.5 261.5,-19.5 "/>
<text text-anchor="start" x="145.5" y="-7.5" font-family="Helvetica,sans-Serif" font-size="10.00">+ KeyReleasedEvent()</text>
</a>
</g>
</g>
<!-- Node1&#45;&gt;Node4 -->
<g id="edge3" class="edge">
<title>Node1&#45;&gt;Node4</title>
<path fill="none" stroke="midnightblue" d="M161.49,-85.93C168.08,-76.24 174.81,-66.34 180.74,-57.61"/>
<polygon fill="none" stroke="midnightblue" points="158.49,-84.12 155.76,-94.35 164.28,-88.05 158.49,-84.12"/>
</g>
<!-- Node2 -->
<g id="node2" class="node">
<title>Node2</title>
<g id="a_node2"><a xlink:href="class_sml_1_1_event.html" target="_top" xlink:title=" ">
<polygon fill="white" stroke="black" points="86.5,-210.5 86.5,-355.5 172.5,-355.5 172.5,-210.5 86.5,-210.5"/>
<text text-anchor="middle" x="129.5" y="-343.5" font-family="Helvetica,sans-Serif" font-size="10.00">Sml::Event</text>
<polyline fill="none" stroke="black" points="86.5,-336.5 172.5,-336.5 "/>
<text text-anchor="start" x="94.5" y="-324.5" font-family="Helvetica,sans-Serif" font-size="10.00"># m_Type</text>
<text text-anchor="start" x="94.5" y="-313.5" font-family="Helvetica,sans-Serif" font-size="10.00"># m_Category</text>
<text text-anchor="start" x="94.5" y="-302.5" font-family="Helvetica,sans-Serif" font-size="10.00"># m_Target</text>
<text text-anchor="start" x="94.5" y="-291.5" font-family="Helvetica,sans-Serif" font-size="10.00"># m_Consumed</text>
<polyline fill="none" stroke="black" points="86.5,-284.5 172.5,-284.5 "/>
<text text-anchor="start" x="94.5" y="-272.5" font-family="Helvetica,sans-Serif" font-size="10.00">+ Event()</text>
<text text-anchor="start" x="94.5" y="-261.5" font-family="Helvetica,sans-Serif" font-size="10.00">+ ~Event()</text>
<text text-anchor="start" x="94.5" y="-250.5" font-family="Helvetica,sans-Serif" font-size="10.00">+ setType()</text>
<text text-anchor="start" x="94.5" y="-239.5" font-family="Helvetica,sans-Serif" font-size="10.00">+ setCategory()</text>
<text text-anchor="start" x="94.5" y="-228.5" font-family="Helvetica,sans-Serif" font-size="10.00">+ getType()</text>
<text text-anchor="start" x="94.5" y="-217.5" font-family="Helvetica,sans-Serif" font-size="10.00">and 6 more...</text>
</a>
</g>
</g>
<!-- Node2&#45;&gt;Node1 -->
<g id="edge1" class="edge">
<title>Node2&#45;&gt;Node1</title>
<path fill="none" stroke="midnightblue" d="M129.5,-199.95C129.5,-190.9 129.5,-182.02 129.5,-173.87"/>
<polygon fill="none" stroke="midnightblue" points="126,-200.22 129.5,-210.22 133,-200.22 126,-200.22"/>
</g>
</g>
</svg>
