<?xml version="1.0" encoding="UTF-8" standalone="no"?>
<!DOCTYPE svg PUBLIC "-//W3C//DTD SVG 1.1//EN"
 "http://www.w3.org/Graphics/SVG/1.1/DTD/svg11.dtd">
<!-- Generated by graphviz version 2.50.0 (20211204.2007)
 -->
<!-- Title: Sml::Notifier Pages: 1 -->
<svg width="118pt" height="204pt"
 viewBox="0.00 0.00 117.50 204.00" xmlns="http://www.w3.org/2000/svg" xmlns:xlink="http://www.w3.org/1999/xlink">
<g id="graph0" class="graph" transform="scale(1 1) rotate(0) translate(4 200)">
<title>Sml::Notifier</title>
<polygon fill="white" stroke="transparent" points="-4,4 -4,-200 113.5,-200 113.5,4 -4,4"/>
<!-- Node1 -->
<g id="node1" class="node">
<title>Node1</title>
<g id="a_node1"><a xlink:title=" ">
<polygon fill="#bfbfbf" stroke="black" points="0,-0.5 0,-90.5 95,-90.5 95,-0.5 0,-0.5"/>
<text text-anchor="middle" x="47.5" y="-78.5" font-family="Helvetica,sans-Serif" font-size="10.00">Sml::Notifier</text>
<polyline fill="none" stroke="black" points="0,-71.5 95,-71.5 "/>
<text text-anchor="middle" x="47.5" y="-59.5" font-family="Helvetica,sans-Serif" font-size="10.00"> </text>
<polyline fill="none" stroke="black" points="0,-52.5 95,-52.5 "/>
<text text-anchor="start" x="8" y="-40.5" font-family="Helvetica,sans-Serif" font-size="10.00">+ ~Notifier()</text>
<text text-anchor="start" x="8" y="-29.5" font-family="Helvetica,sans-Serif" font-size="10.00">+ attachListener()</text>
<text text-anchor="start" x="8" y="-18.5" font-family="Helvetica,sans-Serif" font-size="10.00">+ detachListener()</text>
<text text-anchor="start" x="8" y="-7.5" font-family="Helvetica,sans-Serif" font-size="10.00">+ notify()</text>
</a>
</g>
</g>
<!-- Node2 -->
<g id="node2" class="node">
<title>Node2</title>
<g id="a_node2"><a xlink:title=" ">
<polygon fill="white" stroke="#bfbfbf" points="3,-138.5 3,-195.5 92,-195.5 92,-138.5 3,-138.5"/>
<text text-anchor="middle" x="47.5" y="-183.5" font-family="Helvetica,sans-Serif" font-size="10.00">unordered_map&lt;</text>
<polyline fill="none" stroke="#bfbfbf" points="3,-176.5 92,-176.5 "/>
<text text-anchor="middle" x="47.5" y="-164.5" font-family="Helvetica,sans-Serif" font-size="10.00"> </text>
<polyline fill="none" stroke="#bfbfbf" points="3,-157.5 92,-157.5 "/>
<text text-anchor="middle" x="47.5" y="-145.5" font-family="Helvetica,sans-Serif" font-size="10.00"> </text>
</a>
</g>
</g>
<!-- Node2&#45;&gt;Node1 -->
<g id="edge1" class="edge">
<title>Node2&#45;&gt;Node1</title>
<path fill="none" stroke="#404040" d="M47.5,-138.28C47.5,-127.73 47.5,-115.29 47.5,-103.03"/>
<polygon fill="none" stroke="#404040" points="47.5,-102.91 43.5,-96.91 47.5,-90.91 51.5,-96.91 47.5,-102.91"/>
<text text-anchor="middle" x="78.5" y="-112" font-family="Helvetica,sans-Serif" font-size="10.00"> #m_Listeners</text>
</g>
</g>
</svg>
