<?xml version="1.0" encoding="UTF-8" standalone="no"?>
<!DOCTYPE svg PUBLIC "-//W3C//DTD SVG 1.1//EN"
 "http://www.w3.org/Graphics/SVG/1.1/DTD/svg11.dtd">
<!-- Generated by graphviz version 2.50.0 (20211204.2007)
 -->
<!-- Title: Sml::KeyPressedEvent Pages: 1 -->
<svg width="127pt" height="364pt"
 viewBox="0.00 0.00 127.00 364.00" xmlns="http://www.w3.org/2000/svg" xmlns:xlink="http://www.w3.org/1999/xlink">
<g id="graph0" class="graph" transform="scale(1 1) rotate(0) translate(4 360)">
<title>Sml::KeyPressedEvent</title>
<polygon fill="white" stroke="transparent" points="-4,4 -4,-360 123,-360 123,4 -4,4"/>
<!-- Node1 -->
<g id="node1" class="node">
<title>Node1</title>
<g id="a_node1"><a xlink:title=" ">
<polygon fill="#bfbfbf" stroke="black" points="0,-0.5 0,-57.5 119,-57.5 119,-0.5 0,-0.5"/>
<text text-anchor="middle" x="59.5" y="-45.5" font-family="Helvetica,sans-Serif" font-size="10.00">Sml::KeyPressedEvent</text>
<polyline fill="none" stroke="black" points="0,-38.5 119,-38.5 "/>
<text text-anchor="middle" x="59.5" y="-26.5" font-family="Helvetica,sans-Serif" font-size="10.00"> </text>
<polyline fill="none" stroke="black" points="0,-19.5 119,-19.5 "/>
<text text-anchor="start" x="8" y="-7.5" font-family="Helvetica,sans-Serif" font-size="10.00">+ KeyPressedEvent()</text>
</a>
</g>
</g>
<!-- Node2 -->
<g id="node2" class="node">
<title>Node2</title>
<g id="a_node2"><a xlink:href="class_sml_1_1_key_event.html" target="_top" xlink:title=" ">
<polygon fill="white" stroke="black" points="15,-94.5 15,-173.5 104,-173.5 104,-94.5 15,-94.5"/>
<text text-anchor="middle" x="59.5" y="-161.5" font-family="Helvetica,sans-Serif" font-size="10.00">Sml::KeyEvent</text>
<polyline fill="none" stroke="black" points="15,-154.5 104,-154.5 "/>
<text text-anchor="start" x="23" y="-142.5" font-family="Helvetica,sans-Serif" font-size="10.00"># m_Scancode</text>
<polyline fill="none" stroke="black" points="15,-135.5 104,-135.5 "/>
<text text-anchor="start" x="23" y="-123.5" font-family="Helvetica,sans-Serif" font-size="10.00">+ KeyEvent()</text>
<text text-anchor="start" x="23" y="-112.5" font-family="Helvetica,sans-Serif" font-size="10.00">+ setScancode()</text>
<text text-anchor="start" x="23" y="-101.5" font-family="Helvetica,sans-Serif" font-size="10.00">+ getScancode()</text>
</a>
</g>
</g>
<!-- Node2&#45;&gt;Node1 -->
<g id="edge1" class="edge">
<title>Node2&#45;&gt;Node1</title>
<path fill="none" stroke="midnightblue" d="M59.5,-84.16C59.5,-75.04 59.5,-65.81 59.5,-57.61"/>
<polygon fill="none" stroke="midnightblue" points="56,-84.35 59.5,-94.35 63,-84.35 56,-84.35"/>
</g>
<!-- Node3 -->
<g id="node3" class="node">
<title>Node3</title>
<g id="a_node3"><a xlink:href="class_sml_1_1_event.html" target="_top" xlink:title=" ">
<polygon fill="white" stroke="black" points="16.5,-210.5 16.5,-355.5 102.5,-355.5 102.5,-210.5 16.5,-210.5"/>
<text text-anchor="middle" x="59.5" y="-343.5" font-family="Helvetica,sans-Serif" font-size="10.00">Sml::Event</text>
<polyline fill="none" stroke="black" points="16.5,-336.5 102.5,-336.5 "/>
<text text-anchor="start" x="24.5" y="-324.5" font-family="Helvetica,sans-Serif" font-size="10.00"># m_Type</text>
<text text-anchor="start" x="24.5" y="-313.5" font-family="Helvetica,sans-Serif" font-size="10.00"># m_Category</text>
<text text-anchor="start" x="24.5" y="-302.5" font-family="Helvetica,sans-Serif" font-size="10.00"># m_Target</text>
<text text-anchor="start" x="24.5" y="-291.5" font-family="Helvetica,sans-Serif" font-size="10.00"># m_Consumed</text>
<polyline fill="none" stroke="black" points="16.5,-284.5 102.5,-284.5 "/>
<text text-anchor="start" x="24.5" y="-272.5" font-family="Helvetica,sans-Serif" font-size="10.00">+ Event()</text>
<text text-anchor="start" x="24.5" y="-261.5" font-family="Helvetica,sans-Serif" font-size="10.00">+ ~Event()</text>
<text text-anchor="start" x="24.5" y="-250.5" font-family="Helvetica,sans-Serif" font-size="10.00">+ setType()</text>
<text text-anchor="start" x="24.5" y="-239.5" font-family="Helvetica,sans-Serif" font-size="10.00">+ setCategory()</text>
<text text-anchor="start" x="24.5" y="-228.5" font-family="Helvetica,sans-Serif" font-size="10.00">+ getType()</text>
<text text-anchor="start" x="24.5" y="-217.5" font-family="Helvetica,sans-Serif" font-size="10.00">and 6 more...</text>
</a>
</g>
</g>
<!-- Node3&#45;&gt;Node2 -->
<g id="edge2" class="edge">
<title>Node3&#45;&gt;Node2</title>
<path fill="none" stroke="midnightblue" d="M59.5,-199.95C59.5,-190.9 59.5,-182.02 59.5,-173.87"/>
<polygon fill="none" stroke="midnightblue" points="56,-200.22 59.5,-210.22 63,-200.22 56,-200.22"/>
</g>
</g>
</svg>
