<?xml version="1.0" encoding="UTF-8" standalone="no"?>
<!DOCTYPE svg PUBLIC "-//W3C//DTD SVG 1.1//EN"
 "http://www.w3.org/Graphics/SVG/1.1/DTD/svg11.dtd">
<!-- Generated by graphviz version 2.50.0 (20211204.2007)
 -->
<!-- Title: Sml::MouseEvent Pages: 1 -->
<!--zoomable 535 -->
<svg id="main" version="1.1" xmlns="http://www.w3.org/2000/svg" xmlns:xlink="http://www.w3.org/1999/xlink" xml:space="preserve" onload="init(evt)">
<style type="text/css"><![CDATA[
.edge:hover path { stroke: red; }
.edge:hover polygon { stroke: red; fill: red; }
]]></style>
<script type="text/javascript"><![CDATA[
var edges = document.getElementsByTagName('g');
if (edges && edges.length) {
  for (var i=0;i<edges.length;i++) {
    if (edges[i].id.substr(0,4)=='edge') {
      edges[i].setAttribute('class','edge');
    }
  }
}
]]></script>
        <defs>
                <circle id="rim" cx="0" cy="0" r="7"/>
                <circle id="rim2" cx="0" cy="0" r="3.5"/>
                <g id="zoomPlus">
                        <use xlink:href="#rim" fill="#404040">
                                <set attributeName="fill" to="#808080" begin="zoomplus.mouseover" end="zoomplus.mouseout"/>
                        </use>
                        <path d="M-4,0h8M0,-4v8" fill="none" stroke="white" stroke-width="1.5" pointer-events="none"/>
                </g>
                <g id="zoomMin">
                        <use xlink:href="#rim" fill="#404040">
                                <set attributeName="fill" to="#808080" begin="zoomminus.mouseover" end="zoomminus.mouseout"/>
                        </use>
                        <path d="M-4,0h8" fill="none" stroke="white" stroke-width="1.5" pointer-events="none"/>
                </g>
                <g id="dirArrow">
                        <path fill="none" stroke="white" stroke-width="1.5" d="M0,-3.0v7 M-2.5,-0.5L0,-3.0L2.5,-0.5"/>
                </g>
               <g id="resetDef">
                       <use xlink:href="#rim2" fill="#404040">
                               <set attributeName="fill" to="#808080" begin="reset.mouseover" end="reset.mouseout"/>
                       </use>
               </g>
        </defs>

<script type="text/javascript">
var viewWidth = 382;
var viewHeight = 535;
var sectionId = 'dynsection-0';
</script>
<script xlink:href="svgpan.js"/>
<svg id="graph" class="graph">
<g id="viewport">
<title>Sml::MouseEvent</title>
<polygon fill="white" stroke="transparent" points="-4,4 -4,-531 377.5,-531 377.5,4 -4,4"/>
<!-- Node1 -->
<g id="node1" class="node">
<title>Node1</title>
<g id="a_node1"><a xlink:title=" ">
<polygon fill="#bfbfbf" stroke="black" points="193,-232.5 193,-344.5 288,-344.5 288,-232.5 193,-232.5"/>
<text text-anchor="middle" x="240.5" y="-332.5" font-family="Helvetica,sans-Serif" font-size="10.00">Sml::MouseEvent</text>
<polyline fill="none" stroke="black" points="193,-325.5 288,-325.5 "/>
<text text-anchor="start" x="201" y="-313.5" font-family="Helvetica,sans-Serif" font-size="10.00"># m_X</text>
<text text-anchor="start" x="201" y="-302.5" font-family="Helvetica,sans-Serif" font-size="10.00"># m_Y</text>
<polyline fill="none" stroke="black" points="193,-295.5 288,-295.5 "/>
<text text-anchor="start" x="201" y="-283.5" font-family="Helvetica,sans-Serif" font-size="10.00">+ MouseEvent()</text>
<text text-anchor="start" x="201" y="-272.5" font-family="Helvetica,sans-Serif" font-size="10.00">+ setX()</text>
<text text-anchor="start" x="201" y="-261.5" font-family="Helvetica,sans-Serif" font-size="10.00">+ setY()</text>
<text text-anchor="start" x="201" y="-250.5" font-family="Helvetica,sans-Serif" font-size="10.00">+ getX()</text>
<text text-anchor="start" x="201" y="-239.5" font-family="Helvetica,sans-Serif" font-size="10.00">+ getY()</text>
</a>
</g>
</g>
<!-- Node3 -->
<g id="node3" class="node">
<title>Node3</title>
<g id="a_node3"><a xlink:href="class_sml_1_1_mouse_button_event.html" target="_top" xlink:title=" ">
<polygon fill="white" stroke="black" points="108,-116.5 108,-173.5 231,-173.5 231,-116.5 108,-116.5"/>
<text text-anchor="middle" x="169.5" y="-161.5" font-family="Helvetica,sans-Serif" font-size="10.00">Sml::MouseButtonEvent</text>
<polyline fill="none" stroke="black" points="108,-154.5 231,-154.5 "/>
<text text-anchor="start" x="116" y="-142.5" font-family="Helvetica,sans-Serif" font-size="10.00"># m_Button</text>
<polyline fill="none" stroke="black" points="108,-135.5 231,-135.5 "/>
<text text-anchor="start" x="116" y="-123.5" font-family="Helvetica,sans-Serif" font-size="10.00">+ MouseButtonEvent()</text>
</a>
</g>
</g>
<!-- Node1&#45;&gt;Node3 -->
<g id="edge2" class="edge">
<title>Node1&#45;&gt;Node3</title>
<path fill="none" stroke="midnightblue" d="M208.29,-223.31C199.51,-205.81 190.46,-187.77 183.31,-173.52"/>
<polygon fill="none" stroke="midnightblue" points="205.23,-225.02 212.85,-232.39 211.49,-221.88 205.23,-225.02"/>
</g>
<!-- Node6 -->
<g id="node6" class="node">
<title>Node6</title>
<g id="a_node6"><a xlink:href="class_sml_1_1_mouse_moved_event.html" target="_top" xlink:title=" ">
<polygon fill="white" stroke="black" points="249.5,-94.5 249.5,-195.5 373.5,-195.5 373.5,-94.5 249.5,-94.5"/>
<text text-anchor="middle" x="311.5" y="-183.5" font-family="Helvetica,sans-Serif" font-size="10.00">Sml::MouseMovedEvent</text>
<polyline fill="none" stroke="black" points="249.5,-176.5 373.5,-176.5 "/>
<text text-anchor="middle" x="311.5" y="-164.5" font-family="Helvetica,sans-Serif" font-size="10.00"> </text>
<polyline fill="none" stroke="black" points="249.5,-157.5 373.5,-157.5 "/>
<text text-anchor="start" x="257.5" y="-145.5" font-family="Helvetica,sans-Serif" font-size="10.00">+ MouseMovedEvent()</text>
<text text-anchor="start" x="257.5" y="-134.5" font-family="Helvetica,sans-Serif" font-size="10.00">+ setDeltaX()</text>
<text text-anchor="start" x="257.5" y="-123.5" font-family="Helvetica,sans-Serif" font-size="10.00">+ setDeltaY()</text>
<text text-anchor="start" x="257.5" y="-112.5" font-family="Helvetica,sans-Serif" font-size="10.00">+ getDeltaX()</text>
<text text-anchor="start" x="257.5" y="-101.5" font-family="Helvetica,sans-Serif" font-size="10.00">+ getDeltaY()</text>
</a>
</g>
</g>
<!-- Node1&#45;&gt;Node6 -->
<g id="edge5" class="edge">
<title>Node1&#45;&gt;Node6</title>
<path fill="none" stroke="midnightblue" d="M272.76,-223.21C277.4,-213.96 282.11,-204.56 286.58,-195.66"/>
<polygon fill="none" stroke="midnightblue" points="269.51,-221.88 268.15,-232.39 275.77,-225.02 269.51,-221.88"/>
</g>
<!-- Node2 -->
<g id="node2" class="node">
<title>Node2</title>
<g id="a_node2"><a xlink:href="class_sml_1_1_event.html" target="_top" xlink:title=" ">
<polygon fill="white" stroke="black" points="197.5,-381.5 197.5,-526.5 283.5,-526.5 283.5,-381.5 197.5,-381.5"/>
<text text-anchor="middle" x="240.5" y="-514.5" font-family="Helvetica,sans-Serif" font-size="10.00">Sml::Event</text>
<polyline fill="none" stroke="black" points="197.5,-507.5 283.5,-507.5 "/>
<text text-anchor="start" x="205.5" y="-495.5" font-family="Helvetica,sans-Serif" font-size="10.00"># m_Type</text>
<text text-anchor="start" x="205.5" y="-484.5" font-family="Helvetica,sans-Serif" font-size="10.00"># m_Category</text>
<text text-anchor="start" x="205.5" y="-473.5" font-family="Helvetica,sans-Serif" font-size="10.00"># m_Target</text>
<text text-anchor="start" x="205.5" y="-462.5" font-family="Helvetica,sans-Serif" font-size="10.00"># m_Consumed</text>
<polyline fill="none" stroke="black" points="197.5,-455.5 283.5,-455.5 "/>
<text text-anchor="start" x="205.5" y="-443.5" font-family="Helvetica,sans-Serif" font-size="10.00">+ Event()</text>
<text text-anchor="start" x="205.5" y="-432.5" font-family="Helvetica,sans-Serif" font-size="10.00">+ ~Event()</text>
<text text-anchor="start" x="205.5" y="-421.5" font-family="Helvetica,sans-Serif" font-size="10.00">+ setType()</text>
<text text-anchor="start" x="205.5" y="-410.5" font-family="Helvetica,sans-Serif" font-size="10.00">+ setCategory()</text>
<text text-anchor="start" x="205.5" y="-399.5" font-family="Helvetica,sans-Serif" font-size="10.00">+ getType()</text>
<text text-anchor="start" x="205.5" y="-388.5" font-family="Helvetica,sans-Serif" font-size="10.00">and 6 more...</text>
</a>
</g>
</g>
<!-- Node2&#45;&gt;Node1 -->
<g id="edge1" class="edge">
<title>Node2&#45;&gt;Node1</title>
<path fill="none" stroke="midnightblue" d="M240.5,-371.25C240.5,-362.33 240.5,-353.42 240.5,-344.93"/>
<polygon fill="none" stroke="midnightblue" points="237,-371.29 240.5,-381.29 244,-371.29 237,-371.29"/>
</g>
<!-- Node4 -->
<g id="node4" class="node">
<title>Node4</title>
<g id="a_node4"><a xlink:href="class_sml_1_1_mouse_button_pressed_event.html" target="_top" xlink:title=" ">
<polygon fill="white" stroke="black" points="0,-0.5 0,-57.5 159,-57.5 159,-0.5 0,-0.5"/>
<text text-anchor="middle" x="79.5" y="-45.5" font-family="Helvetica,sans-Serif" font-size="10.00">Sml::MouseButtonPressedEvent</text>
<polyline fill="none" stroke="black" points="0,-38.5 159,-38.5 "/>
<text text-anchor="middle" x="79.5" y="-26.5" font-family="Helvetica,sans-Serif" font-size="10.00"> </text>
<polyline fill="none" stroke="black" points="0,-19.5 159,-19.5 "/>
<text text-anchor="start" x="8" y="-7.5" font-family="Helvetica,sans-Serif" font-size="10.00">+ MouseButtonPressedEvent()</text>
</a>
</g>
</g>
<!-- Node3&#45;&gt;Node4 -->
<g id="edge3" class="edge">
<title>Node3&#45;&gt;Node4</title>
<path fill="none" stroke="midnightblue" d="M141.21,-108.17C128.35,-91.88 113.38,-72.91 101.4,-57.74"/>
<polygon fill="none" stroke="midnightblue" points="138.77,-110.72 147.71,-116.4 144.26,-106.39 138.77,-110.72"/>
</g>
<!-- Node5 -->
<g id="node5" class="node">
<title>Node5</title>
<g id="a_node5"><a xlink:href="class_sml_1_1_mouse_button_released_event.html" target="_top" xlink:title=" ">
<polygon fill="white" stroke="black" points="177.5,-0.5 177.5,-57.5 341.5,-57.5 341.5,-0.5 177.5,-0.5"/>
<text text-anchor="middle" x="259.5" y="-45.5" font-family="Helvetica,sans-Serif" font-size="10.00">Sml::MouseButtonReleasedEvent</text>
<polyline fill="none" stroke="black" points="177.5,-38.5 341.5,-38.5 "/>
<text text-anchor="middle" x="259.5" y="-26.5" font-family="Helvetica,sans-Serif" font-size="10.00"> </text>
<polyline fill="none" stroke="black" points="177.5,-19.5 341.5,-19.5 "/>
<text text-anchor="start" x="185.5" y="-7.5" font-family="Helvetica,sans-Serif" font-size="10.00">+ MouseButtonReleasedEvent()</text>
</a>
</g>
</g>
<!-- Node3&#45;&gt;Node5 -->
<g id="edge4" class="edge">
<title>Node3&#45;&gt;Node5</title>
<path fill="none" stroke="midnightblue" d="M197.79,-108.17C210.65,-91.88 225.62,-72.91 237.6,-57.74"/>
<polygon fill="none" stroke="midnightblue" points="194.74,-106.39 191.29,-116.4 200.23,-110.72 194.74,-106.39"/>
</g>
</g>
</svg>
        <g id="navigator" transform="translate(0 0)" fill="#404254">
                <rect fill="#f2f5e9" fill-opacity="0.5" stroke="#606060" stroke-width=".5" x="0" y="0" width="60" height="60"/>
                <use id="zoomplus" xlink:href="#zoomPlus" x="17" y="9" onmousedown="handleZoom(evt,'in')"/>
                <use id="zoomminus" xlink:href="#zoomMin" x="42" y="9" onmousedown="handleZoom(evt,'out')"/>
                <use id="reset" xlink:href="#resetDef" x="30" y="36" onmousedown="handleReset()"/>
                <g id="arrowUp" xlink:href="#dirArrow" transform="translate(30 24)" onmousedown="handlePan(0,-1)">
                  <use xlink:href="#rim" fill="#404040">
                        <set attributeName="fill" to="#808080" begin="arrowUp.mouseover" end="arrowUp.mouseout"/>
                  </use>
                  <path fill="none" stroke="white" stroke-width="1.5" d="M0,-3.0v7 M-2.5,-0.5L0,-3.0L2.5,-0.5"/>
                </g>
                <g id="arrowRight" xlink:href="#dirArrow" transform="rotate(90) translate(36 -43)" onmousedown="handlePan(1,0)">
                  <use xlink:href="#rim" fill="#404040">
                        <set attributeName="fill" to="#808080" begin="arrowRight.mouseover" end="arrowRight.mouseout"/>
                  </use>
                  <path fill="none" stroke="white" stroke-width="1.5" d="M0,-3.0v7 M-2.5,-0.5L0,-3.0L2.5,-0.5"/>
                </g>
                <g id="arrowDown" xlink:href="#dirArrow" transform="rotate(180) translate(-30 -48)" onmousedown="handlePan(0,1)">
                  <use xlink:href="#rim" fill="#404040">
                        <set attributeName="fill" to="#808080" begin="arrowDown.mouseover" end="arrowDown.mouseout"/>
                  </use>
                  <path fill="none" stroke="white" stroke-width="1.5" d="M0,-3.0v7 M-2.5,-0.5L0,-3.0L2.5,-0.5"/>
                </g>
                <g id="arrowLeft" xlink:href="#dirArrow" transform="rotate(270) translate(-36 17)" onmousedown="handlePan(-1,0)">
                  <use xlink:href="#rim" fill="#404040">
                        <set attributeName="fill" to="#808080" begin="arrowLeft.mouseover" end="arrowLeft.mouseout"/>
                  </use>
                  <path fill="none" stroke="white" stroke-width="1.5" d="M0,-3.0v7 M-2.5,-0.5L0,-3.0L2.5,-0.5"/>
                </g>
        </g>
        <svg viewBox="0 0 15 15" width="100%" height="30px" preserveAspectRatio="xMaxYMin meet">
         <g id="arrow_out" transform="scale(0.3 0.3)">
          <a xlink:href="class_sml_1_1_mouse_event__inherit__graph_org.svg" target="_base">
           <rect id="button" ry="5" rx="5" y="6" x="6" height="38" width="38"
                fill="#f2f5e9" fill-opacity="0.5" stroke="#606060" stroke-width="1.0"/>
           <path id="arrow"
             d="M 11.500037,31.436501 C 11.940474,20.09759 22.043105,11.32322 32.158766,21.979434 L 37.068811,17.246167 C 37.068811,17.246167 37.088388,32 37.088388,32 L 22.160133,31.978069 C 22.160133,31.978069 26.997745,27.140456 26.997745,27.140456 C 18.528582,18.264221 13.291696,25.230495 11.500037,31.436501 z"
             style="fill:#404040;"/>
          </a>
         </g>
        </svg>
</svg>
