<?xml version="1.0" encoding="UTF-8" standalone="no"?>
<!DOCTYPE svg PUBLIC "-//W3C//DTD SVG 1.1//EN"
 "http://www.w3.org/Graphics/SVG/1.1/DTD/svg11.dtd">
<!-- Generated by graphviz version 2.50.0 (20211204.2007)
 -->
<!-- Title: Sml::KeyEvent Pages: 1 -->
<svg width="342pt" height="353pt"
 viewBox="0.00 0.00 342.00 353.00" xmlns="http://www.w3.org/2000/svg" xmlns:xlink="http://www.w3.org/1999/xlink">
<g id="graph0" class="graph" transform="scale(1 1) rotate(0) translate(4 349)">
<title>Sml::KeyEvent</title>
<polygon fill="white" stroke="transparent" points="-4,4 -4,-349 338,-349 338,4 -4,4"/>
<!-- Node1 -->
<g id="node1" class="node">
<title>Node1</title>
<g id="a_node1"><a xlink:title=" ">
<polygon fill="#bfbfbf" stroke="black" points="152,-0.5 152,-79.5 241,-79.5 241,-0.5 152,-0.5"/>
<text text-anchor="middle" x="196.5" y="-67.5" font-family="Helvetica,sans-Serif" font-size="10.00">Sml::KeyEvent</text>
<polyline fill="none" stroke="black" points="152,-60.5 241,-60.5 "/>
<text text-anchor="middle" x="196.5" y="-48.5" font-family="Helvetica,sans-Serif" font-size="10.00"> </text>
<polyline fill="none" stroke="black" points="152,-41.5 241,-41.5 "/>
<text text-anchor="start" x="160" y="-29.5" font-family="Helvetica,sans-Serif" font-size="10.00">+ KeyEvent()</text>
<text text-anchor="start" x="160" y="-18.5" font-family="Helvetica,sans-Serif" font-size="10.00">+ setScancode()</text>
<text text-anchor="start" x="160" y="-7.5" font-family="Helvetica,sans-Serif" font-size="10.00">+ getScancode()</text>
</a>
</g>
</g>
<!-- Node2 -->
<g id="node2" class="node">
<title>Node2</title>
<g id="a_node2"><a xlink:href="class_sml_1_1_event.html" target="_top" xlink:title=" ">
<polygon fill="white" stroke="black" points="109,-127.5 109,-239.5 194,-239.5 194,-127.5 109,-127.5"/>
<text text-anchor="middle" x="151.5" y="-227.5" font-family="Helvetica,sans-Serif" font-size="10.00">Sml::Event</text>
<polyline fill="none" stroke="black" points="109,-220.5 194,-220.5 "/>
<text text-anchor="middle" x="151.5" y="-208.5" font-family="Helvetica,sans-Serif" font-size="10.00"> </text>
<polyline fill="none" stroke="black" points="109,-201.5 194,-201.5 "/>
<text text-anchor="start" x="117" y="-189.5" font-family="Helvetica,sans-Serif" font-size="10.00">+ Event()</text>
<text text-anchor="start" x="117" y="-178.5" font-family="Helvetica,sans-Serif" font-size="10.00">+ ~Event()</text>
<text text-anchor="start" x="117" y="-167.5" font-family="Helvetica,sans-Serif" font-size="10.00">+ setType()</text>
<text text-anchor="start" x="117" y="-156.5" font-family="Helvetica,sans-Serif" font-size="10.00">+ setCategory()</text>
<text text-anchor="start" x="117" y="-145.5" font-family="Helvetica,sans-Serif" font-size="10.00">+ getType()</text>
<text text-anchor="start" x="117" y="-134.5" font-family="Helvetica,sans-Serif" font-size="10.00">and 6 more...</text>
</a>
</g>
</g>
<!-- Node2&#45;&gt;Node1 -->
<g id="edge1" class="edge">
<title>Node2&#45;&gt;Node1</title>
<path fill="none" stroke="midnightblue" d="M172.16,-117.54C176.29,-104.55 180.5,-91.3 184.24,-79.56"/>
<polygon fill="none" stroke="midnightblue" points="168.72,-116.8 169.03,-127.39 175.39,-118.92 168.72,-116.8"/>
</g>
<!-- Node3 -->
<g id="node3" class="node">
<title>Node3</title>
<g id="a_node3"><a xlink:title=" ">
<polygon fill="white" stroke="#bfbfbf" points="0,-287.5 0,-344.5 51,-344.5 51,-287.5 0,-287.5"/>
<text text-anchor="middle" x="25.5" y="-332.5" font-family="Helvetica,sans-Serif" font-size="10.00">uint32_t</text>
<polyline fill="none" stroke="#bfbfbf" points="0,-325.5 51,-325.5 "/>
<text text-anchor="middle" x="25.5" y="-313.5" font-family="Helvetica,sans-Serif" font-size="10.00"> </text>
<polyline fill="none" stroke="#bfbfbf" points="0,-306.5 51,-306.5 "/>
<text text-anchor="middle" x="25.5" y="-294.5" font-family="Helvetica,sans-Serif" font-size="10.00"> </text>
</a>
</g>
</g>
<!-- Node3&#45;&gt;Node2 -->
<g id="edge2" class="edge">
<title>Node3&#45;&gt;Node2</title>
<path fill="none" stroke="#404040" d="M45.12,-287.5C52.42,-277.86 60.99,-267.16 69.5,-258 78.86,-247.93 89.43,-237.71 99.8,-228.23"/>
<polygon fill="none" stroke="#404040" points="99.9,-228.14 101.69,-221.15 108.82,-220.11 107.04,-227.09 99.9,-228.14"/>
<text text-anchor="middle" x="91" y="-261" font-family="Helvetica,sans-Serif" font-size="10.00"> #m_Type</text>
</g>
<!-- Node4 -->
<g id="node4" class="node">
<title>Node4</title>
<g id="a_node4"><a xlink:title=" ">
<polygon fill="white" stroke="#bfbfbf" points="69,-287.5 69,-344.5 120,-344.5 120,-287.5 69,-287.5"/>
<text text-anchor="middle" x="94.5" y="-332.5" font-family="Helvetica,sans-Serif" font-size="10.00">uint64_t</text>
<polyline fill="none" stroke="#bfbfbf" points="69,-325.5 120,-325.5 "/>
<text text-anchor="middle" x="94.5" y="-313.5" font-family="Helvetica,sans-Serif" font-size="10.00"> </text>
<polyline fill="none" stroke="#bfbfbf" points="69,-306.5 120,-306.5 "/>
<text text-anchor="middle" x="94.5" y="-294.5" font-family="Helvetica,sans-Serif" font-size="10.00"> </text>
</a>
</g>
</g>
<!-- Node4&#45;&gt;Node2 -->
<g id="edge3" class="edge">
<title>Node4&#45;&gt;Node2</title>
<path fill="none" stroke="#404040" d="M106.59,-287.32C111.29,-276.56 116.89,-263.73 122.52,-250.84"/>
<polygon fill="none" stroke="#404040" points="122.65,-250.55 121.39,-243.45 127.46,-239.55 128.72,-246.65 122.65,-250.55"/>
<text text-anchor="middle" x="149.5" y="-261" font-family="Helvetica,sans-Serif" font-size="10.00"> #m_Category</text>
</g>
<!-- Node5 -->
<g id="node5" class="node">
<title>Node5</title>
<g id="a_node5"><a xlink:href="class_sml_1_1_event_target.html" target="_top" xlink:title=" ">
<polygon fill="white" stroke="black" points="138.5,-287.5 138.5,-344.5 280.5,-344.5 280.5,-287.5 138.5,-287.5"/>
<text text-anchor="middle" x="209.5" y="-332.5" font-family="Helvetica,sans-Serif" font-size="10.00">Sml::EventTarget</text>
<polyline fill="none" stroke="black" points="138.5,-325.5 280.5,-325.5 "/>
<text text-anchor="middle" x="209.5" y="-313.5" font-family="Helvetica,sans-Serif" font-size="10.00"> </text>
<polyline fill="none" stroke="black" points="138.5,-306.5 280.5,-306.5 "/>
<text text-anchor="start" x="146.5" y="-294.5" font-family="Helvetica,sans-Serif" font-size="10.00">+ buildEventDispatchChain()</text>
</a>
</g>
</g>
<!-- Node5&#45;&gt;Node2 -->
<g id="edge4" class="edge">
<title>Node5&#45;&gt;Node2</title>
<path fill="none" stroke="#404040" d="M197.47,-287.44C193.37,-278.08 188.75,-267.58 184.5,-258 183.48,-255.7 182.44,-253.37 181.39,-251.01"/>
<polygon fill="none" stroke="#404040" points="181.31,-250.82 175.21,-246.97 176.42,-239.86 182.52,-243.71 181.31,-250.82"/>
<text text-anchor="middle" x="214" y="-261" font-family="Helvetica,sans-Serif" font-size="10.00"> #m_Target</text>
</g>
<!-- Node6 -->
<g id="node6" class="node">
<title>Node6</title>
<g id="a_node6"><a xlink:title=" ">
<polygon fill="white" stroke="#bfbfbf" points="299,-287.5 299,-344.5 334,-344.5 334,-287.5 299,-287.5"/>
<text text-anchor="middle" x="316.5" y="-332.5" font-family="Helvetica,sans-Serif" font-size="10.00">bool</text>
<polyline fill="none" stroke="#bfbfbf" points="299,-325.5 334,-325.5 "/>
<text text-anchor="middle" x="316.5" y="-313.5" font-family="Helvetica,sans-Serif" font-size="10.00"> </text>
<polyline fill="none" stroke="#bfbfbf" points="299,-306.5 334,-306.5 "/>
<text text-anchor="middle" x="316.5" y="-294.5" font-family="Helvetica,sans-Serif" font-size="10.00"> </text>
</a>
</g>
</g>
<!-- Node6&#45;&gt;Node2 -->
<g id="edge5" class="edge">
<title>Node6&#45;&gt;Node2</title>
<path fill="none" stroke="#404040" d="M298.8,-295.36C295.81,-292.43 292.66,-289.54 289.5,-287 270.39,-271.6 264.13,-269.61 242.5,-258 225.68,-248.97 218.98,-251.17 203.5,-240 203.4,-239.93 203.3,-239.85 203.2,-239.78"/>
<polygon fill="none" stroke="#404040" points="203.4,-239.95 196.22,-239.34 194.02,-232.47 201.2,-233.08 203.4,-239.95"/>
<text text-anchor="middle" x="297.5" y="-261" font-family="Helvetica,sans-Serif" font-size="10.00"> #m_Consumed</text>
</g>
<!-- Node7 -->
<g id="node7" class="node">
<title>Node7</title>
<g id="a_node7"><a xlink:title=" ">
<polygon fill="white" stroke="#bfbfbf" points="212.5,-155 212.5,-212 272.5,-212 272.5,-155 212.5,-155"/>
<text text-anchor="middle" x="242.5" y="-200" font-family="Helvetica,sans-Serif" font-size="10.00">Scancode</text>
<polyline fill="none" stroke="#bfbfbf" points="212.5,-193 272.5,-193 "/>
<text text-anchor="middle" x="242.5" y="-181" font-family="Helvetica,sans-Serif" font-size="10.00"> </text>
<polyline fill="none" stroke="#bfbfbf" points="212.5,-174 272.5,-174 "/>
<text text-anchor="middle" x="242.5" y="-162" font-family="Helvetica,sans-Serif" font-size="10.00"> </text>
</a>
</g>
</g>
<!-- Node7&#45;&gt;Node1 -->
<g id="edge6" class="edge">
<title>Node7&#45;&gt;Node1</title>
<path fill="none" stroke="#404040" d="M233.52,-154.88C227.63,-136.76 219.76,-112.54 212.79,-91.09"/>
<polygon fill="none" stroke="#404040" points="212.73,-90.93 207.07,-86.46 209.02,-79.52 214.68,-83.99 212.73,-90.93"/>
<text text-anchor="middle" x="250.5" y="-101" font-family="Helvetica,sans-Serif" font-size="10.00"> #m_Scancode</text>
</g>
</g>
</svg>
