<?xml version="1.0" encoding="UTF-8" standalone="no"?>
<!DOCTYPE svg PUBLIC "-//W3C//DTD SVG 1.1//EN"
 "http://www.w3.org/Graphics/SVG/1.1/DTD/svg11.dtd">
<!-- Generated by graphviz version 2.50.0 (20211204.2007)
 -->
<!-- Title: Sml::Notifier Pages: 1 -->
<svg width="314pt" height="204pt"
 viewBox="0.00 0.00 313.50 204.00" xmlns="http://www.w3.org/2000/svg" xmlns:xlink="http://www.w3.org/1999/xlink">
<g id="graph0" class="graph" transform="scale(1 1) rotate(0) translate(4 200)">
<title>Sml::Notifier</title>
<polygon fill="white" stroke="transparent" points="-4,4 -4,-200 309.5,-200 309.5,4 -4,4"/>
<!-- Node1 -->
<g id="node1" class="node">
<title>Node1</title>
<g id="a_node1"><a xlink:title=" ">
<polygon fill="#bfbfbf" stroke="black" points="108.5,-105.5 108.5,-195.5 203.5,-195.5 203.5,-105.5 108.5,-105.5"/>
<text text-anchor="middle" x="156" y="-183.5" font-family="Helvetica,sans-Serif" font-size="10.00">Sml::Notifier</text>
<polyline fill="none" stroke="black" points="108.5,-176.5 203.5,-176.5 "/>
<text text-anchor="start" x="116.5" y="-164.5" font-family="Helvetica,sans-Serif" font-size="10.00"># m_Listeners</text>
<polyline fill="none" stroke="black" points="108.5,-157.5 203.5,-157.5 "/>
<text text-anchor="start" x="116.5" y="-145.5" font-family="Helvetica,sans-Serif" font-size="10.00">+ ~Notifier()</text>
<text text-anchor="start" x="116.5" y="-134.5" font-family="Helvetica,sans-Serif" font-size="10.00">+ attachListener()</text>
<text text-anchor="start" x="116.5" y="-123.5" font-family="Helvetica,sans-Serif" font-size="10.00">+ detachListener()</text>
<text text-anchor="start" x="116.5" y="-112.5" font-family="Helvetica,sans-Serif" font-size="10.00">+ notify()</text>
</a>
</g>
</g>
<!-- Node2 -->
<g id="node2" class="node">
<title>Node2</title>
<g id="a_node2"><a xlink:href="class_sml_1_1_observable_property.html" target="_top" xlink:title=" ">
<polygon fill="white" stroke="black" points="0,-6 0,-63 150,-63 150,-6 0,-6"/>
<text text-anchor="middle" x="75" y="-51" font-family="Helvetica,sans-Serif" font-size="10.00">Sml::ObservableProperty&lt; T &gt;</text>
<polyline fill="none" stroke="black" points="0,-44 150,-44 "/>
<text text-anchor="middle" x="75" y="-32" font-family="Helvetica,sans-Serif" font-size="10.00"> </text>
<polyline fill="none" stroke="black" points="0,-25 150,-25 "/>
<text text-anchor="middle" x="75" y="-13" font-family="Helvetica,sans-Serif" font-size="10.00"> </text>
</a>
</g>
</g>
<!-- Node1&#45;&gt;Node2 -->
<g id="edge1" class="edge">
<title>Node1&#45;&gt;Node2</title>
<path fill="none" stroke="darkgreen" d="M118.72,-97.03C110.45,-85.39 102.01,-73.51 94.77,-63.32"/>
<polygon fill="none" stroke="darkgreen" points="116.04,-99.3 124.68,-105.42 121.74,-95.25 116.04,-99.3"/>
</g>
<!-- Node3 -->
<g id="node3" class="node">
<title>Node3</title>
<g id="a_node3"><a xlink:href="class_sml_1_1_system_event_manager.html" target="_top" xlink:title=" ">
<polygon fill="white" stroke="black" points="168.5,-0.5 168.5,-68.5 305.5,-68.5 305.5,-0.5 168.5,-0.5"/>
<text text-anchor="middle" x="237" y="-56.5" font-family="Helvetica,sans-Serif" font-size="10.00">Sml::SystemEventManager</text>
<polyline fill="none" stroke="black" points="168.5,-49.5 305.5,-49.5 "/>
<text text-anchor="middle" x="237" y="-37.5" font-family="Helvetica,sans-Serif" font-size="10.00"> </text>
<polyline fill="none" stroke="black" points="168.5,-30.5 305.5,-30.5 "/>
<text text-anchor="start" x="176.5" y="-18.5" font-family="Helvetica,sans-Serif" font-size="10.00">+ proccessEvents()</text>
<text text-anchor="start" x="176.5" y="-7.5" font-family="Helvetica,sans-Serif" font-size="10.00">+ pollEvent()</text>
</a>
</g>
</g>
<!-- Node1&#45;&gt;Node3 -->
<g id="edge2" class="edge">
<title>Node1&#45;&gt;Node3</title>
<path fill="none" stroke="midnightblue" d="M193.26,-97.06C200.08,-87.47 207.02,-77.7 213.31,-68.85"/>
<polygon fill="none" stroke="midnightblue" points="190.26,-95.25 187.32,-105.42 195.96,-99.3 190.26,-95.25"/>
</g>
</g>
</svg>
