<?xml version="1.0" encoding="UTF-8" standalone="no"?>
<!DOCTYPE svg PUBLIC "-//W3C//DTD SVG 1.1//EN"
 "http://www.w3.org/Graphics/SVG/1.1/DTD/svg11.dtd">
<!-- Generated by graphviz version 2.50.0 (20211204.2007)
 -->
<!-- Title: Sml::ObservableProperty&lt; T &gt; Pages: 1 -->
<svg width="158pt" height="193pt"
 viewBox="0.00 0.00 158.00 193.00" xmlns="http://www.w3.org/2000/svg" xmlns:xlink="http://www.w3.org/1999/xlink">
<g id="graph0" class="graph" transform="scale(1 1) rotate(0) translate(4 189)">
<title>Sml::ObservableProperty&lt; T &gt;</title>
<polygon fill="white" stroke="transparent" points="-4,4 -4,-189 154,-189 154,4 -4,4"/>
<!-- Node1 -->
<g id="node1" class="node">
<title>Node1</title>
<g id="a_node1"><a xlink:title=" ">
<polygon fill="#bfbfbf" stroke="black" points="0,-0.5 0,-57.5 150,-57.5 150,-0.5 0,-0.5"/>
<text text-anchor="middle" x="75" y="-45.5" font-family="Helvetica,sans-Serif" font-size="10.00">Sml::ObservableProperty&lt; T &gt;</text>
<polyline fill="none" stroke="black" points="0,-38.5 150,-38.5 "/>
<text text-anchor="middle" x="75" y="-26.5" font-family="Helvetica,sans-Serif" font-size="10.00"> </text>
<polyline fill="none" stroke="black" points="0,-19.5 150,-19.5 "/>
<text text-anchor="middle" x="75" y="-7.5" font-family="Helvetica,sans-Serif" font-size="10.00"> </text>
</a>
</g>
</g>
<!-- Node2 -->
<g id="node2" class="node">
<title>Node2</title>
<g id="a_node2"><a xlink:href="class_sml_1_1_notifier.html" target="_top" xlink:title=" ">
<polygon fill="white" stroke="black" points="27.5,-94.5 27.5,-184.5 122.5,-184.5 122.5,-94.5 27.5,-94.5"/>
<text text-anchor="middle" x="75" y="-172.5" font-family="Helvetica,sans-Serif" font-size="10.00">Sml::Notifier</text>
<polyline fill="none" stroke="black" points="27.5,-165.5 122.5,-165.5 "/>
<text text-anchor="start" x="35.5" y="-153.5" font-family="Helvetica,sans-Serif" font-size="10.00"># m_Listeners</text>
<polyline fill="none" stroke="black" points="27.5,-146.5 122.5,-146.5 "/>
<text text-anchor="start" x="35.5" y="-134.5" font-family="Helvetica,sans-Serif" font-size="10.00">+ ~Notifier()</text>
<text text-anchor="start" x="35.5" y="-123.5" font-family="Helvetica,sans-Serif" font-size="10.00">+ attachListener()</text>
<text text-anchor="start" x="35.5" y="-112.5" font-family="Helvetica,sans-Serif" font-size="10.00">+ detachListener()</text>
<text text-anchor="start" x="35.5" y="-101.5" font-family="Helvetica,sans-Serif" font-size="10.00">+ notify()</text>
</a>
</g>
</g>
<!-- Node2&#45;&gt;Node1 -->
<g id="edge1" class="edge">
<title>Node2&#45;&gt;Node1</title>
<path fill="none" stroke="darkgreen" d="M75,-84.35C75,-75.07 75,-65.79 75,-57.59"/>
<polygon fill="none" stroke="darkgreen" points="71.5,-84.37 75,-94.37 78.5,-84.37 71.5,-84.37"/>
</g>
</g>
</svg>
