<?xml version="1.0" encoding="UTF-8" standalone="no"?>
<!DOCTYPE svg PUBLIC "-//W3C//DTD SVG 1.1//EN"
 "http://www.w3.org/Graphics/SVG/1.1/DTD/svg11.dtd">
<!-- Generated by graphviz version 2.50.0 (20211204.2007)
 -->
<!-- Title: List&lt; T &gt; Pages: 1 -->
<svg width="128pt" height="226pt"
 viewBox="0.00 0.00 128.00 226.00" xmlns="http://www.w3.org/2000/svg" xmlns:xlink="http://www.w3.org/1999/xlink">
<g id="graph0" class="graph" transform="scale(1 1) rotate(0) translate(4 222)">
<title>List&lt; T &gt;</title>
<polygon fill="white" stroke="transparent" points="-4,4 -4,-222 124,-222 124,4 -4,4"/>
<!-- Node1 -->
<g id="node1" class="node">
<title>Node1</title>
<g id="a_node1"><a xlink:title=" ">
<polygon fill="#bfbfbf" stroke="black" points="0,-0.5 0,-112.5 80,-112.5 80,-0.5 0,-0.5"/>
<text text-anchor="middle" x="40" y="-100.5" font-family="Helvetica,sans-Serif" font-size="10.00">List&lt; T &gt;</text>
<polyline fill="none" stroke="black" points="0,-93.5 80,-93.5 "/>
<text text-anchor="middle" x="40" y="-81.5" font-family="Helvetica,sans-Serif" font-size="10.00"> </text>
<polyline fill="none" stroke="black" points="0,-74.5 80,-74.5 "/>
<text text-anchor="start" x="8" y="-62.5" font-family="Helvetica,sans-Serif" font-size="10.00">+ List()</text>
<text text-anchor="start" x="8" y="-51.5" font-family="Helvetica,sans-Serif" font-size="10.00">+ List()</text>
<text text-anchor="start" x="8" y="-40.5" font-family="Helvetica,sans-Serif" font-size="10.00">+ ~List()</text>
<text text-anchor="start" x="8" y="-29.5" font-family="Helvetica,sans-Serif" font-size="10.00">+ begin()</text>
<text text-anchor="start" x="8" y="-18.5" font-family="Helvetica,sans-Serif" font-size="10.00">+ back()</text>
<text text-anchor="start" x="8" y="-7.5" font-family="Helvetica,sans-Serif" font-size="10.00">and 11 more...</text>
</a>
</g>
</g>
<!-- Node2 -->
<g id="node2" class="node">
<title>Node2</title>
<g id="a_node2"><a xlink:title=" ">
<polygon fill="white" stroke="#bfbfbf" points="19.5,-160.5 19.5,-217.5 60.5,-217.5 60.5,-160.5 19.5,-160.5"/>
<text text-anchor="middle" x="40" y="-205.5" font-family="Helvetica,sans-Serif" font-size="10.00">friend</text>
<polyline fill="none" stroke="#bfbfbf" points="19.5,-198.5 60.5,-198.5 "/>
<text text-anchor="middle" x="40" y="-186.5" font-family="Helvetica,sans-Serif" font-size="10.00"> </text>
<polyline fill="none" stroke="#bfbfbf" points="19.5,-179.5 60.5,-179.5 "/>
<text text-anchor="middle" x="40" y="-167.5" font-family="Helvetica,sans-Serif" font-size="10.00"> </text>
</a>
</g>
</g>
<!-- Node2&#45;&gt;Node1 -->
<g id="edge1" class="edge">
<title>Node2&#45;&gt;Node1</title>
<path fill="none" stroke="#404040" d="M40,-160.32C40,-149.78 40,-137.25 40,-124.62"/>
<polygon fill="none" stroke="#404040" points="40,-124.55 36,-118.55 40,-112.55 44,-118.55 40,-124.55"/>
<text text-anchor="middle" x="80" y="-134" font-family="Helvetica,sans-Serif" font-size="10.00"> +ListIterator&lt; T &gt;</text>
</g>
</g>
</svg>
