<?xml version="1.0" encoding="UTF-8" standalone="no"?>
<!DOCTYPE svg PUBLIC "-//W3C//DTD SVG 1.1//EN"
 "http://www.w3.org/Graphics/SVG/1.1/DTD/svg11.dtd">
<!-- Generated by graphviz version 2.50.0 (20211204.2007)
 -->
<!-- Title: Sml::KeyEvent Pages: 1 -->
<svg width="524pt" height="408pt"
 viewBox="0.00 0.00 524.00 408.00" xmlns="http://www.w3.org/2000/svg" xmlns:xlink="http://www.w3.org/1999/xlink">
<g id="graph0" class="graph" transform="scale(1 1) rotate(0) translate(4 404)">
<title>Sml::KeyEvent</title>
<polygon fill="white" stroke="transparent" points="-4,4 -4,-404 520,-404 520,4 -4,4"/>
<!-- Node1 -->
<g id="node1" class="node">
<title>Node1</title>
<g id="a_node1"><a xlink:title=" ">
<polygon fill="#bfbfbf" stroke="black" points="145.5,-105.5 145.5,-195.5 369.5,-195.5 369.5,-105.5 145.5,-105.5"/>
<text text-anchor="middle" x="257.5" y="-183.5" font-family="Helvetica,sans-Serif" font-size="10.00">Sml::KeyEvent</text>
<polyline fill="none" stroke="black" points="145.5,-176.5 369.5,-176.5 "/>
<text text-anchor="start" x="153.5" y="-164.5" font-family="Helvetica,sans-Serif" font-size="10.00"># Scancode m_Scancode</text>
<polyline fill="none" stroke="black" points="145.5,-157.5 369.5,-157.5 "/>
<text text-anchor="start" x="153.5" y="-145.5" font-family="Helvetica,sans-Serif" font-size="10.00">+ KeyEvent(Scancode scancode=SCANCODE</text>
<text text-anchor="start" x="153.5" y="-134.5" font-family="Helvetica,sans-Serif" font-size="10.00">_INVALID, EventTarget *target=nullptr)</text>
<text text-anchor="start" x="153.5" y="-123.5" font-family="Helvetica,sans-Serif" font-size="10.00">+ void setScancode(Scancode scancode)</text>
<text text-anchor="start" x="153.5" y="-112.5" font-family="Helvetica,sans-Serif" font-size="10.00">+ Scancode getScancode() const</text>
</a>
</g>
</g>
<!-- Node3 -->
<g id="node3" class="node">
<title>Node3</title>
<g id="a_node3"><a xlink:href="class_sml_1_1_key_pressed_event.html" target="_top" xlink:title=" ">
<polygon fill="white" stroke="black" points="0,-0.5 0,-68.5 249,-68.5 249,-0.5 0,-0.5"/>
<text text-anchor="middle" x="124.5" y="-56.5" font-family="Helvetica,sans-Serif" font-size="10.00">Sml::KeyPressedEvent</text>
<polyline fill="none" stroke="black" points="0,-49.5 249,-49.5 "/>
<text text-anchor="middle" x="124.5" y="-37.5" font-family="Helvetica,sans-Serif" font-size="10.00"> </text>
<polyline fill="none" stroke="black" points="0,-30.5 249,-30.5 "/>
<text text-anchor="start" x="8" y="-18.5" font-family="Helvetica,sans-Serif" font-size="10.00">+ KeyPressedEvent(Scancode scancode</text>
<text text-anchor="start" x="8" y="-7.5" font-family="Helvetica,sans-Serif" font-size="10.00">=SCANCODE_INVALID, EventTarget *target=nullptr)</text>
</a>
</g>
</g>
<!-- Node1&#45;&gt;Node3 -->
<g id="edge2" class="edge">
<title>Node1&#45;&gt;Node3</title>
<path fill="none" stroke="midnightblue" d="M198.36,-98.81C186.51,-88.65 174.35,-78.23 163.41,-68.85"/>
<polygon fill="none" stroke="midnightblue" points="196.21,-101.57 206.08,-105.42 200.76,-96.26 196.21,-101.57"/>
</g>
<!-- Node4 -->
<g id="node4" class="node">
<title>Node4</title>
<g id="a_node4"><a xlink:href="class_sml_1_1_key_released_event.html" target="_top" xlink:title=" ">
<polygon fill="white" stroke="black" points="267,-0.5 267,-68.5 516,-68.5 516,-0.5 267,-0.5"/>
<text text-anchor="middle" x="391.5" y="-56.5" font-family="Helvetica,sans-Serif" font-size="10.00">Sml::KeyReleasedEvent</text>
<polyline fill="none" stroke="black" points="267,-49.5 516,-49.5 "/>
<text text-anchor="middle" x="391.5" y="-37.5" font-family="Helvetica,sans-Serif" font-size="10.00"> </text>
<polyline fill="none" stroke="black" points="267,-30.5 516,-30.5 "/>
<text text-anchor="start" x="275" y="-18.5" font-family="Helvetica,sans-Serif" font-size="10.00">+ KeyReleasedEvent(Scancode scancode</text>
<text text-anchor="start" x="275" y="-7.5" font-family="Helvetica,sans-Serif" font-size="10.00">=SCANCODE_INVALID, EventTarget *target=nullptr)</text>
</a>
</g>
</g>
<!-- Node1&#45;&gt;Node4 -->
<g id="edge3" class="edge">
<title>Node1&#45;&gt;Node4</title>
<path fill="none" stroke="midnightblue" d="M317.09,-98.81C329.02,-88.65 341.27,-78.23 352.3,-68.85"/>
<polygon fill="none" stroke="midnightblue" points="314.66,-96.28 309.31,-105.42 319.19,-101.61 314.66,-96.28"/>
</g>
<!-- Node2 -->
<g id="node2" class="node">
<title>Node2</title>
<g id="a_node2"><a xlink:href="class_sml_1_1_event.html" target="_top" xlink:title=" ">
<polygon fill="white" stroke="black" points="142.5,-232.5 142.5,-399.5 372.5,-399.5 372.5,-232.5 142.5,-232.5"/>
<text text-anchor="middle" x="257.5" y="-387.5" font-family="Helvetica,sans-Serif" font-size="10.00">Sml::Event</text>
<polyline fill="none" stroke="black" points="142.5,-380.5 372.5,-380.5 "/>
<text text-anchor="start" x="150.5" y="-368.5" font-family="Helvetica,sans-Serif" font-size="10.00"># EventType m_Type</text>
<text text-anchor="start" x="150.5" y="-357.5" font-family="Helvetica,sans-Serif" font-size="10.00"># EventCategory m_Category</text>
<text text-anchor="start" x="150.5" y="-346.5" font-family="Helvetica,sans-Serif" font-size="10.00"># EventTarget * m_Target</text>
<text text-anchor="start" x="150.5" y="-335.5" font-family="Helvetica,sans-Serif" font-size="10.00"># bool m_Consumed</text>
<polyline fill="none" stroke="black" points="142.5,-328.5 372.5,-328.5 "/>
<text text-anchor="start" x="150.5" y="-316.5" font-family="Helvetica,sans-Serif" font-size="10.00">+ Event(EventType type=INVALID_EVENT</text>
<text text-anchor="start" x="150.5" y="-305.5" font-family="Helvetica,sans-Serif" font-size="10.00">_TYPE, EventCategory category=0, EventTarget</text>
<text text-anchor="start" x="150.5" y="-294.5" font-family="Helvetica,sans-Serif" font-size="10.00"> *target=nullptr)</text>
<text text-anchor="start" x="150.5" y="-283.5" font-family="Helvetica,sans-Serif" font-size="10.00">+ virtual ~Event()=default</text>
<text text-anchor="start" x="150.5" y="-272.5" font-family="Helvetica,sans-Serif" font-size="10.00">+ void setType(EventType type)</text>
<text text-anchor="start" x="150.5" y="-261.5" font-family="Helvetica,sans-Serif" font-size="10.00">+ void setCategory(EventCategory category)</text>
<text text-anchor="start" x="150.5" y="-250.5" font-family="Helvetica,sans-Serif" font-size="10.00">+ EventType getType() const</text>
<text text-anchor="start" x="150.5" y="-239.5" font-family="Helvetica,sans-Serif" font-size="10.00">and 6 more...</text>
</a>
</g>
</g>
<!-- Node2&#45;&gt;Node1 -->
<g id="edge1" class="edge">
<title>Node2&#45;&gt;Node1</title>
<path fill="none" stroke="midnightblue" d="M257.5,-222.22C257.5,-212.99 257.5,-203.95 257.5,-195.58"/>
<polygon fill="none" stroke="midnightblue" points="254,-222.29 257.5,-232.29 261,-222.29 254,-222.29"/>
</g>
</g>
</svg>
