<?xml version="1.0" encoding="UTF-8" standalone="no"?>
<!DOCTYPE svg PUBLIC "-//W3C//DTD SVG 1.1//EN"
 "http://www.w3.org/Graphics/SVG/1.1/DTD/svg11.dtd">
<!-- Generated by graphviz version 2.50.0 (20211204.2007)
 -->
<!-- Title: Sml::KeyReleasedEvent Pages: 1 -->
<svg width="342pt" height="448pt"
 viewBox="0.00 0.00 342.00 448.00" xmlns="http://www.w3.org/2000/svg" xmlns:xlink="http://www.w3.org/1999/xlink">
<g id="graph0" class="graph" transform="scale(1 1) rotate(0) translate(4 444)">
<title>Sml::KeyReleasedEvent</title>
<polygon fill="white" stroke="transparent" points="-4,4 -4,-444 338,-444 338,4 -4,4"/>
<!-- Node1 -->
<g id="node1" class="node">
<title>Node1</title>
<g id="a_node1"><a xlink:title=" ">
<polygon fill="#bfbfbf" stroke="black" points="134.5,-0.5 134.5,-57.5 258.5,-57.5 258.5,-0.5 134.5,-0.5"/>
<text text-anchor="middle" x="196.5" y="-45.5" font-family="Helvetica,sans-Serif" font-size="10.00">Sml::KeyReleasedEvent</text>
<polyline fill="none" stroke="black" points="134.5,-38.5 258.5,-38.5 "/>
<text text-anchor="middle" x="196.5" y="-26.5" font-family="Helvetica,sans-Serif" font-size="10.00"> </text>
<polyline fill="none" stroke="black" points="134.5,-19.5 258.5,-19.5 "/>
<text text-anchor="start" x="142.5" y="-7.5" font-family="Helvetica,sans-Serif" font-size="10.00">+ KeyReleasedEvent()</text>
</a>
</g>
</g>
<!-- Node2 -->
<g id="node2" class="node">
<title>Node2</title>
<g id="a_node2"><a xlink:href="class_sml_1_1_key_event.html" target="_top" xlink:title=" ">
<polygon fill="white" stroke="black" points="152,-95.5 152,-174.5 241,-174.5 241,-95.5 152,-95.5"/>
<text text-anchor="middle" x="196.5" y="-162.5" font-family="Helvetica,sans-Serif" font-size="10.00">Sml::KeyEvent</text>
<polyline fill="none" stroke="black" points="152,-155.5 241,-155.5 "/>
<text text-anchor="middle" x="196.5" y="-143.5" font-family="Helvetica,sans-Serif" font-size="10.00"> </text>
<polyline fill="none" stroke="black" points="152,-136.5 241,-136.5 "/>
<text text-anchor="start" x="160" y="-124.5" font-family="Helvetica,sans-Serif" font-size="10.00">+ KeyEvent()</text>
<text text-anchor="start" x="160" y="-113.5" font-family="Helvetica,sans-Serif" font-size="10.00">+ setScancode()</text>
<text text-anchor="start" x="160" y="-102.5" font-family="Helvetica,sans-Serif" font-size="10.00">+ getScancode()</text>
</a>
</g>
</g>
<!-- Node2&#45;&gt;Node1 -->
<g id="edge1" class="edge">
<title>Node2&#45;&gt;Node1</title>
<path fill="none" stroke="midnightblue" d="M196.5,-85.16C196.5,-75.74 196.5,-66.17 196.5,-57.72"/>
<polygon fill="none" stroke="midnightblue" points="193,-85.27 196.5,-95.27 200,-85.27 193,-85.27"/>
</g>
<!-- Node3 -->
<g id="node3" class="node">
<title>Node3</title>
<g id="a_node3"><a xlink:href="class_sml_1_1_event.html" target="_top" xlink:title=" ">
<polygon fill="white" stroke="black" points="109,-222.5 109,-334.5 194,-334.5 194,-222.5 109,-222.5"/>
<text text-anchor="middle" x="151.5" y="-322.5" font-family="Helvetica,sans-Serif" font-size="10.00">Sml::Event</text>
<polyline fill="none" stroke="black" points="109,-315.5 194,-315.5 "/>
<text text-anchor="middle" x="151.5" y="-303.5" font-family="Helvetica,sans-Serif" font-size="10.00"> </text>
<polyline fill="none" stroke="black" points="109,-296.5 194,-296.5 "/>
<text text-anchor="start" x="117" y="-284.5" font-family="Helvetica,sans-Serif" font-size="10.00">+ Event()</text>
<text text-anchor="start" x="117" y="-273.5" font-family="Helvetica,sans-Serif" font-size="10.00">+ ~Event()</text>
<text text-anchor="start" x="117" y="-262.5" font-family="Helvetica,sans-Serif" font-size="10.00">+ setType()</text>
<text text-anchor="start" x="117" y="-251.5" font-family="Helvetica,sans-Serif" font-size="10.00">+ setCategory()</text>
<text text-anchor="start" x="117" y="-240.5" font-family="Helvetica,sans-Serif" font-size="10.00">+ getType()</text>
<text text-anchor="start" x="117" y="-229.5" font-family="Helvetica,sans-Serif" font-size="10.00">and 6 more...</text>
</a>
</g>
</g>
<!-- Node3&#45;&gt;Node2 -->
<g id="edge2" class="edge">
<title>Node3&#45;&gt;Node2</title>
<path fill="none" stroke="midnightblue" d="M172.16,-212.54C176.29,-199.55 180.5,-186.3 184.24,-174.56"/>
<polygon fill="none" stroke="midnightblue" points="168.72,-211.8 169.03,-222.39 175.39,-213.92 168.72,-211.8"/>
</g>
<!-- Node4 -->
<g id="node4" class="node">
<title>Node4</title>
<g id="a_node4"><a xlink:title=" ">
<polygon fill="white" stroke="#bfbfbf" points="0,-382.5 0,-439.5 51,-439.5 51,-382.5 0,-382.5"/>
<text text-anchor="middle" x="25.5" y="-427.5" font-family="Helvetica,sans-Serif" font-size="10.00">uint32_t</text>
<polyline fill="none" stroke="#bfbfbf" points="0,-420.5 51,-420.5 "/>
<text text-anchor="middle" x="25.5" y="-408.5" font-family="Helvetica,sans-Serif" font-size="10.00"> </text>
<polyline fill="none" stroke="#bfbfbf" points="0,-401.5 51,-401.5 "/>
<text text-anchor="middle" x="25.5" y="-389.5" font-family="Helvetica,sans-Serif" font-size="10.00"> </text>
</a>
</g>
</g>
<!-- Node4&#45;&gt;Node3 -->
<g id="edge3" class="edge">
<title>Node4&#45;&gt;Node3</title>
<path fill="none" stroke="#404040" d="M45.12,-382.5C52.42,-372.86 60.99,-362.16 69.5,-353 78.86,-342.93 89.43,-332.71 99.8,-323.23"/>
<polygon fill="none" stroke="#404040" points="99.9,-323.14 101.69,-316.15 108.82,-315.11 107.04,-322.09 99.9,-323.14"/>
<text text-anchor="middle" x="91" y="-356" font-family="Helvetica,sans-Serif" font-size="10.00"> #m_Type</text>
</g>
<!-- Node5 -->
<g id="node5" class="node">
<title>Node5</title>
<g id="a_node5"><a xlink:title=" ">
<polygon fill="white" stroke="#bfbfbf" points="69,-382.5 69,-439.5 120,-439.5 120,-382.5 69,-382.5"/>
<text text-anchor="middle" x="94.5" y="-427.5" font-family="Helvetica,sans-Serif" font-size="10.00">uint64_t</text>
<polyline fill="none" stroke="#bfbfbf" points="69,-420.5 120,-420.5 "/>
<text text-anchor="middle" x="94.5" y="-408.5" font-family="Helvetica,sans-Serif" font-size="10.00"> </text>
<polyline fill="none" stroke="#bfbfbf" points="69,-401.5 120,-401.5 "/>
<text text-anchor="middle" x="94.5" y="-389.5" font-family="Helvetica,sans-Serif" font-size="10.00"> </text>
</a>
</g>
</g>
<!-- Node5&#45;&gt;Node3 -->
<g id="edge4" class="edge">
<title>Node5&#45;&gt;Node3</title>
<path fill="none" stroke="#404040" d="M106.59,-382.32C111.29,-371.56 116.89,-358.73 122.52,-345.84"/>
<polygon fill="none" stroke="#404040" points="122.65,-345.55 121.39,-338.45 127.46,-334.55 128.72,-341.65 122.65,-345.55"/>
<text text-anchor="middle" x="149.5" y="-356" font-family="Helvetica,sans-Serif" font-size="10.00"> #m_Category</text>
</g>
<!-- Node6 -->
<g id="node6" class="node">
<title>Node6</title>
<g id="a_node6"><a xlink:href="class_sml_1_1_event_target.html" target="_top" xlink:title=" ">
<polygon fill="white" stroke="black" points="138.5,-382.5 138.5,-439.5 280.5,-439.5 280.5,-382.5 138.5,-382.5"/>
<text text-anchor="middle" x="209.5" y="-427.5" font-family="Helvetica,sans-Serif" font-size="10.00">Sml::EventTarget</text>
<polyline fill="none" stroke="black" points="138.5,-420.5 280.5,-420.5 "/>
<text text-anchor="middle" x="209.5" y="-408.5" font-family="Helvetica,sans-Serif" font-size="10.00"> </text>
<polyline fill="none" stroke="black" points="138.5,-401.5 280.5,-401.5 "/>
<text text-anchor="start" x="146.5" y="-389.5" font-family="Helvetica,sans-Serif" font-size="10.00">+ buildEventDispatchChain()</text>
</a>
</g>
</g>
<!-- Node6&#45;&gt;Node3 -->
<g id="edge5" class="edge">
<title>Node6&#45;&gt;Node3</title>
<path fill="none" stroke="#404040" d="M197.47,-382.44C193.37,-373.08 188.75,-362.58 184.5,-353 183.48,-350.7 182.44,-348.37 181.39,-346.01"/>
<polygon fill="none" stroke="#404040" points="181.31,-345.82 175.21,-341.97 176.42,-334.86 182.52,-338.71 181.31,-345.82"/>
<text text-anchor="middle" x="214" y="-356" font-family="Helvetica,sans-Serif" font-size="10.00"> #m_Target</text>
</g>
<!-- Node7 -->
<g id="node7" class="node">
<title>Node7</title>
<g id="a_node7"><a xlink:title=" ">
<polygon fill="white" stroke="#bfbfbf" points="299,-382.5 299,-439.5 334,-439.5 334,-382.5 299,-382.5"/>
<text text-anchor="middle" x="316.5" y="-427.5" font-family="Helvetica,sans-Serif" font-size="10.00">bool</text>
<polyline fill="none" stroke="#bfbfbf" points="299,-420.5 334,-420.5 "/>
<text text-anchor="middle" x="316.5" y="-408.5" font-family="Helvetica,sans-Serif" font-size="10.00"> </text>
<polyline fill="none" stroke="#bfbfbf" points="299,-401.5 334,-401.5 "/>
<text text-anchor="middle" x="316.5" y="-389.5" font-family="Helvetica,sans-Serif" font-size="10.00"> </text>
</a>
</g>
</g>
<!-- Node7&#45;&gt;Node3 -->
<g id="edge6" class="edge">
<title>Node7&#45;&gt;Node3</title>
<path fill="none" stroke="#404040" d="M298.8,-390.36C295.81,-387.43 292.66,-384.54 289.5,-382 270.39,-366.6 264.13,-364.61 242.5,-353 225.68,-343.97 218.98,-346.17 203.5,-335 203.4,-334.93 203.3,-334.85 203.2,-334.78"/>
<polygon fill="none" stroke="#404040" points="203.4,-334.95 196.22,-334.34 194.02,-327.47 201.2,-328.08 203.4,-334.95"/>
<text text-anchor="middle" x="297.5" y="-356" font-family="Helvetica,sans-Serif" font-size="10.00"> #m_Consumed</text>
</g>
<!-- Node8 -->
<g id="node8" class="node">
<title>Node8</title>
<g id="a_node8"><a xlink:title=" ">
<polygon fill="white" stroke="#bfbfbf" points="212.5,-250 212.5,-307 272.5,-307 272.5,-250 212.5,-250"/>
<text text-anchor="middle" x="242.5" y="-295" font-family="Helvetica,sans-Serif" font-size="10.00">Scancode</text>
<polyline fill="none" stroke="#bfbfbf" points="212.5,-288 272.5,-288 "/>
<text text-anchor="middle" x="242.5" y="-276" font-family="Helvetica,sans-Serif" font-size="10.00"> </text>
<polyline fill="none" stroke="#bfbfbf" points="212.5,-269 272.5,-269 "/>
<text text-anchor="middle" x="242.5" y="-257" font-family="Helvetica,sans-Serif" font-size="10.00"> </text>
</a>
</g>
</g>
<!-- Node8&#45;&gt;Node2 -->
<g id="edge7" class="edge">
<title>Node8&#45;&gt;Node2</title>
<path fill="none" stroke="#404040" d="M233.52,-249.88C227.63,-231.76 219.76,-207.54 212.79,-186.09"/>
<polygon fill="none" stroke="#404040" points="212.73,-185.93 207.07,-181.46 209.02,-174.52 214.68,-178.99 212.73,-185.93"/>
<text text-anchor="middle" x="250.5" y="-196" font-family="Helvetica,sans-Serif" font-size="10.00"> #m_Scancode</text>
</g>
</g>
</svg>
