<?xml version="1.0" encoding="UTF-8" standalone="no"?>
<!DOCTYPE svg PUBLIC "-//W3C//DTD SVG 1.1//EN"
 "http://www.w3.org/Graphics/SVG/1.1/DTD/svg11.dtd">
<!-- Generated by graphviz version 2.50.0 (20211204.2007)
 -->
<!-- Title: Sml::ObservableProperty&lt; T &gt; Pages: 1 -->
<svg width="158pt" height="299pt"
 viewBox="0.00 0.00 158.00 299.00" xmlns="http://www.w3.org/2000/svg" xmlns:xlink="http://www.w3.org/1999/xlink">
<g id="graph0" class="graph" transform="scale(1 1) rotate(0) translate(4 295)">
<title>Sml::ObservableProperty&lt; T &gt;</title>
<polygon fill="white" stroke="transparent" points="-4,4 -4,-295 154,-295 154,4 -4,4"/>
<!-- Node1 -->
<g id="node1" class="node">
<title>Node1</title>
<g id="a_node1"><a xlink:title=" ">
<polygon fill="#bfbfbf" stroke="black" points="0,-0.5 0,-57.5 150,-57.5 150,-0.5 0,-0.5"/>
<text text-anchor="middle" x="75" y="-45.5" font-family="Helvetica,sans-Serif" font-size="10.00">Sml::ObservableProperty&lt; T &gt;</text>
<polyline fill="none" stroke="black" points="0,-38.5 150,-38.5 "/>
<text text-anchor="middle" x="75" y="-26.5" font-family="Helvetica,sans-Serif" font-size="10.00"> </text>
<polyline fill="none" stroke="black" points="0,-19.5 150,-19.5 "/>
<text text-anchor="middle" x="75" y="-7.5" font-family="Helvetica,sans-Serif" font-size="10.00"> </text>
</a>
</g>
</g>
<!-- Node2 -->
<g id="node2" class="node">
<title>Node2</title>
<g id="a_node2"><a xlink:href="class_sml_1_1_notifier.html" target="_top" xlink:title=" ">
<polygon fill="white" stroke="black" points="27.5,-95.5 27.5,-185.5 122.5,-185.5 122.5,-95.5 27.5,-95.5"/>
<text text-anchor="middle" x="75" y="-173.5" font-family="Helvetica,sans-Serif" font-size="10.00">Sml::Notifier</text>
<polyline fill="none" stroke="black" points="27.5,-166.5 122.5,-166.5 "/>
<text text-anchor="middle" x="75" y="-154.5" font-family="Helvetica,sans-Serif" font-size="10.00"> </text>
<polyline fill="none" stroke="black" points="27.5,-147.5 122.5,-147.5 "/>
<text text-anchor="start" x="35.5" y="-135.5" font-family="Helvetica,sans-Serif" font-size="10.00">+ ~Notifier()</text>
<text text-anchor="start" x="35.5" y="-124.5" font-family="Helvetica,sans-Serif" font-size="10.00">+ attachListener()</text>
<text text-anchor="start" x="35.5" y="-113.5" font-family="Helvetica,sans-Serif" font-size="10.00">+ detachListener()</text>
<text text-anchor="start" x="35.5" y="-102.5" font-family="Helvetica,sans-Serif" font-size="10.00">+ notify()</text>
</a>
</g>
</g>
<!-- Node2&#45;&gt;Node1 -->
<g id="edge1" class="edge">
<title>Node2&#45;&gt;Node1</title>
<path fill="none" stroke="darkgreen" d="M75,-85.04C75,-75.56 75,-66.06 75,-57.69"/>
<polygon fill="none" stroke="darkgreen" points="71.5,-85.28 75,-95.28 78.5,-85.28 71.5,-85.28"/>
</g>
<!-- Node3 -->
<g id="node3" class="node">
<title>Node3</title>
<g id="a_node3"><a xlink:title=" ">
<polygon fill="white" stroke="#bfbfbf" points="30.5,-233.5 30.5,-290.5 119.5,-290.5 119.5,-233.5 30.5,-233.5"/>
<text text-anchor="middle" x="75" y="-278.5" font-family="Helvetica,sans-Serif" font-size="10.00">unordered_map&lt;</text>
<polyline fill="none" stroke="#bfbfbf" points="30.5,-271.5 119.5,-271.5 "/>
<text text-anchor="middle" x="75" y="-259.5" font-family="Helvetica,sans-Serif" font-size="10.00"> </text>
<polyline fill="none" stroke="#bfbfbf" points="30.5,-252.5 119.5,-252.5 "/>
<text text-anchor="middle" x="75" y="-240.5" font-family="Helvetica,sans-Serif" font-size="10.00"> </text>
</a>
</g>
</g>
<!-- Node3&#45;&gt;Node2 -->
<g id="edge2" class="edge">
<title>Node3&#45;&gt;Node2</title>
<path fill="none" stroke="#404040" d="M75,-233.28C75,-222.73 75,-210.29 75,-198.03"/>
<polygon fill="none" stroke="#404040" points="75,-197.91 71,-191.91 75,-185.91 79,-191.91 75,-197.91"/>
<text text-anchor="middle" x="106" y="-207" font-family="Helvetica,sans-Serif" font-size="10.00"> #m_Listeners</text>
</g>
</g>
</svg>
