<?xml version="1.0" encoding="UTF-8" standalone="no"?>
<!DOCTYPE svg PUBLIC "-//W3C//DTD SVG 1.1//EN"
 "http://www.w3.org/Graphics/SVG/1.1/DTD/svg11.dtd">
<!-- Generated by graphviz version 2.50.0 (20211204.2007)
 -->
<!-- Title: Sml::Event Pages: 1 -->
<svg width="708pt" height="535pt"
 viewBox="0.00 0.00 707.50 535.00" xmlns="http://www.w3.org/2000/svg" xmlns:xlink="http://www.w3.org/1999/xlink">
<g id="graph0" class="graph" transform="scale(1 1) rotate(0) translate(4 531)">
<title>Sml::Event</title>
<polygon fill="white" stroke="transparent" points="-4,4 -4,-531 703.5,-531 703.5,4 -4,4"/>
<!-- Node1 -->
<g id="node1" class="node">
<title>Node1</title>
<g id="a_node1"><a xlink:title=" ">
<polygon fill="#bfbfbf" stroke="black" points="371.5,-381.5 371.5,-526.5 457.5,-526.5 457.5,-381.5 371.5,-381.5"/>
<text text-anchor="middle" x="414.5" y="-514.5" font-family="Helvetica,sans-Serif" font-size="10.00">Sml::Event</text>
<polyline fill="none" stroke="black" points="371.5,-507.5 457.5,-507.5 "/>
<text text-anchor="start" x="379.5" y="-495.5" font-family="Helvetica,sans-Serif" font-size="10.00"># m_Type</text>
<text text-anchor="start" x="379.5" y="-484.5" font-family="Helvetica,sans-Serif" font-size="10.00"># m_Category</text>
<text text-anchor="start" x="379.5" y="-473.5" font-family="Helvetica,sans-Serif" font-size="10.00"># m_Target</text>
<text text-anchor="start" x="379.5" y="-462.5" font-family="Helvetica,sans-Serif" font-size="10.00"># m_Consumed</text>
<polyline fill="none" stroke="black" points="371.5,-455.5 457.5,-455.5 "/>
<text text-anchor="start" x="379.5" y="-443.5" font-family="Helvetica,sans-Serif" font-size="10.00">+ Event()</text>
<text text-anchor="start" x="379.5" y="-432.5" font-family="Helvetica,sans-Serif" font-size="10.00">+ ~Event()</text>
<text text-anchor="start" x="379.5" y="-421.5" font-family="Helvetica,sans-Serif" font-size="10.00">+ setType()</text>
<text text-anchor="start" x="379.5" y="-410.5" font-family="Helvetica,sans-Serif" font-size="10.00">+ setCategory()</text>
<text text-anchor="start" x="379.5" y="-399.5" font-family="Helvetica,sans-Serif" font-size="10.00">+ getType()</text>
<text text-anchor="start" x="379.5" y="-388.5" font-family="Helvetica,sans-Serif" font-size="10.00">and 6 more...</text>
</a>
</g>
</g>
<!-- Node2 -->
<g id="node2" class="node">
<title>Node2</title>
<g id="a_node2"><a xlink:href="class_sml_1_1_key_event.html" target="_top" xlink:title=" ">
<polygon fill="white" stroke="black" points="155,-249 155,-328 244,-328 244,-249 155,-249"/>
<text text-anchor="middle" x="199.5" y="-316" font-family="Helvetica,sans-Serif" font-size="10.00">Sml::KeyEvent</text>
<polyline fill="none" stroke="black" points="155,-309 244,-309 "/>
<text text-anchor="start" x="163" y="-297" font-family="Helvetica,sans-Serif" font-size="10.00"># m_Scancode</text>
<polyline fill="none" stroke="black" points="155,-290 244,-290 "/>
<text text-anchor="start" x="163" y="-278" font-family="Helvetica,sans-Serif" font-size="10.00">+ KeyEvent()</text>
<text text-anchor="start" x="163" y="-267" font-family="Helvetica,sans-Serif" font-size="10.00">+ setScancode()</text>
<text text-anchor="start" x="163" y="-256" font-family="Helvetica,sans-Serif" font-size="10.00">+ getScancode()</text>
</a>
</g>
</g>
<!-- Node1&#45;&gt;Node2 -->
<g id="edge1" class="edge">
<title>Node1&#45;&gt;Node2</title>
<path fill="none" stroke="midnightblue" d="M363.24,-414.02C326.98,-386.45 278.85,-349.84 244.16,-323.46"/>
<polygon fill="none" stroke="midnightblue" points="361.17,-416.84 371.25,-420.11 365.41,-411.27 361.17,-416.84"/>
</g>
<!-- Node5 -->
<g id="node5" class="node">
<title>Node5</title>
<g id="a_node5"><a xlink:href="class_sml_1_1_mouse_event.html" target="_top" xlink:title=" ">
<polygon fill="white" stroke="black" points="294,-232.5 294,-344.5 389,-344.5 389,-232.5 294,-232.5"/>
<text text-anchor="middle" x="341.5" y="-332.5" font-family="Helvetica,sans-Serif" font-size="10.00">Sml::MouseEvent</text>
<polyline fill="none" stroke="black" points="294,-325.5 389,-325.5 "/>
<text text-anchor="start" x="302" y="-313.5" font-family="Helvetica,sans-Serif" font-size="10.00"># m_X</text>
<text text-anchor="start" x="302" y="-302.5" font-family="Helvetica,sans-Serif" font-size="10.00"># m_Y</text>
<polyline fill="none" stroke="black" points="294,-295.5 389,-295.5 "/>
<text text-anchor="start" x="302" y="-283.5" font-family="Helvetica,sans-Serif" font-size="10.00">+ MouseEvent()</text>
<text text-anchor="start" x="302" y="-272.5" font-family="Helvetica,sans-Serif" font-size="10.00">+ setX()</text>
<text text-anchor="start" x="302" y="-261.5" font-family="Helvetica,sans-Serif" font-size="10.00">+ setY()</text>
<text text-anchor="start" x="302" y="-250.5" font-family="Helvetica,sans-Serif" font-size="10.00">+ getX()</text>
<text text-anchor="start" x="302" y="-239.5" font-family="Helvetica,sans-Serif" font-size="10.00">+ getY()</text>
</a>
</g>
</g>
<!-- Node1&#45;&gt;Node5 -->
<g id="edge4" class="edge">
<title>Node1&#45;&gt;Node5</title>
<path fill="none" stroke="midnightblue" d="M378.38,-372.11C374.28,-362.91 370.16,-353.7 366.25,-344.93"/>
<polygon fill="none" stroke="midnightblue" points="375.21,-373.58 382.48,-381.29 381.6,-370.73 375.21,-373.58"/>
</g>
<!-- Node10 -->
<g id="node10" class="node">
<title>Node10</title>
<g id="a_node10"><a xlink:href="class_sml_1_1_property_change_event.html" target="_top" xlink:title=" ">
<polygon fill="white" stroke="black" points="407.5,-249 407.5,-328 567.5,-328 567.5,-249 407.5,-249"/>
<text text-anchor="middle" x="487.5" y="-316" font-family="Helvetica,sans-Serif" font-size="10.00">Sml::PropertyChangeEvent&lt; T &gt;</text>
<polyline fill="none" stroke="black" points="407.5,-309 567.5,-309 "/>
<text text-anchor="middle" x="487.5" y="-297" font-family="Helvetica,sans-Serif" font-size="10.00"> </text>
<polyline fill="none" stroke="black" points="407.5,-290 567.5,-290 "/>
<text text-anchor="start" x="415.5" y="-278" font-family="Helvetica,sans-Serif" font-size="10.00">+ PropertyChangeEvent()</text>
<text text-anchor="start" x="415.5" y="-267" font-family="Helvetica,sans-Serif" font-size="10.00">+ getOldValue()</text>
<text text-anchor="start" x="415.5" y="-256" font-family="Helvetica,sans-Serif" font-size="10.00">+ getNewValue()</text>
</a>
</g>
</g>
<!-- Node1&#45;&gt;Node10 -->
<g id="edge9" class="edge">
<title>Node1&#45;&gt;Node10</title>
<path fill="none" stroke="midnightblue" d="M450.72,-371.87C457.5,-356.7 464.28,-341.51 470.14,-328.37"/>
<polygon fill="none" stroke="midnightblue" points="447.4,-370.73 446.52,-381.29 453.79,-373.58 447.4,-370.73"/>
</g>
<!-- Node11 -->
<g id="node11" class="node">
<title>Node11</title>
<g id="a_node11"><a xlink:href="class_sml_1_1_window_event.html" target="_top" xlink:title=" ">
<polygon fill="white" stroke="black" points="586,-260 586,-317 687,-317 687,-260 586,-260"/>
<text text-anchor="middle" x="636.5" y="-305" font-family="Helvetica,sans-Serif" font-size="10.00">Sml::WindowEvent</text>
<polyline fill="none" stroke="black" points="586,-298 687,-298 "/>
<text text-anchor="middle" x="636.5" y="-286" font-family="Helvetica,sans-Serif" font-size="10.00"> </text>
<polyline fill="none" stroke="black" points="586,-279 687,-279 "/>
<text text-anchor="start" x="594" y="-267" font-family="Helvetica,sans-Serif" font-size="10.00">+ WindowEvent()</text>
</a>
</g>
</g>
<!-- Node1&#45;&gt;Node11 -->
<g id="edge10" class="edge">
<title>Node1&#45;&gt;Node11</title>
<path fill="none" stroke="midnightblue" d="M466.22,-421.48C498.77,-400.93 541.16,-372.84 576.5,-345 587.31,-336.48 598.54,-326.45 608.33,-317.28"/>
<polygon fill="none" stroke="midnightblue" points="464.35,-418.52 457.74,-426.8 468.07,-424.45 464.35,-418.52"/>
</g>
<!-- Node3 -->
<g id="node3" class="node">
<title>Node3</title>
<g id="a_node3"><a xlink:href="class_sml_1_1_key_pressed_event.html" target="_top" xlink:title=" ">
<polygon fill="white" stroke="black" points="0,-116.5 0,-173.5 119,-173.5 119,-116.5 0,-116.5"/>
<text text-anchor="middle" x="59.5" y="-161.5" font-family="Helvetica,sans-Serif" font-size="10.00">Sml::KeyPressedEvent</text>
<polyline fill="none" stroke="black" points="0,-154.5 119,-154.5 "/>
<text text-anchor="middle" x="59.5" y="-142.5" font-family="Helvetica,sans-Serif" font-size="10.00"> </text>
<polyline fill="none" stroke="black" points="0,-135.5 119,-135.5 "/>
<text text-anchor="start" x="8" y="-123.5" font-family="Helvetica,sans-Serif" font-size="10.00">+ KeyPressedEvent()</text>
</a>
</g>
</g>
<!-- Node2&#45;&gt;Node3 -->
<g id="edge2" class="edge">
<title>Node2&#45;&gt;Node3</title>
<path fill="none" stroke="midnightblue" d="M154.21,-241.72C132.08,-219.36 106.17,-193.17 87.06,-173.85"/>
<polygon fill="none" stroke="midnightblue" points="151.72,-244.19 161.24,-248.83 156.7,-239.26 151.72,-244.19"/>
</g>
<!-- Node4 -->
<g id="node4" class="node">
<title>Node4</title>
<g id="a_node4"><a xlink:href="class_sml_1_1_key_released_event.html" target="_top" xlink:title=" ">
<polygon fill="white" stroke="black" points="137.5,-116.5 137.5,-173.5 261.5,-173.5 261.5,-116.5 137.5,-116.5"/>
<text text-anchor="middle" x="199.5" y="-161.5" font-family="Helvetica,sans-Serif" font-size="10.00">Sml::KeyReleasedEvent</text>
<polyline fill="none" stroke="black" points="137.5,-154.5 261.5,-154.5 "/>
<text text-anchor="middle" x="199.5" y="-142.5" font-family="Helvetica,sans-Serif" font-size="10.00"> </text>
<polyline fill="none" stroke="black" points="137.5,-135.5 261.5,-135.5 "/>
<text text-anchor="start" x="145.5" y="-123.5" font-family="Helvetica,sans-Serif" font-size="10.00">+ KeyReleasedEvent()</text>
</a>
</g>
</g>
<!-- Node2&#45;&gt;Node4 -->
<g id="edge3" class="edge">
<title>Node2&#45;&gt;Node4</title>
<path fill="none" stroke="midnightblue" d="M199.5,-238.8C199.5,-217.1 199.5,-192.34 199.5,-173.85"/>
<polygon fill="none" stroke="midnightblue" points="196,-238.83 199.5,-248.83 203,-238.83 196,-238.83"/>
</g>
<!-- Node6 -->
<g id="node6" class="node">
<title>Node6</title>
<g id="a_node6"><a xlink:href="class_sml_1_1_mouse_button_event.html" target="_top" xlink:title=" ">
<polygon fill="white" stroke="black" points="280,-116.5 280,-173.5 403,-173.5 403,-116.5 280,-116.5"/>
<text text-anchor="middle" x="341.5" y="-161.5" font-family="Helvetica,sans-Serif" font-size="10.00">Sml::MouseButtonEvent</text>
<polyline fill="none" stroke="black" points="280,-154.5 403,-154.5 "/>
<text text-anchor="start" x="288" y="-142.5" font-family="Helvetica,sans-Serif" font-size="10.00"># m_Button</text>
<polyline fill="none" stroke="black" points="280,-135.5 403,-135.5 "/>
<text text-anchor="start" x="288" y="-123.5" font-family="Helvetica,sans-Serif" font-size="10.00">+ MouseButtonEvent()</text>
</a>
</g>
</g>
<!-- Node5&#45;&gt;Node6 -->
<g id="edge5" class="edge">
<title>Node5&#45;&gt;Node6</title>
<path fill="none" stroke="midnightblue" d="M341.5,-222.34C341.5,-205.15 341.5,-187.5 341.5,-173.52"/>
<polygon fill="none" stroke="midnightblue" points="338,-222.39 341.5,-232.39 345,-222.39 338,-222.39"/>
</g>
<!-- Node9 -->
<g id="node9" class="node">
<title>Node9</title>
<g id="a_node9"><a xlink:href="class_sml_1_1_mouse_moved_event.html" target="_top" xlink:title=" ">
<polygon fill="white" stroke="black" points="421.5,-94.5 421.5,-195.5 545.5,-195.5 545.5,-94.5 421.5,-94.5"/>
<text text-anchor="middle" x="483.5" y="-183.5" font-family="Helvetica,sans-Serif" font-size="10.00">Sml::MouseMovedEvent</text>
<polyline fill="none" stroke="black" points="421.5,-176.5 545.5,-176.5 "/>
<text text-anchor="middle" x="483.5" y="-164.5" font-family="Helvetica,sans-Serif" font-size="10.00"> </text>
<polyline fill="none" stroke="black" points="421.5,-157.5 545.5,-157.5 "/>
<text text-anchor="start" x="429.5" y="-145.5" font-family="Helvetica,sans-Serif" font-size="10.00">+ MouseMovedEvent()</text>
<text text-anchor="start" x="429.5" y="-134.5" font-family="Helvetica,sans-Serif" font-size="10.00">+ setDeltaX()</text>
<text text-anchor="start" x="429.5" y="-123.5" font-family="Helvetica,sans-Serif" font-size="10.00">+ setDeltaY()</text>
<text text-anchor="start" x="429.5" y="-112.5" font-family="Helvetica,sans-Serif" font-size="10.00">+ getDeltaX()</text>
<text text-anchor="start" x="429.5" y="-101.5" font-family="Helvetica,sans-Serif" font-size="10.00">+ getDeltaY()</text>
</a>
</g>
</g>
<!-- Node5&#45;&gt;Node9 -->
<g id="edge8" class="edge">
<title>Node5&#45;&gt;Node9</title>
<path fill="none" stroke="midnightblue" d="M396.34,-232.85C408.66,-220.58 421.66,-207.62 433.76,-195.56"/>
<polygon fill="none" stroke="midnightblue" points="393.79,-230.45 389.18,-239.99 398.73,-235.41 393.79,-230.45"/>
</g>
<!-- Node7 -->
<g id="node7" class="node">
<title>Node7</title>
<g id="a_node7"><a xlink:href="class_sml_1_1_mouse_button_pressed_event.html" target="_top" xlink:title=" ">
<polygon fill="white" stroke="black" points="172,-0.5 172,-57.5 331,-57.5 331,-0.5 172,-0.5"/>
<text text-anchor="middle" x="251.5" y="-45.5" font-family="Helvetica,sans-Serif" font-size="10.00">Sml::MouseButtonPressedEvent</text>
<polyline fill="none" stroke="black" points="172,-38.5 331,-38.5 "/>
<text text-anchor="middle" x="251.5" y="-26.5" font-family="Helvetica,sans-Serif" font-size="10.00"> </text>
<polyline fill="none" stroke="black" points="172,-19.5 331,-19.5 "/>
<text text-anchor="start" x="180" y="-7.5" font-family="Helvetica,sans-Serif" font-size="10.00">+ MouseButtonPressedEvent()</text>
</a>
</g>
</g>
<!-- Node6&#45;&gt;Node7 -->
<g id="edge6" class="edge">
<title>Node6&#45;&gt;Node7</title>
<path fill="none" stroke="midnightblue" d="M313.21,-108.17C300.35,-91.88 285.38,-72.91 273.4,-57.74"/>
<polygon fill="none" stroke="midnightblue" points="310.77,-110.72 319.71,-116.4 316.26,-106.39 310.77,-110.72"/>
</g>
<!-- Node8 -->
<g id="node8" class="node">
<title>Node8</title>
<g id="a_node8"><a xlink:href="class_sml_1_1_mouse_button_released_event.html" target="_top" xlink:title=" ">
<polygon fill="white" stroke="black" points="349.5,-0.5 349.5,-57.5 513.5,-57.5 513.5,-0.5 349.5,-0.5"/>
<text text-anchor="middle" x="431.5" y="-45.5" font-family="Helvetica,sans-Serif" font-size="10.00">Sml::MouseButtonReleasedEvent</text>
<polyline fill="none" stroke="black" points="349.5,-38.5 513.5,-38.5 "/>
<text text-anchor="middle" x="431.5" y="-26.5" font-family="Helvetica,sans-Serif" font-size="10.00"> </text>
<polyline fill="none" stroke="black" points="349.5,-19.5 513.5,-19.5 "/>
<text text-anchor="start" x="357.5" y="-7.5" font-family="Helvetica,sans-Serif" font-size="10.00">+ MouseButtonReleasedEvent()</text>
</a>
</g>
</g>
<!-- Node6&#45;&gt;Node8 -->
<g id="edge7" class="edge">
<title>Node6&#45;&gt;Node8</title>
<path fill="none" stroke="midnightblue" d="M369.79,-108.17C382.65,-91.88 397.62,-72.91 409.6,-57.74"/>
<polygon fill="none" stroke="midnightblue" points="366.74,-106.39 363.29,-116.4 372.23,-110.72 366.74,-106.39"/>
</g>
<!-- Node12 -->
<g id="node12" class="node">
<title>Node12</title>
<g id="a_node12"><a xlink:href="class_sml_1_1_window_close_event.html" target="_top" xlink:title=" ">
<polygon fill="white" stroke="black" points="573.5,-116.5 573.5,-173.5 699.5,-173.5 699.5,-116.5 573.5,-116.5"/>
<text text-anchor="middle" x="636.5" y="-161.5" font-family="Helvetica,sans-Serif" font-size="10.00">Sml::WindowCloseEvent</text>
<polyline fill="none" stroke="black" points="573.5,-154.5 699.5,-154.5 "/>
<text text-anchor="middle" x="636.5" y="-142.5" font-family="Helvetica,sans-Serif" font-size="10.00"> </text>
<polyline fill="none" stroke="black" points="573.5,-135.5 699.5,-135.5 "/>
<text text-anchor="start" x="581.5" y="-123.5" font-family="Helvetica,sans-Serif" font-size="10.00">+ WindowCloseEvent()</text>
</a>
</g>
</g>
<!-- Node11&#45;&gt;Node12 -->
<g id="edge11" class="edge">
<title>Node11&#45;&gt;Node12</title>
<path fill="none" stroke="midnightblue" d="M636.5,-249.71C636.5,-225.73 636.5,-195.25 636.5,-173.55"/>
<polygon fill="none" stroke="midnightblue" points="633,-249.88 636.5,-259.88 640,-249.88 633,-249.88"/>
</g>
</g>
</svg>
