<?xml version="1.0" encoding="UTF-8" standalone="no"?>
<!DOCTYPE svg PUBLIC "-//W3C//DTD SVG 1.1//EN"
 "http://www.w3.org/Graphics/SVG/1.1/DTD/svg11.dtd">
<!-- Generated by graphviz version 2.50.0 (20211204.2007)
 -->
<!-- Title: Sml::MouseButtonPressedEvent Pages: 1 -->
<svg width="167pt" height="491pt"
 viewBox="0.00 0.00 167.00 491.00" xmlns="http://www.w3.org/2000/svg" xmlns:xlink="http://www.w3.org/1999/xlink">
<g id="graph0" class="graph" transform="scale(1 1) rotate(0) translate(4 487)">
<title>Sml::MouseButtonPressedEvent</title>
<polygon fill="white" stroke="transparent" points="-4,4 -4,-487 163,-487 163,4 -4,4"/>
<!-- Node1 -->
<g id="node1" class="node">
<title>Node1</title>
<g id="a_node1"><a xlink:title=" ">
<polygon fill="#bfbfbf" stroke="black" points="0,-0.5 0,-57.5 159,-57.5 159,-0.5 0,-0.5"/>
<text text-anchor="middle" x="79.5" y="-45.5" font-family="Helvetica,sans-Serif" font-size="10.00">Sml::MouseButtonPressedEvent</text>
<polyline fill="none" stroke="black" points="0,-38.5 159,-38.5 "/>
<text text-anchor="middle" x="79.5" y="-26.5" font-family="Helvetica,sans-Serif" font-size="10.00"> </text>
<polyline fill="none" stroke="black" points="0,-19.5 159,-19.5 "/>
<text text-anchor="start" x="8" y="-7.5" font-family="Helvetica,sans-Serif" font-size="10.00">+ MouseButtonPressedEvent()</text>
</a>
</g>
</g>
<!-- Node2 -->
<g id="node2" class="node">
<title>Node2</title>
<g id="a_node2"><a xlink:href="class_sml_1_1_mouse_button_event.html" target="_top" xlink:title=" ">
<polygon fill="white" stroke="black" points="18,-94.5 18,-151.5 141,-151.5 141,-94.5 18,-94.5"/>
<text text-anchor="middle" x="79.5" y="-139.5" font-family="Helvetica,sans-Serif" font-size="10.00">Sml::MouseButtonEvent</text>
<polyline fill="none" stroke="black" points="18,-132.5 141,-132.5 "/>
<text text-anchor="start" x="26" y="-120.5" font-family="Helvetica,sans-Serif" font-size="10.00"># m_Button</text>
<polyline fill="none" stroke="black" points="18,-113.5 141,-113.5 "/>
<text text-anchor="start" x="26" y="-101.5" font-family="Helvetica,sans-Serif" font-size="10.00">+ MouseButtonEvent()</text>
</a>
</g>
</g>
<!-- Node2&#45;&gt;Node1 -->
<g id="edge1" class="edge">
<title>Node2&#45;&gt;Node1</title>
<path fill="none" stroke="midnightblue" d="M79.5,-84.21C79.5,-75.29 79.5,-65.95 79.5,-57.58"/>
<polygon fill="none" stroke="midnightblue" points="76,-84.4 79.5,-94.4 83,-84.4 76,-84.4"/>
</g>
<!-- Node3 -->
<g id="node3" class="node">
<title>Node3</title>
<g id="a_node3"><a xlink:href="class_sml_1_1_mouse_event.html" target="_top" xlink:title=" ">
<polygon fill="white" stroke="black" points="32,-188.5 32,-300.5 127,-300.5 127,-188.5 32,-188.5"/>
<text text-anchor="middle" x="79.5" y="-288.5" font-family="Helvetica,sans-Serif" font-size="10.00">Sml::MouseEvent</text>
<polyline fill="none" stroke="black" points="32,-281.5 127,-281.5 "/>
<text text-anchor="start" x="40" y="-269.5" font-family="Helvetica,sans-Serif" font-size="10.00"># m_X</text>
<text text-anchor="start" x="40" y="-258.5" font-family="Helvetica,sans-Serif" font-size="10.00"># m_Y</text>
<polyline fill="none" stroke="black" points="32,-251.5 127,-251.5 "/>
<text text-anchor="start" x="40" y="-239.5" font-family="Helvetica,sans-Serif" font-size="10.00">+ MouseEvent()</text>
<text text-anchor="start" x="40" y="-228.5" font-family="Helvetica,sans-Serif" font-size="10.00">+ setX()</text>
<text text-anchor="start" x="40" y="-217.5" font-family="Helvetica,sans-Serif" font-size="10.00">+ setY()</text>
<text text-anchor="start" x="40" y="-206.5" font-family="Helvetica,sans-Serif" font-size="10.00">+ getX()</text>
<text text-anchor="start" x="40" y="-195.5" font-family="Helvetica,sans-Serif" font-size="10.00">+ getY()</text>
</a>
</g>
</g>
<!-- Node3&#45;&gt;Node2 -->
<g id="edge2" class="edge">
<title>Node3&#45;&gt;Node2</title>
<path fill="none" stroke="midnightblue" d="M79.5,-178.15C79.5,-168.82 79.5,-159.67 79.5,-151.63"/>
<polygon fill="none" stroke="midnightblue" points="76,-178.3 79.5,-188.3 83,-178.3 76,-178.3"/>
</g>
<!-- Node4 -->
<g id="node4" class="node">
<title>Node4</title>
<g id="a_node4"><a xlink:href="class_sml_1_1_event.html" target="_top" xlink:title=" ">
<polygon fill="white" stroke="black" points="36.5,-337.5 36.5,-482.5 122.5,-482.5 122.5,-337.5 36.5,-337.5"/>
<text text-anchor="middle" x="79.5" y="-470.5" font-family="Helvetica,sans-Serif" font-size="10.00">Sml::Event</text>
<polyline fill="none" stroke="black" points="36.5,-463.5 122.5,-463.5 "/>
<text text-anchor="start" x="44.5" y="-451.5" font-family="Helvetica,sans-Serif" font-size="10.00"># m_Type</text>
<text text-anchor="start" x="44.5" y="-440.5" font-family="Helvetica,sans-Serif" font-size="10.00"># m_Category</text>
<text text-anchor="start" x="44.5" y="-429.5" font-family="Helvetica,sans-Serif" font-size="10.00"># m_Target</text>
<text text-anchor="start" x="44.5" y="-418.5" font-family="Helvetica,sans-Serif" font-size="10.00"># m_Consumed</text>
<polyline fill="none" stroke="black" points="36.5,-411.5 122.5,-411.5 "/>
<text text-anchor="start" x="44.5" y="-399.5" font-family="Helvetica,sans-Serif" font-size="10.00">+ Event()</text>
<text text-anchor="start" x="44.5" y="-388.5" font-family="Helvetica,sans-Serif" font-size="10.00">+ ~Event()</text>
<text text-anchor="start" x="44.5" y="-377.5" font-family="Helvetica,sans-Serif" font-size="10.00">+ setType()</text>
<text text-anchor="start" x="44.5" y="-366.5" font-family="Helvetica,sans-Serif" font-size="10.00">+ setCategory()</text>
<text text-anchor="start" x="44.5" y="-355.5" font-family="Helvetica,sans-Serif" font-size="10.00">+ getType()</text>
<text text-anchor="start" x="44.5" y="-344.5" font-family="Helvetica,sans-Serif" font-size="10.00">and 6 more...</text>
</a>
</g>
</g>
<!-- Node4&#45;&gt;Node3 -->
<g id="edge3" class="edge">
<title>Node4&#45;&gt;Node3</title>
<path fill="none" stroke="midnightblue" d="M79.5,-327.25C79.5,-318.33 79.5,-309.42 79.5,-300.93"/>
<polygon fill="none" stroke="midnightblue" points="76,-327.29 79.5,-337.29 83,-327.29 76,-327.29"/>
</g>
</g>
</svg>
