<?xml version="1.0" encoding="UTF-8" standalone="no"?>
<!DOCTYPE svg PUBLIC "-//W3C//DTD SVG 1.1//EN"
 "http://www.w3.org/Graphics/SVG/1.1/DTD/svg11.dtd">
<!-- Generated by graphviz version 2.50.0 (20211204.2007)
 -->
<!-- Title: Sml::SystemEventManager Pages: 1 -->
<svg width="145pt" height="310pt"
 viewBox="0.00 0.00 145.00 310.00" xmlns="http://www.w3.org/2000/svg" xmlns:xlink="http://www.w3.org/1999/xlink">
<g id="graph0" class="graph" transform="scale(1 1) rotate(0) translate(4 306)">
<title>Sml::SystemEventManager</title>
<polygon fill="white" stroke="transparent" points="-4,4 -4,-306 141,-306 141,4 -4,4"/>
<!-- Node1 -->
<g id="node1" class="node">
<title>Node1</title>
<g id="a_node1"><a xlink:title=" ">
<polygon fill="#bfbfbf" stroke="black" points="0,-0.5 0,-68.5 137,-68.5 137,-0.5 0,-0.5"/>
<text text-anchor="middle" x="68.5" y="-56.5" font-family="Helvetica,sans-Serif" font-size="10.00">Sml::SystemEventManager</text>
<polyline fill="none" stroke="black" points="0,-49.5 137,-49.5 "/>
<text text-anchor="middle" x="68.5" y="-37.5" font-family="Helvetica,sans-Serif" font-size="10.00"> </text>
<polyline fill="none" stroke="black" points="0,-30.5 137,-30.5 "/>
<text text-anchor="start" x="8" y="-18.5" font-family="Helvetica,sans-Serif" font-size="10.00">+ proccessEvents()</text>
<text text-anchor="start" x="8" y="-7.5" font-family="Helvetica,sans-Serif" font-size="10.00">+ pollEvent()</text>
</a>
</g>
</g>
<!-- Node2 -->
<g id="node2" class="node">
<title>Node2</title>
<g id="a_node2"><a xlink:href="class_sml_1_1_notifier.html" target="_top" xlink:title=" ">
<polygon fill="white" stroke="black" points="21,-106.5 21,-196.5 116,-196.5 116,-106.5 21,-106.5"/>
<text text-anchor="middle" x="68.5" y="-184.5" font-family="Helvetica,sans-Serif" font-size="10.00">Sml::Notifier</text>
<polyline fill="none" stroke="black" points="21,-177.5 116,-177.5 "/>
<text text-anchor="middle" x="68.5" y="-165.5" font-family="Helvetica,sans-Serif" font-size="10.00"> </text>
<polyline fill="none" stroke="black" points="21,-158.5 116,-158.5 "/>
<text text-anchor="start" x="29" y="-146.5" font-family="Helvetica,sans-Serif" font-size="10.00">+ ~Notifier()</text>
<text text-anchor="start" x="29" y="-135.5" font-family="Helvetica,sans-Serif" font-size="10.00">+ attachListener()</text>
<text text-anchor="start" x="29" y="-124.5" font-family="Helvetica,sans-Serif" font-size="10.00">+ detachListener()</text>
<text text-anchor="start" x="29" y="-113.5" font-family="Helvetica,sans-Serif" font-size="10.00">+ notify()</text>
</a>
</g>
</g>
<!-- Node2&#45;&gt;Node1 -->
<g id="edge1" class="edge">
<title>Node2&#45;&gt;Node1</title>
<path fill="none" stroke="midnightblue" d="M68.5,-96.23C68.5,-86.8 68.5,-77.26 68.5,-68.62"/>
<polygon fill="none" stroke="midnightblue" points="65,-96.37 68.5,-106.37 72,-96.37 65,-96.37"/>
</g>
<!-- Node3 -->
<g id="node3" class="node">
<title>Node3</title>
<g id="a_node3"><a xlink:title=" ">
<polygon fill="white" stroke="#bfbfbf" points="24,-244.5 24,-301.5 113,-301.5 113,-244.5 24,-244.5"/>
<text text-anchor="middle" x="68.5" y="-289.5" font-family="Helvetica,sans-Serif" font-size="10.00">unordered_map&lt;</text>
<polyline fill="none" stroke="#bfbfbf" points="24,-282.5 113,-282.5 "/>
<text text-anchor="middle" x="68.5" y="-270.5" font-family="Helvetica,sans-Serif" font-size="10.00"> </text>
<polyline fill="none" stroke="#bfbfbf" points="24,-263.5 113,-263.5 "/>
<text text-anchor="middle" x="68.5" y="-251.5" font-family="Helvetica,sans-Serif" font-size="10.00"> </text>
</a>
</g>
</g>
<!-- Node3&#45;&gt;Node2 -->
<g id="edge2" class="edge">
<title>Node3&#45;&gt;Node2</title>
<path fill="none" stroke="#404040" d="M68.5,-244.28C68.5,-233.73 68.5,-221.29 68.5,-209.03"/>
<polygon fill="none" stroke="#404040" points="68.5,-208.91 64.5,-202.91 68.5,-196.91 72.5,-202.91 68.5,-208.91"/>
<text text-anchor="middle" x="99.5" y="-218" font-family="Helvetica,sans-Serif" font-size="10.00"> #m_Listeners</text>
</g>
</g>
</svg>
