<?xml version="1.0" encoding="UTF-8" standalone="no"?>
<!DOCTYPE svg PUBLIC "-//W3C//DTD SVG 1.1//EN"
 "http://www.w3.org/Graphics/SVG/1.1/DTD/svg11.dtd">
<!-- Generated by graphviz version 2.50.0 (20211204.2007)
 -->
<!-- Title: Sml::MouseMovedEvent Pages: 1 -->
<svg width="342pt" height="525pt"
 viewBox="0.00 0.00 342.00 525.00" xmlns="http://www.w3.org/2000/svg" xmlns:xlink="http://www.w3.org/1999/xlink">
<g id="graph0" class="graph" transform="scale(1 1) rotate(0) translate(4 521)">
<title>Sml::MouseMovedEvent</title>
<polygon fill="white" stroke="transparent" points="-4,4 -4,-521 338,-521 338,4 -4,4"/>
<!-- Node1 -->
<g id="node1" class="node">
<title>Node1</title>
<g id="a_node1"><a xlink:title=" ">
<polygon fill="#bfbfbf" stroke="black" points="131.5,-0.5 131.5,-101.5 255.5,-101.5 255.5,-0.5 131.5,-0.5"/>
<text text-anchor="middle" x="193.5" y="-89.5" font-family="Helvetica,sans-Serif" font-size="10.00">Sml::MouseMovedEvent</text>
<polyline fill="none" stroke="black" points="131.5,-82.5 255.5,-82.5 "/>
<text text-anchor="middle" x="193.5" y="-70.5" font-family="Helvetica,sans-Serif" font-size="10.00"> </text>
<polyline fill="none" stroke="black" points="131.5,-63.5 255.5,-63.5 "/>
<text text-anchor="start" x="139.5" y="-51.5" font-family="Helvetica,sans-Serif" font-size="10.00">+ MouseMovedEvent()</text>
<text text-anchor="start" x="139.5" y="-40.5" font-family="Helvetica,sans-Serif" font-size="10.00">+ setDeltaX()</text>
<text text-anchor="start" x="139.5" y="-29.5" font-family="Helvetica,sans-Serif" font-size="10.00">+ setDeltaY()</text>
<text text-anchor="start" x="139.5" y="-18.5" font-family="Helvetica,sans-Serif" font-size="10.00">+ getDeltaX()</text>
<text text-anchor="start" x="139.5" y="-7.5" font-family="Helvetica,sans-Serif" font-size="10.00">+ getDeltaY()</text>
</a>
</g>
</g>
<!-- Node2 -->
<g id="node2" class="node">
<title>Node2</title>
<g id="a_node2"><a xlink:href="class_sml_1_1_mouse_event.html" target="_top" xlink:title=" ">
<polygon fill="white" stroke="black" points="146,-139.5 146,-240.5 241,-240.5 241,-139.5 146,-139.5"/>
<text text-anchor="middle" x="193.5" y="-228.5" font-family="Helvetica,sans-Serif" font-size="10.00">Sml::MouseEvent</text>
<polyline fill="none" stroke="black" points="146,-221.5 241,-221.5 "/>
<text text-anchor="middle" x="193.5" y="-209.5" font-family="Helvetica,sans-Serif" font-size="10.00"> </text>
<polyline fill="none" stroke="black" points="146,-202.5 241,-202.5 "/>
<text text-anchor="start" x="154" y="-190.5" font-family="Helvetica,sans-Serif" font-size="10.00">+ MouseEvent()</text>
<text text-anchor="start" x="154" y="-179.5" font-family="Helvetica,sans-Serif" font-size="10.00">+ setX()</text>
<text text-anchor="start" x="154" y="-168.5" font-family="Helvetica,sans-Serif" font-size="10.00">+ setY()</text>
<text text-anchor="start" x="154" y="-157.5" font-family="Helvetica,sans-Serif" font-size="10.00">+ getX()</text>
<text text-anchor="start" x="154" y="-146.5" font-family="Helvetica,sans-Serif" font-size="10.00">+ getY()</text>
</a>
</g>
</g>
<!-- Node2&#45;&gt;Node1 -->
<g id="edge1" class="edge">
<title>Node2&#45;&gt;Node1</title>
<path fill="none" stroke="midnightblue" d="M193.5,-128.95C193.5,-119.81 193.5,-110.47 193.5,-101.58"/>
<polygon fill="none" stroke="midnightblue" points="190,-129.15 193.5,-139.15 197,-129.15 190,-129.15"/>
</g>
<!-- Node3 -->
<g id="node3" class="node">
<title>Node3</title>
<g id="a_node3"><a xlink:href="class_sml_1_1_event.html" target="_top" xlink:title=" ">
<polygon fill="white" stroke="black" points="109,-299.5 109,-411.5 194,-411.5 194,-299.5 109,-299.5"/>
<text text-anchor="middle" x="151.5" y="-399.5" font-family="Helvetica,sans-Serif" font-size="10.00">Sml::Event</text>
<polyline fill="none" stroke="black" points="109,-392.5 194,-392.5 "/>
<text text-anchor="middle" x="151.5" y="-380.5" font-family="Helvetica,sans-Serif" font-size="10.00"> </text>
<polyline fill="none" stroke="black" points="109,-373.5 194,-373.5 "/>
<text text-anchor="start" x="117" y="-361.5" font-family="Helvetica,sans-Serif" font-size="10.00">+ Event()</text>
<text text-anchor="start" x="117" y="-350.5" font-family="Helvetica,sans-Serif" font-size="10.00">+ ~Event()</text>
<text text-anchor="start" x="117" y="-339.5" font-family="Helvetica,sans-Serif" font-size="10.00">+ setType()</text>
<text text-anchor="start" x="117" y="-328.5" font-family="Helvetica,sans-Serif" font-size="10.00">+ setCategory()</text>
<text text-anchor="start" x="117" y="-317.5" font-family="Helvetica,sans-Serif" font-size="10.00">+ getType()</text>
<text text-anchor="start" x="117" y="-306.5" font-family="Helvetica,sans-Serif" font-size="10.00">and 6 more...</text>
</a>
</g>
</g>
<!-- Node3&#45;&gt;Node2 -->
<g id="edge2" class="edge">
<title>Node3&#45;&gt;Node2</title>
<path fill="none" stroke="midnightblue" d="M168.28,-289.19C172.44,-272.97 176.84,-255.85 180.78,-240.53"/>
<polygon fill="none" stroke="midnightblue" points="164.82,-288.59 165.72,-299.15 171.6,-290.33 164.82,-288.59"/>
</g>
<!-- Node4 -->
<g id="node4" class="node">
<title>Node4</title>
<g id="a_node4"><a xlink:title=" ">
<polygon fill="white" stroke="#bfbfbf" points="0,-459.5 0,-516.5 51,-516.5 51,-459.5 0,-459.5"/>
<text text-anchor="middle" x="25.5" y="-504.5" font-family="Helvetica,sans-Serif" font-size="10.00">uint32_t</text>
<polyline fill="none" stroke="#bfbfbf" points="0,-497.5 51,-497.5 "/>
<text text-anchor="middle" x="25.5" y="-485.5" font-family="Helvetica,sans-Serif" font-size="10.00"> </text>
<polyline fill="none" stroke="#bfbfbf" points="0,-478.5 51,-478.5 "/>
<text text-anchor="middle" x="25.5" y="-466.5" font-family="Helvetica,sans-Serif" font-size="10.00"> </text>
</a>
</g>
</g>
<!-- Node4&#45;&gt;Node3 -->
<g id="edge3" class="edge">
<title>Node4&#45;&gt;Node3</title>
<path fill="none" stroke="#404040" d="M45.12,-459.5C52.42,-449.86 60.99,-439.16 69.5,-430 78.86,-419.93 89.43,-409.71 99.8,-400.23"/>
<polygon fill="none" stroke="#404040" points="99.9,-400.14 101.69,-393.15 108.82,-392.11 107.04,-399.09 99.9,-400.14"/>
<text text-anchor="middle" x="91" y="-433" font-family="Helvetica,sans-Serif" font-size="10.00"> #m_Type</text>
</g>
<!-- Node5 -->
<g id="node5" class="node">
<title>Node5</title>
<g id="a_node5"><a xlink:title=" ">
<polygon fill="white" stroke="#bfbfbf" points="69,-459.5 69,-516.5 120,-516.5 120,-459.5 69,-459.5"/>
<text text-anchor="middle" x="94.5" y="-504.5" font-family="Helvetica,sans-Serif" font-size="10.00">uint64_t</text>
<polyline fill="none" stroke="#bfbfbf" points="69,-497.5 120,-497.5 "/>
<text text-anchor="middle" x="94.5" y="-485.5" font-family="Helvetica,sans-Serif" font-size="10.00"> </text>
<polyline fill="none" stroke="#bfbfbf" points="69,-478.5 120,-478.5 "/>
<text text-anchor="middle" x="94.5" y="-466.5" font-family="Helvetica,sans-Serif" font-size="10.00"> </text>
</a>
</g>
</g>
<!-- Node5&#45;&gt;Node3 -->
<g id="edge4" class="edge">
<title>Node5&#45;&gt;Node3</title>
<path fill="none" stroke="#404040" d="M106.59,-459.32C111.29,-448.56 116.89,-435.73 122.52,-422.84"/>
<polygon fill="none" stroke="#404040" points="122.65,-422.55 121.39,-415.45 127.46,-411.55 128.72,-418.65 122.65,-422.55"/>
<text text-anchor="middle" x="149.5" y="-433" font-family="Helvetica,sans-Serif" font-size="10.00"> #m_Category</text>
</g>
<!-- Node6 -->
<g id="node6" class="node">
<title>Node6</title>
<g id="a_node6"><a xlink:href="class_sml_1_1_event_target.html" target="_top" xlink:title=" ">
<polygon fill="white" stroke="black" points="138.5,-459.5 138.5,-516.5 280.5,-516.5 280.5,-459.5 138.5,-459.5"/>
<text text-anchor="middle" x="209.5" y="-504.5" font-family="Helvetica,sans-Serif" font-size="10.00">Sml::EventTarget</text>
<polyline fill="none" stroke="black" points="138.5,-497.5 280.5,-497.5 "/>
<text text-anchor="middle" x="209.5" y="-485.5" font-family="Helvetica,sans-Serif" font-size="10.00"> </text>
<polyline fill="none" stroke="black" points="138.5,-478.5 280.5,-478.5 "/>
<text text-anchor="start" x="146.5" y="-466.5" font-family="Helvetica,sans-Serif" font-size="10.00">+ buildEventDispatchChain()</text>
</a>
</g>
</g>
<!-- Node6&#45;&gt;Node3 -->
<g id="edge5" class="edge">
<title>Node6&#45;&gt;Node3</title>
<path fill="none" stroke="#404040" d="M197.47,-459.44C193.37,-450.08 188.75,-439.58 184.5,-430 183.48,-427.7 182.44,-425.37 181.39,-423.01"/>
<polygon fill="none" stroke="#404040" points="181.31,-422.82 175.21,-418.97 176.42,-411.86 182.52,-415.71 181.31,-422.82"/>
<text text-anchor="middle" x="214" y="-433" font-family="Helvetica,sans-Serif" font-size="10.00"> #m_Target</text>
</g>
<!-- Node7 -->
<g id="node7" class="node">
<title>Node7</title>
<g id="a_node7"><a xlink:title=" ">
<polygon fill="white" stroke="#bfbfbf" points="299,-459.5 299,-516.5 334,-516.5 334,-459.5 299,-459.5"/>
<text text-anchor="middle" x="316.5" y="-504.5" font-family="Helvetica,sans-Serif" font-size="10.00">bool</text>
<polyline fill="none" stroke="#bfbfbf" points="299,-497.5 334,-497.5 "/>
<text text-anchor="middle" x="316.5" y="-485.5" font-family="Helvetica,sans-Serif" font-size="10.00"> </text>
<polyline fill="none" stroke="#bfbfbf" points="299,-478.5 334,-478.5 "/>
<text text-anchor="middle" x="316.5" y="-466.5" font-family="Helvetica,sans-Serif" font-size="10.00"> </text>
</a>
</g>
</g>
<!-- Node7&#45;&gt;Node3 -->
<g id="edge6" class="edge">
<title>Node7&#45;&gt;Node3</title>
<path fill="none" stroke="#404040" d="M298.8,-467.36C295.81,-464.43 292.66,-461.54 289.5,-459 270.39,-443.6 264.13,-441.61 242.5,-430 225.68,-420.97 218.98,-423.17 203.5,-412 203.4,-411.93 203.3,-411.85 203.2,-411.78"/>
<polygon fill="none" stroke="#404040" points="203.4,-411.95 196.22,-411.34 194.02,-404.47 201.2,-405.08 203.4,-411.95"/>
<text text-anchor="middle" x="297.5" y="-433" font-family="Helvetica,sans-Serif" font-size="10.00"> #m_Consumed</text>
</g>
<!-- Node8 -->
<g id="node8" class="node">
<title>Node8</title>
<g id="a_node8"><a xlink:title=" ">
<polygon fill="white" stroke="#bfbfbf" points="212.5,-327 212.5,-384 258.5,-384 258.5,-327 212.5,-327"/>
<text text-anchor="middle" x="235.5" y="-372" font-family="Helvetica,sans-Serif" font-size="10.00">int32_t</text>
<polyline fill="none" stroke="#bfbfbf" points="212.5,-365 258.5,-365 "/>
<text text-anchor="middle" x="235.5" y="-353" font-family="Helvetica,sans-Serif" font-size="10.00"> </text>
<polyline fill="none" stroke="#bfbfbf" points="212.5,-346 258.5,-346 "/>
<text text-anchor="middle" x="235.5" y="-334" font-family="Helvetica,sans-Serif" font-size="10.00"> </text>
</a>
</g>
</g>
<!-- Node8&#45;&gt;Node2 -->
<g id="edge7" class="edge">
<title>Node8&#45;&gt;Node2</title>
<path fill="none" stroke="#404040" d="M228.38,-326.76C223.16,-306.47 215.89,-278.14 209.33,-252.61"/>
<polygon fill="none" stroke="#404040" points="209.26,-252.35 203.89,-247.54 206.28,-240.73 211.64,-245.55 209.26,-252.35"/>
<text text-anchor="middle" x="230" y="-273" font-family="Helvetica,sans-Serif" font-size="10.00"> #m_X</text>
<text text-anchor="middle" x="230" y="-262" font-family="Helvetica,sans-Serif" font-size="10.00">#m_Y</text>
</g>
</g>
</svg>
