<?xml version="1.0" encoding="UTF-8" standalone="no"?>
<!DOCTYPE svg PUBLIC "-//W3C//DTD SVG 1.1//EN"
 "http://www.w3.org/Graphics/SVG/1.1/DTD/svg11.dtd">
<!-- Generated by graphviz version 2.50.0 (20211204.2007)
 -->
<!-- Title: Sml::MouseMovedEvent Pages: 1 -->
<svg width="238pt" height="496pt"
 viewBox="0.00 0.00 238.00 496.00" xmlns="http://www.w3.org/2000/svg" xmlns:xlink="http://www.w3.org/1999/xlink">
<g id="graph0" class="graph" transform="scale(1 1) rotate(0) translate(4 492)">
<title>Sml::MouseMovedEvent</title>
<polygon fill="white" stroke="transparent" points="-4,4 -4,-492 234,-492 234,4 -4,4"/>
<!-- Node1 -->
<g id="node1" class="node">
<title>Node1</title>
<g id="a_node1"><a xlink:title=" ">
<polygon fill="#bfbfbf" stroke="black" points="21,-0.5 21,-123.5 209,-123.5 209,-0.5 21,-0.5"/>
<text text-anchor="middle" x="115" y="-111.5" font-family="Helvetica,sans-Serif" font-size="10.00">Sml::MouseMovedEvent</text>
<polyline fill="none" stroke="black" points="21,-104.5 209,-104.5 "/>
<text text-anchor="middle" x="115" y="-92.5" font-family="Helvetica,sans-Serif" font-size="10.00"> </text>
<polyline fill="none" stroke="black" points="21,-85.5 209,-85.5 "/>
<text text-anchor="start" x="29" y="-73.5" font-family="Helvetica,sans-Serif" font-size="10.00">+ MouseMovedEvent(int32_t x=0, int32</text>
<text text-anchor="start" x="29" y="-62.5" font-family="Helvetica,sans-Serif" font-size="10.00">_t y=0, int32_t deltaX=0, int32_t deltaY</text>
<text text-anchor="start" x="29" y="-51.5" font-family="Helvetica,sans-Serif" font-size="10.00">=0, EventTarget *target=nullptr)</text>
<text text-anchor="start" x="29" y="-40.5" font-family="Helvetica,sans-Serif" font-size="10.00">+ void setDeltaX(int32_t deltaX)</text>
<text text-anchor="start" x="29" y="-29.5" font-family="Helvetica,sans-Serif" font-size="10.00">+ void setDeltaY(int32_t deltaY)</text>
<text text-anchor="start" x="29" y="-18.5" font-family="Helvetica,sans-Serif" font-size="10.00">+ int32_t getDeltaX() const</text>
<text text-anchor="start" x="29" y="-7.5" font-family="Helvetica,sans-Serif" font-size="10.00">+ int32_t getDeltaY() const</text>
</a>
</g>
</g>
<!-- Node2 -->
<g id="node2" class="node">
<title>Node2</title>
<g id="a_node2"><a xlink:href="class_sml_1_1_mouse_event.html" target="_top" xlink:title=" ">
<polygon fill="white" stroke="black" points="27,-160.5 27,-283.5 203,-283.5 203,-160.5 27,-160.5"/>
<text text-anchor="middle" x="115" y="-271.5" font-family="Helvetica,sans-Serif" font-size="10.00">Sml::MouseEvent</text>
<polyline fill="none" stroke="black" points="27,-264.5 203,-264.5 "/>
<text text-anchor="start" x="35" y="-252.5" font-family="Helvetica,sans-Serif" font-size="10.00"># int32_t m_X</text>
<text text-anchor="start" x="35" y="-241.5" font-family="Helvetica,sans-Serif" font-size="10.00"># int32_t m_Y</text>
<polyline fill="none" stroke="black" points="27,-234.5 203,-234.5 "/>
<text text-anchor="start" x="35" y="-222.5" font-family="Helvetica,sans-Serif" font-size="10.00">+ MouseEvent(int32_t x=0, int32_t y</text>
<text text-anchor="start" x="35" y="-211.5" font-family="Helvetica,sans-Serif" font-size="10.00">=0, EventTarget *target=nullptr)</text>
<text text-anchor="start" x="35" y="-200.5" font-family="Helvetica,sans-Serif" font-size="10.00">+ void setX(int32_t x)</text>
<text text-anchor="start" x="35" y="-189.5" font-family="Helvetica,sans-Serif" font-size="10.00">+ void setY(int32_t y)</text>
<text text-anchor="start" x="35" y="-178.5" font-family="Helvetica,sans-Serif" font-size="10.00">+ int32_t getX() const</text>
<text text-anchor="start" x="35" y="-167.5" font-family="Helvetica,sans-Serif" font-size="10.00">+ int32_t getY() const</text>
</a>
</g>
</g>
<!-- Node2&#45;&gt;Node1 -->
<g id="edge1" class="edge">
<title>Node2&#45;&gt;Node1</title>
<path fill="none" stroke="midnightblue" d="M115,-150.12C115,-141.31 115,-132.37 115,-123.73"/>
<polygon fill="none" stroke="midnightblue" points="111.5,-150.36 115,-160.36 118.5,-150.36 111.5,-150.36"/>
</g>
<!-- Node3 -->
<g id="node3" class="node">
<title>Node3</title>
<g id="a_node3"><a xlink:href="class_sml_1_1_event.html" target="_top" xlink:title=" ">
<polygon fill="white" stroke="black" points="0,-320.5 0,-487.5 230,-487.5 230,-320.5 0,-320.5"/>
<text text-anchor="middle" x="115" y="-475.5" font-family="Helvetica,sans-Serif" font-size="10.00">Sml::Event</text>
<polyline fill="none" stroke="black" points="0,-468.5 230,-468.5 "/>
<text text-anchor="start" x="8" y="-456.5" font-family="Helvetica,sans-Serif" font-size="10.00"># EventType m_Type</text>
<text text-anchor="start" x="8" y="-445.5" font-family="Helvetica,sans-Serif" font-size="10.00"># EventCategory m_Category</text>
<text text-anchor="start" x="8" y="-434.5" font-family="Helvetica,sans-Serif" font-size="10.00"># EventTarget * m_Target</text>
<text text-anchor="start" x="8" y="-423.5" font-family="Helvetica,sans-Serif" font-size="10.00"># bool m_Consumed</text>
<polyline fill="none" stroke="black" points="0,-416.5 230,-416.5 "/>
<text text-anchor="start" x="8" y="-404.5" font-family="Helvetica,sans-Serif" font-size="10.00">+ Event(EventType type=INVALID_EVENT</text>
<text text-anchor="start" x="8" y="-393.5" font-family="Helvetica,sans-Serif" font-size="10.00">_TYPE, EventCategory category=0, EventTarget</text>
<text text-anchor="start" x="8" y="-382.5" font-family="Helvetica,sans-Serif" font-size="10.00"> *target=nullptr)</text>
<text text-anchor="start" x="8" y="-371.5" font-family="Helvetica,sans-Serif" font-size="10.00">+ virtual ~Event()=default</text>
<text text-anchor="start" x="8" y="-360.5" font-family="Helvetica,sans-Serif" font-size="10.00">+ void setType(EventType type)</text>
<text text-anchor="start" x="8" y="-349.5" font-family="Helvetica,sans-Serif" font-size="10.00">+ void setCategory(EventCategory category)</text>
<text text-anchor="start" x="8" y="-338.5" font-family="Helvetica,sans-Serif" font-size="10.00">+ EventType getType() const</text>
<text text-anchor="start" x="8" y="-327.5" font-family="Helvetica,sans-Serif" font-size="10.00">and 6 more...</text>
</a>
</g>
</g>
<!-- Node3&#45;&gt;Node2 -->
<g id="edge2" class="edge">
<title>Node3&#45;&gt;Node2</title>
<path fill="none" stroke="midnightblue" d="M115,-310.19C115,-301.17 115,-292.19 115,-283.61"/>
<polygon fill="none" stroke="midnightblue" points="111.5,-310.38 115,-320.38 118.5,-310.38 111.5,-310.38"/>
</g>
</g>
</svg>
