<?xml version="1.0" encoding="UTF-8" standalone="no"?>
<!DOCTYPE svg PUBLIC "-//W3C//DTD SVG 1.1//EN"
 "http://www.w3.org/Graphics/SVG/1.1/DTD/svg11.dtd">
<!-- Generated by graphviz version 2.50.0 (20211204.2007)
 -->
<!-- Title: Sml::WindowCloseEvent Pages: 1 -->
<svg width="134pt" height="342pt"
 viewBox="0.00 0.00 134.00 342.00" xmlns="http://www.w3.org/2000/svg" xmlns:xlink="http://www.w3.org/1999/xlink">
<g id="graph0" class="graph" transform="scale(1 1) rotate(0) translate(4 338)">
<title>Sml::WindowCloseEvent</title>
<polygon fill="white" stroke="transparent" points="-4,4 -4,-338 130,-338 130,4 -4,4"/>
<!-- Node1 -->
<g id="node1" class="node">
<title>Node1</title>
<g id="a_node1"><a xlink:title=" ">
<polygon fill="#bfbfbf" stroke="black" points="0,-0.5 0,-57.5 126,-57.5 126,-0.5 0,-0.5"/>
<text text-anchor="middle" x="63" y="-45.5" font-family="Helvetica,sans-Serif" font-size="10.00">Sml::WindowCloseEvent</text>
<polyline fill="none" stroke="black" points="0,-38.5 126,-38.5 "/>
<text text-anchor="middle" x="63" y="-26.5" font-family="Helvetica,sans-Serif" font-size="10.00"> </text>
<polyline fill="none" stroke="black" points="0,-19.5 126,-19.5 "/>
<text text-anchor="start" x="8" y="-7.5" font-family="Helvetica,sans-Serif" font-size="10.00">+ WindowCloseEvent()</text>
</a>
</g>
</g>
<!-- Node2 -->
<g id="node2" class="node">
<title>Node2</title>
<g id="a_node2"><a xlink:href="class_sml_1_1_window_event.html" target="_top" xlink:title=" ">
<polygon fill="white" stroke="black" points="12.5,-94.5 12.5,-151.5 113.5,-151.5 113.5,-94.5 12.5,-94.5"/>
<text text-anchor="middle" x="63" y="-139.5" font-family="Helvetica,sans-Serif" font-size="10.00">Sml::WindowEvent</text>
<polyline fill="none" stroke="black" points="12.5,-132.5 113.5,-132.5 "/>
<text text-anchor="middle" x="63" y="-120.5" font-family="Helvetica,sans-Serif" font-size="10.00"> </text>
<polyline fill="none" stroke="black" points="12.5,-113.5 113.5,-113.5 "/>
<text text-anchor="start" x="20.5" y="-101.5" font-family="Helvetica,sans-Serif" font-size="10.00">+ WindowEvent()</text>
</a>
</g>
</g>
<!-- Node2&#45;&gt;Node1 -->
<g id="edge1" class="edge">
<title>Node2&#45;&gt;Node1</title>
<path fill="none" stroke="midnightblue" d="M63,-84.21C63,-75.29 63,-65.95 63,-57.58"/>
<polygon fill="none" stroke="midnightblue" points="59.5,-84.4 63,-94.4 66.5,-84.4 59.5,-84.4"/>
</g>
<!-- Node3 -->
<g id="node3" class="node">
<title>Node3</title>
<g id="a_node3"><a xlink:href="class_sml_1_1_event.html" target="_top" xlink:title=" ">
<polygon fill="white" stroke="black" points="20,-188.5 20,-333.5 106,-333.5 106,-188.5 20,-188.5"/>
<text text-anchor="middle" x="63" y="-321.5" font-family="Helvetica,sans-Serif" font-size="10.00">Sml::Event</text>
<polyline fill="none" stroke="black" points="20,-314.5 106,-314.5 "/>
<text text-anchor="start" x="28" y="-302.5" font-family="Helvetica,sans-Serif" font-size="10.00"># m_Type</text>
<text text-anchor="start" x="28" y="-291.5" font-family="Helvetica,sans-Serif" font-size="10.00"># m_Category</text>
<text text-anchor="start" x="28" y="-280.5" font-family="Helvetica,sans-Serif" font-size="10.00"># m_Target</text>
<text text-anchor="start" x="28" y="-269.5" font-family="Helvetica,sans-Serif" font-size="10.00"># m_Consumed</text>
<polyline fill="none" stroke="black" points="20,-262.5 106,-262.5 "/>
<text text-anchor="start" x="28" y="-250.5" font-family="Helvetica,sans-Serif" font-size="10.00">+ Event()</text>
<text text-anchor="start" x="28" y="-239.5" font-family="Helvetica,sans-Serif" font-size="10.00">+ ~Event()</text>
<text text-anchor="start" x="28" y="-228.5" font-family="Helvetica,sans-Serif" font-size="10.00">+ setType()</text>
<text text-anchor="start" x="28" y="-217.5" font-family="Helvetica,sans-Serif" font-size="10.00">+ setCategory()</text>
<text text-anchor="start" x="28" y="-206.5" font-family="Helvetica,sans-Serif" font-size="10.00">+ getType()</text>
<text text-anchor="start" x="28" y="-195.5" font-family="Helvetica,sans-Serif" font-size="10.00">and 6 more...</text>
</a>
</g>
</g>
<!-- Node3&#45;&gt;Node2 -->
<g id="edge2" class="edge">
<title>Node3&#45;&gt;Node2</title>
<path fill="none" stroke="midnightblue" d="M63,-178.39C63,-168.86 63,-159.71 63,-151.71"/>
<polygon fill="none" stroke="midnightblue" points="59.5,-178.42 63,-188.42 66.5,-178.42 59.5,-178.42"/>
</g>
</g>
</svg>
