<?xml version="1.0" encoding="UTF-8" standalone="no"?>
<!DOCTYPE svg PUBLIC "-//W3C//DTD SVG 1.1//EN"
 "http://www.w3.org/Graphics/SVG/1.1/DTD/svg11.dtd">
<!-- Generated by graphviz version 2.50.0 (20211204.2007)
 -->
<!-- Title: color.h Pages: 1 -->
<svg width="368pt" height="308pt"
 viewBox="0.00 0.00 368.00 308.00" xmlns="http://www.w3.org/2000/svg" xmlns:xlink="http://www.w3.org/1999/xlink">
<g id="graph0" class="graph" transform="scale(1 1) rotate(0) translate(4 304)">
<title>color.h</title>
<polygon fill="white" stroke="transparent" points="-4,4 -4,-304 364,-304 364,4 -4,4"/>
<!-- Node1 -->
<g id="node1" class="node">
<title>Node1</title>
<g id="a_node1"><a xlink:title=" ">
<polygon fill="#bfbfbf" stroke="black" points="101,-280.5 101,-299.5 146,-299.5 146,-280.5 101,-280.5"/>
<text text-anchor="middle" x="123.5" y="-287.5" font-family="Helvetica,sans-Serif" font-size="10.00">color.h</text>
</a>
</g>
</g>
<!-- Node2 -->
<g id="node2" class="node">
<title>Node2</title>
<g id="a_node2"><a xlink:title=" ">
<polygon fill="white" stroke="#bfbfbf" points="0,-224.5 0,-243.5 49,-243.5 49,-224.5 0,-224.5"/>
<text text-anchor="middle" x="24.5" y="-231.5" font-family="Helvetica,sans-Serif" font-size="10.00">stdint.h</text>
</a>
</g>
</g>
<!-- Node1&#45;&gt;Node2 -->
<g id="edge1" class="edge">
<title>Node1&#45;&gt;Node2</title>
<path fill="none" stroke="midnightblue" d="M107.59,-280.32C91.86,-271.74 67.56,-258.49 49.29,-248.52"/>
<polygon fill="midnightblue" stroke="midnightblue" points="50.82,-245.37 40.37,-243.65 47.47,-251.52 50.82,-245.37"/>
</g>
<!-- Node3 -->
<g id="node3" class="node">
<title>Node3</title>
<g id="a_node3"><a xlink:title=" ">
<polygon fill="white" stroke="#bfbfbf" points="67.5,-224.5 67.5,-243.5 111.5,-243.5 111.5,-224.5 67.5,-224.5"/>
<text text-anchor="middle" x="89.5" y="-231.5" font-family="Helvetica,sans-Serif" font-size="10.00">SDL.h</text>
</a>
</g>
</g>
<!-- Node1&#45;&gt;Node3 -->
<g id="edge2" class="edge">
<title>Node1&#45;&gt;Node3</title>
<path fill="none" stroke="midnightblue" d="M117.89,-280.08C113.13,-272.53 106.18,-261.49 100.35,-252.23"/>
<polygon fill="midnightblue" stroke="midnightblue" points="103.3,-250.35 95.01,-243.75 97.38,-254.08 103.3,-250.35"/>
</g>
<!-- Node4 -->
<g id="node4" class="node">
<title>Node4</title>
<g id="a_node4"><a xlink:title=" ">
<polygon fill="white" stroke="#bfbfbf" points="129.5,-224.5 129.5,-243.5 185.5,-243.5 185.5,-224.5 129.5,-224.5"/>
<text text-anchor="middle" x="157.5" y="-231.5" font-family="Helvetica,sans-Serif" font-size="10.00">algorithm</text>
</a>
</g>
</g>
<!-- Node1&#45;&gt;Node4 -->
<g id="edge3" class="edge">
<title>Node1&#45;&gt;Node4</title>
<path fill="none" stroke="midnightblue" d="M129.11,-280.08C133.87,-272.53 140.82,-261.49 146.65,-252.23"/>
<polygon fill="midnightblue" stroke="midnightblue" points="149.62,-254.08 151.99,-243.75 143.7,-250.35 149.62,-254.08"/>
</g>
<!-- Node5 -->
<g id="node5" class="node">
<title>Node5</title>
<g id="a_node5"><a xlink:href="vec4_8h.html" target="_top" xlink:title=" ">
<polygon fill="white" stroke="black" points="203.5,-224.5 203.5,-243.5 283.5,-243.5 283.5,-224.5 203.5,-224.5"/>
<text text-anchor="middle" x="243.5" y="-231.5" font-family="Helvetica,sans-Serif" font-size="10.00">../math/vec4.h</text>
</a>
</g>
</g>
<!-- Node1&#45;&gt;Node5 -->
<g id="edge4" class="edge">
<title>Node1&#45;&gt;Node5</title>
<path fill="none" stroke="midnightblue" d="M142.51,-280.44C162.09,-271.64 192.81,-257.81 215.23,-247.72"/>
<polygon fill="midnightblue" stroke="midnightblue" points="216.89,-250.81 224.57,-243.52 214.02,-244.43 216.89,-250.81"/>
</g>
<!-- Node6 -->
<g id="node6" class="node">
<title>Node6</title>
<g id="a_node6"><a xlink:title=" ">
<polygon fill="white" stroke="#bfbfbf" points="100.5,-56.5 100.5,-75.5 152.5,-75.5 152.5,-56.5 100.5,-56.5"/>
<text text-anchor="middle" x="126.5" y="-63.5" font-family="Helvetica,sans-Serif" font-size="10.00">assert.h</text>
</a>
</g>
</g>
<!-- Node5&#45;&gt;Node6 -->
<g id="edge5" class="edge">
<title>Node5&#45;&gt;Node6</title>
<path fill="none" stroke="midnightblue" d="M237.3,-224.38C224.78,-206.98 195.64,-166.36 171.5,-132 160.2,-115.91 147.46,-97.48 138.42,-84.36"/>
<polygon fill="midnightblue" stroke="midnightblue" points="141.13,-82.11 132.58,-75.86 135.36,-86.08 141.13,-82.11"/>
</g>
<!-- Node7 -->
<g id="node7" class="node">
<title>Node7</title>
<g id="a_node7"><a xlink:title=" ">
<polygon fill="white" stroke="#bfbfbf" points="313,-56.5 313,-75.5 360,-75.5 360,-56.5 313,-56.5"/>
<text text-anchor="middle" x="336.5" y="-63.5" font-family="Helvetica,sans-Serif" font-size="10.00">math.h</text>
</a>
</g>
</g>
<!-- Node5&#45;&gt;Node7 -->
<g id="edge6" class="edge">
<title>Node5&#45;&gt;Node7</title>
<path fill="none" stroke="midnightblue" d="M250.28,-224.3C257.06,-215.43 267.58,-201.14 275.5,-188 296.77,-152.72 317.48,-109.1 328.44,-85.05"/>
<polygon fill="midnightblue" stroke="midnightblue" points="331.72,-86.3 332.64,-75.75 325.34,-83.42 331.72,-86.3"/>
</g>
<!-- Node8 -->
<g id="node8" class="node">
<title>Node8</title>
<g id="a_node8"><a xlink:href="vec3_8h.html" target="_top" xlink:title=" ">
<polygon fill="white" stroke="black" points="220.5,-168.5 220.5,-187.5 266.5,-187.5 266.5,-168.5 220.5,-168.5"/>
<text text-anchor="middle" x="243.5" y="-175.5" font-family="Helvetica,sans-Serif" font-size="10.00">vec3.h</text>
</a>
</g>
</g>
<!-- Node5&#45;&gt;Node8 -->
<g id="edge7" class="edge">
<title>Node5&#45;&gt;Node8</title>
<path fill="none" stroke="midnightblue" d="M243.5,-224.08C243.5,-217.01 243.5,-206.86 243.5,-197.99"/>
<polygon fill="midnightblue" stroke="midnightblue" points="247,-197.75 243.5,-187.75 240,-197.75 247,-197.75"/>
</g>
<!-- Node8&#45;&gt;Node6 -->
<g id="edge8" class="edge">
<title>Node8&#45;&gt;Node6</title>
<path fill="none" stroke="midnightblue" d="M234.32,-168.37C214.67,-149.89 168.29,-106.29 143.25,-82.74"/>
<polygon fill="midnightblue" stroke="midnightblue" points="145.32,-79.89 135.64,-75.59 140.53,-84.99 145.32,-79.89"/>
</g>
<!-- Node8&#45;&gt;Node7 -->
<g id="edge9" class="edge">
<title>Node8&#45;&gt;Node7</title>
<path fill="none" stroke="midnightblue" d="M250.8,-168.37C266.28,-150.05 302.64,-107.05 322.67,-83.36"/>
<polygon fill="midnightblue" stroke="midnightblue" points="325.45,-85.49 329.24,-75.59 320.11,-80.97 325.45,-85.49"/>
</g>
<!-- Node9 -->
<g id="node9" class="node">
<title>Node9</title>
<g id="a_node9"><a xlink:href="vec2_8h.html" target="_top" xlink:title=" ">
<polygon fill="white" stroke="black" points="220.5,-112.5 220.5,-131.5 266.5,-131.5 266.5,-112.5 220.5,-112.5"/>
<text text-anchor="middle" x="243.5" y="-119.5" font-family="Helvetica,sans-Serif" font-size="10.00">vec2.h</text>
</a>
</g>
</g>
<!-- Node8&#45;&gt;Node9 -->
<g id="edge10" class="edge">
<title>Node8&#45;&gt;Node9</title>
<path fill="none" stroke="midnightblue" d="M243.5,-168.08C243.5,-161.01 243.5,-150.86 243.5,-141.99"/>
<polygon fill="midnightblue" stroke="midnightblue" points="247,-141.75 243.5,-131.75 240,-141.75 247,-141.75"/>
</g>
<!-- Node9&#45;&gt;Node6 -->
<g id="edge11" class="edge">
<title>Node9&#45;&gt;Node6</title>
<path fill="none" stroke="midnightblue" d="M224.96,-112.44C205.88,-103.64 175.93,-89.81 154.06,-79.72"/>
<polygon fill="midnightblue" stroke="midnightblue" points="155.5,-76.53 144.95,-75.52 152.57,-82.88 155.5,-76.53"/>
</g>
<!-- Node9&#45;&gt;Node7 -->
<g id="edge13" class="edge">
<title>Node9&#45;&gt;Node7</title>
<path fill="none" stroke="midnightblue" d="M258.44,-112.32C273.09,-103.82 295.63,-90.73 312.74,-80.8"/>
<polygon fill="midnightblue" stroke="midnightblue" points="314.7,-83.7 321.6,-75.65 311.19,-77.65 314.7,-83.7"/>
</g>
<!-- Node10 -->
<g id="node10" class="node">
<title>Node10</title>
<g id="a_node10"><a xlink:title=" ">
<polygon fill="white" stroke="#bfbfbf" points="152,-0.5 152,-19.5 211,-19.5 211,-0.5 152,-0.5"/>
<text text-anchor="middle" x="181.5" y="-7.5" font-family="Helvetica,sans-Serif" font-size="10.00">inttypes.h</text>
</a>
</g>
</g>
<!-- Node9&#45;&gt;Node10 -->
<g id="edge12" class="edge">
<title>Node9&#45;&gt;Node10</title>
<path fill="none" stroke="midnightblue" d="M232.11,-112.21C222.11,-103.91 207.89,-90.58 199.5,-76 191.2,-61.57 186.56,-43.12 184.09,-29.56"/>
<polygon fill="midnightblue" stroke="midnightblue" points="187.52,-28.84 182.48,-19.52 180.6,-29.95 187.52,-28.84"/>
</g>
<!-- Node11 -->
<g id="node11" class="node">
<title>Node11</title>
<g id="a_node11"><a xlink:href="float__compare_8h.html" target="_top" xlink:title=" ">
<polygon fill="white" stroke="black" points="208.5,-56.5 208.5,-75.5 294.5,-75.5 294.5,-56.5 208.5,-56.5"/>
<text text-anchor="middle" x="251.5" y="-63.5" font-family="Helvetica,sans-Serif" font-size="10.00">float_compare.h</text>
</a>
</g>
</g>
<!-- Node9&#45;&gt;Node11 -->
<g id="edge14" class="edge">
<title>Node9&#45;&gt;Node11</title>
<path fill="none" stroke="midnightblue" d="M244.82,-112.08C245.88,-104.93 247.41,-94.64 248.73,-85.69"/>
<polygon fill="midnightblue" stroke="midnightblue" points="252.2,-86.16 250.2,-75.75 245.28,-85.13 252.2,-86.16"/>
</g>
<!-- Node11&#45;&gt;Node10 -->
<g id="edge15" class="edge">
<title>Node11&#45;&gt;Node10</title>
<path fill="none" stroke="midnightblue" d="M240.25,-56.32C229.7,-48.18 213.7,-35.84 201.06,-26.09"/>
<polygon fill="midnightblue" stroke="midnightblue" points="203.01,-23.17 192.95,-19.83 198.73,-28.71 203.01,-23.17"/>
</g>
<!-- Node12 -->
<g id="node12" class="node">
<title>Node12</title>
<g id="a_node12"><a xlink:title=" ">
<polygon fill="white" stroke="#bfbfbf" points="229.5,-0.5 229.5,-19.5 273.5,-19.5 273.5,-0.5 229.5,-0.5"/>
<text text-anchor="middle" x="251.5" y="-7.5" font-family="Helvetica,sans-Serif" font-size="10.00">float.h</text>
</a>
</g>
</g>
<!-- Node11&#45;&gt;Node12 -->
<g id="edge16" class="edge">
<title>Node11&#45;&gt;Node12</title>
<path fill="none" stroke="midnightblue" d="M251.5,-56.08C251.5,-49.01 251.5,-38.86 251.5,-29.99"/>
<polygon fill="midnightblue" stroke="midnightblue" points="255,-29.75 251.5,-19.75 248,-29.75 255,-29.75"/>
</g>
</g>
</svg>
