<?xml version="1.0" encoding="UTF-8" standalone="no"?>
<!DOCTYPE svg PUBLIC "-//W3C//DTD SVG 1.1//EN"
 "http://www.w3.org/Graphics/SVG/1.1/DTD/svg11.dtd">
<!-- Generated by graphviz version 2.50.0 (20211204.2007)
 -->
<!-- Title: color.cpp Pages: 1 -->
<svg width="348pt" height="364pt"
 viewBox="0.00 0.00 347.50 364.00" xmlns="http://www.w3.org/2000/svg" xmlns:xlink="http://www.w3.org/1999/xlink">
<g id="graph0" class="graph" transform="scale(1 1) rotate(0) translate(4 360)">
<title>color.cpp</title>
<polygon fill="white" stroke="transparent" points="-4,4 -4,-360 343.5,-360 343.5,4 -4,4"/>
<!-- Node1 -->
<g id="node1" class="node">
<title>Node1</title>
<g id="a_node1"><a xlink:title=" ">
<polygon fill="#bfbfbf" stroke="black" points="249.5,-336.5 249.5,-355.5 305.5,-355.5 305.5,-336.5 249.5,-336.5"/>
<text text-anchor="middle" x="277.5" y="-343.5" font-family="Helvetica,sans-Serif" font-size="10.00">color.cpp</text>
</a>
</g>
</g>
<!-- Node2 -->
<g id="node2" class="node">
<title>Node2</title>
<g id="a_node2"><a xlink:title=" ">
<polygon fill="white" stroke="#bfbfbf" points="207.5,-56.5 207.5,-75.5 259.5,-75.5 259.5,-56.5 207.5,-56.5"/>
<text text-anchor="middle" x="233.5" y="-63.5" font-family="Helvetica,sans-Serif" font-size="10.00">assert.h</text>
</a>
</g>
</g>
<!-- Node1&#45;&gt;Node2 -->
<g id="edge1" class="edge">
<title>Node1&#45;&gt;Node2</title>
<path fill="none" stroke="midnightblue" d="M286.65,-336.25C303.89,-318.77 339.5,-277.53 339.5,-235 339.5,-235 339.5,-235 339.5,-177 339.5,-131.81 292.55,-98.05 261.14,-80.52"/>
<polygon fill="midnightblue" stroke="midnightblue" points="262.43,-77.24 251.96,-75.61 259.13,-83.41 262.43,-77.24"/>
</g>
<!-- Node3 -->
<g id="node3" class="node">
<title>Node3</title>
<g id="a_node3"><a xlink:href="color_8h.html" target="_top" xlink:title=" ">
<polygon fill="white" stroke="black" points="153,-280.5 153,-299.5 278,-299.5 278,-280.5 153,-280.5"/>
<text text-anchor="middle" x="215.5" y="-287.5" font-family="Helvetica,sans-Serif" font-size="10.00">graphics_wrapper/color.h</text>
</a>
</g>
</g>
<!-- Node1&#45;&gt;Node3 -->
<g id="edge2" class="edge">
<title>Node1&#45;&gt;Node3</title>
<path fill="none" stroke="midnightblue" d="M267.54,-336.32C258.37,-328.34 244.56,-316.31 233.47,-306.65"/>
<polygon fill="midnightblue" stroke="midnightblue" points="235.48,-303.76 225.64,-299.83 230.88,-309.04 235.48,-303.76"/>
</g>
<!-- Node4 -->
<g id="node4" class="node">
<title>Node4</title>
<g id="a_node4"><a xlink:title=" ">
<polygon fill="white" stroke="#bfbfbf" points="262,-224.5 262,-243.5 311,-243.5 311,-224.5 262,-224.5"/>
<text text-anchor="middle" x="286.5" y="-231.5" font-family="Helvetica,sans-Serif" font-size="10.00">stdint.h</text>
</a>
</g>
</g>
<!-- Node3&#45;&gt;Node4 -->
<g id="edge3" class="edge">
<title>Node3&#45;&gt;Node4</title>
<path fill="none" stroke="midnightblue" d="M226.91,-280.32C237.61,-272.18 253.84,-259.84 266.66,-250.09"/>
<polygon fill="midnightblue" stroke="midnightblue" points="269.04,-252.67 274.89,-243.83 264.81,-247.1 269.04,-252.67"/>
</g>
<!-- Node5 -->
<g id="node5" class="node">
<title>Node5</title>
<g id="a_node5"><a xlink:title=" ">
<polygon fill="white" stroke="#bfbfbf" points="125.5,-224.5 125.5,-243.5 169.5,-243.5 169.5,-224.5 125.5,-224.5"/>
<text text-anchor="middle" x="147.5" y="-231.5" font-family="Helvetica,sans-Serif" font-size="10.00">SDL.h</text>
</a>
</g>
</g>
<!-- Node3&#45;&gt;Node5 -->
<g id="edge4" class="edge">
<title>Node3&#45;&gt;Node5</title>
<path fill="none" stroke="midnightblue" d="M204.57,-280.32C194.33,-272.18 178.78,-259.84 166.5,-250.09"/>
<polygon fill="midnightblue" stroke="midnightblue" points="168.63,-247.31 158.62,-243.83 164.28,-252.79 168.63,-247.31"/>
</g>
<!-- Node6 -->
<g id="node6" class="node">
<title>Node6</title>
<g id="a_node6"><a xlink:title=" ">
<polygon fill="white" stroke="#bfbfbf" points="187.5,-224.5 187.5,-243.5 243.5,-243.5 243.5,-224.5 187.5,-224.5"/>
<text text-anchor="middle" x="215.5" y="-231.5" font-family="Helvetica,sans-Serif" font-size="10.00">algorithm</text>
</a>
</g>
</g>
<!-- Node3&#45;&gt;Node6 -->
<g id="edge5" class="edge">
<title>Node3&#45;&gt;Node6</title>
<path fill="none" stroke="midnightblue" d="M215.5,-280.08C215.5,-273.01 215.5,-262.86 215.5,-253.99"/>
<polygon fill="midnightblue" stroke="midnightblue" points="219,-253.75 215.5,-243.75 212,-253.75 219,-253.75"/>
</g>
<!-- Node7 -->
<g id="node7" class="node">
<title>Node7</title>
<g id="a_node7"><a xlink:href="vec4_8h.html" target="_top" xlink:title=" ">
<polygon fill="white" stroke="black" points="27.5,-224.5 27.5,-243.5 107.5,-243.5 107.5,-224.5 27.5,-224.5"/>
<text text-anchor="middle" x="67.5" y="-231.5" font-family="Helvetica,sans-Serif" font-size="10.00">../math/vec4.h</text>
</a>
</g>
</g>
<!-- Node3&#45;&gt;Node7 -->
<g id="edge6" class="edge">
<title>Node3&#45;&gt;Node7</title>
<path fill="none" stroke="midnightblue" d="M192.05,-280.44C167.37,-271.44 128.31,-257.19 100.52,-247.05"/>
<polygon fill="midnightblue" stroke="midnightblue" points="101.44,-243.66 90.84,-243.52 99.04,-250.23 101.44,-243.66"/>
</g>
<!-- Node7&#45;&gt;Node2 -->
<g id="edge7" class="edge">
<title>Node7&#45;&gt;Node2</title>
<path fill="none" stroke="midnightblue" d="M79.93,-224.21C91.98,-215.5 110.58,-201.52 125.5,-188 163.03,-153.98 201.15,-108.02 220.49,-83.7"/>
<polygon fill="midnightblue" stroke="midnightblue" points="223.29,-85.8 226.74,-75.78 217.8,-81.47 223.29,-85.8"/>
</g>
<!-- Node8 -->
<g id="node8" class="node">
<title>Node8</title>
<g id="a_node8"><a xlink:title=" ">
<polygon fill="white" stroke="#bfbfbf" points="0,-56.5 0,-75.5 47,-75.5 47,-56.5 0,-56.5"/>
<text text-anchor="middle" x="23.5" y="-63.5" font-family="Helvetica,sans-Serif" font-size="10.00">math.h</text>
</a>
</g>
</g>
<!-- Node7&#45;&gt;Node8 -->
<g id="edge8" class="edge">
<title>Node7&#45;&gt;Node8</title>
<path fill="none" stroke="midnightblue" d="M65.13,-224.08C58.21,-197.95 37.87,-121.21 28.42,-85.58"/>
<polygon fill="midnightblue" stroke="midnightblue" points="31.72,-84.34 25.77,-75.57 24.95,-86.13 31.72,-84.34"/>
</g>
<!-- Node9 -->
<g id="node9" class="node">
<title>Node9</title>
<g id="a_node9"><a xlink:href="vec3_8h.html" target="_top" xlink:title=" ">
<polygon fill="white" stroke="black" points="70.5,-168.5 70.5,-187.5 116.5,-187.5 116.5,-168.5 70.5,-168.5"/>
<text text-anchor="middle" x="93.5" y="-175.5" font-family="Helvetica,sans-Serif" font-size="10.00">vec3.h</text>
</a>
</g>
</g>
<!-- Node7&#45;&gt;Node9 -->
<g id="edge9" class="edge">
<title>Node7&#45;&gt;Node9</title>
<path fill="none" stroke="midnightblue" d="M71.79,-224.08C75.35,-216.69 80.52,-205.95 84.92,-196.81"/>
<polygon fill="midnightblue" stroke="midnightblue" points="88.1,-198.28 89.29,-187.75 81.79,-195.24 88.1,-198.28"/>
</g>
<!-- Node9&#45;&gt;Node2 -->
<g id="edge10" class="edge">
<title>Node9&#45;&gt;Node2</title>
<path fill="none" stroke="midnightblue" d="M104.49,-168.37C128.31,-149.65 184.94,-105.15 214.62,-81.83"/>
<polygon fill="midnightblue" stroke="midnightblue" points="216.86,-84.52 222.57,-75.59 212.54,-79.02 216.86,-84.52"/>
</g>
<!-- Node9&#45;&gt;Node8 -->
<g id="edge11" class="edge">
<title>Node9&#45;&gt;Node8</title>
<path fill="none" stroke="midnightblue" d="M88.01,-168.37C76.51,-150.3 49.7,-108.18 34.51,-84.31"/>
<polygon fill="midnightblue" stroke="midnightblue" points="37.29,-82.15 28.97,-75.59 31.38,-85.91 37.29,-82.15"/>
</g>
<!-- Node10 -->
<g id="node10" class="node">
<title>Node10</title>
<g id="a_node10"><a xlink:href="vec2_8h.html" target="_top" xlink:title=" ">
<polygon fill="white" stroke="black" points="89.5,-112.5 89.5,-131.5 135.5,-131.5 135.5,-112.5 89.5,-112.5"/>
<text text-anchor="middle" x="112.5" y="-119.5" font-family="Helvetica,sans-Serif" font-size="10.00">vec2.h</text>
</a>
</g>
</g>
<!-- Node9&#45;&gt;Node10 -->
<g id="edge12" class="edge">
<title>Node9&#45;&gt;Node10</title>
<path fill="none" stroke="midnightblue" d="M96.64,-168.08C99.18,-160.85 102.86,-150.41 106.03,-141.4"/>
<polygon fill="midnightblue" stroke="midnightblue" points="109.4,-142.35 109.42,-131.75 102.8,-140.02 109.4,-142.35"/>
</g>
<!-- Node10&#45;&gt;Node2 -->
<g id="edge13" class="edge">
<title>Node10&#45;&gt;Node2</title>
<path fill="none" stroke="midnightblue" d="M131.67,-112.44C151.41,-103.64 182.39,-89.81 204.99,-79.72"/>
<polygon fill="midnightblue" stroke="midnightblue" points="206.71,-82.79 214.42,-75.52 203.86,-76.4 206.71,-82.79"/>
</g>
<!-- Node10&#45;&gt;Node8 -->
<g id="edge15" class="edge">
<title>Node10&#45;&gt;Node8</title>
<path fill="none" stroke="midnightblue" d="M98.2,-112.32C84.32,-103.9 63.01,-90.97 46.7,-81.07"/>
<polygon fill="midnightblue" stroke="midnightblue" points="48.13,-77.85 37.76,-75.65 44.5,-83.83 48.13,-77.85"/>
</g>
<!-- Node11 -->
<g id="node11" class="node">
<title>Node11</title>
<g id="a_node11"><a xlink:title=" ">
<polygon fill="white" stroke="#bfbfbf" points="47,-0.5 47,-19.5 106,-19.5 106,-0.5 47,-0.5"/>
<text text-anchor="middle" x="76.5" y="-7.5" font-family="Helvetica,sans-Serif" font-size="10.00">inttypes.h</text>
</a>
</g>
</g>
<!-- Node10&#45;&gt;Node11 -->
<g id="edge14" class="edge">
<title>Node10&#45;&gt;Node11</title>
<path fill="none" stroke="midnightblue" d="M108.76,-112.48C104.91,-103.51 98.86,-88.92 94.5,-76 89.29,-60.55 84.42,-42.68 81.07,-29.59"/>
<polygon fill="midnightblue" stroke="midnightblue" points="84.36,-28.35 78.54,-19.5 77.57,-30.06 84.36,-28.35"/>
</g>
<!-- Node12 -->
<g id="node12" class="node">
<title>Node12</title>
<g id="a_node12"><a xlink:href="float__compare_8h.html" target="_top" xlink:title=" ">
<polygon fill="white" stroke="black" points="103.5,-56.5 103.5,-75.5 189.5,-75.5 189.5,-56.5 103.5,-56.5"/>
<text text-anchor="middle" x="146.5" y="-63.5" font-family="Helvetica,sans-Serif" font-size="10.00">float_compare.h</text>
</a>
</g>
</g>
<!-- Node10&#45;&gt;Node12 -->
<g id="edge16" class="edge">
<title>Node10&#45;&gt;Node12</title>
<path fill="none" stroke="midnightblue" d="M118.11,-112.08C122.87,-104.53 129.82,-93.49 135.65,-84.23"/>
<polygon fill="midnightblue" stroke="midnightblue" points="138.62,-86.08 140.99,-75.75 132.7,-82.35 138.62,-86.08"/>
</g>
<!-- Node12&#45;&gt;Node11 -->
<g id="edge17" class="edge">
<title>Node12&#45;&gt;Node11</title>
<path fill="none" stroke="midnightblue" d="M135.25,-56.32C124.7,-48.18 108.7,-35.84 96.06,-26.09"/>
<polygon fill="midnightblue" stroke="midnightblue" points="98.01,-23.17 87.95,-19.83 93.73,-28.71 98.01,-23.17"/>
</g>
<!-- Node13 -->
<g id="node13" class="node">
<title>Node13</title>
<g id="a_node13"><a xlink:title=" ">
<polygon fill="white" stroke="#bfbfbf" points="124.5,-0.5 124.5,-19.5 168.5,-19.5 168.5,-0.5 124.5,-0.5"/>
<text text-anchor="middle" x="146.5" y="-7.5" font-family="Helvetica,sans-Serif" font-size="10.00">float.h</text>
</a>
</g>
</g>
<!-- Node12&#45;&gt;Node13 -->
<g id="edge18" class="edge">
<title>Node12&#45;&gt;Node13</title>
<path fill="none" stroke="midnightblue" d="M146.5,-56.08C146.5,-49.01 146.5,-38.86 146.5,-29.99"/>
<polygon fill="midnightblue" stroke="midnightblue" points="150,-29.75 146.5,-19.75 143,-29.75 150,-29.75"/>
</g>
</g>
</svg>
