<?xml version="1.0" encoding="UTF-8" standalone="no"?>
<!DOCTYPE svg PUBLIC "-//W3C//DTD SVG 1.1//EN"
 "http://www.w3.org/Graphics/SVG/1.1/DTD/svg11.dtd">
<!-- Generated by graphviz version 2.50.0 (20211204.2007)
 -->
<!-- Title: graphics_wrapper Pages: 1 -->
<svg width="134pt" height="167pt"
 viewBox="0.00 0.00 134.00 167.00" xmlns="http://www.w3.org/2000/svg" xmlns:xlink="http://www.w3.org/1999/xlink">
<g id="graph0" class="graph" transform="scale(1 1) rotate(0) translate(4 163)">
<title>graphics_wrapper</title>
<polygon fill="white" stroke="transparent" points="-4,4 -4,-163 130,-163 130,4 -4,4"/>
<g id="clust1" class="cluster">
<title>clusterdir_d44c64559bbebec7f509842c48db8b23</title>
<g id="a_clust1"><a xlink:href="dir_d44c64559bbebec7f509842c48db8b23.html" target="_top" xlink:title="include">
<polygon fill="#ddddee" stroke="black" points="8,-8 8,-151 118,-151 118,-8 8,-8"/>
<text text-anchor="middle" x="63" y="-139" font-family="Helvetica,sans-Serif" font-size="10.00">include</text>
</a>
</g>
</g>
<!-- dir_fba38f648377aa56ae5d69782adf9e53 -->
<g id="node1" class="node">
<title>dir_fba38f648377aa56ae5d69782adf9e53</title>
<g id="a_node1"><a xlink:href="dir_fba38f648377aa56ae5d69782adf9e53.html" target="_top" xlink:title="math">
<polygon fill="none" stroke="black" points="90,-124 36,-124 36,-88 90,-88 90,-124"/>
<text text-anchor="middle" x="63" y="-103.5" font-family="Helvetica,sans-Serif" font-size="10.00">math</text>
</a>
</g>
</g>
<!-- dir_777ad256f41216000caefed90a0270d9 -->
<g id="node2" class="node">
<title>dir_777ad256f41216000caefed90a0270d9</title>
<g id="a_node2"><a xlink:href="dir_777ad256f41216000caefed90a0270d9.html" target="_top" xlink:title="graphics_wrapper">
<polygon fill="#eeeeff" stroke="black" points="109.5,-52 16.5,-52 16.5,-16 109.5,-16 109.5,-52"/>
<text text-anchor="middle" x="63" y="-31.5" font-family="Helvetica,sans-Serif" font-size="10.00">graphics_wrapper</text>
</a>
</g>
</g>
<!-- dir_fba38f648377aa56ae5d69782adf9e53&#45;&gt;dir_777ad256f41216000caefed90a0270d9 -->
<g id="edge2" class="edge">
<title>dir_fba38f648377aa56ae5d69782adf9e53&#45;&gt;dir_777ad256f41216000caefed90a0270d9</title>
<path fill="none" stroke="black" d="M57.08,-87.7C56.29,-79.98 56.06,-70.71 56.4,-62.11"/>
<polygon fill="black" stroke="black" points="59.9,-62.32 57.1,-52.1 52.92,-61.84 59.9,-62.32"/>
<g id="a_edge2&#45;headlabel"><a xlink:href="dir_000006_000004.html" target="_top" xlink:title="2">
<text text-anchor="middle" x="62.48" y="-63.61" font-family="Helvetica,sans-Serif" font-size="10.00">2</text>
</a>
</g>
</g>
<!-- dir_777ad256f41216000caefed90a0270d9&#45;&gt;dir_fba38f648377aa56ae5d69782adf9e53 -->
<g id="edge1" class="edge">
<title>dir_777ad256f41216000caefed90a0270d9&#45;&gt;dir_fba38f648377aa56ae5d69782adf9e53</title>
<path fill="none" stroke="black" d="M68.9,-52.1C69.7,-59.79 69.94,-69.05 69.6,-77.67"/>
<polygon fill="black" stroke="black" points="66.11,-77.48 68.92,-87.7 73.09,-77.96 66.11,-77.48"/>
<g id="a_edge1&#45;headlabel"><a xlink:href="dir_000004_000006.html" target="_top" xlink:title="2">
<text text-anchor="middle" x="63.52" y="-71.2" font-family="Helvetica,sans-Serif" font-size="10.00">2</text>
</a>
</g>
</g>
</g>
</svg>
