<?xml version="1.0" encoding="UTF-8" standalone="no"?>
<!DOCTYPE svg PUBLIC "-//W3C//DTD SVG 1.1//EN"
 "http://www.w3.org/Graphics/SVG/1.1/DTD/svg11.dtd">
<!-- Generated by graphviz version 2.50.0 (20211204.2007)
 -->
<!-- Title: src Pages: 1 -->
<svg width="494pt" height="132pt"
 viewBox="0.00 0.00 494.00 132.00" xmlns="http://www.w3.org/2000/svg" xmlns:xlink="http://www.w3.org/1999/xlink">
<g id="graph0" class="graph" transform="scale(1 1) rotate(0) translate(4 128)">
<title>src</title>
<polygon fill="white" stroke="transparent" points="-4,4 -4,-128 490,-128 490,4 -4,4"/>
<g id="clust1" class="cluster">
<title>clusterdir_68267d1309a1af8e8297ef4c3efbcdba</title>
<g id="a_clust1"><a xlink:href="dir_68267d1309a1af8e8297ef4c3efbcdba.html" target="_top">
<polygon fill="#eeeeff" stroke="black" points="8,-64 8,-116 478,-116 478,-64 8,-64"/>
</a>
</g>
</g>
<!-- dir_68267d1309a1af8e8297ef4c3efbcdba -->
<g id="node1" class="node">
<title>dir_68267d1309a1af8e8297ef4c3efbcdba</title>
<text text-anchor="middle" x="443" y="-87.5" font-family="Helvetica,sans-Serif" font-size="10.00">src</text>
</g>
<!-- dir_5194e5fea318fda12687127c23f8aba1 -->
<g id="node2" class="node">
<title>dir_5194e5fea318fda12687127c23f8aba1</title>
<g id="a_node2"><a xlink:href="dir_5194e5fea318fda12687127c23f8aba1.html" target="_top" xlink:title="app">
<polygon fill="white" stroke="black" points="398,-108 344,-108 344,-72 398,-72 398,-108"/>
<text text-anchor="middle" x="371" y="-87.5" font-family="Helvetica,sans-Serif" font-size="10.00">app</text>
</a>
</g>
</g>
<!-- dir_d44c64559bbebec7f509842c48db8b23 -->
<g id="node7" class="node">
<title>dir_d44c64559bbebec7f509842c48db8b23</title>
<g id="a_node7"><a xlink:href="dir_d44c64559bbebec7f509842c48db8b23.html" target="_top" xlink:title="include">
<polygon fill="white" stroke="red" points="234,-36 180,-36 180,0 234,0 234,-36"/>
<text text-anchor="middle" x="207" y="-15.5" font-family="Helvetica,sans-Serif" font-size="10.00">include</text>
</a>
</g>
</g>
<!-- dir_5194e5fea318fda12687127c23f8aba1&#45;&gt;dir_d44c64559bbebec7f509842c48db8b23 -->
<g id="edge3" class="edge">
<title>dir_5194e5fea318fda12687127c23f8aba1&#45;&gt;dir_d44c64559bbebec7f509842c48db8b23</title>
<path fill="none" stroke="black" d="M348.33,-71.91C344.03,-69.05 339.47,-66.29 335,-64 305.65,-49 270.15,-36.95 243.98,-29.11"/>
<polygon fill="black" stroke="black" points="244.67,-25.67 234.09,-26.22 242.7,-32.39 244.67,-25.67"/>
<g id="a_edge3&#45;headlabel"><a xlink:href="dir_000009_000000.html" target="_top" xlink:title="2">
<text text-anchor="middle" x="248.92" y="-21.45" font-family="Helvetica,sans-Serif" font-size="10.00">2</text>
</a>
</g>
</g>
<!-- dir_14e1e259e8275dc0c459acef3bbf05ae -->
<g id="node3" class="node">
<title>dir_14e1e259e8275dc0c459acef3bbf05ae</title>
<g id="a_node3"><a xlink:href="dir_14e1e259e8275dc0c459acef3bbf05ae.html" target="_top" xlink:title="events">
<polygon fill="white" stroke="black" points="326,-108 272,-108 272,-72 326,-72 326,-108"/>
<text text-anchor="middle" x="299" y="-87.5" font-family="Helvetica,sans-Serif" font-size="10.00">events</text>
</a>
</g>
</g>
<!-- dir_14e1e259e8275dc0c459acef3bbf05ae&#45;&gt;dir_d44c64559bbebec7f509842c48db8b23 -->
<g id="edge1" class="edge">
<title>dir_14e1e259e8275dc0c459acef3bbf05ae&#45;&gt;dir_d44c64559bbebec7f509842c48db8b23</title>
<path fill="none" stroke="black" d="M276.26,-71.7C264.56,-62.8 250.14,-51.82 237.49,-42.2"/>
<polygon fill="black" stroke="black" points="239.56,-39.37 229.48,-36.1 235.32,-44.94 239.56,-39.37"/>
<g id="a_edge1&#45;headlabel"><a xlink:href="dir_000010_000000.html" target="_top" xlink:title="3">
<text text-anchor="middle" x="244.14" y="-36.79" font-family="Helvetica,sans-Serif" font-size="10.00">3</text>
</a>
</g>
</g>
<!-- dir_86a0165c900508477ba79759fe7adbc5 -->
<g id="node4" class="node">
<title>dir_86a0165c900508477ba79759fe7adbc5</title>
<g id="a_node4"><a xlink:href="dir_86a0165c900508477ba79759fe7adbc5.html" target="_top" xlink:title="graphics_wrapper">
<polygon fill="white" stroke="black" points="253.5,-108 160.5,-108 160.5,-72 253.5,-72 253.5,-108"/>
<text text-anchor="middle" x="207" y="-87.5" font-family="Helvetica,sans-Serif" font-size="10.00">graphics_wrapper</text>
</a>
</g>
</g>
<!-- dir_86a0165c900508477ba79759fe7adbc5&#45;&gt;dir_d44c64559bbebec7f509842c48db8b23 -->
<g id="edge4" class="edge">
<title>dir_86a0165c900508477ba79759fe7adbc5&#45;&gt;dir_d44c64559bbebec7f509842c48db8b23</title>
<path fill="none" stroke="black" d="M207,-71.7C207,-63.98 207,-54.71 207,-46.11"/>
<polygon fill="black" stroke="black" points="210.5,-46.1 207,-36.1 203.5,-46.1 210.5,-46.1"/>
<g id="a_edge4&#45;headlabel"><a xlink:href="dir_000011_000000.html" target="_top" xlink:title="9">
<text text-anchor="middle" x="213.34" y="-47.2" font-family="Helvetica,sans-Serif" font-size="10.00">9</text>
</a>
</g>
</g>
<!-- dir_ae9a93452e2a84339148a16bcf2eb561 -->
<g id="node5" class="node">
<title>dir_ae9a93452e2a84339148a16bcf2eb561</title>
<g id="a_node5"><a xlink:href="dir_ae9a93452e2a84339148a16bcf2eb561.html" target="_top" xlink:title="math">
<polygon fill="white" stroke="black" points="142,-108 88,-108 88,-72 142,-72 142,-108"/>
<text text-anchor="middle" x="115" y="-87.5" font-family="Helvetica,sans-Serif" font-size="10.00">math</text>
</a>
</g>
</g>
<!-- dir_ae9a93452e2a84339148a16bcf2eb561&#45;&gt;dir_d44c64559bbebec7f509842c48db8b23 -->
<g id="edge5" class="edge">
<title>dir_ae9a93452e2a84339148a16bcf2eb561&#45;&gt;dir_d44c64559bbebec7f509842c48db8b23</title>
<path fill="none" stroke="black" d="M137.74,-71.7C149.44,-62.8 163.86,-51.82 176.51,-42.2"/>
<polygon fill="black" stroke="black" points="178.68,-44.94 184.52,-36.1 174.44,-39.37 178.68,-44.94"/>
<g id="a_edge5&#45;headlabel"><a xlink:href="dir_000012_000000.html" target="_top" xlink:title="8">
<text text-anchor="middle" x="177.54" y="-46.88" font-family="Helvetica,sans-Serif" font-size="10.00">8</text>
</a>
</g>
</g>
<!-- dir_313caf1132e152dd9b58bea13a4052ca -->
<g id="node6" class="node">
<title>dir_313caf1132e152dd9b58bea13a4052ca</title>
<g id="a_node6"><a xlink:href="dir_313caf1132e152dd9b58bea13a4052ca.html" target="_top" xlink:title="utils">
<polygon fill="white" stroke="black" points="70,-108 16,-108 16,-72 70,-72 70,-108"/>
<text text-anchor="middle" x="43" y="-87.5" font-family="Helvetica,sans-Serif" font-size="10.00">utils</text>
</a>
</g>
</g>
<!-- dir_313caf1132e152dd9b58bea13a4052ca&#45;&gt;dir_d44c64559bbebec7f509842c48db8b23 -->
<g id="edge2" class="edge">
<title>dir_313caf1132e152dd9b58bea13a4052ca&#45;&gt;dir_d44c64559bbebec7f509842c48db8b23</title>
<path fill="none" stroke="black" d="M65.67,-71.91C69.97,-69.05 74.53,-66.29 79,-64 108.35,-49 143.85,-36.95 170.02,-29.11"/>
<polygon fill="black" stroke="black" points="171.3,-32.39 179.91,-26.22 169.33,-25.67 171.3,-32.39"/>
<g id="a_edge2&#45;headlabel"><a xlink:href="dir_000013_000000.html" target="_top" xlink:title="3">
<text text-anchor="middle" x="168.64" y="-33.62" font-family="Helvetica,sans-Serif" font-size="10.00">3</text>
</a>
</g>
</g>
</g>
</svg>
