<?xml version="1.0" encoding="UTF-8" standalone="no"?>
<!DOCTYPE svg PUBLIC "-//W3C//DTD SVG 1.1//EN"
 "http://www.w3.org/Graphics/SVG/1.1/DTD/svg11.dtd">
<!-- Generated by graphviz version 2.50.0 (20211204.2007)
 -->
<!-- Title: include Pages: 1 -->
<svg width="266pt" height="292pt"
 viewBox="0.00 0.00 266.00 292.00" xmlns="http://www.w3.org/2000/svg" xmlns:xlink="http://www.w3.org/1999/xlink">
<g id="graph0" class="graph" transform="scale(1 1) rotate(0) translate(4 288)">
<title>include</title>
<polygon fill="white" stroke="transparent" points="-4,4 -4,-288 262,-288 262,4 -4,4"/>
<g id="clust1" class="cluster">
<title>clusterdir_d44c64559bbebec7f509842c48db8b23</title>
<g id="a_clust1"><a xlink:href="dir_d44c64559bbebec7f509842c48db8b23.html" target="_top">
<polygon fill="#eeeeff" stroke="black" points="8,-8 8,-276 250,-276 250,-8 8,-8"/>
</a>
</g>
</g>
<!-- dir_d44c64559bbebec7f509842c48db8b23 -->
<g id="node1" class="node">
<title>dir_d44c64559bbebec7f509842c48db8b23</title>
<text text-anchor="middle" x="146" y="-247.5" font-family="Helvetica,sans-Serif" font-size="10.00">include</text>
</g>
<!-- dir_c35e9bb330ad51bde60aaf7a3563beec -->
<g id="node3" class="node">
<title>dir_c35e9bb330ad51bde60aaf7a3563beec</title>
<g id="a_node3"><a xlink:href="dir_c35e9bb330ad51bde60aaf7a3563beec.html" target="_top" xlink:title="containers">
<polygon fill="white" stroke="black" points="78,-196 16,-196 16,-160 78,-160 78,-196"/>
<text text-anchor="middle" x="47" y="-175.5" font-family="Helvetica,sans-Serif" font-size="10.00">containers</text>
</a>
</g>
</g>
<!-- dir_d44c64559bbebec7f509842c48db8b23&#45;&gt;dir_c35e9bb330ad51bde60aaf7a3563beec -->
<g id="edge7" class="edge">
<title>dir_d44c64559bbebec7f509842c48db8b23&#45;&gt;dir_c35e9bb330ad51bde60aaf7a3563beec</title>
<path fill="none" stroke="black" d="M121.78,-231.88C109.08,-222.89 93.34,-211.76 79.58,-202.03"/>
<polygon fill="black" stroke="black" points="81.5,-199.11 71.31,-196.19 77.46,-204.82 81.5,-199.11"/>
<g id="a_edge7&#45;headlabel"><a xlink:href="dir_000000_000002.html" target="_top" xlink:title="3">
<text text-anchor="middle" x="86.07" y="-196.36" font-family="Helvetica,sans-Serif" font-size="10.00">3</text>
</a>
</g>
</g>
<!-- dir_c33611b4dec78f96017d2ccf425d656a -->
<g id="node4" class="node">
<title>dir_c33611b4dec78f96017d2ccf425d656a</title>
<g id="a_node4"><a xlink:href="dir_c33611b4dec78f96017d2ccf425d656a.html" target="_top" xlink:title="events">
<polygon fill="white" stroke="black" points="150,-196 96,-196 96,-160 150,-160 150,-196"/>
<text text-anchor="middle" x="123" y="-175.5" font-family="Helvetica,sans-Serif" font-size="10.00">events</text>
</a>
</g>
</g>
<!-- dir_d44c64559bbebec7f509842c48db8b23&#45;&gt;dir_c33611b4dec78f96017d2ccf425d656a -->
<g id="edge6" class="edge">
<title>dir_d44c64559bbebec7f509842c48db8b23&#45;&gt;dir_c33611b4dec78f96017d2ccf425d656a</title>
<path fill="none" stroke="black" d="M140.31,-231.7C137.75,-223.9 134.67,-214.51 131.82,-205.83"/>
<polygon fill="black" stroke="black" points="135.07,-204.51 128.62,-196.1 128.42,-206.7 135.07,-204.51"/>
<g id="a_edge6&#45;headlabel"><a xlink:href="dir_000000_000003.html" target="_top" xlink:title="3">
<text text-anchor="middle" x="138.89" y="-204.54" font-family="Helvetica,sans-Serif" font-size="10.00">3</text>
</a>
</g>
</g>
<!-- dir_777ad256f41216000caefed90a0270d9 -->
<g id="node5" class="node">
<title>dir_777ad256f41216000caefed90a0270d9</title>
<g id="a_node5"><a xlink:href="dir_777ad256f41216000caefed90a0270d9.html" target="_top" xlink:title="graphics_wrapper">
<polygon fill="white" stroke="black" points="109.5,-52 16.5,-52 16.5,-16 109.5,-16 109.5,-52"/>
<text text-anchor="middle" x="63" y="-31.5" font-family="Helvetica,sans-Serif" font-size="10.00">graphics_wrapper</text>
</a>
</g>
</g>
<!-- dir_d44c64559bbebec7f509842c48db8b23&#45;&gt;dir_777ad256f41216000caefed90a0270d9 -->
<g id="edge5" class="edge">
<title>dir_d44c64559bbebec7f509842c48db8b23&#45;&gt;dir_777ad256f41216000caefed90a0270d9</title>
<path fill="none" stroke="black" d="M153.55,-231.56C165.8,-200.35 186.08,-133.88 159,-88 149.94,-72.65 134.67,-61.44 118.94,-53.39"/>
<polygon fill="black" stroke="black" points="120.2,-50.12 109.67,-49.01 117.21,-56.45 120.2,-50.12"/>
<g id="a_edge5&#45;headlabel"><a xlink:href="dir_000000_000004.html" target="_top" xlink:title="8">
<text text-anchor="middle" x="124.67" y="-46.59" font-family="Helvetica,sans-Serif" font-size="10.00">8</text>
</a>
</g>
</g>
<!-- dir_7188461832bb92671066220d237ea5f7 -->
<g id="node6" class="node">
<title>dir_7188461832bb92671066220d237ea5f7</title>
<g id="a_node6"><a xlink:href="dir_7188461832bb92671066220d237ea5f7.html" target="_top" xlink:title="logging">
<polygon fill="white" stroke="black" points="242,-196 188,-196 188,-160 242,-160 242,-196"/>
<text text-anchor="middle" x="215" y="-175.5" font-family="Helvetica,sans-Serif" font-size="10.00">logging</text>
</a>
</g>
</g>
<!-- dir_d44c64559bbebec7f509842c48db8b23&#45;&gt;dir_7188461832bb92671066220d237ea5f7 -->
<g id="edge4" class="edge">
<title>dir_d44c64559bbebec7f509842c48db8b23&#45;&gt;dir_7188461832bb92671066220d237ea5f7</title>
<path fill="none" stroke="black" d="M163.06,-231.7C171.5,-223.14 181.82,-212.66 191.04,-203.3"/>
<polygon fill="black" stroke="black" points="193.61,-205.68 198.14,-196.1 188.63,-200.77 193.61,-205.68"/>
<g id="a_edge4&#45;headlabel"><a xlink:href="dir_000000_000005.html" target="_top" xlink:title="1">
<text text-anchor="middle" x="193.11" y="-207.74" font-family="Helvetica,sans-Serif" font-size="10.00">1</text>
</a>
</g>
</g>
<!-- dir_98ff7954eb3842da01d2ae02361edfa5 -->
<g id="node2" class="node">
<title>dir_98ff7954eb3842da01d2ae02361edfa5</title>
<g id="a_node2"><a xlink:href="dir_98ff7954eb3842da01d2ae02361edfa5.html" target="_top" xlink:title="app">
<polygon fill="white" stroke="black" points="97,-268 43,-268 43,-232 97,-232 97,-268"/>
<text text-anchor="middle" x="70" y="-247.5" font-family="Helvetica,sans-Serif" font-size="10.00">app</text>
</a>
</g>
</g>
<!-- dir_fba38f648377aa56ae5d69782adf9e53 -->
<g id="node7" class="node">
<title>dir_fba38f648377aa56ae5d69782adf9e53</title>
<g id="a_node7"><a xlink:href="dir_fba38f648377aa56ae5d69782adf9e53.html" target="_top" xlink:title="math">
<polygon fill="white" stroke="black" points="78,-124 24,-124 24,-88 78,-88 78,-124"/>
<text text-anchor="middle" x="51" y="-103.5" font-family="Helvetica,sans-Serif" font-size="10.00">math</text>
</a>
</g>
</g>
<!-- dir_c33611b4dec78f96017d2ccf425d656a&#45;&gt;dir_fba38f648377aa56ae5d69782adf9e53 -->
<g id="edge3" class="edge">
<title>dir_c33611b4dec78f96017d2ccf425d656a&#45;&gt;dir_fba38f648377aa56ae5d69782adf9e53</title>
<path fill="none" stroke="black" d="M105.2,-159.7C96.4,-151.14 85.62,-140.66 76,-131.3"/>
<polygon fill="black" stroke="black" points="78.2,-128.57 68.59,-124.1 73.32,-133.58 78.2,-128.57"/>
<g id="a_edge3&#45;headlabel"><a xlink:href="dir_000003_000006.html" target="_top" xlink:title="1">
<text text-anchor="middle" x="82.76" y="-126.54" font-family="Helvetica,sans-Serif" font-size="10.00">1</text>
</a>
</g>
</g>
<!-- dir_821002d4f10779a80d4fb17bc32f21f1 -->
<g id="node8" class="node">
<title>dir_821002d4f10779a80d4fb17bc32f21f1</title>
<g id="a_node8"><a xlink:href="dir_821002d4f10779a80d4fb17bc32f21f1.html" target="_top" xlink:title="utils">
<polygon fill="white" stroke="black" points="150,-124 96,-124 96,-88 150,-88 150,-124"/>
<text text-anchor="middle" x="123" y="-103.5" font-family="Helvetica,sans-Serif" font-size="10.00">utils</text>
</a>
</g>
</g>
<!-- dir_c33611b4dec78f96017d2ccf425d656a&#45;&gt;dir_821002d4f10779a80d4fb17bc32f21f1 -->
<g id="edge2" class="edge">
<title>dir_c33611b4dec78f96017d2ccf425d656a&#45;&gt;dir_821002d4f10779a80d4fb17bc32f21f1</title>
<path fill="none" stroke="black" d="M123,-159.7C123,-151.98 123,-142.71 123,-134.11"/>
<polygon fill="black" stroke="black" points="126.5,-134.1 123,-124.1 119.5,-134.1 126.5,-134.1"/>
<g id="a_edge2&#45;headlabel"><a xlink:href="dir_000003_000007.html" target="_top" xlink:title="2">
<text text-anchor="middle" x="129.34" y="-135.2" font-family="Helvetica,sans-Serif" font-size="10.00">2</text>
</a>
</g>
</g>
<!-- dir_777ad256f41216000caefed90a0270d9&#45;&gt;dir_fba38f648377aa56ae5d69782adf9e53 -->
<g id="edge1" class="edge">
<title>dir_777ad256f41216000caefed90a0270d9&#45;&gt;dir_fba38f648377aa56ae5d69782adf9e53</title>
<path fill="none" stroke="black" d="M65.96,-52.1C65.44,-59.88 64.07,-69.26 62.23,-77.95"/>
<polygon fill="black" stroke="black" points="58.82,-77.16 59.88,-87.7 65.63,-78.79 58.82,-77.16"/>
<g id="a_edge1&#45;headlabel"><a xlink:href="dir_000004_000006.html" target="_top" xlink:title="2">
<text text-anchor="middle" x="56.9" y="-70.5" font-family="Helvetica,sans-Serif" font-size="10.00">2</text>
</a>
</g>
</g>
<!-- dir_fba38f648377aa56ae5d69782adf9e53&#45;&gt;dir_777ad256f41216000caefed90a0270d9 -->
<g id="edge8" class="edge">
<title>dir_fba38f648377aa56ae5d69782adf9e53&#45;&gt;dir_777ad256f41216000caefed90a0270d9</title>
<path fill="none" stroke="black" d="M48.05,-87.7C48.58,-79.9 49.97,-70.51 51.82,-61.83"/>
<polygon fill="black" stroke="black" points="55.22,-62.65 54.17,-52.1 48.42,-61 55.22,-62.65"/>
<g id="a_edge8&#45;headlabel"><a xlink:href="dir_000006_000004.html" target="_top" xlink:title="2">
<text text-anchor="middle" x="57.13" y="-64.31" font-family="Helvetica,sans-Serif" font-size="10.00">2</text>
</a>
</g>
</g>
</g>
</svg>
