<?xml version="1.0" encoding="UTF-8" standalone="no"?>
<!DOCTYPE svg PUBLIC "-//W3C//DTD SVG 1.1//EN"
 "http://www.w3.org/Graphics/SVG/1.1/DTD/svg11.dtd">
<!-- Generated by graphviz version 2.50.0 (20211204.2007)
 -->
<!-- Title: dynamic_array.h Pages: 1 -->
<svg width="218pt" height="140pt"
 viewBox="0.00 0.00 217.50 140.00" xmlns="http://www.w3.org/2000/svg" xmlns:xlink="http://www.w3.org/1999/xlink">
<g id="graph0" class="graph" transform="scale(1 1) rotate(0) translate(4 136)">
<title>dynamic_array.h</title>
<polygon fill="white" stroke="transparent" points="-4,4 -4,-136 213.5,-136 213.5,4 -4,4"/>
<!-- Node1 -->
<g id="node1" class="node">
<title>Node1</title>
<g id="a_node1"><a xlink:title="General dynamic array container.">
<polygon fill="#bfbfbf" stroke="black" points="63.5,-112.5 63.5,-131.5 150.5,-131.5 150.5,-112.5 63.5,-112.5"/>
<text text-anchor="middle" x="107" y="-119.5" font-family="Helvetica,sans-Serif" font-size="10.00">dynamic_array.h</text>
</a>
</g>
</g>
<!-- Node2 -->
<g id="node2" class="node">
<title>Node2</title>
<g id="a_node2"><a xlink:title=" ">
<polygon fill="white" stroke="#bfbfbf" points="0,-0.5 0,-19.5 52,-19.5 52,-0.5 0,-0.5"/>
<text text-anchor="middle" x="26" y="-7.5" font-family="Helvetica,sans-Serif" font-size="10.00">assert.h</text>
</a>
</g>
</g>
<!-- Node1&#45;&gt;Node2 -->
<g id="edge1" class="edge">
<title>Node1&#45;&gt;Node2</title>
<path fill="none" stroke="midnightblue" d="M92,-112.43C79.24,-104.46 61.26,-91.51 50,-76 39.85,-62.02 33.53,-43.27 29.95,-29.5"/>
<polygon fill="midnightblue" stroke="midnightblue" points="33.34,-28.64 27.63,-19.71 26.53,-30.25 33.34,-28.64"/>
</g>
<!-- Node3 -->
<g id="node3" class="node">
<title>Node3</title>
<g id="a_node3"><a xlink:title=" ">
<polygon fill="white" stroke="#bfbfbf" points="70,-0.5 70,-19.5 118,-19.5 118,-0.5 70,-0.5"/>
<text text-anchor="middle" x="94" y="-7.5" font-family="Helvetica,sans-Serif" font-size="10.00">stdlib.h</text>
</a>
</g>
</g>
<!-- Node1&#45;&gt;Node3 -->
<g id="edge2" class="edge">
<title>Node1&#45;&gt;Node3</title>
<path fill="none" stroke="midnightblue" d="M109.61,-112.5C113.06,-100 118.24,-75.98 114,-56 112,-46.59 107.9,-36.76 103.93,-28.7"/>
<polygon fill="midnightblue" stroke="midnightblue" points="106.89,-26.81 99.13,-19.59 100.69,-30.07 106.89,-26.81"/>
</g>
<!-- Node4 -->
<g id="node4" class="node">
<title>Node4</title>
<g id="a_node4"><a xlink:title=" ">
<polygon fill="white" stroke="#bfbfbf" points="136.5,-0.5 136.5,-19.5 209.5,-19.5 209.5,-0.5 136.5,-0.5"/>
<text text-anchor="middle" x="173" y="-7.5" font-family="Helvetica,sans-Serif" font-size="10.00">initializer_list</text>
</a>
</g>
</g>
<!-- Node1&#45;&gt;Node4 -->
<g id="edge3" class="edge">
<title>Node1&#45;&gt;Node4</title>
<path fill="none" stroke="midnightblue" d="M112.18,-112.37C123.02,-94.3 148.29,-52.18 162.62,-28.31"/>
<polygon fill="midnightblue" stroke="midnightblue" points="165.7,-29.97 167.85,-19.59 159.7,-26.37 165.7,-29.97"/>
</g>
<!-- Node5 -->
<g id="node5" class="node">
<title>Node5</title>
<g id="a_node5"><a xlink:href="array_8h.html" target="_top" xlink:title=" ">
<polygon fill="white" stroke="black" points="59.5,-56.5 59.5,-75.5 104.5,-75.5 104.5,-56.5 59.5,-56.5"/>
<text text-anchor="middle" x="82" y="-63.5" font-family="Helvetica,sans-Serif" font-size="10.00">array.h</text>
</a>
</g>
</g>
<!-- Node1&#45;&gt;Node5 -->
<g id="edge4" class="edge">
<title>Node1&#45;&gt;Node5</title>
<path fill="none" stroke="midnightblue" d="M102.87,-112.08C99.49,-104.77 94.58,-94.18 90.38,-85.1"/>
<polygon fill="midnightblue" stroke="midnightblue" points="93.43,-83.36 86.05,-75.75 87.08,-86.3 93.43,-83.36"/>
</g>
<!-- Node5&#45;&gt;Node2 -->
<g id="edge5" class="edge">
<title>Node5&#45;&gt;Node2</title>
<path fill="none" stroke="midnightblue" d="M73,-56.32C64.81,-48.42 52.49,-36.55 42.53,-26.94"/>
<polygon fill="midnightblue" stroke="midnightblue" points="44.79,-24.26 35.16,-19.83 39.93,-29.29 44.79,-24.26"/>
</g>
<!-- Node5&#45;&gt;Node3 -->
<g id="edge6" class="edge">
<title>Node5&#45;&gt;Node3</title>
<path fill="none" stroke="midnightblue" d="M83.98,-56.08C85.57,-48.93 87.86,-38.64 89.85,-29.69"/>
<polygon fill="midnightblue" stroke="midnightblue" points="93.3,-30.27 92.06,-19.75 86.47,-28.75 93.3,-30.27"/>
</g>
<!-- Node5&#45;&gt;Node4 -->
<g id="edge7" class="edge">
<title>Node5&#45;&gt;Node4</title>
<path fill="none" stroke="midnightblue" d="M96.62,-56.32C110.95,-47.82 133.01,-34.73 149.75,-24.8"/>
<polygon fill="midnightblue" stroke="midnightblue" points="151.6,-27.77 158.42,-19.65 148.03,-21.75 151.6,-27.77"/>
</g>
</g>
</svg>
