<?xml version="1.0" encoding="UTF-8" standalone="no"?>
<!DOCTYPE svg PUBLIC "-//W3C//DTD SVG 1.1//EN"
 "http://www.w3.org/Graphics/SVG/1.1/DTD/svg11.dtd">
<!-- Generated by graphviz version 2.50.0 (20211204.2007)
 -->
<!-- Title: event.h Pages: 1 -->
<svg width="408pt" height="252pt"
 viewBox="0.00 0.00 407.50 252.00" xmlns="http://www.w3.org/2000/svg" xmlns:xlink="http://www.w3.org/1999/xlink">
<g id="graph0" class="graph" transform="scale(1 1) rotate(0) translate(4 248)">
<title>event.h</title>
<polygon fill="white" stroke="transparent" points="-4,4 -4,-248 403.5,-248 403.5,4 -4,4"/>
<!-- Node1 -->
<g id="node1" class="node">
<title>Node1</title>
<g id="a_node1"><a xlink:title=" ">
<polygon fill="#bfbfbf" stroke="black" points="143.5,-224.5 143.5,-243.5 192.5,-243.5 192.5,-224.5 143.5,-224.5"/>
<text text-anchor="middle" x="168" y="-231.5" font-family="Helvetica,sans-Serif" font-size="10.00">event.h</text>
</a>
</g>
</g>
<!-- Node2 -->
<g id="node2" class="node">
<title>Node2</title>
<g id="a_node2"><a xlink:href="event__dispatching_8h.html" target="_top" xlink:title=" ">
<polygon fill="white" stroke="black" points="0,-168.5 0,-187.5 104,-187.5 104,-168.5 0,-168.5"/>
<text text-anchor="middle" x="52" y="-175.5" font-family="Helvetica,sans-Serif" font-size="10.00">event_dispatching.h</text>
</a>
</g>
</g>
<!-- Node1&#45;&gt;Node2 -->
<g id="edge1" class="edge">
<title>Node1&#45;&gt;Node2</title>
<path fill="none" stroke="midnightblue" d="M140.28,-220.1C118.61,-210.01 89.1,-196.27 70.29,-187.52"/>
<polygon fill="midnightblue" stroke="midnightblue" points="139.08,-223.4 149.62,-224.44 142.03,-217.05 139.08,-223.4"/>
</g>
<!-- Node3 -->
<g id="node3" class="node">
<title>Node3</title>
<g id="a_node3"><a xlink:href="listener__notifier_8h.html" target="_top" xlink:title=" ">
<polygon fill="white" stroke="black" points="160,-168.5 160,-187.5 250,-187.5 250,-168.5 160,-168.5"/>
<text text-anchor="middle" x="205" y="-175.5" font-family="Helvetica,sans-Serif" font-size="10.00">listener_notifier.h</text>
</a>
</g>
</g>
<!-- Node1&#45;&gt;Node3 -->
<g id="edge2" class="edge">
<title>Node1&#45;&gt;Node3</title>
<path fill="none" stroke="midnightblue" d="M179.95,-215.57C186.31,-206.27 193.87,-195.25 199,-187.75"/>
<polygon fill="midnightblue" stroke="midnightblue" points="176.87,-213.86 174.11,-224.08 182.65,-217.81 176.87,-213.86"/>
</g>
<!-- Node7 -->
<g id="node7" class="node">
<title>Node7</title>
<g id="a_node7"><a xlink:href="sml__events_8h.html" target="_top" xlink:title=" ">
<polygon fill="white" stroke="black" points="324.5,-0.5 324.5,-19.5 399.5,-19.5 399.5,-0.5 324.5,-0.5"/>
<text text-anchor="middle" x="362" y="-7.5" font-family="Helvetica,sans-Serif" font-size="10.00">sml_events.h</text>
</a>
</g>
</g>
<!-- Node1&#45;&gt;Node7 -->
<g id="edge11" class="edge">
<title>Node1&#45;&gt;Node7</title>
<path fill="none" stroke="midnightblue" d="M200.8,-220.47C236.16,-205.18 291.22,-175.81 320,-132 344.78,-94.27 356.67,-40.29 360.53,-19.56"/>
<polygon fill="midnightblue" stroke="midnightblue" points="199.26,-217.32 191.39,-224.42 201.96,-223.78 199.26,-217.32"/>
</g>
<!-- Node9 -->
<g id="node9" class="node">
<title>Node9</title>
<g id="a_node9"><a xlink:href="system__events_8h.html" target="_top" xlink:title=" ">
<polygon fill="white" stroke="black" points="46,-112.5 46,-131.5 138,-131.5 138,-112.5 46,-112.5"/>
<text text-anchor="middle" x="92" y="-119.5" font-family="Helvetica,sans-Serif" font-size="10.00">system_events.h</text>
</a>
</g>
</g>
<!-- Node1&#45;&gt;Node9 -->
<g id="edge12" class="edge">
<title>Node1&#45;&gt;Node9</title>
<path fill="none" stroke="midnightblue" d="M156.22,-215.96C139.75,-192.12 110.45,-149.71 97.94,-131.59"/>
<polygon fill="midnightblue" stroke="midnightblue" points="153.47,-218.13 162.04,-224.37 159.23,-214.15 153.47,-218.13"/>
</g>
<!-- Node4 -->
<g id="node4" class="node">
<title>Node4</title>
<g id="a_node4"><a xlink:href="listener__notifier_8cpp.html" target="_top" xlink:title=" ">
<polygon fill="white" stroke="black" points="194.5,-112.5 194.5,-131.5 295.5,-131.5 295.5,-112.5 194.5,-112.5"/>
<text text-anchor="middle" x="245" y="-119.5" font-family="Helvetica,sans-Serif" font-size="10.00">listener_notifier.cpp</text>
</a>
</g>
</g>
<!-- Node3&#45;&gt;Node4 -->
<g id="edge3" class="edge">
<title>Node3&#45;&gt;Node4</title>
<path fill="none" stroke="midnightblue" d="M217.7,-159.86C224.63,-150.5 232.91,-139.33 238.52,-131.75"/>
<polygon fill="midnightblue" stroke="midnightblue" points="214.75,-157.96 211.61,-168.08 220.37,-162.13 214.75,-157.96"/>
</g>
<!-- Node5 -->
<g id="node5" class="node">
<title>Node5</title>
<g id="a_node5"><a xlink:href="observable__property_8h.html" target="_top" xlink:title=" ">
<polygon fill="white" stroke="black" points="56.5,-56.5 56.5,-75.5 167.5,-75.5 167.5,-56.5 56.5,-56.5"/>
<text text-anchor="middle" x="112" y="-63.5" font-family="Helvetica,sans-Serif" font-size="10.00">observable_property.h</text>
</a>
</g>
</g>
<!-- Node3&#45;&gt;Node5 -->
<g id="edge4" class="edge">
<title>Node3&#45;&gt;Node5</title>
<path fill="none" stroke="midnightblue" d="M191.12,-160.59C171.07,-136.87 134.72,-93.87 119.26,-75.59"/>
<polygon fill="midnightblue" stroke="midnightblue" points="188.57,-162.99 197.7,-168.37 193.92,-158.47 188.57,-162.99"/>
</g>
<!-- Node6 -->
<g id="node6" class="node">
<title>Node6</title>
<g id="a_node6"><a xlink:href="system__event__manager_8h.html" target="_top" xlink:title=" ">
<polygon fill="white" stroke="black" points="189,-56.5 189,-75.5 317,-75.5 317,-56.5 189,-56.5"/>
<text text-anchor="middle" x="253" y="-63.5" font-family="Helvetica,sans-Serif" font-size="10.00">system_event_manager.h</text>
</a>
</g>
</g>
<!-- Node3&#45;&gt;Node6 -->
<g id="edge5" class="edge">
<title>Node3&#45;&gt;Node6</title>
<path fill="none" stroke="midnightblue" d="M259.42,-165.13C277,-158.43 294.62,-148.05 305,-132 318.89,-110.52 288.71,-87.67 268.77,-75.61"/>
<polygon fill="midnightblue" stroke="midnightblue" points="258.01,-161.91 249.7,-168.48 260.29,-168.53 258.01,-161.91"/>
</g>
<!-- Node3&#45;&gt;Node9 -->
<g id="edge8" class="edge">
<title>Node3&#45;&gt;Node9</title>
<path fill="none" stroke="midnightblue" d="M178,-164.1C156.89,-154.01 128.14,-140.27 109.82,-131.52"/>
<polygon fill="midnightblue" stroke="midnightblue" points="176.56,-167.29 187.09,-168.44 179.58,-160.97 176.56,-167.29"/>
</g>
<!-- Node6&#45;&gt;Node7 -->
<g id="edge6" class="edge">
<title>Node6&#45;&gt;Node7</title>
<path fill="none" stroke="midnightblue" d="M279.52,-51.86C299.73,-41.85 326.99,-28.35 344.53,-19.65"/>
<polygon fill="midnightblue" stroke="midnightblue" points="277.92,-48.75 270.51,-56.32 281.03,-55.02 277.92,-48.75"/>
</g>
<!-- Node8 -->
<g id="node8" class="node">
<title>Node8</title>
<g id="a_node8"><a xlink:href="system__event__manager_8cpp.html" target="_top" xlink:title=" ">
<polygon fill="white" stroke="black" points="167.5,-0.5 167.5,-19.5 306.5,-19.5 306.5,-0.5 167.5,-0.5"/>
<text text-anchor="middle" x="237" y="-7.5" font-family="Helvetica,sans-Serif" font-size="10.00">system_event_manager.cpp</text>
</a>
</g>
</g>
<!-- Node6&#45;&gt;Node8 -->
<g id="edge7" class="edge">
<title>Node6&#45;&gt;Node8</title>
<path fill="none" stroke="midnightblue" d="M247.49,-46.4C244.81,-37.36 241.72,-26.94 239.59,-19.75"/>
<polygon fill="midnightblue" stroke="midnightblue" points="244.16,-47.49 250.36,-56.08 250.87,-45.5 244.16,-47.49"/>
</g>
<!-- Node9&#45;&gt;Node5 -->
<g id="edge9" class="edge">
<title>Node9&#45;&gt;Node5</title>
<path fill="none" stroke="midnightblue" d="M98.78,-102.69C102.15,-93.59 106.07,-83.01 108.76,-75.75"/>
<polygon fill="midnightblue" stroke="midnightblue" points="95.49,-101.49 95.3,-112.08 102.06,-103.92 95.49,-101.49"/>
</g>
<!-- Node9&#45;&gt;Node6 -->
<g id="edge10" class="edge">
<title>Node9&#45;&gt;Node6</title>
<path fill="none" stroke="midnightblue" d="M127.26,-109.17C157.58,-99 200.57,-84.59 227.61,-75.52"/>
<polygon fill="midnightblue" stroke="midnightblue" points="125.88,-105.95 117.51,-112.44 128.1,-112.58 125.88,-105.95"/>
</g>
</g>
</svg>
