<?xml version="1.0" encoding="UTF-8" standalone="no"?>
<!DOCTYPE svg PUBLIC "-//W3C//DTD SVG 1.1//EN"
 "http://www.w3.org/Graphics/SVG/1.1/DTD/svg11.dtd">
<!-- Generated by graphviz version 2.50.0 (20211204.2007)
 -->
<!-- Title: float_compare.h Pages: 1 -->
<svg width="929pt" height="588pt"
 viewBox="0.00 0.00 929.00 588.00" xmlns="http://www.w3.org/2000/svg" xmlns:xlink="http://www.w3.org/1999/xlink">
<g id="graph0" class="graph" transform="scale(1 1) rotate(0) translate(4 584)">
<title>float_compare.h</title>
<polygon fill="white" stroke="transparent" points="-4,4 -4,-584 925,-584 925,4 -4,4"/>
<!-- Node1 -->
<g id="node1" class="node">
<title>Node1</title>
<g id="a_node1"><a xlink:title=" ">
<polygon fill="#bfbfbf" stroke="black" points="243.5,-560.5 243.5,-579.5 329.5,-579.5 329.5,-560.5 243.5,-560.5"/>
<text text-anchor="middle" x="286.5" y="-567.5" font-family="Helvetica,sans-Serif" font-size="10.00">float_compare.h</text>
</a>
</g>
</g>
<!-- Node2 -->
<g id="node2" class="node">
<title>Node2</title>
<g id="a_node2"><a xlink:href="float__compare_8cpp.html" target="_top" xlink:title=" ">
<polygon fill="white" stroke="black" points="123,-504.5 123,-523.5 220,-523.5 220,-504.5 123,-504.5"/>
<text text-anchor="middle" x="171.5" y="-511.5" font-family="Helvetica,sans-Serif" font-size="10.00">float_compare.cpp</text>
</a>
</g>
</g>
<!-- Node1&#45;&gt;Node2 -->
<g id="edge1" class="edge">
<title>Node1&#45;&gt;Node2</title>
<path fill="none" stroke="midnightblue" d="M259.02,-556.1C237.53,-546.01 208.28,-532.27 189.64,-523.52"/>
<polygon fill="midnightblue" stroke="midnightblue" points="257.74,-559.36 268.28,-560.44 260.71,-553.02 257.74,-559.36"/>
</g>
<!-- Node3 -->
<g id="node3" class="node">
<title>Node3</title>
<g id="a_node3"><a xlink:href="sml__math_8h.html" target="_top" xlink:title=" ">
<polygon fill="white" stroke="black" points="251.5,-336.5 251.5,-355.5 319.5,-355.5 319.5,-336.5 251.5,-336.5"/>
<text text-anchor="middle" x="285.5" y="-343.5" font-family="Helvetica,sans-Serif" font-size="10.00">sml_math.h</text>
</a>
</g>
</g>
<!-- Node1&#45;&gt;Node3 -->
<g id="edge2" class="edge">
<title>Node1&#45;&gt;Node3</title>
<path fill="none" stroke="midnightblue" d="M286.42,-550.3C286.21,-504.64 285.69,-388.85 285.54,-355.88"/>
<polygon fill="midnightblue" stroke="midnightblue" points="282.92,-550.31 286.46,-560.3 289.92,-550.28 282.92,-550.31"/>
</g>
<!-- Node19 -->
<g id="node19" class="node">
<title>Node19</title>
<g id="a_node19"><a xlink:href="solve__equation_8cpp.html" target="_top" xlink:title=" ">
<polygon fill="white" stroke="black" points="366,-504.5 366,-523.5 467,-523.5 467,-504.5 366,-504.5"/>
<text text-anchor="middle" x="416.5" y="-511.5" font-family="Helvetica,sans-Serif" font-size="10.00">solve_equation.cpp</text>
</a>
</g>
</g>
<!-- Node1&#45;&gt;Node19 -->
<g id="edge23" class="edge">
<title>Node1&#45;&gt;Node19</title>
<path fill="none" stroke="midnightblue" d="M316.59,-556.5C340.96,-546.38 374.64,-532.39 396,-523.52"/>
<polygon fill="midnightblue" stroke="midnightblue" points="314.99,-553.38 307.1,-560.44 317.68,-559.84 314.99,-553.38"/>
</g>
<!-- Node20 -->
<g id="node20" class="node">
<title>Node20</title>
<g id="a_node20"><a xlink:href="vec2_8h.html" target="_top" xlink:title=" ">
<polygon fill="white" stroke="black" points="301.5,-504.5 301.5,-523.5 347.5,-523.5 347.5,-504.5 301.5,-504.5"/>
<text text-anchor="middle" x="324.5" y="-511.5" font-family="Helvetica,sans-Serif" font-size="10.00">vec2.h</text>
</a>
</g>
</g>
<!-- Node1&#45;&gt;Node20 -->
<g id="edge24" class="edge">
<title>Node1&#45;&gt;Node20</title>
<path fill="none" stroke="midnightblue" d="M298.56,-551.86C305.14,-542.5 313.01,-531.33 318.34,-523.75"/>
<polygon fill="midnightblue" stroke="midnightblue" points="295.67,-549.89 292.77,-560.08 301.39,-553.92 295.67,-549.89"/>
</g>
<!-- Node4 -->
<g id="node4" class="node">
<title>Node4</title>
<g id="a_node4"><a xlink:href="renderer_8h.html" target="_top" xlink:title=" ">
<polygon fill="white" stroke="black" points="246,-224.5 246,-243.5 305,-243.5 305,-224.5 246,-224.5"/>
<text text-anchor="middle" x="275.5" y="-231.5" font-family="Helvetica,sans-Serif" font-size="10.00">renderer.h</text>
</a>
</g>
</g>
<!-- Node3&#45;&gt;Node4 -->
<g id="edge3" class="edge">
<title>Node3&#45;&gt;Node4</title>
<path fill="none" stroke="midnightblue" d="M283.8,-326.35C281.61,-302.25 277.89,-261.31 276.28,-243.59"/>
<polygon fill="midnightblue" stroke="midnightblue" points="280.32,-326.73 284.72,-336.37 287.3,-326.09 280.32,-326.73"/>
</g>
<!-- Node17 -->
<g id="node17" class="node">
<title>Node17</title>
<g id="a_node17"><a xlink:href="texture_8h.html" target="_top" xlink:title="Basic texture management.">
<polygon fill="white" stroke="black" points="340,-280.5 340,-299.5 395,-299.5 395,-280.5 340,-280.5"/>
<text text-anchor="middle" x="367.5" y="-287.5" font-family="Helvetica,sans-Serif" font-size="10.00">texture.h</text>
</a>
</g>
</g>
<!-- Node3&#45;&gt;Node17 -->
<g id="edge18" class="edge">
<title>Node3&#45;&gt;Node17</title>
<path fill="none" stroke="midnightblue" d="M307.33,-330.62C322.31,-320.76 341.7,-307.99 354.36,-299.65"/>
<polygon fill="midnightblue" stroke="midnightblue" points="305.1,-327.9 298.67,-336.32 308.95,-333.75 305.1,-327.9"/>
</g>
<!-- Node5 -->
<g id="node5" class="node">
<title>Node5</title>
<g id="a_node5"><a xlink:href="blur_8h.html" target="_top" xlink:title=" ">
<polygon fill="white" stroke="black" points="544.5,-168.5 544.5,-187.5 584.5,-187.5 584.5,-168.5 544.5,-168.5"/>
<text text-anchor="middle" x="564.5" y="-175.5" font-family="Helvetica,sans-Serif" font-size="10.00">blur.h</text>
</a>
</g>
</g>
<!-- Node4&#45;&gt;Node5 -->
<g id="edge4" class="edge">
<title>Node4&#45;&gt;Node5</title>
<path fill="none" stroke="midnightblue" d="M314.95,-225.63C377.44,-213.95 496.93,-191.62 544.37,-182.76"/>
<polygon fill="midnightblue" stroke="midnightblue" points="314.26,-222.2 305.07,-227.47 315.54,-229.08 314.26,-222.2"/>
</g>
<!-- Node7 -->
<g id="node7" class="node">
<title>Node7</title>
<g id="a_node7"><a xlink:href="primitives_8h.html" target="_top" xlink:title=" ">
<polygon fill="white" stroke="black" points="19,-168.5 19,-187.5 86,-187.5 86,-168.5 19,-168.5"/>
<text text-anchor="middle" x="52.5" y="-175.5" font-family="Helvetica,sans-Serif" font-size="10.00">primitives.h</text>
</a>
</g>
</g>
<!-- Node4&#45;&gt;Node7 -->
<g id="edge6" class="edge">
<title>Node4&#45;&gt;Node7</title>
<path fill="none" stroke="midnightblue" d="M236.15,-223.47C193.6,-213.17 126.48,-196.91 86.25,-187.17"/>
<polygon fill="midnightblue" stroke="midnightblue" points="235.34,-226.88 245.89,-225.83 236.99,-220.07 235.34,-226.88"/>
</g>
<!-- Node9 -->
<g id="node9" class="node">
<title>Node9</title>
<g id="a_node9"><a xlink:href="sml__graphics__wrapper_8h.html" target="_top" xlink:title=" ">
<polygon fill="white" stroke="black" points="165.5,-112.5 165.5,-131.5 287.5,-131.5 287.5,-112.5 165.5,-112.5"/>
<text text-anchor="middle" x="226.5" y="-119.5" font-family="Helvetica,sans-Serif" font-size="10.00">sml_graphics_wrapper.h</text>
</a>
</g>
</g>
<!-- Node4&#45;&gt;Node9 -->
<g id="edge13" class="edge">
<title>Node4&#45;&gt;Node9</title>
<path fill="none" stroke="midnightblue" d="M255.19,-217.78C246.32,-209.93 236.75,-199.58 231.5,-188 223.09,-169.44 224.04,-144.85 225.34,-131.88"/>
<polygon fill="midnightblue" stroke="midnightblue" points="253.07,-220.57 263.01,-224.24 257.54,-215.17 253.07,-220.57"/>
</g>
<!-- Node13 -->
<g id="node13" class="node">
<title>Node13</title>
<g id="a_node13"><a xlink:href="renderer_8cpp.html" target="_top" xlink:title=" ">
<polygon fill="white" stroke="black" points="240.5,-168.5 240.5,-187.5 310.5,-187.5 310.5,-168.5 240.5,-168.5"/>
<text text-anchor="middle" x="275.5" y="-175.5" font-family="Helvetica,sans-Serif" font-size="10.00">renderer.cpp</text>
</a>
</g>
</g>
<!-- Node4&#45;&gt;Node13 -->
<g id="edge12" class="edge">
<title>Node4&#45;&gt;Node13</title>
<path fill="none" stroke="midnightblue" d="M275.5,-213.8C275.5,-204.91 275.5,-194.78 275.5,-187.75"/>
<polygon fill="midnightblue" stroke="midnightblue" points="272,-214.08 275.5,-224.08 279,-214.08 272,-214.08"/>
</g>
<!-- Node14 -->
<g id="node14" class="node">
<title>Node14</title>
<g id="a_node14"><a xlink:href="text_8h.html" target="_top" xlink:title=" ">
<polygon fill="white" stroke="black" points="143,-168.5 143,-187.5 184,-187.5 184,-168.5 143,-168.5"/>
<text text-anchor="middle" x="163.5" y="-175.5" font-family="Helvetica,sans-Serif" font-size="10.00">text.h</text>
</a>
</g>
</g>
<!-- Node4&#45;&gt;Node14 -->
<g id="edge14" class="edge">
<title>Node4&#45;&gt;Node14</title>
<path fill="none" stroke="midnightblue" d="M248.25,-219.86C227.48,-209.85 199.48,-196.35 181.45,-187.65"/>
<polygon fill="midnightblue" stroke="midnightblue" points="246.98,-223.13 257.51,-224.32 250.02,-216.83 246.98,-223.13"/>
</g>
<!-- Node16 -->
<g id="node16" class="node">
<title>Node16</title>
<g id="a_node16"><a xlink:href="texture_8cpp.html" target="_top" xlink:title=" ">
<polygon fill="white" stroke="black" points="329,-168.5 329,-187.5 394,-187.5 394,-168.5 329,-168.5"/>
<text text-anchor="middle" x="361.5" y="-175.5" font-family="Helvetica,sans-Serif" font-size="10.00">texture.cpp</text>
</a>
</g>
</g>
<!-- Node4&#45;&gt;Node16 -->
<g id="edge17" class="edge">
<title>Node4&#45;&gt;Node16</title>
<path fill="none" stroke="midnightblue" d="M297.95,-218.9C313.72,-209 334.31,-196.07 347.72,-187.65"/>
<polygon fill="midnightblue" stroke="midnightblue" points="295.93,-216.04 289.32,-224.32 299.65,-221.97 295.93,-216.04"/>
</g>
<!-- Node6 -->
<g id="node6" class="node">
<title>Node6</title>
<g id="a_node6"><a xlink:href="blur_8cpp.html" target="_top" xlink:title=" ">
<polygon fill="white" stroke="black" points="539.5,-112.5 539.5,-131.5 589.5,-131.5 589.5,-112.5 539.5,-112.5"/>
<text text-anchor="middle" x="564.5" y="-119.5" font-family="Helvetica,sans-Serif" font-size="10.00">blur.cpp</text>
</a>
</g>
</g>
<!-- Node5&#45;&gt;Node6 -->
<g id="edge5" class="edge">
<title>Node5&#45;&gt;Node6</title>
<path fill="none" stroke="midnightblue" d="M564.5,-157.8C564.5,-148.91 564.5,-138.78 564.5,-131.75"/>
<polygon fill="midnightblue" stroke="midnightblue" points="561,-158.08 564.5,-168.08 568,-158.08 561,-158.08"/>
</g>
<!-- Node8 -->
<g id="node8" class="node">
<title>Node8</title>
<g id="a_node8"><a xlink:href="primitives_8cpp.html" target="_top" xlink:title=" ">
<polygon fill="white" stroke="black" points="0,-112.5 0,-131.5 77,-131.5 77,-112.5 0,-112.5"/>
<text text-anchor="middle" x="38.5" y="-119.5" font-family="Helvetica,sans-Serif" font-size="10.00">primitives.cpp</text>
</a>
</g>
</g>
<!-- Node7&#45;&gt;Node8 -->
<g id="edge7" class="edge">
<title>Node7&#45;&gt;Node8</title>
<path fill="none" stroke="midnightblue" d="M47.68,-158.4C45.33,-149.36 42.63,-138.94 40.77,-131.75"/>
<polygon fill="midnightblue" stroke="midnightblue" points="44.29,-159.28 50.19,-168.08 51.07,-157.52 44.29,-159.28"/>
</g>
<!-- Node7&#45;&gt;Node9 -->
<g id="edge8" class="edge">
<title>Node7&#45;&gt;Node9</title>
<path fill="none" stroke="midnightblue" d="M89.76,-165.44C122.57,-155.26 169.58,-140.66 199.06,-131.52"/>
<polygon fill="midnightblue" stroke="midnightblue" points="88.58,-162.14 80.07,-168.44 90.66,-168.82 88.58,-162.14"/>
</g>
<!-- Node10 -->
<g id="node10" class="node">
<title>Node10</title>
<g id="a_node10"><a xlink:href="viewport_8h.html" target="_top" xlink:title=" ">
<polygon fill="white" stroke="black" points="195.5,-56.5 195.5,-75.5 257.5,-75.5 257.5,-56.5 195.5,-56.5"/>
<text text-anchor="middle" x="226.5" y="-63.5" font-family="Helvetica,sans-Serif" font-size="10.00">viewport.h</text>
</a>
</g>
</g>
<!-- Node9&#45;&gt;Node10 -->
<g id="edge9" class="edge">
<title>Node9&#45;&gt;Node10</title>
<path fill="none" stroke="midnightblue" d="M226.5,-101.8C226.5,-92.91 226.5,-82.78 226.5,-75.75"/>
<polygon fill="midnightblue" stroke="midnightblue" points="223,-102.08 226.5,-112.08 230,-102.08 223,-102.08"/>
</g>
<!-- Node11 -->
<g id="node11" class="node">
<title>Node11</title>
<g id="a_node11"><a xlink:href="sml__utils_8h.html" target="_top" xlink:title=" ">
<polygon fill="white" stroke="black" points="151.5,-0.5 151.5,-19.5 215.5,-19.5 215.5,-0.5 151.5,-0.5"/>
<text text-anchor="middle" x="183.5" y="-7.5" font-family="Helvetica,sans-Serif" font-size="10.00">sml_utils.h</text>
</a>
</g>
</g>
<!-- Node10&#45;&gt;Node11 -->
<g id="edge10" class="edge">
<title>Node10&#45;&gt;Node11</title>
<path fill="none" stroke="midnightblue" d="M213.08,-48.14C205.59,-38.74 196.56,-27.4 190.47,-19.75"/>
<polygon fill="midnightblue" stroke="midnightblue" points="210.43,-50.44 219.4,-56.08 215.91,-46.08 210.43,-50.44"/>
</g>
<!-- Node12 -->
<g id="node12" class="node">
<title>Node12</title>
<g id="a_node12"><a xlink:href="viewport_8cpp.html" target="_top" xlink:title=" ">
<polygon fill="white" stroke="black" points="233.5,-0.5 233.5,-19.5 305.5,-19.5 305.5,-0.5 233.5,-0.5"/>
<text text-anchor="middle" x="269.5" y="-7.5" font-family="Helvetica,sans-Serif" font-size="10.00">viewport.cpp</text>
</a>
</g>
</g>
<!-- Node10&#45;&gt;Node12 -->
<g id="edge11" class="edge">
<title>Node10&#45;&gt;Node12</title>
<path fill="none" stroke="midnightblue" d="M239.92,-48.14C247.41,-38.74 256.44,-27.4 262.53,-19.75"/>
<polygon fill="midnightblue" stroke="midnightblue" points="237.09,-46.08 233.6,-56.08 242.57,-50.44 237.09,-46.08"/>
</g>
<!-- Node14&#45;&gt;Node9 -->
<g id="edge15" class="edge">
<title>Node14&#45;&gt;Node9</title>
<path fill="none" stroke="midnightblue" d="M181.54,-161.54C192.77,-151.91 206.82,-139.87 216.19,-131.83"/>
<polygon fill="midnightblue" stroke="midnightblue" points="178.94,-159.16 173.62,-168.32 183.49,-164.47 178.94,-159.16"/>
</g>
<!-- Node15 -->
<g id="node15" class="node">
<title>Node15</title>
<g id="a_node15"><a xlink:href="text_8cpp.html" target="_top" xlink:title=" ">
<polygon fill="white" stroke="black" points="95.5,-112.5 95.5,-131.5 147.5,-131.5 147.5,-112.5 95.5,-112.5"/>
<text text-anchor="middle" x="121.5" y="-119.5" font-family="Helvetica,sans-Serif" font-size="10.00">text.cpp</text>
</a>
</g>
</g>
<!-- Node14&#45;&gt;Node15 -->
<g id="edge16" class="edge">
<title>Node14&#45;&gt;Node15</title>
<path fill="none" stroke="midnightblue" d="M150.39,-160.14C143.07,-150.74 134.26,-139.4 128.31,-131.75"/>
<polygon fill="midnightblue" stroke="midnightblue" points="147.66,-162.34 156.56,-168.08 153.19,-158.04 147.66,-162.34"/>
</g>
<!-- Node17&#45;&gt;Node4 -->
<g id="edge19" class="edge">
<title>Node17&#45;&gt;Node4</title>
<path fill="none" stroke="midnightblue" d="M343.95,-275.18C327.02,-265.24 304.72,-252.15 290.24,-243.65"/>
<polygon fill="midnightblue" stroke="midnightblue" points="342.32,-278.28 352.72,-280.32 345.87,-272.24 342.32,-278.28"/>
</g>
<!-- Node17&#45;&gt;Node9 -->
<g id="edge20" class="edge">
<title>Node17&#45;&gt;Node9</title>
<path fill="none" stroke="midnightblue" d="M381.02,-272.28C399.56,-247.2 427.94,-199.44 403.5,-168 389.19,-149.6 332.96,-137.5 287.66,-130.52"/>
<polygon fill="midnightblue" stroke="midnightblue" points="378.08,-270.36 374.75,-280.42 383.62,-274.63 378.08,-270.36"/>
</g>
<!-- Node17&#45;&gt;Node16 -->
<g id="edge21" class="edge">
<title>Node17&#45;&gt;Node16</title>
<path fill="none" stroke="midnightblue" d="M366.48,-270.35C365.17,-246.25 362.93,-205.31 361.97,-187.59"/>
<polygon fill="midnightblue" stroke="midnightblue" points="362.99,-270.57 367.03,-280.37 369.98,-270.19 362.99,-270.57"/>
</g>
<!-- Node18 -->
<g id="node18" class="node">
<title>Node18</title>
<g id="a_node18"><a xlink:href="window_8cpp.html" target="_top" xlink:title=" ">
<polygon fill="white" stroke="black" points="161,-224.5 161,-243.5 228,-243.5 228,-224.5 161,-224.5"/>
<text text-anchor="middle" x="194.5" y="-231.5" font-family="Helvetica,sans-Serif" font-size="10.00">window.cpp</text>
</a>
</g>
</g>
<!-- Node17&#45;&gt;Node18 -->
<g id="edge22" class="edge">
<title>Node17&#45;&gt;Node18</title>
<path fill="none" stroke="midnightblue" d="M330.45,-277.44C297.84,-267.26 251.09,-252.66 221.78,-243.52"/>
<polygon fill="midnightblue" stroke="midnightblue" points="329.5,-280.8 340.09,-280.44 331.58,-274.12 329.5,-280.8"/>
</g>
<!-- Node20&#45;&gt;Node3 -->
<g id="edge41" class="edge">
<title>Node20&#45;&gt;Node3</title>
<path fill="none" stroke="midnightblue" d="M320.02,-493.93C311.56,-457.92 293.54,-381.23 287.51,-355.57"/>
<polygon fill="midnightblue" stroke="midnightblue" points="316.71,-495.14 322.4,-504.08 323.52,-493.54 316.71,-495.14"/>
</g>
<!-- Node20&#45;&gt;Node5 -->
<g id="edge25" class="edge">
<title>Node20&#45;&gt;Node5</title>
<path fill="none" stroke="midnightblue" d="M357.43,-503.58C431.05,-482.04 602.5,-429.09 602.5,-403 602.5,-403 602.5,-403 602.5,-289 602.5,-249.4 580.23,-205.96 569.78,-187.77"/>
<polygon fill="midnightblue" stroke="midnightblue" points="356.35,-500.25 347.72,-506.4 358.3,-506.97 356.35,-500.25"/>
</g>
<!-- Node21 -->
<g id="node21" class="node">
<title>Node21</title>
<g id="a_node21"><a xlink:href="mouse_8h.html" target="_top" xlink:title=" ">
<polygon fill="white" stroke="black" points="636.5,-448.5 636.5,-467.5 690.5,-467.5 690.5,-448.5 636.5,-448.5"/>
<text text-anchor="middle" x="663.5" y="-455.5" font-family="Helvetica,sans-Serif" font-size="10.00">mouse.h</text>
</a>
</g>
</g>
<!-- Node20&#45;&gt;Node21 -->
<g id="edge26" class="edge">
<title>Node20&#45;&gt;Node21</title>
<path fill="none" stroke="midnightblue" d="M357.77,-504.21C473.08,-480.99 504.97,-486.42 616.5,-468 622.89,-466.94 629.75,-465.7 636.2,-464.47"/>
<polygon fill="midnightblue" stroke="midnightblue" points="356.94,-500.8 347.85,-506.24 358.34,-507.66 356.94,-500.8"/>
</g>
<!-- Node28 -->
<g id="node28" class="node">
<title>Node28</title>
<g id="a_node28"><a xlink:href="rectangle_8h.html" target="_top" xlink:title=" ">
<polygon fill="white" stroke="black" points="155,-392.5 155,-411.5 220,-411.5 220,-392.5 155,-392.5"/>
<text text-anchor="middle" x="187.5" y="-399.5" font-family="Helvetica,sans-Serif" font-size="10.00">rectangle.h</text>
</a>
</g>
</g>
<!-- Node20&#45;&gt;Node28 -->
<g id="edge33" class="edge">
<title>Node20&#45;&gt;Node28</title>
<path fill="none" stroke="midnightblue" d="M305.59,-497.82C276.41,-474.39 221.36,-430.19 198.2,-411.59"/>
<polygon fill="midnightblue" stroke="midnightblue" points="303.76,-500.84 313.75,-504.37 308.14,-495.38 303.76,-500.84"/>
</g>
<!-- Node32 -->
<g id="node32" class="node">
<title>Node32</title>
<g id="a_node32"><a xlink:href="vec3_8h.html" target="_top" xlink:title=" ">
<polygon fill="white" stroke="black" points="353.5,-448.5 353.5,-467.5 399.5,-467.5 399.5,-448.5 353.5,-448.5"/>
<text text-anchor="middle" x="376.5" y="-455.5" font-family="Helvetica,sans-Serif" font-size="10.00">vec3.h</text>
</a>
</g>
</g>
<!-- Node20&#45;&gt;Node32 -->
<g id="edge42" class="edge">
<title>Node20&#45;&gt;Node32</title>
<path fill="none" stroke="midnightblue" d="M340.18,-496.72C349.34,-487.2 360.55,-475.56 368.07,-467.75"/>
<polygon fill="midnightblue" stroke="midnightblue" points="337.5,-494.45 333.09,-504.08 342.54,-499.31 337.5,-494.45"/>
</g>
<!-- Node22 -->
<g id="node22" class="node">
<title>Node22</title>
<g id="a_node22"><a xlink:href="mouse_8cpp.html" target="_top" xlink:title=" ">
<polygon fill="white" stroke="black" points="631,-392.5 631,-411.5 696,-411.5 696,-392.5 631,-392.5"/>
<text text-anchor="middle" x="663.5" y="-399.5" font-family="Helvetica,sans-Serif" font-size="10.00">mouse.cpp</text>
</a>
</g>
</g>
<!-- Node21&#45;&gt;Node22 -->
<g id="edge27" class="edge">
<title>Node21&#45;&gt;Node22</title>
<path fill="none" stroke="midnightblue" d="M663.5,-437.8C663.5,-428.91 663.5,-418.78 663.5,-411.75"/>
<polygon fill="midnightblue" stroke="midnightblue" points="660,-438.08 663.5,-448.08 667,-438.08 660,-438.08"/>
</g>
<!-- Node23 -->
<g id="node23" class="node">
<title>Node23</title>
<g id="a_node23"><a xlink:href="system__events_8h.html" target="_top" xlink:title=" ">
<polygon fill="white" stroke="black" points="714.5,-392.5 714.5,-411.5 806.5,-411.5 806.5,-392.5 714.5,-392.5"/>
<text text-anchor="middle" x="760.5" y="-399.5" font-family="Helvetica,sans-Serif" font-size="10.00">system_events.h</text>
</a>
</g>
</g>
<!-- Node21&#45;&gt;Node23 -->
<g id="edge28" class="edge">
<title>Node21&#45;&gt;Node23</title>
<path fill="none" stroke="midnightblue" d="M687.84,-443.45C705.74,-433.48 729.55,-420.23 744.95,-411.65"/>
<polygon fill="midnightblue" stroke="midnightblue" points="686.12,-440.4 679.08,-448.32 689.52,-446.52 686.12,-440.4"/>
</g>
<!-- Node24 -->
<g id="node24" class="node">
<title>Node24</title>
<g id="a_node24"><a xlink:href="observable__property_8h.html" target="_top" xlink:title=" ">
<polygon fill="white" stroke="black" points="810,-336.5 810,-355.5 921,-355.5 921,-336.5 810,-336.5"/>
<text text-anchor="middle" x="865.5" y="-343.5" font-family="Helvetica,sans-Serif" font-size="10.00">observable_property.h</text>
</a>
</g>
</g>
<!-- Node23&#45;&gt;Node24 -->
<g id="edge29" class="edge">
<title>Node23&#45;&gt;Node24</title>
<path fill="none" stroke="midnightblue" d="M786.31,-387.73C805.75,-377.73 831.85,-364.31 848.67,-355.65"/>
<polygon fill="midnightblue" stroke="midnightblue" points="784.66,-384.64 777.37,-392.32 787.86,-390.86 784.66,-384.64"/>
</g>
<!-- Node25 -->
<g id="node25" class="node">
<title>Node25</title>
<g id="a_node25"><a xlink:href="system__event__manager_8h.html" target="_top" xlink:title=" ">
<polygon fill="white" stroke="black" points="663.5,-336.5 663.5,-355.5 791.5,-355.5 791.5,-336.5 663.5,-336.5"/>
<text text-anchor="middle" x="727.5" y="-343.5" font-family="Helvetica,sans-Serif" font-size="10.00">system_event_manager.h</text>
</a>
</g>
</g>
<!-- Node23&#45;&gt;Node25 -->
<g id="edge30" class="edge">
<title>Node23&#45;&gt;Node25</title>
<path fill="none" stroke="midnightblue" d="M749.67,-383.27C744.03,-374.05 737.38,-363.17 732.85,-355.75"/>
<polygon fill="midnightblue" stroke="midnightblue" points="746.85,-385.38 755.05,-392.08 752.82,-381.73 746.85,-385.38"/>
</g>
<!-- Node26 -->
<g id="node26" class="node">
<title>Node26</title>
<g id="a_node26"><a xlink:href="sml__events_8h.html" target="_top" xlink:title=" ">
<polygon fill="white" stroke="black" points="644,-280.5 644,-299.5 719,-299.5 719,-280.5 644,-280.5"/>
<text text-anchor="middle" x="681.5" y="-287.5" font-family="Helvetica,sans-Serif" font-size="10.00">sml_events.h</text>
</a>
</g>
</g>
<!-- Node25&#45;&gt;Node26 -->
<g id="edge31" class="edge">
<title>Node25&#45;&gt;Node26</title>
<path fill="none" stroke="midnightblue" d="M713.39,-328.43C705.32,-318.97 695.54,-307.48 688.95,-299.75"/>
<polygon fill="midnightblue" stroke="midnightblue" points="710.75,-330.74 719.9,-336.08 716.08,-326.2 710.75,-330.74"/>
</g>
<!-- Node27 -->
<g id="node27" class="node">
<title>Node27</title>
<g id="a_node27"><a xlink:href="system__event__manager_8cpp.html" target="_top" xlink:title=" ">
<polygon fill="white" stroke="black" points="737,-280.5 737,-299.5 876,-299.5 876,-280.5 737,-280.5"/>
<text text-anchor="middle" x="806.5" y="-287.5" font-family="Helvetica,sans-Serif" font-size="10.00">system_event_manager.cpp</text>
</a>
</g>
</g>
<!-- Node25&#45;&gt;Node27 -->
<g id="edge32" class="edge">
<title>Node25&#45;&gt;Node27</title>
<path fill="none" stroke="midnightblue" d="M748.53,-330.62C762.97,-320.76 781.64,-307.99 793.84,-299.65"/>
<polygon fill="midnightblue" stroke="midnightblue" points="746.47,-327.79 740.19,-336.32 750.42,-333.57 746.47,-327.79"/>
</g>
<!-- Node28&#45;&gt;Node3 -->
<g id="edge35" class="edge">
<title>Node28&#45;&gt;Node3</title>
<path fill="none" stroke="midnightblue" d="M212.09,-387.45C230.18,-377.48 254.23,-364.23 269.79,-355.65"/>
<polygon fill="midnightblue" stroke="midnightblue" points="210.31,-384.43 203.25,-392.32 213.69,-390.56 210.31,-384.43"/>
</g>
<!-- Node29 -->
<g id="node29" class="node">
<title>Node29</title>
<g id="a_node29"><a xlink:href="rectangle_8cpp.html" target="_top" xlink:title=" ">
<polygon fill="white" stroke="black" points="91,-336.5 91,-355.5 166,-355.5 166,-336.5 91,-336.5"/>
<text text-anchor="middle" x="128.5" y="-343.5" font-family="Helvetica,sans-Serif" font-size="10.00">rectangle.cpp</text>
</a>
</g>
</g>
<!-- Node28&#45;&gt;Node29 -->
<g id="edge34" class="edge">
<title>Node28&#45;&gt;Node29</title>
<path fill="none" stroke="midnightblue" d="M170.61,-385.54C160.09,-375.91 146.93,-363.87 138.15,-355.83"/>
<polygon fill="midnightblue" stroke="midnightblue" points="168.28,-388.15 178.02,-392.32 173.01,-382.99 168.28,-388.15"/>
</g>
<!-- Node30 -->
<g id="node30" class="node">
<title>Node30</title>
<g id="a_node30"><a xlink:href="window_8h.html" target="_top" xlink:title=" ">
<polygon fill="white" stroke="black" points="166.5,-280.5 166.5,-299.5 222.5,-299.5 222.5,-280.5 166.5,-280.5"/>
<text text-anchor="middle" x="194.5" y="-287.5" font-family="Helvetica,sans-Serif" font-size="10.00">window.h</text>
</a>
</g>
</g>
<!-- Node28&#45;&gt;Node30 -->
<g id="edge36" class="edge">
<title>Node28&#45;&gt;Node30</title>
<path fill="none" stroke="midnightblue" d="M188.69,-382.35C190.22,-358.25 192.83,-317.31 193.95,-299.59"/>
<polygon fill="midnightblue" stroke="midnightblue" points="185.19,-382.17 188.05,-392.37 192.18,-382.61 185.19,-382.17"/>
</g>
<!-- Node30&#45;&gt;Node4 -->
<g id="edge38" class="edge">
<title>Node30&#45;&gt;Node4</title>
<path fill="none" stroke="midnightblue" d="M216.07,-274.62C230.86,-264.76 250.01,-251.99 262.52,-243.65"/>
<polygon fill="midnightblue" stroke="midnightblue" points="213.89,-271.86 207.51,-280.32 217.78,-277.69 213.89,-271.86"/>
</g>
<!-- Node30&#45;&gt;Node9 -->
<g id="edge39" class="edge">
<title>Node30&#45;&gt;Node9</title>
<path fill="none" stroke="midnightblue" d="M176.57,-273.71C151.3,-250.27 110.72,-204.33 133.5,-168 145.32,-149.16 167.5,-138.01 187.25,-131.52"/>
<polygon fill="midnightblue" stroke="midnightblue" points="174.35,-276.43 184.13,-280.49 179.02,-271.21 174.35,-276.43"/>
</g>
<!-- Node30&#45;&gt;Node18 -->
<g id="edge40" class="edge">
<title>Node30&#45;&gt;Node18</title>
<path fill="none" stroke="midnightblue" d="M194.5,-269.8C194.5,-260.91 194.5,-250.78 194.5,-243.75"/>
<polygon fill="midnightblue" stroke="midnightblue" points="191,-270.08 194.5,-280.08 198,-270.08 191,-270.08"/>
</g>
<!-- Node31 -->
<g id="node31" class="node">
<title>Node31</title>
<g id="a_node31"><a xlink:href="app_8cpp.html" target="_top" xlink:title=" ">
<polygon fill="white" stroke="black" points="35,-224.5 35,-243.5 86,-243.5 86,-224.5 35,-224.5"/>
<text text-anchor="middle" x="60.5" y="-231.5" font-family="Helvetica,sans-Serif" font-size="10.00">app.cpp</text>
</a>
</g>
</g>
<!-- Node30&#45;&gt;Node31 -->
<g id="edge37" class="edge">
<title>Node30&#45;&gt;Node31</title>
<path fill="none" stroke="midnightblue" d="M163.82,-276.64C138.68,-266.5 103.75,-252.43 81.63,-243.52"/>
<polygon fill="midnightblue" stroke="midnightblue" points="162.68,-279.95 173.27,-280.44 165.3,-273.46 162.68,-279.95"/>
</g>
<!-- Node32&#45;&gt;Node3 -->
<g id="edge49" class="edge">
<title>Node32&#45;&gt;Node3</title>
<path fill="none" stroke="midnightblue" d="M362.92,-440.59C343.3,-416.87 307.73,-373.87 292.61,-355.59"/>
<polygon fill="midnightblue" stroke="midnightblue" points="360.29,-442.89 369.36,-448.37 365.68,-438.43 360.29,-442.89"/>
</g>
<!-- Node33 -->
<g id="node33" class="node">
<title>Node33</title>
<g id="a_node33"><a xlink:href="mat4_8h.html" target="_top" xlink:title=" ">
<polygon fill="white" stroke="black" points="353,-392.5 353,-411.5 400,-411.5 400,-392.5 353,-392.5"/>
<text text-anchor="middle" x="376.5" y="-399.5" font-family="Helvetica,sans-Serif" font-size="10.00">mat4.h</text>
</a>
</g>
</g>
<!-- Node32&#45;&gt;Node33 -->
<g id="edge43" class="edge">
<title>Node32&#45;&gt;Node33</title>
<path fill="none" stroke="midnightblue" d="M376.5,-437.8C376.5,-428.91 376.5,-418.78 376.5,-411.75"/>
<polygon fill="midnightblue" stroke="midnightblue" points="373,-438.08 376.5,-448.08 380,-438.08 373,-438.08"/>
</g>
<!-- Node35 -->
<g id="node35" class="node">
<title>Node35</title>
<g id="a_node35"><a xlink:href="ray_8h.html" target="_top" xlink:title=" ">
<polygon fill="white" stroke="black" points="418,-392.5 418,-411.5 455,-411.5 455,-392.5 418,-392.5"/>
<text text-anchor="middle" x="436.5" y="-399.5" font-family="Helvetica,sans-Serif" font-size="10.00">ray.h</text>
</a>
</g>
</g>
<!-- Node32&#45;&gt;Node35 -->
<g id="edge46" class="edge">
<title>Node32&#45;&gt;Node35</title>
<path fill="none" stroke="midnightblue" d="M393.68,-441.54C404.38,-431.91 417.76,-419.87 426.68,-411.83"/>
<polygon fill="midnightblue" stroke="midnightblue" points="391.23,-439.03 386.14,-448.32 395.91,-444.24 391.23,-439.03"/>
</g>
<!-- Node37 -->
<g id="node37" class="node">
<title>Node37</title>
<g id="a_node37"><a xlink:href="vec4_8h.html" target="_top" xlink:title=" ">
<polygon fill="white" stroke="black" points="475.5,-392.5 475.5,-411.5 521.5,-411.5 521.5,-392.5 475.5,-392.5"/>
<text text-anchor="middle" x="498.5" y="-399.5" font-family="Helvetica,sans-Serif" font-size="10.00">vec4.h</text>
</a>
</g>
</g>
<!-- Node32&#45;&gt;Node37 -->
<g id="edge50" class="edge">
<title>Node32&#45;&gt;Node37</title>
<path fill="none" stroke="midnightblue" d="M405.04,-444.37C427.89,-434.26 459.31,-420.35 479.26,-411.52"/>
<polygon fill="midnightblue" stroke="midnightblue" points="403.56,-441.2 395.83,-448.44 406.39,-447.6 403.56,-441.2"/>
</g>
<!-- Node33&#45;&gt;Node3 -->
<g id="edge45" class="edge">
<title>Node33&#45;&gt;Node3</title>
<path fill="none" stroke="midnightblue" d="M353.21,-387.18C336.46,-377.24 314.4,-364.15 300.08,-355.65"/>
<polygon fill="midnightblue" stroke="midnightblue" points="351.49,-390.23 361.88,-392.32 355.07,-384.21 351.49,-390.23"/>
</g>
<!-- Node34 -->
<g id="node34" class="node">
<title>Node34</title>
<g id="a_node34"><a xlink:href="mat4_8cpp.html" target="_top" xlink:title=" ">
<polygon fill="white" stroke="black" points="338,-336.5 338,-355.5 395,-355.5 395,-336.5 338,-336.5"/>
<text text-anchor="middle" x="366.5" y="-343.5" font-family="Helvetica,sans-Serif" font-size="10.00">mat4.cpp</text>
</a>
</g>
</g>
<!-- Node33&#45;&gt;Node34 -->
<g id="edge44" class="edge">
<title>Node33&#45;&gt;Node34</title>
<path fill="none" stroke="midnightblue" d="M373,-382.1C371.34,-373.14 369.44,-362.86 368.12,-355.75"/>
<polygon fill="midnightblue" stroke="midnightblue" points="369.59,-382.89 374.85,-392.08 376.47,-381.61 369.59,-382.89"/>
</g>
<!-- Node35&#45;&gt;Node3 -->
<g id="edge48" class="edge">
<title>Node35&#45;&gt;Node3</title>
<path fill="none" stroke="midnightblue" d="M408.22,-390.89C379.72,-380.7 336.22,-365.14 309.4,-355.55"/>
<polygon fill="midnightblue" stroke="midnightblue" points="407.39,-394.31 417.98,-394.38 409.75,-387.72 407.39,-394.31"/>
</g>
<!-- Node36 -->
<g id="node36" class="node">
<title>Node36</title>
<g id="a_node36"><a xlink:href="ray_8cpp.html" target="_top" xlink:title=" ">
<polygon fill="white" stroke="black" points="413,-336.5 413,-355.5 460,-355.5 460,-336.5 413,-336.5"/>
<text text-anchor="middle" x="436.5" y="-343.5" font-family="Helvetica,sans-Serif" font-size="10.00">ray.cpp</text>
</a>
</g>
</g>
<!-- Node35&#45;&gt;Node36 -->
<g id="edge47" class="edge">
<title>Node35&#45;&gt;Node36</title>
<path fill="none" stroke="midnightblue" d="M436.5,-381.8C436.5,-372.91 436.5,-362.78 436.5,-355.75"/>
<polygon fill="midnightblue" stroke="midnightblue" points="433,-382.08 436.5,-392.08 440,-382.08 433,-382.08"/>
</g>
<!-- Node38 -->
<g id="node38" class="node">
<title>Node38</title>
<g id="a_node38"><a xlink:href="color_8h.html" target="_top" xlink:title=" ">
<polygon fill="white" stroke="black" points="478,-336.5 478,-355.5 523,-355.5 523,-336.5 478,-336.5"/>
<text text-anchor="middle" x="500.5" y="-343.5" font-family="Helvetica,sans-Serif" font-size="10.00">color.h</text>
</a>
</g>
</g>
<!-- Node37&#45;&gt;Node38 -->
<g id="edge51" class="edge">
<title>Node37&#45;&gt;Node38</title>
<path fill="none" stroke="midnightblue" d="M499.21,-381.8C499.54,-372.91 499.92,-362.78 500.18,-355.75"/>
<polygon fill="midnightblue" stroke="midnightblue" points="495.7,-381.96 498.83,-392.08 502.7,-382.22 495.7,-381.96"/>
</g>
<!-- Node38&#45;&gt;Node4 -->
<g id="edge54" class="edge">
<title>Node38&#45;&gt;Node4</title>
<path fill="none" stroke="midnightblue" d="M467.98,-335.76C406.06,-320.45 382.66,-331.89 331.5,-300 307.99,-285.34 289.08,-257.67 280.5,-243.63"/>
<polygon fill="midnightblue" stroke="midnightblue" points="467.27,-339.19 477.83,-338.34 469.05,-332.42 467.27,-339.19"/>
</g>
<!-- Node38&#45;&gt;Node5 -->
<g id="edge52" class="edge">
<title>Node38&#45;&gt;Node5</title>
<path fill="none" stroke="midnightblue" d="M520.5,-329.98C529.58,-322.07 539.59,-311.61 545.5,-300 564.98,-261.71 565.55,-208.51 564.92,-187.77"/>
<polygon fill="midnightblue" stroke="midnightblue" points="518.08,-327.44 512.56,-336.48 522.52,-332.85 518.08,-327.44"/>
</g>
<!-- Node38&#45;&gt;Node9 -->
<g id="edge55" class="edge">
<title>Node38&#45;&gt;Node9</title>
<path fill="none" stroke="midnightblue" d="M488.36,-328.03C482.79,-319.81 476.37,-309.65 471.5,-300 443.24,-243.99 468.76,-209.26 421.5,-168 401.67,-150.69 337.02,-138.11 287.54,-130.72"/>
<polygon fill="midnightblue" stroke="midnightblue" points="485.57,-330.15 494.15,-336.36 491.32,-326.15 485.57,-330.15"/>
</g>
<!-- Node38&#45;&gt;Node17 -->
<g id="edge56" class="edge">
<title>Node38&#45;&gt;Node17</title>
<path fill="none" stroke="midnightblue" d="M470.05,-332.64C445.09,-322.5 410.42,-308.43 388.48,-299.52"/>
<polygon fill="midnightblue" stroke="midnightblue" points="468.84,-335.92 479.43,-336.44 471.48,-329.44 468.84,-335.92"/>
</g>
<!-- Node38&#45;&gt;Node30 -->
<g id="edge57" class="edge">
<title>Node38&#45;&gt;Node30</title>
<path fill="none" stroke="midnightblue" d="M467.86,-335.84C373.04,-314.82 271.21,-300.7 222.82,-294.49"/>
<polygon fill="midnightblue" stroke="midnightblue" points="467.37,-339.32 477.89,-338.1 468.91,-332.49 467.37,-339.32"/>
</g>
<!-- Node39 -->
<g id="node39" class="node">
<title>Node39</title>
<g id="a_node39"><a xlink:href="color_8cpp.html" target="_top" xlink:title=" ">
<polygon fill="white" stroke="black" points="480.5,-280.5 480.5,-299.5 536.5,-299.5 536.5,-280.5 480.5,-280.5"/>
<text text-anchor="middle" x="508.5" y="-287.5" font-family="Helvetica,sans-Serif" font-size="10.00">color.cpp</text>
</a>
</g>
</g>
<!-- Node38&#45;&gt;Node39 -->
<g id="edge53" class="edge">
<title>Node38&#45;&gt;Node39</title>
<path fill="none" stroke="midnightblue" d="M503.3,-326.1C504.63,-317.14 506.15,-306.86 507.2,-299.75"/>
<polygon fill="midnightblue" stroke="midnightblue" points="499.82,-325.68 501.82,-336.08 506.75,-326.7 499.82,-325.68"/>
</g>
</g>
</svg>
