<?xml version="1.0" encoding="UTF-8" standalone="no"?>
<!DOCTYPE svg PUBLIC "-//W3C//DTD SVG 1.1//EN"
 "http://www.w3.org/Graphics/SVG/1.1/DTD/svg11.dtd">
<!-- Generated by graphviz version 2.50.0 (20211204.2007)
 -->
<!-- Title: Graphical Class Hierarchy Pages: 1 -->
<svg width="631pt" height="180pt"
 viewBox="0.00 0.00 631.00 180.00" xmlns="http://www.w3.org/2000/svg" xmlns:xlink="http://www.w3.org/1999/xlink">
<g id="graph0" class="graph" transform="scale(1 1) rotate(0) translate(4 176)">
<title>Graphical Class Hierarchy</title>
<polygon fill="white" stroke="transparent" points="-4,4 -4,-176 627,-176 627,4 -4,4"/>
<!-- Node0 -->
<g id="node1" class="node">
<title>Node0</title>
<g id="a_node1"><a xlink:href="class_sml_1_1_event.html" target="_top" xlink:title=" ">
<polygon fill="white" stroke="black" points="0,-57.5 0,-76.5 65,-76.5 65,-57.5 0,-57.5"/>
<text text-anchor="middle" x="32.5" y="-64.5" font-family="Helvetica,sans-Serif" font-size="10.00">Sml::Event</text>
</a>
</g>
</g>
<!-- Node1 -->
<g id="node2" class="node">
<title>Node1</title>
<g id="a_node2"><a xlink:href="class_sml_1_1_key_event.html" target="_top" xlink:title=" ">
<polygon fill="white" stroke="black" points="139.5,-114.5 139.5,-133.5 222.5,-133.5 222.5,-114.5 139.5,-114.5"/>
<text text-anchor="middle" x="181" y="-121.5" font-family="Helvetica,sans-Serif" font-size="10.00">Sml::KeyEvent</text>
</a>
</g>
</g>
<!-- Node0&#45;&gt;Node1 -->
<g id="edge1" class="edge">
<title>Node0&#45;&gt;Node1</title>
<path fill="none" stroke="midnightblue" d="M56.23,-81.89C68.97,-89.69 85.39,-98.87 101,-105 113.08,-109.75 126.68,-113.53 139.15,-116.44"/>
<polygon fill="midnightblue" stroke="midnightblue" points="58,-78.87 47.67,-76.52 54.28,-84.8 58,-78.87"/>
</g>
<!-- Node4 -->
<g id="node5" class="node">
<title>Node4</title>
<g id="a_node5"><a xlink:href="class_sml_1_1_mouse_event.html" target="_top" xlink:title=" ">
<polygon fill="white" stroke="black" points="133.5,-76.5 133.5,-95.5 228.5,-95.5 228.5,-76.5 133.5,-76.5"/>
<text text-anchor="middle" x="181" y="-83.5" font-family="Helvetica,sans-Serif" font-size="10.00">Sml::MouseEvent</text>
</a>
</g>
</g>
<!-- Node0&#45;&gt;Node4 -->
<g id="edge4" class="edge">
<title>Node0&#45;&gt;Node4</title>
<path fill="none" stroke="midnightblue" d="M75.26,-72.42C93.36,-74.76 114.62,-77.52 133.25,-79.94"/>
<polygon fill="midnightblue" stroke="midnightblue" points="75.66,-68.94 65.29,-71.12 74.76,-75.88 75.66,-68.94"/>
</g>
<!-- Node9 -->
<g id="node10" class="node">
<title>Node9</title>
<g id="a_node10"><a xlink:href="class_sml_1_1_property_change_event.html" target="_top" xlink:title=" ">
<polygon fill="white" stroke="black" points="101,-38.5 101,-57.5 261,-57.5 261,-38.5 101,-38.5"/>
<text text-anchor="middle" x="181" y="-45.5" font-family="Helvetica,sans-Serif" font-size="10.00">Sml::PropertyChangeEvent&lt; T &gt;</text>
</a>
</g>
</g>
<!-- Node0&#45;&gt;Node9 -->
<g id="edge9" class="edge">
<title>Node0&#45;&gt;Node9</title>
<path fill="none" stroke="midnightblue" d="M75.45,-61.56C85.19,-60.3 95.83,-58.92 106.49,-57.53"/>
<polygon fill="midnightblue" stroke="midnightblue" points="74.76,-58.12 65.29,-62.88 75.66,-65.06 74.76,-58.12"/>
</g>
<!-- Node10 -->
<g id="node11" class="node">
<title>Node10</title>
<g id="a_node11"><a xlink:href="class_sml_1_1_window_event.html" target="_top" xlink:title=" ">
<polygon fill="white" stroke="black" points="130.5,-0.5 130.5,-19.5 231.5,-19.5 231.5,-0.5 130.5,-0.5"/>
<text text-anchor="middle" x="181" y="-7.5" font-family="Helvetica,sans-Serif" font-size="10.00">Sml::WindowEvent</text>
</a>
</g>
</g>
<!-- Node0&#45;&gt;Node10 -->
<g id="edge10" class="edge">
<title>Node0&#45;&gt;Node10</title>
<path fill="none" stroke="midnightblue" d="M56.23,-52.11C68.97,-44.31 85.39,-35.13 101,-29 110.45,-25.29 120.84,-22.16 130.88,-19.58"/>
<polygon fill="midnightblue" stroke="midnightblue" points="54.28,-49.2 47.67,-57.48 58,-55.13 54.28,-49.2"/>
</g>
<!-- Node2 -->
<g id="node3" class="node">
<title>Node2</title>
<g id="a_node3"><a xlink:href="class_sml_1_1_key_pressed_event.html" target="_top" xlink:title=" ">
<polygon fill="white" stroke="black" points="300.5,-152.5 300.5,-171.5 419.5,-171.5 419.5,-152.5 300.5,-152.5"/>
<text text-anchor="middle" x="360" y="-159.5" font-family="Helvetica,sans-Serif" font-size="10.00">Sml::KeyPressedEvent</text>
</a>
</g>
</g>
<!-- Node1&#45;&gt;Node2 -->
<g id="edge2" class="edge">
<title>Node1&#45;&gt;Node2</title>
<path fill="none" stroke="midnightblue" d="M232.6,-134.86C258.45,-140.41 289.63,-147.11 314.55,-152.46"/>
<polygon fill="midnightblue" stroke="midnightblue" points="233.12,-131.4 222.61,-132.72 231.65,-138.24 233.12,-131.4"/>
</g>
<!-- Node3 -->
<g id="node4" class="node">
<title>Node3</title>
<g id="a_node4"><a xlink:href="class_sml_1_1_key_released_event.html" target="_top" xlink:title=" ">
<polygon fill="white" stroke="black" points="298,-114.5 298,-133.5 422,-133.5 422,-114.5 298,-114.5"/>
<text text-anchor="middle" x="360" y="-121.5" font-family="Helvetica,sans-Serif" font-size="10.00">Sml::KeyReleasedEvent</text>
</a>
</g>
</g>
<!-- Node1&#45;&gt;Node3 -->
<g id="edge3" class="edge">
<title>Node1&#45;&gt;Node3</title>
<path fill="none" stroke="midnightblue" d="M232.87,-124C253.11,-124 276.58,-124 297.74,-124"/>
<polygon fill="midnightblue" stroke="midnightblue" points="232.61,-120.5 222.61,-124 232.61,-127.5 232.61,-120.5"/>
</g>
<!-- Node5 -->
<g id="node6" class="node">
<title>Node5</title>
<g id="a_node6"><a xlink:href="class_sml_1_1_mouse_button_event.html" target="_top" xlink:title=" ">
<polygon fill="white" stroke="black" points="298.5,-76.5 298.5,-95.5 421.5,-95.5 421.5,-76.5 298.5,-76.5"/>
<text text-anchor="middle" x="360" y="-83.5" font-family="Helvetica,sans-Serif" font-size="10.00">Sml::MouseButtonEvent</text>
</a>
</g>
</g>
<!-- Node4&#45;&gt;Node5 -->
<g id="edge5" class="edge">
<title>Node4&#45;&gt;Node5</title>
<path fill="none" stroke="midnightblue" d="M238.56,-86C257.67,-86 279.07,-86 298.48,-86"/>
<polygon fill="midnightblue" stroke="midnightblue" points="238.5,-82.5 228.5,-86 238.5,-89.5 238.5,-82.5"/>
</g>
<!-- Node8 -->
<g id="node9" class="node">
<title>Node8</title>
<g id="a_node9"><a xlink:href="class_sml_1_1_mouse_moved_event.html" target="_top" xlink:title=" ">
<polygon fill="white" stroke="black" points="298,-38.5 298,-57.5 422,-57.5 422,-38.5 298,-38.5"/>
<text text-anchor="middle" x="360" y="-45.5" font-family="Helvetica,sans-Serif" font-size="10.00">Sml::MouseMovedEvent</text>
</a>
</g>
</g>
<!-- Node4&#45;&gt;Node8 -->
<g id="edge8" class="edge">
<title>Node4&#45;&gt;Node8</title>
<path fill="none" stroke="midnightblue" d="M236.74,-74.25C261.77,-68.87 291.03,-62.59 314.66,-57.52"/>
<polygon fill="midnightblue" stroke="midnightblue" points="235.71,-70.89 226.66,-76.41 237.18,-77.73 235.71,-70.89"/>
</g>
<!-- Node6 -->
<g id="node7" class="node">
<title>Node6</title>
<g id="a_node7"><a xlink:href="class_sml_1_1_mouse_button_pressed_event.html" target="_top" xlink:title=" ">
<polygon fill="white" stroke="black" points="461.5,-95.5 461.5,-114.5 620.5,-114.5 620.5,-95.5 461.5,-95.5"/>
<text text-anchor="middle" x="541" y="-102.5" font-family="Helvetica,sans-Serif" font-size="10.00">Sml::MouseButtonPressedEvent</text>
</a>
</g>
</g>
<!-- Node5&#45;&gt;Node6 -->
<g id="edge6" class="edge">
<title>Node5&#45;&gt;Node6</title>
<path fill="none" stroke="midnightblue" d="M431.64,-93.5C441.4,-94.53 451.48,-95.6 461.37,-96.65"/>
<polygon fill="midnightblue" stroke="midnightblue" points="431.91,-90.01 421.6,-92.43 431.18,-96.97 431.91,-90.01"/>
</g>
<!-- Node7 -->
<g id="node8" class="node">
<title>Node7</title>
<g id="a_node8"><a xlink:href="class_sml_1_1_mouse_button_released_event.html" target="_top" xlink:title=" ">
<polygon fill="white" stroke="black" points="459,-57.5 459,-76.5 623,-76.5 623,-57.5 459,-57.5"/>
<text text-anchor="middle" x="541" y="-64.5" font-family="Helvetica,sans-Serif" font-size="10.00">Sml::MouseButtonReleasedEvent</text>
</a>
</g>
</g>
<!-- Node5&#45;&gt;Node7 -->
<g id="edge7" class="edge">
<title>Node5&#45;&gt;Node7</title>
<path fill="none" stroke="midnightblue" d="M431.57,-78.51C440.52,-77.56 449.73,-76.58 458.83,-75.62"/>
<polygon fill="midnightblue" stroke="midnightblue" points="431.18,-75.03 421.6,-79.57 431.91,-81.99 431.18,-75.03"/>
</g>
<!-- Node11 -->
<g id="node12" class="node">
<title>Node11</title>
<g id="a_node12"><a xlink:href="class_sml_1_1_window_close_event.html" target="_top" xlink:title=" ">
<polygon fill="white" stroke="black" points="297,-0.5 297,-19.5 423,-19.5 423,-0.5 297,-0.5"/>
<text text-anchor="middle" x="360" y="-7.5" font-family="Helvetica,sans-Serif" font-size="10.00">Sml::WindowCloseEvent</text>
</a>
</g>
</g>
<!-- Node10&#45;&gt;Node11 -->
<g id="edge11" class="edge">
<title>Node10&#45;&gt;Node11</title>
<path fill="none" stroke="midnightblue" d="M241.99,-10C259.71,-10 279.14,-10 296.98,-10"/>
<polygon fill="midnightblue" stroke="midnightblue" points="241.78,-6.5 231.78,-10 241.78,-13.5 241.78,-6.5"/>
</g>
</g>
</svg>
