<?xml version="1.0" encoding="UTF-8" standalone="no"?>
<!DOCTYPE svg PUBLIC "-//W3C//DTD SVG 1.1//EN"
 "http://www.w3.org/Graphics/SVG/1.1/DTD/svg11.dtd">
<!-- Generated by graphviz version 2.50.0 (20211204.2007)
 -->
<!-- Title: listener_notifier.cpp Pages: 1 -->
<svg width="416pt" height="196pt"
 viewBox="0.00 0.00 415.50 196.00" xmlns="http://www.w3.org/2000/svg" xmlns:xlink="http://www.w3.org/1999/xlink">
<g id="graph0" class="graph" transform="scale(1 1) rotate(0) translate(4 192)">
<title>listener_notifier.cpp</title>
<polygon fill="white" stroke="transparent" points="-4,4 -4,-192 411.5,-192 411.5,4 -4,4"/>
<!-- Node1 -->
<g id="node1" class="node">
<title>Node1</title>
<g id="a_node1"><a xlink:title=" ">
<polygon fill="#bfbfbf" stroke="black" points="98.5,-168.5 98.5,-187.5 199.5,-187.5 199.5,-168.5 98.5,-168.5"/>
<text text-anchor="middle" x="149" y="-175.5" font-family="Helvetica,sans-Serif" font-size="10.00">listener_notifier.cpp</text>
</a>
</g>
</g>
<!-- Node2 -->
<g id="node2" class="node">
<title>Node2</title>
<g id="a_node2"><a xlink:title=" ">
<polygon fill="white" stroke="#bfbfbf" points="68,-112.5 68,-131.5 124,-131.5 124,-112.5 68,-112.5"/>
<text text-anchor="middle" x="96" y="-119.5" font-family="Helvetica,sans-Serif" font-size="10.00">algorithm</text>
</a>
</g>
</g>
<!-- Node1&#45;&gt;Node2 -->
<g id="edge1" class="edge">
<title>Node1&#45;&gt;Node2</title>
<path fill="none" stroke="midnightblue" d="M140.25,-168.08C132.53,-160.22 121.1,-148.57 111.78,-139.08"/>
<polygon fill="midnightblue" stroke="midnightblue" points="114.09,-136.44 104.59,-131.75 109.1,-141.34 114.09,-136.44"/>
</g>
<!-- Node3 -->
<g id="node3" class="node">
<title>Node3</title>
<g id="a_node3"><a xlink:href="listener__notifier_8h.html" target="_top" xlink:title=" ">
<polygon fill="white" stroke="black" points="142,-112.5 142,-131.5 264,-131.5 264,-112.5 142,-112.5"/>
<text text-anchor="middle" x="203" y="-119.5" font-family="Helvetica,sans-Serif" font-size="10.00">events/listener_notifier.h</text>
</a>
</g>
</g>
<!-- Node1&#45;&gt;Node3 -->
<g id="edge2" class="edge">
<title>Node1&#45;&gt;Node3</title>
<path fill="none" stroke="midnightblue" d="M157.92,-168.08C165.78,-160.22 177.43,-148.57 186.92,-139.08"/>
<polygon fill="midnightblue" stroke="midnightblue" points="189.65,-141.3 194.25,-131.75 184.7,-136.35 189.65,-141.3"/>
</g>
<!-- Node4 -->
<g id="node4" class="node">
<title>Node4</title>
<g id="a_node4"><a xlink:title=" ">
<polygon fill="white" stroke="#bfbfbf" points="0,-56.5 0,-75.5 52,-75.5 52,-56.5 0,-56.5"/>
<text text-anchor="middle" x="26" y="-63.5" font-family="Helvetica,sans-Serif" font-size="10.00">assert.h</text>
</a>
</g>
</g>
<!-- Node3&#45;&gt;Node4 -->
<g id="edge3" class="edge">
<title>Node3&#45;&gt;Node4</title>
<path fill="none" stroke="midnightblue" d="M174.95,-112.44C144.39,-103.12 95.39,-88.17 62.01,-77.99"/>
<polygon fill="midnightblue" stroke="midnightblue" points="62.77,-74.56 52.18,-74.99 60.73,-81.25 62.77,-74.56"/>
</g>
<!-- Node5 -->
<g id="node5" class="node">
<title>Node5</title>
<g id="a_node5"><a xlink:title=" ">
<polygon fill="white" stroke="#bfbfbf" points="70.5,-56.5 70.5,-75.5 143.5,-75.5 143.5,-56.5 70.5,-56.5"/>
<text text-anchor="middle" x="107" y="-63.5" font-family="Helvetica,sans-Serif" font-size="10.00">initializer_list</text>
</a>
</g>
</g>
<!-- Node3&#45;&gt;Node5 -->
<g id="edge4" class="edge">
<title>Node3&#45;&gt;Node5</title>
<path fill="none" stroke="midnightblue" d="M187.58,-112.32C172.46,-103.82 149.18,-90.73 131.53,-80.8"/>
<polygon fill="midnightblue" stroke="midnightblue" points="132.82,-77.51 122.39,-75.65 129.39,-83.61 132.82,-77.51"/>
</g>
<!-- Node6 -->
<g id="node6" class="node">
<title>Node6</title>
<g id="a_node6"><a xlink:title=" ">
<polygon fill="white" stroke="#bfbfbf" points="161.5,-56.5 161.5,-75.5 244.5,-75.5 244.5,-56.5 161.5,-56.5"/>
<text text-anchor="middle" x="203" y="-63.5" font-family="Helvetica,sans-Serif" font-size="10.00">unordered_map</text>
</a>
</g>
</g>
<!-- Node3&#45;&gt;Node6 -->
<g id="edge5" class="edge">
<title>Node3&#45;&gt;Node6</title>
<path fill="none" stroke="midnightblue" d="M203,-112.08C203,-105.01 203,-94.86 203,-85.99"/>
<polygon fill="midnightblue" stroke="midnightblue" points="206.5,-85.75 203,-75.75 199.5,-85.75 206.5,-85.75"/>
</g>
<!-- Node7 -->
<g id="node7" class="node">
<title>Node7</title>
<g id="a_node7"><a xlink:title=" ">
<polygon fill="white" stroke="#bfbfbf" points="262.5,-56.5 262.5,-75.5 291.5,-75.5 291.5,-56.5 262.5,-56.5"/>
<text text-anchor="middle" x="277" y="-63.5" font-family="Helvetica,sans-Serif" font-size="10.00">list</text>
</a>
</g>
</g>
<!-- Node3&#45;&gt;Node7 -->
<g id="edge6" class="edge">
<title>Node3&#45;&gt;Node7</title>
<path fill="none" stroke="midnightblue" d="M214.89,-112.32C226.15,-104.11 243.29,-91.6 256.71,-81.81"/>
<polygon fill="midnightblue" stroke="midnightblue" points="258.88,-84.56 264.89,-75.83 254.75,-78.9 258.88,-84.56"/>
</g>
<!-- Node8 -->
<g id="node8" class="node">
<title>Node8</title>
<g id="a_node8"><a xlink:href="event_8h.html" target="_top" xlink:title=" ">
<polygon fill="white" stroke="black" points="309.5,-56.5 309.5,-75.5 358.5,-75.5 358.5,-56.5 309.5,-56.5"/>
<text text-anchor="middle" x="334" y="-63.5" font-family="Helvetica,sans-Serif" font-size="10.00">event.h</text>
</a>
</g>
</g>
<!-- Node3&#45;&gt;Node8 -->
<g id="edge7" class="edge">
<title>Node3&#45;&gt;Node8</title>
<path fill="none" stroke="midnightblue" d="M223.76,-112.44C245.32,-103.56 279.26,-89.56 303.79,-79.45"/>
<polygon fill="midnightblue" stroke="midnightblue" points="305.43,-82.56 313.34,-75.52 302.76,-76.09 305.43,-82.56"/>
</g>
<!-- Node9 -->
<g id="node9" class="node">
<title>Node9</title>
<g id="a_node9"><a xlink:title=" ">
<polygon fill="white" stroke="#bfbfbf" points="263.5,-0.5 263.5,-19.5 322.5,-19.5 322.5,-0.5 263.5,-0.5"/>
<text text-anchor="middle" x="293" y="-7.5" font-family="Helvetica,sans-Serif" font-size="10.00">inttypes.h</text>
</a>
</g>
</g>
<!-- Node8&#45;&gt;Node9 -->
<g id="edge8" class="edge">
<title>Node8&#45;&gt;Node9</title>
<path fill="none" stroke="midnightblue" d="M327.23,-56.08C321.44,-48.46 312.94,-37.26 305.86,-27.94"/>
<polygon fill="midnightblue" stroke="midnightblue" points="308.48,-25.6 299.64,-19.75 302.9,-29.83 308.48,-25.6"/>
</g>
<!-- Node10 -->
<g id="node10" class="node">
<title>Node10</title>
<g id="a_node10"><a xlink:href="scancode_8h.html" target="_top" xlink:title=" ">
<polygon fill="white" stroke="black" points="340.5,-0.5 340.5,-19.5 407.5,-19.5 407.5,-0.5 340.5,-0.5"/>
<text text-anchor="middle" x="374" y="-7.5" font-family="Helvetica,sans-Serif" font-size="10.00">scancode.h</text>
</a>
</g>
</g>
<!-- Node8&#45;&gt;Node10 -->
<g id="edge9" class="edge">
<title>Node8&#45;&gt;Node10</title>
<path fill="none" stroke="midnightblue" d="M340.61,-56.08C346.26,-48.46 354.54,-37.26 361.45,-27.94"/>
<polygon fill="midnightblue" stroke="midnightblue" points="364.38,-29.87 367.52,-19.75 358.75,-25.7 364.38,-29.87"/>
</g>
</g>
</svg>
