<?xml version="1.0" encoding="UTF-8" standalone="no"?>
<!DOCTYPE svg PUBLIC "-//W3C//DTD SVG 1.1//EN"
 "http://www.w3.org/Graphics/SVG/1.1/DTD/svg11.dtd">
<!-- Generated by graphviz version 2.50.0 (20211204.2007)
 -->
<!-- Title: listener_notifier.h Pages: 1 -->
<svg width="415pt" height="196pt"
 viewBox="0.00 0.00 415.00 196.00" xmlns="http://www.w3.org/2000/svg" xmlns:xlink="http://www.w3.org/1999/xlink">
<g id="graph0" class="graph" transform="scale(1 1) rotate(0) translate(4 192)">
<title>listener_notifier.h</title>
<polygon fill="white" stroke="transparent" points="-4,4 -4,-192 411,-192 411,4 -4,4"/>
<!-- Node1 -->
<g id="node1" class="node">
<title>Node1</title>
<g id="a_node1"><a xlink:title=" ">
<polygon fill="#bfbfbf" stroke="black" points="121.5,-168.5 121.5,-187.5 211.5,-187.5 211.5,-168.5 121.5,-168.5"/>
<text text-anchor="middle" x="166.5" y="-175.5" font-family="Helvetica,sans-Serif" font-size="10.00">listener_notifier.h</text>
</a>
</g>
</g>
<!-- Node2 -->
<g id="node2" class="node">
<title>Node2</title>
<g id="a_node2"><a xlink:href="listener__notifier_8cpp.html" target="_top" xlink:title=" ">
<polygon fill="white" stroke="black" points="0,-112.5 0,-131.5 101,-131.5 101,-112.5 0,-112.5"/>
<text text-anchor="middle" x="50.5" y="-119.5" font-family="Helvetica,sans-Serif" font-size="10.00">listener_notifier.cpp</text>
</a>
</g>
</g>
<!-- Node1&#45;&gt;Node2 -->
<g id="edge1" class="edge">
<title>Node1&#45;&gt;Node2</title>
<path fill="none" stroke="midnightblue" d="M138.78,-164.1C117.11,-154.01 87.6,-140.27 68.79,-131.52"/>
<polygon fill="midnightblue" stroke="midnightblue" points="137.58,-167.4 148.12,-168.44 140.53,-161.05 137.58,-167.4"/>
</g>
<!-- Node3 -->
<g id="node3" class="node">
<title>Node3</title>
<g id="a_node3"><a xlink:href="observable__property_8h.html" target="_top" xlink:title=" ">
<polygon fill="white" stroke="black" points="79,-56.5 79,-75.5 190,-75.5 190,-56.5 79,-56.5"/>
<text text-anchor="middle" x="134.5" y="-63.5" font-family="Helvetica,sans-Serif" font-size="10.00">observable_property.h</text>
</a>
</g>
</g>
<!-- Node1&#45;&gt;Node3 -->
<g id="edge2" class="edge">
<title>Node1&#45;&gt;Node3</title>
<path fill="none" stroke="midnightblue" d="M158.48,-158.97C155.08,-150.84 151.26,-141.05 148.5,-132 142.43,-112.13 137.98,-88.07 135.86,-75.53"/>
<polygon fill="midnightblue" stroke="midnightblue" points="155.29,-160.4 162.46,-168.19 161.71,-157.63 155.29,-160.4"/>
</g>
<!-- Node4 -->
<g id="node4" class="node">
<title>Node4</title>
<g id="a_node4"><a xlink:href="system__event__manager_8h.html" target="_top" xlink:title=" ">
<polygon fill="white" stroke="black" points="210.5,-56.5 210.5,-75.5 338.5,-75.5 338.5,-56.5 210.5,-56.5"/>
<text text-anchor="middle" x="274.5" y="-63.5" font-family="Helvetica,sans-Serif" font-size="10.00">system_event_manager.h</text>
</a>
</g>
</g>
<!-- Node1&#45;&gt;Node4 -->
<g id="edge3" class="edge">
<title>Node1&#45;&gt;Node4</title>
<path fill="none" stroke="midnightblue" d="M209.51,-164.9C227.04,-157.94 246.07,-147.42 258.5,-132 271.92,-115.35 274.32,-89.06 274.6,-75.58"/>
<polygon fill="midnightblue" stroke="midnightblue" points="208.15,-161.67 199.97,-168.41 210.57,-168.24 208.15,-161.67"/>
</g>
<!-- Node7 -->
<g id="node7" class="node">
<title>Node7</title>
<g id="a_node7"><a xlink:href="system__events_8h.html" target="_top" xlink:title=" ">
<polygon fill="white" stroke="black" points="157.5,-112.5 157.5,-131.5 249.5,-131.5 249.5,-112.5 157.5,-112.5"/>
<text text-anchor="middle" x="203.5" y="-119.5" font-family="Helvetica,sans-Serif" font-size="10.00">system_events.h</text>
</a>
</g>
</g>
<!-- Node1&#45;&gt;Node7 -->
<g id="edge6" class="edge">
<title>Node1&#45;&gt;Node7</title>
<path fill="none" stroke="midnightblue" d="M178.45,-159.57C184.81,-150.27 192.37,-139.25 197.5,-131.75"/>
<polygon fill="midnightblue" stroke="midnightblue" points="175.37,-157.86 172.61,-168.08 181.15,-161.81 175.37,-157.86"/>
</g>
<!-- Node5 -->
<g id="node5" class="node">
<title>Node5</title>
<g id="a_node5"><a xlink:href="sml__events_8h.html" target="_top" xlink:title=" ">
<polygon fill="white" stroke="black" points="175,-0.5 175,-19.5 250,-19.5 250,-0.5 175,-0.5"/>
<text text-anchor="middle" x="212.5" y="-7.5" font-family="Helvetica,sans-Serif" font-size="10.00">sml_events.h</text>
</a>
</g>
</g>
<!-- Node4&#45;&gt;Node5 -->
<g id="edge4" class="edge">
<title>Node4&#45;&gt;Node5</title>
<path fill="none" stroke="midnightblue" d="M256.75,-49.54C245.69,-39.91 231.87,-27.87 222.64,-19.83"/>
<polygon fill="midnightblue" stroke="midnightblue" points="254.7,-52.4 264.54,-56.32 259.3,-47.12 254.7,-52.4"/>
</g>
<!-- Node6 -->
<g id="node6" class="node">
<title>Node6</title>
<g id="a_node6"><a xlink:href="system__event__manager_8cpp.html" target="_top" xlink:title=" ">
<polygon fill="white" stroke="black" points="268,-0.5 268,-19.5 407,-19.5 407,-0.5 268,-0.5"/>
<text text-anchor="middle" x="337.5" y="-7.5" font-family="Helvetica,sans-Serif" font-size="10.00">system_event_manager.cpp</text>
</a>
</g>
</g>
<!-- Node4&#45;&gt;Node6 -->
<g id="edge5" class="edge">
<title>Node4&#45;&gt;Node6</title>
<path fill="none" stroke="midnightblue" d="M292.54,-49.54C303.77,-39.91 317.82,-27.87 327.19,-19.83"/>
<polygon fill="midnightblue" stroke="midnightblue" points="289.94,-47.16 284.62,-56.32 294.49,-52.47 289.94,-47.16"/>
</g>
<!-- Node7&#45;&gt;Node3 -->
<g id="edge7" class="edge">
<title>Node7&#45;&gt;Node3</title>
<path fill="none" stroke="midnightblue" d="M184.46,-106.1C172.04,-96.38 156.26,-84.03 145.79,-75.83"/>
<polygon fill="midnightblue" stroke="midnightblue" points="182.38,-108.92 192.41,-112.32 186.7,-103.4 182.38,-108.92"/>
</g>
<!-- Node7&#45;&gt;Node4 -->
<g id="edge8" class="edge">
<title>Node7&#45;&gt;Node4</title>
<path fill="none" stroke="midnightblue" d="M223.09,-106.1C235.87,-96.38 252.11,-84.03 262.89,-75.83"/>
<polygon fill="midnightblue" stroke="midnightblue" points="220.75,-103.48 214.91,-112.32 224.99,-109.06 220.75,-103.48"/>
</g>
</g>
</svg>
