<?xml version="1.0" encoding="UTF-8" standalone="no"?>
<!DOCTYPE svg PUBLIC "-//W3C//DTD SVG 1.1//EN"
 "http://www.w3.org/Graphics/SVG/1.1/DTD/svg11.dtd">
<!-- Generated by graphviz version 2.50.0 (20211204.2007)
 -->
<!-- Title: observable_property.h Pages: 1 -->
<svg width="661pt" height="308pt"
 viewBox="0.00 0.00 660.50 308.00" xmlns="http://www.w3.org/2000/svg" xmlns:xlink="http://www.w3.org/1999/xlink">
<g id="graph0" class="graph" transform="scale(1 1) rotate(0) translate(4 304)">
<title>observable_property.h</title>
<polygon fill="white" stroke="transparent" points="-4,4 -4,-304 656.5,-304 656.5,4 -4,4"/>
<!-- Node1 -->
<g id="node1" class="node">
<title>Node1</title>
<g id="a_node1"><a xlink:title=" ">
<polygon fill="#bfbfbf" stroke="black" points="327.5,-280.5 327.5,-299.5 438.5,-299.5 438.5,-280.5 327.5,-280.5"/>
<text text-anchor="middle" x="383" y="-287.5" font-family="Helvetica,sans-Serif" font-size="10.00">observable_property.h</text>
</a>
</g>
</g>
<!-- Node2 -->
<g id="node2" class="node">
<title>Node2</title>
<g id="a_node2"><a xlink:href="listener__notifier_8h.html" target="_top" xlink:title=" ">
<polygon fill="white" stroke="black" points="375,-168.5 375,-187.5 465,-187.5 465,-168.5 375,-168.5"/>
<text text-anchor="middle" x="420" y="-175.5" font-family="Helvetica,sans-Serif" font-size="10.00">listener_notifier.h</text>
</a>
</g>
</g>
<!-- Node1&#45;&gt;Node2 -->
<g id="edge1" class="edge">
<title>Node1&#45;&gt;Node2</title>
<path fill="none" stroke="midnightblue" d="M386.7,-280.47C390.52,-271.48 396.55,-256.88 401,-244 406.34,-228.55 411.48,-210.7 415.07,-197.62"/>
<polygon fill="midnightblue" stroke="midnightblue" points="418.46,-198.48 417.69,-187.92 411.7,-196.66 418.46,-198.48"/>
</g>
<!-- Node10 -->
<g id="node10" class="node">
<title>Node10</title>
<g id="a_node10"><a xlink:href="system__events_8h.html" target="_top" xlink:title=" ">
<polygon fill="white" stroke="black" points="300,-224.5 300,-243.5 392,-243.5 392,-224.5 300,-224.5"/>
<text text-anchor="middle" x="346" y="-231.5" font-family="Helvetica,sans-Serif" font-size="10.00">system_events.h</text>
</a>
</g>
</g>
<!-- Node1&#45;&gt;Node10 -->
<g id="edge9" class="edge">
<title>Node1&#45;&gt;Node10</title>
<path fill="none" stroke="midnightblue" d="M376.89,-280.08C371.72,-272.53 364.15,-261.49 357.81,-252.23"/>
<polygon fill="midnightblue" stroke="midnightblue" points="360.54,-250.02 352,-243.75 354.76,-253.98 360.54,-250.02"/>
</g>
<!-- Node3 -->
<g id="node3" class="node">
<title>Node3</title>
<g id="a_node3"><a xlink:title=" ">
<polygon fill="white" stroke="#bfbfbf" points="218,-56.5 218,-75.5 270,-75.5 270,-56.5 218,-56.5"/>
<text text-anchor="middle" x="244" y="-63.5" font-family="Helvetica,sans-Serif" font-size="10.00">assert.h</text>
</a>
</g>
</g>
<!-- Node2&#45;&gt;Node3 -->
<g id="edge2" class="edge">
<title>Node2&#45;&gt;Node3</title>
<path fill="none" stroke="midnightblue" d="M406.37,-168.33C386.68,-155.83 349.11,-132.03 317,-112 300.21,-101.53 281.18,-89.8 266.76,-80.95"/>
<polygon fill="midnightblue" stroke="midnightblue" points="268.38,-77.83 258.02,-75.58 264.71,-83.8 268.38,-77.83"/>
</g>
<!-- Node4 -->
<g id="node4" class="node">
<title>Node4</title>
<g id="a_node4"><a xlink:title=" ">
<polygon fill="white" stroke="#bfbfbf" points="431.5,-112.5 431.5,-131.5 504.5,-131.5 504.5,-112.5 431.5,-112.5"/>
<text text-anchor="middle" x="468" y="-119.5" font-family="Helvetica,sans-Serif" font-size="10.00">initializer_list</text>
</a>
</g>
</g>
<!-- Node2&#45;&gt;Node4 -->
<g id="edge3" class="edge">
<title>Node2&#45;&gt;Node4</title>
<path fill="none" stroke="midnightblue" d="M427.93,-168.08C434.85,-160.3 445.07,-148.8 453.45,-139.37"/>
<polygon fill="midnightblue" stroke="midnightblue" points="456.19,-141.55 460.22,-131.75 450.96,-136.9 456.19,-141.55"/>
</g>
<!-- Node5 -->
<g id="node5" class="node">
<title>Node5</title>
<g id="a_node5"><a xlink:title=" ">
<polygon fill="white" stroke="#bfbfbf" points="522.5,-112.5 522.5,-131.5 605.5,-131.5 605.5,-112.5 522.5,-112.5"/>
<text text-anchor="middle" x="564" y="-119.5" font-family="Helvetica,sans-Serif" font-size="10.00">unordered_map</text>
</a>
</g>
</g>
<!-- Node2&#45;&gt;Node5 -->
<g id="edge4" class="edge">
<title>Node2&#45;&gt;Node5</title>
<path fill="none" stroke="midnightblue" d="M442.82,-168.44C466.83,-159.44 504.83,-145.19 531.87,-135.05"/>
<polygon fill="midnightblue" stroke="midnightblue" points="533.16,-138.3 541.29,-131.52 530.7,-131.75 533.16,-138.3"/>
</g>
<!-- Node6 -->
<g id="node6" class="node">
<title>Node6</title>
<g id="a_node6"><a xlink:title=" ">
<polygon fill="white" stroke="#bfbfbf" points="623.5,-112.5 623.5,-131.5 652.5,-131.5 652.5,-112.5 623.5,-112.5"/>
<text text-anchor="middle" x="638" y="-119.5" font-family="Helvetica,sans-Serif" font-size="10.00">list</text>
</a>
</g>
</g>
<!-- Node2&#45;&gt;Node6 -->
<g id="edge5" class="edge">
<title>Node2&#45;&gt;Node6</title>
<path fill="none" stroke="midnightblue" d="M465.03,-168.56C502.69,-161.06 557.93,-149.06 613.39,-132.2"/>
<polygon fill="midnightblue" stroke="midnightblue" points="614.5,-135.52 623.02,-129.23 612.43,-128.83 614.5,-135.52"/>
</g>
<!-- Node7 -->
<g id="node7" class="node">
<title>Node7</title>
<g id="a_node7"><a xlink:href="event_8h.html" target="_top" xlink:title=" ">
<polygon fill="white" stroke="black" points="364.5,-112.5 364.5,-131.5 413.5,-131.5 413.5,-112.5 364.5,-112.5"/>
<text text-anchor="middle" x="389" y="-119.5" font-family="Helvetica,sans-Serif" font-size="10.00">event.h</text>
</a>
</g>
</g>
<!-- Node2&#45;&gt;Node7 -->
<g id="edge6" class="edge">
<title>Node2&#45;&gt;Node7</title>
<path fill="none" stroke="midnightblue" d="M414.88,-168.08C410.59,-160.61 404.34,-149.72 399.06,-140.52"/>
<polygon fill="midnightblue" stroke="midnightblue" points="402.04,-138.68 394.02,-131.75 395.97,-142.17 402.04,-138.68"/>
</g>
<!-- Node8 -->
<g id="node8" class="node">
<title>Node8</title>
<g id="a_node8"><a xlink:title=" ">
<polygon fill="white" stroke="#bfbfbf" points="150.5,-0.5 150.5,-19.5 209.5,-19.5 209.5,-0.5 150.5,-0.5"/>
<text text-anchor="middle" x="180" y="-7.5" font-family="Helvetica,sans-Serif" font-size="10.00">inttypes.h</text>
</a>
</g>
</g>
<!-- Node7&#45;&gt;Node8 -->
<g id="edge7" class="edge">
<title>Node7&#45;&gt;Node8</title>
<path fill="none" stroke="midnightblue" d="M389.07,-112.46C388.7,-98.55 385.86,-71.06 370,-56 348.66,-35.73 268.85,-22.26 219.71,-15.68"/>
<polygon fill="midnightblue" stroke="midnightblue" points="220.09,-12.2 209.72,-14.38 219.19,-19.14 220.09,-12.2"/>
</g>
<!-- Node9 -->
<g id="node9" class="node">
<title>Node9</title>
<g id="a_node9"><a xlink:href="scancode_8h.html" target="_top" xlink:title=" ">
<polygon fill="white" stroke="black" points="293.5,-56.5 293.5,-75.5 360.5,-75.5 360.5,-56.5 293.5,-56.5"/>
<text text-anchor="middle" x="327" y="-63.5" font-family="Helvetica,sans-Serif" font-size="10.00">scancode.h</text>
</a>
</g>
</g>
<!-- Node7&#45;&gt;Node9 -->
<g id="edge8" class="edge">
<title>Node7&#45;&gt;Node9</title>
<path fill="none" stroke="midnightblue" d="M379.04,-112.32C369.87,-104.34 356.06,-92.31 344.97,-82.65"/>
<polygon fill="midnightblue" stroke="midnightblue" points="346.98,-79.76 337.14,-75.83 342.38,-85.04 346.98,-79.76"/>
</g>
<!-- Node10&#45;&gt;Node2 -->
<g id="edge11" class="edge">
<title>Node10&#45;&gt;Node2</title>
<path fill="none" stroke="midnightblue" d="M357.89,-224.32C369.15,-216.11 386.29,-203.6 399.71,-193.81"/>
<polygon fill="midnightblue" stroke="midnightblue" points="401.88,-196.56 407.89,-187.83 397.75,-190.9 401.88,-196.56"/>
</g>
<!-- Node10&#45;&gt;Node7 -->
<g id="edge10" class="edge">
<title>Node10&#45;&gt;Node7</title>
<path fill="none" stroke="midnightblue" d="M348.13,-224.42C351.37,-211.83 358.01,-187.69 366,-168 369.75,-158.75 374.71,-148.84 379.06,-140.68"/>
<polygon fill="midnightblue" stroke="midnightblue" points="382.22,-142.2 383.95,-131.75 376.08,-138.84 382.22,-142.2"/>
</g>
<!-- Node11 -->
<g id="node11" class="node">
<title>Node11</title>
<g id="a_node11"><a xlink:href="mouse_8h.html" target="_top" xlink:title=" ">
<polygon fill="white" stroke="black" points="216,-168.5 216,-187.5 270,-187.5 270,-168.5 216,-168.5"/>
<text text-anchor="middle" x="243" y="-175.5" font-family="Helvetica,sans-Serif" font-size="10.00">mouse.h</text>
</a>
</g>
</g>
<!-- Node10&#45;&gt;Node11 -->
<g id="edge12" class="edge">
<title>Node10&#45;&gt;Node11</title>
<path fill="none" stroke="midnightblue" d="M329.45,-224.32C313.01,-215.7 287.57,-202.36 268.53,-192.39"/>
<polygon fill="midnightblue" stroke="midnightblue" points="269.99,-189.2 259.51,-187.65 266.74,-195.4 269.99,-189.2"/>
</g>
<!-- Node17 -->
<g id="node17" class="node">
<title>Node17</title>
<g id="a_node17"><a xlink:href="bit_8h.html" target="_top" xlink:title=" ">
<polygon fill="white" stroke="black" points="242.5,-112.5 242.5,-131.5 307.5,-131.5 307.5,-112.5 242.5,-112.5"/>
<text text-anchor="middle" x="275" y="-119.5" font-family="Helvetica,sans-Serif" font-size="10.00">../utils/bit.h</text>
</a>
</g>
</g>
<!-- Node10&#45;&gt;Node17 -->
<g id="edge22" class="edge">
<title>Node10&#45;&gt;Node17</title>
<path fill="none" stroke="midnightblue" d="M340.43,-224.37C328.76,-206.3 301.58,-164.18 286.17,-140.31"/>
<polygon fill="midnightblue" stroke="midnightblue" points="288.91,-138.1 280.55,-131.59 283.03,-141.89 288.91,-138.1"/>
</g>
<!-- Node12 -->
<g id="node12" class="node">
<title>Node12</title>
<g id="a_node12"><a xlink:title=" ">
<polygon fill="white" stroke="#bfbfbf" points="180,-112.5 180,-131.5 224,-131.5 224,-112.5 180,-112.5"/>
<text text-anchor="middle" x="202" y="-119.5" font-family="Helvetica,sans-Serif" font-size="10.00">SDL.h</text>
</a>
</g>
</g>
<!-- Node11&#45;&gt;Node12 -->
<g id="edge13" class="edge">
<title>Node11&#45;&gt;Node12</title>
<path fill="none" stroke="midnightblue" d="M236.23,-168.08C230.44,-160.46 221.94,-149.26 214.86,-139.94"/>
<polygon fill="midnightblue" stroke="midnightblue" points="217.48,-137.6 208.64,-131.75 211.9,-141.83 217.48,-137.6"/>
</g>
<!-- Node13 -->
<g id="node13" class="node">
<title>Node13</title>
<g id="a_node13"><a xlink:href="vec2_8h.html" target="_top" xlink:title=" ">
<polygon fill="white" stroke="black" points="82,-112.5 82,-131.5 162,-131.5 162,-112.5 82,-112.5"/>
<text text-anchor="middle" x="122" y="-119.5" font-family="Helvetica,sans-Serif" font-size="10.00">../math/vec2.h</text>
</a>
</g>
</g>
<!-- Node11&#45;&gt;Node13 -->
<g id="edge14" class="edge">
<title>Node11&#45;&gt;Node13</title>
<path fill="none" stroke="midnightblue" d="M223.83,-168.44C204.09,-159.64 173.11,-145.81 150.51,-135.72"/>
<polygon fill="midnightblue" stroke="midnightblue" points="151.64,-132.4 141.08,-131.52 148.79,-138.79 151.64,-132.4"/>
</g>
<!-- Node11&#45;&gt;Node17 -->
<g id="edge21" class="edge">
<title>Node11&#45;&gt;Node17</title>
<path fill="none" stroke="midnightblue" d="M248.28,-168.08C252.71,-160.61 259.16,-149.72 264.62,-140.52"/>
<polygon fill="midnightblue" stroke="midnightblue" points="267.73,-142.14 269.81,-131.75 261.71,-138.57 267.73,-142.14"/>
</g>
<!-- Node13&#45;&gt;Node3 -->
<g id="edge15" class="edge">
<title>Node13&#45;&gt;Node3</title>
<path fill="none" stroke="midnightblue" d="M141.33,-112.44C161.32,-103.6 192.74,-89.69 215.56,-79.59"/>
<polygon fill="midnightblue" stroke="midnightblue" points="217.03,-82.76 224.76,-75.52 214.2,-76.36 217.03,-82.76"/>
</g>
<!-- Node13&#45;&gt;Node8 -->
<g id="edge16" class="edge">
<title>Node13&#45;&gt;Node8</title>
<path fill="none" stroke="midnightblue" d="M131.67,-112.25C140.49,-103.77 153.28,-90.16 161,-76 168.92,-61.48 173.87,-43.3 176.72,-29.86"/>
<polygon fill="midnightblue" stroke="midnightblue" points="180.19,-30.35 178.65,-19.87 173.32,-29.03 180.19,-30.35"/>
</g>
<!-- Node14 -->
<g id="node14" class="node">
<title>Node14</title>
<g id="a_node14"><a xlink:title=" ">
<polygon fill="white" stroke="#bfbfbf" points="104.5,-56.5 104.5,-75.5 151.5,-75.5 151.5,-56.5 104.5,-56.5"/>
<text text-anchor="middle" x="128" y="-63.5" font-family="Helvetica,sans-Serif" font-size="10.00">math.h</text>
</a>
</g>
</g>
<!-- Node13&#45;&gt;Node14 -->
<g id="edge17" class="edge">
<title>Node13&#45;&gt;Node14</title>
<path fill="none" stroke="midnightblue" d="M122.99,-112.08C123.79,-104.93 124.93,-94.64 125.92,-85.69"/>
<polygon fill="midnightblue" stroke="midnightblue" points="129.4,-86.08 127.03,-75.75 122.44,-85.3 129.4,-86.08"/>
</g>
<!-- Node15 -->
<g id="node15" class="node">
<title>Node15</title>
<g id="a_node15"><a xlink:href="float__compare_8h.html" target="_top" xlink:title=" ">
<polygon fill="white" stroke="black" points="0,-56.5 0,-75.5 86,-75.5 86,-56.5 0,-56.5"/>
<text text-anchor="middle" x="43" y="-63.5" font-family="Helvetica,sans-Serif" font-size="10.00">float_compare.h</text>
</a>
</g>
</g>
<!-- Node13&#45;&gt;Node15 -->
<g id="edge18" class="edge">
<title>Node13&#45;&gt;Node15</title>
<path fill="none" stroke="midnightblue" d="M109.31,-112.32C97.1,-103.98 78.42,-91.21 64,-81.35"/>
<polygon fill="midnightblue" stroke="midnightblue" points="65.89,-78.41 55.66,-75.65 61.94,-84.19 65.89,-78.41"/>
</g>
<!-- Node15&#45;&gt;Node8 -->
<g id="edge19" class="edge">
<title>Node15&#45;&gt;Node8</title>
<path fill="none" stroke="midnightblue" d="M64.71,-56.44C87.35,-47.52 123.07,-33.44 148.75,-23.32"/>
<polygon fill="midnightblue" stroke="midnightblue" points="150.37,-26.44 158.39,-19.52 147.81,-19.93 150.37,-26.44"/>
</g>
<!-- Node16 -->
<g id="node16" class="node">
<title>Node16</title>
<g id="a_node16"><a xlink:title=" ">
<polygon fill="white" stroke="#bfbfbf" points="21,-0.5 21,-19.5 65,-19.5 65,-0.5 21,-0.5"/>
<text text-anchor="middle" x="43" y="-7.5" font-family="Helvetica,sans-Serif" font-size="10.00">float.h</text>
</a>
</g>
</g>
<!-- Node15&#45;&gt;Node16 -->
<g id="edge20" class="edge">
<title>Node15&#45;&gt;Node16</title>
<path fill="none" stroke="midnightblue" d="M43,-56.08C43,-49.01 43,-38.86 43,-29.99"/>
<polygon fill="midnightblue" stroke="midnightblue" points="46.5,-29.75 43,-19.75 39.5,-29.75 46.5,-29.75"/>
</g>
</g>
</svg>
