<?xml version="1.0" encoding="UTF-8" standalone="no"?>
<!DOCTYPE svg PUBLIC "-//W3C//DTD SVG 1.1//EN"
 "http://www.w3.org/Graphics/SVG/1.1/DTD/svg11.dtd">
<!-- Generated by graphviz version 2.50.0 (20211204.2007)
 -->
<!-- Title: primitives.h Pages: 1 -->
<!--zoomable 476 -->
<svg id="main" version="1.1" xmlns="http://www.w3.org/2000/svg" xmlns:xlink="http://www.w3.org/1999/xlink" xml:space="preserve" onload="init(evt)">
<style type="text/css"><![CDATA[
.edge:hover path { stroke: red; }
.edge:hover polygon { stroke: red; fill: red; }
]]></style>
<script type="text/javascript"><![CDATA[
var edges = document.getElementsByTagName('g');
if (edges && edges.length) {
  for (var i=0;i<edges.length;i++) {
    if (edges[i].id.substr(0,4)=='edge') {
      edges[i].setAttribute('class','edge');
    }
  }
}
]]></script>
        <defs>
                <circle id="rim" cx="0" cy="0" r="7"/>
                <circle id="rim2" cx="0" cy="0" r="3.5"/>
                <g id="zoomPlus">
                        <use xlink:href="#rim" fill="#404040">
                                <set attributeName="fill" to="#808080" begin="zoomplus.mouseover" end="zoomplus.mouseout"/>
                        </use>
                        <path d="M-4,0h8M0,-4v8" fill="none" stroke="white" stroke-width="1.5" pointer-events="none"/>
                </g>
                <g id="zoomMin">
                        <use xlink:href="#rim" fill="#404040">
                                <set attributeName="fill" to="#808080" begin="zoomminus.mouseover" end="zoomminus.mouseout"/>
                        </use>
                        <path d="M-4,0h8" fill="none" stroke="white" stroke-width="1.5" pointer-events="none"/>
                </g>
                <g id="dirArrow">
                        <path fill="none" stroke="white" stroke-width="1.5" d="M0,-3.0v7 M-2.5,-0.5L0,-3.0L2.5,-0.5"/>
                </g>
               <g id="resetDef">
                       <use xlink:href="#rim2" fill="#404040">
                               <set attributeName="fill" to="#808080" begin="reset.mouseover" end="reset.mouseout"/>
                       </use>
               </g>
        </defs>

<script type="text/javascript">
var viewWidth = 955;
var viewHeight = 476;
var sectionId = 'dynsection-0';
</script>
<script xlink:href="svgpan.js"/>
<svg id="graph" class="graph">
<g id="viewport">
<title>primitives.h</title>
<polygon fill="white" stroke="transparent" points="-4,4 -4,-472 950.8,-472 950.8,4 -4,4"/>
<!-- Node1 -->
<g id="node1" class="node">
<title>Node1</title>
<g id="a_node1"><a xlink:title=" ">
<polygon fill="#bfbfbf" stroke="black" points="174.22,-448.5 174.22,-467.5 241.22,-467.5 241.22,-448.5 174.22,-448.5"/>
<text text-anchor="middle" x="207.72" y="-455.5" font-family="Helvetica,sans-Serif" font-size="10.00">primitives.h</text>
</a>
</g>
</g>
<!-- Node2 -->
<g id="node2" class="node">
<title>Node2</title>
<g id="a_node2"><a xlink:href="renderer_8h.html" target="_top" xlink:title=" ">
<polygon fill="white" stroke="black" points="178.22,-392.5 178.22,-411.5 237.22,-411.5 237.22,-392.5 178.22,-392.5"/>
<text text-anchor="middle" x="207.72" y="-399.5" font-family="Helvetica,sans-Serif" font-size="10.00">renderer.h</text>
</a>
</g>
</g>
<!-- Node1&#45;&gt;Node2 -->
<g id="edge1" class="edge">
<title>Node1&#45;&gt;Node2</title>
<path fill="none" stroke="midnightblue" d="M207.72,-448.08C207.72,-441.01 207.72,-430.86 207.72,-421.99"/>
<polygon fill="midnightblue" stroke="midnightblue" points="211.22,-421.75 207.72,-411.75 204.22,-421.75 211.22,-421.75"/>
</g>
<!-- Node3 -->
<g id="node3" class="node">
<title>Node3</title>
<g id="a_node3"><a xlink:title=" ">
<polygon fill="white" stroke="#bfbfbf" points="144.22,-224.5 144.22,-243.5 193.22,-243.5 193.22,-224.5 144.22,-224.5"/>
<text text-anchor="middle" x="168.72" y="-231.5" font-family="Helvetica,sans-Serif" font-size="10.00">stdint.h</text>
</a>
</g>
</g>
<!-- Node2&#45;&gt;Node3 -->
<g id="edge2" class="edge">
<title>Node2&#45;&gt;Node3</title>
<path fill="none" stroke="midnightblue" d="M178.01,-398.68C128,-394.09 30.45,-381.97 9.72,-356 -31.31,-304.59 75.67,-262.96 133.91,-244.82"/>
<polygon fill="midnightblue" stroke="midnightblue" points="135.28,-248.06 143.83,-241.81 133.25,-241.36 135.28,-248.06"/>
</g>
<!-- Node4 -->
<g id="node4" class="node">
<title>Node4</title>
<g id="a_node4"><a xlink:title=" ">
<polygon fill="white" stroke="#bfbfbf" points="19.22,-336.5 19.22,-355.5 102.22,-355.5 102.22,-336.5 19.22,-336.5"/>
<text text-anchor="middle" x="60.72" y="-343.5" font-family="Helvetica,sans-Serif" font-size="10.00">unordered_map</text>
</a>
</g>
</g>
<!-- Node2&#45;&gt;Node4 -->
<g id="edge3" class="edge">
<title>Node2&#45;&gt;Node4</title>
<path fill="none" stroke="midnightblue" d="M184.43,-392.44C159.91,-383.44 121.13,-369.19 93.52,-359.05"/>
<polygon fill="midnightblue" stroke="midnightblue" points="94.5,-355.68 83.91,-355.52 92.09,-362.25 94.5,-355.68"/>
</g>
<!-- Node5 -->
<g id="node5" class="node">
<title>Node5</title>
<g id="a_node5"><a xlink:title=" ">
<polygon fill="white" stroke="#bfbfbf" points="120.22,-336.5 120.22,-355.5 161.22,-355.5 161.22,-336.5 120.22,-336.5"/>
<text text-anchor="middle" x="140.72" y="-343.5" font-family="Helvetica,sans-Serif" font-size="10.00">stack</text>
</a>
</g>
</g>
<!-- Node2&#45;&gt;Node5 -->
<g id="edge4" class="edge">
<title>Node2&#45;&gt;Node5</title>
<path fill="none" stroke="midnightblue" d="M196.96,-392.32C186.96,-384.26 171.84,-372.08 159.79,-362.37"/>
<polygon fill="midnightblue" stroke="midnightblue" points="161.66,-359.38 151.68,-355.83 157.27,-364.83 161.66,-359.38"/>
</g>
<!-- Node6 -->
<g id="node6" class="node">
<title>Node6</title>
<g id="a_node6"><a xlink:href="window_8h.html" target="_top" xlink:title=" ">
<polygon fill="white" stroke="black" points="179.72,-336.5 179.72,-355.5 235.72,-355.5 235.72,-336.5 179.72,-336.5"/>
<text text-anchor="middle" x="207.72" y="-343.5" font-family="Helvetica,sans-Serif" font-size="10.00">window.h</text>
</a>
</g>
</g>
<!-- Node2&#45;&gt;Node6 -->
<g id="edge5" class="edge">
<title>Node2&#45;&gt;Node6</title>
<path fill="none" stroke="midnightblue" d="M207.72,-392.08C207.72,-385.01 207.72,-374.86 207.72,-365.99"/>
<polygon fill="midnightblue" stroke="midnightblue" points="211.22,-365.75 207.72,-355.75 204.22,-365.75 211.22,-365.75"/>
</g>
<!-- Node10 -->
<g id="node10" class="node">
<title>Node10</title>
<g id="a_node10"><a xlink:href="color_8h.html" target="_top" xlink:title=" ">
<polygon fill="white" stroke="black" points="208.22,-280.5 208.22,-299.5 253.22,-299.5 253.22,-280.5 208.22,-280.5"/>
<text text-anchor="middle" x="230.72" y="-287.5" font-family="Helvetica,sans-Serif" font-size="10.00">color.h</text>
</a>
</g>
</g>
<!-- Node2&#45;&gt;Node10 -->
<g id="edge44" class="edge">
<title>Node2&#45;&gt;Node10</title>
<path fill="none" stroke="midnightblue" d="M218.16,-392.24C227.15,-383.97 239.47,-370.66 244.72,-356 250.25,-340.57 245.34,-322.25 239.86,-309"/>
<polygon fill="midnightblue" stroke="midnightblue" points="242.9,-307.23 235.54,-299.61 236.54,-310.16 242.9,-307.23"/>
</g>
<!-- Node20 -->
<g id="node20" class="node">
<title>Node20</title>
<g id="a_node20"><a xlink:href="texture_8h.html" target="_top" xlink:title="Basic texture management.">
<polygon fill="white" stroke="black" points="292.22,-336.5 292.22,-355.5 347.22,-355.5 347.22,-336.5 292.22,-336.5"/>
<text text-anchor="middle" x="319.72" y="-343.5" font-family="Helvetica,sans-Serif" font-size="10.00">texture.h</text>
</a>
</g>
</g>
<!-- Node2&#45;&gt;Node20 -->
<g id="edge29" class="edge">
<title>Node2&#45;&gt;Node20</title>
<path fill="none" stroke="midnightblue" d="M225.72,-392.32C243.76,-383.62 271.77,-370.12 292.52,-360.11"/>
<polygon fill="midnightblue" stroke="midnightblue" points="294.28,-363.15 301.77,-355.65 291.24,-356.84 294.28,-363.15"/>
</g>
<!-- Node21 -->
<g id="node21" class="node">
<title>Node21</title>
<g id="a_node21"><a xlink:href="sml__math_8h.html" target="_top" xlink:title=" ">
<polygon fill="white" stroke="black" points="669.22,-280.5 669.22,-299.5 746.22,-299.5 746.22,-280.5 669.22,-280.5"/>
<text text-anchor="middle" x="707.72" y="-287.5" font-family="Helvetica,sans-Serif" font-size="10.00">../sml_math.h</text>
</a>
</g>
</g>
<!-- Node2&#45;&gt;Node21 -->
<g id="edge45" class="edge">
<title>Node2&#45;&gt;Node21</title>
<path fill="none" stroke="midnightblue" d="M237.5,-394.45C320.82,-376.12 556.88,-324.19 659.3,-301.65"/>
<polygon fill="midnightblue" stroke="midnightblue" points="660.07,-305.07 669.08,-299.5 658.56,-298.23 660.07,-305.07"/>
</g>
<!-- Node7 -->
<g id="node7" class="node">
<title>Node7</title>
<g id="a_node7"><a xlink:title=" ">
<polygon fill="white" stroke="#bfbfbf" points="391.72,-56.5 391.72,-75.5 443.72,-75.5 443.72,-56.5 391.72,-56.5"/>
<text text-anchor="middle" x="417.72" y="-63.5" font-family="Helvetica,sans-Serif" font-size="10.00">assert.h</text>
</a>
</g>
</g>
<!-- Node6&#45;&gt;Node7 -->
<g id="edge6" class="edge">
<title>Node6&#45;&gt;Node7</title>
<path fill="none" stroke="midnightblue" d="M182.04,-336.47C144.15,-322.07 77.72,-289.1 77.72,-235 77.72,-235 77.72,-235 77.72,-177 77.72,-113.66 294.05,-81.38 381.59,-70.91"/>
<polygon fill="midnightblue" stroke="midnightblue" points="382.08,-74.38 391.61,-69.74 381.27,-67.42 382.08,-74.38"/>
</g>
<!-- Node8 -->
<g id="node8" class="node">
<title>Node8</title>
<g id="a_node8"><a xlink:title=" ">
<polygon fill="white" stroke="#bfbfbf" points="143.72,-280.5 143.72,-299.5 189.72,-299.5 189.72,-280.5 143.72,-280.5"/>
<text text-anchor="middle" x="166.72" y="-287.5" font-family="Helvetica,sans-Serif" font-size="10.00">stdio.h</text>
</a>
</g>
</g>
<!-- Node6&#45;&gt;Node8 -->
<g id="edge7" class="edge">
<title>Node6&#45;&gt;Node8</title>
<path fill="none" stroke="midnightblue" d="M200.95,-336.08C195.16,-328.46 186.66,-317.26 179.58,-307.94"/>
<polygon fill="midnightblue" stroke="midnightblue" points="182.2,-305.6 173.37,-299.75 176.63,-309.83 182.2,-305.6"/>
</g>
<!-- Node9 -->
<g id="node9" class="node">
<title>Node9</title>
<g id="a_node9"><a xlink:title=" ">
<polygon fill="white" stroke="#bfbfbf" points="218.72,-168.5 218.72,-187.5 262.72,-187.5 262.72,-168.5 218.72,-168.5"/>
<text text-anchor="middle" x="240.72" y="-175.5" font-family="Helvetica,sans-Serif" font-size="10.00">SDL.h</text>
</a>
</g>
</g>
<!-- Node6&#45;&gt;Node9 -->
<g id="edge8" class="edge">
<title>Node6&#45;&gt;Node9</title>
<path fill="none" stroke="midnightblue" d="M181.51,-336.41C164.87,-329.44 144.66,-317.81 134.72,-300 127.85,-287.7 117.98,-250.39 135.72,-224 151.99,-199.81 184.19,-188.56 208.67,-183.37"/>
<polygon fill="midnightblue" stroke="midnightblue" points="209.44,-186.79 218.62,-181.49 208.14,-179.91 209.44,-186.79"/>
</g>
<!-- Node6&#45;&gt;Node10 -->
<g id="edge9" class="edge">
<title>Node6&#45;&gt;Node10</title>
<path fill="none" stroke="midnightblue" d="M211.52,-336.08C214.63,-328.77 219.14,-318.18 223.01,-309.1"/>
<polygon fill="midnightblue" stroke="midnightblue" points="226.3,-310.32 226.99,-299.75 219.86,-307.58 226.3,-310.32"/>
</g>
<!-- Node19 -->
<g id="node19" class="node">
<title>Node19</title>
<g id="a_node19"><a xlink:href="rectangle_8h.html" target="_top" xlink:title=" ">
<polygon fill="white" stroke="black" points="459.72,-224.5 459.72,-243.5 557.72,-243.5 557.72,-224.5 459.72,-224.5"/>
<text text-anchor="middle" x="508.72" y="-231.5" font-family="Helvetica,sans-Serif" font-size="10.00">../math/rectangle.h</text>
</a>
</g>
</g>
<!-- Node6&#45;&gt;Node19 -->
<g id="edge26" class="edge">
<title>Node6&#45;&gt;Node19</title>
<path fill="none" stroke="midnightblue" d="M231.34,-336.37C284.64,-316.89 414.37,-269.48 475.64,-247.09"/>
<polygon fill="midnightblue" stroke="midnightblue" points="477.02,-250.31 485.21,-243.59 474.62,-243.74 477.02,-250.31"/>
</g>
<!-- Node10&#45;&gt;Node3 -->
<g id="edge10" class="edge">
<title>Node10&#45;&gt;Node3</title>
<path fill="none" stroke="midnightblue" d="M220.76,-280.32C211.6,-272.34 197.78,-260.31 186.69,-250.65"/>
<polygon fill="midnightblue" stroke="midnightblue" points="188.7,-247.76 178.86,-243.83 184.11,-253.04 188.7,-247.76"/>
</g>
<!-- Node10&#45;&gt;Node9 -->
<g id="edge11" class="edge">
<title>Node10&#45;&gt;Node9</title>
<path fill="none" stroke="midnightblue" d="M231.51,-280.37C233.12,-262.62 236.84,-221.67 239.03,-197.6"/>
<polygon fill="midnightblue" stroke="midnightblue" points="242.52,-197.87 239.94,-187.59 235.55,-197.23 242.52,-197.87"/>
</g>
<!-- Node11 -->
<g id="node11" class="node">
<title>Node11</title>
<g id="a_node11"><a xlink:title=" ">
<polygon fill="white" stroke="#bfbfbf" points="385.72,-224.5 385.72,-243.5 441.72,-243.5 441.72,-224.5 385.72,-224.5"/>
<text text-anchor="middle" x="413.72" y="-231.5" font-family="Helvetica,sans-Serif" font-size="10.00">algorithm</text>
</a>
</g>
</g>
<!-- Node10&#45;&gt;Node11 -->
<g id="edge12" class="edge">
<title>Node10&#45;&gt;Node11</title>
<path fill="none" stroke="midnightblue" d="M253.53,-282.27C284.09,-273.25 338.76,-257.12 375.63,-246.24"/>
<polygon fill="midnightblue" stroke="midnightblue" points="376.92,-249.51 385.52,-243.32 374.94,-242.8 376.92,-249.51"/>
</g>
<!-- Node12 -->
<g id="node12" class="node">
<title>Node12</title>
<g id="a_node12"><a xlink:href="vec4_8h.html" target="_top" xlink:title=" ">
<polygon fill="white" stroke="black" points="287.72,-224.5 287.72,-243.5 367.72,-243.5 367.72,-224.5 287.72,-224.5"/>
<text text-anchor="middle" x="327.72" y="-231.5" font-family="Helvetica,sans-Serif" font-size="10.00">../math/vec4.h</text>
</a>
</g>
</g>
<!-- Node10&#45;&gt;Node12 -->
<g id="edge13" class="edge">
<title>Node10&#45;&gt;Node12</title>
<path fill="none" stroke="midnightblue" d="M246.31,-280.32C261.72,-271.74 285.53,-258.49 303.43,-248.52"/>
<polygon fill="midnightblue" stroke="midnightblue" points="305.14,-251.58 312.18,-243.65 301.74,-245.46 305.14,-251.58"/>
</g>
<!-- Node12&#45;&gt;Node7 -->
<g id="edge14" class="edge">
<title>Node12&#45;&gt;Node7</title>
<path fill="none" stroke="midnightblue" d="M332.56,-224.08C346.85,-197.72 389.05,-119.88 408.15,-84.66"/>
<polygon fill="midnightblue" stroke="midnightblue" points="411.39,-86.03 413.08,-75.57 405.23,-82.69 411.39,-86.03"/>
</g>
<!-- Node13 -->
<g id="node13" class="node">
<title>Node13</title>
<g id="a_node13"><a xlink:title=" ">
<polygon fill="white" stroke="#bfbfbf" points="531.22,-56.5 531.22,-75.5 578.22,-75.5 578.22,-56.5 531.22,-56.5"/>
<text text-anchor="middle" x="554.72" y="-63.5" font-family="Helvetica,sans-Serif" font-size="10.00">math.h</text>
</a>
</g>
</g>
<!-- Node12&#45;&gt;Node13 -->
<g id="edge15" class="edge">
<title>Node12&#45;&gt;Node13</title>
<path fill="none" stroke="midnightblue" d="M339.61,-224.31C376.38,-197.42 488.6,-115.35 534.67,-81.67"/>
<polygon fill="midnightblue" stroke="midnightblue" points="536.95,-84.33 542.95,-75.61 532.82,-78.68 536.95,-84.33"/>
</g>
<!-- Node14 -->
<g id="node14" class="node">
<title>Node14</title>
<g id="a_node14"><a xlink:href="vec3_8h.html" target="_top" xlink:title=" ">
<polygon fill="white" stroke="black" points="562.72,-168.5 562.72,-187.5 608.72,-187.5 608.72,-168.5 562.72,-168.5"/>
<text text-anchor="middle" x="585.72" y="-175.5" font-family="Helvetica,sans-Serif" font-size="10.00">vec3.h</text>
</a>
</g>
</g>
<!-- Node12&#45;&gt;Node14 -->
<g id="edge16" class="edge">
<title>Node12&#45;&gt;Node14</title>
<path fill="none" stroke="midnightblue" d="M367.75,-224.62C418.54,-213.99 505.21,-195.85 552.52,-185.95"/>
<polygon fill="midnightblue" stroke="midnightblue" points="553.47,-189.33 562.54,-183.85 552.04,-182.47 553.47,-189.33"/>
</g>
<!-- Node14&#45;&gt;Node7 -->
<g id="edge17" class="edge">
<title>Node14&#45;&gt;Node7</title>
<path fill="none" stroke="midnightblue" d="M572.54,-168.37C543.71,-149.49 474.82,-104.38 439.46,-81.24"/>
<polygon fill="midnightblue" stroke="midnightblue" points="441.13,-78.14 430.84,-75.59 437.29,-84 441.13,-78.14"/>
</g>
<!-- Node14&#45;&gt;Node13 -->
<g id="edge18" class="edge">
<title>Node14&#45;&gt;Node13</title>
<path fill="none" stroke="midnightblue" d="M583.29,-168.37C578.26,-150.54 566.64,-109.3 559.87,-85.27"/>
<polygon fill="midnightblue" stroke="midnightblue" points="563.22,-84.27 557.14,-75.59 556.49,-86.17 563.22,-84.27"/>
</g>
<!-- Node15 -->
<g id="node15" class="node">
<title>Node15</title>
<g id="a_node15"><a xlink:href="vec2_8h.html" target="_top" xlink:title=" ">
<polygon fill="white" stroke="black" points="582.72,-112.5 582.72,-131.5 628.72,-131.5 628.72,-112.5 582.72,-112.5"/>
<text text-anchor="middle" x="605.72" y="-119.5" font-family="Helvetica,sans-Serif" font-size="10.00">vec2.h</text>
</a>
</g>
</g>
<!-- Node14&#45;&gt;Node15 -->
<g id="edge19" class="edge">
<title>Node14&#45;&gt;Node15</title>
<path fill="none" stroke="midnightblue" d="M589.02,-168.08C591.7,-160.85 595.57,-150.41 598.91,-141.4"/>
<polygon fill="midnightblue" stroke="midnightblue" points="602.29,-142.34 602.48,-131.75 595.73,-139.91 602.29,-142.34"/>
</g>
<!-- Node15&#45;&gt;Node7 -->
<g id="edge20" class="edge">
<title>Node15&#45;&gt;Node7</title>
<path fill="none" stroke="midnightblue" d="M582.67,-114.38C550.45,-105.12 491.63,-88.23 453.64,-77.32"/>
<polygon fill="midnightblue" stroke="midnightblue" points="454.56,-73.94 443.99,-74.54 452.63,-80.67 454.56,-73.94"/>
</g>
<!-- Node15&#45;&gt;Node13 -->
<g id="edge22" class="edge">
<title>Node15&#45;&gt;Node13</title>
<path fill="none" stroke="midnightblue" d="M597.3,-112.08C589.87,-104.22 578.87,-92.57 569.91,-83.08"/>
<polygon fill="midnightblue" stroke="midnightblue" points="572.4,-80.62 562.99,-75.75 567.31,-85.42 572.4,-80.62"/>
</g>
<!-- Node16 -->
<g id="node16" class="node">
<title>Node16</title>
<g id="a_node16"><a xlink:title=" ">
<polygon fill="white" stroke="#bfbfbf" points="737.22,-0.5 737.22,-19.5 796.22,-19.5 796.22,-0.5 737.22,-0.5"/>
<text text-anchor="middle" x="766.72" y="-7.5" font-family="Helvetica,sans-Serif" font-size="10.00">inttypes.h</text>
</a>
</g>
</g>
<!-- Node15&#45;&gt;Node16 -->
<g id="edge21" class="edge">
<title>Node15&#45;&gt;Node16</title>
<path fill="none" stroke="midnightblue" d="M618.35,-112.37C645.98,-93.49 712,-48.38 745.88,-25.24"/>
<polygon fill="midnightblue" stroke="midnightblue" points="747.86,-28.12 754.15,-19.59 743.92,-22.34 747.86,-28.12"/>
</g>
<!-- Node17 -->
<g id="node17" class="node">
<title>Node17</title>
<g id="a_node17"><a xlink:href="float__compare_8h.html" target="_top" xlink:title=" ">
<polygon fill="white" stroke="black" points="794.72,-56.5 794.72,-75.5 880.72,-75.5 880.72,-56.5 794.72,-56.5"/>
<text text-anchor="middle" x="837.72" y="-63.5" font-family="Helvetica,sans-Serif" font-size="10.00">float_compare.h</text>
</a>
</g>
</g>
<!-- Node15&#45;&gt;Node17 -->
<g id="edge23" class="edge">
<title>Node15&#45;&gt;Node17</title>
<path fill="none" stroke="midnightblue" d="M628.81,-115.62C666.56,-106.84 742.17,-89.24 791.33,-77.8"/>
<polygon fill="midnightblue" stroke="midnightblue" points="792.14,-81.2 801.09,-75.53 790.56,-74.38 792.14,-81.2"/>
</g>
<!-- Node17&#45;&gt;Node16 -->
<g id="edge24" class="edge">
<title>Node17&#45;&gt;Node16</title>
<path fill="none" stroke="midnightblue" d="M826.31,-56.32C815.61,-48.18 799.38,-35.84 786.56,-26.09"/>
<polygon fill="midnightblue" stroke="midnightblue" points="788.41,-23.1 778.34,-19.83 784.18,-28.67 788.41,-23.1"/>
</g>
<!-- Node18 -->
<g id="node18" class="node">
<title>Node18</title>
<g id="a_node18"><a xlink:title=" ">
<polygon fill="white" stroke="#bfbfbf" points="815.72,-0.5 815.72,-19.5 859.72,-19.5 859.72,-0.5 815.72,-0.5"/>
<text text-anchor="middle" x="837.72" y="-7.5" font-family="Helvetica,sans-Serif" font-size="10.00">float.h</text>
</a>
</g>
</g>
<!-- Node17&#45;&gt;Node18 -->
<g id="edge25" class="edge">
<title>Node17&#45;&gt;Node18</title>
<path fill="none" stroke="midnightblue" d="M837.72,-56.08C837.72,-49.01 837.72,-38.86 837.72,-29.99"/>
<polygon fill="midnightblue" stroke="midnightblue" points="841.22,-29.75 837.72,-19.75 834.22,-29.75 841.22,-29.75"/>
</g>
<!-- Node19&#45;&gt;Node9 -->
<g id="edge27" class="edge">
<title>Node19&#45;&gt;Node9</title>
<path fill="none" stroke="midnightblue" d="M466.26,-224.44C412.49,-213.61 321.07,-195.19 272.79,-185.46"/>
<polygon fill="midnightblue" stroke="midnightblue" points="273.38,-182.01 262.89,-183.47 272,-188.87 273.38,-182.01"/>
</g>
<!-- Node19&#45;&gt;Node15 -->
<g id="edge28" class="edge">
<title>Node19&#45;&gt;Node15</title>
<path fill="none" stroke="midnightblue" d="M513.9,-224.08C521.68,-211.05 537.22,-186.39 553.72,-168 563.57,-157.03 576.01,-146.18 586.25,-137.88"/>
<polygon fill="midnightblue" stroke="midnightblue" points="588.56,-140.51 594.23,-131.56 584.22,-135.02 588.56,-140.51"/>
</g>
<!-- Node20&#45;&gt;Node9 -->
<g id="edge30" class="edge">
<title>Node20&#45;&gt;Node9</title>
<path fill="none" stroke="midnightblue" d="M315.47,-336.08C302.93,-309.72 265.89,-231.88 249.13,-196.66"/>
<polygon fill="midnightblue" stroke="midnightblue" points="252.26,-195.09 244.8,-187.57 245.94,-198.1 252.26,-195.09"/>
</g>
<!-- Node20&#45;&gt;Node10 -->
<g id="edge31" class="edge">
<title>Node20&#45;&gt;Node10</title>
<path fill="none" stroke="midnightblue" d="M305.42,-336.32C291.54,-327.9 270.23,-314.97 253.92,-305.07"/>
<polygon fill="midnightblue" stroke="midnightblue" points="255.35,-301.85 244.99,-299.65 251.72,-307.83 255.35,-301.85"/>
</g>
<!-- Node20&#45;&gt;Node21 -->
<g id="edge32" class="edge">
<title>Node20&#45;&gt;Node21</title>
<path fill="none" stroke="midnightblue" d="M347.31,-341.16C412.48,-332.09 576.62,-309.25 658.99,-297.78"/>
<polygon fill="midnightblue" stroke="midnightblue" points="659.67,-301.22 669.09,-296.38 658.71,-294.29 659.67,-301.22"/>
</g>
<!-- Node21&#45;&gt;Node14 -->
<g id="edge43" class="edge">
<title>Node21&#45;&gt;Node14</title>
<path fill="none" stroke="midnightblue" d="M669.07,-280.38C647.69,-273.76 622.19,-262.51 605.72,-244 594.33,-231.19 589.43,-212 587.32,-197.79"/>
<polygon fill="midnightblue" stroke="midnightblue" points="590.77,-197.21 586.15,-187.68 583.82,-198.02 590.77,-197.21"/>
</g>
<!-- Node21&#45;&gt;Node15 -->
<g id="edge42" class="edge">
<title>Node21&#45;&gt;Node15</title>
<path fill="none" stroke="midnightblue" d="M746.36,-288.15C807.5,-285.33 916.27,-273.43 881.72,-224 825.88,-144.11 699.69,-127.21 639.24,-123.78"/>
<polygon fill="midnightblue" stroke="midnightblue" points="639.25,-120.27 629.09,-123.29 638.91,-127.27 639.25,-120.27"/>
</g>
<!-- Node21&#45;&gt;Node17 -->
<g id="edge33" class="edge">
<title>Node21&#45;&gt;Node17</title>
<path fill="none" stroke="midnightblue" d="M746.23,-287.04C804.42,-283.19 910.44,-272.38 933.72,-244 977.43,-190.74 896.93,-114.57 857.57,-82.34"/>
<polygon fill="midnightblue" stroke="midnightblue" points="859.41,-79.33 849.42,-75.81 855.04,-84.79 859.41,-79.33"/>
</g>
<!-- Node21&#45;&gt;Node19 -->
<g id="edge39" class="edge">
<title>Node21&#45;&gt;Node19</title>
<path fill="none" stroke="midnightblue" d="M676.19,-280.44C642.13,-271.2 587.72,-256.44 550.21,-246.26"/>
<polygon fill="midnightblue" stroke="midnightblue" points="550.67,-242.76 540.11,-243.52 548.84,-249.51 550.67,-242.76"/>
</g>
<!-- Node22 -->
<g id="node22" class="node">
<title>Node22</title>
<g id="a_node22"><a xlink:href="geometry_8h.html" target="_top" xlink:title=" ">
<polygon fill="white" stroke="black" points="614.22,-224.5 614.22,-243.5 703.22,-243.5 703.22,-224.5 614.22,-224.5"/>
<text text-anchor="middle" x="658.72" y="-231.5" font-family="Helvetica,sans-Serif" font-size="10.00">math/geometry.h</text>
</a>
</g>
</g>
<!-- Node21&#45;&gt;Node22 -->
<g id="edge34" class="edge">
<title>Node21&#45;&gt;Node22</title>
<path fill="none" stroke="midnightblue" d="M699.63,-280.08C692.57,-272.3 682.13,-260.8 673.57,-251.37"/>
<polygon fill="midnightblue" stroke="midnightblue" points="675.97,-248.8 666.66,-243.75 670.79,-253.51 675.97,-248.8"/>
</g>
<!-- Node23 -->
<g id="node23" class="node">
<title>Node23</title>
<g id="a_node23"><a xlink:href="mat4_8h.html" target="_top" xlink:title=" ">
<polygon fill="white" stroke="black" points="721.22,-224.5 721.22,-243.5 792.22,-243.5 792.22,-224.5 721.22,-224.5"/>
<text text-anchor="middle" x="756.72" y="-231.5" font-family="Helvetica,sans-Serif" font-size="10.00">math/mat4.h</text>
</a>
</g>
</g>
<!-- Node21&#45;&gt;Node23 -->
<g id="edge35" class="edge">
<title>Node21&#45;&gt;Node23</title>
<path fill="none" stroke="midnightblue" d="M715.81,-280.08C722.88,-272.3 733.31,-260.8 741.87,-251.37"/>
<polygon fill="midnightblue" stroke="midnightblue" points="744.65,-253.51 748.78,-243.75 739.47,-248.8 744.65,-253.51"/>
</g>
<!-- Node24 -->
<g id="node24" class="node">
<title>Node24</title>
<g id="a_node24"><a xlink:href="ray_8h.html" target="_top" xlink:title=" ">
<polygon fill="white" stroke="black" points="810.72,-224.5 810.72,-243.5 872.72,-243.5 872.72,-224.5 810.72,-224.5"/>
<text text-anchor="middle" x="841.72" y="-231.5" font-family="Helvetica,sans-Serif" font-size="10.00">math/ray.h</text>
</a>
</g>
</g>
<!-- Node21&#45;&gt;Node24 -->
<g id="edge37" class="edge">
<title>Node21&#45;&gt;Node24</title>
<path fill="none" stroke="midnightblue" d="M728.95,-280.44C751.11,-271.52 786.04,-257.44 811.16,-247.32"/>
<polygon fill="midnightblue" stroke="midnightblue" points="812.62,-250.5 820.59,-243.52 810,-244.01 812.62,-250.5"/>
</g>
<!-- Node25 -->
<g id="node25" class="node">
<title>Node25</title>
<g id="a_node25"><a xlink:href="solve__equation_8h.html" target="_top" xlink:title=" ">
<polygon fill="white" stroke="black" points="730.22,-112.5 730.22,-131.5 845.22,-131.5 845.22,-112.5 730.22,-112.5"/>
<text text-anchor="middle" x="787.72" y="-119.5" font-family="Helvetica,sans-Serif" font-size="10.00">math/solve_equation.h</text>
</a>
</g>
</g>
<!-- Node21&#45;&gt;Node25 -->
<g id="edge40" class="edge">
<title>Node21&#45;&gt;Node25</title>
<path fill="none" stroke="midnightblue" d="M746.58,-286.23C800.57,-281.48 894.01,-269.7 914.72,-244 935.92,-217.7 934.21,-195.59 914.72,-168 900.96,-148.53 878.03,-137.43 855.41,-131.12"/>
<polygon fill="midnightblue" stroke="midnightblue" points="855.97,-127.65 845.42,-128.62 854.27,-134.44 855.97,-127.65"/>
</g>
<!-- Node23&#45;&gt;Node14 -->
<g id="edge36" class="edge">
<title>Node23&#45;&gt;Node14</title>
<path fill="none" stroke="midnightblue" d="M729.63,-224.44C699.54,-214.94 650.98,-199.61 618.71,-189.42"/>
<polygon fill="midnightblue" stroke="midnightblue" points="619.44,-185.98 608.85,-186.3 617.33,-192.65 619.44,-185.98"/>
</g>
<!-- Node24&#45;&gt;Node14 -->
<g id="edge38" class="edge">
<title>Node24&#45;&gt;Node14</title>
<path fill="none" stroke="midnightblue" d="M810.29,-225.88C807.39,-225.24 804.5,-224.6 801.72,-224 737.01,-209.98 661.21,-194.38 618.8,-185.72"/>
<polygon fill="midnightblue" stroke="midnightblue" points="619.26,-182.24 608.76,-183.68 617.86,-189.1 619.26,-182.24"/>
</g>
<!-- Node25&#45;&gt;Node16 -->
<g id="edge41" class="edge">
<title>Node25&#45;&gt;Node16</title>
<path fill="none" stroke="midnightblue" d="M786.07,-112.37C782.68,-94.62 774.87,-53.67 770.27,-29.6"/>
<polygon fill="midnightblue" stroke="midnightblue" points="773.67,-28.76 768.36,-19.59 766.8,-30.07 773.67,-28.76"/>
</g>
</g>
</svg>
        <g id="navigator" transform="translate(0 0)" fill="#404254">
                <rect fill="#f2f5e9" fill-opacity="0.5" stroke="#606060" stroke-width=".5" x="0" y="0" width="60" height="60"/>
                <use id="zoomplus" xlink:href="#zoomPlus" x="17" y="9" onmousedown="handleZoom(evt,'in')"/>
                <use id="zoomminus" xlink:href="#zoomMin" x="42" y="9" onmousedown="handleZoom(evt,'out')"/>
                <use id="reset" xlink:href="#resetDef" x="30" y="36" onmousedown="handleReset()"/>
                <g id="arrowUp" xlink:href="#dirArrow" transform="translate(30 24)" onmousedown="handlePan(0,-1)">
                  <use xlink:href="#rim" fill="#404040">
                        <set attributeName="fill" to="#808080" begin="arrowUp.mouseover" end="arrowUp.mouseout"/>
                  </use>
                  <path fill="none" stroke="white" stroke-width="1.5" d="M0,-3.0v7 M-2.5,-0.5L0,-3.0L2.5,-0.5"/>
                </g>
                <g id="arrowRight" xlink:href="#dirArrow" transform="rotate(90) translate(36 -43)" onmousedown="handlePan(1,0)">
                  <use xlink:href="#rim" fill="#404040">
                        <set attributeName="fill" to="#808080" begin="arrowRight.mouseover" end="arrowRight.mouseout"/>
                  </use>
                  <path fill="none" stroke="white" stroke-width="1.5" d="M0,-3.0v7 M-2.5,-0.5L0,-3.0L2.5,-0.5"/>
                </g>
                <g id="arrowDown" xlink:href="#dirArrow" transform="rotate(180) translate(-30 -48)" onmousedown="handlePan(0,1)">
                  <use xlink:href="#rim" fill="#404040">
                        <set attributeName="fill" to="#808080" begin="arrowDown.mouseover" end="arrowDown.mouseout"/>
                  </use>
                  <path fill="none" stroke="white" stroke-width="1.5" d="M0,-3.0v7 M-2.5,-0.5L0,-3.0L2.5,-0.5"/>
                </g>
                <g id="arrowLeft" xlink:href="#dirArrow" transform="rotate(270) translate(-36 17)" onmousedown="handlePan(-1,0)">
                  <use xlink:href="#rim" fill="#404040">
                        <set attributeName="fill" to="#808080" begin="arrowLeft.mouseover" end="arrowLeft.mouseout"/>
                  </use>
                  <path fill="none" stroke="white" stroke-width="1.5" d="M0,-3.0v7 M-2.5,-0.5L0,-3.0L2.5,-0.5"/>
                </g>
        </g>
        <svg viewBox="0 0 15 15" width="100%" height="30px" preserveAspectRatio="xMaxYMin meet">
         <g id="arrow_out" transform="scale(0.3 0.3)">
          <a xlink:href="primitives_8h__incl_org.svg" target="_base">
           <rect id="button" ry="5" rx="5" y="6" x="6" height="38" width="38"
                fill="#f2f5e9" fill-opacity="0.5" stroke="#606060" stroke-width="1.0"/>
           <path id="arrow"
             d="M 11.500037,31.436501 C 11.940474,20.09759 22.043105,11.32322 32.158766,21.979434 L 37.068811,17.246167 C 37.068811,17.246167 37.088388,32 37.088388,32 L 22.160133,31.978069 C 22.160133,31.978069 26.997745,27.140456 26.997745,27.140456 C 18.528582,18.264221 13.291696,25.230495 11.500037,31.436501 z"
             style="fill:#404040;"/>
          </a>
         </g>
        </svg>
</svg>
