<?xml version="1.0" encoding="UTF-8" standalone="no"?>
<!DOCTYPE svg PUBLIC "-//W3C//DTD SVG 1.1//EN"
 "http://www.w3.org/Graphics/SVG/1.1/DTD/svg11.dtd">
<!-- Generated by graphviz version 2.50.0 (20211204.2007)
 -->
<!-- Title: rectangle.h Pages: 1 -->
<svg width="592pt" height="420pt"
 viewBox="0.00 0.00 591.65 420.00" xmlns="http://www.w3.org/2000/svg" xmlns:xlink="http://www.w3.org/1999/xlink">
<g id="graph0" class="graph" transform="scale(1 1) rotate(0) translate(4 416)">
<title>rectangle.h</title>
<polygon fill="white" stroke="transparent" points="-4,4 -4,-416 587.65,-416 587.65,4 -4,4"/>
<!-- Node1 -->
<g id="node1" class="node">
<title>Node1</title>
<g id="a_node1"><a xlink:title=" ">
<polygon fill="#bfbfbf" stroke="black" points="96.15,-392.5 96.15,-411.5 161.15,-411.5 161.15,-392.5 96.15,-392.5"/>
<text text-anchor="middle" x="128.65" y="-399.5" font-family="Helvetica,sans-Serif" font-size="10.00">rectangle.h</text>
</a>
</g>
</g>
<!-- Node2 -->
<g id="node2" class="node">
<title>Node2</title>
<g id="a_node2"><a xlink:href="rectangle_8cpp.html" target="_top" xlink:title=" ">
<polygon fill="white" stroke="black" points="25.15,-336.5 25.15,-355.5 100.15,-355.5 100.15,-336.5 25.15,-336.5"/>
<text text-anchor="middle" x="62.65" y="-343.5" font-family="Helvetica,sans-Serif" font-size="10.00">rectangle.cpp</text>
</a>
</g>
</g>
<!-- Node1&#45;&gt;Node2 -->
<g id="edge1" class="edge">
<title>Node1&#45;&gt;Node2</title>
<path fill="none" stroke="midnightblue" d="M110.1,-385.82C98.28,-376.15 83.37,-363.95 73.45,-355.83"/>
<polygon fill="midnightblue" stroke="midnightblue" points="108.09,-388.7 118.05,-392.32 112.53,-383.28 108.09,-388.7"/>
</g>
<!-- Node3 -->
<g id="node3" class="node">
<title>Node3</title>
<g id="a_node3"><a xlink:href="sml__math_8h.html" target="_top" xlink:title=" ">
<polygon fill="white" stroke="black" points="169.65,-336.5 169.65,-355.5 237.65,-355.5 237.65,-336.5 169.65,-336.5"/>
<text text-anchor="middle" x="203.65" y="-343.5" font-family="Helvetica,sans-Serif" font-size="10.00">sml_math.h</text>
</a>
</g>
</g>
<!-- Node1&#45;&gt;Node3 -->
<g id="edge2" class="edge">
<title>Node1&#45;&gt;Node3</title>
<path fill="none" stroke="midnightblue" d="M148.96,-386.38C162.51,-376.62 179.9,-364.11 191.38,-355.83"/>
<polygon fill="midnightblue" stroke="midnightblue" points="146.77,-383.64 140.7,-392.32 150.86,-389.32 146.77,-383.64"/>
</g>
<!-- Node19 -->
<g id="node19" class="node">
<title>Node19</title>
<g id="a_node19"><a xlink:href="window_8h.html" target="_top" xlink:title=" ">
<polygon fill="white" stroke="black" points="88.65,-280.5 88.65,-299.5 144.65,-299.5 144.65,-280.5 88.65,-280.5"/>
<text text-anchor="middle" x="116.65" y="-287.5" font-family="Helvetica,sans-Serif" font-size="10.00">window.h</text>
</a>
</g>
</g>
<!-- Node1&#45;&gt;Node19 -->
<g id="edge23" class="edge">
<title>Node1&#45;&gt;Node19</title>
<path fill="none" stroke="midnightblue" d="M126.62,-382.35C123.99,-358.25 119.52,-317.31 117.59,-299.59"/>
<polygon fill="midnightblue" stroke="midnightblue" points="123.15,-382.81 127.71,-392.37 130.11,-382.05 123.15,-382.81"/>
</g>
<!-- Node4 -->
<g id="node4" class="node">
<title>Node4</title>
<g id="a_node4"><a xlink:href="renderer_8h.html" target="_top" xlink:title=" ">
<polygon fill="white" stroke="black" points="248.15,-224.5 248.15,-243.5 307.15,-243.5 307.15,-224.5 248.15,-224.5"/>
<text text-anchor="middle" x="277.65" y="-231.5" font-family="Helvetica,sans-Serif" font-size="10.00">renderer.h</text>
</a>
</g>
</g>
<!-- Node3&#45;&gt;Node4 -->
<g id="edge3" class="edge">
<title>Node3&#45;&gt;Node4</title>
<path fill="none" stroke="midnightblue" d="M218.28,-328.6C225.39,-320.29 233.84,-309.89 240.65,-300 253.91,-280.75 266.81,-256.43 273.31,-243.69"/>
<polygon fill="midnightblue" stroke="midnightblue" points="215.43,-326.55 211.49,-336.39 220.7,-331.15 215.43,-326.55"/>
</g>
<!-- Node17 -->
<g id="node17" class="node">
<title>Node17</title>
<g id="a_node17"><a xlink:href="texture_8h.html" target="_top" xlink:title="Basic texture management.">
<polygon fill="white" stroke="black" points="176.15,-280.5 176.15,-299.5 231.15,-299.5 231.15,-280.5 176.15,-280.5"/>
<text text-anchor="middle" x="203.65" y="-287.5" font-family="Helvetica,sans-Serif" font-size="10.00">texture.h</text>
</a>
</g>
</g>
<!-- Node3&#45;&gt;Node17 -->
<g id="edge18" class="edge">
<title>Node3&#45;&gt;Node17</title>
<path fill="none" stroke="midnightblue" d="M203.65,-325.8C203.65,-316.91 203.65,-306.78 203.65,-299.75"/>
<polygon fill="midnightblue" stroke="midnightblue" points="200.15,-326.08 203.65,-336.08 207.15,-326.08 200.15,-326.08"/>
</g>
<!-- Node5 -->
<g id="node5" class="node">
<title>Node5</title>
<g id="a_node5"><a xlink:href="blur_8h.html" target="_top" xlink:title=" ">
<polygon fill="white" stroke="black" points="538.65,-168.5 538.65,-187.5 578.65,-187.5 578.65,-168.5 538.65,-168.5"/>
<text text-anchor="middle" x="558.65" y="-175.5" font-family="Helvetica,sans-Serif" font-size="10.00">blur.h</text>
</a>
</g>
</g>
<!-- Node4&#45;&gt;Node5 -->
<g id="edge4" class="edge">
<title>Node4&#45;&gt;Node5</title>
<path fill="none" stroke="midnightblue" d="M317.44,-227.46C367.38,-220.14 455.48,-206.06 529.65,-188 532.52,-187.3 535.52,-186.48 538.46,-185.62"/>
<polygon fill="midnightblue" stroke="midnightblue" points="316.78,-224.02 307.39,-228.91 317.79,-230.94 316.78,-224.02"/>
</g>
<!-- Node7 -->
<g id="node7" class="node">
<title>Node7</title>
<g id="a_node7"><a xlink:href="primitives_8h.html" target="_top" xlink:title=" ">
<polygon fill="white" stroke="black" points="306.15,-168.5 306.15,-187.5 373.15,-187.5 373.15,-168.5 306.15,-168.5"/>
<text text-anchor="middle" x="339.65" y="-175.5" font-family="Helvetica,sans-Serif" font-size="10.00">primitives.h</text>
</a>
</g>
</g>
<!-- Node4&#45;&gt;Node7 -->
<g id="edge6" class="edge">
<title>Node4&#45;&gt;Node7</title>
<path fill="none" stroke="midnightblue" d="M295.41,-217.54C306.46,-207.91 320.28,-195.87 329.51,-187.83"/>
<polygon fill="midnightblue" stroke="midnightblue" points="292.86,-215.12 287.61,-224.32 297.45,-220.4 292.86,-215.12"/>
</g>
<!-- Node9 -->
<g id="node9" class="node">
<title>Node9</title>
<g id="a_node9"><a xlink:href="sml__graphics__wrapper_8h.html" target="_top" xlink:title=" ">
<polygon fill="white" stroke="black" points="160.65,-112.5 160.65,-131.5 282.65,-131.5 282.65,-112.5 160.65,-112.5"/>
<text text-anchor="middle" x="221.65" y="-119.5" font-family="Helvetica,sans-Serif" font-size="10.00">sml_graphics_wrapper.h</text>
</a>
</g>
</g>
<!-- Node4&#45;&gt;Node9 -->
<g id="edge13" class="edge">
<title>Node4&#45;&gt;Node9</title>
<path fill="none" stroke="midnightblue" d="M274.26,-214.2C271.35,-200.79 266.38,-182.62 258.65,-168 251.19,-153.87 238.84,-140.04 230.49,-131.52"/>
<polygon fill="midnightblue" stroke="midnightblue" points="270.86,-215.03 276.24,-224.16 277.73,-213.67 270.86,-215.03"/>
</g>
<!-- Node13 -->
<g id="node13" class="node">
<title>Node13</title>
<g id="a_node13"><a xlink:href="renderer_8cpp.html" target="_top" xlink:title=" ">
<polygon fill="white" stroke="black" points="450.65,-168.5 450.65,-187.5 520.65,-187.5 520.65,-168.5 450.65,-168.5"/>
<text text-anchor="middle" x="485.65" y="-175.5" font-family="Helvetica,sans-Serif" font-size="10.00">renderer.cpp</text>
</a>
</g>
</g>
<!-- Node4&#45;&gt;Node13 -->
<g id="edge12" class="edge">
<title>Node4&#45;&gt;Node13</title>
<path fill="none" stroke="midnightblue" d="M317.23,-222.73C356.52,-212.52 416.06,-197.07 452.82,-187.52"/>
<polygon fill="midnightblue" stroke="midnightblue" points="316.25,-219.36 307.45,-225.26 318.01,-226.14 316.25,-219.36"/>
</g>
<!-- Node14 -->
<g id="node14" class="node">
<title>Node14</title>
<g id="a_node14"><a xlink:href="text_8h.html" target="_top" xlink:title=" ">
<polygon fill="white" stroke="black" points="391.15,-168.5 391.15,-187.5 432.15,-187.5 432.15,-168.5 391.15,-168.5"/>
<text text-anchor="middle" x="411.65" y="-175.5" font-family="Helvetica,sans-Serif" font-size="10.00">text.h</text>
</a>
</g>
</g>
<!-- Node4&#45;&gt;Node14 -->
<g id="edge14" class="edge">
<title>Node4&#45;&gt;Node14</title>
<path fill="none" stroke="midnightblue" d="M308.39,-220.61C333.7,-210.41 368.89,-196.23 390.96,-187.34"/>
<polygon fill="midnightblue" stroke="midnightblue" points="306.85,-217.46 298.89,-224.44 309.47,-223.95 306.85,-217.46"/>
</g>
<!-- Node16 -->
<g id="node16" class="node">
<title>Node16</title>
<g id="a_node16"><a xlink:href="texture_8cpp.html" target="_top" xlink:title=" ">
<polygon fill="white" stroke="black" points="184.15,-168.5 184.15,-187.5 249.15,-187.5 249.15,-168.5 184.15,-168.5"/>
<text text-anchor="middle" x="216.65" y="-175.5" font-family="Helvetica,sans-Serif" font-size="10.00">texture.cpp</text>
</a>
</g>
</g>
<!-- Node4&#45;&gt;Node16 -->
<g id="edge17" class="edge">
<title>Node4&#45;&gt;Node16</title>
<path fill="none" stroke="midnightblue" d="M260.19,-217.54C249.31,-207.91 235.71,-195.87 226.63,-187.83"/>
<polygon fill="midnightblue" stroke="midnightblue" points="258.05,-220.32 267.85,-224.32 262.69,-215.07 258.05,-220.32"/>
</g>
<!-- Node6 -->
<g id="node6" class="node">
<title>Node6</title>
<g id="a_node6"><a xlink:href="blur_8cpp.html" target="_top" xlink:title=" ">
<polygon fill="white" stroke="black" points="533.65,-112.5 533.65,-131.5 583.65,-131.5 583.65,-112.5 533.65,-112.5"/>
<text text-anchor="middle" x="558.65" y="-119.5" font-family="Helvetica,sans-Serif" font-size="10.00">blur.cpp</text>
</a>
</g>
</g>
<!-- Node5&#45;&gt;Node6 -->
<g id="edge5" class="edge">
<title>Node5&#45;&gt;Node6</title>
<path fill="none" stroke="midnightblue" d="M558.65,-157.8C558.65,-148.91 558.65,-138.78 558.65,-131.75"/>
<polygon fill="midnightblue" stroke="midnightblue" points="555.15,-158.08 558.65,-168.08 562.15,-158.08 555.15,-158.08"/>
</g>
<!-- Node8 -->
<g id="node8" class="node">
<title>Node8</title>
<g id="a_node8"><a xlink:href="primitives_8cpp.html" target="_top" xlink:title=" ">
<polygon fill="white" stroke="black" points="301.15,-112.5 301.15,-131.5 378.15,-131.5 378.15,-112.5 301.15,-112.5"/>
<text text-anchor="middle" x="339.65" y="-119.5" font-family="Helvetica,sans-Serif" font-size="10.00">primitives.cpp</text>
</a>
</g>
</g>
<!-- Node7&#45;&gt;Node8 -->
<g id="edge7" class="edge">
<title>Node7&#45;&gt;Node8</title>
<path fill="none" stroke="midnightblue" d="M339.65,-157.8C339.65,-148.91 339.65,-138.78 339.65,-131.75"/>
<polygon fill="midnightblue" stroke="midnightblue" points="336.15,-158.08 339.65,-168.08 343.15,-158.08 336.15,-158.08"/>
</g>
<!-- Node7&#45;&gt;Node9 -->
<g id="edge8" class="edge">
<title>Node7&#45;&gt;Node9</title>
<path fill="none" stroke="midnightblue" d="M311.75,-164.23C289.68,-154.13 259.48,-140.31 240.26,-131.52"/>
<polygon fill="midnightblue" stroke="midnightblue" points="310.41,-167.46 320.96,-168.44 313.32,-161.1 310.41,-167.46"/>
</g>
<!-- Node10 -->
<g id="node10" class="node">
<title>Node10</title>
<g id="a_node10"><a xlink:href="viewport_8h.html" target="_top" xlink:title=" ">
<polygon fill="white" stroke="black" points="190.65,-56.5 190.65,-75.5 252.65,-75.5 252.65,-56.5 190.65,-56.5"/>
<text text-anchor="middle" x="221.65" y="-63.5" font-family="Helvetica,sans-Serif" font-size="10.00">viewport.h</text>
</a>
</g>
</g>
<!-- Node9&#45;&gt;Node10 -->
<g id="edge9" class="edge">
<title>Node9&#45;&gt;Node10</title>
<path fill="none" stroke="midnightblue" d="M221.65,-101.8C221.65,-92.91 221.65,-82.78 221.65,-75.75"/>
<polygon fill="midnightblue" stroke="midnightblue" points="218.15,-102.08 221.65,-112.08 225.15,-102.08 218.15,-102.08"/>
</g>
<!-- Node11 -->
<g id="node11" class="node">
<title>Node11</title>
<g id="a_node11"><a xlink:href="sml__utils_8h.html" target="_top" xlink:title=" ">
<polygon fill="white" stroke="black" points="146.65,-0.5 146.65,-19.5 210.65,-19.5 210.65,-0.5 146.65,-0.5"/>
<text text-anchor="middle" x="178.65" y="-7.5" font-family="Helvetica,sans-Serif" font-size="10.00">sml_utils.h</text>
</a>
</g>
</g>
<!-- Node10&#45;&gt;Node11 -->
<g id="edge10" class="edge">
<title>Node10&#45;&gt;Node11</title>
<path fill="none" stroke="midnightblue" d="M208.23,-48.14C200.74,-38.74 191.72,-27.4 185.62,-19.75"/>
<polygon fill="midnightblue" stroke="midnightblue" points="205.59,-50.44 214.55,-56.08 211.06,-46.08 205.59,-50.44"/>
</g>
<!-- Node12 -->
<g id="node12" class="node">
<title>Node12</title>
<g id="a_node12"><a xlink:href="viewport_8cpp.html" target="_top" xlink:title=" ">
<polygon fill="white" stroke="black" points="228.65,-0.5 228.65,-19.5 300.65,-19.5 300.65,-0.5 228.65,-0.5"/>
<text text-anchor="middle" x="264.65" y="-7.5" font-family="Helvetica,sans-Serif" font-size="10.00">viewport.cpp</text>
</a>
</g>
</g>
<!-- Node10&#45;&gt;Node12 -->
<g id="edge11" class="edge">
<title>Node10&#45;&gt;Node12</title>
<path fill="none" stroke="midnightblue" d="M235.08,-48.14C242.57,-38.74 251.59,-27.4 257.69,-19.75"/>
<polygon fill="midnightblue" stroke="midnightblue" points="232.25,-46.08 228.75,-56.08 237.72,-50.44 232.25,-46.08"/>
</g>
<!-- Node14&#45;&gt;Node9 -->
<g id="edge15" class="edge">
<title>Node14&#45;&gt;Node9</title>
<path fill="none" stroke="midnightblue" d="M381.43,-167.69C331.59,-153.06 283.74,-139.86 253.2,-131.53"/>
<polygon fill="midnightblue" stroke="midnightblue" points="380.5,-171.07 391.08,-170.54 382.48,-164.35 380.5,-171.07"/>
</g>
<!-- Node15 -->
<g id="node15" class="node">
<title>Node15</title>
<g id="a_node15"><a xlink:href="text_8cpp.html" target="_top" xlink:title=" ">
<polygon fill="white" stroke="black" points="396.65,-112.5 396.65,-131.5 448.65,-131.5 448.65,-112.5 396.65,-112.5"/>
<text text-anchor="middle" x="422.65" y="-119.5" font-family="Helvetica,sans-Serif" font-size="10.00">text.cpp</text>
</a>
</g>
</g>
<!-- Node14&#45;&gt;Node15 -->
<g id="edge16" class="edge">
<title>Node14&#45;&gt;Node15</title>
<path fill="none" stroke="midnightblue" d="M415.5,-158.1C417.33,-149.14 419.42,-138.86 420.87,-131.75"/>
<polygon fill="midnightblue" stroke="midnightblue" points="412.04,-157.59 413.47,-168.08 418.9,-158.98 412.04,-157.59"/>
</g>
<!-- Node17&#45;&gt;Node4 -->
<g id="edge19" class="edge">
<title>Node17&#45;&gt;Node4</title>
<path fill="none" stroke="midnightblue" d="M223.69,-274.38C237.06,-264.62 254.21,-252.11 265.55,-243.83"/>
<polygon fill="midnightblue" stroke="midnightblue" points="221.56,-271.6 215.54,-280.32 225.68,-277.26 221.56,-271.6"/>
</g>
<!-- Node17&#45;&gt;Node9 -->
<g id="edge20" class="edge">
<title>Node17&#45;&gt;Node9</title>
<path fill="none" stroke="midnightblue" d="M192.91,-271.81C179.37,-247.82 159.59,-203.27 174.65,-168 181.31,-152.42 196.3,-139.65 207.58,-131.74"/>
<polygon fill="midnightblue" stroke="midnightblue" points="189.93,-273.66 198.04,-280.48 195.96,-270.09 189.93,-273.66"/>
</g>
<!-- Node17&#45;&gt;Node16 -->
<g id="edge21" class="edge">
<title>Node17&#45;&gt;Node16</title>
<path fill="none" stroke="midnightblue" d="M205.86,-270.35C208.71,-246.25 213.54,-205.31 215.64,-187.59"/>
<polygon fill="midnightblue" stroke="midnightblue" points="202.37,-270.03 204.67,-280.37 209.32,-270.85 202.37,-270.03"/>
</g>
<!-- Node18 -->
<g id="node18" class="node">
<title>Node18</title>
<g id="a_node18"><a xlink:href="window_8cpp.html" target="_top" xlink:title=" ">
<polygon fill="white" stroke="black" points="83.15,-224.5 83.15,-243.5 150.15,-243.5 150.15,-224.5 83.15,-224.5"/>
<text text-anchor="middle" x="116.65" y="-231.5" font-family="Helvetica,sans-Serif" font-size="10.00">window.cpp</text>
</a>
</g>
</g>
<!-- Node17&#45;&gt;Node18 -->
<g id="edge22" class="edge">
<title>Node17&#45;&gt;Node18</title>
<path fill="none" stroke="midnightblue" d="M180.94,-274.9C164.98,-265 144.16,-252.07 130.6,-243.65"/>
<polygon fill="midnightblue" stroke="midnightblue" points="179.33,-278.02 189.68,-280.32 183.02,-272.08 179.33,-278.02"/>
</g>
<!-- Node19&#45;&gt;Node4 -->
<g id="edge25" class="edge">
<title>Node19&#45;&gt;Node4</title>
<path fill="none" stroke="midnightblue" d="M151.92,-277.17C182.23,-267 225.22,-252.59 252.26,-243.52"/>
<polygon fill="midnightblue" stroke="midnightblue" points="150.53,-273.95 142.16,-280.44 152.76,-280.58 150.53,-273.95"/>
</g>
<!-- Node19&#45;&gt;Node9 -->
<g id="edge26" class="edge">
<title>Node19&#45;&gt;Node9</title>
<path fill="none" stroke="midnightblue" d="M78.44,-282.44C38.56,-273.76 -15.58,-255.74 4.65,-224 40.17,-168.29 115.28,-142.82 167.1,-131.52"/>
<polygon fill="midnightblue" stroke="midnightblue" points="77.98,-285.92 88.47,-284.49 79.38,-279.06 77.98,-285.92"/>
</g>
<!-- Node19&#45;&gt;Node18 -->
<g id="edge27" class="edge">
<title>Node19&#45;&gt;Node18</title>
<path fill="none" stroke="midnightblue" d="M116.65,-269.8C116.65,-260.91 116.65,-250.78 116.65,-243.75"/>
<polygon fill="midnightblue" stroke="midnightblue" points="113.15,-270.08 116.65,-280.08 120.15,-270.08 113.15,-270.08"/>
</g>
<!-- Node20 -->
<g id="node20" class="node">
<title>Node20</title>
<g id="a_node20"><a xlink:href="app_8cpp.html" target="_top" xlink:title=" ">
<polygon fill="white" stroke="black" points="14.15,-224.5 14.15,-243.5 65.15,-243.5 65.15,-224.5 14.15,-224.5"/>
<text text-anchor="middle" x="39.65" y="-231.5" font-family="Helvetica,sans-Serif" font-size="10.00">app.cpp</text>
</a>
</g>
</g>
<!-- Node19&#45;&gt;Node20 -->
<g id="edge24" class="edge">
<title>Node19&#45;&gt;Node20</title>
<path fill="none" stroke="midnightblue" d="M95.75,-274.34C81.74,-264.52 63.77,-251.91 51.99,-243.65"/>
<polygon fill="midnightblue" stroke="midnightblue" points="94.09,-277.45 104.28,-280.32 98.1,-271.72 94.09,-277.45"/>
</g>
</g>
</svg>
