<?xml version="1.0" encoding="UTF-8" standalone="no"?>
<!DOCTYPE svg PUBLIC "-//W3C//DTD SVG 1.1//EN"
 "http://www.w3.org/Graphics/SVG/1.1/DTD/svg11.dtd">
<!-- Generated by graphviz version 2.50.0 (20211204.2007)
 -->
<!-- Title: renderer.cpp Pages: 1 -->
<!--zoomable 476 -->
<svg id="main" version="1.1" xmlns="http://www.w3.org/2000/svg" xmlns:xlink="http://www.w3.org/1999/xlink" xml:space="preserve" onload="init(evt)">
<style type="text/css"><![CDATA[
.edge:hover path { stroke: red; }
.edge:hover polygon { stroke: red; fill: red; }
]]></style>
<script type="text/javascript"><![CDATA[
var edges = document.getElementsByTagName('g');
if (edges && edges.length) {
  for (var i=0;i<edges.length;i++) {
    if (edges[i].id.substr(0,4)=='edge') {
      edges[i].setAttribute('class','edge');
    }
  }
}
]]></script>
        <defs>
                <circle id="rim" cx="0" cy="0" r="7"/>
                <circle id="rim2" cx="0" cy="0" r="3.5"/>
                <g id="zoomPlus">
                        <use xlink:href="#rim" fill="#404040">
                                <set attributeName="fill" to="#808080" begin="zoomplus.mouseover" end="zoomplus.mouseout"/>
                        </use>
                        <path d="M-4,0h8M0,-4v8" fill="none" stroke="white" stroke-width="1.5" pointer-events="none"/>
                </g>
                <g id="zoomMin">
                        <use xlink:href="#rim" fill="#404040">
                                <set attributeName="fill" to="#808080" begin="zoomminus.mouseover" end="zoomminus.mouseout"/>
                        </use>
                        <path d="M-4,0h8" fill="none" stroke="white" stroke-width="1.5" pointer-events="none"/>
                </g>
                <g id="dirArrow">
                        <path fill="none" stroke="white" stroke-width="1.5" d="M0,-3.0v7 M-2.5,-0.5L0,-3.0L2.5,-0.5"/>
                </g>
               <g id="resetDef">
                       <use xlink:href="#rim2" fill="#404040">
                               <set attributeName="fill" to="#808080" begin="reset.mouseover" end="reset.mouseout"/>
                       </use>
               </g>
        </defs>

<script type="text/javascript">
var viewWidth = 1145;
var viewHeight = 476;
var sectionId = 'dynsection-0';
</script>
<script xlink:href="svgpan.js"/>
<svg id="graph" class="graph">
<g id="viewport">
<title>renderer.cpp</title>
<polygon fill="white" stroke="transparent" points="-4,4 -4,-472 1140.5,-472 1140.5,4 -4,4"/>
<!-- Node1 -->
<g id="node1" class="node">
<title>Node1</title>
<g id="a_node1"><a xlink:title=" ">
<polygon fill="#bfbfbf" stroke="black" points="1037.5,-448.5 1037.5,-467.5 1107.5,-467.5 1107.5,-448.5 1037.5,-448.5"/>
<text text-anchor="middle" x="1072.5" y="-455.5" font-family="Helvetica,sans-Serif" font-size="10.00">renderer.cpp</text>
</a>
</g>
</g>
<!-- Node2 -->
<g id="node2" class="node">
<title>Node2</title>
<g id="a_node2"><a xlink:title=" ">
<polygon fill="white" stroke="#bfbfbf" points="842.5,-56.5 842.5,-75.5 894.5,-75.5 894.5,-56.5 842.5,-56.5"/>
<text text-anchor="middle" x="868.5" y="-63.5" font-family="Helvetica,sans-Serif" font-size="10.00">assert.h</text>
</a>
</g>
</g>
<!-- Node1&#45;&gt;Node2 -->
<g id="edge1" class="edge">
<title>Node1&#45;&gt;Node2</title>
<path fill="none" stroke="midnightblue" d="M1081.94,-448.31C1099.75,-430.93 1136.5,-389.86 1136.5,-347 1136.5,-347 1136.5,-347 1136.5,-177 1136.5,-78.01 978.09,-66.21 904.84,-66.05"/>
<polygon fill="midnightblue" stroke="midnightblue" points="904.67,-62.55 894.68,-66.1 904.7,-69.55 904.67,-62.55"/>
</g>
<!-- Node3 -->
<g id="node3" class="node">
<title>Node3</title>
<g id="a_node3"><a xlink:href="sml__log_8h.html" target="_top" xlink:title=" ">
<polygon fill="white" stroke="black" points="1043,-392.5 1043,-411.5 1102,-411.5 1102,-392.5 1043,-392.5"/>
<text text-anchor="middle" x="1072.5" y="-399.5" font-family="Helvetica,sans-Serif" font-size="10.00">sml_log.h</text>
</a>
</g>
</g>
<!-- Node1&#45;&gt;Node3 -->
<g id="edge2" class="edge">
<title>Node1&#45;&gt;Node3</title>
<path fill="none" stroke="midnightblue" d="M1072.5,-448.08C1072.5,-441.01 1072.5,-430.86 1072.5,-421.99"/>
<polygon fill="midnightblue" stroke="midnightblue" points="1076,-421.75 1072.5,-411.75 1069,-421.75 1076,-421.75"/>
</g>
<!-- Node6 -->
<g id="node6" class="node">
<title>Node6</title>
<g id="a_node6"><a xlink:href="renderer_8h.html" target="_top" xlink:title=" ">
<polygon fill="white" stroke="black" points="760,-392.5 760,-411.5 899,-411.5 899,-392.5 760,-392.5"/>
<text text-anchor="middle" x="829.5" y="-399.5" font-family="Helvetica,sans-Serif" font-size="10.00">graphics_wrapper/renderer.h</text>
</a>
</g>
</g>
<!-- Node1&#45;&gt;Node6 -->
<g id="edge5" class="edge">
<title>Node1&#45;&gt;Node6</title>
<path fill="none" stroke="midnightblue" d="M1037.43,-449.21C995.43,-439.87 924.86,-424.19 877.74,-413.72"/>
<polygon fill="midnightblue" stroke="midnightblue" points="878.29,-410.26 867.77,-411.5 876.77,-417.09 878.29,-410.26"/>
</g>
<!-- Node4 -->
<g id="node4" class="node">
<title>Node4</title>
<g id="a_node4"><a xlink:href="log_8h.html" target="_top" xlink:title=" ">
<polygon fill="white" stroke="black" points="1037,-336.5 1037,-355.5 1108,-355.5 1108,-336.5 1037,-336.5"/>
<text text-anchor="middle" x="1072.5" y="-343.5" font-family="Helvetica,sans-Serif" font-size="10.00">logging/log.h</text>
</a>
</g>
</g>
<!-- Node3&#45;&gt;Node4 -->
<g id="edge3" class="edge">
<title>Node3&#45;&gt;Node4</title>
<path fill="none" stroke="midnightblue" d="M1072.5,-392.08C1072.5,-385.01 1072.5,-374.86 1072.5,-365.99"/>
<polygon fill="midnightblue" stroke="midnightblue" points="1076,-365.75 1072.5,-355.75 1069,-365.75 1076,-365.75"/>
</g>
<!-- Node5 -->
<g id="node5" class="node">
<title>Node5</title>
<g id="a_node5"><a xlink:title=" ">
<polygon fill="white" stroke="#bfbfbf" points="888.5,-280.5 888.5,-299.5 934.5,-299.5 934.5,-280.5 888.5,-280.5"/>
<text text-anchor="middle" x="911.5" y="-287.5" font-family="Helvetica,sans-Serif" font-size="10.00">stdio.h</text>
</a>
</g>
</g>
<!-- Node4&#45;&gt;Node5 -->
<g id="edge4" class="edge">
<title>Node4&#45;&gt;Node5</title>
<path fill="none" stroke="midnightblue" d="M1046.99,-336.44C1019.19,-327.12 974.62,-312.17 944.25,-301.99"/>
<polygon fill="midnightblue" stroke="midnightblue" points="945.14,-298.59 934.54,-298.73 942.91,-305.23 945.14,-298.59"/>
</g>
<!-- Node7 -->
<g id="node7" class="node">
<title>Node7</title>
<g id="a_node7"><a xlink:title=" ">
<polygon fill="white" stroke="#bfbfbf" points="965,-224.5 965,-243.5 1014,-243.5 1014,-224.5 965,-224.5"/>
<text text-anchor="middle" x="989.5" y="-231.5" font-family="Helvetica,sans-Serif" font-size="10.00">stdint.h</text>
</a>
</g>
</g>
<!-- Node6&#45;&gt;Node7 -->
<g id="edge6" class="edge">
<title>Node6&#45;&gt;Node7</title>
<path fill="none" stroke="midnightblue" d="M832.77,-392.34C838.28,-378.75 850.6,-352.31 868.5,-336 895.83,-311.1 915.25,-323.85 943.5,-300 959.29,-286.67 972.33,-266.74 980.44,-252.47"/>
<polygon fill="midnightblue" stroke="midnightblue" points="983.54,-254.09 985.24,-243.64 977.39,-250.75 983.54,-254.09"/>
</g>
<!-- Node8 -->
<g id="node8" class="node">
<title>Node8</title>
<g id="a_node8"><a xlink:title=" ">
<polygon fill="white" stroke="#bfbfbf" points="877,-336.5 877,-355.5 960,-355.5 960,-336.5 877,-336.5"/>
<text text-anchor="middle" x="918.5" y="-343.5" font-family="Helvetica,sans-Serif" font-size="10.00">unordered_map</text>
</a>
</g>
</g>
<!-- Node6&#45;&gt;Node8 -->
<g id="edge7" class="edge">
<title>Node6&#45;&gt;Node8</title>
<path fill="none" stroke="midnightblue" d="M843.8,-392.32C857.68,-383.9 878.99,-370.97 895.3,-361.07"/>
<polygon fill="midnightblue" stroke="midnightblue" points="897.5,-363.83 904.24,-355.65 893.87,-357.85 897.5,-363.83"/>
</g>
<!-- Node9 -->
<g id="node9" class="node">
<title>Node9</title>
<g id="a_node9"><a xlink:title=" ">
<polygon fill="white" stroke="#bfbfbf" points="978,-336.5 978,-355.5 1019,-355.5 1019,-336.5 978,-336.5"/>
<text text-anchor="middle" x="998.5" y="-343.5" font-family="Helvetica,sans-Serif" font-size="10.00">stack</text>
</a>
</g>
</g>
<!-- Node6&#45;&gt;Node9 -->
<g id="edge8" class="edge">
<title>Node6&#45;&gt;Node9</title>
<path fill="none" stroke="midnightblue" d="M856.28,-392.44C886.76,-382.7 936.45,-366.83 968.3,-356.65"/>
<polygon fill="midnightblue" stroke="midnightblue" points="969.5,-359.94 977.96,-353.56 967.37,-353.27 969.5,-359.94"/>
</g>
<!-- Node10 -->
<g id="node10" class="node">
<title>Node10</title>
<g id="a_node10"><a xlink:href="window_8h.html" target="_top" xlink:title=" ">
<polygon fill="white" stroke="black" points="726.5,-336.5 726.5,-355.5 782.5,-355.5 782.5,-336.5 726.5,-336.5"/>
<text text-anchor="middle" x="754.5" y="-343.5" font-family="Helvetica,sans-Serif" font-size="10.00">window.h</text>
</a>
</g>
</g>
<!-- Node6&#45;&gt;Node10 -->
<g id="edge9" class="edge">
<title>Node6&#45;&gt;Node10</title>
<path fill="none" stroke="midnightblue" d="M817.45,-392.32C806.04,-384.11 788.67,-371.6 775.07,-361.81"/>
<polygon fill="midnightblue" stroke="midnightblue" points="776.93,-358.84 766.77,-355.83 772.84,-364.52 776.93,-358.84"/>
</g>
<!-- Node12 -->
<g id="node12" class="node">
<title>Node12</title>
<g id="a_node12"><a xlink:href="color_8h.html" target="_top" xlink:title=" ">
<polygon fill="white" stroke="black" points="760,-280.5 760,-299.5 805,-299.5 805,-280.5 760,-280.5"/>
<text text-anchor="middle" x="782.5" y="-287.5" font-family="Helvetica,sans-Serif" font-size="10.00">color.h</text>
</a>
</g>
</g>
<!-- Node6&#45;&gt;Node12 -->
<g id="edge48" class="edge">
<title>Node6&#45;&gt;Node12</title>
<path fill="none" stroke="midnightblue" d="M825.81,-392.37C818.16,-374.46 800.41,-332.92 790.17,-308.95"/>
<polygon fill="midnightblue" stroke="midnightblue" points="793.32,-307.41 786.17,-299.59 786.88,-310.16 793.32,-307.41"/>
</g>
<!-- Node22 -->
<g id="node22" class="node">
<title>Node22</title>
<g id="a_node22"><a xlink:href="texture_8h.html" target="_top" xlink:title="Basic texture management.">
<polygon fill="white" stroke="black" points="638,-336.5 638,-355.5 693,-355.5 693,-336.5 638,-336.5"/>
<text text-anchor="middle" x="665.5" y="-343.5" font-family="Helvetica,sans-Serif" font-size="10.00">texture.h</text>
</a>
</g>
</g>
<!-- Node6&#45;&gt;Node22 -->
<g id="edge33" class="edge">
<title>Node6&#45;&gt;Node22</title>
<path fill="none" stroke="midnightblue" d="M803.51,-392.44C775.8,-383.32 731.75,-368.81 700.88,-358.65"/>
<polygon fill="midnightblue" stroke="midnightblue" points="701.96,-355.32 691.36,-355.52 699.77,-361.97 701.96,-355.32"/>
</g>
<!-- Node23 -->
<g id="node23" class="node">
<title>Node23</title>
<g id="a_node23"><a xlink:href="sml__math_8h.html" target="_top" xlink:title=" ">
<polygon fill="white" stroke="black" points="293,-280.5 293,-299.5 370,-299.5 370,-280.5 293,-280.5"/>
<text text-anchor="middle" x="331.5" y="-287.5" font-family="Helvetica,sans-Serif" font-size="10.00">../sml_math.h</text>
</a>
</g>
</g>
<!-- Node6&#45;&gt;Node23 -->
<g id="edge49" class="edge">
<title>Node6&#45;&gt;Node23</title>
<path fill="none" stroke="midnightblue" d="M790.84,-392.46C701.11,-372.64 478.9,-323.56 380.15,-301.75"/>
<polygon fill="midnightblue" stroke="midnightblue" points="380.66,-298.27 370.14,-299.53 379.15,-305.11 380.66,-298.27"/>
</g>
<!-- Node10&#45;&gt;Node2 -->
<g id="edge10" class="edge">
<title>Node10&#45;&gt;Node2</title>
<path fill="none" stroke="midnightblue" d="M773.04,-336.37C812.28,-317.69 901.43,-272.87 917.5,-244 947.43,-190.25 904.4,-116.97 881.4,-84.14"/>
<polygon fill="midnightblue" stroke="midnightblue" points="883.96,-81.7 875.26,-75.65 878.29,-85.81 883.96,-81.7"/>
</g>
<!-- Node10&#45;&gt;Node5 -->
<g id="edge11" class="edge">
<title>Node10&#45;&gt;Node5</title>
<path fill="none" stroke="midnightblue" d="M779.38,-336.44C806.26,-327.2 849.2,-312.43 878.79,-302.25"/>
<polygon fill="midnightblue" stroke="midnightblue" points="879.96,-305.55 888.27,-298.99 877.68,-298.93 879.96,-305.55"/>
</g>
<!-- Node11 -->
<g id="node11" class="node">
<title>Node11</title>
<g id="a_node11"><a xlink:title=" ">
<polygon fill="white" stroke="#bfbfbf" points="647.5,-168.5 647.5,-187.5 691.5,-187.5 691.5,-168.5 647.5,-168.5"/>
<text text-anchor="middle" x="669.5" y="-175.5" font-family="Helvetica,sans-Serif" font-size="10.00">SDL.h</text>
</a>
</g>
</g>
<!-- Node10&#45;&gt;Node11 -->
<g id="edge12" class="edge">
<title>Node10&#45;&gt;Node11</title>
<path fill="none" stroke="midnightblue" d="M749.93,-336.08C736.43,-309.72 696.58,-231.88 678.54,-196.66"/>
<polygon fill="midnightblue" stroke="midnightblue" points="681.56,-194.87 673.89,-187.57 675.33,-198.06 681.56,-194.87"/>
</g>
<!-- Node10&#45;&gt;Node12 -->
<g id="edge13" class="edge">
<title>Node10&#45;&gt;Node12</title>
<path fill="none" stroke="midnightblue" d="M759.12,-336.08C762.96,-328.69 768.52,-317.95 773.26,-308.81"/>
<polygon fill="midnightblue" stroke="midnightblue" points="776.47,-310.24 777.96,-299.75 770.25,-307.02 776.47,-310.24"/>
</g>
<!-- Node21 -->
<g id="node21" class="node">
<title>Node21</title>
<g id="a_node21"><a xlink:href="rectangle_8h.html" target="_top" xlink:title=" ">
<polygon fill="white" stroke="black" points="524.5,-224.5 524.5,-243.5 622.5,-243.5 622.5,-224.5 524.5,-224.5"/>
<text text-anchor="middle" x="573.5" y="-231.5" font-family="Helvetica,sans-Serif" font-size="10.00">../math/rectangle.h</text>
</a>
</g>
</g>
<!-- Node10&#45;&gt;Node21 -->
<g id="edge30" class="edge">
<title>Node10&#45;&gt;Node21</title>
<path fill="none" stroke="midnightblue" d="M740.3,-336.37C709.11,-317.41 634.38,-272 596.44,-248.94"/>
<polygon fill="midnightblue" stroke="midnightblue" points="598,-245.79 587.64,-243.59 594.36,-251.78 598,-245.79"/>
</g>
<!-- Node12&#45;&gt;Node7 -->
<g id="edge14" class="edge">
<title>Node12&#45;&gt;Node7</title>
<path fill="none" stroke="midnightblue" d="M805.05,-283.12C841.15,-273.7 912.21,-255.16 954.82,-244.05"/>
<polygon fill="midnightblue" stroke="midnightblue" points="955.95,-247.37 964.74,-241.46 954.18,-240.6 955.95,-247.37"/>
</g>
<!-- Node12&#45;&gt;Node11 -->
<g id="edge15" class="edge">
<title>Node12&#45;&gt;Node11</title>
<path fill="none" stroke="midnightblue" d="M773.63,-280.37C754.65,-261.89 709.86,-218.29 685.67,-194.74"/>
<polygon fill="midnightblue" stroke="midnightblue" points="687.93,-192.06 678.33,-187.59 683.05,-197.07 687.93,-192.06"/>
</g>
<!-- Node13 -->
<g id="node13" class="node">
<title>Node13</title>
<g id="a_node13"><a xlink:title=" ">
<polygon fill="white" stroke="#bfbfbf" points="754.5,-224.5 754.5,-243.5 810.5,-243.5 810.5,-224.5 754.5,-224.5"/>
<text text-anchor="middle" x="782.5" y="-231.5" font-family="Helvetica,sans-Serif" font-size="10.00">algorithm</text>
</a>
</g>
</g>
<!-- Node12&#45;&gt;Node13 -->
<g id="edge16" class="edge">
<title>Node12&#45;&gt;Node13</title>
<path fill="none" stroke="midnightblue" d="M782.5,-280.08C782.5,-273.01 782.5,-262.86 782.5,-253.99"/>
<polygon fill="midnightblue" stroke="midnightblue" points="786,-253.75 782.5,-243.75 779,-253.75 786,-253.75"/>
</g>
<!-- Node14 -->
<g id="node14" class="node">
<title>Node14</title>
<g id="a_node14"><a xlink:href="vec4_8h.html" target="_top" xlink:title=" ">
<polygon fill="white" stroke="black" points="828.5,-224.5 828.5,-243.5 908.5,-243.5 908.5,-224.5 828.5,-224.5"/>
<text text-anchor="middle" x="868.5" y="-231.5" font-family="Helvetica,sans-Serif" font-size="10.00">../math/vec4.h</text>
</a>
</g>
</g>
<!-- Node12&#45;&gt;Node14 -->
<g id="edge17" class="edge">
<title>Node12&#45;&gt;Node14</title>
<path fill="none" stroke="midnightblue" d="M796.32,-280.32C809.73,-271.9 830.32,-258.97 846.09,-249.07"/>
<polygon fill="midnightblue" stroke="midnightblue" points="848.11,-251.94 854.72,-243.65 844.39,-246.01 848.11,-251.94"/>
</g>
<!-- Node14&#45;&gt;Node2 -->
<g id="edge18" class="edge">
<title>Node14&#45;&gt;Node2</title>
<path fill="none" stroke="midnightblue" d="M868.5,-224.08C868.5,-197.95 868.5,-121.21 868.5,-85.58"/>
<polygon fill="midnightblue" stroke="midnightblue" points="872,-85.57 868.5,-75.57 865,-85.57 872,-85.57"/>
</g>
<!-- Node15 -->
<g id="node15" class="node">
<title>Node15</title>
<g id="a_node15"><a xlink:title=" ">
<polygon fill="white" stroke="#bfbfbf" points="366,-56.5 366,-75.5 413,-75.5 413,-56.5 366,-56.5"/>
<text text-anchor="middle" x="389.5" y="-63.5" font-family="Helvetica,sans-Serif" font-size="10.00">math.h</text>
</a>
</g>
</g>
<!-- Node14&#45;&gt;Node15 -->
<g id="edge19" class="edge">
<title>Node14&#45;&gt;Node15</title>
<path fill="none" stroke="midnightblue" d="M847.42,-224.41C815.73,-211.6 753.83,-186.96 700.5,-168 600.09,-132.3 479.7,-94.65 422.63,-77.1"/>
<polygon fill="midnightblue" stroke="midnightblue" points="423.64,-73.75 413.06,-74.16 421.59,-80.44 423.64,-73.75"/>
</g>
<!-- Node16 -->
<g id="node16" class="node">
<title>Node16</title>
<g id="a_node16"><a xlink:href="vec3_8h.html" target="_top" xlink:title=" ">
<polygon fill="white" stroke="black" points="340.5,-168.5 340.5,-187.5 386.5,-187.5 386.5,-168.5 340.5,-168.5"/>
<text text-anchor="middle" x="363.5" y="-175.5" font-family="Helvetica,sans-Serif" font-size="10.00">vec3.h</text>
</a>
</g>
</g>
<!-- Node14&#45;&gt;Node16 -->
<g id="edge20" class="edge">
<title>Node14&#45;&gt;Node16</title>
<path fill="none" stroke="midnightblue" d="M828.43,-225.36C825.41,-224.87 822.41,-224.41 819.5,-224 662.21,-201.83 472.86,-186.87 397.16,-181.36"/>
<polygon fill="midnightblue" stroke="midnightblue" points="397.06,-177.84 386.83,-180.61 396.56,-184.82 397.06,-177.84"/>
</g>
<!-- Node16&#45;&gt;Node2 -->
<g id="edge21" class="edge">
<title>Node16&#45;&gt;Node2</title>
<path fill="none" stroke="midnightblue" d="M386.51,-171.99C466.75,-154.51 734.6,-96.17 832.38,-74.87"/>
<polygon fill="midnightblue" stroke="midnightblue" points="833.35,-78.24 842.37,-72.69 831.86,-71.4 833.35,-78.24"/>
</g>
<!-- Node16&#45;&gt;Node15 -->
<g id="edge22" class="edge">
<title>Node16&#45;&gt;Node15</title>
<path fill="none" stroke="midnightblue" d="M365.54,-168.37C369.74,-150.62 379.42,-109.67 385.1,-85.6"/>
<polygon fill="midnightblue" stroke="midnightblue" points="388.58,-86.13 387.47,-75.59 381.76,-84.52 388.58,-86.13"/>
</g>
<!-- Node17 -->
<g id="node17" class="node">
<title>Node17</title>
<g id="a_node17"><a xlink:href="vec2_8h.html" target="_top" xlink:title=" ">
<polygon fill="white" stroke="black" points="315.5,-112.5 315.5,-131.5 361.5,-131.5 361.5,-112.5 315.5,-112.5"/>
<text text-anchor="middle" x="338.5" y="-119.5" font-family="Helvetica,sans-Serif" font-size="10.00">vec2.h</text>
</a>
</g>
</g>
<!-- Node16&#45;&gt;Node17 -->
<g id="edge23" class="edge">
<title>Node16&#45;&gt;Node17</title>
<path fill="none" stroke="midnightblue" d="M359.37,-168.08C355.99,-160.77 351.08,-150.18 346.88,-141.1"/>
<polygon fill="midnightblue" stroke="midnightblue" points="349.93,-139.36 342.55,-131.75 343.58,-142.3 349.93,-139.36"/>
</g>
<!-- Node17&#45;&gt;Node2 -->
<g id="edge24" class="edge">
<title>Node17&#45;&gt;Node2</title>
<path fill="none" stroke="midnightblue" d="M361.61,-118.64C445.03,-110.15 730.98,-81.01 832.44,-70.67"/>
<polygon fill="midnightblue" stroke="midnightblue" points="832.9,-74.14 842.5,-69.65 832.2,-67.18 832.9,-74.14"/>
</g>
<!-- Node17&#45;&gt;Node15 -->
<g id="edge26" class="edge">
<title>Node17&#45;&gt;Node15</title>
<path fill="none" stroke="midnightblue" d="M346.92,-112.08C354.35,-104.22 365.35,-92.57 374.31,-83.08"/>
<polygon fill="midnightblue" stroke="midnightblue" points="376.91,-85.42 381.24,-75.75 371.82,-80.62 376.91,-85.42"/>
</g>
<!-- Node18 -->
<g id="node18" class="node">
<title>Node18</title>
<g id="a_node18"><a xlink:title=" ">
<polygon fill="white" stroke="#bfbfbf" points="173,-0.5 173,-19.5 232,-19.5 232,-0.5 173,-0.5"/>
<text text-anchor="middle" x="202.5" y="-7.5" font-family="Helvetica,sans-Serif" font-size="10.00">inttypes.h</text>
</a>
</g>
</g>
<!-- Node17&#45;&gt;Node18 -->
<g id="edge25" class="edge">
<title>Node17&#45;&gt;Node18</title>
<path fill="none" stroke="midnightblue" d="M327.83,-112.37C304.79,-93.73 250.14,-49.53 221.21,-26.13"/>
<polygon fill="midnightblue" stroke="midnightblue" points="223.1,-23.16 213.12,-19.59 218.7,-28.6 223.1,-23.16"/>
</g>
<!-- Node19 -->
<g id="node19" class="node">
<title>Node19</title>
<g id="a_node19"><a xlink:href="float__compare_8h.html" target="_top" xlink:title=" ">
<polygon fill="white" stroke="black" points="124.5,-56.5 124.5,-75.5 210.5,-75.5 210.5,-56.5 124.5,-56.5"/>
<text text-anchor="middle" x="167.5" y="-63.5" font-family="Helvetica,sans-Serif" font-size="10.00">float_compare.h</text>
</a>
</g>
</g>
<!-- Node17&#45;&gt;Node19 -->
<g id="edge27" class="edge">
<title>Node17&#45;&gt;Node19</title>
<path fill="none" stroke="midnightblue" d="M315.44,-113.72C287.02,-104.74 238.36,-89.38 204.65,-78.73"/>
<polygon fill="midnightblue" stroke="midnightblue" points="205.29,-75.26 194.7,-75.59 203.18,-81.94 205.29,-75.26"/>
</g>
<!-- Node19&#45;&gt;Node18 -->
<g id="edge28" class="edge">
<title>Node19&#45;&gt;Node18</title>
<path fill="none" stroke="midnightblue" d="M173.28,-56.08C178.17,-48.53 185.33,-37.49 191.33,-28.23"/>
<polygon fill="midnightblue" stroke="midnightblue" points="194.33,-30.05 196.83,-19.75 188.45,-26.24 194.33,-30.05"/>
</g>
<!-- Node20 -->
<g id="node20" class="node">
<title>Node20</title>
<g id="a_node20"><a xlink:title=" ">
<polygon fill="white" stroke="#bfbfbf" points="110.5,-0.5 110.5,-19.5 154.5,-19.5 154.5,-0.5 110.5,-0.5"/>
<text text-anchor="middle" x="132.5" y="-7.5" font-family="Helvetica,sans-Serif" font-size="10.00">float.h</text>
</a>
</g>
</g>
<!-- Node19&#45;&gt;Node20 -->
<g id="edge29" class="edge">
<title>Node19&#45;&gt;Node20</title>
<path fill="none" stroke="midnightblue" d="M161.72,-56.08C156.83,-48.53 149.67,-37.49 143.67,-28.23"/>
<polygon fill="midnightblue" stroke="midnightblue" points="146.55,-26.24 138.17,-19.75 140.67,-30.05 146.55,-26.24"/>
</g>
<!-- Node21&#45;&gt;Node11 -->
<g id="edge31" class="edge">
<title>Node21&#45;&gt;Node11</title>
<path fill="none" stroke="midnightblue" d="M588.92,-224.32C604.04,-215.82 627.32,-202.73 644.97,-192.8"/>
<polygon fill="midnightblue" stroke="midnightblue" points="647.11,-195.61 654.11,-187.65 643.68,-189.51 647.11,-195.61"/>
</g>
<!-- Node21&#45;&gt;Node17 -->
<g id="edge32" class="edge">
<title>Node21&#45;&gt;Node17</title>
<path fill="none" stroke="midnightblue" d="M555.06,-224.37C513.96,-205.13 414.66,-158.65 366.13,-135.93"/>
<polygon fill="midnightblue" stroke="midnightblue" points="367.4,-132.66 356.85,-131.59 364.43,-139 367.4,-132.66"/>
</g>
<!-- Node22&#45;&gt;Node11 -->
<g id="edge34" class="edge">
<title>Node22&#45;&gt;Node11</title>
<path fill="none" stroke="midnightblue" d="M665.72,-336.08C666.34,-309.95 668.19,-233.21 669.05,-197.58"/>
<polygon fill="midnightblue" stroke="midnightblue" points="672.55,-197.65 669.29,-187.57 665.55,-197.48 672.55,-197.65"/>
</g>
<!-- Node22&#45;&gt;Node12 -->
<g id="edge35" class="edge">
<title>Node22&#45;&gt;Node12</title>
<path fill="none" stroke="midnightblue" d="M684.04,-336.44C703.12,-327.64 733.07,-313.81 754.94,-303.72"/>
<polygon fill="midnightblue" stroke="midnightblue" points="756.43,-306.88 764.05,-299.52 753.5,-300.53 756.43,-306.88"/>
</g>
<!-- Node22&#45;&gt;Node23 -->
<g id="edge36" class="edge">
<title>Node22&#45;&gt;Node23</title>
<path fill="none" stroke="midnightblue" d="M637.88,-340.54C581.28,-331.38 451.44,-310.39 380.3,-298.89"/>
<polygon fill="midnightblue" stroke="midnightblue" points="380.68,-295.41 370.25,-297.27 379.56,-302.32 380.68,-295.41"/>
</g>
<!-- Node23&#45;&gt;Node16 -->
<g id="edge47" class="edge">
<title>Node23&#45;&gt;Node16</title>
<path fill="none" stroke="midnightblue" d="M326.65,-280.28C320.22,-267.5 310.57,-243.14 318.5,-224 323.42,-212.12 333.17,-201.74 342.33,-193.96"/>
<polygon fill="midnightblue" stroke="midnightblue" points="344.75,-196.51 350.44,-187.56 340.42,-191.01 344.75,-196.51"/>
</g>
<!-- Node23&#45;&gt;Node17 -->
<g id="edge46" class="edge">
<title>Node23&#45;&gt;Node17</title>
<path fill="none" stroke="midnightblue" d="M292.85,-285.28C247.44,-279.08 180.63,-263.17 200.5,-224 222.63,-180.38 273.42,-151.08 306.83,-135.73"/>
<polygon fill="midnightblue" stroke="midnightblue" points="308.44,-138.84 316.17,-131.59 305.61,-132.44 308.44,-138.84"/>
</g>
<!-- Node23&#45;&gt;Node19 -->
<g id="edge37" class="edge">
<title>Node23&#45;&gt;Node19</title>
<path fill="none" stroke="midnightblue" d="M292.96,-287.14C261.35,-283.45 217.95,-272.99 193.5,-244 155,-198.35 159.66,-121.43 164.37,-85.96"/>
<polygon fill="midnightblue" stroke="midnightblue" points="167.9,-86.03 165.91,-75.63 160.98,-85 167.9,-86.03"/>
</g>
<!-- Node23&#45;&gt;Node21 -->
<g id="edge43" class="edge">
<title>Node23&#45;&gt;Node21</title>
<path fill="none" stroke="midnightblue" d="M369.85,-280.44C411.97,-271.04 479.71,-255.93 525.37,-245.74"/>
<polygon fill="midnightblue" stroke="midnightblue" points="526.34,-249.11 535.33,-243.52 524.81,-242.28 526.34,-249.11"/>
</g>
<!-- Node24 -->
<g id="node24" class="node">
<title>Node24</title>
<g id="a_node24"><a xlink:href="geometry_8h.html" target="_top" xlink:title=" ">
<polygon fill="white" stroke="black" points="417,-224.5 417,-243.5 506,-243.5 506,-224.5 417,-224.5"/>
<text text-anchor="middle" x="461.5" y="-231.5" font-family="Helvetica,sans-Serif" font-size="10.00">math/geometry.h</text>
</a>
</g>
</g>
<!-- Node23&#45;&gt;Node24 -->
<g id="edge38" class="edge">
<title>Node23&#45;&gt;Node24</title>
<path fill="none" stroke="midnightblue" d="M352.1,-280.44C373.49,-271.56 407.18,-257.56 431.52,-247.45"/>
<polygon fill="midnightblue" stroke="midnightblue" points="433.11,-250.58 441,-243.52 430.42,-244.12 433.11,-250.58"/>
</g>
<!-- Node25 -->
<g id="node25" class="node">
<title>Node25</title>
<g id="a_node25"><a xlink:href="mat4_8h.html" target="_top" xlink:title=" ">
<polygon fill="white" stroke="black" points="328,-224.5 328,-243.5 399,-243.5 399,-224.5 328,-224.5"/>
<text text-anchor="middle" x="363.5" y="-231.5" font-family="Helvetica,sans-Serif" font-size="10.00">math/mat4.h</text>
</a>
</g>
</g>
<!-- Node23&#45;&gt;Node25 -->
<g id="edge39" class="edge">
<title>Node23&#45;&gt;Node25</title>
<path fill="none" stroke="midnightblue" d="M336.78,-280.08C341.21,-272.61 347.66,-261.72 353.12,-252.52"/>
<polygon fill="midnightblue" stroke="midnightblue" points="356.23,-254.14 358.31,-243.75 350.21,-250.57 356.23,-254.14"/>
</g>
<!-- Node26 -->
<g id="node26" class="node">
<title>Node26</title>
<g id="a_node26"><a xlink:href="ray_8h.html" target="_top" xlink:title=" ">
<polygon fill="white" stroke="black" points="209.5,-224.5 209.5,-243.5 271.5,-243.5 271.5,-224.5 209.5,-224.5"/>
<text text-anchor="middle" x="240.5" y="-231.5" font-family="Helvetica,sans-Serif" font-size="10.00">math/ray.h</text>
</a>
</g>
</g>
<!-- Node23&#45;&gt;Node26 -->
<g id="edge41" class="edge">
<title>Node23&#45;&gt;Node26</title>
<path fill="none" stroke="midnightblue" d="M316.88,-280.32C302.55,-271.82 280.49,-258.73 263.75,-248.8"/>
<polygon fill="midnightblue" stroke="midnightblue" points="265.47,-245.75 255.08,-243.65 261.9,-251.77 265.47,-245.75"/>
</g>
<!-- Node27 -->
<g id="node27" class="node">
<title>Node27</title>
<g id="a_node27"><a xlink:href="solve__equation_8h.html" target="_top" xlink:title=" ">
<polygon fill="white" stroke="black" points="0,-112.5 0,-131.5 115,-131.5 115,-112.5 0,-112.5"/>
<text text-anchor="middle" x="57.5" y="-119.5" font-family="Helvetica,sans-Serif" font-size="10.00">math/solve_equation.h</text>
</a>
</g>
</g>
<!-- Node23&#45;&gt;Node27 -->
<g id="edge44" class="edge">
<title>Node23&#45;&gt;Node27</title>
<path fill="none" stroke="midnightblue" d="M292.85,-289.22C249.26,-287.61 178.1,-279.19 129.5,-244 93.65,-218.05 72.5,-168.28 63.18,-141.37"/>
<polygon fill="midnightblue" stroke="midnightblue" points="66.44,-140.08 60,-131.66 59.79,-142.26 66.44,-140.08"/>
</g>
<!-- Node25&#45;&gt;Node16 -->
<g id="edge40" class="edge">
<title>Node25&#45;&gt;Node16</title>
<path fill="none" stroke="midnightblue" d="M363.5,-224.08C363.5,-217.01 363.5,-206.86 363.5,-197.99"/>
<polygon fill="midnightblue" stroke="midnightblue" points="367,-197.75 363.5,-187.75 360,-197.75 367,-197.75"/>
</g>
<!-- Node26&#45;&gt;Node16 -->
<g id="edge42" class="edge">
<title>Node26&#45;&gt;Node16</title>
<path fill="none" stroke="midnightblue" d="M259.99,-224.44C280.14,-215.6 311.82,-201.69 334.83,-191.59"/>
<polygon fill="midnightblue" stroke="midnightblue" points="336.35,-194.74 344.1,-187.52 333.54,-188.33 336.35,-194.74"/>
</g>
<!-- Node27&#45;&gt;Node18 -->
<g id="edge45" class="edge">
<title>Node27&#45;&gt;Node18</title>
<path fill="none" stroke="midnightblue" d="M63.79,-112.08C73.61,-98.61 93.75,-72.87 115.5,-56 132.62,-42.72 154.25,-31.51 171.66,-23.6"/>
<polygon fill="midnightblue" stroke="midnightblue" points="173.1,-26.79 180.84,-19.56 170.28,-20.39 173.1,-26.79"/>
</g>
</g>
</svg>
        <g id="navigator" transform="translate(0 0)" fill="#404254">
                <rect fill="#f2f5e9" fill-opacity="0.5" stroke="#606060" stroke-width=".5" x="0" y="0" width="60" height="60"/>
                <use id="zoomplus" xlink:href="#zoomPlus" x="17" y="9" onmousedown="handleZoom(evt,'in')"/>
                <use id="zoomminus" xlink:href="#zoomMin" x="42" y="9" onmousedown="handleZoom(evt,'out')"/>
                <use id="reset" xlink:href="#resetDef" x="30" y="36" onmousedown="handleReset()"/>
                <g id="arrowUp" xlink:href="#dirArrow" transform="translate(30 24)" onmousedown="handlePan(0,-1)">
                  <use xlink:href="#rim" fill="#404040">
                        <set attributeName="fill" to="#808080" begin="arrowUp.mouseover" end="arrowUp.mouseout"/>
                  </use>
                  <path fill="none" stroke="white" stroke-width="1.5" d="M0,-3.0v7 M-2.5,-0.5L0,-3.0L2.5,-0.5"/>
                </g>
                <g id="arrowRight" xlink:href="#dirArrow" transform="rotate(90) translate(36 -43)" onmousedown="handlePan(1,0)">
                  <use xlink:href="#rim" fill="#404040">
                        <set attributeName="fill" to="#808080" begin="arrowRight.mouseover" end="arrowRight.mouseout"/>
                  </use>
                  <path fill="none" stroke="white" stroke-width="1.5" d="M0,-3.0v7 M-2.5,-0.5L0,-3.0L2.5,-0.5"/>
                </g>
                <g id="arrowDown" xlink:href="#dirArrow" transform="rotate(180) translate(-30 -48)" onmousedown="handlePan(0,1)">
                  <use xlink:href="#rim" fill="#404040">
                        <set attributeName="fill" to="#808080" begin="arrowDown.mouseover" end="arrowDown.mouseout"/>
                  </use>
                  <path fill="none" stroke="white" stroke-width="1.5" d="M0,-3.0v7 M-2.5,-0.5L0,-3.0L2.5,-0.5"/>
                </g>
                <g id="arrowLeft" xlink:href="#dirArrow" transform="rotate(270) translate(-36 17)" onmousedown="handlePan(-1,0)">
                  <use xlink:href="#rim" fill="#404040">
                        <set attributeName="fill" to="#808080" begin="arrowLeft.mouseover" end="arrowLeft.mouseout"/>
                  </use>
                  <path fill="none" stroke="white" stroke-width="1.5" d="M0,-3.0v7 M-2.5,-0.5L0,-3.0L2.5,-0.5"/>
                </g>
        </g>
        <svg viewBox="0 0 15 15" width="100%" height="30px" preserveAspectRatio="xMaxYMin meet">
         <g id="arrow_out" transform="scale(0.3 0.3)">
          <a xlink:href="renderer_8cpp__incl_org.svg" target="_base">
           <rect id="button" ry="5" rx="5" y="6" x="6" height="38" width="38"
                fill="#f2f5e9" fill-opacity="0.5" stroke="#606060" stroke-width="1.0"/>
           <path id="arrow"
             d="M 11.500037,31.436501 C 11.940474,20.09759 22.043105,11.32322 32.158766,21.979434 L 37.068811,17.246167 C 37.068811,17.246167 37.088388,32 37.088388,32 L 22.160133,31.978069 C 22.160133,31.978069 26.997745,27.140456 26.997745,27.140456 C 18.528582,18.264221 13.291696,25.230495 11.500037,31.436501 z"
             style="fill:#404040;"/>
          </a>
         </g>
        </svg>
</svg>
