<?xml version="1.0" encoding="UTF-8" standalone="no"?>
<!DOCTYPE svg PUBLIC "-//W3C//DTD SVG 1.1//EN"
 "http://www.w3.org/Graphics/SVG/1.1/DTD/svg11.dtd">
<!-- Generated by graphviz version 2.50.0 (20211204.2007)
 -->
<!-- Title: renderer.h Pages: 1 -->
<svg width="430pt" height="252pt"
 viewBox="0.00 0.00 429.50 252.00" xmlns="http://www.w3.org/2000/svg" xmlns:xlink="http://www.w3.org/1999/xlink">
<g id="graph0" class="graph" transform="scale(1 1) rotate(0) translate(4 248)">
<title>renderer.h</title>
<polygon fill="white" stroke="transparent" points="-4,4 -4,-248 425.5,-248 425.5,4 -4,4"/>
<!-- Node1 -->
<g id="node1" class="node">
<title>Node1</title>
<g id="a_node1"><a xlink:title=" ">
<polygon fill="#bfbfbf" stroke="black" points="182.5,-224.5 182.5,-243.5 241.5,-243.5 241.5,-224.5 182.5,-224.5"/>
<text text-anchor="middle" x="212" y="-231.5" font-family="Helvetica,sans-Serif" font-size="10.00">renderer.h</text>
</a>
</g>
</g>
<!-- Node2 -->
<g id="node2" class="node">
<title>Node2</title>
<g id="a_node2"><a xlink:href="blur_8h.html" target="_top" xlink:title=" ">
<polygon fill="white" stroke="black" points="22,-168.5 22,-187.5 62,-187.5 62,-168.5 22,-168.5"/>
<text text-anchor="middle" x="42" y="-175.5" font-family="Helvetica,sans-Serif" font-size="10.00">blur.h</text>
</a>
</g>
</g>
<!-- Node1&#45;&gt;Node2 -->
<g id="edge1" class="edge">
<title>Node1&#45;&gt;Node2</title>
<path fill="none" stroke="midnightblue" d="M175.31,-221.35C140.66,-210.34 89.99,-194.24 62.16,-185.4"/>
<polygon fill="midnightblue" stroke="midnightblue" points="174.47,-224.75 185.06,-224.44 176.59,-218.08 174.47,-224.75"/>
</g>
<!-- Node4 -->
<g id="node4" class="node">
<title>Node4</title>
<g id="a_node4"><a xlink:href="primitives_8h.html" target="_top" xlink:title=" ">
<polygon fill="white" stroke="black" points="85.5,-168.5 85.5,-187.5 152.5,-187.5 152.5,-168.5 85.5,-168.5"/>
<text text-anchor="middle" x="119" y="-175.5" font-family="Helvetica,sans-Serif" font-size="10.00">primitives.h</text>
</a>
</g>
</g>
<!-- Node1&#45;&gt;Node4 -->
<g id="edge3" class="edge">
<title>Node1&#45;&gt;Node4</title>
<path fill="none" stroke="midnightblue" d="M188.19,-219.18C171.08,-209.24 148.53,-196.15 133.9,-187.65"/>
<polygon fill="midnightblue" stroke="midnightblue" points="186.65,-222.33 197.06,-224.32 190.17,-216.28 186.65,-222.33"/>
</g>
<!-- Node6 -->
<g id="node6" class="node">
<title>Node6</title>
<g id="a_node6"><a xlink:href="sml__graphics__wrapper_8h.html" target="_top" xlink:title=" ">
<polygon fill="white" stroke="black" points="164,-112.5 164,-131.5 286,-131.5 286,-112.5 164,-112.5"/>
<text text-anchor="middle" x="225" y="-119.5" font-family="Helvetica,sans-Serif" font-size="10.00">sml_graphics_wrapper.h</text>
</a>
</g>
</g>
<!-- Node1&#45;&gt;Node6 -->
<g id="edge10" class="edge">
<title>Node1&#45;&gt;Node6</title>
<path fill="none" stroke="midnightblue" d="M204.27,-214.37C199.88,-201.29 196,-183.45 200,-168 203.54,-154.33 212.23,-140.39 218.37,-131.73"/>
<polygon fill="midnightblue" stroke="midnightblue" points="201.12,-215.95 207.91,-224.08 207.68,-213.49 201.12,-215.95"/>
</g>
<!-- Node10 -->
<g id="node10" class="node">
<title>Node10</title>
<g id="a_node10"><a xlink:href="renderer_8cpp.html" target="_top" xlink:title=" ">
<polygon fill="white" stroke="black" points="209,-168.5 209,-187.5 279,-187.5 279,-168.5 209,-168.5"/>
<text text-anchor="middle" x="244" y="-175.5" font-family="Helvetica,sans-Serif" font-size="10.00">renderer.cpp</text>
</a>
</g>
</g>
<!-- Node1&#45;&gt;Node10 -->
<g id="edge9" class="edge">
<title>Node1&#45;&gt;Node10</title>
<path fill="none" stroke="midnightblue" d="M222.5,-215.27C227.97,-206.05 234.42,-195.17 238.81,-187.75"/>
<polygon fill="midnightblue" stroke="midnightblue" points="219.37,-213.7 217.28,-224.08 225.39,-217.26 219.37,-213.7"/>
</g>
<!-- Node11 -->
<g id="node11" class="node">
<title>Node11</title>
<g id="a_node11"><a xlink:href="text_8h.html" target="_top" xlink:title=" ">
<polygon fill="white" stroke="black" points="297.5,-168.5 297.5,-187.5 338.5,-187.5 338.5,-168.5 297.5,-168.5"/>
<text text-anchor="middle" x="318" y="-175.5" font-family="Helvetica,sans-Serif" font-size="10.00">text.h</text>
</a>
</g>
</g>
<!-- Node1&#45;&gt;Node11 -->
<g id="edge11" class="edge">
<title>Node1&#45;&gt;Node11</title>
<path fill="none" stroke="midnightblue" d="M238.06,-219.73C257.68,-209.73 284.03,-196.31 301.01,-187.65"/>
<polygon fill="midnightblue" stroke="midnightblue" points="236.35,-216.67 229.03,-224.32 239.53,-222.9 236.35,-216.67"/>
</g>
<!-- Node13 -->
<g id="node13" class="node">
<title>Node13</title>
<g id="a_node13"><a xlink:href="texture_8cpp.html" target="_top" xlink:title=" ">
<polygon fill="white" stroke="black" points="356.5,-168.5 356.5,-187.5 421.5,-187.5 421.5,-168.5 356.5,-168.5"/>
<text text-anchor="middle" x="389" y="-175.5" font-family="Helvetica,sans-Serif" font-size="10.00">texture.cpp</text>
</a>
</g>
</g>
<!-- Node1&#45;&gt;Node13 -->
<g id="edge14" class="edge">
<title>Node1&#45;&gt;Node13</title>
<path fill="none" stroke="midnightblue" d="M249.9,-221.44C283.28,-211.26 331.1,-196.66 361.09,-187.52"/>
<polygon fill="midnightblue" stroke="midnightblue" points="248.59,-218.18 240.05,-224.44 250.63,-224.87 248.59,-218.18"/>
</g>
<!-- Node3 -->
<g id="node3" class="node">
<title>Node3</title>
<g id="a_node3"><a xlink:href="blur_8cpp.html" target="_top" xlink:title=" ">
<polygon fill="white" stroke="black" points="0,-112.5 0,-131.5 50,-131.5 50,-112.5 0,-112.5"/>
<text text-anchor="middle" x="25" y="-119.5" font-family="Helvetica,sans-Serif" font-size="10.00">blur.cpp</text>
</a>
</g>
</g>
<!-- Node2&#45;&gt;Node3 -->
<g id="edge2" class="edge">
<title>Node2&#45;&gt;Node3</title>
<path fill="none" stroke="midnightblue" d="M36.14,-158.4C33.3,-149.36 30.02,-138.94 27.75,-131.75"/>
<polygon fill="midnightblue" stroke="midnightblue" points="32.85,-159.6 39.19,-168.08 39.53,-157.49 32.85,-159.6"/>
</g>
<!-- Node5 -->
<g id="node5" class="node">
<title>Node5</title>
<g id="a_node5"><a xlink:href="primitives_8cpp.html" target="_top" xlink:title=" ">
<polygon fill="white" stroke="black" points="68.5,-112.5 68.5,-131.5 145.5,-131.5 145.5,-112.5 68.5,-112.5"/>
<text text-anchor="middle" x="107" y="-119.5" font-family="Helvetica,sans-Serif" font-size="10.00">primitives.cpp</text>
</a>
</g>
</g>
<!-- Node4&#45;&gt;Node5 -->
<g id="edge4" class="edge">
<title>Node4&#45;&gt;Node5</title>
<path fill="none" stroke="midnightblue" d="M114.8,-158.1C112.81,-149.14 110.52,-138.86 108.94,-131.75"/>
<polygon fill="midnightblue" stroke="midnightblue" points="111.43,-159.08 117.02,-168.08 118.27,-157.56 111.43,-159.08"/>
</g>
<!-- Node4&#45;&gt;Node6 -->
<g id="edge5" class="edge">
<title>Node4&#45;&gt;Node6</title>
<path fill="none" stroke="midnightblue" d="M145.06,-163.73C164.68,-153.73 191.03,-140.31 208.01,-131.65"/>
<polygon fill="midnightblue" stroke="midnightblue" points="143.35,-160.67 136.03,-168.32 146.53,-166.9 143.35,-160.67"/>
</g>
<!-- Node7 -->
<g id="node7" class="node">
<title>Node7</title>
<g id="a_node7"><a xlink:href="viewport_8h.html" target="_top" xlink:title=" ">
<polygon fill="white" stroke="black" points="194,-56.5 194,-75.5 256,-75.5 256,-56.5 194,-56.5"/>
<text text-anchor="middle" x="225" y="-63.5" font-family="Helvetica,sans-Serif" font-size="10.00">viewport.h</text>
</a>
</g>
</g>
<!-- Node6&#45;&gt;Node7 -->
<g id="edge6" class="edge">
<title>Node6&#45;&gt;Node7</title>
<path fill="none" stroke="midnightblue" d="M225,-101.8C225,-92.91 225,-82.78 225,-75.75"/>
<polygon fill="midnightblue" stroke="midnightblue" points="221.5,-102.08 225,-112.08 228.5,-102.08 221.5,-102.08"/>
</g>
<!-- Node8 -->
<g id="node8" class="node">
<title>Node8</title>
<g id="a_node8"><a xlink:href="sml__utils_8h.html" target="_top" xlink:title=" ">
<polygon fill="white" stroke="black" points="150,-0.5 150,-19.5 214,-19.5 214,-0.5 150,-0.5"/>
<text text-anchor="middle" x="182" y="-7.5" font-family="Helvetica,sans-Serif" font-size="10.00">sml_utils.h</text>
</a>
</g>
</g>
<!-- Node7&#45;&gt;Node8 -->
<g id="edge7" class="edge">
<title>Node7&#45;&gt;Node8</title>
<path fill="none" stroke="midnightblue" d="M211.58,-48.14C204.09,-38.74 195.06,-27.4 188.97,-19.75"/>
<polygon fill="midnightblue" stroke="midnightblue" points="208.93,-50.44 217.9,-56.08 214.41,-46.08 208.93,-50.44"/>
</g>
<!-- Node9 -->
<g id="node9" class="node">
<title>Node9</title>
<g id="a_node9"><a xlink:href="viewport_8cpp.html" target="_top" xlink:title=" ">
<polygon fill="white" stroke="black" points="232,-0.5 232,-19.5 304,-19.5 304,-0.5 232,-0.5"/>
<text text-anchor="middle" x="268" y="-7.5" font-family="Helvetica,sans-Serif" font-size="10.00">viewport.cpp</text>
</a>
</g>
</g>
<!-- Node7&#45;&gt;Node9 -->
<g id="edge8" class="edge">
<title>Node7&#45;&gt;Node9</title>
<path fill="none" stroke="midnightblue" d="M238.42,-48.14C245.91,-38.74 254.94,-27.4 261.03,-19.75"/>
<polygon fill="midnightblue" stroke="midnightblue" points="235.59,-46.08 232.1,-56.08 241.07,-50.44 235.59,-46.08"/>
</g>
<!-- Node11&#45;&gt;Node6 -->
<g id="edge12" class="edge">
<title>Node11&#45;&gt;Node6</title>
<path fill="none" stroke="midnightblue" d="M294.19,-163.18C277.08,-153.24 254.53,-140.15 239.9,-131.65"/>
<polygon fill="midnightblue" stroke="midnightblue" points="292.65,-166.33 303.06,-168.32 296.17,-160.28 292.65,-166.33"/>
</g>
<!-- Node12 -->
<g id="node12" class="node">
<title>Node12</title>
<g id="a_node12"><a xlink:href="text_8cpp.html" target="_top" xlink:title=" ">
<polygon fill="white" stroke="black" points="304,-112.5 304,-131.5 356,-131.5 356,-112.5 304,-112.5"/>
<text text-anchor="middle" x="330" y="-119.5" font-family="Helvetica,sans-Serif" font-size="10.00">text.cpp</text>
</a>
</g>
</g>
<!-- Node11&#45;&gt;Node12 -->
<g id="edge13" class="edge">
<title>Node11&#45;&gt;Node12</title>
<path fill="none" stroke="midnightblue" d="M322.2,-158.1C324.19,-149.14 326.48,-138.86 328.06,-131.75"/>
<polygon fill="midnightblue" stroke="midnightblue" points="318.73,-157.56 319.98,-168.08 325.57,-159.08 318.73,-157.56"/>
</g>
</g>
</svg>
