<?xml version="1.0" encoding="UTF-8" standalone="no"?>
<!DOCTYPE svg PUBLIC "-//W3C//DTD SVG 1.1//EN"
 "http://www.w3.org/Graphics/SVG/1.1/DTD/svg11.dtd">
<!-- Generated by graphviz version 2.50.0 (20211204.2007)
 -->
<!-- Title: scancode.h Pages: 1 -->
<svg width="367pt" height="308pt"
 viewBox="0.00 0.00 366.50 308.00" xmlns="http://www.w3.org/2000/svg" xmlns:xlink="http://www.w3.org/1999/xlink">
<g id="graph0" class="graph" transform="scale(1 1) rotate(0) translate(4 304)">
<title>scancode.h</title>
<polygon fill="white" stroke="transparent" points="-4,4 -4,-304 362.5,-304 362.5,4 -4,4"/>
<!-- Node1 -->
<g id="node1" class="node">
<title>Node1</title>
<g id="a_node1"><a xlink:title=" ">
<polygon fill="#bfbfbf" stroke="black" points="266,-280.5 266,-299.5 333,-299.5 333,-280.5 266,-280.5"/>
<text text-anchor="middle" x="299.5" y="-287.5" font-family="Helvetica,sans-Serif" font-size="10.00">scancode.h</text>
</a>
</g>
</g>
<!-- Node2 -->
<g id="node2" class="node">
<title>Node2</title>
<g id="a_node2"><a xlink:href="event_8h.html" target="_top" xlink:title=" ">
<polygon fill="white" stroke="black" points="217,-224.5 217,-243.5 266,-243.5 266,-224.5 217,-224.5"/>
<text text-anchor="middle" x="241.5" y="-231.5" font-family="Helvetica,sans-Serif" font-size="10.00">event.h</text>
</a>
</g>
</g>
<!-- Node1&#45;&gt;Node2 -->
<g id="edge1" class="edge">
<title>Node1&#45;&gt;Node2</title>
<path fill="none" stroke="midnightblue" d="M282.59,-273.25C272.3,-263.67 259.53,-251.79 250.99,-243.83"/>
<polygon fill="midnightblue" stroke="midnightblue" points="280.48,-276.07 290.18,-280.32 285.25,-270.95 280.48,-276.07"/>
</g>
<!-- Node8 -->
<g id="node8" class="node">
<title>Node8</title>
<g id="a_node8"><a xlink:href="sml__events_8h.html" target="_top" xlink:title=" ">
<polygon fill="white" stroke="black" points="283,-0.5 283,-19.5 358,-19.5 358,-0.5 283,-0.5"/>
<text text-anchor="middle" x="320.5" y="-7.5" font-family="Helvetica,sans-Serif" font-size="10.00">sml_events.h</text>
</a>
</g>
</g>
<!-- Node1&#45;&gt;Node8 -->
<g id="edge14" class="edge">
<title>Node1&#45;&gt;Node8</title>
<path fill="none" stroke="midnightblue" d="M314.81,-272.79C332.29,-252.53 358.5,-215.98 358.5,-179 358.5,-179 358.5,-179 358.5,-121 358.5,-81.4 336.23,-37.96 325.78,-19.77"/>
<polygon fill="midnightblue" stroke="midnightblue" points="312.03,-270.66 307.95,-280.44 317.24,-275.33 312.03,-270.66"/>
</g>
<!-- Node3 -->
<g id="node3" class="node">
<title>Node3</title>
<g id="a_node3"><a xlink:href="event__dispatching_8h.html" target="_top" xlink:title=" ">
<polygon fill="white" stroke="black" points="1.5,-168.5 1.5,-187.5 105.5,-187.5 105.5,-168.5 1.5,-168.5"/>
<text text-anchor="middle" x="53.5" y="-175.5" font-family="Helvetica,sans-Serif" font-size="10.00">event_dispatching.h</text>
</a>
</g>
</g>
<!-- Node2&#45;&gt;Node3 -->
<g id="edge2" class="edge">
<title>Node2&#45;&gt;Node3</title>
<path fill="none" stroke="midnightblue" d="M207.03,-223.1C171.6,-212.92 117,-197.24 83.36,-187.58"/>
<polygon fill="midnightblue" stroke="midnightblue" points="206.34,-226.54 216.92,-225.94 208.28,-219.82 206.34,-226.54"/>
</g>
<!-- Node4 -->
<g id="node4" class="node">
<title>Node4</title>
<g id="a_node4"><a xlink:href="listener__notifier_8h.html" target="_top" xlink:title=" ">
<polygon fill="white" stroke="black" points="123.5,-168.5 123.5,-187.5 213.5,-187.5 213.5,-168.5 123.5,-168.5"/>
<text text-anchor="middle" x="168.5" y="-175.5" font-family="Helvetica,sans-Serif" font-size="10.00">listener_notifier.h</text>
</a>
</g>
</g>
<!-- Node2&#45;&gt;Node4 -->
<g id="edge3" class="edge">
<title>Node2&#45;&gt;Node4</title>
<path fill="none" stroke="midnightblue" d="M221.36,-218.1C208.22,-208.38 191.52,-196.03 180.44,-187.83"/>
<polygon fill="midnightblue" stroke="midnightblue" points="219.65,-221.19 229.77,-224.32 223.81,-215.56 219.65,-221.19"/>
</g>
<!-- Node2&#45;&gt;Node8 -->
<g id="edge12" class="edge">
<title>Node2&#45;&gt;Node8</title>
<path fill="none" stroke="midnightblue" d="M252.96,-215.83C265.48,-196.32 285.23,-163.14 296.5,-132 311.15,-91.52 317.59,-40.01 319.68,-19.75"/>
<polygon fill="midnightblue" stroke="midnightblue" points="250.01,-213.96 247.47,-224.24 255.87,-217.79 250.01,-213.96"/>
</g>
<!-- Node10 -->
<g id="node10" class="node">
<title>Node10</title>
<g id="a_node10"><a xlink:href="system__events_8h.html" target="_top" xlink:title=" ">
<polygon fill="white" stroke="black" points="195.5,-112.5 195.5,-131.5 287.5,-131.5 287.5,-112.5 195.5,-112.5"/>
<text text-anchor="middle" x="241.5" y="-119.5" font-family="Helvetica,sans-Serif" font-size="10.00">system_events.h</text>
</a>
</g>
</g>
<!-- Node2&#45;&gt;Node10 -->
<g id="edge13" class="edge">
<title>Node2&#45;&gt;Node10</title>
<path fill="none" stroke="midnightblue" d="M241.5,-214.35C241.5,-190.25 241.5,-149.31 241.5,-131.59"/>
<polygon fill="midnightblue" stroke="midnightblue" points="238,-214.37 241.5,-224.37 245,-214.37 238,-214.37"/>
</g>
<!-- Node5 -->
<g id="node5" class="node">
<title>Node5</title>
<g id="a_node5"><a xlink:href="listener__notifier_8cpp.html" target="_top" xlink:title=" ">
<polygon fill="white" stroke="black" points="0,-112.5 0,-131.5 101,-131.5 101,-112.5 0,-112.5"/>
<text text-anchor="middle" x="50.5" y="-119.5" font-family="Helvetica,sans-Serif" font-size="10.00">listener_notifier.cpp</text>
</a>
</g>
</g>
<!-- Node4&#45;&gt;Node5 -->
<g id="edge4" class="edge">
<title>Node4&#45;&gt;Node5</title>
<path fill="none" stroke="midnightblue" d="M140.6,-164.23C118.53,-154.13 88.32,-140.31 69.11,-131.52"/>
<polygon fill="midnightblue" stroke="midnightblue" points="139.25,-167.46 149.8,-168.44 142.17,-161.1 139.25,-167.46"/>
</g>
<!-- Node6 -->
<g id="node6" class="node">
<title>Node6</title>
<g id="a_node6"><a xlink:href="observable__property_8h.html" target="_top" xlink:title=" ">
<polygon fill="white" stroke="black" points="181,-56.5 181,-75.5 292,-75.5 292,-56.5 181,-56.5"/>
<text text-anchor="middle" x="236.5" y="-63.5" font-family="Helvetica,sans-Serif" font-size="10.00">observable_property.h</text>
</a>
</g>
</g>
<!-- Node4&#45;&gt;Node6 -->
<g id="edge5" class="edge">
<title>Node4&#45;&gt;Node6</title>
<path fill="none" stroke="midnightblue" d="M170.82,-158.28C173.16,-144.64 177.74,-126.16 186.5,-112 195.84,-96.9 211.72,-83.87 223.07,-75.77"/>
<polygon fill="midnightblue" stroke="midnightblue" points="167.32,-157.99 169.33,-168.39 174.25,-159 167.32,-157.99"/>
</g>
<!-- Node7 -->
<g id="node7" class="node">
<title>Node7</title>
<g id="a_node7"><a xlink:href="system__event__manager_8h.html" target="_top" xlink:title=" ">
<polygon fill="white" stroke="black" points="34.5,-56.5 34.5,-75.5 162.5,-75.5 162.5,-56.5 34.5,-56.5"/>
<text text-anchor="middle" x="98.5" y="-63.5" font-family="Helvetica,sans-Serif" font-size="10.00">system_event_manager.h</text>
</a>
</g>
</g>
<!-- Node4&#45;&gt;Node7 -->
<g id="edge6" class="edge">
<title>Node4&#45;&gt;Node7</title>
<path fill="none" stroke="midnightblue" d="M157.45,-159.64C142.25,-135.74 115.45,-93.63 103.97,-75.59"/>
<polygon fill="midnightblue" stroke="midnightblue" points="154.69,-161.81 163.01,-168.37 160.59,-158.05 154.69,-161.81"/>
</g>
<!-- Node4&#45;&gt;Node10 -->
<g id="edge9" class="edge">
<title>Node4&#45;&gt;Node10</title>
<path fill="none" stroke="midnightblue" d="M188.64,-162.1C201.78,-152.38 218.48,-140.03 229.56,-131.83"/>
<polygon fill="midnightblue" stroke="midnightblue" points="186.19,-159.56 180.23,-168.32 190.35,-165.19 186.19,-159.56"/>
</g>
<!-- Node7&#45;&gt;Node8 -->
<g id="edge7" class="edge">
<title>Node7&#45;&gt;Node8</title>
<path fill="none" stroke="midnightblue" d="M143.62,-54.02C185.56,-43.82 247.15,-28.84 285.49,-19.52"/>
<polygon fill="midnightblue" stroke="midnightblue" points="142.57,-50.68 133.68,-56.44 144.22,-57.48 142.57,-50.68"/>
</g>
<!-- Node9 -->
<g id="node9" class="node">
<title>Node9</title>
<g id="a_node9"><a xlink:href="system__event__manager_8cpp.html" target="_top" xlink:title=" ">
<polygon fill="white" stroke="black" points="29,-0.5 29,-19.5 168,-19.5 168,-0.5 29,-0.5"/>
<text text-anchor="middle" x="98.5" y="-7.5" font-family="Helvetica,sans-Serif" font-size="10.00">system_event_manager.cpp</text>
</a>
</g>
</g>
<!-- Node7&#45;&gt;Node9 -->
<g id="edge8" class="edge">
<title>Node7&#45;&gt;Node9</title>
<path fill="none" stroke="midnightblue" d="M98.5,-45.8C98.5,-36.91 98.5,-26.78 98.5,-19.75"/>
<polygon fill="midnightblue" stroke="midnightblue" points="95,-46.08 98.5,-56.08 102,-46.08 95,-46.08"/>
</g>
<!-- Node10&#45;&gt;Node6 -->
<g id="edge10" class="edge">
<title>Node10&#45;&gt;Node6</title>
<path fill="none" stroke="midnightblue" d="M239.75,-102.1C238.92,-93.14 237.97,-82.86 237.31,-75.75"/>
<polygon fill="midnightblue" stroke="midnightblue" points="236.27,-102.45 240.67,-112.08 243.24,-101.8 236.27,-102.45"/>
</g>
<!-- Node10&#45;&gt;Node7 -->
<g id="edge11" class="edge">
<title>Node10&#45;&gt;Node7</title>
<path fill="none" stroke="midnightblue" d="M209.47,-108.91C182.59,-98.75 144.86,-84.51 121.05,-75.52"/>
<polygon fill="midnightblue" stroke="midnightblue" points="208.25,-112.19 218.84,-112.44 210.72,-105.64 208.25,-112.19"/>
</g>
</g>
</svg>
