<?xml version="1.0" encoding="UTF-8" standalone="no"?>
<!DOCTYPE svg PUBLIC "-//W3C//DTD SVG 1.1//EN"
 "http://www.w3.org/Graphics/SVG/1.1/DTD/svg11.dtd">
<!-- Generated by graphviz version 2.50.0 (20211204.2007)
 -->
<!-- Title: sml_math.h Pages: 1 -->
<svg width="573pt" height="308pt"
 viewBox="0.00 0.00 573.00 308.00" xmlns="http://www.w3.org/2000/svg" xmlns:xlink="http://www.w3.org/1999/xlink">
<g id="graph0" class="graph" transform="scale(1 1) rotate(0) translate(4 304)">
<title>sml_math.h</title>
<polygon fill="white" stroke="transparent" points="-4,4 -4,-304 569,-304 569,4 -4,4"/>
<!-- Node1 -->
<g id="node1" class="node">
<title>Node1</title>
<g id="a_node1"><a xlink:title=" ">
<polygon fill="#bfbfbf" stroke="black" points="203.5,-280.5 203.5,-299.5 271.5,-299.5 271.5,-280.5 203.5,-280.5"/>
<text text-anchor="middle" x="237.5" y="-287.5" font-family="Helvetica,sans-Serif" font-size="10.00">sml_math.h</text>
</a>
</g>
</g>
<!-- Node2 -->
<g id="node2" class="node">
<title>Node2</title>
<g id="a_node2"><a xlink:href="float__compare_8h.html" target="_top" xlink:title=" ">
<polygon fill="white" stroke="black" points="0,-56.5 0,-75.5 111,-75.5 111,-56.5 0,-56.5"/>
<text text-anchor="middle" x="55.5" y="-63.5" font-family="Helvetica,sans-Serif" font-size="10.00">math/float_compare.h</text>
</a>
</g>
</g>
<!-- Node1&#45;&gt;Node2 -->
<g id="edge1" class="edge">
<title>Node1&#45;&gt;Node2</title>
<path fill="none" stroke="midnightblue" d="M203.37,-281.18C181.06,-274.55 152.62,-262.99 133.5,-244 87.49,-198.3 66.51,-120.84 58.98,-85.53"/>
<polygon fill="midnightblue" stroke="midnightblue" points="62.39,-84.75 56.99,-75.64 55.53,-86.13 62.39,-84.75"/>
</g>
<!-- Node5 -->
<g id="node5" class="node">
<title>Node5</title>
<g id="a_node5"><a xlink:href="geometry_8h.html" target="_top" xlink:title=" ">
<polygon fill="white" stroke="black" points="476,-224.5 476,-243.5 565,-243.5 565,-224.5 476,-224.5"/>
<text text-anchor="middle" x="520.5" y="-231.5" font-family="Helvetica,sans-Serif" font-size="10.00">math/geometry.h</text>
</a>
</g>
</g>
<!-- Node1&#45;&gt;Node5 -->
<g id="edge4" class="edge">
<title>Node1&#45;&gt;Node5</title>
<path fill="none" stroke="midnightblue" d="M271.64,-282.49C319.76,-273.3 408.07,-256.45 465.52,-245.49"/>
<polygon fill="midnightblue" stroke="midnightblue" points="466.35,-248.9 475.51,-243.58 465.04,-242.02 466.35,-248.9"/>
</g>
<!-- Node6 -->
<g id="node6" class="node">
<title>Node6</title>
<g id="a_node6"><a xlink:href="mat4_8h.html" target="_top" xlink:title=" ">
<polygon fill="white" stroke="black" points="160,-224.5 160,-243.5 231,-243.5 231,-224.5 160,-224.5"/>
<text text-anchor="middle" x="195.5" y="-231.5" font-family="Helvetica,sans-Serif" font-size="10.00">math/mat4.h</text>
</a>
</g>
</g>
<!-- Node1&#45;&gt;Node6 -->
<g id="edge5" class="edge">
<title>Node1&#45;&gt;Node6</title>
<path fill="none" stroke="midnightblue" d="M230.56,-280.08C224.57,-272.38 215.75,-261.03 208.45,-251.65"/>
<polygon fill="midnightblue" stroke="midnightblue" points="211.21,-249.5 202.31,-243.75 205.68,-253.79 211.21,-249.5"/>
</g>
<!-- Node7 -->
<g id="node7" class="node">
<title>Node7</title>
<g id="a_node7"><a xlink:href="vec3_8h.html" target="_top" xlink:title=" ">
<polygon fill="white" stroke="black" points="178.5,-168.5 178.5,-187.5 224.5,-187.5 224.5,-168.5 178.5,-168.5"/>
<text text-anchor="middle" x="201.5" y="-175.5" font-family="Helvetica,sans-Serif" font-size="10.00">vec3.h</text>
</a>
</g>
</g>
<!-- Node1&#45;&gt;Node7 -->
<g id="edge22" class="edge">
<title>Node1&#45;&gt;Node7</title>
<path fill="none" stroke="midnightblue" d="M203.37,-280.75C184.25,-274.19 161.99,-262.88 150.5,-244 139.16,-225.36 159.3,-205.92 177.52,-193.22"/>
<polygon fill="midnightblue" stroke="midnightblue" points="179.71,-195.96 186.16,-187.55 175.87,-190.11 179.71,-195.96"/>
</g>
<!-- Node10 -->
<g id="node10" class="node">
<title>Node10</title>
<g id="a_node10"><a xlink:href="vec2_8h.html" target="_top" xlink:title=" ">
<polygon fill="white" stroke="black" points="183.5,-112.5 183.5,-131.5 229.5,-131.5 229.5,-112.5 183.5,-112.5"/>
<text text-anchor="middle" x="206.5" y="-119.5" font-family="Helvetica,sans-Serif" font-size="10.00">vec2.h</text>
</a>
</g>
</g>
<!-- Node1&#45;&gt;Node10 -->
<g id="edge21" class="edge">
<title>Node1&#45;&gt;Node10</title>
<path fill="none" stroke="midnightblue" d="M203.08,-282.19C181.95,-276.05 156.52,-264.67 143.5,-244 120.6,-207.66 161.77,-162.07 187.72,-138.59"/>
<polygon fill="midnightblue" stroke="midnightblue" points="190.29,-140.99 195.51,-131.78 185.68,-135.72 190.29,-140.99"/>
</g>
<!-- Node11 -->
<g id="node11" class="node">
<title>Node11</title>
<g id="a_node11"><a xlink:href="ray_8h.html" target="_top" xlink:title=" ">
<polygon fill="white" stroke="black" points="249.5,-224.5 249.5,-243.5 311.5,-243.5 311.5,-224.5 249.5,-224.5"/>
<text text-anchor="middle" x="280.5" y="-231.5" font-family="Helvetica,sans-Serif" font-size="10.00">math/ray.h</text>
</a>
</g>
</g>
<!-- Node1&#45;&gt;Node11 -->
<g id="edge14" class="edge">
<title>Node1&#45;&gt;Node11</title>
<path fill="none" stroke="midnightblue" d="M244.6,-280.08C250.74,-272.38 259.77,-261.03 267.24,-251.65"/>
<polygon fill="midnightblue" stroke="midnightblue" points="270.04,-253.75 273.53,-243.75 264.56,-249.39 270.04,-253.75"/>
</g>
<!-- Node12 -->
<g id="node12" class="node">
<title>Node12</title>
<g id="a_node12"><a xlink:href="rectangle_8h.html" target="_top" xlink:title=" ">
<polygon fill="white" stroke="black" points="330,-224.5 330,-243.5 419,-243.5 419,-224.5 330,-224.5"/>
<text text-anchor="middle" x="374.5" y="-231.5" font-family="Helvetica,sans-Serif" font-size="10.00">math/rectangle.h</text>
</a>
</g>
</g>
<!-- Node1&#45;&gt;Node12 -->
<g id="edge16" class="edge">
<title>Node1&#45;&gt;Node12</title>
<path fill="none" stroke="midnightblue" d="M259.21,-280.44C281.85,-271.52 317.57,-257.44 343.25,-247.32"/>
<polygon fill="midnightblue" stroke="midnightblue" points="344.87,-250.44 352.89,-243.52 342.31,-243.93 344.87,-250.44"/>
</g>
<!-- Node14 -->
<g id="node14" class="node">
<title>Node14</title>
<g id="a_node14"><a xlink:href="solve__equation_8h.html" target="_top" xlink:title=" ">
<polygon fill="white" stroke="black" points="339,-112.5 339,-131.5 454,-131.5 454,-112.5 339,-112.5"/>
<text text-anchor="middle" x="396.5" y="-119.5" font-family="Helvetica,sans-Serif" font-size="10.00">math/solve_equation.h</text>
</a>
</g>
</g>
<!-- Node1&#45;&gt;Node14 -->
<g id="edge19" class="edge">
<title>Node1&#45;&gt;Node14</title>
<path fill="none" stroke="midnightblue" d="M271.56,-285.92C320.89,-280.66 408.42,-268.13 427.5,-244 451.94,-213.1 426.07,-165.11 409,-139.86"/>
<polygon fill="midnightblue" stroke="midnightblue" points="411.84,-137.81 403.21,-131.65 406.12,-141.84 411.84,-137.81"/>
</g>
<!-- Node3 -->
<g id="node3" class="node">
<title>Node3</title>
<g id="a_node3"><a xlink:title=" ">
<polygon fill="white" stroke="#bfbfbf" points="180,-0.5 180,-19.5 239,-19.5 239,-0.5 180,-0.5"/>
<text text-anchor="middle" x="209.5" y="-7.5" font-family="Helvetica,sans-Serif" font-size="10.00">inttypes.h</text>
</a>
</g>
</g>
<!-- Node2&#45;&gt;Node3 -->
<g id="edge2" class="edge">
<title>Node2&#45;&gt;Node3</title>
<path fill="none" stroke="midnightblue" d="M79.9,-56.44C105.7,-47.4 146.58,-33.06 175.52,-22.92"/>
<polygon fill="midnightblue" stroke="midnightblue" points="176.93,-26.13 185.21,-19.52 174.62,-19.52 176.93,-26.13"/>
</g>
<!-- Node4 -->
<g id="node4" class="node">
<title>Node4</title>
<g id="a_node4"><a xlink:title=" ">
<polygon fill="white" stroke="#bfbfbf" points="33.5,-0.5 33.5,-19.5 77.5,-19.5 77.5,-0.5 33.5,-0.5"/>
<text text-anchor="middle" x="55.5" y="-7.5" font-family="Helvetica,sans-Serif" font-size="10.00">float.h</text>
</a>
</g>
</g>
<!-- Node2&#45;&gt;Node4 -->
<g id="edge3" class="edge">
<title>Node2&#45;&gt;Node4</title>
<path fill="none" stroke="midnightblue" d="M55.5,-56.08C55.5,-49.01 55.5,-38.86 55.5,-29.99"/>
<polygon fill="midnightblue" stroke="midnightblue" points="59,-29.75 55.5,-19.75 52,-29.75 59,-29.75"/>
</g>
<!-- Node6&#45;&gt;Node7 -->
<g id="edge6" class="edge">
<title>Node6&#45;&gt;Node7</title>
<path fill="none" stroke="midnightblue" d="M196.49,-224.08C197.29,-216.93 198.43,-206.64 199.42,-197.69"/>
<polygon fill="midnightblue" stroke="midnightblue" points="202.9,-198.08 200.53,-187.75 195.94,-197.3 202.9,-198.08"/>
</g>
<!-- Node8 -->
<g id="node8" class="node">
<title>Node8</title>
<g id="a_node8"><a xlink:title=" ">
<polygon fill="white" stroke="#bfbfbf" points="129.5,-56.5 129.5,-75.5 181.5,-75.5 181.5,-56.5 129.5,-56.5"/>
<text text-anchor="middle" x="155.5" y="-63.5" font-family="Helvetica,sans-Serif" font-size="10.00">assert.h</text>
</a>
</g>
</g>
<!-- Node7&#45;&gt;Node8 -->
<g id="edge7" class="edge">
<title>Node7&#45;&gt;Node8</title>
<path fill="none" stroke="midnightblue" d="M195.42,-168.4C189.43,-159.59 180.34,-145.36 174.5,-132 167.87,-116.85 162.79,-98.73 159.56,-85.48"/>
<polygon fill="midnightblue" stroke="midnightblue" points="162.95,-84.61 157.29,-75.66 156.13,-86.19 162.95,-84.61"/>
</g>
<!-- Node9 -->
<g id="node9" class="node">
<title>Node9</title>
<g id="a_node9"><a xlink:title=" ">
<polygon fill="white" stroke="#bfbfbf" points="238,-56.5 238,-75.5 285,-75.5 285,-56.5 238,-56.5"/>
<text text-anchor="middle" x="261.5" y="-63.5" font-family="Helvetica,sans-Serif" font-size="10.00">math.h</text>
</a>
</g>
</g>
<!-- Node7&#45;&gt;Node9 -->
<g id="edge8" class="edge">
<title>Node7&#45;&gt;Node9</title>
<path fill="none" stroke="midnightblue" d="M210.16,-168.38C218.39,-159.79 230.64,-145.91 238.5,-132 246.78,-117.34 252.9,-99.17 256.74,-85.78"/>
<polygon fill="midnightblue" stroke="midnightblue" points="260.2,-86.39 259.42,-75.82 253.44,-84.57 260.2,-86.39"/>
</g>
<!-- Node7&#45;&gt;Node10 -->
<g id="edge9" class="edge">
<title>Node7&#45;&gt;Node10</title>
<path fill="none" stroke="midnightblue" d="M202.33,-168.08C202.98,-161.01 203.92,-150.86 204.74,-141.99"/>
<polygon fill="midnightblue" stroke="midnightblue" points="208.25,-142.03 205.69,-131.75 201.28,-141.39 208.25,-142.03"/>
</g>
<!-- Node10&#45;&gt;Node2 -->
<g id="edge13" class="edge">
<title>Node10&#45;&gt;Node2</title>
<path fill="none" stroke="midnightblue" d="M183.24,-112.68C158,-103.66 117.5,-89.17 88.87,-78.93"/>
<polygon fill="midnightblue" stroke="midnightblue" points="89.88,-75.58 79.29,-75.51 87.53,-82.17 89.88,-75.58"/>
</g>
<!-- Node10&#45;&gt;Node3 -->
<g id="edge11" class="edge">
<title>Node10&#45;&gt;Node3</title>
<path fill="none" stroke="midnightblue" d="M206.74,-112.37C207.22,-94.62 208.34,-53.67 208.99,-29.6"/>
<polygon fill="midnightblue" stroke="midnightblue" points="212.49,-29.68 209.27,-19.59 205.49,-29.49 212.49,-29.68"/>
</g>
<!-- Node10&#45;&gt;Node8 -->
<g id="edge10" class="edge">
<title>Node10&#45;&gt;Node8</title>
<path fill="none" stroke="midnightblue" d="M198.08,-112.08C190.65,-104.22 179.65,-92.57 170.69,-83.08"/>
<polygon fill="midnightblue" stroke="midnightblue" points="173.18,-80.62 163.76,-75.75 168.09,-85.42 173.18,-80.62"/>
</g>
<!-- Node10&#45;&gt;Node9 -->
<g id="edge12" class="edge">
<title>Node10&#45;&gt;Node9</title>
<path fill="none" stroke="midnightblue" d="M215.58,-112.08C223.67,-104.14 235.7,-92.34 245.41,-82.8"/>
<polygon fill="midnightblue" stroke="midnightblue" points="247.9,-85.25 252.59,-75.75 243,-80.26 247.9,-85.25"/>
</g>
<!-- Node11&#45;&gt;Node7 -->
<g id="edge15" class="edge">
<title>Node11&#45;&gt;Node7</title>
<path fill="none" stroke="midnightblue" d="M267.81,-224.32C255.6,-215.98 236.92,-203.21 222.5,-193.35"/>
<polygon fill="midnightblue" stroke="midnightblue" points="224.39,-190.41 214.16,-187.65 220.44,-196.19 224.39,-190.41"/>
</g>
<!-- Node12&#45;&gt;Node10 -->
<g id="edge18" class="edge">
<title>Node12&#45;&gt;Node10</title>
<path fill="none" stroke="midnightblue" d="M361.32,-224.37C332.49,-205.49 263.6,-160.38 228.24,-137.24"/>
<polygon fill="midnightblue" stroke="midnightblue" points="229.9,-134.14 219.62,-131.59 226.07,-140 229.9,-134.14"/>
</g>
<!-- Node13 -->
<g id="node13" class="node">
<title>Node13</title>
<g id="a_node13"><a xlink:title=" ">
<polygon fill="white" stroke="#bfbfbf" points="352.5,-168.5 352.5,-187.5 396.5,-187.5 396.5,-168.5 352.5,-168.5"/>
<text text-anchor="middle" x="374.5" y="-175.5" font-family="Helvetica,sans-Serif" font-size="10.00">SDL.h</text>
</a>
</g>
</g>
<!-- Node12&#45;&gt;Node13 -->
<g id="edge17" class="edge">
<title>Node12&#45;&gt;Node13</title>
<path fill="none" stroke="midnightblue" d="M374.5,-224.08C374.5,-217.01 374.5,-206.86 374.5,-197.99"/>
<polygon fill="midnightblue" stroke="midnightblue" points="378,-197.75 374.5,-187.75 371,-197.75 378,-197.75"/>
</g>
<!-- Node14&#45;&gt;Node3 -->
<g id="edge20" class="edge">
<title>Node14&#45;&gt;Node3</title>
<path fill="none" stroke="midnightblue" d="M383.67,-112.49C364.37,-99.78 326.57,-75.26 293.5,-56 274.38,-44.86 252.31,-33.08 235.59,-24.37"/>
<polygon fill="midnightblue" stroke="midnightblue" points="236.92,-21.11 226.43,-19.62 233.7,-27.33 236.92,-21.11"/>
</g>
</g>
</svg>
