<?xml version="1.0" encoding="UTF-8" standalone="no"?>
<!DOCTYPE svg PUBLIC "-//W3C//DTD SVG 1.1//EN"
 "http://www.w3.org/Graphics/SVG/1.1/DTD/svg11.dtd">
<!-- Generated by graphviz version 2.50.0 (20211204.2007)
 -->
<!-- Title: sml_graphics_wrapper.h Pages: 1 -->
<svg width="1069pt" height="532pt"
 viewBox="0.00 0.00 1069.10 532.00" xmlns="http://www.w3.org/2000/svg" xmlns:xlink="http://www.w3.org/1999/xlink">
<g id="graph0" class="graph" transform="scale(1 1) rotate(0) translate(4 528)">
<title>sml_graphics_wrapper.h</title>
<polygon fill="white" stroke="transparent" points="-4,4 -4,-528 1065.1,-528 1065.1,4 -4,4"/>
<!-- Node1 -->
<g id="node1" class="node">
<title>Node1</title>
<g id="a_node1"><a xlink:title=" ">
<polygon fill="#bfbfbf" stroke="black" points="277.5,-504.5 277.5,-523.5 399.5,-523.5 399.5,-504.5 277.5,-504.5"/>
<text text-anchor="middle" x="338.5" y="-511.5" font-family="Helvetica,sans-Serif" font-size="10.00">sml_graphics_wrapper.h</text>
</a>
</g>
</g>
<!-- Node2 -->
<g id="node2" class="node">
<title>Node2</title>
<g id="a_node2"><a xlink:href="color_8h.html" target="_top" xlink:title=" ">
<polygon fill="white" stroke="black" points="312,-280.5 312,-299.5 437,-299.5 437,-280.5 312,-280.5"/>
<text text-anchor="middle" x="374.5" y="-287.5" font-family="Helvetica,sans-Serif" font-size="10.00">graphics_wrapper/color.h</text>
</a>
</g>
</g>
<!-- Node1&#45;&gt;Node2 -->
<g id="edge1" class="edge">
<title>Node1&#45;&gt;Node2</title>
<path fill="none" stroke="midnightblue" d="M327.79,-504.3C318.56,-496.07 305.91,-482.79 300.5,-468 280.35,-412.9 271.75,-387.14 300.5,-336 308.72,-321.38 323.83,-310.95 338.26,-303.85"/>
<polygon fill="midnightblue" stroke="midnightblue" points="339.9,-306.95 347.57,-299.64 337.02,-300.57 339.9,-306.95"/>
</g>
<!-- Node14 -->
<g id="node14" class="node">
<title>Node14</title>
<g id="a_node14"><a xlink:href="primitives_8h.html" target="_top" xlink:title=" ">
<polygon fill="white" stroke="black" points="316.5,-448.5 316.5,-467.5 462.5,-467.5 462.5,-448.5 316.5,-448.5"/>
<text text-anchor="middle" x="389.5" y="-455.5" font-family="Helvetica,sans-Serif" font-size="10.00">graphics_wrapper/primitives.h</text>
</a>
</g>
</g>
<!-- Node1&#45;&gt;Node14 -->
<g id="edge18" class="edge">
<title>Node1&#45;&gt;Node14</title>
<path fill="none" stroke="midnightblue" d="M346.92,-504.08C354.35,-496.22 365.35,-484.57 374.31,-475.08"/>
<polygon fill="midnightblue" stroke="midnightblue" points="376.91,-477.42 381.24,-467.75 371.82,-472.62 376.91,-477.42"/>
</g>
<!-- Node15 -->
<g id="node15" class="node">
<title>Node15</title>
<g id="a_node15"><a xlink:href="renderer_8h.html" target="_top" xlink:title=" ">
<polygon fill="white" stroke="black" points="384,-392.5 384,-411.5 443,-411.5 443,-392.5 384,-392.5"/>
<text text-anchor="middle" x="413.5" y="-399.5" font-family="Helvetica,sans-Serif" font-size="10.00">renderer.h</text>
</a>
</g>
</g>
<!-- Node1&#45;&gt;Node15 -->
<g id="edge48" class="edge">
<title>Node1&#45;&gt;Node15</title>
<path fill="none" stroke="midnightblue" d="M328.64,-504.18C315.45,-491.28 295.08,-466.77 307.5,-448 322.11,-425.93 349.96,-414.65 373.45,-408.9"/>
<polygon fill="midnightblue" stroke="midnightblue" points="374.51,-412.25 383.54,-406.7 373.02,-405.42 374.51,-412.25"/>
</g>
<!-- Node18 -->
<g id="node18" class="node">
<title>Node18</title>
<g id="a_node18"><a xlink:href="window_8h.html" target="_top" xlink:title=" ">
<polygon fill="white" stroke="black" points="166.5,-336.5 166.5,-355.5 222.5,-355.5 222.5,-336.5 166.5,-336.5"/>
<text text-anchor="middle" x="194.5" y="-343.5" font-family="Helvetica,sans-Serif" font-size="10.00">window.h</text>
</a>
</g>
</g>
<!-- Node1&#45;&gt;Node18 -->
<g id="edge53" class="edge">
<title>Node1&#45;&gt;Node18</title>
<path fill="none" stroke="midnightblue" d="M301.09,-504.47C279.59,-497.82 253.55,-486.5 236.5,-468 209.59,-438.8 199.78,-391.46 196.32,-365.5"/>
<polygon fill="midnightblue" stroke="midnightblue" points="199.79,-365.03 195.16,-355.5 192.83,-365.84 199.79,-365.03"/>
</g>
<!-- Node21 -->
<g id="node21" class="node">
<title>Node21</title>
<g id="a_node21"><a xlink:href="texture_8h.html" target="_top" xlink:title="Basic texture management.">
<polygon fill="white" stroke="black" points="516,-336.5 516,-355.5 571,-355.5 571,-336.5 516,-336.5"/>
<text text-anchor="middle" x="543.5" y="-343.5" font-family="Helvetica,sans-Serif" font-size="10.00">texture.h</text>
</a>
</g>
</g>
<!-- Node1&#45;&gt;Node21 -->
<g id="edge52" class="edge">
<title>Node1&#45;&gt;Node21</title>
<path fill="none" stroke="midnightblue" d="M399.7,-511.78C471.71,-508.9 584.89,-499.36 611.5,-468 640.31,-434.05 592.11,-386.08 563.06,-362.01"/>
<polygon fill="midnightblue" stroke="midnightblue" points="565.09,-359.15 555.11,-355.62 560.71,-364.61 565.09,-359.15"/>
</g>
<!-- Node27 -->
<g id="node27" class="node">
<title>Node27</title>
<g id="a_node27"><a xlink:href="text_8h.html" target="_top" xlink:title=" ">
<polygon fill="white" stroke="black" points="481,-448.5 481,-467.5 602,-467.5 602,-448.5 481,-448.5"/>
<text text-anchor="middle" x="541.5" y="-455.5" font-family="Helvetica,sans-Serif" font-size="10.00">graphics_wrapper/text.h</text>
</a>
</g>
</g>
<!-- Node1&#45;&gt;Node27 -->
<g id="edge49" class="edge">
<title>Node1&#45;&gt;Node27</title>
<path fill="none" stroke="midnightblue" d="M370.67,-504.44C405.56,-495.16 461.39,-480.31 499.67,-470.13"/>
<polygon fill="midnightblue" stroke="midnightblue" points="500.72,-473.47 509.48,-467.52 498.92,-466.7 500.72,-473.47"/>
</g>
<!-- Node3 -->
<g id="node3" class="node">
<title>Node3</title>
<g id="a_node3"><a xlink:title=" ">
<polygon fill="white" stroke="#bfbfbf" points="386,-224.5 386,-243.5 435,-243.5 435,-224.5 386,-224.5"/>
<text text-anchor="middle" x="410.5" y="-231.5" font-family="Helvetica,sans-Serif" font-size="10.00">stdint.h</text>
</a>
</g>
</g>
<!-- Node2&#45;&gt;Node3 -->
<g id="edge2" class="edge">
<title>Node2&#45;&gt;Node3</title>
<path fill="none" stroke="midnightblue" d="M380.44,-280.08C385.48,-272.53 392.84,-261.49 399.01,-252.23"/>
<polygon fill="midnightblue" stroke="midnightblue" points="402.03,-254.01 404.67,-243.75 396.21,-250.13 402.03,-254.01"/>
</g>
<!-- Node4 -->
<g id="node4" class="node">
<title>Node4</title>
<g id="a_node4"><a xlink:title=" ">
<polygon fill="white" stroke="#bfbfbf" points="388.5,-168.5 388.5,-187.5 432.5,-187.5 432.5,-168.5 388.5,-168.5"/>
<text text-anchor="middle" x="410.5" y="-175.5" font-family="Helvetica,sans-Serif" font-size="10.00">SDL.h</text>
</a>
</g>
</g>
<!-- Node2&#45;&gt;Node4 -->
<g id="edge3" class="edge">
<title>Node2&#45;&gt;Node4</title>
<path fill="none" stroke="midnightblue" d="M373.14,-280.28C371.5,-267.51 369.74,-243.17 376.5,-224 380.27,-213.31 387.58,-203.08 394.47,-195.09"/>
<polygon fill="midnightblue" stroke="midnightblue" points="397.12,-197.37 401.31,-187.64 391.97,-192.63 397.12,-197.37"/>
</g>
<!-- Node5 -->
<g id="node5" class="node">
<title>Node5</title>
<g id="a_node5"><a xlink:title=" ">
<polygon fill="white" stroke="#bfbfbf" points="273.5,-224.5 273.5,-243.5 329.5,-243.5 329.5,-224.5 273.5,-224.5"/>
<text text-anchor="middle" x="301.5" y="-231.5" font-family="Helvetica,sans-Serif" font-size="10.00">algorithm</text>
</a>
</g>
</g>
<!-- Node2&#45;&gt;Node5 -->
<g id="edge4" class="edge">
<title>Node2&#45;&gt;Node5</title>
<path fill="none" stroke="midnightblue" d="M362.77,-280.32C351.66,-272.11 334.76,-259.6 321.52,-249.81"/>
<polygon fill="midnightblue" stroke="midnightblue" points="323.56,-246.97 313.44,-243.83 319.4,-252.59 323.56,-246.97"/>
</g>
<!-- Node6 -->
<g id="node6" class="node">
<title>Node6</title>
<g id="a_node6"><a xlink:href="vec4_8h.html" target="_top" xlink:title=" ">
<polygon fill="white" stroke="black" points="645.5,-224.5 645.5,-243.5 725.5,-243.5 725.5,-224.5 645.5,-224.5"/>
<text text-anchor="middle" x="685.5" y="-231.5" font-family="Helvetica,sans-Serif" font-size="10.00">../math/vec4.h</text>
</a>
</g>
</g>
<!-- Node2&#45;&gt;Node6 -->
<g id="edge5" class="edge">
<title>Node2&#45;&gt;Node6</title>
<path fill="none" stroke="midnightblue" d="M423.78,-280.44C481.62,-270.4 577.03,-253.83 635.28,-243.72"/>
<polygon fill="midnightblue" stroke="midnightblue" points="636.1,-247.13 645.35,-241.97 634.9,-240.23 636.1,-247.13"/>
</g>
<!-- Node7 -->
<g id="node7" class="node">
<title>Node7</title>
<g id="a_node7"><a xlink:title=" ">
<polygon fill="white" stroke="#bfbfbf" points="648.5,-56.5 648.5,-75.5 700.5,-75.5 700.5,-56.5 648.5,-56.5"/>
<text text-anchor="middle" x="674.5" y="-63.5" font-family="Helvetica,sans-Serif" font-size="10.00">assert.h</text>
</a>
</g>
</g>
<!-- Node6&#45;&gt;Node7 -->
<g id="edge6" class="edge">
<title>Node6&#45;&gt;Node7</title>
<path fill="none" stroke="midnightblue" d="M684.91,-224.08C683.18,-197.95 678.09,-121.21 675.73,-85.58"/>
<polygon fill="midnightblue" stroke="midnightblue" points="679.22,-85.31 675.07,-75.57 672.24,-85.78 679.22,-85.31"/>
</g>
<!-- Node8 -->
<g id="node8" class="node">
<title>Node8</title>
<g id="a_node8"><a xlink:title=" ">
<polygon fill="white" stroke="#bfbfbf" points="745,-56.5 745,-75.5 792,-75.5 792,-56.5 745,-56.5"/>
<text text-anchor="middle" x="768.5" y="-63.5" font-family="Helvetica,sans-Serif" font-size="10.00">math.h</text>
</a>
</g>
</g>
<!-- Node6&#45;&gt;Node8 -->
<g id="edge7" class="edge">
<title>Node6&#45;&gt;Node8</title>
<path fill="none" stroke="midnightblue" d="M689.96,-224.08C703.14,-197.72 742.06,-119.88 759.67,-84.66"/>
<polygon fill="midnightblue" stroke="midnightblue" points="762.87,-86.08 764.22,-75.57 756.61,-82.95 762.87,-86.08"/>
</g>
<!-- Node9 -->
<g id="node9" class="node">
<title>Node9</title>
<g id="a_node9"><a xlink:href="vec3_8h.html" target="_top" xlink:title=" ">
<polygon fill="white" stroke="black" points="759.5,-168.5 759.5,-187.5 805.5,-187.5 805.5,-168.5 759.5,-168.5"/>
<text text-anchor="middle" x="782.5" y="-175.5" font-family="Helvetica,sans-Serif" font-size="10.00">vec3.h</text>
</a>
</g>
</g>
<!-- Node6&#45;&gt;Node9 -->
<g id="edge8" class="edge">
<title>Node6&#45;&gt;Node9</title>
<path fill="none" stroke="midnightblue" d="M701.08,-224.32C716.5,-215.74 740.31,-202.49 758.21,-192.52"/>
<polygon fill="midnightblue" stroke="midnightblue" points="759.92,-195.58 766.95,-187.65 756.51,-189.46 759.92,-195.58"/>
</g>
<!-- Node9&#45;&gt;Node7 -->
<g id="edge9" class="edge">
<title>Node9&#45;&gt;Node7</title>
<path fill="none" stroke="midnightblue" d="M774.03,-168.37C755.89,-149.89 713.08,-106.29 689.96,-82.74"/>
<polygon fill="midnightblue" stroke="midnightblue" points="692.44,-80.28 682.94,-75.59 687.44,-85.18 692.44,-80.28"/>
</g>
<!-- Node9&#45;&gt;Node8 -->
<g id="edge10" class="edge">
<title>Node9&#45;&gt;Node8</title>
<path fill="none" stroke="midnightblue" d="M781.4,-168.37C779.14,-150.62 773.93,-109.67 770.87,-85.6"/>
<polygon fill="midnightblue" stroke="midnightblue" points="774.33,-85.07 769.59,-75.59 767.38,-85.95 774.33,-85.07"/>
</g>
<!-- Node10 -->
<g id="node10" class="node">
<title>Node10</title>
<g id="a_node10"><a xlink:href="vec2_8h.html" target="_top" xlink:title=" ">
<polygon fill="white" stroke="black" points="797.5,-112.5 797.5,-131.5 843.5,-131.5 843.5,-112.5 797.5,-112.5"/>
<text text-anchor="middle" x="820.5" y="-119.5" font-family="Helvetica,sans-Serif" font-size="10.00">vec2.h</text>
</a>
</g>
</g>
<!-- Node9&#45;&gt;Node10 -->
<g id="edge11" class="edge">
<title>Node9&#45;&gt;Node10</title>
<path fill="none" stroke="midnightblue" d="M788.77,-168.08C794.14,-160.46 802.02,-149.26 808.58,-139.94"/>
<polygon fill="midnightblue" stroke="midnightblue" points="811.45,-141.94 814.34,-131.75 805.72,-137.91 811.45,-141.94"/>
</g>
<!-- Node10&#45;&gt;Node7 -->
<g id="edge12" class="edge">
<title>Node10&#45;&gt;Node7</title>
<path fill="none" stroke="midnightblue" d="M797.37,-112.44C773.02,-103.44 734.49,-89.19 707.08,-79.05"/>
<polygon fill="midnightblue" stroke="midnightblue" points="708.12,-75.7 697.53,-75.52 705.69,-82.27 708.12,-75.7"/>
</g>
<!-- Node10&#45;&gt;Node8 -->
<g id="edge14" class="edge">
<title>Node10&#45;&gt;Node8</title>
<path fill="none" stroke="midnightblue" d="M811.91,-112.08C804.34,-104.22 793.12,-92.57 783.99,-83.08"/>
<polygon fill="midnightblue" stroke="midnightblue" points="786.38,-80.53 776.93,-75.75 781.34,-85.38 786.38,-80.53"/>
</g>
<!-- Node11 -->
<g id="node11" class="node">
<title>Node11</title>
<g id="a_node11"><a xlink:title=" ">
<polygon fill="white" stroke="#bfbfbf" points="791,-0.5 791,-19.5 850,-19.5 850,-0.5 791,-0.5"/>
<text text-anchor="middle" x="820.5" y="-7.5" font-family="Helvetica,sans-Serif" font-size="10.00">inttypes.h</text>
</a>
</g>
</g>
<!-- Node10&#45;&gt;Node11 -->
<g id="edge13" class="edge">
<title>Node10&#45;&gt;Node11</title>
<path fill="none" stroke="midnightblue" d="M820.5,-112.37C820.5,-94.62 820.5,-53.67 820.5,-29.6"/>
<polygon fill="midnightblue" stroke="midnightblue" points="824,-29.59 820.5,-19.59 817,-29.59 824,-29.59"/>
</g>
<!-- Node12 -->
<g id="node12" class="node">
<title>Node12</title>
<g id="a_node12"><a xlink:href="float__compare_8h.html" target="_top" xlink:title=" ">
<polygon fill="white" stroke="black" points="848.5,-56.5 848.5,-75.5 934.5,-75.5 934.5,-56.5 848.5,-56.5"/>
<text text-anchor="middle" x="891.5" y="-63.5" font-family="Helvetica,sans-Serif" font-size="10.00">float_compare.h</text>
</a>
</g>
</g>
<!-- Node10&#45;&gt;Node12 -->
<g id="edge15" class="edge">
<title>Node10&#45;&gt;Node12</title>
<path fill="none" stroke="midnightblue" d="M831.91,-112.32C842.61,-104.18 858.84,-91.84 871.66,-82.09"/>
<polygon fill="midnightblue" stroke="midnightblue" points="874.04,-84.67 879.89,-75.83 869.81,-79.1 874.04,-84.67"/>
</g>
<!-- Node12&#45;&gt;Node11 -->
<g id="edge16" class="edge">
<title>Node12&#45;&gt;Node11</title>
<path fill="none" stroke="midnightblue" d="M880.09,-56.32C869.39,-48.18 853.16,-35.84 840.34,-26.09"/>
<polygon fill="midnightblue" stroke="midnightblue" points="842.19,-23.1 832.11,-19.83 837.96,-28.67 842.19,-23.1"/>
</g>
<!-- Node13 -->
<g id="node13" class="node">
<title>Node13</title>
<g id="a_node13"><a xlink:title=" ">
<polygon fill="white" stroke="#bfbfbf" points="869.5,-0.5 869.5,-19.5 913.5,-19.5 913.5,-0.5 869.5,-0.5"/>
<text text-anchor="middle" x="891.5" y="-7.5" font-family="Helvetica,sans-Serif" font-size="10.00">float.h</text>
</a>
</g>
</g>
<!-- Node12&#45;&gt;Node13 -->
<g id="edge17" class="edge">
<title>Node12&#45;&gt;Node13</title>
<path fill="none" stroke="midnightblue" d="M891.5,-56.08C891.5,-49.01 891.5,-38.86 891.5,-29.99"/>
<polygon fill="midnightblue" stroke="midnightblue" points="895,-29.75 891.5,-19.75 888,-29.75 895,-29.75"/>
</g>
<!-- Node14&#45;&gt;Node15 -->
<g id="edge19" class="edge">
<title>Node14&#45;&gt;Node15</title>
<path fill="none" stroke="midnightblue" d="M393.46,-448.08C396.71,-440.77 401.42,-430.18 405.45,-421.1"/>
<polygon fill="midnightblue" stroke="midnightblue" points="408.75,-422.31 409.61,-411.75 402.35,-419.47 408.75,-422.31"/>
</g>
<!-- Node15&#45;&gt;Node2 -->
<g id="edge46" class="edge">
<title>Node15&#45;&gt;Node2</title>
<path fill="none" stroke="midnightblue" d="M383.54,-397.3C358.5,-392.45 324.27,-381.34 307.5,-356 293.84,-335.36 320.32,-316.21 343.92,-304.12"/>
<polygon fill="midnightblue" stroke="midnightblue" points="345.58,-307.2 353.06,-299.69 342.53,-300.9 345.58,-307.2"/>
</g>
<!-- Node15&#45;&gt;Node3 -->
<g id="edge20" class="edge">
<title>Node15&#45;&gt;Node3</title>
<path fill="none" stroke="midnightblue" d="M430.7,-392.39C443.75,-384.79 460.73,-372.39 468.5,-356 472.31,-347.97 470.22,-344.72 468.5,-336 463.29,-309.6 458.99,-303.28 445.5,-280 439.68,-269.96 431.85,-259.67 425.07,-251.48"/>
<polygon fill="midnightblue" stroke="midnightblue" points="427.66,-249.13 418.51,-243.79 422.34,-253.67 427.66,-249.13"/>
</g>
<!-- Node16 -->
<g id="node16" class="node">
<title>Node16</title>
<g id="a_node16"><a xlink:title=" ">
<polygon fill="white" stroke="#bfbfbf" points="317,-336.5 317,-355.5 400,-355.5 400,-336.5 317,-336.5"/>
<text text-anchor="middle" x="358.5" y="-343.5" font-family="Helvetica,sans-Serif" font-size="10.00">unordered_map</text>
</a>
</g>
</g>
<!-- Node15&#45;&gt;Node16 -->
<g id="edge21" class="edge">
<title>Node15&#45;&gt;Node16</title>
<path fill="none" stroke="midnightblue" d="M404.42,-392.08C396.33,-384.14 384.3,-372.34 374.59,-362.8"/>
<polygon fill="midnightblue" stroke="midnightblue" points="377,-360.26 367.41,-355.75 372.1,-365.25 377,-360.26"/>
</g>
<!-- Node17 -->
<g id="node17" class="node">
<title>Node17</title>
<g id="a_node17"><a xlink:title=" ">
<polygon fill="white" stroke="#bfbfbf" points="418,-336.5 418,-355.5 459,-355.5 459,-336.5 418,-336.5"/>
<text text-anchor="middle" x="438.5" y="-343.5" font-family="Helvetica,sans-Serif" font-size="10.00">stack</text>
</a>
</g>
</g>
<!-- Node15&#45;&gt;Node17 -->
<g id="edge22" class="edge">
<title>Node15&#45;&gt;Node17</title>
<path fill="none" stroke="midnightblue" d="M417.63,-392.08C421.01,-384.77 425.92,-374.18 430.12,-365.1"/>
<polygon fill="midnightblue" stroke="midnightblue" points="433.42,-366.3 434.45,-355.75 427.07,-363.36 433.42,-366.3"/>
</g>
<!-- Node15&#45;&gt;Node18 -->
<g id="edge23" class="edge">
<title>Node15&#45;&gt;Node18</title>
<path fill="none" stroke="midnightblue" d="M383.96,-393.72C344.73,-384.04 275.37,-366.94 232.34,-356.33"/>
<polygon fill="midnightblue" stroke="midnightblue" points="233.08,-352.91 222.53,-353.91 231.4,-359.7 233.08,-352.91"/>
</g>
<!-- Node15&#45;&gt;Node21 -->
<g id="edge31" class="edge">
<title>Node15&#45;&gt;Node21</title>
<path fill="none" stroke="midnightblue" d="M434.1,-392.44C455.49,-383.56 489.18,-369.56 513.52,-359.45"/>
<polygon fill="midnightblue" stroke="midnightblue" points="515.11,-362.58 523,-355.52 512.42,-356.12 515.11,-362.58"/>
</g>
<!-- Node22 -->
<g id="node22" class="node">
<title>Node22</title>
<g id="a_node22"><a xlink:href="sml__math_8h.html" target="_top" xlink:title=" ">
<polygon fill="white" stroke="black" points="783,-280.5 783,-299.5 860,-299.5 860,-280.5 783,-280.5"/>
<text text-anchor="middle" x="821.5" y="-287.5" font-family="Helvetica,sans-Serif" font-size="10.00">../sml_math.h</text>
</a>
</g>
</g>
<!-- Node15&#45;&gt;Node22 -->
<g id="edge47" class="edge">
<title>Node15&#45;&gt;Node22</title>
<path fill="none" stroke="midnightblue" d="M443.06,-393.04C476.44,-384.04 532.37,-368.97 580.5,-356 650.62,-337.1 732.21,-315.09 780.2,-302.14"/>
<polygon fill="midnightblue" stroke="midnightblue" points="781.18,-305.5 789.92,-299.52 779.35,-298.75 781.18,-305.5"/>
</g>
<!-- Node18&#45;&gt;Node2 -->
<g id="edge27" class="edge">
<title>Node18&#45;&gt;Node2</title>
<path fill="none" stroke="midnightblue" d="M222.62,-336.56C253.22,-327.38 302.31,-312.66 336.37,-302.44"/>
<polygon fill="midnightblue" stroke="midnightblue" points="337.41,-305.78 345.98,-299.56 335.39,-299.08 337.41,-305.78"/>
</g>
<!-- Node18&#45;&gt;Node4 -->
<g id="edge26" class="edge">
<title>Node18&#45;&gt;Node4</title>
<path fill="none" stroke="midnightblue" d="M201.29,-336.31C208.08,-327.44 218.6,-313.15 226.5,-300 245.95,-267.63 235.69,-248.42 264.5,-224 296.95,-196.5 346.04,-185.79 378.19,-181.63"/>
<polygon fill="midnightblue" stroke="midnightblue" points="378.86,-185.08 388.39,-180.46 378.06,-178.13 378.86,-185.08"/>
</g>
<!-- Node18&#45;&gt;Node7 -->
<g id="edge24" class="edge">
<title>Node18&#45;&gt;Node7</title>
<path fill="none" stroke="midnightblue" d="M186.93,-336.26C179.75,-327.58 169.11,-313.63 162.5,-300 149.37,-272.92 143.5,-265.1 143.5,-235 143.5,-235 143.5,-235 143.5,-177 143.5,-126.39 518.07,-83.2 638.02,-70.66"/>
<polygon fill="midnightblue" stroke="midnightblue" points="638.58,-74.13 648.17,-69.61 637.86,-67.16 638.58,-74.13"/>
</g>
<!-- Node19 -->
<g id="node19" class="node">
<title>Node19</title>
<g id="a_node19"><a xlink:title=" ">
<polygon fill="white" stroke="#bfbfbf" points="171.5,-280.5 171.5,-299.5 217.5,-299.5 217.5,-280.5 171.5,-280.5"/>
<text text-anchor="middle" x="194.5" y="-287.5" font-family="Helvetica,sans-Serif" font-size="10.00">stdio.h</text>
</a>
</g>
</g>
<!-- Node18&#45;&gt;Node19 -->
<g id="edge25" class="edge">
<title>Node18&#45;&gt;Node19</title>
<path fill="none" stroke="midnightblue" d="M194.5,-336.08C194.5,-329.01 194.5,-318.86 194.5,-309.99"/>
<polygon fill="midnightblue" stroke="midnightblue" points="198,-309.75 194.5,-299.75 191,-309.75 198,-309.75"/>
</g>
<!-- Node20 -->
<g id="node20" class="node">
<title>Node20</title>
<g id="a_node20"><a xlink:href="rectangle_8h.html" target="_top" xlink:title=" ">
<polygon fill="white" stroke="black" points="491.5,-224.5 491.5,-243.5 589.5,-243.5 589.5,-224.5 491.5,-224.5"/>
<text text-anchor="middle" x="540.5" y="-231.5" font-family="Helvetica,sans-Serif" font-size="10.00">../math/rectangle.h</text>
</a>
</g>
</g>
<!-- Node18&#45;&gt;Node20 -->
<g id="edge28" class="edge">
<title>Node18&#45;&gt;Node20</title>
<path fill="none" stroke="midnightblue" d="M205.78,-336.33C224.69,-322.24 264.47,-294.5 302.5,-280 361.01,-257.69 431.98,-246.11 481.11,-240.32"/>
<polygon fill="midnightblue" stroke="midnightblue" points="481.71,-243.78 491.26,-239.17 480.93,-236.82 481.71,-243.78"/>
</g>
<!-- Node20&#45;&gt;Node4 -->
<g id="edge29" class="edge">
<title>Node20&#45;&gt;Node4</title>
<path fill="none" stroke="midnightblue" d="M519.9,-224.44C498.51,-215.56 464.82,-201.56 440.48,-191.45"/>
<polygon fill="midnightblue" stroke="midnightblue" points="441.58,-188.12 431,-187.52 438.89,-194.58 441.58,-188.12"/>
</g>
<!-- Node20&#45;&gt;Node10 -->
<g id="edge30" class="edge">
<title>Node20&#45;&gt;Node10</title>
<path fill="none" stroke="midnightblue" d="M562.47,-224.37C611.85,-204.97 731.74,-157.87 789.02,-135.37"/>
<polygon fill="midnightblue" stroke="midnightblue" points="790.6,-138.51 798.63,-131.59 788.04,-131.99 790.6,-138.51"/>
</g>
<!-- Node21&#45;&gt;Node2 -->
<g id="edge33" class="edge">
<title>Node21&#45;&gt;Node2</title>
<path fill="none" stroke="midnightblue" d="M516.72,-336.44C488.17,-327.32 442.77,-312.81 410.96,-302.65"/>
<polygon fill="midnightblue" stroke="midnightblue" points="411.74,-299.23 401.15,-299.52 409.61,-305.89 411.74,-299.23"/>
</g>
<!-- Node21&#45;&gt;Node4 -->
<g id="edge32" class="edge">
<title>Node21&#45;&gt;Node4</title>
<path fill="none" stroke="midnightblue" d="M536.35,-336.08C515.05,-309.49 451.79,-230.54 423.93,-195.76"/>
<polygon fill="midnightblue" stroke="midnightblue" points="426.35,-193.18 417.36,-187.57 420.89,-197.56 426.35,-193.18"/>
</g>
<!-- Node21&#45;&gt;Node22 -->
<g id="edge34" class="edge">
<title>Node21&#45;&gt;Node22</title>
<path fill="none" stroke="midnightblue" d="M571.17,-339.62C618.2,-330.49 714.3,-311.82 772.79,-300.46"/>
<polygon fill="midnightblue" stroke="midnightblue" points="773.76,-303.84 782.9,-298.5 772.42,-296.97 773.76,-303.84"/>
</g>
<!-- Node22&#45;&gt;Node9 -->
<g id="edge45" class="edge">
<title>Node22&#45;&gt;Node9</title>
<path fill="none" stroke="midnightblue" d="M860.15,-288.55C927.44,-286.44 1055.08,-275.72 1012.5,-224 987.97,-194.21 873.51,-183.86 815.86,-180.5"/>
<polygon fill="midnightblue" stroke="midnightblue" points="815.97,-177 805.79,-179.95 815.59,-183.99 815.97,-177"/>
</g>
<!-- Node22&#45;&gt;Node10 -->
<g id="edge44" class="edge">
<title>Node22&#45;&gt;Node10</title>
<path fill="none" stroke="midnightblue" d="M860.27,-286.33C914.71,-281.68 1009.51,-269.99 1030.5,-244 1083.42,-178.48 925.21,-141.45 853.67,-128.41"/>
<polygon fill="midnightblue" stroke="midnightblue" points="854.24,-124.95 843.78,-126.66 853.02,-131.85 854.24,-124.95"/>
</g>
<!-- Node22&#45;&gt;Node12 -->
<g id="edge35" class="edge">
<title>Node22&#45;&gt;Node12</title>
<path fill="none" stroke="midnightblue" d="M860.18,-287.07C918.62,-283.26 1025.11,-272.49 1048.5,-244 1100.36,-180.85 976.82,-108.97 919.16,-80.05"/>
<polygon fill="midnightblue" stroke="midnightblue" points="920.71,-76.91 910.19,-75.63 917.61,-83.19 920.71,-76.91"/>
</g>
<!-- Node22&#45;&gt;Node20 -->
<g id="edge41" class="edge">
<title>Node22&#45;&gt;Node20</title>
<path fill="none" stroke="midnightblue" d="M782.72,-281.55C733.97,-272.18 649.98,-256.04 594.84,-245.44"/>
<polygon fill="midnightblue" stroke="midnightblue" points="595.38,-241.98 584.89,-243.53 594.05,-248.86 595.38,-241.98"/>
</g>
<!-- Node23 -->
<g id="node23" class="node">
<title>Node23</title>
<g id="a_node23"><a xlink:href="geometry_8h.html" target="_top" xlink:title=" ">
<polygon fill="white" stroke="black" points="914,-224.5 914,-243.5 1003,-243.5 1003,-224.5 914,-224.5"/>
<text text-anchor="middle" x="958.5" y="-231.5" font-family="Helvetica,sans-Serif" font-size="10.00">math/geometry.h</text>
</a>
</g>
</g>
<!-- Node22&#45;&gt;Node23 -->
<g id="edge36" class="edge">
<title>Node22&#45;&gt;Node23</title>
<path fill="none" stroke="midnightblue" d="M843.21,-280.44C865.85,-271.52 901.57,-257.44 927.25,-247.32"/>
<polygon fill="midnightblue" stroke="midnightblue" points="928.87,-250.44 936.89,-243.52 926.31,-243.93 928.87,-250.44"/>
</g>
<!-- Node24 -->
<g id="node24" class="node">
<title>Node24</title>
<g id="a_node24"><a xlink:href="mat4_8h.html" target="_top" xlink:title=" ">
<polygon fill="white" stroke="black" points="744,-224.5 744,-243.5 815,-243.5 815,-224.5 744,-224.5"/>
<text text-anchor="middle" x="779.5" y="-231.5" font-family="Helvetica,sans-Serif" font-size="10.00">math/mat4.h</text>
</a>
</g>
</g>
<!-- Node22&#45;&gt;Node24 -->
<g id="edge37" class="edge">
<title>Node22&#45;&gt;Node24</title>
<path fill="none" stroke="midnightblue" d="M814.56,-280.08C808.57,-272.38 799.75,-261.03 792.45,-251.65"/>
<polygon fill="midnightblue" stroke="midnightblue" points="795.21,-249.5 786.31,-243.75 789.68,-253.79 795.21,-249.5"/>
</g>
<!-- Node25 -->
<g id="node25" class="node">
<title>Node25</title>
<g id="a_node25"><a xlink:href="ray_8h.html" target="_top" xlink:title=" ">
<polygon fill="white" stroke="black" points="833.5,-224.5 833.5,-243.5 895.5,-243.5 895.5,-224.5 833.5,-224.5"/>
<text text-anchor="middle" x="864.5" y="-231.5" font-family="Helvetica,sans-Serif" font-size="10.00">math/ray.h</text>
</a>
</g>
</g>
<!-- Node22&#45;&gt;Node25 -->
<g id="edge39" class="edge">
<title>Node22&#45;&gt;Node25</title>
<path fill="none" stroke="midnightblue" d="M828.6,-280.08C834.74,-272.38 843.77,-261.03 851.24,-251.65"/>
<polygon fill="midnightblue" stroke="midnightblue" points="854.04,-253.75 857.53,-243.75 848.56,-249.39 854.04,-253.75"/>
</g>
<!-- Node26 -->
<g id="node26" class="node">
<title>Node26</title>
<g id="a_node26"><a xlink:href="solve__equation_8h.html" target="_top" xlink:title=" ">
<polygon fill="white" stroke="black" points="0,-112.5 0,-131.5 115,-131.5 115,-112.5 0,-112.5"/>
<text text-anchor="middle" x="57.5" y="-119.5" font-family="Helvetica,sans-Serif" font-size="10.00">math/solve_equation.h</text>
</a>
</g>
</g>
<!-- Node22&#45;&gt;Node26 -->
<g id="edge42" class="edge">
<title>Node22&#45;&gt;Node26</title>
<path fill="none" stroke="midnightblue" d="M782.76,-282.45C744.74,-275.37 685.5,-262.53 636.5,-244 618.65,-237.25 615.98,-231.67 598.5,-224 530.66,-194.23 513.64,-184.86 441.5,-168 332.5,-142.52 202.56,-131.14 125.22,-126.3"/>
<polygon fill="midnightblue" stroke="midnightblue" points="125.32,-122.8 115.12,-125.69 124.89,-129.79 125.32,-122.8"/>
</g>
<!-- Node24&#45;&gt;Node9 -->
<g id="edge38" class="edge">
<title>Node24&#45;&gt;Node9</title>
<path fill="none" stroke="midnightblue" d="M780,-224.08C780.39,-217.01 780.95,-206.86 781.45,-197.99"/>
<polygon fill="midnightblue" stroke="midnightblue" points="784.95,-197.93 782.01,-187.75 777.96,-197.54 784.95,-197.93"/>
</g>
<!-- Node25&#45;&gt;Node9 -->
<g id="edge40" class="edge">
<title>Node25&#45;&gt;Node9</title>
<path fill="none" stroke="midnightblue" d="M851.33,-224.32C838.65,-215.98 819.27,-203.21 804.29,-193.35"/>
<polygon fill="midnightblue" stroke="midnightblue" points="805.92,-190.23 795.64,-187.65 802.07,-196.08 805.92,-190.23"/>
</g>
<!-- Node26&#45;&gt;Node11 -->
<g id="edge43" class="edge">
<title>Node26&#45;&gt;Node11</title>
<path fill="none" stroke="midnightblue" d="M115.16,-112.69C263.4,-91.32 654.96,-34.87 780.89,-16.71"/>
<polygon fill="midnightblue" stroke="midnightblue" points="781.47,-20.16 790.87,-15.27 780.47,-13.23 781.47,-20.16"/>
</g>
<!-- Node27&#45;&gt;Node15 -->
<g id="edge51" class="edge">
<title>Node27&#45;&gt;Node15</title>
<path fill="none" stroke="midnightblue" d="M521.22,-448.44C500.15,-439.56 466.98,-425.56 443.01,-415.45"/>
<polygon fill="midnightblue" stroke="midnightblue" points="444.26,-412.18 433.69,-411.52 441.54,-418.63 444.26,-412.18"/>
</g>
<!-- Node28 -->
<g id="node28" class="node">
<title>Node28</title>
<g id="a_node28"><a xlink:title=" ">
<polygon fill="white" stroke="#bfbfbf" points="512,-392.5 512,-411.5 571,-411.5 571,-392.5 512,-392.5"/>
<text text-anchor="middle" x="541.5" y="-399.5" font-family="Helvetica,sans-Serif" font-size="10.00">SDL_ttf.h</text>
</a>
</g>
</g>
<!-- Node27&#45;&gt;Node28 -->
<g id="edge50" class="edge">
<title>Node27&#45;&gt;Node28</title>
<path fill="none" stroke="midnightblue" d="M541.5,-448.08C541.5,-441.01 541.5,-430.86 541.5,-421.99"/>
<polygon fill="midnightblue" stroke="midnightblue" points="545,-421.75 541.5,-411.75 538,-421.75 545,-421.75"/>
</g>
</g>
</svg>
