<?xml version="1.0" encoding="UTF-8" standalone="no"?>
<!DOCTYPE svg PUBLIC "-//W3C//DTD SVG 1.1//EN"
 "http://www.w3.org/Graphics/SVG/1.1/DTD/svg11.dtd">
<!-- Generated by graphviz version 2.50.0 (20211204.2007)
 -->
<!-- Title: sml_utils.h Pages: 1 -->
<!--zoomable 644 -->
<svg id="main" version="1.1" xmlns="http://www.w3.org/2000/svg" xmlns:xlink="http://www.w3.org/1999/xlink" xml:space="preserve" onload="init(evt)">
<style type="text/css"><![CDATA[
.edge:hover path { stroke: red; }
.edge:hover polygon { stroke: red; fill: red; }
]]></style>
<script type="text/javascript"><![CDATA[
var edges = document.getElementsByTagName('g');
if (edges && edges.length) {
  for (var i=0;i<edges.length;i++) {
    if (edges[i].id.substr(0,4)=='edge') {
      edges[i].setAttribute('class','edge');
    }
  }
}
]]></script>
        <defs>
                <circle id="rim" cx="0" cy="0" r="7"/>
                <circle id="rim2" cx="0" cy="0" r="3.5"/>
                <g id="zoomPlus">
                        <use xlink:href="#rim" fill="#404040">
                                <set attributeName="fill" to="#808080" begin="zoomplus.mouseover" end="zoomplus.mouseout"/>
                        </use>
                        <path d="M-4,0h8M0,-4v8" fill="none" stroke="white" stroke-width="1.5" pointer-events="none"/>
                </g>
                <g id="zoomMin">
                        <use xlink:href="#rim" fill="#404040">
                                <set attributeName="fill" to="#808080" begin="zoomminus.mouseover" end="zoomminus.mouseout"/>
                        </use>
                        <path d="M-4,0h8" fill="none" stroke="white" stroke-width="1.5" pointer-events="none"/>
                </g>
                <g id="dirArrow">
                        <path fill="none" stroke="white" stroke-width="1.5" d="M0,-3.0v7 M-2.5,-0.5L0,-3.0L2.5,-0.5"/>
                </g>
               <g id="resetDef">
                       <use xlink:href="#rim2" fill="#404040">
                               <set attributeName="fill" to="#808080" begin="reset.mouseover" end="reset.mouseout"/>
                       </use>
               </g>
        </defs>

<script type="text/javascript">
var viewWidth = 1028;
var viewHeight = 644;
var sectionId = 'dynsection-0';
</script>
<script xlink:href="svgpan.js"/>
<svg id="graph" class="graph">
<g id="viewport">
<title>sml_utils.h</title>
<polygon fill="white" stroke="transparent" points="-4,4 -4,-640 1023.5,-640 1023.5,4 -4,4"/>
<!-- Node1 -->
<g id="node1" class="node">
<title>Node1</title>
<g id="a_node1"><a xlink:title=" ">
<polygon fill="#bfbfbf" stroke="black" points="140.5,-616.5 140.5,-635.5 204.5,-635.5 204.5,-616.5 140.5,-616.5"/>
<text text-anchor="middle" x="172.5" y="-623.5" font-family="Helvetica,sans-Serif" font-size="10.00">sml_utils.h</text>
</a>
</g>
</g>
<!-- Node2 -->
<g id="node2" class="node">
<title>Node2</title>
<g id="a_node2"><a xlink:href="bit_8h.html" target="_top" xlink:title=" ">
<polygon fill="white" stroke="black" points="25.5,-560.5 25.5,-579.5 81.5,-579.5 81.5,-560.5 25.5,-560.5"/>
<text text-anchor="middle" x="53.5" y="-567.5" font-family="Helvetica,sans-Serif" font-size="10.00">utils/bit.h</text>
</a>
</g>
</g>
<!-- Node1&#45;&gt;Node2 -->
<g id="edge1" class="edge">
<title>Node1&#45;&gt;Node2</title>
<path fill="none" stroke="midnightblue" d="M153.64,-616.44C134.23,-607.64 103.77,-593.81 81.54,-583.72"/>
<polygon fill="midnightblue" stroke="midnightblue" points="82.82,-580.46 72.27,-579.52 79.93,-586.84 82.82,-580.46"/>
</g>
<!-- Node3 -->
<g id="node3" class="node">
<title>Node3</title>
<g id="a_node3"><a xlink:href="id_8h.html" target="_top" xlink:title=" ">
<polygon fill="white" stroke="black" points="0,-280.5 0,-299.5 53,-299.5 53,-280.5 0,-280.5"/>
<text text-anchor="middle" x="26.5" y="-287.5" font-family="Helvetica,sans-Serif" font-size="10.00">utils/id.h</text>
</a>
</g>
</g>
<!-- Node1&#45;&gt;Node3 -->
<g id="edge2" class="edge">
<title>Node1&#45;&gt;Node3</title>
<path fill="none" stroke="midnightblue" d="M163.2,-616.28C145.68,-598.85 109.5,-557.69 109.5,-515 109.5,-515 109.5,-515 109.5,-401 109.5,-359.91 72.14,-324.44 47.55,-305.55"/>
<polygon fill="midnightblue" stroke="midnightblue" points="49.59,-302.7 39.47,-299.57 45.43,-308.33 49.59,-302.7"/>
</g>
<!-- Node6 -->
<g id="node6" class="node">
<title>Node6</title>
<g id="a_node6"><a xlink:href="random_8h.html" target="_top" xlink:title=" ">
<polygon fill="white" stroke="black" points="683.5,-504.5 683.5,-523.5 761.5,-523.5 761.5,-504.5 683.5,-504.5"/>
<text text-anchor="middle" x="722.5" y="-511.5" font-family="Helvetica,sans-Serif" font-size="10.00">utils/random.h</text>
</a>
</g>
</g>
<!-- Node1&#45;&gt;Node6 -->
<g id="edge5" class="edge">
<title>Node1&#45;&gt;Node6</title>
<path fill="none" stroke="midnightblue" d="M204.85,-618.53C297.3,-600.04 563.04,-546.89 673.47,-524.81"/>
<polygon fill="midnightblue" stroke="midnightblue" points="674.22,-528.22 683.34,-522.83 672.85,-521.36 674.22,-528.22"/>
</g>
<!-- Node8 -->
<g id="node8" class="node">
<title>Node8</title>
<g id="a_node8"><a xlink:href="viewport_8h.html" target="_top" xlink:title=" ">
<polygon fill="white" stroke="black" points="194,-560.5 194,-579.5 277,-579.5 277,-560.5 194,-560.5"/>
<text text-anchor="middle" x="235.5" y="-567.5" font-family="Helvetica,sans-Serif" font-size="10.00">utils/viewport.h</text>
</a>
</g>
</g>
<!-- Node1&#45;&gt;Node8 -->
<g id="edge7" class="edge">
<title>Node1&#45;&gt;Node8</title>
<path fill="none" stroke="midnightblue" d="M182.62,-616.32C192.03,-608.26 206.24,-596.08 217.57,-586.37"/>
<polygon fill="midnightblue" stroke="midnightblue" points="219.88,-589 225.19,-579.83 215.32,-583.68 219.88,-589"/>
</g>
<!-- Node4 -->
<g id="node4" class="node">
<title>Node4</title>
<g id="a_node4"><a xlink:title=" ">
<polygon fill="white" stroke="#bfbfbf" points="421.5,-56.5 421.5,-75.5 473.5,-75.5 473.5,-56.5 421.5,-56.5"/>
<text text-anchor="middle" x="447.5" y="-63.5" font-family="Helvetica,sans-Serif" font-size="10.00">assert.h</text>
</a>
</g>
</g>
<!-- Node3&#45;&gt;Node4 -->
<g id="edge3" class="edge">
<title>Node3&#45;&gt;Node4</title>
<path fill="none" stroke="midnightblue" d="M25.43,-280.32C22.4,-251.34 16.99,-157.25 67.5,-112 92.87,-89.27 321.56,-74.07 411.45,-68.93"/>
<polygon fill="midnightblue" stroke="midnightblue" points="411.67,-72.43 421.46,-68.37 411.27,-65.44 411.67,-72.43"/>
</g>
<!-- Node5 -->
<g id="node5" class="node">
<title>Node5</title>
<g id="a_node5"><a xlink:title=" ">
<polygon fill="white" stroke="#bfbfbf" points="148,-224.5 148,-243.5 197,-243.5 197,-224.5 148,-224.5"/>
<text text-anchor="middle" x="172.5" y="-231.5" font-family="Helvetica,sans-Serif" font-size="10.00">stdint.h</text>
</a>
</g>
</g>
<!-- Node3&#45;&gt;Node5 -->
<g id="edge4" class="edge">
<title>Node3&#45;&gt;Node5</title>
<path fill="none" stroke="midnightblue" d="M49.63,-280.44C73.98,-271.44 112.51,-257.19 139.92,-247.05"/>
<polygon fill="midnightblue" stroke="midnightblue" points="141.31,-250.27 149.47,-243.52 138.88,-243.7 141.31,-250.27"/>
</g>
<!-- Node7 -->
<g id="node7" class="node">
<title>Node7</title>
<g id="a_node7"><a xlink:title=" ">
<polygon fill="white" stroke="#bfbfbf" points="667,-56.5 667,-75.5 714,-75.5 714,-56.5 667,-56.5"/>
<text text-anchor="middle" x="690.5" y="-63.5" font-family="Helvetica,sans-Serif" font-size="10.00">math.h</text>
</a>
</g>
</g>
<!-- Node6&#45;&gt;Node7 -->
<g id="edge6" class="edge">
<title>Node6&#45;&gt;Node7</title>
<path fill="none" stroke="midnightblue" d="M761.63,-506.95C842.28,-493.38 1019.5,-457.37 1019.5,-403 1019.5,-403 1019.5,-403 1019.5,-289 1019.5,-217.3 802.1,-115.47 720.74,-79.88"/>
<polygon fill="midnightblue" stroke="midnightblue" points="721.65,-76.45 711.08,-75.68 718.86,-82.88 721.65,-76.45"/>
</g>
<!-- Node9 -->
<g id="node9" class="node">
<title>Node9</title>
<g id="a_node9"><a xlink:href="sml__graphics__wrapper_8h.html" target="_top" xlink:title=" ">
<polygon fill="white" stroke="black" points="232,-504.5 232,-523.5 363,-523.5 363,-504.5 232,-504.5"/>
<text text-anchor="middle" x="297.5" y="-511.5" font-family="Helvetica,sans-Serif" font-size="10.00">../sml_graphics_wrapper.h</text>
</a>
</g>
</g>
<!-- Node8&#45;&gt;Node9 -->
<g id="edge8" class="edge">
<title>Node8&#45;&gt;Node9</title>
<path fill="none" stroke="midnightblue" d="M245.46,-560.32C254.63,-552.34 268.44,-540.31 279.53,-530.65"/>
<polygon fill="midnightblue" stroke="midnightblue" points="282.12,-533.04 287.36,-523.83 277.52,-527.76 282.12,-533.04"/>
</g>
<!-- Node10 -->
<g id="node10" class="node">
<title>Node10</title>
<g id="a_node10"><a xlink:href="color_8h.html" target="_top" xlink:title=" ">
<polygon fill="white" stroke="black" points="326,-280.5 326,-299.5 451,-299.5 451,-280.5 326,-280.5"/>
<text text-anchor="middle" x="388.5" y="-287.5" font-family="Helvetica,sans-Serif" font-size="10.00">graphics_wrapper/color.h</text>
</a>
</g>
</g>
<!-- Node9&#45;&gt;Node10 -->
<g id="edge9" class="edge">
<title>Node9&#45;&gt;Node10</title>
<path fill="none" stroke="midnightblue" d="M363.23,-510.91C431.67,-507.18 532.26,-496.81 556.5,-468 584.59,-434.6 631.11,-449.3 518.5,-336 501.93,-319.33 478.88,-308.82 456.79,-302.21"/>
<polygon fill="midnightblue" stroke="midnightblue" points="457.64,-298.81 447.06,-299.52 455.77,-305.56 457.64,-298.81"/>
</g>
<!-- Node19 -->
<g id="node19" class="node">
<title>Node19</title>
<g id="a_node19"><a xlink:href="primitives_8h.html" target="_top" xlink:title=" ">
<polygon fill="white" stroke="black" points="224.5,-448.5 224.5,-467.5 370.5,-467.5 370.5,-448.5 224.5,-448.5"/>
<text text-anchor="middle" x="297.5" y="-455.5" font-family="Helvetica,sans-Serif" font-size="10.00">graphics_wrapper/primitives.h</text>
</a>
</g>
</g>
<!-- Node9&#45;&gt;Node19 -->
<g id="edge26" class="edge">
<title>Node9&#45;&gt;Node19</title>
<path fill="none" stroke="midnightblue" d="M297.5,-504.08C297.5,-497.01 297.5,-486.86 297.5,-477.99"/>
<polygon fill="midnightblue" stroke="midnightblue" points="301,-477.75 297.5,-467.75 294,-477.75 301,-477.75"/>
</g>
<!-- Node20 -->
<g id="node20" class="node">
<title>Node20</title>
<g id="a_node20"><a xlink:href="renderer_8h.html" target="_top" xlink:title=" ">
<polygon fill="white" stroke="black" points="340,-392.5 340,-411.5 399,-411.5 399,-392.5 340,-392.5"/>
<text text-anchor="middle" x="369.5" y="-399.5" font-family="Helvetica,sans-Serif" font-size="10.00">renderer.h</text>
</a>
</g>
</g>
<!-- Node9&#45;&gt;Node20 -->
<g id="edge56" class="edge">
<title>Node9&#45;&gt;Node20</title>
<path fill="none" stroke="midnightblue" d="M329.31,-504.38C347.45,-497.66 368.66,-486.31 379.5,-468 387.93,-453.75 383.6,-434.78 378.26,-421.02"/>
<polygon fill="midnightblue" stroke="midnightblue" points="381.39,-419.43 374.18,-411.67 374.97,-422.24 381.39,-419.43"/>
</g>
<!-- Node23 -->
<g id="node23" class="node">
<title>Node23</title>
<g id="a_node23"><a xlink:href="window_8h.html" target="_top" xlink:title=" ">
<polygon fill="white" stroke="black" points="137.5,-336.5 137.5,-355.5 193.5,-355.5 193.5,-336.5 137.5,-336.5"/>
<text text-anchor="middle" x="165.5" y="-343.5" font-family="Helvetica,sans-Serif" font-size="10.00">window.h</text>
</a>
</g>
</g>
<!-- Node9&#45;&gt;Node23 -->
<g id="edge61" class="edge">
<title>Node9&#45;&gt;Node23</title>
<path fill="none" stroke="midnightblue" d="M266.67,-504.49C246.99,-497.61 222.29,-486.03 206.5,-468 180.54,-438.35 170.86,-391.56 167.37,-365.71"/>
<polygon fill="midnightblue" stroke="midnightblue" points="170.84,-365.26 166.2,-355.74 163.89,-366.08 170.84,-365.26"/>
</g>
<!-- Node26 -->
<g id="node26" class="node">
<title>Node26</title>
<g id="a_node26"><a xlink:href="texture_8h.html" target="_top" xlink:title="Basic texture management.">
<polygon fill="white" stroke="black" points="256,-336.5 256,-355.5 311,-355.5 311,-336.5 256,-336.5"/>
<text text-anchor="middle" x="283.5" y="-343.5" font-family="Helvetica,sans-Serif" font-size="10.00">texture.h</text>
</a>
</g>
</g>
<!-- Node9&#45;&gt;Node26 -->
<g id="edge60" class="edge">
<title>Node9&#45;&gt;Node26</title>
<path fill="none" stroke="midnightblue" d="M265.69,-504.38C247.55,-497.66 226.34,-486.31 215.5,-468 193.14,-430.23 237.03,-384.95 264.21,-361.97"/>
<polygon fill="midnightblue" stroke="midnightblue" points="266.49,-364.62 272.02,-355.58 262.06,-359.2 266.49,-364.62"/>
</g>
<!-- Node32 -->
<g id="node32" class="node">
<title>Node32</title>
<g id="a_node32"><a xlink:href="text_8h.html" target="_top" xlink:title=" ">
<polygon fill="white" stroke="black" points="427,-448.5 427,-467.5 548,-467.5 548,-448.5 427,-448.5"/>
<text text-anchor="middle" x="487.5" y="-455.5" font-family="Helvetica,sans-Serif" font-size="10.00">graphics_wrapper/text.h</text>
</a>
</g>
</g>
<!-- Node9&#45;&gt;Node32 -->
<g id="edge57" class="edge">
<title>Node9&#45;&gt;Node32</title>
<path fill="none" stroke="midnightblue" d="M327.61,-504.44C360.13,-495.2 412.08,-480.44 447.89,-470.26"/>
<polygon fill="midnightblue" stroke="midnightblue" points="448.87,-473.62 457.53,-467.52 446.96,-466.88 448.87,-473.62"/>
</g>
<!-- Node10&#45;&gt;Node5 -->
<g id="edge10" class="edge">
<title>Node10&#45;&gt;Node5</title>
<path fill="none" stroke="midnightblue" d="M354.27,-280.44C314,-270.38 247.52,-253.75 207.09,-243.65"/>
<polygon fill="midnightblue" stroke="midnightblue" points="207.71,-240.19 197.16,-241.16 206.01,-246.99 207.71,-240.19"/>
</g>
<!-- Node11 -->
<g id="node11" class="node">
<title>Node11</title>
<g id="a_node11"><a xlink:title=" ">
<polygon fill="white" stroke="#bfbfbf" points="222.5,-168.5 222.5,-187.5 266.5,-187.5 266.5,-168.5 222.5,-168.5"/>
<text text-anchor="middle" x="244.5" y="-175.5" font-family="Helvetica,sans-Serif" font-size="10.00">SDL.h</text>
</a>
</g>
</g>
<!-- Node10&#45;&gt;Node11 -->
<g id="edge11" class="edge">
<title>Node10&#45;&gt;Node11</title>
<path fill="none" stroke="midnightblue" d="M353.92,-280.45C331.55,-273.54 302.91,-261.96 282.5,-244 267.97,-231.21 257.54,-211.48 251.32,-197.1"/>
<polygon fill="midnightblue" stroke="midnightblue" points="254.54,-195.72 247.54,-187.76 248.05,-198.34 254.54,-195.72"/>
</g>
<!-- Node12 -->
<g id="node12" class="node">
<title>Node12</title>
<g id="a_node12"><a xlink:title=" ">
<polygon fill="white" stroke="#bfbfbf" points="505.5,-224.5 505.5,-243.5 561.5,-243.5 561.5,-224.5 505.5,-224.5"/>
<text text-anchor="middle" x="533.5" y="-231.5" font-family="Helvetica,sans-Serif" font-size="10.00">algorithm</text>
</a>
</g>
</g>
<!-- Node10&#45;&gt;Node12 -->
<g id="edge12" class="edge">
<title>Node10&#45;&gt;Node12</title>
<path fill="none" stroke="midnightblue" d="M411.48,-280.44C435.66,-271.44 473.92,-257.19 501.15,-247.05"/>
<polygon fill="midnightblue" stroke="midnightblue" points="502.48,-250.29 510.63,-243.52 500.04,-243.73 502.48,-250.29"/>
</g>
<!-- Node13 -->
<g id="node13" class="node">
<title>Node13</title>
<g id="a_node13"><a xlink:href="vec4_8h.html" target="_top" xlink:title=" ">
<polygon fill="white" stroke="black" points="407.5,-224.5 407.5,-243.5 487.5,-243.5 487.5,-224.5 407.5,-224.5"/>
<text text-anchor="middle" x="447.5" y="-231.5" font-family="Helvetica,sans-Serif" font-size="10.00">../math/vec4.h</text>
</a>
</g>
</g>
<!-- Node10&#45;&gt;Node13 -->
<g id="edge13" class="edge">
<title>Node10&#45;&gt;Node13</title>
<path fill="none" stroke="midnightblue" d="M397.98,-280.32C406.7,-272.34 419.84,-260.31 430.4,-250.65"/>
<polygon fill="midnightblue" stroke="midnightblue" points="432.83,-253.17 437.85,-243.83 428.11,-248 432.83,-253.17"/>
</g>
<!-- Node13&#45;&gt;Node4 -->
<g id="edge14" class="edge">
<title>Node13&#45;&gt;Node4</title>
<path fill="none" stroke="midnightblue" d="M447.5,-224.08C447.5,-197.95 447.5,-121.21 447.5,-85.58"/>
<polygon fill="midnightblue" stroke="midnightblue" points="451,-85.57 447.5,-75.57 444,-85.57 451,-85.57"/>
</g>
<!-- Node13&#45;&gt;Node7 -->
<g id="edge15" class="edge">
<title>Node13&#45;&gt;Node7</title>
<path fill="none" stroke="midnightblue" d="M457.96,-224.2C482.93,-203.41 548.35,-150.09 607.5,-112 625.7,-100.28 647.21,-88.67 663.78,-80.18"/>
<polygon fill="midnightblue" stroke="midnightblue" points="665.55,-83.21 672.9,-75.57 662.39,-76.96 665.55,-83.21"/>
</g>
<!-- Node14 -->
<g id="node14" class="node">
<title>Node14</title>
<g id="a_node14"><a xlink:href="vec3_8h.html" target="_top" xlink:title=" ">
<polygon fill="white" stroke="black" points="616.5,-168.5 616.5,-187.5 662.5,-187.5 662.5,-168.5 616.5,-168.5"/>
<text text-anchor="middle" x="639.5" y="-175.5" font-family="Helvetica,sans-Serif" font-size="10.00">vec3.h</text>
</a>
</g>
</g>
<!-- Node13&#45;&gt;Node14 -->
<g id="edge16" class="edge">
<title>Node13&#45;&gt;Node14</title>
<path fill="none" stroke="midnightblue" d="M477.92,-224.44C512.95,-214.59 570.3,-198.46 606.42,-188.3"/>
<polygon fill="midnightblue" stroke="midnightblue" points="607.77,-191.56 616.45,-185.48 605.88,-184.82 607.77,-191.56"/>
</g>
<!-- Node14&#45;&gt;Node4 -->
<g id="edge17" class="edge">
<title>Node14&#45;&gt;Node4</title>
<path fill="none" stroke="midnightblue" d="M624.43,-168.37C591.21,-149.33 511.41,-103.62 471.33,-80.65"/>
<polygon fill="midnightblue" stroke="midnightblue" points="472.91,-77.53 462.5,-75.59 469.43,-83.6 472.91,-77.53"/>
</g>
<!-- Node14&#45;&gt;Node7 -->
<g id="edge18" class="edge">
<title>Node14&#45;&gt;Node7</title>
<path fill="none" stroke="midnightblue" d="M647.07,-168.26C654.25,-159.58 664.89,-145.63 671.5,-132 678.71,-117.12 683.73,-98.98 686.79,-85.64"/>
<polygon fill="midnightblue" stroke="midnightblue" points="690.24,-86.26 688.91,-75.75 683.4,-84.8 690.24,-86.26"/>
</g>
<!-- Node15 -->
<g id="node15" class="node">
<title>Node15</title>
<g id="a_node15"><a xlink:href="vec2_8h.html" target="_top" xlink:title=" ">
<polygon fill="white" stroke="black" points="616.5,-112.5 616.5,-131.5 662.5,-131.5 662.5,-112.5 616.5,-112.5"/>
<text text-anchor="middle" x="639.5" y="-119.5" font-family="Helvetica,sans-Serif" font-size="10.00">vec2.h</text>
</a>
</g>
</g>
<!-- Node14&#45;&gt;Node15 -->
<g id="edge19" class="edge">
<title>Node14&#45;&gt;Node15</title>
<path fill="none" stroke="midnightblue" d="M639.5,-168.08C639.5,-161.01 639.5,-150.86 639.5,-141.99"/>
<polygon fill="midnightblue" stroke="midnightblue" points="643,-141.75 639.5,-131.75 636,-141.75 643,-141.75"/>
</g>
<!-- Node15&#45;&gt;Node4 -->
<g id="edge20" class="edge">
<title>Node15&#45;&gt;Node4</title>
<path fill="none" stroke="midnightblue" d="M616.34,-114.49C583.38,-105.22 522.63,-88.13 483.69,-77.18"/>
<polygon fill="midnightblue" stroke="midnightblue" points="484.39,-73.74 473.81,-74.4 482.49,-80.48 484.39,-73.74"/>
</g>
<!-- Node15&#45;&gt;Node7 -->
<g id="edge22" class="edge">
<title>Node15&#45;&gt;Node7</title>
<path fill="none" stroke="midnightblue" d="M647.92,-112.08C655.35,-104.22 666.35,-92.57 675.31,-83.08"/>
<polygon fill="midnightblue" stroke="midnightblue" points="677.91,-85.42 682.24,-75.75 672.82,-80.62 677.91,-85.42"/>
</g>
<!-- Node16 -->
<g id="node16" class="node">
<title>Node16</title>
<g id="a_node16"><a xlink:title=" ">
<polygon fill="white" stroke="#bfbfbf" points="823,-0.5 823,-19.5 882,-19.5 882,-0.5 823,-0.5"/>
<text text-anchor="middle" x="852.5" y="-7.5" font-family="Helvetica,sans-Serif" font-size="10.00">inttypes.h</text>
</a>
</g>
</g>
<!-- Node15&#45;&gt;Node16 -->
<g id="edge21" class="edge">
<title>Node15&#45;&gt;Node16</title>
<path fill="none" stroke="midnightblue" d="M639.27,-112.46C639.4,-98.55 641.77,-71.06 657.5,-56 679.41,-35.02 762.12,-21.73 812.52,-15.39"/>
<polygon fill="midnightblue" stroke="midnightblue" points="813.25,-18.83 822.75,-14.15 812.4,-11.88 813.25,-18.83"/>
</g>
<!-- Node17 -->
<g id="node17" class="node">
<title>Node17</title>
<g id="a_node17"><a xlink:href="float__compare_8h.html" target="_top" xlink:title=" ">
<polygon fill="white" stroke="black" points="880.5,-56.5 880.5,-75.5 966.5,-75.5 966.5,-56.5 880.5,-56.5"/>
<text text-anchor="middle" x="923.5" y="-63.5" font-family="Helvetica,sans-Serif" font-size="10.00">float_compare.h</text>
</a>
</g>
</g>
<!-- Node15&#45;&gt;Node17 -->
<g id="edge23" class="edge">
<title>Node15&#45;&gt;Node17</title>
<path fill="none" stroke="midnightblue" d="M662.74,-116.58C707.79,-108.01 808.03,-88.96 870.28,-77.12"/>
<polygon fill="midnightblue" stroke="midnightblue" points="871.13,-80.52 880.3,-75.21 869.82,-73.64 871.13,-80.52"/>
</g>
<!-- Node17&#45;&gt;Node16 -->
<g id="edge24" class="edge">
<title>Node17&#45;&gt;Node16</title>
<path fill="none" stroke="midnightblue" d="M912.09,-56.32C901.39,-48.18 885.16,-35.84 872.34,-26.09"/>
<polygon fill="midnightblue" stroke="midnightblue" points="874.19,-23.1 864.11,-19.83 869.96,-28.67 874.19,-23.1"/>
</g>
<!-- Node18 -->
<g id="node18" class="node">
<title>Node18</title>
<g id="a_node18"><a xlink:title=" ">
<polygon fill="white" stroke="#bfbfbf" points="901.5,-0.5 901.5,-19.5 945.5,-19.5 945.5,-0.5 901.5,-0.5"/>
<text text-anchor="middle" x="923.5" y="-7.5" font-family="Helvetica,sans-Serif" font-size="10.00">float.h</text>
</a>
</g>
</g>
<!-- Node17&#45;&gt;Node18 -->
<g id="edge25" class="edge">
<title>Node17&#45;&gt;Node18</title>
<path fill="none" stroke="midnightblue" d="M923.5,-56.08C923.5,-49.01 923.5,-38.86 923.5,-29.99"/>
<polygon fill="midnightblue" stroke="midnightblue" points="927,-29.75 923.5,-19.75 920,-29.75 927,-29.75"/>
</g>
<!-- Node19&#45;&gt;Node20 -->
<g id="edge27" class="edge">
<title>Node19&#45;&gt;Node20</title>
<path fill="none" stroke="midnightblue" d="M309.07,-448.32C319.92,-440.18 336.38,-427.84 349.38,-418.09"/>
<polygon fill="midnightblue" stroke="midnightblue" points="351.82,-420.63 357.72,-411.83 347.62,-415.03 351.82,-420.63"/>
</g>
<!-- Node20&#45;&gt;Node5 -->
<g id="edge28" class="edge">
<title>Node20&#45;&gt;Node5</title>
<path fill="none" stroke="midnightblue" d="M339.78,-396.1C312.89,-390.38 273.49,-378.66 246.5,-356 216.61,-330.9 223.11,-313.14 202.5,-280 196.66,-270.62 189.85,-260.35 184.2,-251.99"/>
<polygon fill="midnightblue" stroke="midnightblue" points="186.94,-249.81 178.41,-243.52 181.16,-253.75 186.94,-249.81"/>
</g>
<!-- Node20&#45;&gt;Node10 -->
<g id="edge54" class="edge">
<title>Node20&#45;&gt;Node10</title>
<path fill="none" stroke="midnightblue" d="M365.59,-392.43C360.39,-379.84 352.53,-355.72 358.5,-336 361.62,-325.7 367.95,-315.61 374,-307.6"/>
<polygon fill="midnightblue" stroke="midnightblue" points="376.73,-309.8 380.29,-299.82 371.28,-305.4 376.73,-309.8"/>
</g>
<!-- Node21 -->
<g id="node21" class="node">
<title>Node21</title>
<g id="a_node21"><a xlink:title=" ">
<polygon fill="white" stroke="#bfbfbf" points="368,-336.5 368,-355.5 451,-355.5 451,-336.5 368,-336.5"/>
<text text-anchor="middle" x="409.5" y="-343.5" font-family="Helvetica,sans-Serif" font-size="10.00">unordered_map</text>
</a>
</g>
</g>
<!-- Node20&#45;&gt;Node21 -->
<g id="edge29" class="edge">
<title>Node20&#45;&gt;Node21</title>
<path fill="none" stroke="midnightblue" d="M376.11,-392.08C381.76,-384.46 390.04,-373.26 396.95,-363.94"/>
<polygon fill="midnightblue" stroke="midnightblue" points="399.88,-365.87 403.02,-355.75 394.25,-361.7 399.88,-365.87"/>
</g>
<!-- Node22 -->
<g id="node22" class="node">
<title>Node22</title>
<g id="a_node22"><a xlink:title=" ">
<polygon fill="white" stroke="#bfbfbf" points="469,-336.5 469,-355.5 510,-355.5 510,-336.5 469,-336.5"/>
<text text-anchor="middle" x="489.5" y="-343.5" font-family="Helvetica,sans-Serif" font-size="10.00">stack</text>
</a>
</g>
</g>
<!-- Node20&#45;&gt;Node22 -->
<g id="edge30" class="edge">
<title>Node20&#45;&gt;Node22</title>
<path fill="none" stroke="midnightblue" d="M388.51,-392.44C408.09,-383.64 438.81,-369.81 461.23,-359.72"/>
<polygon fill="midnightblue" stroke="midnightblue" points="462.89,-362.81 470.57,-355.52 460.02,-356.43 462.89,-362.81"/>
</g>
<!-- Node20&#45;&gt;Node23 -->
<g id="edge31" class="edge">
<title>Node20&#45;&gt;Node23</title>
<path fill="none" stroke="midnightblue" d="M339.84,-393.15C303.75,-383.6 242.77,-367.45 203.34,-357.02"/>
<polygon fill="midnightblue" stroke="midnightblue" points="204.12,-353.6 193.56,-354.43 202.33,-360.37 204.12,-353.6"/>
</g>
<!-- Node20&#45;&gt;Node26 -->
<g id="edge39" class="edge">
<title>Node20&#45;&gt;Node26</title>
<path fill="none" stroke="midnightblue" d="M355.68,-392.32C342.27,-383.9 321.68,-370.97 305.91,-361.07"/>
<polygon fill="midnightblue" stroke="midnightblue" points="307.61,-358.01 297.28,-355.65 303.89,-363.94 307.61,-358.01"/>
</g>
<!-- Node27 -->
<g id="node27" class="node">
<title>Node27</title>
<g id="a_node27"><a xlink:href="sml__math_8h.html" target="_top" xlink:title=" ">
<polygon fill="white" stroke="black" points="663,-280.5 663,-299.5 740,-299.5 740,-280.5 663,-280.5"/>
<text text-anchor="middle" x="701.5" y="-287.5" font-family="Helvetica,sans-Serif" font-size="10.00">../sml_math.h</text>
</a>
</g>
</g>
<!-- Node20&#45;&gt;Node27 -->
<g id="edge55" class="edge">
<title>Node20&#45;&gt;Node27</title>
<path fill="none" stroke="midnightblue" d="M399.03,-392.53C429.19,-383.78 477.29,-369.53 518.5,-356 571.5,-338.6 632.43,-316.54 668.9,-303.11"/>
<polygon fill="midnightblue" stroke="midnightblue" points="670.34,-306.31 678.51,-299.57 667.92,-299.74 670.34,-306.31"/>
</g>
<!-- Node23&#45;&gt;Node4 -->
<g id="edge32" class="edge">
<title>Node23&#45;&gt;Node4</title>
<path fill="none" stroke="midnightblue" d="M152.38,-336.46C128.75,-319.94 81.5,-281.14 81.5,-235 81.5,-235 81.5,-235 81.5,-177 81.5,-108.56 319.18,-78.99 411.47,-70.09"/>
<polygon fill="midnightblue" stroke="midnightblue" points="411.84,-73.57 421.47,-69.15 411.19,-66.6 411.84,-73.57"/>
</g>
<!-- Node23&#45;&gt;Node10 -->
<g id="edge35" class="edge">
<title>Node23&#45;&gt;Node10</title>
<path fill="none" stroke="midnightblue" d="M193.74,-338.16C231.44,-329.03 298.65,-312.76 343.4,-301.92"/>
<polygon fill="midnightblue" stroke="midnightblue" points="344.25,-305.32 353.15,-299.56 342.6,-298.51 344.25,-305.32"/>
</g>
<!-- Node23&#45;&gt;Node11 -->
<g id="edge34" class="edge">
<title>Node23&#45;&gt;Node11</title>
<path fill="none" stroke="midnightblue" d="M158.35,-336.36C151.73,-327.76 142.34,-313.87 138.5,-300 129.48,-267.45 119.86,-252.17 138.5,-224 154.72,-199.49 187.26,-188.29 212.04,-183.2"/>
<polygon fill="midnightblue" stroke="midnightblue" points="212.89,-186.6 222.11,-181.37 211.64,-179.71 212.89,-186.6"/>
</g>
<!-- Node24 -->
<g id="node24" class="node">
<title>Node24</title>
<g id="a_node24"><a xlink:title=" ">
<polygon fill="white" stroke="#bfbfbf" points="147.5,-280.5 147.5,-299.5 193.5,-299.5 193.5,-280.5 147.5,-280.5"/>
<text text-anchor="middle" x="170.5" y="-287.5" font-family="Helvetica,sans-Serif" font-size="10.00">stdio.h</text>
</a>
</g>
</g>
<!-- Node23&#45;&gt;Node24 -->
<g id="edge33" class="edge">
<title>Node23&#45;&gt;Node24</title>
<path fill="none" stroke="midnightblue" d="M166.33,-336.08C166.98,-329.01 167.92,-318.86 168.74,-309.99"/>
<polygon fill="midnightblue" stroke="midnightblue" points="172.25,-310.03 169.69,-299.75 165.28,-309.39 172.25,-310.03"/>
</g>
<!-- Node25 -->
<g id="node25" class="node">
<title>Node25</title>
<g id="a_node25"><a xlink:href="rectangle_8h.html" target="_top" xlink:title=" ">
<polygon fill="white" stroke="black" points="291.5,-224.5 291.5,-243.5 389.5,-243.5 389.5,-224.5 291.5,-224.5"/>
<text text-anchor="middle" x="340.5" y="-231.5" font-family="Helvetica,sans-Serif" font-size="10.00">../math/rectangle.h</text>
</a>
</g>
</g>
<!-- Node23&#45;&gt;Node25 -->
<g id="edge36" class="edge">
<title>Node23&#45;&gt;Node25</title>
<path fill="none" stroke="midnightblue" d="M179.23,-336.37C209.39,-317.41 281.64,-272 318.32,-248.94"/>
<polygon fill="midnightblue" stroke="midnightblue" points="320.23,-251.88 326.83,-243.59 316.5,-245.95 320.23,-251.88"/>
</g>
<!-- Node25&#45;&gt;Node11 -->
<g id="edge37" class="edge">
<title>Node25&#45;&gt;Node11</title>
<path fill="none" stroke="midnightblue" d="M325.08,-224.32C309.96,-215.82 286.68,-202.73 269.03,-192.8"/>
<polygon fill="midnightblue" stroke="midnightblue" points="270.32,-189.51 259.89,-187.65 266.89,-195.61 270.32,-189.51"/>
</g>
<!-- Node25&#45;&gt;Node15 -->
<g id="edge38" class="edge">
<title>Node25&#45;&gt;Node15</title>
<path fill="none" stroke="midnightblue" d="M363.96,-224.37C416.91,-204.89 545.78,-157.48 606.64,-135.09"/>
<polygon fill="midnightblue" stroke="midnightblue" points="607.97,-138.33 616.15,-131.59 605.55,-131.76 607.97,-138.33"/>
</g>
<!-- Node26&#45;&gt;Node10 -->
<g id="edge41" class="edge">
<title>Node26&#45;&gt;Node10</title>
<path fill="none" stroke="midnightblue" d="M300.37,-336.32C317.21,-327.66 343.31,-314.24 362.74,-304.25"/>
<polygon fill="midnightblue" stroke="midnightblue" points="364.38,-307.34 371.67,-299.65 361.18,-301.12 364.38,-307.34"/>
</g>
<!-- Node26&#45;&gt;Node11 -->
<g id="edge40" class="edge">
<title>Node26&#45;&gt;Node11</title>
<path fill="none" stroke="midnightblue" d="M281.4,-336.08C275.26,-309.95 257.24,-233.21 248.86,-197.58"/>
<polygon fill="midnightblue" stroke="midnightblue" points="252.21,-196.5 246.51,-187.57 245.39,-198.1 252.21,-196.5"/>
</g>
<!-- Node26&#45;&gt;Node27 -->
<g id="edge42" class="edge">
<title>Node26&#45;&gt;Node27</title>
<path fill="none" stroke="midnightblue" d="M311.25,-341.42C381.06,-332.4 564.66,-308.68 652.85,-297.28"/>
<polygon fill="midnightblue" stroke="midnightblue" points="653.4,-300.74 662.87,-295.99 652.5,-293.8 653.4,-300.74"/>
</g>
<!-- Node27&#45;&gt;Node14 -->
<g id="edge53" class="edge">
<title>Node27&#45;&gt;Node14</title>
<path fill="none" stroke="midnightblue" d="M696.63,-280.37C686.45,-262.3 662.71,-220.18 649.26,-196.31"/>
<polygon fill="midnightblue" stroke="midnightblue" points="652.3,-194.58 644.34,-187.59 646.2,-198.02 652.3,-194.58"/>
</g>
<!-- Node27&#45;&gt;Node15 -->
<g id="edge52" class="edge">
<title>Node27&#45;&gt;Node15</title>
<path fill="none" stroke="midnightblue" d="M726.95,-280.46C753.84,-269.88 790.7,-250.01 777.5,-224 755.37,-180.38 704.58,-151.08 671.17,-135.73"/>
<polygon fill="midnightblue" stroke="midnightblue" points="672.39,-132.44 661.83,-131.59 669.56,-138.84 672.39,-132.44"/>
</g>
<!-- Node27&#45;&gt;Node17 -->
<g id="edge43" class="edge">
<title>Node27&#45;&gt;Node17</title>
<path fill="none" stroke="midnightblue" d="M740.2,-285.95C800.16,-280.56 911.93,-267.6 943.5,-244 994.68,-205.74 1032.31,-167.43 1000.5,-112 991.88,-96.99 976.11,-86.5 961.07,-79.46"/>
<polygon fill="midnightblue" stroke="midnightblue" points="962.44,-76.24 951.87,-75.51 959.68,-82.67 962.44,-76.24"/>
</g>
<!-- Node27&#45;&gt;Node25 -->
<g id="edge49" class="edge">
<title>Node27&#45;&gt;Node25</title>
<path fill="none" stroke="midnightblue" d="M662.75,-283.33C606.97,-275.14 500.55,-259.46 399.61,-244.16"/>
<polygon fill="midnightblue" stroke="midnightblue" points="399.96,-240.67 389.54,-242.63 398.91,-247.59 399.96,-240.67"/>
</g>
<!-- Node28 -->
<g id="node28" class="node">
<title>Node28</title>
<g id="a_node28"><a xlink:href="geometry_8h.html" target="_top" xlink:title=" ">
<polygon fill="white" stroke="black" points="826,-224.5 826,-243.5 915,-243.5 915,-224.5 826,-224.5"/>
<text text-anchor="middle" x="870.5" y="-231.5" font-family="Helvetica,sans-Serif" font-size="10.00">math/geometry.h</text>
</a>
</g>
</g>
<!-- Node27&#45;&gt;Node28 -->
<g id="edge44" class="edge">
<title>Node27&#45;&gt;Node28</title>
<path fill="none" stroke="midnightblue" d="M728.28,-280.44C756.83,-271.32 802.23,-256.81 834.04,-246.65"/>
<polygon fill="midnightblue" stroke="midnightblue" points="835.39,-249.89 843.85,-243.52 833.26,-243.23 835.39,-249.89"/>
</g>
<!-- Node29 -->
<g id="node29" class="node">
<title>Node29</title>
<g id="a_node29"><a xlink:href="mat4_8h.html" target="_top" xlink:title=" ">
<polygon fill="white" stroke="black" points="698,-224.5 698,-243.5 769,-243.5 769,-224.5 698,-224.5"/>
<text text-anchor="middle" x="733.5" y="-231.5" font-family="Helvetica,sans-Serif" font-size="10.00">math/mat4.h</text>
</a>
</g>
</g>
<!-- Node27&#45;&gt;Node29 -->
<g id="edge45" class="edge">
<title>Node27&#45;&gt;Node29</title>
<path fill="none" stroke="midnightblue" d="M706.78,-280.08C711.21,-272.61 717.66,-261.72 723.12,-252.52"/>
<polygon fill="midnightblue" stroke="midnightblue" points="726.23,-254.14 728.31,-243.75 720.21,-250.57 726.23,-254.14"/>
</g>
<!-- Node30 -->
<g id="node30" class="node">
<title>Node30</title>
<g id="a_node30"><a xlink:href="ray_8h.html" target="_top" xlink:title=" ">
<polygon fill="white" stroke="black" points="579.5,-224.5 579.5,-243.5 641.5,-243.5 641.5,-224.5 579.5,-224.5"/>
<text text-anchor="middle" x="610.5" y="-231.5" font-family="Helvetica,sans-Serif" font-size="10.00">math/ray.h</text>
</a>
</g>
</g>
<!-- Node27&#45;&gt;Node30 -->
<g id="edge47" class="edge">
<title>Node27&#45;&gt;Node30</title>
<path fill="none" stroke="midnightblue" d="M686.88,-280.32C672.55,-271.82 650.49,-258.73 633.75,-248.8"/>
<polygon fill="midnightblue" stroke="midnightblue" points="635.47,-245.75 625.08,-243.65 631.9,-251.77 635.47,-245.75"/>
</g>
<!-- Node31 -->
<g id="node31" class="node">
<title>Node31</title>
<g id="a_node31"><a xlink:href="solve__equation_8h.html" target="_top" xlink:title=" ">
<polygon fill="white" stroke="black" points="876,-112.5 876,-131.5 991,-131.5 991,-112.5 876,-112.5"/>
<text text-anchor="middle" x="933.5" y="-119.5" font-family="Helvetica,sans-Serif" font-size="10.00">math/solve_equation.h</text>
</a>
</g>
</g>
<!-- Node27&#45;&gt;Node31 -->
<g id="edge50" class="edge">
<title>Node27&#45;&gt;Node31</title>
<path fill="none" stroke="midnightblue" d="M740.47,-286.6C797.55,-282.21 899.73,-270.75 923.5,-244 948.62,-215.74 943.45,-167.68 938.1,-141.44"/>
<polygon fill="midnightblue" stroke="midnightblue" points="941.51,-140.63 935.89,-131.65 934.68,-142.17 941.51,-140.63"/>
</g>
<!-- Node29&#45;&gt;Node14 -->
<g id="edge46" class="edge">
<title>Node29&#45;&gt;Node14</title>
<path fill="none" stroke="midnightblue" d="M718.4,-224.32C703.6,-215.82 680.81,-202.73 663.52,-192.8"/>
<polygon fill="midnightblue" stroke="midnightblue" points="664.98,-189.6 654.57,-187.65 661.49,-195.67 664.98,-189.6"/>
</g>
<!-- Node30&#45;&gt;Node14 -->
<g id="edge48" class="edge">
<title>Node30&#45;&gt;Node14</title>
<path fill="none" stroke="midnightblue" d="M615.29,-224.08C619.26,-216.69 625.03,-205.95 629.93,-196.81"/>
<polygon fill="midnightblue" stroke="midnightblue" points="633.15,-198.22 634.8,-187.75 626.99,-194.91 633.15,-198.22"/>
</g>
<!-- Node31&#45;&gt;Node16 -->
<g id="edge51" class="edge">
<title>Node31&#45;&gt;Node16</title>
<path fill="none" stroke="midnightblue" d="M916.04,-112.48C902.04,-104.79 882.91,-92.2 871.5,-76 861.87,-62.33 857.08,-43.8 854.72,-30.01"/>
<polygon fill="midnightblue" stroke="midnightblue" points="858.13,-29.17 853.26,-19.77 851.2,-30.16 858.13,-29.17"/>
</g>
<!-- Node32&#45;&gt;Node20 -->
<g id="edge59" class="edge">
<title>Node32&#45;&gt;Node20</title>
<path fill="none" stroke="midnightblue" d="M468.8,-448.44C449.56,-439.64 419.35,-425.81 397.3,-415.72"/>
<polygon fill="midnightblue" stroke="midnightblue" points="398.66,-412.5 388.11,-411.52 395.75,-418.86 398.66,-412.5"/>
</g>
<!-- Node33 -->
<g id="node33" class="node">
<title>Node33</title>
<g id="a_node33"><a xlink:title=" ">
<polygon fill="white" stroke="#bfbfbf" points="458,-392.5 458,-411.5 517,-411.5 517,-392.5 458,-392.5"/>
<text text-anchor="middle" x="487.5" y="-399.5" font-family="Helvetica,sans-Serif" font-size="10.00">SDL_ttf.h</text>
</a>
</g>
</g>
<!-- Node32&#45;&gt;Node33 -->
<g id="edge58" class="edge">
<title>Node32&#45;&gt;Node33</title>
<path fill="none" stroke="midnightblue" d="M487.5,-448.08C487.5,-441.01 487.5,-430.86 487.5,-421.99"/>
<polygon fill="midnightblue" stroke="midnightblue" points="491,-421.75 487.5,-411.75 484,-421.75 491,-421.75"/>
</g>
</g>
</svg>
        <g id="navigator" transform="translate(0 0)" fill="#404254">
                <rect fill="#f2f5e9" fill-opacity="0.5" stroke="#606060" stroke-width=".5" x="0" y="0" width="60" height="60"/>
                <use id="zoomplus" xlink:href="#zoomPlus" x="17" y="9" onmousedown="handleZoom(evt,'in')"/>
                <use id="zoomminus" xlink:href="#zoomMin" x="42" y="9" onmousedown="handleZoom(evt,'out')"/>
                <use id="reset" xlink:href="#resetDef" x="30" y="36" onmousedown="handleReset()"/>
                <g id="arrowUp" xlink:href="#dirArrow" transform="translate(30 24)" onmousedown="handlePan(0,-1)">
                  <use xlink:href="#rim" fill="#404040">
                        <set attributeName="fill" to="#808080" begin="arrowUp.mouseover" end="arrowUp.mouseout"/>
                  </use>
                  <path fill="none" stroke="white" stroke-width="1.5" d="M0,-3.0v7 M-2.5,-0.5L0,-3.0L2.5,-0.5"/>
                </g>
                <g id="arrowRight" xlink:href="#dirArrow" transform="rotate(90) translate(36 -43)" onmousedown="handlePan(1,0)">
                  <use xlink:href="#rim" fill="#404040">
                        <set attributeName="fill" to="#808080" begin="arrowRight.mouseover" end="arrowRight.mouseout"/>
                  </use>
                  <path fill="none" stroke="white" stroke-width="1.5" d="M0,-3.0v7 M-2.5,-0.5L0,-3.0L2.5,-0.5"/>
                </g>
                <g id="arrowDown" xlink:href="#dirArrow" transform="rotate(180) translate(-30 -48)" onmousedown="handlePan(0,1)">
                  <use xlink:href="#rim" fill="#404040">
                        <set attributeName="fill" to="#808080" begin="arrowDown.mouseover" end="arrowDown.mouseout"/>
                  </use>
                  <path fill="none" stroke="white" stroke-width="1.5" d="M0,-3.0v7 M-2.5,-0.5L0,-3.0L2.5,-0.5"/>
                </g>
                <g id="arrowLeft" xlink:href="#dirArrow" transform="rotate(270) translate(-36 17)" onmousedown="handlePan(-1,0)">
                  <use xlink:href="#rim" fill="#404040">
                        <set attributeName="fill" to="#808080" begin="arrowLeft.mouseover" end="arrowLeft.mouseout"/>
                  </use>
                  <path fill="none" stroke="white" stroke-width="1.5" d="M0,-3.0v7 M-2.5,-0.5L0,-3.0L2.5,-0.5"/>
                </g>
        </g>
        <svg viewBox="0 0 15 15" width="100%" height="30px" preserveAspectRatio="xMaxYMin meet">
         <g id="arrow_out" transform="scale(0.3 0.3)">
          <a xlink:href="sml__utils_8h__incl_org.svg" target="_base">
           <rect id="button" ry="5" rx="5" y="6" x="6" height="38" width="38"
                fill="#f2f5e9" fill-opacity="0.5" stroke="#606060" stroke-width="1.0"/>
           <path id="arrow"
             d="M 11.500037,31.436501 C 11.940474,20.09759 22.043105,11.32322 32.158766,21.979434 L 37.068811,17.246167 C 37.068811,17.246167 37.088388,32 37.088388,32 L 22.160133,31.978069 C 22.160133,31.978069 26.997745,27.140456 26.997745,27.140456 C 18.528582,18.264221 13.291696,25.230495 11.500037,31.436501 z"
             style="fill:#404040;"/>
          </a>
         </g>
        </svg>
</svg>
