<?xml version="1.0" encoding="UTF-8" standalone="no"?>
<!DOCTYPE svg PUBLIC "-//W3C//DTD SVG 1.1//EN"
 "http://www.w3.org/Graphics/SVG/1.1/DTD/svg11.dtd">
<!-- Generated by graphviz version 2.50.0 (20211204.2007)
 -->
<!-- Title: sml_containers.h Pages: 1 -->
<svg width="427pt" height="196pt"
 viewBox="0.00 0.00 426.50 196.00" xmlns="http://www.w3.org/2000/svg" xmlns:xlink="http://www.w3.org/1999/xlink">
<g id="graph0" class="graph" transform="scale(1 1) rotate(0) translate(4 192)">
<title>sml_containers.h</title>
<polygon fill="white" stroke="transparent" points="-4,4 -4,-192 422.5,-192 422.5,4 -4,4"/>
<!-- Node1 -->
<g id="node1" class="node">
<title>Node1</title>
<g id="a_node1"><a xlink:title=" ">
<polygon fill="#bfbfbf" stroke="black" points="119.5,-168.5 119.5,-187.5 210.5,-187.5 210.5,-168.5 119.5,-168.5"/>
<text text-anchor="middle" x="165" y="-175.5" font-family="Helvetica,sans-Serif" font-size="10.00">sml_containers.h</text>
</a>
</g>
</g>
<!-- Node2 -->
<g id="node2" class="node">
<title>Node2</title>
<g id="a_node2"><a xlink:href="array_8h.html" target="_top" xlink:title=" ">
<polygon fill="white" stroke="black" points="60.5,-56.5 60.5,-75.5 153.5,-75.5 153.5,-56.5 60.5,-56.5"/>
<text text-anchor="middle" x="107" y="-63.5" font-family="Helvetica,sans-Serif" font-size="10.00">containers/array.h</text>
</a>
</g>
</g>
<!-- Node1&#45;&gt;Node2 -->
<g id="edge1" class="edge">
<title>Node1&#45;&gt;Node2</title>
<path fill="none" stroke="midnightblue" d="M163.65,-168.13C161.41,-155.17 156.13,-130.58 146,-112 140.21,-101.38 131.57,-91.07 123.89,-83"/>
<polygon fill="midnightblue" stroke="midnightblue" points="126.21,-80.37 116.67,-75.75 121.24,-85.31 126.21,-80.37"/>
</g>
<!-- Node6 -->
<g id="node6" class="node">
<title>Node6</title>
<g id="a_node6"><a xlink:href="dynamic__array_8h.html" target="_top" xlink:title="General dynamic array container.">
<polygon fill="white" stroke="black" points="1.5,-112.5 1.5,-131.5 136.5,-131.5 136.5,-112.5 1.5,-112.5"/>
<text text-anchor="middle" x="69" y="-119.5" font-family="Helvetica,sans-Serif" font-size="10.00">containers/dynamic_array.h</text>
</a>
</g>
</g>
<!-- Node1&#45;&gt;Node6 -->
<g id="edge5" class="edge">
<title>Node1&#45;&gt;Node6</title>
<path fill="none" stroke="midnightblue" d="M149.58,-168.32C134.46,-159.82 111.18,-146.73 93.53,-136.8"/>
<polygon fill="midnightblue" stroke="midnightblue" points="94.82,-133.51 84.39,-131.65 91.39,-139.61 94.82,-133.51"/>
</g>
<!-- Node7 -->
<g id="node7" class="node">
<title>Node7</title>
<g id="a_node7"><a xlink:href="list_8h.html" target="_top" xlink:title=" ">
<polygon fill="white" stroke="black" points="210,-56.5 210,-75.5 296,-75.5 296,-56.5 210,-56.5"/>
<text text-anchor="middle" x="253" y="-63.5" font-family="Helvetica,sans-Serif" font-size="10.00">containers/list.h</text>
</a>
</g>
</g>
<!-- Node1&#45;&gt;Node7 -->
<g id="edge10" class="edge">
<title>Node1&#45;&gt;Node7</title>
<path fill="none" stroke="midnightblue" d="M171.91,-168.37C186.49,-150.14 220.66,-107.43 239.66,-83.68"/>
<polygon fill="midnightblue" stroke="midnightblue" points="242.61,-85.59 246.13,-75.59 237.15,-81.21 242.61,-85.59"/>
</g>
<!-- Node3 -->
<g id="node3" class="node">
<title>Node3</title>
<g id="a_node3"><a xlink:title=" ">
<polygon fill="white" stroke="#bfbfbf" points="158,-0.5 158,-19.5 210,-19.5 210,-0.5 158,-0.5"/>
<text text-anchor="middle" x="184" y="-7.5" font-family="Helvetica,sans-Serif" font-size="10.00">assert.h</text>
</a>
</g>
</g>
<!-- Node2&#45;&gt;Node3 -->
<g id="edge2" class="edge">
<title>Node2&#45;&gt;Node3</title>
<path fill="none" stroke="midnightblue" d="M119.37,-56.32C131.16,-48.06 149.13,-35.45 163.14,-25.63"/>
<polygon fill="midnightblue" stroke="midnightblue" points="165.48,-28.26 171.66,-19.65 161.46,-22.53 165.48,-28.26"/>
</g>
<!-- Node4 -->
<g id="node4" class="node">
<title>Node4</title>
<g id="a_node4"><a xlink:title=" ">
<polygon fill="white" stroke="#bfbfbf" points="0,-0.5 0,-19.5 48,-19.5 48,-0.5 0,-0.5"/>
<text text-anchor="middle" x="24" y="-7.5" font-family="Helvetica,sans-Serif" font-size="10.00">stdlib.h</text>
</a>
</g>
</g>
<!-- Node2&#45;&gt;Node4 -->
<g id="edge3" class="edge">
<title>Node2&#45;&gt;Node4</title>
<path fill="none" stroke="midnightblue" d="M93.66,-56.32C80.84,-47.98 61.22,-35.21 46.06,-25.35"/>
<polygon fill="midnightblue" stroke="midnightblue" points="47.59,-22.17 37.3,-19.65 43.78,-28.04 47.59,-22.17"/>
</g>
<!-- Node5 -->
<g id="node5" class="node">
<title>Node5</title>
<g id="a_node5"><a xlink:title=" ">
<polygon fill="white" stroke="#bfbfbf" points="66.5,-0.5 66.5,-19.5 139.5,-19.5 139.5,-0.5 66.5,-0.5"/>
<text text-anchor="middle" x="103" y="-7.5" font-family="Helvetica,sans-Serif" font-size="10.00">initializer_list</text>
</a>
</g>
</g>
<!-- Node2&#45;&gt;Node5 -->
<g id="edge4" class="edge">
<title>Node2&#45;&gt;Node5</title>
<path fill="none" stroke="midnightblue" d="M106.34,-56.08C105.82,-49.01 105.06,-38.86 104.41,-29.99"/>
<polygon fill="midnightblue" stroke="midnightblue" points="107.88,-29.47 103.65,-19.75 100.9,-29.98 107.88,-29.47"/>
</g>
<!-- Node6&#45;&gt;Node2 -->
<g id="edge9" class="edge">
<title>Node6&#45;&gt;Node2</title>
<path fill="none" stroke="midnightblue" d="M75.27,-112.08C80.64,-104.46 88.52,-93.26 95.08,-83.94"/>
<polygon fill="midnightblue" stroke="midnightblue" points="97.95,-85.94 100.84,-75.75 92.22,-81.91 97.95,-85.94"/>
</g>
<!-- Node6&#45;&gt;Node3 -->
<g id="edge6" class="edge">
<title>Node6&#45;&gt;Node3</title>
<path fill="none" stroke="midnightblue" d="M102.28,-112.36C122.41,-105.56 147.16,-94.12 163,-76 174.33,-63.04 179.57,-43.87 181.97,-29.71"/>
<polygon fill="midnightblue" stroke="midnightblue" points="185.46,-30.02 183.36,-19.63 178.53,-29.06 185.46,-30.02"/>
</g>
<!-- Node6&#45;&gt;Node4 -->
<g id="edge7" class="edge">
<title>Node6&#45;&gt;Node4</title>
<path fill="none" stroke="midnightblue" d="M63.74,-112.26C58.52,-103.36 50.53,-89.04 45,-76 38.49,-60.65 32.79,-42.55 28.98,-29.35"/>
<polygon fill="midnightblue" stroke="midnightblue" points="32.32,-28.28 26.25,-19.59 25.58,-30.16 32.32,-28.28"/>
</g>
<!-- Node6&#45;&gt;Node5 -->
<g id="edge8" class="edge">
<title>Node6&#45;&gt;Node5</title>
<path fill="none" stroke="midnightblue" d="M62.87,-112.28C54.7,-99.52 42.24,-75.17 51,-56 56.78,-43.36 68.05,-32.91 78.63,-25.27"/>
<polygon fill="midnightblue" stroke="midnightblue" points="80.85,-28 87.22,-19.53 76.96,-22.18 80.85,-28"/>
</g>
<!-- Node7&#45;&gt;Node3 -->
<g id="edge11" class="edge">
<title>Node7&#45;&gt;Node3</title>
<path fill="none" stroke="midnightblue" d="M241.91,-56.32C231.51,-48.18 215.74,-35.84 203.28,-26.09"/>
<polygon fill="midnightblue" stroke="midnightblue" points="205.32,-23.24 195.29,-19.83 201.01,-28.75 205.32,-23.24"/>
</g>
<!-- Node7&#45;&gt;Node4 -->
<g id="edge12" class="edge">
<title>Node7&#45;&gt;Node4</title>
<path fill="none" stroke="midnightblue" d="M213.84,-56.5C176.29,-48.24 117.76,-35.08 58.09,-20.2"/>
<polygon fill="midnightblue" stroke="midnightblue" points="58.67,-16.74 48.12,-17.7 56.97,-23.53 58.67,-16.74"/>
</g>
<!-- Node7&#45;&gt;Node5 -->
<g id="edge16" class="edge">
<title>Node7&#45;&gt;Node5</title>
<path fill="none" stroke="midnightblue" d="M229.23,-56.44C204.11,-47.4 164.29,-33.06 136.1,-22.92"/>
<polygon fill="midnightblue" stroke="midnightblue" points="137.25,-19.61 126.66,-19.52 134.88,-26.2 137.25,-19.61"/>
</g>
<!-- Node8 -->
<g id="node8" class="node">
<title>Node8</title>
<g id="a_node8"><a xlink:title=" ">
<polygon fill="white" stroke="#bfbfbf" points="228,-0.5 228,-19.5 274,-19.5 274,-0.5 228,-0.5"/>
<text text-anchor="middle" x="251" y="-7.5" font-family="Helvetica,sans-Serif" font-size="10.00">stdio.h</text>
</a>
</g>
</g>
<!-- Node7&#45;&gt;Node8 -->
<g id="edge13" class="edge">
<title>Node7&#45;&gt;Node8</title>
<path fill="none" stroke="midnightblue" d="M252.67,-56.08C252.41,-49.01 252.03,-38.86 251.7,-29.99"/>
<polygon fill="midnightblue" stroke="midnightblue" points="255.19,-29.61 251.32,-19.75 248.2,-29.87 255.19,-29.61"/>
</g>
<!-- Node9 -->
<g id="node9" class="node">
<title>Node9</title>
<g id="a_node9"><a xlink:title=" ">
<polygon fill="white" stroke="#bfbfbf" points="292.5,-0.5 292.5,-19.5 341.5,-19.5 341.5,-0.5 292.5,-0.5"/>
<text text-anchor="middle" x="317" y="-7.5" font-family="Helvetica,sans-Serif" font-size="10.00">string.h</text>
</a>
</g>
</g>
<!-- Node7&#45;&gt;Node9 -->
<g id="edge14" class="edge">
<title>Node7&#45;&gt;Node9</title>
<path fill="none" stroke="midnightblue" d="M263.28,-56.32C272.84,-48.26 287.28,-36.08 298.78,-26.37"/>
<polygon fill="midnightblue" stroke="midnightblue" points="301.14,-28.96 306.53,-19.83 296.63,-23.61 301.14,-28.96"/>
</g>
<!-- Node10 -->
<g id="node10" class="node">
<title>Node10</title>
<g id="a_node10"><a xlink:title=" ">
<polygon fill="white" stroke="#bfbfbf" points="359.5,-0.5 359.5,-19.5 418.5,-19.5 418.5,-0.5 359.5,-0.5"/>
<text text-anchor="middle" x="389" y="-7.5" font-family="Helvetica,sans-Serif" font-size="10.00">inttypes.h</text>
</a>
</g>
</g>
<!-- Node7&#45;&gt;Node10 -->
<g id="edge15" class="edge">
<title>Node7&#45;&gt;Node10</title>
<path fill="none" stroke="midnightblue" d="M274.55,-56.44C297.03,-47.52 332.49,-33.44 357.98,-23.32"/>
<polygon fill="midnightblue" stroke="midnightblue" points="359.55,-26.46 367.55,-19.52 356.97,-19.95 359.55,-26.46"/>
</g>
</g>
</svg>
