<?xml version="1.0" encoding="UTF-8" standalone="no"?>
<!DOCTYPE svg PUBLIC "-//W3C//DTD SVG 1.1//EN"
 "http://www.w3.org/Graphics/SVG/1.1/DTD/svg11.dtd">
<!-- Generated by graphviz version 2.50.0 (20211204.2007)
 -->
<!-- Title: sml_events.h Pages: 1 -->
<svg width="639pt" height="364pt"
 viewBox="0.00 0.00 638.50 364.00" xmlns="http://www.w3.org/2000/svg" xmlns:xlink="http://www.w3.org/1999/xlink">
<g id="graph0" class="graph" transform="scale(1 1) rotate(0) translate(4 360)">
<title>sml_events.h</title>
<polygon fill="white" stroke="transparent" points="-4,4 -4,-360 634.5,-360 634.5,4 -4,4"/>
<!-- Node1 -->
<g id="node1" class="node">
<title>Node1</title>
<g id="a_node1"><a xlink:title=" ">
<polygon fill="#bfbfbf" stroke="black" points="31.5,-336.5 31.5,-355.5 106.5,-355.5 106.5,-336.5 31.5,-336.5"/>
<text text-anchor="middle" x="69" y="-343.5" font-family="Helvetica,sans-Serif" font-size="10.00">sml_events.h</text>
</a>
</g>
</g>
<!-- Node2 -->
<g id="node2" class="node">
<title>Node2</title>
<g id="a_node2"><a xlink:href="event_8h.html" target="_top" xlink:title=" ">
<polygon fill="white" stroke="black" points="28.5,-112.5 28.5,-131.5 109.5,-131.5 109.5,-112.5 28.5,-112.5"/>
<text text-anchor="middle" x="69" y="-119.5" font-family="Helvetica,sans-Serif" font-size="10.00">events/event.h</text>
</a>
</g>
</g>
<!-- Node1&#45;&gt;Node2 -->
<g id="edge1" class="edge">
<title>Node1&#45;&gt;Node2</title>
<path fill="none" stroke="midnightblue" d="M69,-336.3C69,-303.63 69,-187.87 69,-141.96"/>
<polygon fill="midnightblue" stroke="midnightblue" points="72.5,-141.88 69,-131.88 65.5,-141.88 72.5,-141.88"/>
</g>
<!-- Node4 -->
<g id="node4" class="node">
<title>Node4</title>
<g id="a_node4"><a xlink:href="scancode_8h.html" target="_top" xlink:title=" ">
<polygon fill="white" stroke="black" points="1.5,-56.5 1.5,-75.5 68.5,-75.5 68.5,-56.5 1.5,-56.5"/>
<text text-anchor="middle" x="35" y="-63.5" font-family="Helvetica,sans-Serif" font-size="10.00">scancode.h</text>
</a>
</g>
</g>
<!-- Node1&#45;&gt;Node4 -->
<g id="edge4" class="edge">
<title>Node1&#45;&gt;Node4</title>
<path fill="none" stroke="midnightblue" d="M58.82,-336.46C39.63,-319.35 0,-278.73 0,-235 0,-235 0,-235 0,-177 0,-143.07 15.31,-105.91 25.68,-84.63"/>
<polygon fill="midnightblue" stroke="midnightblue" points="28.88,-86.05 30.28,-75.54 22.64,-82.88 28.88,-86.05"/>
</g>
<!-- Node5 -->
<g id="node5" class="node">
<title>Node5</title>
<g id="a_node5"><a xlink:href="system__event__manager_8h.html" target="_top" xlink:title=" ">
<polygon fill="white" stroke="black" points="142.5,-280.5 142.5,-299.5 303.5,-299.5 303.5,-280.5 142.5,-280.5"/>
<text text-anchor="middle" x="223" y="-287.5" font-family="Helvetica,sans-Serif" font-size="10.00">events/system_event_manager.h</text>
</a>
</g>
</g>
<!-- Node1&#45;&gt;Node5 -->
<g id="edge5" class="edge">
<title>Node1&#45;&gt;Node5</title>
<path fill="none" stroke="midnightblue" d="M93.4,-336.44C119.2,-327.4 160.08,-313.06 189.02,-302.92"/>
<polygon fill="midnightblue" stroke="midnightblue" points="190.43,-306.13 198.71,-299.52 188.12,-299.52 190.43,-306.13"/>
</g>
<!-- Node3 -->
<g id="node3" class="node">
<title>Node3</title>
<g id="a_node3"><a xlink:title=" ">
<polygon fill="white" stroke="#bfbfbf" points="382.5,-0.5 382.5,-19.5 441.5,-19.5 441.5,-0.5 382.5,-0.5"/>
<text text-anchor="middle" x="412" y="-7.5" font-family="Helvetica,sans-Serif" font-size="10.00">inttypes.h</text>
</a>
</g>
</g>
<!-- Node2&#45;&gt;Node3 -->
<g id="edge2" class="edge">
<title>Node2&#45;&gt;Node3</title>
<path fill="none" stroke="midnightblue" d="M95.63,-112.46C156.54,-92.93 306.1,-44.96 375.51,-22.7"/>
<polygon fill="midnightblue" stroke="midnightblue" points="376.7,-26 385.15,-19.61 374.56,-19.33 376.7,-26"/>
</g>
<!-- Node2&#45;&gt;Node4 -->
<g id="edge3" class="edge">
<title>Node2&#45;&gt;Node4</title>
<path fill="none" stroke="midnightblue" d="M63.39,-112.08C58.63,-104.53 51.68,-93.49 45.85,-84.23"/>
<polygon fill="midnightblue" stroke="midnightblue" points="48.8,-82.35 40.51,-75.75 42.88,-86.08 48.8,-82.35"/>
</g>
<!-- Node6 -->
<g id="node6" class="node">
<title>Node6</title>
<g id="a_node6"><a xlink:href="listener__notifier_8h.html" target="_top" xlink:title=" ">
<polygon fill="white" stroke="black" points="215,-168.5 215,-187.5 305,-187.5 305,-168.5 215,-168.5"/>
<text text-anchor="middle" x="260" y="-175.5" font-family="Helvetica,sans-Serif" font-size="10.00">listener_notifier.h</text>
</a>
</g>
</g>
<!-- Node5&#45;&gt;Node6 -->
<g id="edge6" class="edge">
<title>Node5&#45;&gt;Node6</title>
<path fill="none" stroke="midnightblue" d="M225.31,-280.08C228.65,-267.48 235.17,-243.78 242,-224 245.13,-214.94 249.04,-205.03 252.41,-196.83"/>
<polygon fill="midnightblue" stroke="midnightblue" points="255.67,-198.11 256.3,-187.53 249.21,-195.41 255.67,-198.11"/>
</g>
<!-- Node11 -->
<g id="node11" class="node">
<title>Node11</title>
<g id="a_node11"><a xlink:href="system__events_8h.html" target="_top" xlink:title=" ">
<polygon fill="white" stroke="black" points="251,-224.5 251,-243.5 343,-243.5 343,-224.5 251,-224.5"/>
<text text-anchor="middle" x="297" y="-231.5" font-family="Helvetica,sans-Serif" font-size="10.00">system_events.h</text>
</a>
</g>
</g>
<!-- Node5&#45;&gt;Node11 -->
<g id="edge12" class="edge">
<title>Node5&#45;&gt;Node11</title>
<path fill="none" stroke="midnightblue" d="M234.89,-280.32C246.15,-272.11 263.29,-259.6 276.71,-249.81"/>
<polygon fill="midnightblue" stroke="midnightblue" points="278.88,-252.56 284.89,-243.83 274.75,-246.9 278.88,-252.56"/>
</g>
<!-- Node6&#45;&gt;Node2 -->
<g id="edge11" class="edge">
<title>Node6&#45;&gt;Node2</title>
<path fill="none" stroke="midnightblue" d="M229.74,-168.44C197.04,-159.2 144.82,-144.44 108.82,-134.26"/>
<polygon fill="midnightblue" stroke="midnightblue" points="109.7,-130.87 99.12,-131.52 107.79,-137.61 109.7,-130.87"/>
</g>
<!-- Node7 -->
<g id="node7" class="node">
<title>Node7</title>
<g id="a_node7"><a xlink:title=" ">
<polygon fill="white" stroke="#bfbfbf" points="332,-56.5 332,-75.5 384,-75.5 384,-56.5 332,-56.5"/>
<text text-anchor="middle" x="358" y="-63.5" font-family="Helvetica,sans-Serif" font-size="10.00">assert.h</text>
</a>
</g>
</g>
<!-- Node6&#45;&gt;Node7 -->
<g id="edge7" class="edge">
<title>Node6&#45;&gt;Node7</title>
<path fill="none" stroke="midnightblue" d="M303.07,-168.49C323.4,-162.07 345.82,-150.99 358,-132 366.75,-118.36 365.68,-99.57 363.06,-85.7"/>
<polygon fill="midnightblue" stroke="midnightblue" points="366.44,-84.78 360.78,-75.82 359.62,-86.35 366.44,-84.78"/>
</g>
<!-- Node8 -->
<g id="node8" class="node">
<title>Node8</title>
<g id="a_node8"><a xlink:title=" ">
<polygon fill="white" stroke="#bfbfbf" points="127.5,-112.5 127.5,-131.5 200.5,-131.5 200.5,-112.5 127.5,-112.5"/>
<text text-anchor="middle" x="164" y="-119.5" font-family="Helvetica,sans-Serif" font-size="10.00">initializer_list</text>
</a>
</g>
</g>
<!-- Node6&#45;&gt;Node8 -->
<g id="edge8" class="edge">
<title>Node6&#45;&gt;Node8</title>
<path fill="none" stroke="midnightblue" d="M244.58,-168.32C229.46,-159.82 206.18,-146.73 188.53,-136.8"/>
<polygon fill="midnightblue" stroke="midnightblue" points="189.82,-133.51 179.39,-131.65 186.39,-139.61 189.82,-133.51"/>
</g>
<!-- Node9 -->
<g id="node9" class="node">
<title>Node9</title>
<g id="a_node9"><a xlink:title=" ">
<polygon fill="white" stroke="#bfbfbf" points="218.5,-112.5 218.5,-131.5 301.5,-131.5 301.5,-112.5 218.5,-112.5"/>
<text text-anchor="middle" x="260" y="-119.5" font-family="Helvetica,sans-Serif" font-size="10.00">unordered_map</text>
</a>
</g>
</g>
<!-- Node6&#45;&gt;Node9 -->
<g id="edge9" class="edge">
<title>Node6&#45;&gt;Node9</title>
<path fill="none" stroke="midnightblue" d="M260,-168.08C260,-161.01 260,-150.86 260,-141.99"/>
<polygon fill="midnightblue" stroke="midnightblue" points="263.5,-141.75 260,-131.75 256.5,-141.75 263.5,-141.75"/>
</g>
<!-- Node10 -->
<g id="node10" class="node">
<title>Node10</title>
<g id="a_node10"><a xlink:title=" ">
<polygon fill="white" stroke="#bfbfbf" points="319.5,-112.5 319.5,-131.5 348.5,-131.5 348.5,-112.5 319.5,-112.5"/>
<text text-anchor="middle" x="334" y="-119.5" font-family="Helvetica,sans-Serif" font-size="10.00">list</text>
</a>
</g>
</g>
<!-- Node6&#45;&gt;Node10 -->
<g id="edge10" class="edge">
<title>Node6&#45;&gt;Node10</title>
<path fill="none" stroke="midnightblue" d="M271.89,-168.32C283.15,-160.11 300.29,-147.6 313.71,-137.81"/>
<polygon fill="midnightblue" stroke="midnightblue" points="315.88,-140.56 321.89,-131.83 311.75,-134.9 315.88,-140.56"/>
</g>
<!-- Node11&#45;&gt;Node2 -->
<g id="edge13" class="edge">
<title>Node11&#45;&gt;Node2</title>
<path fill="none" stroke="midnightblue" d="M279.11,-224.37C239.32,-205.17 143.29,-158.84 96.1,-136.07"/>
<polygon fill="midnightblue" stroke="midnightblue" points="97.34,-132.78 86.81,-131.59 94.29,-139.09 97.34,-132.78"/>
</g>
<!-- Node11&#45;&gt;Node6 -->
<g id="edge14" class="edge">
<title>Node11&#45;&gt;Node6</title>
<path fill="none" stroke="midnightblue" d="M290.89,-224.08C285.72,-216.53 278.15,-205.49 271.81,-196.23"/>
<polygon fill="midnightblue" stroke="midnightblue" points="274.54,-194.02 266,-187.75 268.76,-197.98 274.54,-194.02"/>
</g>
<!-- Node12 -->
<g id="node12" class="node">
<title>Node12</title>
<g id="a_node12"><a xlink:href="mouse_8h.html" target="_top" xlink:title=" ">
<polygon fill="white" stroke="black" points="442,-168.5 442,-187.5 496,-187.5 496,-168.5 442,-168.5"/>
<text text-anchor="middle" x="469" y="-175.5" font-family="Helvetica,sans-Serif" font-size="10.00">mouse.h</text>
</a>
</g>
</g>
<!-- Node11&#45;&gt;Node12 -->
<g id="edge15" class="edge">
<title>Node11&#45;&gt;Node12</title>
<path fill="none" stroke="midnightblue" d="M324.25,-224.44C353.44,-215.28 399.92,-200.69 432.31,-190.52"/>
<polygon fill="midnightblue" stroke="midnightblue" points="433.38,-193.85 441.87,-187.52 431.28,-187.17 433.38,-193.85"/>
</g>
<!-- Node18 -->
<g id="node18" class="node">
<title>Node18</title>
<g id="a_node18"><a xlink:href="bit_8h.html" target="_top" xlink:title=" ">
<polygon fill="white" stroke="black" points="565.5,-112.5 565.5,-131.5 630.5,-131.5 630.5,-112.5 565.5,-112.5"/>
<text text-anchor="middle" x="598" y="-119.5" font-family="Helvetica,sans-Serif" font-size="10.00">../utils/bit.h</text>
</a>
</g>
</g>
<!-- Node11&#45;&gt;Node18 -->
<g id="edge25" class="edge">
<title>Node11&#45;&gt;Node18</title>
<path fill="none" stroke="midnightblue" d="M343.24,-228.32C386.49,-222.72 452.18,-211.06 505,-188 533.86,-175.4 562.94,-153.2 580.71,-138.29"/>
<polygon fill="midnightblue" stroke="midnightblue" points="583.16,-140.8 588.47,-131.63 578.6,-135.49 583.16,-140.8"/>
</g>
<!-- Node13 -->
<g id="node13" class="node">
<title>Node13</title>
<g id="a_node13"><a xlink:title=" ">
<polygon fill="white" stroke="#bfbfbf" points="503,-112.5 503,-131.5 547,-131.5 547,-112.5 503,-112.5"/>
<text text-anchor="middle" x="525" y="-119.5" font-family="Helvetica,sans-Serif" font-size="10.00">SDL.h</text>
</a>
</g>
</g>
<!-- Node12&#45;&gt;Node13 -->
<g id="edge16" class="edge">
<title>Node12&#45;&gt;Node13</title>
<path fill="none" stroke="midnightblue" d="M478,-168.32C486.19,-160.42 498.51,-148.55 508.47,-138.94"/>
<polygon fill="midnightblue" stroke="midnightblue" points="511.07,-141.29 515.84,-131.83 506.21,-136.26 511.07,-141.29"/>
</g>
<!-- Node14 -->
<g id="node14" class="node">
<title>Node14</title>
<g id="a_node14"><a xlink:href="vec2_8h.html" target="_top" xlink:title=" ">
<polygon fill="white" stroke="black" points="405,-112.5 405,-131.5 485,-131.5 485,-112.5 405,-112.5"/>
<text text-anchor="middle" x="445" y="-119.5" font-family="Helvetica,sans-Serif" font-size="10.00">../math/vec2.h</text>
</a>
</g>
</g>
<!-- Node12&#45;&gt;Node14 -->
<g id="edge17" class="edge">
<title>Node12&#45;&gt;Node14</title>
<path fill="none" stroke="midnightblue" d="M465.04,-168.08C461.79,-160.77 457.08,-150.18 453.05,-141.1"/>
<polygon fill="midnightblue" stroke="midnightblue" points="456.15,-139.47 448.89,-131.75 449.75,-142.31 456.15,-139.47"/>
</g>
<!-- Node12&#45;&gt;Node18 -->
<g id="edge24" class="edge">
<title>Node12&#45;&gt;Node18</title>
<path fill="none" stroke="midnightblue" d="M489.44,-168.44C510.67,-159.56 544.1,-145.56 568.25,-135.45"/>
<polygon fill="midnightblue" stroke="midnightblue" points="569.78,-138.61 577.66,-131.52 567.08,-132.15 569.78,-138.61"/>
</g>
<!-- Node14&#45;&gt;Node3 -->
<g id="edge19" class="edge">
<title>Node14&#45;&gt;Node3</title>
<path fill="none" stroke="midnightblue" d="M442.41,-112.37C437.06,-94.54 424.69,-53.3 417.48,-29.27"/>
<polygon fill="midnightblue" stroke="midnightblue" points="420.8,-28.16 414.58,-19.59 414.1,-30.18 420.8,-28.16"/>
</g>
<!-- Node14&#45;&gt;Node7 -->
<g id="edge18" class="edge">
<title>Node14&#45;&gt;Node7</title>
<path fill="none" stroke="midnightblue" d="M431.02,-112.32C417.45,-103.9 396.62,-90.97 380.68,-81.07"/>
<polygon fill="midnightblue" stroke="midnightblue" points="382.29,-77.95 371.94,-75.65 378.59,-83.9 382.29,-77.95"/>
</g>
<!-- Node15 -->
<g id="node15" class="node">
<title>Node15</title>
<g id="a_node15"><a xlink:title=" ">
<polygon fill="white" stroke="#bfbfbf" points="440.5,-56.5 440.5,-75.5 487.5,-75.5 487.5,-56.5 440.5,-56.5"/>
<text text-anchor="middle" x="464" y="-63.5" font-family="Helvetica,sans-Serif" font-size="10.00">math.h</text>
</a>
</g>
</g>
<!-- Node14&#45;&gt;Node15 -->
<g id="edge20" class="edge">
<title>Node14&#45;&gt;Node15</title>
<path fill="none" stroke="midnightblue" d="M448.14,-112.08C450.68,-104.85 454.36,-94.41 457.53,-85.4"/>
<polygon fill="midnightblue" stroke="midnightblue" points="460.9,-86.35 460.92,-75.75 454.3,-84.02 460.9,-86.35"/>
</g>
<!-- Node16 -->
<g id="node16" class="node">
<title>Node16</title>
<g id="a_node16"><a xlink:href="float__compare_8h.html" target="_top" xlink:title=" ">
<polygon fill="white" stroke="black" points="506,-56.5 506,-75.5 592,-75.5 592,-56.5 506,-56.5"/>
<text text-anchor="middle" x="549" y="-63.5" font-family="Helvetica,sans-Serif" font-size="10.00">float_compare.h</text>
</a>
</g>
</g>
<!-- Node14&#45;&gt;Node16 -->
<g id="edge21" class="edge">
<title>Node14&#45;&gt;Node16</title>
<path fill="none" stroke="midnightblue" d="M461.71,-112.32C478.31,-103.7 504,-90.36 523.22,-80.39"/>
<polygon fill="midnightblue" stroke="midnightblue" points="525.07,-83.37 532.33,-75.65 521.84,-77.16 525.07,-83.37"/>
</g>
<!-- Node16&#45;&gt;Node3 -->
<g id="edge22" class="edge">
<title>Node16&#45;&gt;Node3</title>
<path fill="none" stroke="midnightblue" d="M527.29,-56.44C504.65,-47.52 468.93,-33.44 443.25,-23.32"/>
<polygon fill="midnightblue" stroke="midnightblue" points="444.19,-19.93 433.61,-19.52 441.63,-26.44 444.19,-19.93"/>
</g>
<!-- Node17 -->
<g id="node17" class="node">
<title>Node17</title>
<g id="a_node17"><a xlink:title=" ">
<polygon fill="white" stroke="#bfbfbf" points="527,-0.5 527,-19.5 571,-19.5 571,-0.5 527,-0.5"/>
<text text-anchor="middle" x="549" y="-7.5" font-family="Helvetica,sans-Serif" font-size="10.00">float.h</text>
</a>
</g>
</g>
<!-- Node16&#45;&gt;Node17 -->
<g id="edge23" class="edge">
<title>Node16&#45;&gt;Node17</title>
<path fill="none" stroke="midnightblue" d="M549,-56.08C549,-49.01 549,-38.86 549,-29.99"/>
<polygon fill="midnightblue" stroke="midnightblue" points="552.5,-29.75 549,-19.75 545.5,-29.75 552.5,-29.75"/>
</g>
</g>
</svg>
