<?xml version="1.0" encoding="UTF-8" standalone="no"?>
<!DOCTYPE svg PUBLIC "-//W3C//DTD SVG 1.1//EN"
 "http://www.w3.org/Graphics/SVG/1.1/DTD/svg11.dtd">
<!-- Generated by graphviz version 2.50.0 (20211204.2007)
 -->
<!-- Title: solve_equation.h Pages: 1 -->
<svg width="444pt" height="420pt"
 viewBox="0.00 0.00 443.82 420.00" xmlns="http://www.w3.org/2000/svg" xmlns:xlink="http://www.w3.org/1999/xlink">
<g id="graph0" class="graph" transform="scale(1 1) rotate(0) translate(4 416)">
<title>solve_equation.h</title>
<polygon fill="white" stroke="transparent" points="-4,4 -4,-416 439.82,-416 439.82,4 -4,4"/>
<!-- Node1 -->
<g id="node1" class="node">
<title>Node1</title>
<g id="a_node1"><a xlink:title=" ">
<polygon fill="#bfbfbf" stroke="black" points="279,-392.5 279,-411.5 369,-411.5 369,-392.5 279,-392.5"/>
<text text-anchor="middle" x="324" y="-399.5" font-family="Helvetica,sans-Serif" font-size="10.00">solve_equation.h</text>
</a>
</g>
</g>
<!-- Node2 -->
<g id="node2" class="node">
<title>Node2</title>
<g id="a_node2"><a xlink:href="sml__math_8h.html" target="_top" xlink:title=" ">
<polygon fill="white" stroke="black" points="239,-336.5 239,-355.5 307,-355.5 307,-336.5 239,-336.5"/>
<text text-anchor="middle" x="273" y="-343.5" font-family="Helvetica,sans-Serif" font-size="10.00">sml_math.h</text>
</a>
</g>
</g>
<!-- Node1&#45;&gt;Node2 -->
<g id="edge1" class="edge">
<title>Node1&#45;&gt;Node2</title>
<path fill="none" stroke="midnightblue" d="M308.62,-384.72C299.63,-375.2 288.64,-363.56 281.26,-355.75"/>
<polygon fill="midnightblue" stroke="midnightblue" points="306.17,-387.22 315.58,-392.08 311.26,-382.41 306.17,-387.22"/>
</g>
<!-- Node18 -->
<g id="node18" class="node">
<title>Node18</title>
<g id="a_node18"><a xlink:href="solve__equation_8cpp.html" target="_top" xlink:title=" ">
<polygon fill="white" stroke="black" points="325.5,-336.5 325.5,-355.5 426.5,-355.5 426.5,-336.5 325.5,-336.5"/>
<text text-anchor="middle" x="376" y="-343.5" font-family="Helvetica,sans-Serif" font-size="10.00">solve_equation.cpp</text>
</a>
</g>
</g>
<!-- Node1&#45;&gt;Node18 -->
<g id="edge22" class="edge">
<title>Node1&#45;&gt;Node18</title>
<path fill="none" stroke="midnightblue" d="M339.68,-384.72C348.84,-375.2 360.05,-363.56 367.57,-355.75"/>
<polygon fill="midnightblue" stroke="midnightblue" points="337,-382.45 332.59,-392.08 342.04,-387.31 337,-382.45"/>
</g>
<!-- Node3 -->
<g id="node3" class="node">
<title>Node3</title>
<g id="a_node3"><a xlink:href="renderer_8h.html" target="_top" xlink:title=" ">
<polygon fill="white" stroke="black" points="198.5,-224.5 198.5,-243.5 257.5,-243.5 257.5,-224.5 198.5,-224.5"/>
<text text-anchor="middle" x="228" y="-231.5" font-family="Helvetica,sans-Serif" font-size="10.00">renderer.h</text>
</a>
</g>
</g>
<!-- Node2&#45;&gt;Node3 -->
<g id="edge2" class="edge">
<title>Node2&#45;&gt;Node3</title>
<path fill="none" stroke="midnightblue" d="M265.64,-327C255.82,-303 238.83,-261.47 231.51,-243.59"/>
<polygon fill="midnightblue" stroke="midnightblue" points="262.44,-328.44 269.47,-336.37 268.92,-325.79 262.44,-328.44"/>
</g>
<!-- Node16 -->
<g id="node16" class="node">
<title>Node16</title>
<g id="a_node16"><a xlink:href="texture_8h.html" target="_top" xlink:title="Basic texture management.">
<polygon fill="white" stroke="black" points="285.5,-280.5 285.5,-299.5 340.5,-299.5 340.5,-280.5 285.5,-280.5"/>
<text text-anchor="middle" x="313" y="-287.5" font-family="Helvetica,sans-Serif" font-size="10.00">texture.h</text>
</a>
</g>
</g>
<!-- Node2&#45;&gt;Node16 -->
<g id="edge17" class="edge">
<title>Node2&#45;&gt;Node16</title>
<path fill="none" stroke="midnightblue" d="M285.7,-327.86C292.63,-318.5 300.91,-307.33 306.52,-299.75"/>
<polygon fill="midnightblue" stroke="midnightblue" points="282.75,-325.96 279.61,-336.08 288.37,-330.13 282.75,-325.96"/>
</g>
<!-- Node4 -->
<g id="node4" class="node">
<title>Node4</title>
<g id="a_node4"><a xlink:href="blur_8h.html" target="_top" xlink:title=" ">
<polygon fill="white" stroke="black" points="14,-168.5 14,-187.5 54,-187.5 54,-168.5 14,-168.5"/>
<text text-anchor="middle" x="34" y="-175.5" font-family="Helvetica,sans-Serif" font-size="10.00">blur.h</text>
</a>
</g>
</g>
<!-- Node3&#45;&gt;Node4 -->
<g id="edge3" class="edge">
<title>Node3&#45;&gt;Node4</title>
<path fill="none" stroke="midnightblue" d="M188.23,-221.93C147.46,-210.58 85.7,-193.39 54.13,-184.6"/>
<polygon fill="midnightblue" stroke="midnightblue" points="187.54,-225.37 198.11,-224.68 189.42,-218.63 187.54,-225.37"/>
</g>
<!-- Node6 -->
<g id="node6" class="node">
<title>Node6</title>
<g id="a_node6"><a xlink:href="primitives_8h.html" target="_top" xlink:title=" ">
<polygon fill="white" stroke="black" points="80.5,-168.5 80.5,-187.5 147.5,-187.5 147.5,-168.5 80.5,-168.5"/>
<text text-anchor="middle" x="114" y="-175.5" font-family="Helvetica,sans-Serif" font-size="10.00">primitives.h</text>
</a>
</g>
</g>
<!-- Node3&#45;&gt;Node6 -->
<g id="edge5" class="edge">
<title>Node3&#45;&gt;Node6</title>
<path fill="none" stroke="midnightblue" d="M200.76,-220.1C179.46,-210.01 150.46,-196.27 131.98,-187.52"/>
<polygon fill="midnightblue" stroke="midnightblue" points="199.4,-223.33 209.94,-224.44 202.4,-217 199.4,-223.33"/>
</g>
<!-- Node8 -->
<g id="node8" class="node">
<title>Node8</title>
<g id="a_node8"><a xlink:href="sml__graphics__wrapper_8h.html" target="_top" xlink:title=" ">
<polygon fill="white" stroke="black" points="164,-112.5 164,-131.5 286,-131.5 286,-112.5 164,-112.5"/>
<text text-anchor="middle" x="225" y="-119.5" font-family="Helvetica,sans-Serif" font-size="10.00">sml_graphics_wrapper.h</text>
</a>
</g>
</g>
<!-- Node3&#45;&gt;Node8 -->
<g id="edge12" class="edge">
<title>Node3&#45;&gt;Node8</title>
<path fill="none" stroke="midnightblue" d="M212.29,-216.88C205.57,-208.88 198.49,-198.66 195,-188 188.12,-166.97 205.31,-143.76 216.43,-131.57"/>
<polygon fill="midnightblue" stroke="midnightblue" points="209.7,-219.24 218.98,-224.34 214.9,-214.56 209.7,-219.24"/>
</g>
<!-- Node12 -->
<g id="node12" class="node">
<title>Node12</title>
<g id="a_node12"><a xlink:href="renderer_8cpp.html" target="_top" xlink:title=" ">
<polygon fill="white" stroke="black" points="264,-168.5 264,-187.5 334,-187.5 334,-168.5 264,-168.5"/>
<text text-anchor="middle" x="299" y="-175.5" font-family="Helvetica,sans-Serif" font-size="10.00">renderer.cpp</text>
</a>
</g>
</g>
<!-- Node3&#45;&gt;Node12 -->
<g id="edge11" class="edge">
<title>Node3&#45;&gt;Node12</title>
<path fill="none" stroke="midnightblue" d="M247.59,-218.1C260.37,-208.38 276.61,-196.03 287.39,-187.83"/>
<polygon fill="midnightblue" stroke="midnightblue" points="245.25,-215.48 239.41,-224.32 249.49,-221.06 245.25,-215.48"/>
</g>
<!-- Node13 -->
<g id="node13" class="node">
<title>Node13</title>
<g id="a_node13"><a xlink:href="text_8h.html" target="_top" xlink:title=" ">
<polygon fill="white" stroke="black" points="204.5,-168.5 204.5,-187.5 245.5,-187.5 245.5,-168.5 204.5,-168.5"/>
<text text-anchor="middle" x="225" y="-175.5" font-family="Helvetica,sans-Serif" font-size="10.00">text.h</text>
</a>
</g>
</g>
<!-- Node3&#45;&gt;Node13 -->
<g id="edge13" class="edge">
<title>Node3&#45;&gt;Node13</title>
<path fill="none" stroke="midnightblue" d="M226.93,-213.8C226.44,-204.91 225.88,-194.78 225.49,-187.75"/>
<polygon fill="midnightblue" stroke="midnightblue" points="223.46,-214.29 227.5,-224.08 230.44,-213.9 223.46,-214.29"/>
</g>
<!-- Node15 -->
<g id="node15" class="node">
<title>Node15</title>
<g id="a_node15"><a xlink:href="texture_8cpp.html" target="_top" xlink:title=" ">
<polygon fill="white" stroke="black" points="352.5,-168.5 352.5,-187.5 417.5,-187.5 417.5,-168.5 352.5,-168.5"/>
<text text-anchor="middle" x="385" y="-175.5" font-family="Helvetica,sans-Serif" font-size="10.00">texture.cpp</text>
</a>
</g>
</g>
<!-- Node3&#45;&gt;Node15 -->
<g id="edge16" class="edge">
<title>Node3&#45;&gt;Node15</title>
<path fill="none" stroke="midnightblue" d="M262.39,-221.17C291.95,-211 333.87,-196.59 360.24,-187.52"/>
<polygon fill="midnightblue" stroke="midnightblue" points="261.2,-217.88 252.88,-224.44 263.47,-224.5 261.2,-217.88"/>
</g>
<!-- Node5 -->
<g id="node5" class="node">
<title>Node5</title>
<g id="a_node5"><a xlink:href="blur_8cpp.html" target="_top" xlink:title=" ">
<polygon fill="white" stroke="black" points="0,-112.5 0,-131.5 50,-131.5 50,-112.5 0,-112.5"/>
<text text-anchor="middle" x="25" y="-119.5" font-family="Helvetica,sans-Serif" font-size="10.00">blur.cpp</text>
</a>
</g>
</g>
<!-- Node4&#45;&gt;Node5 -->
<g id="edge4" class="edge">
<title>Node4&#45;&gt;Node5</title>
<path fill="none" stroke="midnightblue" d="M30.85,-158.1C29.36,-149.14 27.64,-138.86 26.46,-131.75"/>
<polygon fill="midnightblue" stroke="midnightblue" points="27.42,-158.79 32.51,-168.08 34.32,-157.64 27.42,-158.79"/>
</g>
<!-- Node7 -->
<g id="node7" class="node">
<title>Node7</title>
<g id="a_node7"><a xlink:href="primitives_8cpp.html" target="_top" xlink:title=" ">
<polygon fill="white" stroke="black" points="68.5,-112.5 68.5,-131.5 145.5,-131.5 145.5,-112.5 68.5,-112.5"/>
<text text-anchor="middle" x="107" y="-119.5" font-family="Helvetica,sans-Serif" font-size="10.00">primitives.cpp</text>
</a>
</g>
</g>
<!-- Node6&#45;&gt;Node7 -->
<g id="edge6" class="edge">
<title>Node6&#45;&gt;Node7</title>
<path fill="none" stroke="midnightblue" d="M111.55,-158.1C110.39,-149.14 109.06,-138.86 108.13,-131.75"/>
<polygon fill="midnightblue" stroke="midnightblue" points="108.09,-158.62 112.84,-168.08 115.03,-157.72 108.09,-158.62"/>
</g>
<!-- Node6&#45;&gt;Node8 -->
<g id="edge7" class="edge">
<title>Node6&#45;&gt;Node8</title>
<path fill="none" stroke="midnightblue" d="M141.01,-163.86C161.59,-153.85 189.34,-140.35 207.21,-131.65"/>
<polygon fill="midnightblue" stroke="midnightblue" points="139.3,-160.8 131.83,-168.32 142.36,-167.1 139.3,-160.8"/>
</g>
<!-- Node9 -->
<g id="node9" class="node">
<title>Node9</title>
<g id="a_node9"><a xlink:href="viewport_8h.html" target="_top" xlink:title=" ">
<polygon fill="white" stroke="black" points="194,-56.5 194,-75.5 256,-75.5 256,-56.5 194,-56.5"/>
<text text-anchor="middle" x="225" y="-63.5" font-family="Helvetica,sans-Serif" font-size="10.00">viewport.h</text>
</a>
</g>
</g>
<!-- Node8&#45;&gt;Node9 -->
<g id="edge8" class="edge">
<title>Node8&#45;&gt;Node9</title>
<path fill="none" stroke="midnightblue" d="M225,-101.8C225,-92.91 225,-82.78 225,-75.75"/>
<polygon fill="midnightblue" stroke="midnightblue" points="221.5,-102.08 225,-112.08 228.5,-102.08 221.5,-102.08"/>
</g>
<!-- Node10 -->
<g id="node10" class="node">
<title>Node10</title>
<g id="a_node10"><a xlink:href="sml__utils_8h.html" target="_top" xlink:title=" ">
<polygon fill="white" stroke="black" points="150,-0.5 150,-19.5 214,-19.5 214,-0.5 150,-0.5"/>
<text text-anchor="middle" x="182" y="-7.5" font-family="Helvetica,sans-Serif" font-size="10.00">sml_utils.h</text>
</a>
</g>
</g>
<!-- Node9&#45;&gt;Node10 -->
<g id="edge9" class="edge">
<title>Node9&#45;&gt;Node10</title>
<path fill="none" stroke="midnightblue" d="M211.58,-48.14C204.09,-38.74 195.06,-27.4 188.97,-19.75"/>
<polygon fill="midnightblue" stroke="midnightblue" points="208.93,-50.44 217.9,-56.08 214.41,-46.08 208.93,-50.44"/>
</g>
<!-- Node11 -->
<g id="node11" class="node">
<title>Node11</title>
<g id="a_node11"><a xlink:href="viewport_8cpp.html" target="_top" xlink:title=" ">
<polygon fill="white" stroke="black" points="232,-0.5 232,-19.5 304,-19.5 304,-0.5 232,-0.5"/>
<text text-anchor="middle" x="268" y="-7.5" font-family="Helvetica,sans-Serif" font-size="10.00">viewport.cpp</text>
</a>
</g>
</g>
<!-- Node9&#45;&gt;Node11 -->
<g id="edge10" class="edge">
<title>Node9&#45;&gt;Node11</title>
<path fill="none" stroke="midnightblue" d="M238.42,-48.14C245.91,-38.74 254.94,-27.4 261.03,-19.75"/>
<polygon fill="midnightblue" stroke="midnightblue" points="235.59,-46.08 232.1,-56.08 241.07,-50.44 235.59,-46.08"/>
</g>
<!-- Node13&#45;&gt;Node8 -->
<g id="edge14" class="edge">
<title>Node13&#45;&gt;Node8</title>
<path fill="none" stroke="midnightblue" d="M225,-157.8C225,-148.91 225,-138.78 225,-131.75"/>
<polygon fill="midnightblue" stroke="midnightblue" points="221.5,-158.08 225,-168.08 228.5,-158.08 221.5,-158.08"/>
</g>
<!-- Node14 -->
<g id="node14" class="node">
<title>Node14</title>
<g id="a_node14"><a xlink:href="text_8cpp.html" target="_top" xlink:title=" ">
<polygon fill="white" stroke="black" points="304,-112.5 304,-131.5 356,-131.5 356,-112.5 304,-112.5"/>
<text text-anchor="middle" x="330" y="-119.5" font-family="Helvetica,sans-Serif" font-size="10.00">text.cpp</text>
</a>
</g>
</g>
<!-- Node13&#45;&gt;Node14 -->
<g id="edge15" class="edge">
<title>Node13&#45;&gt;Node14</title>
<path fill="none" stroke="midnightblue" d="M250.81,-163.73C270.25,-153.73 296.35,-140.31 313.17,-131.65"/>
<polygon fill="midnightblue" stroke="midnightblue" points="249.16,-160.64 241.87,-168.32 252.36,-166.86 249.16,-160.64"/>
</g>
<!-- Node16&#45;&gt;Node3 -->
<g id="edge18" class="edge">
<title>Node16&#45;&gt;Node3</title>
<path fill="none" stroke="midnightblue" d="M290.81,-274.9C275.22,-265 254.87,-252.07 241.62,-243.65"/>
<polygon fill="midnightblue" stroke="midnightblue" points="289.03,-277.92 299.34,-280.32 292.78,-272.01 289.03,-277.92"/>
</g>
<!-- Node16&#45;&gt;Node8 -->
<g id="edge19" class="edge">
<title>Node16&#45;&gt;Node8</title>
<path fill="none" stroke="midnightblue" d="M341.54,-276.15C385.3,-254.71 460.56,-209.85 427,-168 417.69,-156.38 335.75,-140.95 279.14,-131.5"/>
<polygon fill="midnightblue" stroke="midnightblue" points="339.99,-273.02 332.47,-280.48 343,-279.33 339.99,-273.02"/>
</g>
<!-- Node16&#45;&gt;Node15 -->
<g id="edge20" class="edge">
<title>Node16&#45;&gt;Node15</title>
<path fill="none" stroke="midnightblue" d="M330.45,-273.45C338.92,-265.28 348.79,-254.74 356,-244 368.4,-225.53 377.7,-200.9 382.13,-187.9"/>
<polygon fill="midnightblue" stroke="midnightblue" points="327.82,-271.12 322.9,-280.5 332.6,-276.24 327.82,-271.12"/>
</g>
<!-- Node17 -->
<g id="node17" class="node">
<title>Node17</title>
<g id="a_node17"><a xlink:href="window_8cpp.html" target="_top" xlink:title=" ">
<polygon fill="white" stroke="black" points="279.5,-224.5 279.5,-243.5 346.5,-243.5 346.5,-224.5 279.5,-224.5"/>
<text text-anchor="middle" x="313" y="-231.5" font-family="Helvetica,sans-Serif" font-size="10.00">window.cpp</text>
</a>
</g>
</g>
<!-- Node16&#45;&gt;Node17 -->
<g id="edge21" class="edge">
<title>Node16&#45;&gt;Node17</title>
<path fill="none" stroke="midnightblue" d="M313,-269.8C313,-260.91 313,-250.78 313,-243.75"/>
<polygon fill="midnightblue" stroke="midnightblue" points="309.5,-270.08 313,-280.08 316.5,-270.08 309.5,-270.08"/>
</g>
</g>
</svg>
