<?xml version="1.0" encoding="UTF-8" standalone="no"?>
<!DOCTYPE svg PUBLIC "-//W3C//DTD SVG 1.1//EN"
 "http://www.w3.org/Graphics/SVG/1.1/DTD/svg11.dtd">
<!-- Generated by graphviz version 2.50.0 (20211204.2007)
 -->
<!-- Title: solve_equation.cpp Pages: 1 -->
<svg width="388pt" height="140pt"
 viewBox="0.00 0.00 387.50 140.00" xmlns="http://www.w3.org/2000/svg" xmlns:xlink="http://www.w3.org/1999/xlink">
<g id="graph0" class="graph" transform="scale(1 1) rotate(0) translate(4 136)">
<title>solve_equation.cpp</title>
<polygon fill="white" stroke="transparent" points="-4,4 -4,-136 383.5,-136 383.5,4 -4,4"/>
<!-- Node1 -->
<g id="node1" class="node">
<title>Node1</title>
<g id="a_node1"><a xlink:title=" ">
<polygon fill="#bfbfbf" stroke="black" points="92.5,-112.5 92.5,-131.5 193.5,-131.5 193.5,-112.5 92.5,-112.5"/>
<text text-anchor="middle" x="143" y="-119.5" font-family="Helvetica,sans-Serif" font-size="10.00">solve_equation.cpp</text>
</a>
</g>
</g>
<!-- Node2 -->
<g id="node2" class="node">
<title>Node2</title>
<g id="a_node2"><a xlink:title=" ">
<polygon fill="white" stroke="#bfbfbf" points="0,-56.5 0,-75.5 52,-75.5 52,-56.5 0,-56.5"/>
<text text-anchor="middle" x="26" y="-63.5" font-family="Helvetica,sans-Serif" font-size="10.00">assert.h</text>
</a>
</g>
</g>
<!-- Node1&#45;&gt;Node2 -->
<g id="edge1" class="edge">
<title>Node1&#45;&gt;Node2</title>
<path fill="none" stroke="midnightblue" d="M124.46,-112.44C105.38,-103.64 75.43,-89.81 53.56,-79.72"/>
<polygon fill="midnightblue" stroke="midnightblue" points="55,-76.53 44.45,-75.52 52.07,-82.88 55,-76.53"/>
</g>
<!-- Node3 -->
<g id="node3" class="node">
<title>Node3</title>
<g id="a_node3"><a xlink:title=" ">
<polygon fill="white" stroke="#bfbfbf" points="70.5,-56.5 70.5,-75.5 117.5,-75.5 117.5,-56.5 70.5,-56.5"/>
<text text-anchor="middle" x="94" y="-63.5" font-family="Helvetica,sans-Serif" font-size="10.00">math.h</text>
</a>
</g>
</g>
<!-- Node1&#45;&gt;Node3 -->
<g id="edge2" class="edge">
<title>Node1&#45;&gt;Node3</title>
<path fill="none" stroke="midnightblue" d="M134.91,-112.08C127.84,-104.3 117.41,-92.8 108.85,-83.37"/>
<polygon fill="midnightblue" stroke="midnightblue" points="111.25,-80.8 101.94,-75.75 106.07,-85.51 111.25,-80.8"/>
</g>
<!-- Node4 -->
<g id="node4" class="node">
<title>Node4</title>
<g id="a_node4"><a xlink:href="solve__equation_8h.html" target="_top" xlink:title=" ">
<polygon fill="white" stroke="black" points="135.5,-56.5 135.5,-75.5 250.5,-75.5 250.5,-56.5 135.5,-56.5"/>
<text text-anchor="middle" x="193" y="-63.5" font-family="Helvetica,sans-Serif" font-size="10.00">math/solve_equation.h</text>
</a>
</g>
</g>
<!-- Node1&#45;&gt;Node4 -->
<g id="edge3" class="edge">
<title>Node1&#45;&gt;Node4</title>
<path fill="none" stroke="midnightblue" d="M151.26,-112.08C158.46,-104.3 169.11,-92.8 177.85,-83.37"/>
<polygon fill="midnightblue" stroke="midnightblue" points="180.67,-85.47 184.9,-75.75 175.53,-80.71 180.67,-85.47"/>
</g>
<!-- Node6 -->
<g id="node6" class="node">
<title>Node6</title>
<g id="a_node6"><a xlink:href="float__compare_8h.html" target="_top" xlink:title=" ">
<polygon fill="white" stroke="black" points="268.5,-56.5 268.5,-75.5 379.5,-75.5 379.5,-56.5 268.5,-56.5"/>
<text text-anchor="middle" x="324" y="-63.5" font-family="Helvetica,sans-Serif" font-size="10.00">math/float_compare.h</text>
</a>
</g>
</g>
<!-- Node1&#45;&gt;Node6 -->
<g id="edge5" class="edge">
<title>Node1&#45;&gt;Node6</title>
<path fill="none" stroke="midnightblue" d="M171.68,-112.44C202.53,-103.24 251.73,-88.56 285.83,-78.39"/>
<polygon fill="midnightblue" stroke="midnightblue" points="286.87,-81.73 295.45,-75.52 284.87,-75.02 286.87,-81.73"/>
</g>
<!-- Node5 -->
<g id="node5" class="node">
<title>Node5</title>
<g id="a_node5"><a xlink:title=" ">
<polygon fill="white" stroke="#bfbfbf" points="194.5,-0.5 194.5,-19.5 253.5,-19.5 253.5,-0.5 194.5,-0.5"/>
<text text-anchor="middle" x="224" y="-7.5" font-family="Helvetica,sans-Serif" font-size="10.00">inttypes.h</text>
</a>
</g>
</g>
<!-- Node4&#45;&gt;Node5 -->
<g id="edge4" class="edge">
<title>Node4&#45;&gt;Node5</title>
<path fill="none" stroke="midnightblue" d="M198.12,-56.08C202.41,-48.61 208.66,-37.72 213.94,-28.52"/>
<polygon fill="midnightblue" stroke="midnightblue" points="217.03,-30.17 218.98,-19.75 210.96,-26.68 217.03,-30.17"/>
</g>
<!-- Node6&#45;&gt;Node5 -->
<g id="edge6" class="edge">
<title>Node6&#45;&gt;Node5</title>
<path fill="none" stroke="midnightblue" d="M307.93,-56.32C292.04,-47.74 267.49,-34.49 249.04,-24.52"/>
<polygon fill="midnightblue" stroke="midnightblue" points="250.49,-21.33 240.03,-19.65 247.16,-27.49 250.49,-21.33"/>
</g>
<!-- Node7 -->
<g id="node7" class="node">
<title>Node7</title>
<g id="a_node7"><a xlink:title=" ">
<polygon fill="white" stroke="#bfbfbf" points="302,-0.5 302,-19.5 346,-19.5 346,-0.5 302,-0.5"/>
<text text-anchor="middle" x="324" y="-7.5" font-family="Helvetica,sans-Serif" font-size="10.00">float.h</text>
</a>
</g>
</g>
<!-- Node6&#45;&gt;Node7 -->
<g id="edge7" class="edge">
<title>Node6&#45;&gt;Node7</title>
<path fill="none" stroke="midnightblue" d="M324,-56.08C324,-49.01 324,-38.86 324,-29.99"/>
<polygon fill="midnightblue" stroke="midnightblue" points="327.5,-29.75 324,-19.75 320.5,-29.75 327.5,-29.75"/>
</g>
</g>
</svg>
