<?xml version="1.0" encoding="UTF-8" standalone="no"?>
<!DOCTYPE svg PUBLIC "-//W3C//DTD SVG 1.1//EN"
 "http://www.w3.org/Graphics/SVG/1.1/DTD/svg11.dtd">
<!-- Generated by graphviz version 2.50.0 (20211204.2007)
 -->
<!-- Title: Sml::ColorHsv Pages: 1 -->
<svg width="89pt" height="204pt"
 viewBox="0.00 0.00 89.00 204.00" xmlns="http://www.w3.org/2000/svg" xmlns:xlink="http://www.w3.org/1999/xlink">
<g id="graph0" class="graph" transform="scale(1 1) rotate(0) translate(4 200)">
<title>Sml::ColorHsv</title>
<polygon fill="white" stroke="transparent" points="-4,4 -4,-200 85,-200 85,4 -4,4"/>
<!-- Node1 -->
<g id="node1" class="node">
<title>Node1</title>
<g id="a_node1"><a xlink:title=" ">
<polygon fill="#bfbfbf" stroke="black" points="0,-0.5 0,-57.5 81,-57.5 81,-0.5 0,-0.5"/>
<text text-anchor="middle" x="40.5" y="-45.5" font-family="Helvetica,sans-Serif" font-size="10.00">Sml::ColorHsv</text>
<polyline fill="none" stroke="black" points="0,-38.5 81,-38.5 "/>
<text text-anchor="middle" x="40.5" y="-26.5" font-family="Helvetica,sans-Serif" font-size="10.00"> </text>
<polyline fill="none" stroke="black" points="0,-19.5 81,-19.5 "/>
<text text-anchor="middle" x="40.5" y="-7.5" font-family="Helvetica,sans-Serif" font-size="10.00"> </text>
</a>
</g>
</g>
<!-- Node2 -->
<g id="node2" class="node">
<title>Node2</title>
<g id="a_node2"><a xlink:title=" ">
<polygon fill="white" stroke="#bfbfbf" points="23,-138.5 23,-195.5 58,-195.5 58,-138.5 23,-138.5"/>
<text text-anchor="middle" x="40.5" y="-183.5" font-family="Helvetica,sans-Serif" font-size="10.00">float</text>
<polyline fill="none" stroke="#bfbfbf" points="23,-176.5 58,-176.5 "/>
<text text-anchor="middle" x="40.5" y="-164.5" font-family="Helvetica,sans-Serif" font-size="10.00"> </text>
<polyline fill="none" stroke="#bfbfbf" points="23,-157.5 58,-157.5 "/>
<text text-anchor="middle" x="40.5" y="-145.5" font-family="Helvetica,sans-Serif" font-size="10.00"> </text>
</a>
</g>
</g>
<!-- Node2&#45;&gt;Node1 -->
<g id="edge1" class="edge">
<title>Node2&#45;&gt;Node1</title>
<path fill="none" stroke="#404040" d="M40.5,-138.48C40.5,-118.79 40.5,-91.99 40.5,-69.95"/>
<polygon fill="none" stroke="#404040" points="40.5,-69.95 36.5,-63.95 40.5,-57.95 44.5,-63.95 40.5,-69.95"/>
<text text-anchor="middle" x="48" y="-112" font-family="Helvetica,sans-Serif" font-size="10.00"> +a</text>
<text text-anchor="middle" x="48" y="-101" font-family="Helvetica,sans-Serif" font-size="10.00">+h</text>
<text text-anchor="middle" x="48" y="-90" font-family="Helvetica,sans-Serif" font-size="10.00">+s</text>
<text text-anchor="middle" x="48" y="-79" font-family="Helvetica,sans-Serif" font-size="10.00">+v</text>
</g>
</g>
</svg>
