<?xml version="1.0" encoding="UTF-8" standalone="no"?>
<!DOCTYPE svg PUBLIC "-//W3C//DTD SVG 1.1//EN"
 "http://www.w3.org/Graphics/SVG/1.1/DTD/svg11.dtd">
<!-- Generated by graphviz version 2.50.0 (20211204.2007)
 -->
<!-- Title: Sml::Vec4&lt; T &gt; Pages: 1 -->
<svg width="94pt" height="259pt"
 viewBox="0.00 0.00 94.00 259.00" xmlns="http://www.w3.org/2000/svg" xmlns:xlink="http://www.w3.org/1999/xlink">
<g id="graph0" class="graph" transform="scale(1 1) rotate(0) translate(4 255)">
<title>Sml::Vec4&lt; T &gt;</title>
<polygon fill="white" stroke="transparent" points="-4,4 -4,-255 90,-255 90,4 -4,4"/>
<!-- Node1 -->
<g id="node1" class="node">
<title>Node1</title>
<g id="a_node1"><a xlink:title=" ">
<polygon fill="#bfbfbf" stroke="black" points="0,-0.5 0,-112.5 86,-112.5 86,-0.5 0,-0.5"/>
<text text-anchor="middle" x="43" y="-100.5" font-family="Helvetica,sans-Serif" font-size="10.00">Sml::Vec4&lt; T &gt;</text>
<polyline fill="none" stroke="black" points="0,-93.5 86,-93.5 "/>
<text text-anchor="middle" x="43" y="-81.5" font-family="Helvetica,sans-Serif" font-size="10.00"> </text>
<polyline fill="none" stroke="black" points="0,-74.5 86,-74.5 "/>
<text text-anchor="start" x="8" y="-62.5" font-family="Helvetica,sans-Serif" font-size="10.00">+ Vec4()</text>
<text text-anchor="start" x="8" y="-51.5" font-family="Helvetica,sans-Serif" font-size="10.00">+ Vec4()</text>
<text text-anchor="start" x="8" y="-40.5" font-family="Helvetica,sans-Serif" font-size="10.00">+ getCoord()</text>
<text text-anchor="start" x="8" y="-29.5" font-family="Helvetica,sans-Serif" font-size="10.00">+ getCoord()</text>
<text text-anchor="start" x="8" y="-18.5" font-family="Helvetica,sans-Serif" font-size="10.00">+ operator+=()</text>
<text text-anchor="start" x="8" y="-7.5" font-family="Helvetica,sans-Serif" font-size="10.00">and 3 more...</text>
</a>
</g>
</g>
<!-- Node2 -->
<g id="node2" class="node">
<title>Node2</title>
<g id="a_node2"><a xlink:title=" ">
<polygon fill="white" stroke="#bfbfbf" points="28.5,-193.5 28.5,-250.5 57.5,-250.5 57.5,-193.5 28.5,-193.5"/>
<text text-anchor="middle" x="43" y="-238.5" font-family="Helvetica,sans-Serif" font-size="10.00">T</text>
<polyline fill="none" stroke="#bfbfbf" points="28.5,-231.5 57.5,-231.5 "/>
<text text-anchor="middle" x="43" y="-219.5" font-family="Helvetica,sans-Serif" font-size="10.00"> </text>
<polyline fill="none" stroke="#bfbfbf" points="28.5,-212.5 57.5,-212.5 "/>
<text text-anchor="middle" x="43" y="-200.5" font-family="Helvetica,sans-Serif" font-size="10.00"> </text>
</a>
</g>
</g>
<!-- Node2&#45;&gt;Node1 -->
<g id="edge1" class="edge">
<title>Node2&#45;&gt;Node1</title>
<path fill="none" stroke="#404040" d="M43,-193.26C43,-174.49 43,-148.83 43,-124.88"/>
<polygon fill="none" stroke="#404040" points="43,-124.55 39,-118.55 43,-112.55 47,-118.55 43,-124.55"/>
<text text-anchor="middle" x="51.5" y="-167" font-family="Helvetica,sans-Serif" font-size="10.00"> +w</text>
<text text-anchor="middle" x="51.5" y="-156" font-family="Helvetica,sans-Serif" font-size="10.00">+x</text>
<text text-anchor="middle" x="51.5" y="-145" font-family="Helvetica,sans-Serif" font-size="10.00">+y</text>
<text text-anchor="middle" x="51.5" y="-134" font-family="Helvetica,sans-Serif" font-size="10.00">+z</text>
</g>
</g>
</svg>
