<?xml version="1.0" encoding="UTF-8" standalone="no"?>
<!DOCTYPE svg PUBLIC "-//W3C//DTD SVG 1.1//EN"
 "http://www.w3.org/Graphics/SVG/1.1/DTD/svg11.dtd">
<!-- Generated by graphviz version 2.50.0 (20211204.2007)
 -->
<!-- Title: Sml::Viewport Pages: 1 -->
<svg width="203pt" height="590pt"
 viewBox="0.00 0.00 202.50 590.00" xmlns="http://www.w3.org/2000/svg" xmlns:xlink="http://www.w3.org/1999/xlink">
<g id="graph0" class="graph" transform="scale(1 1) rotate(0) translate(4 586)">
<title>Sml::Viewport</title>
<polygon fill="white" stroke="transparent" points="-4,4 -4,-586 198.5,-586 198.5,4 -4,4"/>
<!-- Node1 -->
<g id="node1" class="node">
<title>Node1</title>
<g id="a_node1"><a xlink:title=" ">
<polygon fill="#bfbfbf" stroke="black" points="58.5,-0.5 58.5,-101.5 168.5,-101.5 168.5,-0.5 58.5,-0.5"/>
<text text-anchor="middle" x="113.5" y="-89.5" font-family="Helvetica,sans-Serif" font-size="10.00">Sml::Viewport</text>
<polyline fill="none" stroke="black" points="58.5,-82.5 168.5,-82.5 "/>
<text text-anchor="middle" x="113.5" y="-70.5" font-family="Helvetica,sans-Serif" font-size="10.00"> </text>
<polyline fill="none" stroke="black" points="58.5,-63.5 168.5,-63.5 "/>
<text text-anchor="start" x="66.5" y="-51.5" font-family="Helvetica,sans-Serif" font-size="10.00">+ Viewport()</text>
<text text-anchor="start" x="66.5" y="-40.5" font-family="Helvetica,sans-Serif" font-size="10.00">+ getRelativeWidth()</text>
<text text-anchor="start" x="66.5" y="-29.5" font-family="Helvetica,sans-Serif" font-size="10.00">+ getRelativeHeight()</text>
<text text-anchor="start" x="66.5" y="-18.5" font-family="Helvetica,sans-Serif" font-size="10.00">+ toPixels()</text>
<text text-anchor="start" x="66.5" y="-7.5" font-family="Helvetica,sans-Serif" font-size="10.00">+ toPixels()</text>
</a>
</g>
</g>
<!-- Node2 -->
<g id="node2" class="node">
<title>Node2</title>
<g id="a_node2"><a xlink:href="struct_sml_1_1_vec2.html" target="_top" xlink:title=" ">
<polygon fill="white" stroke="black" points="0,-160.5 0,-294.5 99,-294.5 99,-160.5 0,-160.5"/>
<text text-anchor="middle" x="49.5" y="-282.5" font-family="Helvetica,sans-Serif" font-size="10.00">Sml::Vec2&lt; float &gt;</text>
<polyline fill="none" stroke="black" points="0,-275.5 99,-275.5 "/>
<text text-anchor="start" x="8" y="-263.5" font-family="Helvetica,sans-Serif" font-size="10.00">+ x</text>
<text text-anchor="start" x="8" y="-252.5" font-family="Helvetica,sans-Serif" font-size="10.00">+ y</text>
<polyline fill="none" stroke="black" points="0,-245.5 99,-245.5 "/>
<text text-anchor="start" x="8" y="-233.5" font-family="Helvetica,sans-Serif" font-size="10.00">+ Vec2()</text>
<text text-anchor="start" x="8" y="-222.5" font-family="Helvetica,sans-Serif" font-size="10.00">+ Vec2()</text>
<text text-anchor="start" x="8" y="-211.5" font-family="Helvetica,sans-Serif" font-size="10.00">+ Vec2()</text>
<text text-anchor="start" x="8" y="-200.5" font-family="Helvetica,sans-Serif" font-size="10.00">+ operator+=()</text>
<text text-anchor="start" x="8" y="-189.5" font-family="Helvetica,sans-Serif" font-size="10.00">+ operator&#45;=()</text>
<text text-anchor="start" x="8" y="-178.5" font-family="Helvetica,sans-Serif" font-size="10.00">+ operator*=()</text>
<text text-anchor="start" x="8" y="-167.5" font-family="Helvetica,sans-Serif" font-size="10.00">+ operator/=()</text>
</a>
</g>
</g>
<!-- Node2&#45;&gt;Node1 -->
<g id="edge1" class="edge">
<title>Node2&#45;&gt;Node1</title>
<path fill="none" stroke="#404040" d="M62.72,-160.3C66.24,-146.76 70.49,-132.75 75.5,-120 76.43,-117.64 77.42,-115.26 78.47,-112.88"/>
<polygon fill="none" stroke="#404040" points="78.6,-112.62 77.53,-105.48 83.71,-101.76 84.77,-108.89 78.6,-112.62"/>
<text text-anchor="middle" x="100" y="-134" font-family="Helvetica,sans-Serif" font-size="10.00"> +axesMax</text>
<text text-anchor="middle" x="100" y="-123" font-family="Helvetica,sans-Serif" font-size="10.00">+axesMin</text>
</g>
<!-- Node3 -->
<g id="node3" class="node">
<title>Node3</title>
<g id="a_node3"><a xlink:href="struct_sml_1_1_vec2.html" target="_top" xlink:title=" ">
<polygon fill="white" stroke="black" points="6.5,-342.5 6.5,-465.5 92.5,-465.5 92.5,-342.5 6.5,-342.5"/>
<text text-anchor="middle" x="49.5" y="-453.5" font-family="Helvetica,sans-Serif" font-size="10.00">Sml::Vec2&lt; T &gt;</text>
<polyline fill="none" stroke="black" points="6.5,-446.5 92.5,-446.5 "/>
<text text-anchor="middle" x="49.5" y="-434.5" font-family="Helvetica,sans-Serif" font-size="10.00"> </text>
<polyline fill="none" stroke="black" points="6.5,-427.5 92.5,-427.5 "/>
<text text-anchor="start" x="14.5" y="-415.5" font-family="Helvetica,sans-Serif" font-size="10.00">+ Vec2()</text>
<text text-anchor="start" x="14.5" y="-404.5" font-family="Helvetica,sans-Serif" font-size="10.00">+ Vec2()</text>
<text text-anchor="start" x="14.5" y="-393.5" font-family="Helvetica,sans-Serif" font-size="10.00">+ Vec2()</text>
<text text-anchor="start" x="14.5" y="-382.5" font-family="Helvetica,sans-Serif" font-size="10.00">+ operator+=()</text>
<text text-anchor="start" x="14.5" y="-371.5" font-family="Helvetica,sans-Serif" font-size="10.00">+ operator&#45;=()</text>
<text text-anchor="start" x="14.5" y="-360.5" font-family="Helvetica,sans-Serif" font-size="10.00">+ operator*=()</text>
<text text-anchor="start" x="14.5" y="-349.5" font-family="Helvetica,sans-Serif" font-size="10.00">+ operator/=()</text>
</a>
</g>
</g>
<!-- Node3&#45;&gt;Node2 -->
<g id="edge2" class="edge">
<title>Node3&#45;&gt;Node2</title>
<path fill="none" stroke="orange" d="M49.5,-332.16C49.5,-319.75 49.5,-306.87 49.5,-294.59"/>
<polygon fill="orange" stroke="orange" points="46,-332.46 49.5,-342.46 53,-332.46 46,-332.46"/>
<text text-anchor="middle" x="69.5" y="-316" font-family="Helvetica,sans-Serif" font-size="10.00"> &lt; float &gt;</text>
</g>
<!-- Node4 -->
<g id="node4" class="node">
<title>Node4</title>
<g id="a_node4"><a xlink:title=" ">
<polygon fill="white" stroke="#bfbfbf" points="35,-524.5 35,-581.5 64,-581.5 64,-524.5 35,-524.5"/>
<text text-anchor="middle" x="49.5" y="-569.5" font-family="Helvetica,sans-Serif" font-size="10.00">T</text>
<polyline fill="none" stroke="#bfbfbf" points="35,-562.5 64,-562.5 "/>
<text text-anchor="middle" x="49.5" y="-550.5" font-family="Helvetica,sans-Serif" font-size="10.00"> </text>
<polyline fill="none" stroke="#bfbfbf" points="35,-543.5 64,-543.5 "/>
<text text-anchor="middle" x="49.5" y="-531.5" font-family="Helvetica,sans-Serif" font-size="10.00"> </text>
</a>
</g>
</g>
<!-- Node4&#45;&gt;Node3 -->
<g id="edge3" class="edge">
<title>Node4&#45;&gt;Node3</title>
<path fill="none" stroke="#404040" d="M49.5,-524.35C49.5,-511.03 49.5,-494.37 49.5,-477.76"/>
<polygon fill="none" stroke="#404040" points="49.5,-477.72 45.5,-471.72 49.5,-465.72 53.5,-471.72 49.5,-477.72"/>
<text text-anchor="middle" x="57" y="-498" font-family="Helvetica,sans-Serif" font-size="10.00"> +x</text>
<text text-anchor="middle" x="57" y="-487" font-family="Helvetica,sans-Serif" font-size="10.00">+y</text>
</g>
<!-- Node5 -->
<g id="node5" class="node">
<title>Node5</title>
<g id="a_node5"><a xlink:title=" ">
<polygon fill="white" stroke="#bfbfbf" points="117,-199 117,-256 184,-256 184,-199 117,-199"/>
<text text-anchor="middle" x="150.5" y="-244" font-family="Helvetica,sans-Serif" font-size="10.00">Rectangle&lt;</text>
<polyline fill="none" stroke="#bfbfbf" points="117,-237 184,-237 "/>
<text text-anchor="middle" x="150.5" y="-225" font-family="Helvetica,sans-Serif" font-size="10.00"> </text>
<polyline fill="none" stroke="#bfbfbf" points="117,-218 184,-218 "/>
<text text-anchor="middle" x="150.5" y="-206" font-family="Helvetica,sans-Serif" font-size="10.00"> </text>
</a>
</g>
</g>
<!-- Node5&#45;&gt;Node1 -->
<g id="edge4" class="edge">
<title>Node5&#45;&gt;Node1</title>
<path fill="none" stroke="#404040" d="M144.64,-198.85C139.78,-175.96 132.71,-142.59 126.53,-113.44"/>
<polygon fill="none" stroke="#404040" points="126.52,-113.41 121.36,-108.37 124.03,-101.67 129.19,-106.71 126.52,-113.41"/>
<text text-anchor="middle" x="163" y="-128.5" font-family="Helvetica,sans-Serif" font-size="10.00"> +windowArea</text>
</g>
</g>
</svg>
