<?xml version="1.0" encoding="UTF-8" standalone="no"?>
<!DOCTYPE svg PUBLIC "-//W3C//DTD SVG 1.1//EN"
 "http://www.w3.org/Graphics/SVG/1.1/DTD/svg11.dtd">
<!-- Generated by graphviz version 2.50.0 (20211204.2007)
 -->
<!-- Title: Sml::Circle Pages: 1 -->
<svg width="182pt" height="535pt"
 viewBox="0.00 0.00 182.00 535.00" xmlns="http://www.w3.org/2000/svg" xmlns:xlink="http://www.w3.org/1999/xlink">
<g id="graph0" class="graph" transform="scale(1 1) rotate(0) translate(4 531)">
<title>Sml::Circle</title>
<polygon fill="white" stroke="transparent" points="-4,4 -4,-531 178,-531 178,4 -4,4"/>
<!-- Node1 -->
<g id="node1" class="node">
<title>Node1</title>
<g id="a_node1"><a xlink:title=" ">
<polygon fill="#bfbfbf" stroke="black" points="88.5,-0.5 88.5,-57.5 153.5,-57.5 153.5,-0.5 88.5,-0.5"/>
<text text-anchor="middle" x="121" y="-45.5" font-family="Helvetica,sans-Serif" font-size="10.00">Sml::Circle</text>
<polyline fill="none" stroke="black" points="88.5,-38.5 153.5,-38.5 "/>
<text text-anchor="middle" x="121" y="-26.5" font-family="Helvetica,sans-Serif" font-size="10.00"> </text>
<polyline fill="none" stroke="black" points="88.5,-19.5 153.5,-19.5 "/>
<text text-anchor="start" x="96.5" y="-7.5" font-family="Helvetica,sans-Serif" font-size="10.00">+ Circle()</text>
</a>
</g>
</g>
<!-- Node2 -->
<g id="node2" class="node">
<title>Node2</title>
<g id="a_node2"><a xlink:href="struct_sml_1_1_vec2.html" target="_top" xlink:title=" ">
<polygon fill="white" stroke="black" points="0,-105.5 0,-239.5 110,-239.5 110,-105.5 0,-105.5"/>
<text text-anchor="middle" x="55" y="-227.5" font-family="Helvetica,sans-Serif" font-size="10.00">Sml::Vec2&lt; int32_t &gt;</text>
<polyline fill="none" stroke="black" points="0,-220.5 110,-220.5 "/>
<text text-anchor="start" x="8" y="-208.5" font-family="Helvetica,sans-Serif" font-size="10.00">+ x</text>
<text text-anchor="start" x="8" y="-197.5" font-family="Helvetica,sans-Serif" font-size="10.00">+ y</text>
<polyline fill="none" stroke="black" points="0,-190.5 110,-190.5 "/>
<text text-anchor="start" x="8" y="-178.5" font-family="Helvetica,sans-Serif" font-size="10.00">+ Vec2()</text>
<text text-anchor="start" x="8" y="-167.5" font-family="Helvetica,sans-Serif" font-size="10.00">+ Vec2()</text>
<text text-anchor="start" x="8" y="-156.5" font-family="Helvetica,sans-Serif" font-size="10.00">+ Vec2()</text>
<text text-anchor="start" x="8" y="-145.5" font-family="Helvetica,sans-Serif" font-size="10.00">+ operator+=()</text>
<text text-anchor="start" x="8" y="-134.5" font-family="Helvetica,sans-Serif" font-size="10.00">+ operator&#45;=()</text>
<text text-anchor="start" x="8" y="-123.5" font-family="Helvetica,sans-Serif" font-size="10.00">+ operator*=()</text>
<text text-anchor="start" x="8" y="-112.5" font-family="Helvetica,sans-Serif" font-size="10.00">+ operator/=()</text>
</a>
</g>
</g>
<!-- Node2&#45;&gt;Node1 -->
<g id="edge1" class="edge">
<title>Node2&#45;&gt;Node1</title>
<path fill="none" stroke="#404040" d="M76.86,-105.36C80.85,-95.35 85.26,-85.28 90,-76 91.38,-73.3 92.89,-70.57 94.48,-67.85"/>
<polygon fill="none" stroke="#404040" points="94.53,-67.75 94.3,-60.55 100.86,-57.56 101.1,-64.77 94.53,-67.75"/>
<text text-anchor="middle" x="108.5" y="-79" font-family="Helvetica,sans-Serif" font-size="10.00"> +center</text>
</g>
<!-- Node3 -->
<g id="node3" class="node">
<title>Node3</title>
<g id="a_node3"><a xlink:href="struct_sml_1_1_vec2.html" target="_top" xlink:title=" ">
<polygon fill="white" stroke="black" points="12,-287.5 12,-410.5 98,-410.5 98,-287.5 12,-287.5"/>
<text text-anchor="middle" x="55" y="-398.5" font-family="Helvetica,sans-Serif" font-size="10.00">Sml::Vec2&lt; T &gt;</text>
<polyline fill="none" stroke="black" points="12,-391.5 98,-391.5 "/>
<text text-anchor="middle" x="55" y="-379.5" font-family="Helvetica,sans-Serif" font-size="10.00"> </text>
<polyline fill="none" stroke="black" points="12,-372.5 98,-372.5 "/>
<text text-anchor="start" x="20" y="-360.5" font-family="Helvetica,sans-Serif" font-size="10.00">+ Vec2()</text>
<text text-anchor="start" x="20" y="-349.5" font-family="Helvetica,sans-Serif" font-size="10.00">+ Vec2()</text>
<text text-anchor="start" x="20" y="-338.5" font-family="Helvetica,sans-Serif" font-size="10.00">+ Vec2()</text>
<text text-anchor="start" x="20" y="-327.5" font-family="Helvetica,sans-Serif" font-size="10.00">+ operator+=()</text>
<text text-anchor="start" x="20" y="-316.5" font-family="Helvetica,sans-Serif" font-size="10.00">+ operator&#45;=()</text>
<text text-anchor="start" x="20" y="-305.5" font-family="Helvetica,sans-Serif" font-size="10.00">+ operator*=()</text>
<text text-anchor="start" x="20" y="-294.5" font-family="Helvetica,sans-Serif" font-size="10.00">+ operator/=()</text>
</a>
</g>
</g>
<!-- Node3&#45;&gt;Node2 -->
<g id="edge2" class="edge">
<title>Node3&#45;&gt;Node2</title>
<path fill="none" stroke="orange" d="M55,-277.16C55,-264.75 55,-251.87 55,-239.59"/>
<polygon fill="orange" stroke="orange" points="51.5,-277.46 55,-287.46 58.5,-277.46 51.5,-277.46"/>
<text text-anchor="middle" x="80.5" y="-261" font-family="Helvetica,sans-Serif" font-size="10.00"> &lt; int32_t &gt;</text>
</g>
<!-- Node4 -->
<g id="node4" class="node">
<title>Node4</title>
<g id="a_node4"><a xlink:title=" ">
<polygon fill="white" stroke="#bfbfbf" points="40.5,-469.5 40.5,-526.5 69.5,-526.5 69.5,-469.5 40.5,-469.5"/>
<text text-anchor="middle" x="55" y="-514.5" font-family="Helvetica,sans-Serif" font-size="10.00">T</text>
<polyline fill="none" stroke="#bfbfbf" points="40.5,-507.5 69.5,-507.5 "/>
<text text-anchor="middle" x="55" y="-495.5" font-family="Helvetica,sans-Serif" font-size="10.00"> </text>
<polyline fill="none" stroke="#bfbfbf" points="40.5,-488.5 69.5,-488.5 "/>
<text text-anchor="middle" x="55" y="-476.5" font-family="Helvetica,sans-Serif" font-size="10.00"> </text>
</a>
</g>
</g>
<!-- Node4&#45;&gt;Node3 -->
<g id="edge3" class="edge">
<title>Node4&#45;&gt;Node3</title>
<path fill="none" stroke="#404040" d="M55,-469.35C55,-456.03 55,-439.37 55,-422.76"/>
<polygon fill="none" stroke="#404040" points="55,-422.72 51,-416.72 55,-410.72 59,-416.72 55,-422.72"/>
<text text-anchor="middle" x="62.5" y="-443" font-family="Helvetica,sans-Serif" font-size="10.00"> +x</text>
<text text-anchor="middle" x="62.5" y="-432" font-family="Helvetica,sans-Serif" font-size="10.00">+y</text>
</g>
<!-- Node5 -->
<g id="node5" class="node">
<title>Node5</title>
<g id="a_node5"><a xlink:title=" ">
<polygon fill="white" stroke="#bfbfbf" points="128,-144 128,-201 174,-201 174,-144 128,-144"/>
<text text-anchor="middle" x="151" y="-189" font-family="Helvetica,sans-Serif" font-size="10.00">int32_t</text>
<polyline fill="none" stroke="#bfbfbf" points="128,-182 174,-182 "/>
<text text-anchor="middle" x="151" y="-170" font-family="Helvetica,sans-Serif" font-size="10.00"> </text>
<polyline fill="none" stroke="#bfbfbf" points="128,-163 174,-163 "/>
<text text-anchor="middle" x="151" y="-151" font-family="Helvetica,sans-Serif" font-size="10.00"> </text>
</a>
</g>
</g>
<!-- Node5&#45;&gt;Node1 -->
<g id="edge4" class="edge">
<title>Node5&#45;&gt;Node1</title>
<path fill="none" stroke="#404040" d="M145.14,-143.88C140.64,-122.65 134.36,-93.04 129.34,-69.33"/>
<polygon fill="none" stroke="#404040" points="129.33,-69.29 124.17,-64.25 126.84,-57.55 132,-62.59 129.33,-69.29"/>
<text text-anchor="middle" x="150" y="-79" font-family="Helvetica,sans-Serif" font-size="10.00"> +radius</text>
</g>
</g>
</svg>
