<?xml version="1.0" encoding="UTF-8" standalone="no"?>
<!DOCTYPE svg PUBLIC "-//W3C//DTD SVG 1.1//EN"
 "http://www.w3.org/Graphics/SVG/1.1/DTD/svg11.dtd">
<!-- Generated by graphviz version 2.50.0 (20211204.2007)
 -->
<!-- Title: Sml::Rectangle&lt; T &gt; Pages: 1 -->
<svg width="116pt" height="204pt"
 viewBox="0.00 0.00 116.00 204.00" xmlns="http://www.w3.org/2000/svg" xmlns:xlink="http://www.w3.org/1999/xlink">
<g id="graph0" class="graph" transform="scale(1 1) rotate(0) translate(4 200)">
<title>Sml::Rectangle&lt; T &gt;</title>
<polygon fill="white" stroke="transparent" points="-4,4 -4,-200 112,-200 112,4 -4,4"/>
<!-- Node1 -->
<g id="node1" class="node">
<title>Node1</title>
<g id="a_node1"><a xlink:title=" ">
<polygon fill="#bfbfbf" stroke="black" points="0,-0.5 0,-79.5 108,-79.5 108,-0.5 0,-0.5"/>
<text text-anchor="middle" x="54" y="-67.5" font-family="Helvetica,sans-Serif" font-size="10.00">Sml::Rectangle&lt; T &gt;</text>
<polyline fill="none" stroke="black" points="0,-60.5 108,-60.5 "/>
<text text-anchor="middle" x="54" y="-48.5" font-family="Helvetica,sans-Serif" font-size="10.00"> </text>
<polyline fill="none" stroke="black" points="0,-41.5 108,-41.5 "/>
<text text-anchor="start" x="8" y="-29.5" font-family="Helvetica,sans-Serif" font-size="10.00">+ Rectangle()</text>
<text text-anchor="start" x="8" y="-18.5" font-family="Helvetica,sans-Serif" font-size="10.00">+ Rectangle()</text>
<text text-anchor="start" x="8" y="-7.5" font-family="Helvetica,sans-Serif" font-size="10.00">+ Rectangle()</text>
</a>
</g>
</g>
<!-- Node2 -->
<g id="node2" class="node">
<title>Node2</title>
<g id="a_node2"><a xlink:title=" ">
<polygon fill="white" stroke="#bfbfbf" points="4.5,-138.5 4.5,-195.5 49.5,-195.5 49.5,-138.5 4.5,-138.5"/>
<text text-anchor="middle" x="27" y="-183.5" font-family="Helvetica,sans-Serif" font-size="10.00">Vec2&lt;</text>
<polyline fill="none" stroke="#bfbfbf" points="4.5,-176.5 49.5,-176.5 "/>
<text text-anchor="middle" x="27" y="-164.5" font-family="Helvetica,sans-Serif" font-size="10.00"> </text>
<polyline fill="none" stroke="#bfbfbf" points="4.5,-157.5 49.5,-157.5 "/>
<text text-anchor="middle" x="27" y="-145.5" font-family="Helvetica,sans-Serif" font-size="10.00"> </text>
</a>
</g>
</g>
<!-- Node2&#45;&gt;Node1 -->
<g id="edge1" class="edge">
<title>Node2&#45;&gt;Node1</title>
<path fill="none" stroke="#404040" d="M28.96,-138.32C30.17,-125.9 32.08,-111.11 35,-98 35.48,-95.84 36.01,-93.65 36.58,-91.44"/>
<polygon fill="none" stroke="#404040" points="36.66,-91.18 34.45,-84.32 39.94,-79.64 42.15,-86.51 36.66,-91.18"/>
<text text-anchor="middle" x="47.5" y="-106.5" font-family="Helvetica,sans-Serif" font-size="10.00"> +pos</text>
</g>
<!-- Node3 -->
<g id="node3" class="node">
<title>Node3</title>
<g id="a_node3"><a xlink:title=" ">
<polygon fill="white" stroke="#bfbfbf" points="67.5,-138.5 67.5,-195.5 96.5,-195.5 96.5,-138.5 67.5,-138.5"/>
<text text-anchor="middle" x="82" y="-183.5" font-family="Helvetica,sans-Serif" font-size="10.00">T</text>
<polyline fill="none" stroke="#bfbfbf" points="67.5,-176.5 96.5,-176.5 "/>
<text text-anchor="middle" x="82" y="-164.5" font-family="Helvetica,sans-Serif" font-size="10.00"> </text>
<polyline fill="none" stroke="#bfbfbf" points="67.5,-157.5 96.5,-157.5 "/>
<text text-anchor="middle" x="82" y="-145.5" font-family="Helvetica,sans-Serif" font-size="10.00"> </text>
</a>
</g>
</g>
<!-- Node3&#45;&gt;Node1 -->
<g id="edge2" class="edge">
<title>Node3&#45;&gt;Node1</title>
<path fill="none" stroke="#404040" d="M75.79,-138.26C72.7,-124.5 68.89,-107.45 65.31,-91.49"/>
<polygon fill="none" stroke="#404040" points="65.26,-91.28 60.05,-86.3 62.64,-79.57 67.85,-84.55 65.26,-91.28"/>
<text text-anchor="middle" x="89" y="-112" font-family="Helvetica,sans-Serif" font-size="10.00"> +height</text>
<text text-anchor="middle" x="89" y="-101" font-family="Helvetica,sans-Serif" font-size="10.00">+width</text>
</g>
</g>
</svg>
