<?xml version="1.0" encoding="UTF-8" standalone="no"?>
<!DOCTYPE svg PUBLIC "-//W3C//DTD SVG 1.1//EN"
 "http://www.w3.org/Graphics/SVG/1.1/DTD/svg11.dtd">
<!-- Generated by graphviz version 2.50.0 (20211204.2007)
 -->
<!-- Title: Sml::MouseState Pages: 1 -->
<svg width="198pt" height="215pt"
 viewBox="0.00 0.00 198.00 215.00" xmlns="http://www.w3.org/2000/svg" xmlns:xlink="http://www.w3.org/1999/xlink">
<g id="graph0" class="graph" transform="scale(1 1) rotate(0) translate(4 211)">
<title>Sml::MouseState</title>
<polygon fill="white" stroke="transparent" points="-4,4 -4,-211 194,-211 194,4 -4,4"/>
<!-- Node1 -->
<g id="node1" class="node">
<title>Node1</title>
<g id="a_node1"><a xlink:title=" ">
<polygon fill="#bfbfbf" stroke="black" points="26,-0.5 26,-68.5 124,-68.5 124,-0.5 26,-0.5"/>
<text text-anchor="middle" x="75" y="-56.5" font-family="Helvetica,sans-Serif" font-size="10.00">Sml::MouseState</text>
<polyline fill="none" stroke="black" points="26,-49.5 124,-49.5 "/>
<text text-anchor="middle" x="75" y="-37.5" font-family="Helvetica,sans-Serif" font-size="10.00"> </text>
<polyline fill="none" stroke="black" points="26,-30.5 124,-30.5 "/>
<text text-anchor="start" x="34" y="-18.5" font-family="Helvetica,sans-Serif" font-size="10.00">+ MouseState()</text>
<text text-anchor="start" x="34" y="-7.5" font-family="Helvetica,sans-Serif" font-size="10.00">+ getMouseState()</text>
</a>
</g>
</g>
<!-- Node2 -->
<g id="node2" class="node">
<title>Node2</title>
<g id="a_node2"><a xlink:title=" ">
<polygon fill="white" stroke="#bfbfbf" points="0,-138.5 0,-195.5 46,-195.5 46,-138.5 0,-138.5"/>
<text text-anchor="middle" x="23" y="-183.5" font-family="Helvetica,sans-Serif" font-size="10.00">int32_t</text>
<polyline fill="none" stroke="#bfbfbf" points="0,-176.5 46,-176.5 "/>
<text text-anchor="middle" x="23" y="-164.5" font-family="Helvetica,sans-Serif" font-size="10.00"> </text>
<polyline fill="none" stroke="#bfbfbf" points="0,-157.5 46,-157.5 "/>
<text text-anchor="middle" x="23" y="-145.5" font-family="Helvetica,sans-Serif" font-size="10.00"> </text>
</a>
</g>
</g>
<!-- Node2&#45;&gt;Node1 -->
<g id="edge1" class="edge">
<title>Node2&#45;&gt;Node1</title>
<path fill="none" stroke="#404040" d="M34.03,-138.32C40.77,-121.39 49.56,-99.34 57.27,-80"/>
<polygon fill="none" stroke="#404040" points="57.34,-79.83 55.84,-72.78 61.78,-68.68 63.27,-75.74 57.34,-79.83"/>
<text text-anchor="middle" x="61.5" y="-101" font-family="Helvetica,sans-Serif" font-size="10.00"> +x</text>
<text text-anchor="middle" x="61.5" y="-90" font-family="Helvetica,sans-Serif" font-size="10.00">+y</text>
</g>
<!-- Node3 -->
<g id="node3" class="node">
<title>Node3</title>
<g id="a_node3"><a xlink:href="class_sml_1_1_mouse_buttons_state.html" target="_top" xlink:title=" ">
<polygon fill="white" stroke="black" points="64,-127.5 64,-206.5 190,-206.5 190,-127.5 64,-127.5"/>
<text text-anchor="middle" x="127" y="-194.5" font-family="Helvetica,sans-Serif" font-size="10.00">Sml::MouseButtonsState</text>
<polyline fill="none" stroke="black" points="64,-187.5 190,-187.5 "/>
<text text-anchor="middle" x="127" y="-175.5" font-family="Helvetica,sans-Serif" font-size="10.00"> </text>
<polyline fill="none" stroke="black" points="64,-168.5 190,-168.5 "/>
<text text-anchor="start" x="72" y="-156.5" font-family="Helvetica,sans-Serif" font-size="10.00">+ isButtonDown()</text>
<text text-anchor="start" x="72" y="-145.5" font-family="Helvetica,sans-Serif" font-size="10.00">+ setButton()</text>
<text text-anchor="start" x="72" y="-134.5" font-family="Helvetica,sans-Serif" font-size="10.00">+ resetButton()</text>
</a>
</g>
</g>
<!-- Node3&#45;&gt;Node1 -->
<g id="edge2" class="edge">
<title>Node3&#45;&gt;Node1</title>
<path fill="none" stroke="#404040" d="M111.54,-127.2C105.62,-112.35 98.83,-95.3 92.72,-79.97"/>
<polygon fill="none" stroke="#404040" points="92.65,-79.78 86.71,-75.69 88.2,-68.64 94.14,-72.73 92.65,-79.78"/>
<text text-anchor="middle" x="143" y="-95.5" font-family="Helvetica,sans-Serif" font-size="10.00"> +pressedButtons</text>
</g>
</g>
</svg>
