<?xml version="1.0" encoding="UTF-8" standalone="no"?>
<!DOCTYPE svg PUBLIC "-//W3C//DTD SVG 1.1//EN"
 "http://www.w3.org/Graphics/SVG/1.1/DTD/svg11.dtd">
<!-- Generated by graphviz version 2.50.0 (20211204.2007)
 -->
<!-- Title: Sml::Ray Pages: 1 -->
<svg width="83pt" height="182pt"
 viewBox="0.00 0.00 83.00 182.00" xmlns="http://www.w3.org/2000/svg" xmlns:xlink="http://www.w3.org/1999/xlink">
<g id="graph0" class="graph" transform="scale(1 1) rotate(0) translate(4 178)">
<title>Sml::Ray</title>
<polygon fill="white" stroke="transparent" points="-4,4 -4,-178 79,-178 79,4 -4,4"/>
<!-- Node1 -->
<g id="node1" class="node">
<title>Node1</title>
<g id="a_node1"><a xlink:title=" ">
<polygon fill="#bfbfbf" stroke="black" points="0,-0.5 0,-57.5 58,-57.5 58,-0.5 0,-0.5"/>
<text text-anchor="middle" x="29" y="-45.5" font-family="Helvetica,sans-Serif" font-size="10.00">Sml::Ray</text>
<polyline fill="none" stroke="black" points="0,-38.5 58,-38.5 "/>
<text text-anchor="middle" x="29" y="-26.5" font-family="Helvetica,sans-Serif" font-size="10.00"> </text>
<polyline fill="none" stroke="black" points="0,-19.5 58,-19.5 "/>
<text text-anchor="start" x="8" y="-7.5" font-family="Helvetica,sans-Serif" font-size="10.00">+ at()</text>
</a>
</g>
</g>
<!-- Node2 -->
<g id="node2" class="node">
<title>Node2</title>
<g id="a_node2"><a xlink:title=" ">
<polygon fill="white" stroke="#bfbfbf" points="6.5,-116.5 6.5,-173.5 51.5,-173.5 51.5,-116.5 6.5,-116.5"/>
<text text-anchor="middle" x="29" y="-161.5" font-family="Helvetica,sans-Serif" font-size="10.00">Vec3&lt;</text>
<polyline fill="none" stroke="#bfbfbf" points="6.5,-154.5 51.5,-154.5 "/>
<text text-anchor="middle" x="29" y="-142.5" font-family="Helvetica,sans-Serif" font-size="10.00"> </text>
<polyline fill="none" stroke="#bfbfbf" points="6.5,-135.5 51.5,-135.5 "/>
<text text-anchor="middle" x="29" y="-123.5" font-family="Helvetica,sans-Serif" font-size="10.00"> </text>
</a>
</g>
</g>
<!-- Node2&#45;&gt;Node1 -->
<g id="edge1" class="edge">
<title>Node2&#45;&gt;Node1</title>
<path fill="none" stroke="#404040" d="M29,-116.4C29,-102.5 29,-85.39 29,-70.07"/>
<polygon fill="none" stroke="#404040" points="29,-69.74 25,-63.74 29,-57.74 33,-63.74 29,-69.74"/>
<text text-anchor="middle" x="52" y="-90" font-family="Helvetica,sans-Serif" font-size="10.00"> +direction</text>
<text text-anchor="middle" x="52" y="-79" font-family="Helvetica,sans-Serif" font-size="10.00">+from</text>
</g>
</g>
</svg>
