<?xml version="1.0" encoding="UTF-8" standalone="no"?>
<!DOCTYPE svg PUBLIC "-//W3C//DTD SVG 1.1//EN"
 "http://www.w3.org/Graphics/SVG/1.1/DTD/svg11.dtd">
<!-- Generated by graphviz version 2.50.0 (20211204.2007)
 -->
<!-- Title: Sml::id128_t Pages: 1 -->
<svg width="79pt" height="204pt"
 viewBox="0.00 0.00 79.00 204.00" xmlns="http://www.w3.org/2000/svg" xmlns:xlink="http://www.w3.org/1999/xlink">
<g id="graph0" class="graph" transform="scale(1 1) rotate(0) translate(4 200)">
<title>Sml::id128_t</title>
<polygon fill="white" stroke="transparent" points="-4,4 -4,-200 75,-200 75,4 -4,4"/>
<!-- Node1 -->
<g id="node1" class="node">
<title>Node1</title>
<g id="a_node1"><a xlink:title=" ">
<polygon fill="#bfbfbf" stroke="black" points="0,-0.5 0,-79.5 71,-79.5 71,-0.5 0,-0.5"/>
<text text-anchor="middle" x="35.5" y="-67.5" font-family="Helvetica,sans-Serif" font-size="10.00">Sml::id128_t</text>
<polyline fill="none" stroke="black" points="0,-60.5 71,-60.5 "/>
<text text-anchor="middle" x="35.5" y="-48.5" font-family="Helvetica,sans-Serif" font-size="10.00"> </text>
<polyline fill="none" stroke="black" points="0,-41.5 71,-41.5 "/>
<text text-anchor="start" x="8" y="-29.5" font-family="Helvetica,sans-Serif" font-size="10.00">+ id128_t()</text>
<text text-anchor="start" x="8" y="-18.5" font-family="Helvetica,sans-Serif" font-size="10.00">+ id128_t()</text>
<text text-anchor="start" x="8" y="-7.5" font-family="Helvetica,sans-Serif" font-size="10.00">+ id128_t()</text>
</a>
</g>
</g>
<!-- Node2 -->
<g id="node2" class="node">
<title>Node2</title>
<g id="a_node2"><a xlink:title=" ">
<polygon fill="white" stroke="#bfbfbf" points="10,-138.5 10,-195.5 61,-195.5 61,-138.5 10,-138.5"/>
<text text-anchor="middle" x="35.5" y="-183.5" font-family="Helvetica,sans-Serif" font-size="10.00">uint64_t</text>
<polyline fill="none" stroke="#bfbfbf" points="10,-176.5 61,-176.5 "/>
<text text-anchor="middle" x="35.5" y="-164.5" font-family="Helvetica,sans-Serif" font-size="10.00"> </text>
<polyline fill="none" stroke="#bfbfbf" points="10,-157.5 61,-157.5 "/>
<text text-anchor="middle" x="35.5" y="-145.5" font-family="Helvetica,sans-Serif" font-size="10.00"> </text>
</a>
</g>
</g>
<!-- Node2&#45;&gt;Node1 -->
<g id="edge1" class="edge">
<title>Node2&#45;&gt;Node1</title>
<path fill="none" stroke="#404040" d="M35.5,-138.26C35.5,-124.64 35.5,-107.79 35.5,-91.96"/>
<polygon fill="none" stroke="#404040" points="35.5,-91.57 31.5,-85.57 35.5,-79.57 39.5,-85.57 35.5,-91.57"/>
<text text-anchor="middle" x="49.5" y="-112" font-family="Helvetica,sans-Serif" font-size="10.00"> +high</text>
<text text-anchor="middle" x="49.5" y="-101" font-family="Helvetica,sans-Serif" font-size="10.00">+low</text>
</g>
</g>
</svg>
