<?xml version="1.0" encoding="UTF-8" standalone="no"?>
<!DOCTYPE svg PUBLIC "-//W3C//DTD SVG 1.1//EN"
 "http://www.w3.org/Graphics/SVG/1.1/DTD/svg11.dtd">
<!-- Generated by graphviz version 2.50.0 (20211204.2007)
 -->
<!-- Title: system_event_manager.cpp Pages: 1 -->
<svg width="585pt" height="364pt"
 viewBox="0.00 0.00 585.00 364.00" xmlns="http://www.w3.org/2000/svg" xmlns:xlink="http://www.w3.org/1999/xlink">
<g id="graph0" class="graph" transform="scale(1 1) rotate(0) translate(4 360)">
<title>system_event_manager.cpp</title>
<polygon fill="white" stroke="transparent" points="-4,4 -4,-360 581,-360 581,4 -4,4"/>
<!-- Node1 -->
<g id="node1" class="node">
<title>Node1</title>
<g id="a_node1"><a xlink:title=" ">
<polygon fill="#bfbfbf" stroke="black" points="31,-336.5 31,-355.5 170,-355.5 170,-336.5 31,-336.5"/>
<text text-anchor="middle" x="100.5" y="-343.5" font-family="Helvetica,sans-Serif" font-size="10.00">system_event_manager.cpp</text>
</a>
</g>
</g>
<!-- Node2 -->
<g id="node2" class="node">
<title>Node2</title>
<g id="a_node2"><a xlink:title=" ">
<polygon fill="white" stroke="#bfbfbf" points="6.5,-112.5 6.5,-131.5 50.5,-131.5 50.5,-112.5 6.5,-112.5"/>
<text text-anchor="middle" x="28.5" y="-119.5" font-family="Helvetica,sans-Serif" font-size="10.00">SDL.h</text>
</a>
</g>
</g>
<!-- Node1&#45;&gt;Node2 -->
<g id="edge1" class="edge">
<title>Node1&#45;&gt;Node2</title>
<path fill="none" stroke="midnightblue" d="M97.68,-336.3C87.06,-303.56 49.38,-187.38 34.55,-141.67"/>
<polygon fill="midnightblue" stroke="midnightblue" points="37.8,-140.32 31.38,-131.88 31.14,-142.48 37.8,-140.32"/>
</g>
<!-- Node3 -->
<g id="node3" class="node">
<title>Node3</title>
<g id="a_node3"><a xlink:href="system__event__manager_8h.html" target="_top" xlink:title=" ">
<polygon fill="white" stroke="black" points="130,-280.5 130,-299.5 291,-299.5 291,-280.5 130,-280.5"/>
<text text-anchor="middle" x="210.5" y="-287.5" font-family="Helvetica,sans-Serif" font-size="10.00">events/system_event_manager.h</text>
</a>
</g>
</g>
<!-- Node1&#45;&gt;Node3 -->
<g id="edge2" class="edge">
<title>Node1&#45;&gt;Node3</title>
<path fill="none" stroke="midnightblue" d="M118.17,-336.32C135.89,-327.62 163.4,-314.12 183.79,-304.11"/>
<polygon fill="midnightblue" stroke="midnightblue" points="185.44,-307.2 192.87,-299.65 182.35,-300.92 185.44,-307.2"/>
</g>
<!-- Node4 -->
<g id="node4" class="node">
<title>Node4</title>
<g id="a_node4"><a xlink:href="listener__notifier_8h.html" target="_top" xlink:title=" ">
<polygon fill="white" stroke="black" points="268.5,-168.5 268.5,-187.5 358.5,-187.5 358.5,-168.5 268.5,-168.5"/>
<text text-anchor="middle" x="313.5" y="-175.5" font-family="Helvetica,sans-Serif" font-size="10.00">listener_notifier.h</text>
</a>
</g>
</g>
<!-- Node3&#45;&gt;Node4 -->
<g id="edge3" class="edge">
<title>Node3&#45;&gt;Node4</title>
<path fill="none" stroke="midnightblue" d="M222.6,-280.47C234.26,-271.95 252.06,-258.12 265.5,-244 279.8,-228.97 293.6,-209.62 302.7,-195.95"/>
<polygon fill="midnightblue" stroke="midnightblue" points="305.67,-197.81 308.2,-187.52 299.8,-193.98 305.67,-197.81"/>
</g>
<!-- Node12 -->
<g id="node12" class="node">
<title>Node12</title>
<g id="a_node12"><a xlink:href="system__events_8h.html" target="_top" xlink:title=" ">
<polygon fill="white" stroke="black" points="164.5,-224.5 164.5,-243.5 256.5,-243.5 256.5,-224.5 164.5,-224.5"/>
<text text-anchor="middle" x="210.5" y="-231.5" font-family="Helvetica,sans-Serif" font-size="10.00">system_events.h</text>
</a>
</g>
</g>
<!-- Node3&#45;&gt;Node12 -->
<g id="edge11" class="edge">
<title>Node3&#45;&gt;Node12</title>
<path fill="none" stroke="midnightblue" d="M210.5,-280.08C210.5,-273.01 210.5,-262.86 210.5,-253.99"/>
<polygon fill="midnightblue" stroke="midnightblue" points="214,-253.75 210.5,-243.75 207,-253.75 214,-253.75"/>
</g>
<!-- Node5 -->
<g id="node5" class="node">
<title>Node5</title>
<g id="a_node5"><a xlink:title=" ">
<polygon fill="white" stroke="#bfbfbf" points="207.5,-56.5 207.5,-75.5 259.5,-75.5 259.5,-56.5 207.5,-56.5"/>
<text text-anchor="middle" x="233.5" y="-63.5" font-family="Helvetica,sans-Serif" font-size="10.00">assert.h</text>
</a>
</g>
</g>
<!-- Node4&#45;&gt;Node5 -->
<g id="edge4" class="edge">
<title>Node4&#45;&gt;Node5</title>
<path fill="none" stroke="midnightblue" d="M307.16,-168.39C300.5,-159.34 289.74,-144.69 280.5,-132 268.64,-115.72 255.18,-97.09 245.72,-83.96"/>
<polygon fill="midnightblue" stroke="midnightblue" points="248.55,-81.91 239.87,-75.84 242.87,-86 248.55,-81.91"/>
</g>
<!-- Node6 -->
<g id="node6" class="node">
<title>Node6</title>
<g id="a_node6"><a xlink:title=" ">
<polygon fill="white" stroke="#bfbfbf" points="356,-112.5 356,-131.5 429,-131.5 429,-112.5 356,-112.5"/>
<text text-anchor="middle" x="392.5" y="-119.5" font-family="Helvetica,sans-Serif" font-size="10.00">initializer_list</text>
</a>
</g>
</g>
<!-- Node4&#45;&gt;Node6 -->
<g id="edge5" class="edge">
<title>Node4&#45;&gt;Node6</title>
<path fill="none" stroke="midnightblue" d="M326.19,-168.32C338.4,-159.98 357.08,-147.21 371.5,-137.35"/>
<polygon fill="midnightblue" stroke="midnightblue" points="373.56,-140.19 379.84,-131.65 369.61,-134.41 373.56,-140.19"/>
</g>
<!-- Node7 -->
<g id="node7" class="node">
<title>Node7</title>
<g id="a_node7"><a xlink:title=" ">
<polygon fill="white" stroke="#bfbfbf" points="447,-112.5 447,-131.5 530,-131.5 530,-112.5 447,-112.5"/>
<text text-anchor="middle" x="488.5" y="-119.5" font-family="Helvetica,sans-Serif" font-size="10.00">unordered_map</text>
</a>
</g>
</g>
<!-- Node4&#45;&gt;Node7 -->
<g id="edge6" class="edge">
<title>Node4&#45;&gt;Node7</title>
<path fill="none" stroke="midnightblue" d="M341.23,-168.44C370.93,-159.28 418.22,-144.69 451.17,-134.52"/>
<polygon fill="midnightblue" stroke="midnightblue" points="452.38,-137.81 460.9,-131.52 450.31,-131.12 452.38,-137.81"/>
</g>
<!-- Node8 -->
<g id="node8" class="node">
<title>Node8</title>
<g id="a_node8"><a xlink:title=" ">
<polygon fill="white" stroke="#bfbfbf" points="548,-112.5 548,-131.5 577,-131.5 577,-112.5 548,-112.5"/>
<text text-anchor="middle" x="562.5" y="-119.5" font-family="Helvetica,sans-Serif" font-size="10.00">list</text>
</a>
</g>
</g>
<!-- Node4&#45;&gt;Node8 -->
<g id="edge7" class="edge">
<title>Node4&#45;&gt;Node8</title>
<path fill="none" stroke="midnightblue" d="M358.66,-170.42C402.53,-163.49 471.07,-151.25 537.72,-132.16"/>
<polygon fill="midnightblue" stroke="midnightblue" points="538.92,-135.46 547.54,-129.29 536.96,-128.74 538.92,-135.46"/>
</g>
<!-- Node9 -->
<g id="node9" class="node">
<title>Node9</title>
<g id="a_node9"><a xlink:href="event_8h.html" target="_top" xlink:title=" ">
<polygon fill="white" stroke="black" points="289,-112.5 289,-131.5 338,-131.5 338,-112.5 289,-112.5"/>
<text text-anchor="middle" x="313.5" y="-119.5" font-family="Helvetica,sans-Serif" font-size="10.00">event.h</text>
</a>
</g>
</g>
<!-- Node4&#45;&gt;Node9 -->
<g id="edge8" class="edge">
<title>Node4&#45;&gt;Node9</title>
<path fill="none" stroke="midnightblue" d="M313.5,-168.08C313.5,-161.01 313.5,-150.86 313.5,-141.99"/>
<polygon fill="midnightblue" stroke="midnightblue" points="317,-141.75 313.5,-131.75 310,-141.75 317,-141.75"/>
</g>
<!-- Node10 -->
<g id="node10" class="node">
<title>Node10</title>
<g id="a_node10"><a xlink:title=" ">
<polygon fill="white" stroke="#bfbfbf" points="150,-0.5 150,-19.5 209,-19.5 209,-0.5 150,-0.5"/>
<text text-anchor="middle" x="179.5" y="-7.5" font-family="Helvetica,sans-Serif" font-size="10.00">inttypes.h</text>
</a>
</g>
</g>
<!-- Node9&#45;&gt;Node10 -->
<g id="edge9" class="edge">
<title>Node9&#45;&gt;Node10</title>
<path fill="none" stroke="midnightblue" d="M309.34,-112.4C302.46,-98.91 287.54,-72.59 268.5,-56 252.42,-41.99 231.21,-31.04 213.52,-23.46"/>
<polygon fill="midnightblue" stroke="midnightblue" points="214.7,-20.15 204.12,-19.59 212.04,-26.63 214.7,-20.15"/>
</g>
<!-- Node11 -->
<g id="node11" class="node">
<title>Node11</title>
<g id="a_node11"><a xlink:href="scancode_8h.html" target="_top" xlink:title=" ">
<polygon fill="white" stroke="black" points="316,-56.5 316,-75.5 383,-75.5 383,-56.5 316,-56.5"/>
<text text-anchor="middle" x="349.5" y="-63.5" font-family="Helvetica,sans-Serif" font-size="10.00">scancode.h</text>
</a>
</g>
</g>
<!-- Node9&#45;&gt;Node11 -->
<g id="edge10" class="edge">
<title>Node9&#45;&gt;Node11</title>
<path fill="none" stroke="midnightblue" d="M319.44,-112.08C324.48,-104.53 331.84,-93.49 338.01,-84.23"/>
<polygon fill="midnightblue" stroke="midnightblue" points="341.03,-86.01 343.67,-75.75 335.21,-82.13 341.03,-86.01"/>
</g>
<!-- Node12&#45;&gt;Node4 -->
<g id="edge13" class="edge">
<title>Node12&#45;&gt;Node4</title>
<path fill="none" stroke="midnightblue" d="M227.05,-224.32C243.49,-215.7 268.93,-202.36 287.97,-192.39"/>
<polygon fill="midnightblue" stroke="midnightblue" points="289.76,-195.4 296.99,-187.65 286.51,-189.2 289.76,-195.4"/>
</g>
<!-- Node12&#45;&gt;Node9 -->
<g id="edge12" class="edge">
<title>Node12&#45;&gt;Node9</title>
<path fill="none" stroke="midnightblue" d="M216.25,-224.09C224.86,-211.07 241.96,-186.42 259.5,-168 269.89,-157.09 282.81,-146.24 293.41,-137.93"/>
<polygon fill="midnightblue" stroke="midnightblue" points="295.86,-140.46 301.66,-131.6 291.6,-134.91 295.86,-140.46"/>
</g>
<!-- Node13 -->
<g id="node13" class="node">
<title>Node13</title>
<g id="a_node13"><a xlink:href="mouse_8h.html" target="_top" xlink:title=" ">
<polygon fill="white" stroke="black" points="103.5,-168.5 103.5,-187.5 157.5,-187.5 157.5,-168.5 103.5,-168.5"/>
<text text-anchor="middle" x="130.5" y="-175.5" font-family="Helvetica,sans-Serif" font-size="10.00">mouse.h</text>
</a>
</g>
</g>
<!-- Node12&#45;&gt;Node13 -->
<g id="edge14" class="edge">
<title>Node12&#45;&gt;Node13</title>
<path fill="none" stroke="midnightblue" d="M197.65,-224.32C185.28,-215.98 166.37,-203.21 151.76,-193.35"/>
<polygon fill="midnightblue" stroke="midnightblue" points="153.57,-190.35 143.32,-187.65 149.65,-196.15 153.57,-190.35"/>
</g>
<!-- Node18 -->
<g id="node18" class="node">
<title>Node18</title>
<g id="a_node18"><a xlink:href="bit_8h.html" target="_top" xlink:title=" ">
<polygon fill="white" stroke="black" points="167,-112.5 167,-131.5 232,-131.5 232,-112.5 167,-112.5"/>
<text text-anchor="middle" x="199.5" y="-119.5" font-family="Helvetica,sans-Serif" font-size="10.00">../utils/bit.h</text>
</a>
</g>
</g>
<!-- Node12&#45;&gt;Node18 -->
<g id="edge24" class="edge">
<title>Node12&#45;&gt;Node18</title>
<path fill="none" stroke="midnightblue" d="M209.64,-224.37C207.86,-206.62 203.77,-165.67 201.36,-141.6"/>
<polygon fill="midnightblue" stroke="midnightblue" points="204.84,-141.19 200.36,-131.59 197.87,-141.89 204.84,-141.19"/>
</g>
<!-- Node13&#45;&gt;Node2 -->
<g id="edge15" class="edge">
<title>Node13&#45;&gt;Node2</title>
<path fill="none" stroke="midnightblue" d="M114.11,-168.32C97.83,-159.7 72.63,-146.36 53.78,-136.39"/>
<polygon fill="midnightblue" stroke="midnightblue" points="55.32,-133.24 44.85,-131.65 52.05,-139.43 55.32,-133.24"/>
</g>
<!-- Node14 -->
<g id="node14" class="node">
<title>Node14</title>
<g id="a_node14"><a xlink:href="vec2_8h.html" target="_top" xlink:title=" ">
<polygon fill="white" stroke="black" points="68.5,-112.5 68.5,-131.5 148.5,-131.5 148.5,-112.5 68.5,-112.5"/>
<text text-anchor="middle" x="108.5" y="-119.5" font-family="Helvetica,sans-Serif" font-size="10.00">../math/vec2.h</text>
</a>
</g>
</g>
<!-- Node13&#45;&gt;Node14 -->
<g id="edge16" class="edge">
<title>Node13&#45;&gt;Node14</title>
<path fill="none" stroke="midnightblue" d="M126.87,-168.08C123.89,-160.77 119.57,-150.18 115.88,-141.1"/>
<polygon fill="midnightblue" stroke="midnightblue" points="119.08,-139.69 112.07,-131.75 112.6,-142.33 119.08,-139.69"/>
</g>
<!-- Node13&#45;&gt;Node18 -->
<g id="edge23" class="edge">
<title>Node13&#45;&gt;Node18</title>
<path fill="none" stroke="midnightblue" d="M141.59,-168.32C151.99,-160.18 167.76,-147.84 180.22,-138.09"/>
<polygon fill="midnightblue" stroke="midnightblue" points="182.49,-140.75 188.21,-131.83 178.18,-135.24 182.49,-140.75"/>
</g>
<!-- Node14&#45;&gt;Node5 -->
<g id="edge17" class="edge">
<title>Node14&#45;&gt;Node5</title>
<path fill="none" stroke="midnightblue" d="M128.31,-112.44C148.79,-103.6 180.98,-89.69 204.36,-79.59"/>
<polygon fill="midnightblue" stroke="midnightblue" points="205.99,-82.7 213.79,-75.52 203.22,-76.27 205.99,-82.7"/>
</g>
<!-- Node14&#45;&gt;Node10 -->
<g id="edge18" class="edge">
<title>Node14&#45;&gt;Node10</title>
<path fill="none" stroke="midnightblue" d="M122.42,-112.31C134.2,-104.27 150.69,-91.27 160.5,-76 169.53,-61.93 174.39,-43.44 176.93,-29.78"/>
<polygon fill="midnightblue" stroke="midnightblue" points="180.43,-30.07 178.55,-19.64 173.52,-28.96 180.43,-30.07"/>
</g>
<!-- Node15 -->
<g id="node15" class="node">
<title>Node15</title>
<g id="a_node15"><a xlink:title=" ">
<polygon fill="white" stroke="#bfbfbf" points="0,-56.5 0,-75.5 47,-75.5 47,-56.5 0,-56.5"/>
<text text-anchor="middle" x="23.5" y="-63.5" font-family="Helvetica,sans-Serif" font-size="10.00">math.h</text>
</a>
</g>
</g>
<!-- Node14&#45;&gt;Node15 -->
<g id="edge19" class="edge">
<title>Node14&#45;&gt;Node15</title>
<path fill="none" stroke="midnightblue" d="M94.84,-112.32C81.58,-103.9 61.23,-90.97 45.65,-81.07"/>
<polygon fill="midnightblue" stroke="midnightblue" points="47.44,-78.06 37.12,-75.65 43.69,-83.97 47.44,-78.06"/>
</g>
<!-- Node16 -->
<g id="node16" class="node">
<title>Node16</title>
<g id="a_node16"><a xlink:href="float__compare_8h.html" target="_top" xlink:title=" ">
<polygon fill="white" stroke="black" points="65.5,-56.5 65.5,-75.5 151.5,-75.5 151.5,-56.5 65.5,-56.5"/>
<text text-anchor="middle" x="108.5" y="-63.5" font-family="Helvetica,sans-Serif" font-size="10.00">float_compare.h</text>
</a>
</g>
</g>
<!-- Node14&#45;&gt;Node16 -->
<g id="edge20" class="edge">
<title>Node14&#45;&gt;Node16</title>
<path fill="none" stroke="midnightblue" d="M108.5,-112.08C108.5,-105.01 108.5,-94.86 108.5,-85.99"/>
<polygon fill="midnightblue" stroke="midnightblue" points="112,-85.75 108.5,-75.75 105,-85.75 112,-85.75"/>
</g>
<!-- Node16&#45;&gt;Node10 -->
<g id="edge21" class="edge">
<title>Node16&#45;&gt;Node10</title>
<path fill="none" stroke="midnightblue" d="M119.91,-56.32C130.61,-48.18 146.84,-35.84 159.66,-26.09"/>
<polygon fill="midnightblue" stroke="midnightblue" points="162.04,-28.67 167.89,-19.83 157.81,-23.1 162.04,-28.67"/>
</g>
<!-- Node17 -->
<g id="node17" class="node">
<title>Node17</title>
<g id="a_node17"><a xlink:title=" ">
<polygon fill="white" stroke="#bfbfbf" points="86.5,-0.5 86.5,-19.5 130.5,-19.5 130.5,-0.5 86.5,-0.5"/>
<text text-anchor="middle" x="108.5" y="-7.5" font-family="Helvetica,sans-Serif" font-size="10.00">float.h</text>
</a>
</g>
</g>
<!-- Node16&#45;&gt;Node17 -->
<g id="edge22" class="edge">
<title>Node16&#45;&gt;Node17</title>
<path fill="none" stroke="midnightblue" d="M108.5,-56.08C108.5,-49.01 108.5,-38.86 108.5,-29.99"/>
<polygon fill="midnightblue" stroke="midnightblue" points="112,-29.75 108.5,-19.75 105,-29.75 112,-29.75"/>
</g>
</g>
</svg>
