<?xml version="1.0" encoding="UTF-8" standalone="no"?>
<!DOCTYPE svg PUBLIC "-//W3C//DTD SVG 1.1//EN"
 "http://www.w3.org/Graphics/SVG/1.1/DTD/svg11.dtd">
<!-- Generated by graphviz version 2.50.0 (20211204.2007)
 -->
<!-- Title: texture.h Pages: 1 -->
<svg width="826pt" height="364pt"
 viewBox="0.00 0.00 826.17 364.00" xmlns="http://www.w3.org/2000/svg" xmlns:xlink="http://www.w3.org/1999/xlink">
<g id="graph0" class="graph" transform="scale(1 1) rotate(0) translate(4 360)">
<title>texture.h</title>
<polygon fill="white" stroke="transparent" points="-4,4 -4,-360 822.17,-360 822.17,4 -4,4"/>
<!-- Node1 -->
<g id="node1" class="node">
<title>Node1</title>
<g id="a_node1"><a xlink:title="Basic texture management.">
<polygon fill="#bfbfbf" stroke="black" points="260,-336.5 260,-355.5 315,-355.5 315,-336.5 260,-336.5"/>
<text text-anchor="middle" x="287.5" y="-343.5" font-family="Helvetica,sans-Serif" font-size="10.00">texture.h</text>
</a>
</g>
</g>
<!-- Node2 -->
<g id="node2" class="node">
<title>Node2</title>
<g id="a_node2"><a xlink:title=" ">
<polygon fill="white" stroke="#bfbfbf" points="265.5,-168.5 265.5,-187.5 309.5,-187.5 309.5,-168.5 265.5,-168.5"/>
<text text-anchor="middle" x="287.5" y="-175.5" font-family="Helvetica,sans-Serif" font-size="10.00">SDL.h</text>
</a>
</g>
</g>
<!-- Node1&#45;&gt;Node2 -->
<g id="edge1" class="edge">
<title>Node1&#45;&gt;Node2</title>
<path fill="none" stroke="midnightblue" d="M287.5,-336.08C287.5,-309.95 287.5,-233.21 287.5,-197.58"/>
<polygon fill="midnightblue" stroke="midnightblue" points="291,-197.57 287.5,-187.57 284,-197.57 291,-197.57"/>
</g>
<!-- Node3 -->
<g id="node3" class="node">
<title>Node3</title>
<g id="a_node3"><a xlink:href="color_8h.html" target="_top" xlink:title=" ">
<polygon fill="white" stroke="black" points="159,-280.5 159,-299.5 204,-299.5 204,-280.5 159,-280.5"/>
<text text-anchor="middle" x="181.5" y="-287.5" font-family="Helvetica,sans-Serif" font-size="10.00">color.h</text>
</a>
</g>
</g>
<!-- Node1&#45;&gt;Node3 -->
<g id="edge2" class="edge">
<title>Node1&#45;&gt;Node3</title>
<path fill="none" stroke="midnightblue" d="M270.47,-336.32C253.47,-327.66 227.12,-314.24 207.51,-304.25"/>
<polygon fill="midnightblue" stroke="midnightblue" points="208.99,-301.08 198.49,-299.65 205.81,-307.31 208.99,-301.08"/>
</g>
<!-- Node14 -->
<g id="node14" class="node">
<title>Node14</title>
<g id="a_node14"><a xlink:href="sml__math_8h.html" target="_top" xlink:title=" ">
<polygon fill="white" stroke="black" points="564,-280.5 564,-299.5 641,-299.5 641,-280.5 564,-280.5"/>
<text text-anchor="middle" x="602.5" y="-287.5" font-family="Helvetica,sans-Serif" font-size="10.00">../sml_math.h</text>
</a>
</g>
</g>
<!-- Node1&#45;&gt;Node14 -->
<g id="edge19" class="edge">
<title>Node1&#45;&gt;Node14</title>
<path fill="none" stroke="midnightblue" d="M315.18,-340.26C368.73,-331.08 487.11,-310.78 554.01,-299.31"/>
<polygon fill="midnightblue" stroke="midnightblue" points="554.62,-302.76 563.89,-297.62 553.44,-295.86 554.62,-302.76"/>
</g>
<!-- Node3&#45;&gt;Node2 -->
<g id="edge4" class="edge">
<title>Node3&#45;&gt;Node2</title>
<path fill="none" stroke="midnightblue" d="M191.55,-280.34C201.67,-271.49 217.58,-257.22 230.5,-244 245.99,-228.15 262.57,-208.96 273.84,-195.56"/>
<polygon fill="midnightblue" stroke="midnightblue" points="276.69,-197.6 280.4,-187.68 271.31,-193.12 276.69,-197.6"/>
</g>
<!-- Node4 -->
<g id="node4" class="node">
<title>Node4</title>
<g id="a_node4"><a xlink:title=" ">
<polygon fill="white" stroke="#bfbfbf" points="0,-224.5 0,-243.5 49,-243.5 49,-224.5 0,-224.5"/>
<text text-anchor="middle" x="24.5" y="-231.5" font-family="Helvetica,sans-Serif" font-size="10.00">stdint.h</text>
</a>
</g>
</g>
<!-- Node3&#45;&gt;Node4 -->
<g id="edge3" class="edge">
<title>Node3&#45;&gt;Node4</title>
<path fill="none" stroke="midnightblue" d="M158.67,-281.15C132.46,-272.13 89.2,-257.25 58.9,-246.83"/>
<polygon fill="midnightblue" stroke="midnightblue" points="59.76,-243.43 49.17,-243.49 57.49,-250.05 59.76,-243.43"/>
</g>
<!-- Node5 -->
<g id="node5" class="node">
<title>Node5</title>
<g id="a_node5"><a xlink:title=" ">
<polygon fill="white" stroke="#bfbfbf" points="67.5,-224.5 67.5,-243.5 123.5,-243.5 123.5,-224.5 67.5,-224.5"/>
<text text-anchor="middle" x="95.5" y="-231.5" font-family="Helvetica,sans-Serif" font-size="10.00">algorithm</text>
</a>
</g>
</g>
<!-- Node3&#45;&gt;Node5 -->
<g id="edge5" class="edge">
<title>Node3&#45;&gt;Node5</title>
<path fill="none" stroke="midnightblue" d="M167.68,-280.32C154.27,-271.9 133.68,-258.97 117.91,-249.07"/>
<polygon fill="midnightblue" stroke="midnightblue" points="119.61,-246.01 109.28,-243.65 115.89,-251.94 119.61,-246.01"/>
</g>
<!-- Node6 -->
<g id="node6" class="node">
<title>Node6</title>
<g id="a_node6"><a xlink:href="vec4_8h.html" target="_top" xlink:title=" ">
<polygon fill="white" stroke="black" points="141.5,-224.5 141.5,-243.5 221.5,-243.5 221.5,-224.5 141.5,-224.5"/>
<text text-anchor="middle" x="181.5" y="-231.5" font-family="Helvetica,sans-Serif" font-size="10.00">../math/vec4.h</text>
</a>
</g>
</g>
<!-- Node3&#45;&gt;Node6 -->
<g id="edge6" class="edge">
<title>Node3&#45;&gt;Node6</title>
<path fill="none" stroke="midnightblue" d="M181.5,-280.08C181.5,-273.01 181.5,-262.86 181.5,-253.99"/>
<polygon fill="midnightblue" stroke="midnightblue" points="185,-253.75 181.5,-243.75 178,-253.75 185,-253.75"/>
</g>
<!-- Node7 -->
<g id="node7" class="node">
<title>Node7</title>
<g id="a_node7"><a xlink:title=" ">
<polygon fill="white" stroke="#bfbfbf" points="391.5,-56.5 391.5,-75.5 443.5,-75.5 443.5,-56.5 391.5,-56.5"/>
<text text-anchor="middle" x="417.5" y="-63.5" font-family="Helvetica,sans-Serif" font-size="10.00">assert.h</text>
</a>
</g>
</g>
<!-- Node6&#45;&gt;Node7 -->
<g id="edge7" class="edge">
<title>Node6&#45;&gt;Node7</title>
<path fill="none" stroke="midnightblue" d="M190.81,-224.09C204.62,-211.09 231.57,-186.45 256.5,-168 302.85,-133.7 360.94,-99.16 393.15,-80.7"/>
<polygon fill="midnightblue" stroke="midnightblue" points="394.94,-83.71 401.89,-75.71 391.47,-77.62 394.94,-83.71"/>
</g>
<!-- Node8 -->
<g id="node8" class="node">
<title>Node8</title>
<g id="a_node8"><a xlink:title=" ">
<polygon fill="white" stroke="#bfbfbf" points="326,-56.5 326,-75.5 373,-75.5 373,-56.5 326,-56.5"/>
<text text-anchor="middle" x="349.5" y="-63.5" font-family="Helvetica,sans-Serif" font-size="10.00">math.h</text>
</a>
</g>
</g>
<!-- Node6&#45;&gt;Node8 -->
<g id="edge8" class="edge">
<title>Node6&#45;&gt;Node8</title>
<path fill="none" stroke="midnightblue" d="M181.25,-224.37C181.12,-202.51 183.82,-144.43 214.5,-112 240.93,-84.07 285.12,-73.46 315.71,-69.45"/>
<polygon fill="midnightblue" stroke="midnightblue" points="316.37,-72.89 325.91,-68.28 315.58,-65.94 316.37,-72.89"/>
</g>
<!-- Node9 -->
<g id="node9" class="node">
<title>Node9</title>
<g id="a_node9"><a xlink:href="vec3_8h.html" target="_top" xlink:title=" ">
<polygon fill="white" stroke="black" points="387.5,-168.5 387.5,-187.5 433.5,-187.5 433.5,-168.5 387.5,-168.5"/>
<text text-anchor="middle" x="410.5" y="-175.5" font-family="Helvetica,sans-Serif" font-size="10.00">vec3.h</text>
</a>
</g>
</g>
<!-- Node6&#45;&gt;Node9 -->
<g id="edge9" class="edge">
<title>Node6&#45;&gt;Node9</title>
<path fill="none" stroke="midnightblue" d="M217.79,-224.44C261.71,-214.09 335.05,-196.79 377.46,-186.79"/>
<polygon fill="midnightblue" stroke="midnightblue" points="378.36,-190.18 387.29,-184.47 376.75,-183.36 378.36,-190.18"/>
</g>
<!-- Node9&#45;&gt;Node7 -->
<g id="edge10" class="edge">
<title>Node9&#45;&gt;Node7</title>
<path fill="none" stroke="midnightblue" d="M411.05,-168.37C412.18,-150.62 414.78,-109.67 416.32,-85.6"/>
<polygon fill="midnightblue" stroke="midnightblue" points="419.81,-85.79 416.95,-75.59 412.83,-85.35 419.81,-85.79"/>
</g>
<!-- Node9&#45;&gt;Node8 -->
<g id="edge11" class="edge">
<title>Node9&#45;&gt;Node8</title>
<path fill="none" stroke="midnightblue" d="M405.71,-168.37C395.74,-150.38 372.54,-108.55 359.27,-84.63"/>
<polygon fill="midnightblue" stroke="midnightblue" points="362.17,-82.64 354.26,-75.59 356.05,-86.03 362.17,-82.64"/>
</g>
<!-- Node10 -->
<g id="node10" class="node">
<title>Node10</title>
<g id="a_node10"><a xlink:href="vec2_8h.html" target="_top" xlink:title=" ">
<polygon fill="white" stroke="black" points="438.5,-112.5 438.5,-131.5 484.5,-131.5 484.5,-112.5 438.5,-112.5"/>
<text text-anchor="middle" x="461.5" y="-119.5" font-family="Helvetica,sans-Serif" font-size="10.00">vec2.h</text>
</a>
</g>
</g>
<!-- Node9&#45;&gt;Node10 -->
<g id="edge12" class="edge">
<title>Node9&#45;&gt;Node10</title>
<path fill="none" stroke="midnightblue" d="M418.92,-168.08C426.35,-160.22 437.35,-148.57 446.31,-139.08"/>
<polygon fill="midnightblue" stroke="midnightblue" points="448.91,-141.42 453.24,-131.75 443.82,-136.62 448.91,-141.42"/>
</g>
<!-- Node10&#45;&gt;Node7 -->
<g id="edge13" class="edge">
<title>Node10&#45;&gt;Node7</title>
<path fill="none" stroke="midnightblue" d="M454.23,-112.08C447.96,-104.38 438.71,-93.03 431.07,-83.65"/>
<polygon fill="midnightblue" stroke="midnightblue" points="433.66,-81.29 424.63,-75.75 428.23,-85.71 433.66,-81.29"/>
</g>
<!-- Node10&#45;&gt;Node8 -->
<g id="edge15" class="edge">
<title>Node10&#45;&gt;Node8</title>
<path fill="none" stroke="midnightblue" d="M443.51,-112.32C425.46,-103.62 397.45,-90.12 376.7,-80.11"/>
<polygon fill="midnightblue" stroke="midnightblue" points="377.98,-76.84 367.45,-75.65 374.94,-83.15 377.98,-76.84"/>
</g>
<!-- Node11 -->
<g id="node11" class="node">
<title>Node11</title>
<g id="a_node11"><a xlink:title=" ">
<polygon fill="white" stroke="#bfbfbf" points="572,-0.5 572,-19.5 631,-19.5 631,-0.5 572,-0.5"/>
<text text-anchor="middle" x="601.5" y="-7.5" font-family="Helvetica,sans-Serif" font-size="10.00">inttypes.h</text>
</a>
</g>
</g>
<!-- Node10&#45;&gt;Node11 -->
<g id="edge14" class="edge">
<title>Node10&#45;&gt;Node11</title>
<path fill="none" stroke="midnightblue" d="M472.49,-112.37C496.31,-93.65 552.94,-49.15 582.62,-25.83"/>
<polygon fill="midnightblue" stroke="midnightblue" points="584.86,-28.52 590.57,-19.59 580.54,-23.02 584.86,-28.52"/>
</g>
<!-- Node12 -->
<g id="node12" class="node">
<title>Node12</title>
<g id="a_node12"><a xlink:href="float__compare_8h.html" target="_top" xlink:title=" ">
<polygon fill="white" stroke="black" points="629.5,-56.5 629.5,-75.5 715.5,-75.5 715.5,-56.5 629.5,-56.5"/>
<text text-anchor="middle" x="672.5" y="-63.5" font-family="Helvetica,sans-Serif" font-size="10.00">float_compare.h</text>
</a>
</g>
</g>
<!-- Node10&#45;&gt;Node12 -->
<g id="edge16" class="edge">
<title>Node10&#45;&gt;Node12</title>
<path fill="none" stroke="midnightblue" d="M484.89,-115.01C519.63,-106.12 585.46,-89.28 629.16,-78.09"/>
<polygon fill="midnightblue" stroke="midnightblue" points="630.13,-81.46 638.95,-75.59 628.39,-74.68 630.13,-81.46"/>
</g>
<!-- Node12&#45;&gt;Node11 -->
<g id="edge17" class="edge">
<title>Node12&#45;&gt;Node11</title>
<path fill="none" stroke="midnightblue" d="M661.09,-56.32C650.39,-48.18 634.16,-35.84 621.34,-26.09"/>
<polygon fill="midnightblue" stroke="midnightblue" points="623.19,-23.1 613.11,-19.83 618.96,-28.67 623.19,-23.1"/>
</g>
<!-- Node13 -->
<g id="node13" class="node">
<title>Node13</title>
<g id="a_node13"><a xlink:title=" ">
<polygon fill="white" stroke="#bfbfbf" points="650.5,-0.5 650.5,-19.5 694.5,-19.5 694.5,-0.5 650.5,-0.5"/>
<text text-anchor="middle" x="672.5" y="-7.5" font-family="Helvetica,sans-Serif" font-size="10.00">float.h</text>
</a>
</g>
</g>
<!-- Node12&#45;&gt;Node13 -->
<g id="edge18" class="edge">
<title>Node12&#45;&gt;Node13</title>
<path fill="none" stroke="midnightblue" d="M672.5,-56.08C672.5,-49.01 672.5,-38.86 672.5,-29.99"/>
<polygon fill="midnightblue" stroke="midnightblue" points="676,-29.75 672.5,-19.75 669,-29.75 676,-29.75"/>
</g>
<!-- Node14&#45;&gt;Node9 -->
<g id="edge32" class="edge">
<title>Node14&#45;&gt;Node9</title>
<path fill="none" stroke="midnightblue" d="M602.53,-280.49C602.11,-266.64 599.19,-239.23 583.5,-224 545.84,-187.45 482.45,-179.55 443.75,-178.4"/>
<polygon fill="midnightblue" stroke="midnightblue" points="443.59,-174.9 433.53,-178.24 443.48,-181.9 443.59,-174.9"/>
</g>
<!-- Node14&#45;&gt;Node10 -->
<g id="edge31" class="edge">
<title>Node14&#45;&gt;Node10</title>
<path fill="none" stroke="midnightblue" d="M605.27,-280.42C608.95,-267.4 613.95,-242.25 604.5,-224 581.47,-179.54 528.86,-150.48 494.28,-135.4"/>
<polygon fill="midnightblue" stroke="midnightblue" points="495.19,-131.99 484.61,-131.35 492.48,-138.44 495.19,-131.99"/>
</g>
<!-- Node14&#45;&gt;Node12 -->
<g id="edge20" class="edge">
<title>Node14&#45;&gt;Node12</title>
<path fill="none" stroke="midnightblue" d="M641.06,-286.07C694.09,-281.16 785.28,-269.2 805.5,-244 853.29,-184.46 746.84,-110.75 696.74,-80.71"/>
<polygon fill="midnightblue" stroke="midnightblue" points="698.48,-77.67 688.09,-75.62 694.93,-83.71 698.48,-77.67"/>
</g>
<!-- Node15 -->
<g id="node15" class="node">
<title>Node15</title>
<g id="a_node15"><a xlink:href="geometry_8h.html" target="_top" xlink:title=" ">
<polygon fill="white" stroke="black" points="707,-224.5 707,-243.5 796,-243.5 796,-224.5 707,-224.5"/>
<text text-anchor="middle" x="751.5" y="-231.5" font-family="Helvetica,sans-Serif" font-size="10.00">math/geometry.h</text>
</a>
</g>
</g>
<!-- Node14&#45;&gt;Node15 -->
<g id="edge21" class="edge">
<title>Node14&#45;&gt;Node15</title>
<path fill="none" stroke="midnightblue" d="M626.11,-280.44C650.96,-271.44 690.27,-257.19 718.25,-247.05"/>
<polygon fill="midnightblue" stroke="midnightblue" points="719.79,-250.21 728,-243.52 717.41,-243.63 719.79,-250.21"/>
</g>
<!-- Node16 -->
<g id="node16" class="node">
<title>Node16</title>
<g id="a_node16"><a xlink:href="mat4_8h.html" target="_top" xlink:title=" ">
<polygon fill="white" stroke="black" points="316,-224.5 316,-243.5 387,-243.5 387,-224.5 316,-224.5"/>
<text text-anchor="middle" x="351.5" y="-231.5" font-family="Helvetica,sans-Serif" font-size="10.00">math/mat4.h</text>
</a>
</g>
</g>
<!-- Node14&#45;&gt;Node16 -->
<g id="edge22" class="edge">
<title>Node14&#45;&gt;Node16</title>
<path fill="none" stroke="midnightblue" d="M563.83,-280.68C518.99,-271.03 445.14,-255.15 397.42,-244.88"/>
<polygon fill="midnightblue" stroke="midnightblue" points="397.88,-241.4 387.36,-242.72 396.4,-248.24 397.88,-241.4"/>
</g>
<!-- Node17 -->
<g id="node17" class="node">
<title>Node17</title>
<g id="a_node17"><a xlink:href="ray_8h.html" target="_top" xlink:title=" ">
<polygon fill="white" stroke="black" points="512.5,-224.5 512.5,-243.5 574.5,-243.5 574.5,-224.5 512.5,-224.5"/>
<text text-anchor="middle" x="543.5" y="-231.5" font-family="Helvetica,sans-Serif" font-size="10.00">math/ray.h</text>
</a>
</g>
</g>
<!-- Node14&#45;&gt;Node17 -->
<g id="edge24" class="edge">
<title>Node14&#45;&gt;Node17</title>
<path fill="none" stroke="midnightblue" d="M593.02,-280.32C584.3,-272.34 571.16,-260.31 560.6,-250.65"/>
<polygon fill="midnightblue" stroke="midnightblue" points="562.89,-248 553.15,-243.83 558.17,-253.17 562.89,-248"/>
</g>
<!-- Node18 -->
<g id="node18" class="node">
<title>Node18</title>
<g id="a_node18"><a xlink:href="rectangle_8h.html" target="_top" xlink:title=" ">
<polygon fill="white" stroke="black" points="405,-224.5 405,-243.5 494,-243.5 494,-224.5 405,-224.5"/>
<text text-anchor="middle" x="449.5" y="-231.5" font-family="Helvetica,sans-Serif" font-size="10.00">math/rectangle.h</text>
</a>
</g>
</g>
<!-- Node14&#45;&gt;Node18 -->
<g id="edge26" class="edge">
<title>Node14&#45;&gt;Node18</title>
<path fill="none" stroke="midnightblue" d="M578.26,-280.44C552.63,-271.4 512.01,-257.06 483.26,-246.92"/>
<polygon fill="midnightblue" stroke="midnightblue" points="484.22,-243.54 473.63,-243.52 481.89,-250.15 484.22,-243.54"/>
</g>
<!-- Node19 -->
<g id="node19" class="node">
<title>Node19</title>
<g id="a_node19"><a xlink:href="solve__equation_8h.html" target="_top" xlink:title=" ">
<polygon fill="white" stroke="black" points="556,-112.5 556,-131.5 671,-131.5 671,-112.5 556,-112.5"/>
<text text-anchor="middle" x="613.5" y="-119.5" font-family="Helvetica,sans-Serif" font-size="10.00">math/solve_equation.h</text>
</a>
</g>
</g>
<!-- Node14&#45;&gt;Node19 -->
<g id="edge29" class="edge">
<title>Node14&#45;&gt;Node19</title>
<path fill="none" stroke="midnightblue" d="M618.28,-280.47C630.7,-272.77 647.11,-260.18 654.5,-244 668.54,-213.28 666.7,-199.5 654.5,-168 650.05,-156.5 641.13,-146.13 632.75,-138.25"/>
<polygon fill="midnightblue" stroke="midnightblue" points="634.87,-135.46 625.04,-131.51 630.26,-140.73 634.87,-135.46"/>
</g>
<!-- Node16&#45;&gt;Node9 -->
<g id="edge23" class="edge">
<title>Node16&#45;&gt;Node9</title>
<path fill="none" stroke="midnightblue" d="M360.98,-224.32C369.7,-216.34 382.84,-204.31 393.4,-194.65"/>
<polygon fill="midnightblue" stroke="midnightblue" points="395.83,-197.17 400.85,-187.83 391.11,-192 395.83,-197.17"/>
</g>
<!-- Node17&#45;&gt;Node9 -->
<g id="edge25" class="edge">
<title>Node17&#45;&gt;Node9</title>
<path fill="none" stroke="midnightblue" d="M522.43,-224.44C500.44,-215.52 465.77,-201.44 440.84,-191.32"/>
<polygon fill="midnightblue" stroke="midnightblue" points="442.06,-188.04 431.48,-187.52 439.42,-194.52 442.06,-188.04"/>
</g>
<!-- Node18&#45;&gt;Node2 -->
<g id="edge27" class="edge">
<title>Node18&#45;&gt;Node2</title>
<path fill="none" stroke="midnightblue" d="M423.83,-224.44C395.54,-215.01 349.98,-199.83 319.41,-189.64"/>
<polygon fill="midnightblue" stroke="midnightblue" points="320.26,-186.23 309.67,-186.39 318.05,-192.87 320.26,-186.23"/>
</g>
<!-- Node18&#45;&gt;Node10 -->
<g id="edge28" class="edge">
<title>Node18&#45;&gt;Node10</title>
<path fill="none" stroke="midnightblue" d="M450.44,-224.37C452.38,-206.62 456.85,-165.67 459.47,-141.6"/>
<polygon fill="midnightblue" stroke="midnightblue" points="462.96,-141.91 460.56,-131.59 456,-141.15 462.96,-141.91"/>
</g>
<!-- Node19&#45;&gt;Node11 -->
<g id="edge30" class="edge">
<title>Node19&#45;&gt;Node11</title>
<path fill="none" stroke="midnightblue" d="M612.56,-112.37C610.62,-94.62 606.15,-53.67 603.53,-29.6"/>
<polygon fill="midnightblue" stroke="midnightblue" points="607,-29.15 602.44,-19.59 600.04,-29.91 607,-29.15"/>
</g>
</g>
</svg>
