<?xml version="1.0" encoding="UTF-8" standalone="no"?>
<!DOCTYPE svg PUBLIC "-//W3C//DTD SVG 1.1//EN"
 "http://www.w3.org/Graphics/SVG/1.1/DTD/svg11.dtd">
<!-- Generated by graphviz version 2.50.0 (20211204.2007)
 -->
<!-- Title: texture.cpp Pages: 1 -->
<svg width="1008pt" height="476pt"
 viewBox="0.00 0.00 1007.50 476.00" xmlns="http://www.w3.org/2000/svg" xmlns:xlink="http://www.w3.org/1999/xlink">
<g id="graph0" class="graph" transform="scale(1 1) rotate(0) translate(4 472)">
<title>texture.cpp</title>
<polygon fill="white" stroke="transparent" points="-4,4 -4,-472 1003.5,-472 1003.5,4 -4,4"/>
<!-- Node1 -->
<g id="node1" class="node">
<title>Node1</title>
<g id="a_node1"><a xlink:title=" ">
<polygon fill="#bfbfbf" stroke="black" points="181.5,-448.5 181.5,-467.5 246.5,-467.5 246.5,-448.5 181.5,-448.5"/>
<text text-anchor="middle" x="214" y="-455.5" font-family="Helvetica,sans-Serif" font-size="10.00">texture.cpp</text>
</a>
</g>
</g>
<!-- Node2 -->
<g id="node2" class="node">
<title>Node2</title>
<g id="a_node2"><a xlink:title=" ">
<polygon fill="white" stroke="#bfbfbf" points="110,-392.5 110,-411.5 186,-411.5 186,-392.5 110,-392.5"/>
<text text-anchor="middle" x="148" y="-399.5" font-family="Helvetica,sans-Serif" font-size="10.00">SDL_image.h</text>
</a>
</g>
</g>
<!-- Node1&#45;&gt;Node2 -->
<g id="edge1" class="edge">
<title>Node1&#45;&gt;Node2</title>
<path fill="none" stroke="midnightblue" d="M203.4,-448.32C193.54,-440.26 178.65,-428.08 166.78,-418.37"/>
<polygon fill="midnightblue" stroke="midnightblue" points="168.75,-415.46 158.8,-411.83 164.32,-420.88 168.75,-415.46"/>
</g>
<!-- Node3 -->
<g id="node3" class="node">
<title>Node3</title>
<g id="a_node3"><a xlink:href="texture_8h.html" target="_top" xlink:title="Basic texture management.">
<polygon fill="white" stroke="black" points="133,-336.5 133,-355.5 267,-355.5 267,-336.5 133,-336.5"/>
<text text-anchor="middle" x="200" y="-343.5" font-family="Helvetica,sans-Serif" font-size="10.00">graphics_wrapper/texture.h</text>
</a>
</g>
</g>
<!-- Node1&#45;&gt;Node3 -->
<g id="edge2" class="edge">
<title>Node1&#45;&gt;Node3</title>
<path fill="none" stroke="midnightblue" d="M212.9,-448.37C210.64,-430.62 205.43,-389.67 202.37,-365.6"/>
<polygon fill="midnightblue" stroke="midnightblue" points="205.83,-365.07 201.09,-355.59 198.88,-365.95 205.83,-365.07"/>
</g>
<!-- Node22 -->
<g id="node22" class="node">
<title>Node22</title>
<g id="a_node22"><a xlink:href="renderer_8h.html" target="_top" xlink:title=" ">
<polygon fill="white" stroke="black" points="297.5,-392.5 297.5,-411.5 436.5,-411.5 436.5,-392.5 297.5,-392.5"/>
<text text-anchor="middle" x="367" y="-399.5" font-family="Helvetica,sans-Serif" font-size="10.00">graphics_wrapper/renderer.h</text>
</a>
</g>
</g>
<!-- Node1&#45;&gt;Node22 -->
<g id="edge35" class="edge">
<title>Node1&#45;&gt;Node22</title>
<path fill="none" stroke="midnightblue" d="M238.24,-448.44C263.87,-439.4 304.49,-425.06 333.24,-414.92"/>
<polygon fill="midnightblue" stroke="midnightblue" points="334.61,-418.15 342.87,-411.52 332.28,-411.54 334.61,-418.15"/>
</g>
<!-- Node4 -->
<g id="node4" class="node">
<title>Node4</title>
<g id="a_node4"><a xlink:title=" ">
<polygon fill="white" stroke="#bfbfbf" points="114,-168.5 114,-187.5 158,-187.5 158,-168.5 114,-168.5"/>
<text text-anchor="middle" x="136" y="-175.5" font-family="Helvetica,sans-Serif" font-size="10.00">SDL.h</text>
</a>
</g>
</g>
<!-- Node3&#45;&gt;Node4 -->
<g id="edge3" class="edge">
<title>Node3&#45;&gt;Node4</title>
<path fill="none" stroke="midnightblue" d="M185.81,-336.28C162.46,-320.99 116.75,-286.84 99,-244 91.76,-226.52 104.76,-207.87 117.29,-195.05"/>
<polygon fill="midnightblue" stroke="midnightblue" points="120,-197.31 124.86,-187.89 115.19,-192.23 120,-197.31"/>
</g>
<!-- Node5 -->
<g id="node5" class="node">
<title>Node5</title>
<g id="a_node5"><a xlink:href="color_8h.html" target="_top" xlink:title=" ">
<polygon fill="white" stroke="black" points="177.5,-280.5 177.5,-299.5 222.5,-299.5 222.5,-280.5 177.5,-280.5"/>
<text text-anchor="middle" x="200" y="-287.5" font-family="Helvetica,sans-Serif" font-size="10.00">color.h</text>
</a>
</g>
</g>
<!-- Node3&#45;&gt;Node5 -->
<g id="edge4" class="edge">
<title>Node3&#45;&gt;Node5</title>
<path fill="none" stroke="midnightblue" d="M200,-336.08C200,-329.01 200,-318.86 200,-309.99"/>
<polygon fill="midnightblue" stroke="midnightblue" points="203.5,-309.75 200,-299.75 196.5,-309.75 203.5,-309.75"/>
</g>
<!-- Node16 -->
<g id="node16" class="node">
<title>Node16</title>
<g id="a_node16"><a xlink:href="sml__math_8h.html" target="_top" xlink:title=" ">
<polygon fill="white" stroke="black" points="525.5,-280.5 525.5,-299.5 602.5,-299.5 602.5,-280.5 525.5,-280.5"/>
<text text-anchor="middle" x="564" y="-287.5" font-family="Helvetica,sans-Serif" font-size="10.00">../sml_math.h</text>
</a>
</g>
</g>
<!-- Node3&#45;&gt;Node16 -->
<g id="edge21" class="edge">
<title>Node3&#45;&gt;Node16</title>
<path fill="none" stroke="midnightblue" d="M257.68,-336.44C328.75,-325.9 448.27,-308.17 515.07,-298.26"/>
<polygon fill="midnightblue" stroke="midnightblue" points="515.94,-301.67 525.32,-296.74 514.91,-294.74 515.94,-301.67"/>
</g>
<!-- Node5&#45;&gt;Node4 -->
<g id="edge6" class="edge">
<title>Node5&#45;&gt;Node4</title>
<path fill="none" stroke="midnightblue" d="M197.27,-280.2C193.07,-267.33 184.33,-242.86 173,-224 166.89,-213.83 158.62,-203.54 151.44,-195.37"/>
<polygon fill="midnightblue" stroke="midnightblue" points="153.81,-192.77 144.5,-187.71 148.62,-197.47 153.81,-192.77"/>
</g>
<!-- Node6 -->
<g id="node6" class="node">
<title>Node6</title>
<g id="a_node6"><a xlink:title=" ">
<polygon fill="white" stroke="#bfbfbf" points="318.5,-224.5 318.5,-243.5 367.5,-243.5 367.5,-224.5 318.5,-224.5"/>
<text text-anchor="middle" x="343" y="-231.5" font-family="Helvetica,sans-Serif" font-size="10.00">stdint.h</text>
</a>
</g>
</g>
<!-- Node5&#45;&gt;Node6 -->
<g id="edge5" class="edge">
<title>Node5&#45;&gt;Node6</title>
<path fill="none" stroke="midnightblue" d="M222.66,-280.44C246.4,-271.48 283.91,-257.31 310.74,-247.18"/>
<polygon fill="midnightblue" stroke="midnightblue" points="312.33,-250.32 320.45,-243.52 309.86,-243.77 312.33,-250.32"/>
</g>
<!-- Node7 -->
<g id="node7" class="node">
<title>Node7</title>
<g id="a_node7"><a xlink:title=" ">
<polygon fill="white" stroke="#bfbfbf" points="108,-224.5 108,-243.5 164,-243.5 164,-224.5 108,-224.5"/>
<text text-anchor="middle" x="136" y="-231.5" font-family="Helvetica,sans-Serif" font-size="10.00">algorithm</text>
</a>
</g>
</g>
<!-- Node5&#45;&gt;Node7 -->
<g id="edge7" class="edge">
<title>Node5&#45;&gt;Node7</title>
<path fill="none" stroke="midnightblue" d="M189.72,-280.32C180.16,-272.26 165.72,-260.08 154.22,-250.37"/>
<polygon fill="midnightblue" stroke="midnightblue" points="156.37,-247.61 146.47,-243.83 151.86,-252.96 156.37,-247.61"/>
</g>
<!-- Node8 -->
<g id="node8" class="node">
<title>Node8</title>
<g id="a_node8"><a xlink:href="vec4_8h.html" target="_top" xlink:title=" ">
<polygon fill="white" stroke="black" points="220,-224.5 220,-243.5 300,-243.5 300,-224.5 220,-224.5"/>
<text text-anchor="middle" x="260" y="-231.5" font-family="Helvetica,sans-Serif" font-size="10.00">../math/vec4.h</text>
</a>
</g>
</g>
<!-- Node5&#45;&gt;Node8 -->
<g id="edge8" class="edge">
<title>Node5&#45;&gt;Node8</title>
<path fill="none" stroke="midnightblue" d="M209.64,-280.32C218.51,-272.34 231.87,-260.31 242.61,-250.65"/>
<polygon fill="midnightblue" stroke="midnightblue" points="245.09,-253.13 250.18,-243.83 240.41,-247.92 245.09,-253.13"/>
</g>
<!-- Node9 -->
<g id="node9" class="node">
<title>Node9</title>
<g id="a_node9"><a xlink:title=" ">
<polygon fill="white" stroke="#bfbfbf" points="317,-56.5 317,-75.5 369,-75.5 369,-56.5 317,-56.5"/>
<text text-anchor="middle" x="343" y="-63.5" font-family="Helvetica,sans-Serif" font-size="10.00">assert.h</text>
</a>
</g>
</g>
<!-- Node8&#45;&gt;Node9 -->
<g id="edge9" class="edge">
<title>Node8&#45;&gt;Node9</title>
<path fill="none" stroke="midnightblue" d="M264.46,-224.08C277.64,-197.72 316.56,-119.88 334.17,-84.66"/>
<polygon fill="midnightblue" stroke="midnightblue" points="337.37,-86.08 338.72,-75.57 331.11,-82.95 337.37,-86.08"/>
</g>
<!-- Node10 -->
<g id="node10" class="node">
<title>Node10</title>
<g id="a_node10"><a xlink:title=" ">
<polygon fill="white" stroke="#bfbfbf" points="449.5,-56.5 449.5,-75.5 496.5,-75.5 496.5,-56.5 449.5,-56.5"/>
<text text-anchor="middle" x="473" y="-63.5" font-family="Helvetica,sans-Serif" font-size="10.00">math.h</text>
</a>
</g>
</g>
<!-- Node8&#45;&gt;Node10 -->
<g id="edge10" class="edge">
<title>Node8&#45;&gt;Node10</title>
<path fill="none" stroke="midnightblue" d="M271.15,-224.31C305.59,-197.47 410.52,-115.69 453.91,-81.88"/>
<polygon fill="midnightblue" stroke="midnightblue" points="456.22,-84.51 461.96,-75.61 451.92,-78.99 456.22,-84.51"/>
</g>
<!-- Node11 -->
<g id="node11" class="node">
<title>Node11</title>
<g id="a_node11"><a xlink:href="vec3_8h.html" target="_top" xlink:title=" ">
<polygon fill="white" stroke="black" points="480,-168.5 480,-187.5 526,-187.5 526,-168.5 480,-168.5"/>
<text text-anchor="middle" x="503" y="-175.5" font-family="Helvetica,sans-Serif" font-size="10.00">vec3.h</text>
</a>
</g>
</g>
<!-- Node8&#45;&gt;Node11 -->
<g id="edge11" class="edge">
<title>Node8&#45;&gt;Node11</title>
<path fill="none" stroke="midnightblue" d="M298.5,-224.44C345.81,-213.93 425.26,-196.28 469.93,-186.35"/>
<polygon fill="midnightblue" stroke="midnightblue" points="470.7,-189.76 479.7,-184.18 469.18,-182.93 470.7,-189.76"/>
</g>
<!-- Node11&#45;&gt;Node9 -->
<g id="edge12" class="edge">
<title>Node11&#45;&gt;Node9</title>
<path fill="none" stroke="midnightblue" d="M490.45,-168.37C463.11,-149.57 397.94,-104.77 364.14,-81.53"/>
<polygon fill="midnightblue" stroke="midnightblue" points="365.72,-78.37 355.5,-75.59 361.75,-84.14 365.72,-78.37"/>
</g>
<!-- Node11&#45;&gt;Node10 -->
<g id="edge13" class="edge">
<title>Node11&#45;&gt;Node10</title>
<path fill="none" stroke="midnightblue" d="M500.65,-168.37C495.78,-150.54 484.54,-109.3 477.98,-85.27"/>
<polygon fill="midnightblue" stroke="midnightblue" points="481.35,-84.32 475.34,-75.59 474.6,-86.16 481.35,-84.32"/>
</g>
<!-- Node12 -->
<g id="node12" class="node">
<title>Node12</title>
<g id="a_node12"><a xlink:href="vec2_8h.html" target="_top" xlink:title=" ">
<polygon fill="white" stroke="black" points="501,-112.5 501,-131.5 547,-131.5 547,-112.5 501,-112.5"/>
<text text-anchor="middle" x="524" y="-119.5" font-family="Helvetica,sans-Serif" font-size="10.00">vec2.h</text>
</a>
</g>
</g>
<!-- Node11&#45;&gt;Node12 -->
<g id="edge14" class="edge">
<title>Node11&#45;&gt;Node12</title>
<path fill="none" stroke="midnightblue" d="M506.47,-168.08C509.31,-160.77 513.43,-150.18 516.96,-141.1"/>
<polygon fill="midnightblue" stroke="midnightblue" points="520.23,-142.34 520.6,-131.75 513.71,-139.8 520.23,-142.34"/>
</g>
<!-- Node12&#45;&gt;Node9 -->
<g id="edge15" class="edge">
<title>Node12&#45;&gt;Node9</title>
<path fill="none" stroke="midnightblue" d="M500.71,-114.05C469.81,-104.83 414.98,-88.47 378.8,-77.68"/>
<polygon fill="midnightblue" stroke="midnightblue" points="379.71,-74.3 369.13,-74.8 377.71,-81.01 379.71,-74.3"/>
</g>
<!-- Node12&#45;&gt;Node10 -->
<g id="edge17" class="edge">
<title>Node12&#45;&gt;Node10</title>
<path fill="none" stroke="midnightblue" d="M515.58,-112.08C508.15,-104.22 497.15,-92.57 488.19,-83.08"/>
<polygon fill="midnightblue" stroke="midnightblue" points="490.68,-80.62 481.26,-75.75 485.59,-85.42 490.68,-80.62"/>
</g>
<!-- Node13 -->
<g id="node13" class="node">
<title>Node13</title>
<g id="a_node13"><a xlink:title=" ">
<polygon fill="white" stroke="#bfbfbf" points="741.5,-0.5 741.5,-19.5 800.5,-19.5 800.5,-0.5 741.5,-0.5"/>
<text text-anchor="middle" x="771" y="-7.5" font-family="Helvetica,sans-Serif" font-size="10.00">inttypes.h</text>
</a>
</g>
</g>
<!-- Node12&#45;&gt;Node13 -->
<g id="edge16" class="edge">
<title>Node12&#45;&gt;Node13</title>
<path fill="none" stroke="midnightblue" d="M543.38,-112.37C586.67,-93.09 691.39,-46.45 742.28,-23.79"/>
<polygon fill="midnightblue" stroke="midnightblue" points="744,-26.86 751.71,-19.59 741.15,-20.46 744,-26.86"/>
</g>
<!-- Node14 -->
<g id="node14" class="node">
<title>Node14</title>
<g id="a_node14"><a xlink:href="float__compare_8h.html" target="_top" xlink:title=" ">
<polygon fill="white" stroke="black" points="763,-56.5 763,-75.5 849,-75.5 849,-56.5 763,-56.5"/>
<text text-anchor="middle" x="806" y="-63.5" font-family="Helvetica,sans-Serif" font-size="10.00">float_compare.h</text>
</a>
</g>
</g>
<!-- Node12&#45;&gt;Node14 -->
<g id="edge18" class="edge">
<title>Node12&#45;&gt;Node14</title>
<path fill="none" stroke="midnightblue" d="M547.08,-116.58C591.75,-108.03 691.07,-89.01 752.89,-77.17"/>
<polygon fill="midnightblue" stroke="midnightblue" points="753.69,-80.58 762.85,-75.26 752.37,-73.71 753.69,-80.58"/>
</g>
<!-- Node14&#45;&gt;Node13 -->
<g id="edge19" class="edge">
<title>Node14&#45;&gt;Node13</title>
<path fill="none" stroke="midnightblue" d="M800.22,-56.08C795.33,-48.53 788.17,-37.49 782.17,-28.23"/>
<polygon fill="midnightblue" stroke="midnightblue" points="785.05,-26.24 776.67,-19.75 779.17,-30.05 785.05,-26.24"/>
</g>
<!-- Node15 -->
<g id="node15" class="node">
<title>Node15</title>
<g id="a_node15"><a xlink:title=" ">
<polygon fill="white" stroke="#bfbfbf" points="819,-0.5 819,-19.5 863,-19.5 863,-0.5 819,-0.5"/>
<text text-anchor="middle" x="841" y="-7.5" font-family="Helvetica,sans-Serif" font-size="10.00">float.h</text>
</a>
</g>
</g>
<!-- Node14&#45;&gt;Node15 -->
<g id="edge20" class="edge">
<title>Node14&#45;&gt;Node15</title>
<path fill="none" stroke="midnightblue" d="M811.78,-56.08C816.67,-48.53 823.83,-37.49 829.83,-28.23"/>
<polygon fill="midnightblue" stroke="midnightblue" points="832.83,-30.05 835.33,-19.75 826.95,-26.24 832.83,-30.05"/>
</g>
<!-- Node16&#45;&gt;Node11 -->
<g id="edge34" class="edge">
<title>Node16&#45;&gt;Node11</title>
<path fill="none" stroke="midnightblue" d="M553.56,-280.4C544.04,-272.03 530.25,-258.49 522,-244 513.82,-229.63 508.89,-211.44 506.11,-197.95"/>
<polygon fill="midnightblue" stroke="midnightblue" points="509.52,-197.12 504.26,-187.92 502.64,-198.39 509.52,-197.12"/>
</g>
<!-- Node16&#45;&gt;Node12 -->
<g id="edge33" class="edge">
<title>Node16&#45;&gt;Node12</title>
<path fill="none" stroke="midnightblue" d="M602.55,-287.37C662.7,-283.93 774.52,-273.62 799,-244 804.66,-237.15 804.09,-231.29 799,-224 743.39,-144.33 617.64,-127.32 557.4,-123.82"/>
<polygon fill="midnightblue" stroke="midnightblue" points="557.45,-120.32 547.29,-123.32 557.1,-127.31 557.45,-120.32"/>
</g>
<!-- Node16&#45;&gt;Node14 -->
<g id="edge22" class="edge">
<title>Node16&#45;&gt;Node14</title>
<path fill="none" stroke="midnightblue" d="M602.58,-287.9C666.1,-285.18 788.37,-275.83 815,-244 853.29,-198.23 828.4,-120.23 814.08,-85.1"/>
<polygon fill="midnightblue" stroke="midnightblue" points="817.2,-83.48 810.06,-75.65 810.76,-86.22 817.2,-83.48"/>
</g>
<!-- Node17 -->
<g id="node17" class="node">
<title>Node17</title>
<g id="a_node17"><a xlink:href="geometry_8h.html" target="_top" xlink:title=" ">
<polygon fill="white" stroke="black" points="700.5,-224.5 700.5,-243.5 789.5,-243.5 789.5,-224.5 700.5,-224.5"/>
<text text-anchor="middle" x="745" y="-231.5" font-family="Helvetica,sans-Serif" font-size="10.00">math/geometry.h</text>
</a>
</g>
</g>
<!-- Node16&#45;&gt;Node17 -->
<g id="edge23" class="edge">
<title>Node16&#45;&gt;Node17</title>
<path fill="none" stroke="midnightblue" d="M592.68,-280.44C623.53,-271.24 672.73,-256.56 706.83,-246.39"/>
<polygon fill="midnightblue" stroke="midnightblue" points="707.87,-249.73 716.45,-243.52 705.87,-243.02 707.87,-249.73"/>
</g>
<!-- Node18 -->
<g id="node18" class="node">
<title>Node18</title>
<g id="a_node18"><a xlink:href="mat4_8h.html" target="_top" xlink:title=" ">
<polygon fill="white" stroke="black" points="611.5,-224.5 611.5,-243.5 682.5,-243.5 682.5,-224.5 611.5,-224.5"/>
<text text-anchor="middle" x="647" y="-231.5" font-family="Helvetica,sans-Serif" font-size="10.00">math/mat4.h</text>
</a>
</g>
</g>
<!-- Node16&#45;&gt;Node18 -->
<g id="edge24" class="edge">
<title>Node16&#45;&gt;Node18</title>
<path fill="none" stroke="midnightblue" d="M577.34,-280.32C590.16,-271.98 609.78,-259.21 624.94,-249.35"/>
<polygon fill="midnightblue" stroke="midnightblue" points="627.22,-252.04 633.7,-243.65 623.41,-246.17 627.22,-252.04"/>
</g>
<!-- Node19 -->
<g id="node19" class="node">
<title>Node19</title>
<g id="a_node19"><a xlink:href="ray_8h.html" target="_top" xlink:title=" ">
<polygon fill="white" stroke="black" points="531,-224.5 531,-243.5 593,-243.5 593,-224.5 531,-224.5"/>
<text text-anchor="middle" x="562" y="-231.5" font-family="Helvetica,sans-Serif" font-size="10.00">math/ray.h</text>
</a>
</g>
</g>
<!-- Node16&#45;&gt;Node19 -->
<g id="edge26" class="edge">
<title>Node16&#45;&gt;Node19</title>
<path fill="none" stroke="midnightblue" d="M563.67,-280.08C563.41,-273.01 563.03,-262.86 562.7,-253.99"/>
<polygon fill="midnightblue" stroke="midnightblue" points="566.19,-253.61 562.32,-243.75 559.2,-253.87 566.19,-253.61"/>
</g>
<!-- Node20 -->
<g id="node20" class="node">
<title>Node20</title>
<g id="a_node20"><a xlink:href="rectangle_8h.html" target="_top" xlink:title=" ">
<polygon fill="white" stroke="black" points="385.5,-224.5 385.5,-243.5 474.5,-243.5 474.5,-224.5 385.5,-224.5"/>
<text text-anchor="middle" x="430" y="-231.5" font-family="Helvetica,sans-Serif" font-size="10.00">math/rectangle.h</text>
</a>
</g>
</g>
<!-- Node16&#45;&gt;Node20 -->
<g id="edge28" class="edge">
<title>Node16&#45;&gt;Node20</title>
<path fill="none" stroke="midnightblue" d="M542.77,-280.44C520.62,-271.52 485.68,-257.44 460.56,-247.32"/>
<polygon fill="midnightblue" stroke="midnightblue" points="461.72,-244.01 451.13,-243.52 459.1,-250.5 461.72,-244.01"/>
</g>
<!-- Node21 -->
<g id="node21" class="node">
<title>Node21</title>
<g id="a_node21"><a xlink:href="solve__equation_8h.html" target="_top" xlink:title=" ">
<polygon fill="white" stroke="black" points="884.5,-112.5 884.5,-131.5 999.5,-131.5 999.5,-112.5 884.5,-112.5"/>
<text text-anchor="middle" x="942" y="-119.5" font-family="Helvetica,sans-Serif" font-size="10.00">math/solve_equation.h</text>
</a>
</g>
</g>
<!-- Node16&#45;&gt;Node21 -->
<g id="edge31" class="edge">
<title>Node16&#45;&gt;Node21</title>
<path fill="none" stroke="midnightblue" d="M602.65,-287.4C674.89,-283.77 826.94,-272.83 870,-244 906.95,-219.26 927.75,-168.57 936.69,-141.31"/>
<polygon fill="midnightblue" stroke="midnightblue" points="940.11,-142.1 939.72,-131.51 933.42,-140.03 940.11,-142.1"/>
</g>
<!-- Node18&#45;&gt;Node11 -->
<g id="edge25" class="edge">
<title>Node18&#45;&gt;Node11</title>
<path fill="none" stroke="midnightblue" d="M624.18,-224.44C600.17,-215.44 562.17,-201.19 535.13,-191.05"/>
<polygon fill="midnightblue" stroke="midnightblue" points="536.3,-187.75 525.71,-187.52 533.84,-194.3 536.3,-187.75"/>
</g>
<!-- Node19&#45;&gt;Node11 -->
<g id="edge27" class="edge">
<title>Node19&#45;&gt;Node11</title>
<path fill="none" stroke="midnightblue" d="M552.52,-224.32C543.8,-216.34 530.66,-204.31 520.1,-194.65"/>
<polygon fill="midnightblue" stroke="midnightblue" points="522.39,-192 512.65,-187.83 517.67,-197.17 522.39,-192"/>
</g>
<!-- Node20&#45;&gt;Node4 -->
<g id="edge29" class="edge">
<title>Node20&#45;&gt;Node4</title>
<path fill="none" stroke="midnightblue" d="M385.35,-224.8C325.54,-213.81 220.84,-194.58 168.18,-184.91"/>
<polygon fill="midnightblue" stroke="midnightblue" points="168.54,-181.42 158.07,-183.05 167.27,-188.3 168.54,-181.42"/>
</g>
<!-- Node20&#45;&gt;Node12 -->
<g id="edge30" class="edge">
<title>Node20&#45;&gt;Node12</title>
<path fill="none" stroke="midnightblue" d="M434.31,-224.44C441.08,-211.46 455.08,-186.34 471,-168 480.64,-156.89 493.12,-146.16 503.54,-137.96"/>
<polygon fill="midnightblue" stroke="midnightblue" points="505.89,-140.58 511.71,-131.73 501.64,-135.01 505.89,-140.58"/>
</g>
<!-- Node21&#45;&gt;Node13 -->
<g id="edge32" class="edge">
<title>Node21&#45;&gt;Node13</title>
<path fill="none" stroke="midnightblue" d="M932.09,-112.37C916.81,-99.29 886.29,-74.05 858,-56 839.01,-43.88 816.38,-32.26 798.96,-23.86"/>
<polygon fill="midnightblue" stroke="midnightblue" points="800.41,-20.67 789.87,-19.54 797.4,-26.99 800.41,-20.67"/>
</g>
<!-- Node22&#45;&gt;Node3 -->
<g id="edge45" class="edge">
<title>Node22&#45;&gt;Node3</title>
<path fill="none" stroke="midnightblue" d="M340.54,-392.44C312.32,-383.32 267.46,-368.81 236.03,-358.65"/>
<polygon fill="midnightblue" stroke="midnightblue" points="236.93,-355.26 226.34,-355.52 234.78,-361.92 236.93,-355.26"/>
</g>
<!-- Node22&#45;&gt;Node5 -->
<g id="edge46" class="edge">
<title>Node22&#45;&gt;Node5</title>
<path fill="none" stroke="midnightblue" d="M388.41,-392.46C414.93,-380.67 454.46,-358.32 436,-336 410.59,-305.29 291.6,-295.35 232.91,-292.29"/>
<polygon fill="midnightblue" stroke="midnightblue" points="232.85,-288.78 222.69,-291.79 232.51,-295.77 232.85,-288.78"/>
</g>
<!-- Node22&#45;&gt;Node6 -->
<g id="edge36" class="edge">
<title>Node22&#45;&gt;Node6</title>
<path fill="none" stroke="midnightblue" d="M397.93,-392.46C427.29,-382.53 465.23,-363.84 453,-336 435.65,-296.51 394.38,-265.69 367.62,-248.95"/>
<polygon fill="midnightblue" stroke="midnightblue" points="369.19,-245.81 358.82,-243.62 365.57,-251.79 369.19,-245.81"/>
</g>
<!-- Node22&#45;&gt;Node16 -->
<g id="edge47" class="edge">
<title>Node22&#45;&gt;Node16</title>
<path fill="none" stroke="midnightblue" d="M415.27,-392.5C443.94,-385.83 480.03,-374.5 508,-356 526.75,-343.6 542.86,-323.23 552.92,-308.59"/>
<polygon fill="midnightblue" stroke="midnightblue" points="556.04,-310.22 558.63,-299.95 550.2,-306.36 556.04,-310.22"/>
</g>
<!-- Node23 -->
<g id="node23" class="node">
<title>Node23</title>
<g id="a_node23"><a xlink:title=" ">
<polygon fill="white" stroke="#bfbfbf" points="285.5,-336.5 285.5,-355.5 368.5,-355.5 368.5,-336.5 285.5,-336.5"/>
<text text-anchor="middle" x="327" y="-343.5" font-family="Helvetica,sans-Serif" font-size="10.00">unordered_map</text>
</a>
</g>
</g>
<!-- Node22&#45;&gt;Node23 -->
<g id="edge37" class="edge">
<title>Node22&#45;&gt;Node23</title>
<path fill="none" stroke="midnightblue" d="M360.39,-392.08C354.74,-384.46 346.46,-373.26 339.55,-363.94"/>
<polygon fill="midnightblue" stroke="midnightblue" points="342.25,-361.7 333.48,-355.75 336.62,-365.87 342.25,-361.7"/>
</g>
<!-- Node24 -->
<g id="node24" class="node">
<title>Node24</title>
<g id="a_node24"><a xlink:title=" ">
<polygon fill="white" stroke="#bfbfbf" points="386.5,-336.5 386.5,-355.5 427.5,-355.5 427.5,-336.5 386.5,-336.5"/>
<text text-anchor="middle" x="407" y="-343.5" font-family="Helvetica,sans-Serif" font-size="10.00">stack</text>
</a>
</g>
</g>
<!-- Node22&#45;&gt;Node24 -->
<g id="edge38" class="edge">
<title>Node22&#45;&gt;Node24</title>
<path fill="none" stroke="midnightblue" d="M373.61,-392.08C379.26,-384.46 387.54,-373.26 394.45,-363.94"/>
<polygon fill="midnightblue" stroke="midnightblue" points="397.38,-365.87 400.52,-355.75 391.75,-361.7 397.38,-365.87"/>
</g>
<!-- Node25 -->
<g id="node25" class="node">
<title>Node25</title>
<g id="a_node25"><a xlink:href="window_8h.html" target="_top" xlink:title=" ">
<polygon fill="white" stroke="black" points="59,-336.5 59,-355.5 115,-355.5 115,-336.5 59,-336.5"/>
<text text-anchor="middle" x="87" y="-343.5" font-family="Helvetica,sans-Serif" font-size="10.00">window.h</text>
</a>
</g>
</g>
<!-- Node22&#45;&gt;Node25 -->
<g id="edge39" class="edge">
<title>Node22&#45;&gt;Node25</title>
<path fill="none" stroke="midnightblue" d="M316.11,-392.42C269.04,-384.3 196.92,-371.37 125.34,-356.2"/>
<polygon fill="midnightblue" stroke="midnightblue" points="125.76,-352.71 115.24,-354.04 124.29,-359.55 125.76,-352.71"/>
</g>
<!-- Node25&#45;&gt;Node4 -->
<g id="edge42" class="edge">
<title>Node25&#45;&gt;Node4</title>
<path fill="none" stroke="midnightblue" d="M78.79,-336.18C71.46,-327.66 61.24,-314.02 57,-300 50.86,-279.71 61.99,-230.13 66,-224 75.19,-209.95 90.46,-199.39 104.39,-192.04"/>
<polygon fill="midnightblue" stroke="midnightblue" points="106.3,-195 113.74,-187.46 103.22,-188.72 106.3,-195"/>
</g>
<!-- Node25&#45;&gt;Node5 -->
<g id="edge43" class="edge">
<title>Node25&#45;&gt;Node5</title>
<path fill="none" stroke="midnightblue" d="M104.91,-336.44C123.25,-327.68 152.01,-313.94 173.09,-303.86"/>
<polygon fill="midnightblue" stroke="midnightblue" points="174.67,-306.99 182.18,-299.52 171.65,-300.67 174.67,-306.99"/>
</g>
<!-- Node25&#45;&gt;Node9 -->
<g id="edge40" class="edge">
<title>Node25&#45;&gt;Node9</title>
<path fill="none" stroke="midnightblue" d="M73.02,-336.32C48.43,-319.85 0,-281.51 0,-235 0,-235 0,-235 0,-177 0,-113.08 218.75,-81.1 306.86,-70.81"/>
<polygon fill="midnightblue" stroke="midnightblue" points="307.4,-74.27 316.94,-69.66 306.61,-67.32 307.4,-74.27"/>
</g>
<!-- Node25&#45;&gt;Node20 -->
<g id="edge44" class="edge">
<title>Node25&#45;&gt;Node20</title>
<path fill="none" stroke="midnightblue" d="M114.64,-336.48C143.65,-327.51 190.58,-312.92 231,-300 288.45,-281.64 355.03,-259.77 394.77,-246.66"/>
<polygon fill="midnightblue" stroke="midnightblue" points="395.88,-249.98 404.27,-243.52 393.68,-243.33 395.88,-249.98"/>
</g>
<!-- Node26 -->
<g id="node26" class="node">
<title>Node26</title>
<g id="a_node26"><a xlink:title=" ">
<polygon fill="white" stroke="#bfbfbf" points="66,-280.5 66,-299.5 112,-299.5 112,-280.5 66,-280.5"/>
<text text-anchor="middle" x="89" y="-287.5" font-family="Helvetica,sans-Serif" font-size="10.00">stdio.h</text>
</a>
</g>
</g>
<!-- Node25&#45;&gt;Node26 -->
<g id="edge41" class="edge">
<title>Node25&#45;&gt;Node26</title>
<path fill="none" stroke="midnightblue" d="M87.33,-336.08C87.59,-329.01 87.97,-318.86 88.3,-309.99"/>
<polygon fill="midnightblue" stroke="midnightblue" points="91.8,-309.87 88.68,-299.75 84.81,-309.61 91.8,-309.87"/>
</g>
</g>
</svg>
