<?xml version="1.0" encoding="UTF-8" standalone="no"?>
<!DOCTYPE svg PUBLIC "-//W3C//DTD SVG 1.1//EN"
 "http://www.w3.org/Graphics/SVG/1.1/DTD/svg11.dtd">
<!-- Generated by graphviz version 2.50.0 (20211204.2007)
 -->
<!-- Title: text.h Pages: 1 -->
<!--zoomable 476 -->
<svg id="main" version="1.1" xmlns="http://www.w3.org/2000/svg" xmlns:xlink="http://www.w3.org/1999/xlink" xml:space="preserve" onload="init(evt)">
<style type="text/css"><![CDATA[
.edge:hover path { stroke: red; }
.edge:hover polygon { stroke: red; fill: red; }
]]></style>
<script type="text/javascript"><![CDATA[
var edges = document.getElementsByTagName('g');
if (edges && edges.length) {
  for (var i=0;i<edges.length;i++) {
    if (edges[i].id.substr(0,4)=='edge') {
      edges[i].setAttribute('class','edge');
    }
  }
}
]]></script>
        <defs>
                <circle id="rim" cx="0" cy="0" r="7"/>
                <circle id="rim2" cx="0" cy="0" r="3.5"/>
                <g id="zoomPlus">
                        <use xlink:href="#rim" fill="#404040">
                                <set attributeName="fill" to="#808080" begin="zoomplus.mouseover" end="zoomplus.mouseout"/>
                        </use>
                        <path d="M-4,0h8M0,-4v8" fill="none" stroke="white" stroke-width="1.5" pointer-events="none"/>
                </g>
                <g id="zoomMin">
                        <use xlink:href="#rim" fill="#404040">
                                <set attributeName="fill" to="#808080" begin="zoomminus.mouseover" end="zoomminus.mouseout"/>
                        </use>
                        <path d="M-4,0h8" fill="none" stroke="white" stroke-width="1.5" pointer-events="none"/>
                </g>
                <g id="dirArrow">
                        <path fill="none" stroke="white" stroke-width="1.5" d="M0,-3.0v7 M-2.5,-0.5L0,-3.0L2.5,-0.5"/>
                </g>
               <g id="resetDef">
                       <use xlink:href="#rim2" fill="#404040">
                               <set attributeName="fill" to="#808080" begin="reset.mouseover" end="reset.mouseout"/>
                       </use>
               </g>
        </defs>

<script type="text/javascript">
var viewWidth = 955;
var viewHeight = 476;
var sectionId = 'dynsection-0';
</script>
<script xlink:href="svgpan.js"/>
<svg id="graph" class="graph">
<g id="viewport">
<title>text.h</title>
<polygon fill="white" stroke="transparent" points="-4,4 -4,-472 950.83,-472 950.83,4 -4,4"/>
<!-- Node1 -->
<g id="node1" class="node">
<title>Node1</title>
<g id="a_node1"><a xlink:title=" ">
<polygon fill="#bfbfbf" stroke="black" points="148.24,-448.5 148.24,-467.5 189.24,-467.5 189.24,-448.5 148.24,-448.5"/>
<text text-anchor="middle" x="168.74" y="-455.5" font-family="Helvetica,sans-Serif" font-size="10.00">text.h</text>
</a>
</g>
</g>
<!-- Node2 -->
<g id="node2" class="node">
<title>Node2</title>
<g id="a_node2"><a xlink:title=" ">
<polygon fill="white" stroke="#bfbfbf" points="101.24,-392.5 101.24,-411.5 160.24,-411.5 160.24,-392.5 101.24,-392.5"/>
<text text-anchor="middle" x="130.74" y="-399.5" font-family="Helvetica,sans-Serif" font-size="10.00">SDL_ttf.h</text>
</a>
</g>
</g>
<!-- Node1&#45;&gt;Node2 -->
<g id="edge1" class="edge">
<title>Node1&#45;&gt;Node2</title>
<path fill="none" stroke="midnightblue" d="M162.47,-448.08C157.1,-440.46 149.23,-429.26 142.66,-419.94"/>
<polygon fill="midnightblue" stroke="midnightblue" points="145.52,-417.91 136.9,-411.75 139.79,-421.94 145.52,-417.91"/>
</g>
<!-- Node3 -->
<g id="node3" class="node">
<title>Node3</title>
<g id="a_node3"><a xlink:href="renderer_8h.html" target="_top" xlink:title=" ">
<polygon fill="white" stroke="black" points="178.24,-392.5 178.24,-411.5 237.24,-411.5 237.24,-392.5 178.24,-392.5"/>
<text text-anchor="middle" x="207.74" y="-399.5" font-family="Helvetica,sans-Serif" font-size="10.00">renderer.h</text>
</a>
</g>
</g>
<!-- Node1&#45;&gt;Node3 -->
<g id="edge2" class="edge">
<title>Node1&#45;&gt;Node3</title>
<path fill="none" stroke="midnightblue" d="M175.18,-448.08C180.69,-440.46 188.77,-429.26 195.51,-419.94"/>
<polygon fill="midnightblue" stroke="midnightblue" points="198.41,-421.91 201.42,-411.75 192.73,-417.81 198.41,-421.91"/>
</g>
<!-- Node4 -->
<g id="node4" class="node">
<title>Node4</title>
<g id="a_node4"><a xlink:title=" ">
<polygon fill="white" stroke="#bfbfbf" points="144.24,-224.5 144.24,-243.5 193.24,-243.5 193.24,-224.5 144.24,-224.5"/>
<text text-anchor="middle" x="168.74" y="-231.5" font-family="Helvetica,sans-Serif" font-size="10.00">stdint.h</text>
</a>
</g>
</g>
<!-- Node3&#45;&gt;Node4 -->
<g id="edge3" class="edge">
<title>Node3&#45;&gt;Node4</title>
<path fill="none" stroke="midnightblue" d="M177.88,-393.89C175.13,-393.25 172.39,-392.61 169.74,-392 98.72,-375.6 55.28,-412.92 9.74,-356 -31.35,-304.64 75.66,-262.98 133.92,-244.83"/>
<polygon fill="midnightblue" stroke="midnightblue" points="135.3,-248.07 143.85,-241.82 133.26,-241.37 135.3,-248.07"/>
</g>
<!-- Node5 -->
<g id="node5" class="node">
<title>Node5</title>
<g id="a_node5"><a xlink:title=" ">
<polygon fill="white" stroke="#bfbfbf" points="19.24,-336.5 19.24,-355.5 102.24,-355.5 102.24,-336.5 19.24,-336.5"/>
<text text-anchor="middle" x="60.74" y="-343.5" font-family="Helvetica,sans-Serif" font-size="10.00">unordered_map</text>
</a>
</g>
</g>
<!-- Node3&#45;&gt;Node5 -->
<g id="edge4" class="edge">
<title>Node3&#45;&gt;Node5</title>
<path fill="none" stroke="midnightblue" d="M184.45,-392.44C159.94,-383.44 121.15,-369.19 93.54,-359.05"/>
<polygon fill="midnightblue" stroke="midnightblue" points="94.52,-355.68 83.93,-355.52 92.11,-362.25 94.52,-355.68"/>
</g>
<!-- Node6 -->
<g id="node6" class="node">
<title>Node6</title>
<g id="a_node6"><a xlink:title=" ">
<polygon fill="white" stroke="#bfbfbf" points="120.24,-336.5 120.24,-355.5 161.24,-355.5 161.24,-336.5 120.24,-336.5"/>
<text text-anchor="middle" x="140.74" y="-343.5" font-family="Helvetica,sans-Serif" font-size="10.00">stack</text>
</a>
</g>
</g>
<!-- Node3&#45;&gt;Node6 -->
<g id="edge5" class="edge">
<title>Node3&#45;&gt;Node6</title>
<path fill="none" stroke="midnightblue" d="M196.98,-392.32C186.98,-384.26 171.86,-372.08 159.81,-362.37"/>
<polygon fill="midnightblue" stroke="midnightblue" points="161.69,-359.38 151.7,-355.83 157.29,-364.83 161.69,-359.38"/>
</g>
<!-- Node7 -->
<g id="node7" class="node">
<title>Node7</title>
<g id="a_node7"><a xlink:href="window_8h.html" target="_top" xlink:title=" ">
<polygon fill="white" stroke="black" points="179.74,-336.5 179.74,-355.5 235.74,-355.5 235.74,-336.5 179.74,-336.5"/>
<text text-anchor="middle" x="207.74" y="-343.5" font-family="Helvetica,sans-Serif" font-size="10.00">window.h</text>
</a>
</g>
</g>
<!-- Node3&#45;&gt;Node7 -->
<g id="edge6" class="edge">
<title>Node3&#45;&gt;Node7</title>
<path fill="none" stroke="midnightblue" d="M207.74,-392.08C207.74,-385.01 207.74,-374.86 207.74,-365.99"/>
<polygon fill="midnightblue" stroke="midnightblue" points="211.24,-365.75 207.74,-355.75 204.24,-365.75 211.24,-365.75"/>
</g>
<!-- Node11 -->
<g id="node11" class="node">
<title>Node11</title>
<g id="a_node11"><a xlink:href="color_8h.html" target="_top" xlink:title=" ">
<polygon fill="white" stroke="black" points="208.24,-280.5 208.24,-299.5 253.24,-299.5 253.24,-280.5 208.24,-280.5"/>
<text text-anchor="middle" x="230.74" y="-287.5" font-family="Helvetica,sans-Serif" font-size="10.00">color.h</text>
</a>
</g>
</g>
<!-- Node3&#45;&gt;Node11 -->
<g id="edge45" class="edge">
<title>Node3&#45;&gt;Node11</title>
<path fill="none" stroke="midnightblue" d="M218.18,-392.24C227.17,-383.97 239.49,-370.66 244.74,-356 250.27,-340.57 245.36,-322.25 239.89,-309"/>
<polygon fill="midnightblue" stroke="midnightblue" points="242.93,-307.23 235.57,-299.61 236.57,-310.16 242.93,-307.23"/>
</g>
<!-- Node21 -->
<g id="node21" class="node">
<title>Node21</title>
<g id="a_node21"><a xlink:href="texture_8h.html" target="_top" xlink:title="Basic texture management.">
<polygon fill="white" stroke="black" points="292.24,-336.5 292.24,-355.5 347.24,-355.5 347.24,-336.5 292.24,-336.5"/>
<text text-anchor="middle" x="319.74" y="-343.5" font-family="Helvetica,sans-Serif" font-size="10.00">texture.h</text>
</a>
</g>
</g>
<!-- Node3&#45;&gt;Node21 -->
<g id="edge30" class="edge">
<title>Node3&#45;&gt;Node21</title>
<path fill="none" stroke="midnightblue" d="M225.74,-392.32C243.78,-383.62 271.79,-370.12 292.55,-360.11"/>
<polygon fill="midnightblue" stroke="midnightblue" points="294.31,-363.15 301.79,-355.65 291.27,-356.84 294.31,-363.15"/>
</g>
<!-- Node22 -->
<g id="node22" class="node">
<title>Node22</title>
<g id="a_node22"><a xlink:href="sml__math_8h.html" target="_top" xlink:title=" ">
<polygon fill="white" stroke="black" points="669.24,-280.5 669.24,-299.5 746.24,-299.5 746.24,-280.5 669.24,-280.5"/>
<text text-anchor="middle" x="707.74" y="-287.5" font-family="Helvetica,sans-Serif" font-size="10.00">../sml_math.h</text>
</a>
</g>
</g>
<!-- Node3&#45;&gt;Node22 -->
<g id="edge46" class="edge">
<title>Node3&#45;&gt;Node22</title>
<path fill="none" stroke="midnightblue" d="M237.52,-394.45C320.84,-376.12 556.9,-324.19 659.33,-301.65"/>
<polygon fill="midnightblue" stroke="midnightblue" points="660.09,-305.07 669.1,-299.5 658.58,-298.23 660.09,-305.07"/>
</g>
<!-- Node8 -->
<g id="node8" class="node">
<title>Node8</title>
<g id="a_node8"><a xlink:title=" ">
<polygon fill="white" stroke="#bfbfbf" points="391.74,-56.5 391.74,-75.5 443.74,-75.5 443.74,-56.5 391.74,-56.5"/>
<text text-anchor="middle" x="417.74" y="-63.5" font-family="Helvetica,sans-Serif" font-size="10.00">assert.h</text>
</a>
</g>
</g>
<!-- Node7&#45;&gt;Node8 -->
<g id="edge7" class="edge">
<title>Node7&#45;&gt;Node8</title>
<path fill="none" stroke="midnightblue" d="M182.06,-336.47C144.17,-322.07 77.74,-289.1 77.74,-235 77.74,-235 77.74,-235 77.74,-177 77.74,-113.66 294.07,-81.38 381.61,-70.91"/>
<polygon fill="midnightblue" stroke="midnightblue" points="382.1,-74.38 391.63,-69.74 381.29,-67.42 382.1,-74.38"/>
</g>
<!-- Node9 -->
<g id="node9" class="node">
<title>Node9</title>
<g id="a_node9"><a xlink:title=" ">
<polygon fill="white" stroke="#bfbfbf" points="143.74,-280.5 143.74,-299.5 189.74,-299.5 189.74,-280.5 143.74,-280.5"/>
<text text-anchor="middle" x="166.74" y="-287.5" font-family="Helvetica,sans-Serif" font-size="10.00">stdio.h</text>
</a>
</g>
</g>
<!-- Node7&#45;&gt;Node9 -->
<g id="edge8" class="edge">
<title>Node7&#45;&gt;Node9</title>
<path fill="none" stroke="midnightblue" d="M200.97,-336.08C195.18,-328.46 186.68,-317.26 179.61,-307.94"/>
<polygon fill="midnightblue" stroke="midnightblue" points="182.22,-305.6 173.39,-299.75 176.65,-309.83 182.22,-305.6"/>
</g>
<!-- Node10 -->
<g id="node10" class="node">
<title>Node10</title>
<g id="a_node10"><a xlink:title=" ">
<polygon fill="white" stroke="#bfbfbf" points="218.74,-168.5 218.74,-187.5 262.74,-187.5 262.74,-168.5 218.74,-168.5"/>
<text text-anchor="middle" x="240.74" y="-175.5" font-family="Helvetica,sans-Serif" font-size="10.00">SDL.h</text>
</a>
</g>
</g>
<!-- Node7&#45;&gt;Node10 -->
<g id="edge9" class="edge">
<title>Node7&#45;&gt;Node10</title>
<path fill="none" stroke="midnightblue" d="M181.53,-336.41C164.89,-329.44 144.69,-317.81 134.74,-300 127.88,-287.7 118,-250.39 135.74,-224 152.01,-199.81 184.22,-188.56 208.69,-183.37"/>
<polygon fill="midnightblue" stroke="midnightblue" points="209.46,-186.79 218.64,-181.49 208.17,-179.91 209.46,-186.79"/>
</g>
<!-- Node7&#45;&gt;Node11 -->
<g id="edge10" class="edge">
<title>Node7&#45;&gt;Node11</title>
<path fill="none" stroke="midnightblue" d="M211.54,-336.08C214.66,-328.77 219.17,-318.18 223.03,-309.1"/>
<polygon fill="midnightblue" stroke="midnightblue" points="226.32,-310.32 227.02,-299.75 219.88,-307.58 226.32,-310.32"/>
</g>
<!-- Node20 -->
<g id="node20" class="node">
<title>Node20</title>
<g id="a_node20"><a xlink:href="rectangle_8h.html" target="_top" xlink:title=" ">
<polygon fill="white" stroke="black" points="459.74,-224.5 459.74,-243.5 557.74,-243.5 557.74,-224.5 459.74,-224.5"/>
<text text-anchor="middle" x="508.74" y="-231.5" font-family="Helvetica,sans-Serif" font-size="10.00">../math/rectangle.h</text>
</a>
</g>
</g>
<!-- Node7&#45;&gt;Node20 -->
<g id="edge27" class="edge">
<title>Node7&#45;&gt;Node20</title>
<path fill="none" stroke="midnightblue" d="M231.36,-336.37C284.66,-316.89 414.4,-269.48 475.66,-247.09"/>
<polygon fill="midnightblue" stroke="midnightblue" points="477.04,-250.31 485.23,-243.59 474.64,-243.74 477.04,-250.31"/>
</g>
<!-- Node11&#45;&gt;Node4 -->
<g id="edge11" class="edge">
<title>Node11&#45;&gt;Node4</title>
<path fill="none" stroke="midnightblue" d="M220.78,-280.32C211.62,-272.34 197.81,-260.31 186.72,-250.65"/>
<polygon fill="midnightblue" stroke="midnightblue" points="188.73,-247.76 178.89,-243.83 184.13,-253.04 188.73,-247.76"/>
</g>
<!-- Node11&#45;&gt;Node10 -->
<g id="edge12" class="edge">
<title>Node11&#45;&gt;Node10</title>
<path fill="none" stroke="midnightblue" d="M231.53,-280.37C233.14,-262.62 236.86,-221.67 239.05,-197.6"/>
<polygon fill="midnightblue" stroke="midnightblue" points="242.54,-197.87 239.96,-187.59 235.57,-197.23 242.54,-197.87"/>
</g>
<!-- Node12 -->
<g id="node12" class="node">
<title>Node12</title>
<g id="a_node12"><a xlink:title=" ">
<polygon fill="white" stroke="#bfbfbf" points="385.74,-224.5 385.74,-243.5 441.74,-243.5 441.74,-224.5 385.74,-224.5"/>
<text text-anchor="middle" x="413.74" y="-231.5" font-family="Helvetica,sans-Serif" font-size="10.00">algorithm</text>
</a>
</g>
</g>
<!-- Node11&#45;&gt;Node12 -->
<g id="edge13" class="edge">
<title>Node11&#45;&gt;Node12</title>
<path fill="none" stroke="midnightblue" d="M253.55,-282.27C284.12,-273.25 338.78,-257.12 375.65,-246.24"/>
<polygon fill="midnightblue" stroke="midnightblue" points="376.94,-249.51 385.54,-243.32 374.96,-242.8 376.94,-249.51"/>
</g>
<!-- Node13 -->
<g id="node13" class="node">
<title>Node13</title>
<g id="a_node13"><a xlink:href="vec4_8h.html" target="_top" xlink:title=" ">
<polygon fill="white" stroke="black" points="287.74,-224.5 287.74,-243.5 367.74,-243.5 367.74,-224.5 287.74,-224.5"/>
<text text-anchor="middle" x="327.74" y="-231.5" font-family="Helvetica,sans-Serif" font-size="10.00">../math/vec4.h</text>
</a>
</g>
</g>
<!-- Node11&#45;&gt;Node13 -->
<g id="edge14" class="edge">
<title>Node11&#45;&gt;Node13</title>
<path fill="none" stroke="midnightblue" d="M246.33,-280.32C261.74,-271.74 285.56,-258.49 303.45,-248.52"/>
<polygon fill="midnightblue" stroke="midnightblue" points="305.16,-251.58 312.2,-243.65 301.76,-245.46 305.16,-251.58"/>
</g>
<!-- Node13&#45;&gt;Node8 -->
<g id="edge15" class="edge">
<title>Node13&#45;&gt;Node8</title>
<path fill="none" stroke="midnightblue" d="M332.58,-224.08C346.87,-197.72 389.07,-119.88 408.17,-84.66"/>
<polygon fill="midnightblue" stroke="midnightblue" points="411.41,-86.03 413.1,-75.57 405.25,-82.69 411.41,-86.03"/>
</g>
<!-- Node14 -->
<g id="node14" class="node">
<title>Node14</title>
<g id="a_node14"><a xlink:title=" ">
<polygon fill="white" stroke="#bfbfbf" points="531.24,-56.5 531.24,-75.5 578.24,-75.5 578.24,-56.5 531.24,-56.5"/>
<text text-anchor="middle" x="554.74" y="-63.5" font-family="Helvetica,sans-Serif" font-size="10.00">math.h</text>
</a>
</g>
</g>
<!-- Node13&#45;&gt;Node14 -->
<g id="edge16" class="edge">
<title>Node13&#45;&gt;Node14</title>
<path fill="none" stroke="midnightblue" d="M339.63,-224.31C376.4,-197.42 488.62,-115.35 534.69,-81.67"/>
<polygon fill="midnightblue" stroke="midnightblue" points="536.97,-84.33 542.98,-75.61 532.84,-78.68 536.97,-84.33"/>
</g>
<!-- Node15 -->
<g id="node15" class="node">
<title>Node15</title>
<g id="a_node15"><a xlink:href="vec3_8h.html" target="_top" xlink:title=" ">
<polygon fill="white" stroke="black" points="562.74,-168.5 562.74,-187.5 608.74,-187.5 608.74,-168.5 562.74,-168.5"/>
<text text-anchor="middle" x="585.74" y="-175.5" font-family="Helvetica,sans-Serif" font-size="10.00">vec3.h</text>
</a>
</g>
</g>
<!-- Node13&#45;&gt;Node15 -->
<g id="edge17" class="edge">
<title>Node13&#45;&gt;Node15</title>
<path fill="none" stroke="midnightblue" d="M367.77,-224.62C418.56,-213.99 505.24,-195.85 552.54,-185.95"/>
<polygon fill="midnightblue" stroke="midnightblue" points="553.49,-189.33 562.56,-183.85 552.06,-182.47 553.49,-189.33"/>
</g>
<!-- Node15&#45;&gt;Node8 -->
<g id="edge18" class="edge">
<title>Node15&#45;&gt;Node8</title>
<path fill="none" stroke="midnightblue" d="M572.56,-168.37C543.73,-149.49 474.84,-104.38 439.49,-81.24"/>
<polygon fill="midnightblue" stroke="midnightblue" points="441.15,-78.14 430.86,-75.59 437.31,-84 441.15,-78.14"/>
</g>
<!-- Node15&#45;&gt;Node14 -->
<g id="edge19" class="edge">
<title>Node15&#45;&gt;Node14</title>
<path fill="none" stroke="midnightblue" d="M583.31,-168.37C578.29,-150.54 566.66,-109.3 559.89,-85.27"/>
<polygon fill="midnightblue" stroke="midnightblue" points="563.25,-84.27 557.16,-75.59 556.51,-86.17 563.25,-84.27"/>
</g>
<!-- Node16 -->
<g id="node16" class="node">
<title>Node16</title>
<g id="a_node16"><a xlink:href="vec2_8h.html" target="_top" xlink:title=" ">
<polygon fill="white" stroke="black" points="582.74,-112.5 582.74,-131.5 628.74,-131.5 628.74,-112.5 582.74,-112.5"/>
<text text-anchor="middle" x="605.74" y="-119.5" font-family="Helvetica,sans-Serif" font-size="10.00">vec2.h</text>
</a>
</g>
</g>
<!-- Node15&#45;&gt;Node16 -->
<g id="edge20" class="edge">
<title>Node15&#45;&gt;Node16</title>
<path fill="none" stroke="midnightblue" d="M589.05,-168.08C591.73,-160.85 595.59,-150.41 598.93,-141.4"/>
<polygon fill="midnightblue" stroke="midnightblue" points="602.31,-142.34 602.5,-131.75 595.75,-139.91 602.31,-142.34"/>
</g>
<!-- Node16&#45;&gt;Node8 -->
<g id="edge21" class="edge">
<title>Node16&#45;&gt;Node8</title>
<path fill="none" stroke="midnightblue" d="M582.69,-114.38C550.47,-105.12 491.65,-88.23 453.66,-77.32"/>
<polygon fill="midnightblue" stroke="midnightblue" points="454.59,-73.94 444.01,-74.54 452.65,-80.67 454.59,-73.94"/>
</g>
<!-- Node16&#45;&gt;Node14 -->
<g id="edge23" class="edge">
<title>Node16&#45;&gt;Node14</title>
<path fill="none" stroke="midnightblue" d="M597.32,-112.08C589.9,-104.22 578.89,-92.57 569.93,-83.08"/>
<polygon fill="midnightblue" stroke="midnightblue" points="572.42,-80.62 563.01,-75.75 567.33,-85.42 572.42,-80.62"/>
</g>
<!-- Node17 -->
<g id="node17" class="node">
<title>Node17</title>
<g id="a_node17"><a xlink:title=" ">
<polygon fill="white" stroke="#bfbfbf" points="737.24,-0.5 737.24,-19.5 796.24,-19.5 796.24,-0.5 737.24,-0.5"/>
<text text-anchor="middle" x="766.74" y="-7.5" font-family="Helvetica,sans-Serif" font-size="10.00">inttypes.h</text>
</a>
</g>
</g>
<!-- Node16&#45;&gt;Node17 -->
<g id="edge22" class="edge">
<title>Node16&#45;&gt;Node17</title>
<path fill="none" stroke="midnightblue" d="M618.38,-112.37C646,-93.49 712.03,-48.38 745.91,-25.24"/>
<polygon fill="midnightblue" stroke="midnightblue" points="747.89,-28.12 754.17,-19.59 743.94,-22.34 747.89,-28.12"/>
</g>
<!-- Node18 -->
<g id="node18" class="node">
<title>Node18</title>
<g id="a_node18"><a xlink:href="float__compare_8h.html" target="_top" xlink:title=" ">
<polygon fill="white" stroke="black" points="794.74,-56.5 794.74,-75.5 880.74,-75.5 880.74,-56.5 794.74,-56.5"/>
<text text-anchor="middle" x="837.74" y="-63.5" font-family="Helvetica,sans-Serif" font-size="10.00">float_compare.h</text>
</a>
</g>
</g>
<!-- Node16&#45;&gt;Node18 -->
<g id="edge24" class="edge">
<title>Node16&#45;&gt;Node18</title>
<path fill="none" stroke="midnightblue" d="M628.84,-115.62C666.58,-106.84 742.19,-89.24 791.35,-77.8"/>
<polygon fill="midnightblue" stroke="midnightblue" points="792.16,-81.2 801.11,-75.53 790.58,-74.38 792.16,-81.2"/>
</g>
<!-- Node18&#45;&gt;Node17 -->
<g id="edge25" class="edge">
<title>Node18&#45;&gt;Node17</title>
<path fill="none" stroke="midnightblue" d="M826.34,-56.32C815.63,-48.18 799.4,-35.84 786.58,-26.09"/>
<polygon fill="midnightblue" stroke="midnightblue" points="788.44,-23.1 778.36,-19.83 784.2,-28.67 788.44,-23.1"/>
</g>
<!-- Node19 -->
<g id="node19" class="node">
<title>Node19</title>
<g id="a_node19"><a xlink:title=" ">
<polygon fill="white" stroke="#bfbfbf" points="815.74,-0.5 815.74,-19.5 859.74,-19.5 859.74,-0.5 815.74,-0.5"/>
<text text-anchor="middle" x="837.74" y="-7.5" font-family="Helvetica,sans-Serif" font-size="10.00">float.h</text>
</a>
</g>
</g>
<!-- Node18&#45;&gt;Node19 -->
<g id="edge26" class="edge">
<title>Node18&#45;&gt;Node19</title>
<path fill="none" stroke="midnightblue" d="M837.74,-56.08C837.74,-49.01 837.74,-38.86 837.74,-29.99"/>
<polygon fill="midnightblue" stroke="midnightblue" points="841.24,-29.75 837.74,-19.75 834.24,-29.75 841.24,-29.75"/>
</g>
<!-- Node20&#45;&gt;Node10 -->
<g id="edge28" class="edge">
<title>Node20&#45;&gt;Node10</title>
<path fill="none" stroke="midnightblue" d="M466.28,-224.44C412.51,-213.61 321.09,-195.19 272.81,-185.46"/>
<polygon fill="midnightblue" stroke="midnightblue" points="273.4,-182.01 262.91,-183.47 272.02,-188.87 273.4,-182.01"/>
</g>
<!-- Node20&#45;&gt;Node16 -->
<g id="edge29" class="edge">
<title>Node20&#45;&gt;Node16</title>
<path fill="none" stroke="midnightblue" d="M513.92,-224.08C521.7,-211.05 537.24,-186.39 553.74,-168 563.59,-157.03 576.03,-146.18 586.27,-137.88"/>
<polygon fill="midnightblue" stroke="midnightblue" points="588.59,-140.51 594.26,-131.56 584.24,-135.02 588.59,-140.51"/>
</g>
<!-- Node21&#45;&gt;Node10 -->
<g id="edge31" class="edge">
<title>Node21&#45;&gt;Node10</title>
<path fill="none" stroke="midnightblue" d="M315.5,-336.08C302.95,-309.72 265.91,-231.88 249.15,-196.66"/>
<polygon fill="midnightblue" stroke="midnightblue" points="252.28,-195.09 244.82,-187.57 245.96,-198.1 252.28,-195.09"/>
</g>
<!-- Node21&#45;&gt;Node11 -->
<g id="edge32" class="edge">
<title>Node21&#45;&gt;Node11</title>
<path fill="none" stroke="midnightblue" d="M305.44,-336.32C291.56,-327.9 270.25,-314.97 253.94,-305.07"/>
<polygon fill="midnightblue" stroke="midnightblue" points="255.37,-301.85 245.01,-299.65 251.74,-307.83 255.37,-301.85"/>
</g>
<!-- Node21&#45;&gt;Node22 -->
<g id="edge33" class="edge">
<title>Node21&#45;&gt;Node22</title>
<path fill="none" stroke="midnightblue" d="M347.34,-341.16C412.5,-332.09 576.64,-309.25 659.01,-297.78"/>
<polygon fill="midnightblue" stroke="midnightblue" points="659.69,-301.22 669.11,-296.38 658.73,-294.29 659.69,-301.22"/>
</g>
<!-- Node22&#45;&gt;Node15 -->
<g id="edge44" class="edge">
<title>Node22&#45;&gt;Node15</title>
<path fill="none" stroke="midnightblue" d="M669.09,-280.38C647.71,-273.76 622.21,-262.51 605.74,-244 594.35,-231.19 589.45,-212 587.34,-197.79"/>
<polygon fill="midnightblue" stroke="midnightblue" points="590.79,-197.21 586.17,-187.68 583.84,-198.02 590.79,-197.21"/>
</g>
<!-- Node22&#45;&gt;Node16 -->
<g id="edge43" class="edge">
<title>Node22&#45;&gt;Node16</title>
<path fill="none" stroke="midnightblue" d="M746.38,-288.15C807.52,-285.33 916.29,-273.43 881.74,-224 825.91,-144.11 699.72,-127.21 639.26,-123.78"/>
<polygon fill="midnightblue" stroke="midnightblue" points="639.27,-120.27 629.11,-123.29 638.93,-127.27 639.27,-120.27"/>
</g>
<!-- Node22&#45;&gt;Node18 -->
<g id="edge34" class="edge">
<title>Node22&#45;&gt;Node18</title>
<path fill="none" stroke="midnightblue" d="M746.25,-287.04C804.44,-283.19 910.46,-272.38 933.74,-244 977.45,-190.74 896.95,-114.57 857.59,-82.34"/>
<polygon fill="midnightblue" stroke="midnightblue" points="859.44,-79.33 849.44,-75.81 855.06,-84.79 859.44,-79.33"/>
</g>
<!-- Node22&#45;&gt;Node20 -->
<g id="edge40" class="edge">
<title>Node22&#45;&gt;Node20</title>
<path fill="none" stroke="midnightblue" d="M676.21,-280.44C642.15,-271.2 587.74,-256.44 550.23,-246.26"/>
<polygon fill="midnightblue" stroke="midnightblue" points="550.7,-242.76 540.13,-243.52 548.86,-249.51 550.7,-242.76"/>
</g>
<!-- Node23 -->
<g id="node23" class="node">
<title>Node23</title>
<g id="a_node23"><a xlink:href="geometry_8h.html" target="_top" xlink:title=" ">
<polygon fill="white" stroke="black" points="614.24,-224.5 614.24,-243.5 703.24,-243.5 703.24,-224.5 614.24,-224.5"/>
<text text-anchor="middle" x="658.74" y="-231.5" font-family="Helvetica,sans-Serif" font-size="10.00">math/geometry.h</text>
</a>
</g>
</g>
<!-- Node22&#45;&gt;Node23 -->
<g id="edge35" class="edge">
<title>Node22&#45;&gt;Node23</title>
<path fill="none" stroke="midnightblue" d="M699.65,-280.08C692.59,-272.3 682.16,-260.8 673.59,-251.37"/>
<polygon fill="midnightblue" stroke="midnightblue" points="676,-248.8 666.68,-243.75 670.81,-253.51 676,-248.8"/>
</g>
<!-- Node24 -->
<g id="node24" class="node">
<title>Node24</title>
<g id="a_node24"><a xlink:href="mat4_8h.html" target="_top" xlink:title=" ">
<polygon fill="white" stroke="black" points="721.24,-224.5 721.24,-243.5 792.24,-243.5 792.24,-224.5 721.24,-224.5"/>
<text text-anchor="middle" x="756.74" y="-231.5" font-family="Helvetica,sans-Serif" font-size="10.00">math/mat4.h</text>
</a>
</g>
</g>
<!-- Node22&#45;&gt;Node24 -->
<g id="edge36" class="edge">
<title>Node22&#45;&gt;Node24</title>
<path fill="none" stroke="midnightblue" d="M715.83,-280.08C722.9,-272.3 733.33,-260.8 741.89,-251.37"/>
<polygon fill="midnightblue" stroke="midnightblue" points="744.67,-253.51 748.8,-243.75 739.49,-248.8 744.67,-253.51"/>
</g>
<!-- Node25 -->
<g id="node25" class="node">
<title>Node25</title>
<g id="a_node25"><a xlink:href="ray_8h.html" target="_top" xlink:title=" ">
<polygon fill="white" stroke="black" points="810.74,-224.5 810.74,-243.5 872.74,-243.5 872.74,-224.5 810.74,-224.5"/>
<text text-anchor="middle" x="841.74" y="-231.5" font-family="Helvetica,sans-Serif" font-size="10.00">math/ray.h</text>
</a>
</g>
</g>
<!-- Node22&#45;&gt;Node25 -->
<g id="edge38" class="edge">
<title>Node22&#45;&gt;Node25</title>
<path fill="none" stroke="midnightblue" d="M728.98,-280.44C751.13,-271.52 786.06,-257.44 811.18,-247.32"/>
<polygon fill="midnightblue" stroke="midnightblue" points="812.64,-250.5 820.61,-243.52 810.03,-244.01 812.64,-250.5"/>
</g>
<!-- Node26 -->
<g id="node26" class="node">
<title>Node26</title>
<g id="a_node26"><a xlink:href="solve__equation_8h.html" target="_top" xlink:title=" ">
<polygon fill="white" stroke="black" points="730.24,-112.5 730.24,-131.5 845.24,-131.5 845.24,-112.5 730.24,-112.5"/>
<text text-anchor="middle" x="787.74" y="-119.5" font-family="Helvetica,sans-Serif" font-size="10.00">math/solve_equation.h</text>
</a>
</g>
</g>
<!-- Node22&#45;&gt;Node26 -->
<g id="edge41" class="edge">
<title>Node22&#45;&gt;Node26</title>
<path fill="none" stroke="midnightblue" d="M746.6,-286.23C800.59,-281.48 894.03,-269.7 914.74,-244 935.94,-217.7 934.24,-195.59 914.74,-168 900.99,-148.53 878.05,-137.43 855.43,-131.12"/>
<polygon fill="midnightblue" stroke="midnightblue" points="855.99,-127.65 845.44,-128.62 854.29,-134.44 855.99,-127.65"/>
</g>
<!-- Node24&#45;&gt;Node15 -->
<g id="edge37" class="edge">
<title>Node24&#45;&gt;Node15</title>
<path fill="none" stroke="midnightblue" d="M729.65,-224.44C699.57,-214.94 651.01,-199.61 618.73,-189.42"/>
<polygon fill="midnightblue" stroke="midnightblue" points="619.46,-185.98 608.87,-186.3 617.36,-192.65 619.46,-185.98"/>
</g>
<!-- Node25&#45;&gt;Node15 -->
<g id="edge39" class="edge">
<title>Node25&#45;&gt;Node15</title>
<path fill="none" stroke="midnightblue" d="M810.31,-225.88C807.42,-225.24 804.53,-224.6 801.74,-224 737.03,-209.98 661.23,-194.38 618.82,-185.72"/>
<polygon fill="midnightblue" stroke="midnightblue" points="619.28,-182.24 608.79,-183.68 617.88,-189.1 619.28,-182.24"/>
</g>
<!-- Node26&#45;&gt;Node17 -->
<g id="edge42" class="edge">
<title>Node26&#45;&gt;Node17</title>
<path fill="none" stroke="midnightblue" d="M786.1,-112.37C782.71,-94.62 774.89,-53.67 770.29,-29.6"/>
<polygon fill="midnightblue" stroke="midnightblue" points="773.7,-28.76 768.38,-19.59 766.82,-30.07 773.7,-28.76"/>
</g>
</g>
</svg>
        <g id="navigator" transform="translate(0 0)" fill="#404254">
                <rect fill="#f2f5e9" fill-opacity="0.5" stroke="#606060" stroke-width=".5" x="0" y="0" width="60" height="60"/>
                <use id="zoomplus" xlink:href="#zoomPlus" x="17" y="9" onmousedown="handleZoom(evt,'in')"/>
                <use id="zoomminus" xlink:href="#zoomMin" x="42" y="9" onmousedown="handleZoom(evt,'out')"/>
                <use id="reset" xlink:href="#resetDef" x="30" y="36" onmousedown="handleReset()"/>
                <g id="arrowUp" xlink:href="#dirArrow" transform="translate(30 24)" onmousedown="handlePan(0,-1)">
                  <use xlink:href="#rim" fill="#404040">
                        <set attributeName="fill" to="#808080" begin="arrowUp.mouseover" end="arrowUp.mouseout"/>
                  </use>
                  <path fill="none" stroke="white" stroke-width="1.5" d="M0,-3.0v7 M-2.5,-0.5L0,-3.0L2.5,-0.5"/>
                </g>
                <g id="arrowRight" xlink:href="#dirArrow" transform="rotate(90) translate(36 -43)" onmousedown="handlePan(1,0)">
                  <use xlink:href="#rim" fill="#404040">
                        <set attributeName="fill" to="#808080" begin="arrowRight.mouseover" end="arrowRight.mouseout"/>
                  </use>
                  <path fill="none" stroke="white" stroke-width="1.5" d="M0,-3.0v7 M-2.5,-0.5L0,-3.0L2.5,-0.5"/>
                </g>
                <g id="arrowDown" xlink:href="#dirArrow" transform="rotate(180) translate(-30 -48)" onmousedown="handlePan(0,1)">
                  <use xlink:href="#rim" fill="#404040">
                        <set attributeName="fill" to="#808080" begin="arrowDown.mouseover" end="arrowDown.mouseout"/>
                  </use>
                  <path fill="none" stroke="white" stroke-width="1.5" d="M0,-3.0v7 M-2.5,-0.5L0,-3.0L2.5,-0.5"/>
                </g>
                <g id="arrowLeft" xlink:href="#dirArrow" transform="rotate(270) translate(-36 17)" onmousedown="handlePan(-1,0)">
                  <use xlink:href="#rim" fill="#404040">
                        <set attributeName="fill" to="#808080" begin="arrowLeft.mouseover" end="arrowLeft.mouseout"/>
                  </use>
                  <path fill="none" stroke="white" stroke-width="1.5" d="M0,-3.0v7 M-2.5,-0.5L0,-3.0L2.5,-0.5"/>
                </g>
        </g>
        <svg viewBox="0 0 15 15" width="100%" height="30px" preserveAspectRatio="xMaxYMin meet">
         <g id="arrow_out" transform="scale(0.3 0.3)">
          <a xlink:href="text_8h__incl_org.svg" target="_base">
           <rect id="button" ry="5" rx="5" y="6" x="6" height="38" width="38"
                fill="#f2f5e9" fill-opacity="0.5" stroke="#606060" stroke-width="1.0"/>
           <path id="arrow"
             d="M 11.500037,31.436501 C 11.940474,20.09759 22.043105,11.32322 32.158766,21.979434 L 37.068811,17.246167 C 37.068811,17.246167 37.088388,32 37.088388,32 L 22.160133,31.978069 C 22.160133,31.978069 26.997745,27.140456 26.997745,27.140456 C 18.528582,18.264221 13.291696,25.230495 11.500037,31.436501 z"
             style="fill:#404040;"/>
          </a>
         </g>
        </svg>
</svg>
