<?xml version="1.0" encoding="UTF-8" standalone="no"?>
<!DOCTYPE svg PUBLIC "-//W3C//DTD SVG 1.1//EN"
 "http://www.w3.org/Graphics/SVG/1.1/DTD/svg11.dtd">
<!-- Generated by graphviz version 2.50.0 (20211204.2007)
 -->
<!-- Title: texture.h Pages: 1 -->
<svg width="469pt" height="308pt"
 viewBox="0.00 0.00 468.50 308.00" xmlns="http://www.w3.org/2000/svg" xmlns:xlink="http://www.w3.org/1999/xlink">
<g id="graph0" class="graph" transform="scale(1 1) rotate(0) translate(4 304)">
<title>texture.h</title>
<polygon fill="white" stroke="transparent" points="-4,4 -4,-304 464.5,-304 464.5,4 -4,4"/>
<!-- Node1 -->
<g id="node1" class="node">
<title>Node1</title>
<g id="a_node1"><a xlink:title="Basic texture management.">
<polygon fill="#bfbfbf" stroke="black" points="242.5,-280.5 242.5,-299.5 297.5,-299.5 297.5,-280.5 242.5,-280.5"/>
<text text-anchor="middle" x="270" y="-287.5" font-family="Helvetica,sans-Serif" font-size="10.00">texture.h</text>
</a>
</g>
</g>
<!-- Node2 -->
<g id="node2" class="node">
<title>Node2</title>
<g id="a_node2"><a xlink:href="renderer_8h.html" target="_top" xlink:title=" ">
<polygon fill="white" stroke="black" points="211.5,-224.5 211.5,-243.5 270.5,-243.5 270.5,-224.5 211.5,-224.5"/>
<text text-anchor="middle" x="241" y="-231.5" font-family="Helvetica,sans-Serif" font-size="10.00">renderer.h</text>
</a>
</g>
</g>
<!-- Node1&#45;&gt;Node2 -->
<g id="edge1" class="edge">
<title>Node1&#45;&gt;Node2</title>
<path fill="none" stroke="midnightblue" d="M260.32,-270.98C255.4,-261.82 249.64,-251.09 245.7,-243.75"/>
<polygon fill="midnightblue" stroke="midnightblue" points="257.4,-272.93 265.21,-280.08 263.56,-269.62 257.4,-272.93"/>
</g>
<!-- Node7 -->
<g id="node7" class="node">
<title>Node7</title>
<g id="a_node7"><a xlink:href="sml__graphics__wrapper_8h.html" target="_top" xlink:title=" ">
<polygon fill="white" stroke="black" points="14,-112.5 14,-131.5 136,-131.5 136,-112.5 14,-112.5"/>
<text text-anchor="middle" x="75" y="-119.5" font-family="Helvetica,sans-Serif" font-size="10.00">sml_graphics_wrapper.h</text>
</a>
</g>
</g>
<!-- Node1&#45;&gt;Node7 -->
<g id="edge16" class="edge">
<title>Node1&#45;&gt;Node7</title>
<path fill="none" stroke="midnightblue" d="M232.44,-280.85C187.45,-268.91 113.81,-241.95 79,-188 67.85,-170.71 70.53,-145.15 73.01,-131.82"/>
<polygon fill="midnightblue" stroke="midnightblue" points="231.85,-284.31 242.4,-283.37 233.57,-277.53 231.85,-284.31"/>
</g>
<!-- Node14 -->
<g id="node14" class="node">
<title>Node14</title>
<g id="a_node14"><a xlink:href="texture_8cpp.html" target="_top" xlink:title=" ">
<polygon fill="white" stroke="black" points="395.5,-168.5 395.5,-187.5 460.5,-187.5 460.5,-168.5 395.5,-168.5"/>
<text text-anchor="middle" x="428" y="-175.5" font-family="Helvetica,sans-Serif" font-size="10.00">texture.cpp</text>
</a>
</g>
</g>
<!-- Node1&#45;&gt;Node14 -->
<g id="edge17" class="edge">
<title>Node1&#45;&gt;Node14</title>
<path fill="none" stroke="midnightblue" d="M279.71,-271.32C288.38,-256.92 302.29,-236.92 319,-224 341.67,-206.47 372.15,-194.65 395.11,-187.55"/>
<polygon fill="midnightblue" stroke="midnightblue" points="276.53,-269.83 274.57,-280.24 282.59,-273.33 276.53,-269.83"/>
</g>
<!-- Node15 -->
<g id="node15" class="node">
<title>Node15</title>
<g id="a_node15"><a xlink:href="window_8cpp.html" target="_top" xlink:title=" ">
<polygon fill="white" stroke="black" points="327.5,-224.5 327.5,-243.5 394.5,-243.5 394.5,-224.5 327.5,-224.5"/>
<text text-anchor="middle" x="361" y="-231.5" font-family="Helvetica,sans-Serif" font-size="10.00">window.cpp</text>
</a>
</g>
</g>
<!-- Node1&#45;&gt;Node15 -->
<g id="edge18" class="edge">
<title>Node1&#45;&gt;Node15</title>
<path fill="none" stroke="midnightblue" d="M293.29,-275.18C310.04,-265.24 332.1,-252.15 346.42,-243.65"/>
<polygon fill="midnightblue" stroke="midnightblue" points="291.43,-272.21 284.62,-280.32 295.01,-278.23 291.43,-272.21"/>
</g>
<!-- Node3 -->
<g id="node3" class="node">
<title>Node3</title>
<g id="a_node3"><a xlink:href="blur_8h.html" target="_top" xlink:title=" ">
<polygon fill="white" stroke="black" points="337,-168.5 337,-187.5 377,-187.5 377,-168.5 337,-168.5"/>
<text text-anchor="middle" x="357" y="-175.5" font-family="Helvetica,sans-Serif" font-size="10.00">blur.h</text>
</a>
</g>
</g>
<!-- Node2&#45;&gt;Node3 -->
<g id="edge2" class="edge">
<title>Node2&#45;&gt;Node3</title>
<path fill="none" stroke="midnightblue" d="M268.72,-220.1C290.39,-210.01 319.9,-196.27 338.71,-187.52"/>
<polygon fill="midnightblue" stroke="midnightblue" points="266.97,-217.05 259.38,-224.44 269.92,-223.4 266.97,-217.05"/>
</g>
<!-- Node5 -->
<g id="node5" class="node">
<title>Node5</title>
<g id="a_node5"><a xlink:href="primitives_8h.html" target="_top" xlink:title=" ">
<polygon fill="white" stroke="black" points="251.5,-168.5 251.5,-187.5 318.5,-187.5 318.5,-168.5 251.5,-168.5"/>
<text text-anchor="middle" x="285" y="-175.5" font-family="Helvetica,sans-Serif" font-size="10.00">primitives.h</text>
</a>
</g>
</g>
<!-- Node2&#45;&gt;Node5 -->
<g id="edge4" class="edge">
<title>Node2&#45;&gt;Node5</title>
<path fill="none" stroke="midnightblue" d="M254.73,-216.14C262.4,-206.74 271.63,-195.4 277.87,-187.75"/>
<polygon fill="midnightblue" stroke="midnightblue" points="251.87,-214.12 248.27,-224.08 257.3,-218.54 251.87,-214.12"/>
</g>
<!-- Node2&#45;&gt;Node7 -->
<g id="edge11" class="edge">
<title>Node2&#45;&gt;Node7</title>
<path fill="none" stroke="midnightblue" d="M201.19,-230.95C168.18,-227.14 122.26,-216.62 94,-188 78.8,-172.61 75.63,-145.76 75.06,-131.88"/>
<polygon fill="midnightblue" stroke="midnightblue" points="201.11,-234.46 211.41,-231.97 201.8,-227.49 201.11,-234.46"/>
</g>
<!-- Node11 -->
<g id="node11" class="node">
<title>Node11</title>
<g id="a_node11"><a xlink:href="renderer_8cpp.html" target="_top" xlink:title=" ">
<polygon fill="white" stroke="black" points="163,-168.5 163,-187.5 233,-187.5 233,-168.5 163,-168.5"/>
<text text-anchor="middle" x="198" y="-175.5" font-family="Helvetica,sans-Serif" font-size="10.00">renderer.cpp</text>
</a>
</g>
</g>
<!-- Node2&#45;&gt;Node11 -->
<g id="edge10" class="edge">
<title>Node2&#45;&gt;Node11</title>
<path fill="none" stroke="midnightblue" d="M227.58,-216.14C220.09,-206.74 211.06,-195.4 204.97,-187.75"/>
<polygon fill="midnightblue" stroke="midnightblue" points="224.93,-218.44 233.9,-224.08 230.41,-214.08 224.93,-218.44"/>
</g>
<!-- Node12 -->
<g id="node12" class="node">
<title>Node12</title>
<g id="a_node12"><a xlink:href="text_8h.html" target="_top" xlink:title=" ">
<polygon fill="white" stroke="black" points="103.5,-168.5 103.5,-187.5 144.5,-187.5 144.5,-168.5 103.5,-168.5"/>
<text text-anchor="middle" x="124" y="-175.5" font-family="Helvetica,sans-Serif" font-size="10.00">text.h</text>
</a>
</g>
</g>
<!-- Node2&#45;&gt;Node12 -->
<g id="edge12" class="edge">
<title>Node2&#45;&gt;Node12</title>
<path fill="none" stroke="midnightblue" d="M213.34,-220.23C191.45,-210.13 161.5,-196.31 142.45,-187.52"/>
<polygon fill="midnightblue" stroke="midnightblue" points="211.91,-223.43 222.46,-224.44 214.85,-217.08 211.91,-223.43"/>
</g>
<!-- Node2&#45;&gt;Node14 -->
<g id="edge15" class="edge">
<title>Node2&#45;&gt;Node14</title>
<path fill="none" stroke="midnightblue" d="M280.59,-221.57C315.87,-211.38 366.69,-196.7 398.51,-187.52"/>
<polygon fill="midnightblue" stroke="midnightblue" points="279.27,-218.31 270.63,-224.44 281.21,-225.03 279.27,-218.31"/>
</g>
<!-- Node4 -->
<g id="node4" class="node">
<title>Node4</title>
<g id="a_node4"><a xlink:href="blur_8cpp.html" target="_top" xlink:title=" ">
<polygon fill="white" stroke="black" points="337,-112.5 337,-131.5 387,-131.5 387,-112.5 337,-112.5"/>
<text text-anchor="middle" x="362" y="-119.5" font-family="Helvetica,sans-Serif" font-size="10.00">blur.cpp</text>
</a>
</g>
</g>
<!-- Node3&#45;&gt;Node4 -->
<g id="edge3" class="edge">
<title>Node3&#45;&gt;Node4</title>
<path fill="none" stroke="midnightblue" d="M358.75,-158.1C359.58,-149.14 360.53,-138.86 361.19,-131.75"/>
<polygon fill="midnightblue" stroke="midnightblue" points="355.26,-157.8 357.83,-168.08 362.23,-158.45 355.26,-157.8"/>
</g>
<!-- Node6 -->
<g id="node6" class="node">
<title>Node6</title>
<g id="a_node6"><a xlink:href="primitives_8cpp.html" target="_top" xlink:title=" ">
<polygon fill="white" stroke="black" points="241.5,-112.5 241.5,-131.5 318.5,-131.5 318.5,-112.5 241.5,-112.5"/>
<text text-anchor="middle" x="280" y="-119.5" font-family="Helvetica,sans-Serif" font-size="10.00">primitives.cpp</text>
</a>
</g>
</g>
<!-- Node5&#45;&gt;Node6 -->
<g id="edge5" class="edge">
<title>Node5&#45;&gt;Node6</title>
<path fill="none" stroke="midnightblue" d="M283.25,-158.1C282.42,-149.14 281.47,-138.86 280.81,-131.75"/>
<polygon fill="midnightblue" stroke="midnightblue" points="279.77,-158.45 284.17,-168.08 286.74,-157.8 279.77,-158.45"/>
</g>
<!-- Node5&#45;&gt;Node7 -->
<g id="edge6" class="edge">
<title>Node5&#45;&gt;Node7</title>
<path fill="none" stroke="midnightblue" d="M241.81,-165.89C202.15,-155.7 144.23,-140.8 108.12,-131.52"/>
<polygon fill="midnightblue" stroke="midnightblue" points="241.17,-169.34 251.72,-168.44 242.91,-162.56 241.17,-169.34"/>
</g>
<!-- Node8 -->
<g id="node8" class="node">
<title>Node8</title>
<g id="a_node8"><a xlink:href="viewport_8h.html" target="_top" xlink:title=" ">
<polygon fill="white" stroke="black" points="44,-56.5 44,-75.5 106,-75.5 106,-56.5 44,-56.5"/>
<text text-anchor="middle" x="75" y="-63.5" font-family="Helvetica,sans-Serif" font-size="10.00">viewport.h</text>
</a>
</g>
</g>
<!-- Node7&#45;&gt;Node8 -->
<g id="edge7" class="edge">
<title>Node7&#45;&gt;Node8</title>
<path fill="none" stroke="midnightblue" d="M75,-101.8C75,-92.91 75,-82.78 75,-75.75"/>
<polygon fill="midnightblue" stroke="midnightblue" points="71.5,-102.08 75,-112.08 78.5,-102.08 71.5,-102.08"/>
</g>
<!-- Node9 -->
<g id="node9" class="node">
<title>Node9</title>
<g id="a_node9"><a xlink:href="sml__utils_8h.html" target="_top" xlink:title=" ">
<polygon fill="white" stroke="black" points="0,-0.5 0,-19.5 64,-19.5 64,-0.5 0,-0.5"/>
<text text-anchor="middle" x="32" y="-7.5" font-family="Helvetica,sans-Serif" font-size="10.00">sml_utils.h</text>
</a>
</g>
</g>
<!-- Node8&#45;&gt;Node9 -->
<g id="edge8" class="edge">
<title>Node8&#45;&gt;Node9</title>
<path fill="none" stroke="midnightblue" d="M61.58,-48.14C54.09,-38.74 45.06,-27.4 38.97,-19.75"/>
<polygon fill="midnightblue" stroke="midnightblue" points="58.93,-50.44 67.9,-56.08 64.41,-46.08 58.93,-50.44"/>
</g>
<!-- Node10 -->
<g id="node10" class="node">
<title>Node10</title>
<g id="a_node10"><a xlink:href="viewport_8cpp.html" target="_top" xlink:title=" ">
<polygon fill="white" stroke="black" points="82,-0.5 82,-19.5 154,-19.5 154,-0.5 82,-0.5"/>
<text text-anchor="middle" x="118" y="-7.5" font-family="Helvetica,sans-Serif" font-size="10.00">viewport.cpp</text>
</a>
</g>
</g>
<!-- Node8&#45;&gt;Node10 -->
<g id="edge9" class="edge">
<title>Node8&#45;&gt;Node10</title>
<path fill="none" stroke="midnightblue" d="M88.42,-48.14C95.91,-38.74 104.94,-27.4 111.03,-19.75"/>
<polygon fill="midnightblue" stroke="midnightblue" points="85.59,-46.08 82.1,-56.08 91.07,-50.44 85.59,-46.08"/>
</g>
<!-- Node12&#45;&gt;Node7 -->
<g id="edge13" class="edge">
<title>Node12&#45;&gt;Node7</title>
<path fill="none" stroke="midnightblue" d="M108.97,-160.43C100.38,-150.97 89.96,-139.48 82.94,-131.75"/>
<polygon fill="midnightblue" stroke="midnightblue" points="106.6,-163.03 115.91,-168.08 111.78,-158.33 106.6,-163.03"/>
</g>
<!-- Node13 -->
<g id="node13" class="node">
<title>Node13</title>
<g id="a_node13"><a xlink:href="text_8cpp.html" target="_top" xlink:title=" ">
<polygon fill="white" stroke="black" points="154,-112.5 154,-131.5 206,-131.5 206,-112.5 154,-112.5"/>
<text text-anchor="middle" x="180" y="-119.5" font-family="Helvetica,sans-Serif" font-size="10.00">text.cpp</text>
</a>
</g>
</g>
<!-- Node12&#45;&gt;Node13 -->
<g id="edge14" class="edge">
<title>Node12&#45;&gt;Node13</title>
<path fill="none" stroke="midnightblue" d="M140.33,-161.25C150.26,-151.67 162.59,-139.79 170.84,-131.83"/>
<polygon fill="midnightblue" stroke="midnightblue" points="137.77,-158.86 133,-168.32 142.63,-163.9 137.77,-158.86"/>
</g>
</g>
</svg>
