<?xml version="1.0" encoding="UTF-8" standalone="no"?>
<!DOCTYPE svg PUBLIC "-//W3C//DTD SVG 1.1//EN"
 "http://www.w3.org/Graphics/SVG/1.1/DTD/svg11.dtd">
<!-- Generated by graphviz version 2.50.0 (20211204.2007)
 -->
<!-- Title: vec2.h Pages: 1 -->
<svg width="268pt" height="140pt"
 viewBox="0.00 0.00 268.00 140.00" xmlns="http://www.w3.org/2000/svg" xmlns:xlink="http://www.w3.org/1999/xlink">
<g id="graph0" class="graph" transform="scale(1 1) rotate(0) translate(4 136)">
<title>vec2.h</title>
<polygon fill="white" stroke="transparent" points="-4,4 -4,-136 264,-136 264,4 -4,4"/>
<!-- Node1 -->
<g id="node1" class="node">
<title>Node1</title>
<g id="a_node1"><a xlink:title=" ">
<polygon fill="#bfbfbf" stroke="black" points="83,-112.5 83,-131.5 129,-131.5 129,-112.5 83,-112.5"/>
<text text-anchor="middle" x="106" y="-119.5" font-family="Helvetica,sans-Serif" font-size="10.00">vec2.h</text>
</a>
</g>
</g>
<!-- Node2 -->
<g id="node2" class="node">
<title>Node2</title>
<g id="a_node2"><a xlink:title=" ">
<polygon fill="white" stroke="#bfbfbf" points="0,-56.5 0,-75.5 52,-75.5 52,-56.5 0,-56.5"/>
<text text-anchor="middle" x="26" y="-63.5" font-family="Helvetica,sans-Serif" font-size="10.00">assert.h</text>
</a>
</g>
</g>
<!-- Node1&#45;&gt;Node2 -->
<g id="edge1" class="edge">
<title>Node1&#45;&gt;Node2</title>
<path fill="none" stroke="midnightblue" d="M93.15,-112.32C80.78,-103.98 61.87,-91.21 47.26,-81.35"/>
<polygon fill="midnightblue" stroke="midnightblue" points="49.07,-78.35 38.82,-75.65 45.15,-84.15 49.07,-78.35"/>
</g>
<!-- Node3 -->
<g id="node3" class="node">
<title>Node3</title>
<g id="a_node3"><a xlink:title=" ">
<polygon fill="white" stroke="#bfbfbf" points="84.5,-0.5 84.5,-19.5 143.5,-19.5 143.5,-0.5 84.5,-0.5"/>
<text text-anchor="middle" x="114" y="-7.5" font-family="Helvetica,sans-Serif" font-size="10.00">inttypes.h</text>
</a>
</g>
</g>
<!-- Node1&#45;&gt;Node3 -->
<g id="edge2" class="edge">
<title>Node1&#45;&gt;Node3</title>
<path fill="none" stroke="midnightblue" d="M103.55,-112.13C100.41,-99.58 95.76,-75.94 99,-56 100.47,-46.96 103.49,-37.28 106.44,-29.22"/>
<polygon fill="midnightblue" stroke="midnightblue" points="109.76,-30.34 110.14,-19.75 103.24,-27.79 109.76,-30.34"/>
</g>
<!-- Node4 -->
<g id="node4" class="node">
<title>Node4</title>
<g id="a_node4"><a xlink:title=" ">
<polygon fill="white" stroke="#bfbfbf" points="108.5,-56.5 108.5,-75.5 155.5,-75.5 155.5,-56.5 108.5,-56.5"/>
<text text-anchor="middle" x="132" y="-63.5" font-family="Helvetica,sans-Serif" font-size="10.00">math.h</text>
</a>
</g>
</g>
<!-- Node1&#45;&gt;Node4 -->
<g id="edge3" class="edge">
<title>Node1&#45;&gt;Node4</title>
<path fill="none" stroke="midnightblue" d="M110.29,-112.08C113.85,-104.69 119.02,-93.95 123.42,-84.81"/>
<polygon fill="midnightblue" stroke="midnightblue" points="126.6,-86.28 127.79,-75.75 120.29,-83.24 126.6,-86.28"/>
</g>
<!-- Node5 -->
<g id="node5" class="node">
<title>Node5</title>
<g id="a_node5"><a xlink:href="float__compare_8h.html" target="_top" xlink:title=" ">
<polygon fill="white" stroke="black" points="174,-56.5 174,-75.5 260,-75.5 260,-56.5 174,-56.5"/>
<text text-anchor="middle" x="217" y="-63.5" font-family="Helvetica,sans-Serif" font-size="10.00">float_compare.h</text>
</a>
</g>
</g>
<!-- Node1&#45;&gt;Node5 -->
<g id="edge4" class="edge">
<title>Node1&#45;&gt;Node5</title>
<path fill="none" stroke="midnightblue" d="M123.83,-112.32C141.72,-103.62 169.48,-90.12 190.05,-80.11"/>
<polygon fill="midnightblue" stroke="midnightblue" points="191.75,-83.18 199.21,-75.65 188.69,-76.88 191.75,-83.18"/>
</g>
<!-- Node5&#45;&gt;Node3 -->
<g id="edge5" class="edge">
<title>Node5&#45;&gt;Node3</title>
<path fill="none" stroke="midnightblue" d="M200.45,-56.32C184.01,-47.7 158.57,-34.36 139.53,-24.39"/>
<polygon fill="midnightblue" stroke="midnightblue" points="140.99,-21.2 130.51,-19.65 137.74,-27.4 140.99,-21.2"/>
</g>
<!-- Node6 -->
<g id="node6" class="node">
<title>Node6</title>
<g id="a_node6"><a xlink:title=" ">
<polygon fill="white" stroke="#bfbfbf" points="195,-0.5 195,-19.5 239,-19.5 239,-0.5 195,-0.5"/>
<text text-anchor="middle" x="217" y="-7.5" font-family="Helvetica,sans-Serif" font-size="10.00">float.h</text>
</a>
</g>
</g>
<!-- Node5&#45;&gt;Node6 -->
<g id="edge6" class="edge">
<title>Node5&#45;&gt;Node6</title>
<path fill="none" stroke="midnightblue" d="M217,-56.08C217,-49.01 217,-38.86 217,-29.99"/>
<polygon fill="midnightblue" stroke="midnightblue" points="220.5,-29.75 217,-19.75 213.5,-29.75 220.5,-29.75"/>
</g>
</g>
</svg>
