<?xml version="1.0" encoding="UTF-8" standalone="no"?>
<!DOCTYPE svg PUBLIC "-//W3C//DTD SVG 1.1//EN"
 "http://www.w3.org/Graphics/SVG/1.1/DTD/svg11.dtd">
<!-- Generated by graphviz version 2.50.0 (20211204.2007)
 -->
<!-- Title: vec2.h Pages: 1 -->
<!--zoomable 532 -->
<svg id="main" version="1.1" xmlns="http://www.w3.org/2000/svg" xmlns:xlink="http://www.w3.org/1999/xlink" xml:space="preserve" onload="init(evt)">
<style type="text/css"><![CDATA[
.edge:hover path { stroke: red; }
.edge:hover polygon { stroke: red; fill: red; }
]]></style>
<script type="text/javascript"><![CDATA[
var edges = document.getElementsByTagName('g');
if (edges && edges.length) {
  for (var i=0;i<edges.length;i++) {
    if (edges[i].id.substr(0,4)=='edge') {
      edges[i].setAttribute('class','edge');
    }
  }
}
]]></script>
        <defs>
                <circle id="rim" cx="0" cy="0" r="7"/>
                <circle id="rim2" cx="0" cy="0" r="3.5"/>
                <g id="zoomPlus">
                        <use xlink:href="#rim" fill="#404040">
                                <set attributeName="fill" to="#808080" begin="zoomplus.mouseover" end="zoomplus.mouseout"/>
                        </use>
                        <path d="M-4,0h8M0,-4v8" fill="none" stroke="white" stroke-width="1.5" pointer-events="none"/>
                </g>
                <g id="zoomMin">
                        <use xlink:href="#rim" fill="#404040">
                                <set attributeName="fill" to="#808080" begin="zoomminus.mouseover" end="zoomminus.mouseout"/>
                        </use>
                        <path d="M-4,0h8" fill="none" stroke="white" stroke-width="1.5" pointer-events="none"/>
                </g>
                <g id="dirArrow">
                        <path fill="none" stroke="white" stroke-width="1.5" d="M0,-3.0v7 M-2.5,-0.5L0,-3.0L2.5,-0.5"/>
                </g>
               <g id="resetDef">
                       <use xlink:href="#rim2" fill="#404040">
                               <set attributeName="fill" to="#808080" begin="reset.mouseover" end="reset.mouseout"/>
                       </use>
               </g>
        </defs>

<script type="text/javascript">
var viewWidth = 870;
var viewHeight = 532;
var sectionId = 'dynsection-1';
</script>
<script xlink:href="svgpan.js"/>
<svg id="graph" class="graph">
<g id="viewport">
<title>vec2.h</title>
<polygon fill="white" stroke="transparent" points="-4,4 -4,-528 865.5,-528 865.5,4 -4,4"/>
<!-- Node1 -->
<g id="node1" class="node">
<title>Node1</title>
<g id="a_node1"><a xlink:title=" ">
<polygon fill="#bfbfbf" stroke="black" points="399,-504.5 399,-523.5 445,-523.5 445,-504.5 399,-504.5"/>
<text text-anchor="middle" x="422" y="-511.5" font-family="Helvetica,sans-Serif" font-size="10.00">vec2.h</text>
</a>
</g>
</g>
<!-- Node2 -->
<g id="node2" class="node">
<title>Node2</title>
<g id="a_node2"><a xlink:href="blur_8h.html" target="_top" xlink:title=" ">
<polygon fill="white" stroke="black" points="18,-168.5 18,-187.5 58,-187.5 58,-168.5 18,-168.5"/>
<text text-anchor="middle" x="38" y="-175.5" font-family="Helvetica,sans-Serif" font-size="10.00">blur.h</text>
</a>
</g>
</g>
<!-- Node1&#45;&gt;Node2 -->
<g id="edge1" class="edge">
<title>Node1&#45;&gt;Node2</title>
<path fill="none" stroke="midnightblue" d="M388.58,-511.46C288.81,-505.98 0,-483.17 0,-403 0,-403 0,-403 0,-289 0,-249.4 22.27,-205.96 32.72,-187.77"/>
<polygon fill="midnightblue" stroke="midnightblue" points="388.54,-514.97 398.71,-512 388.91,-507.98 388.54,-514.97"/>
</g>
<!-- Node4 -->
<g id="node4" class="node">
<title>Node4</title>
<g id="a_node4"><a xlink:href="mouse_8h.html" target="_top" xlink:title=" ">
<polygon fill="white" stroke="black" points="641,-448.5 641,-467.5 695,-467.5 695,-448.5 641,-448.5"/>
<text text-anchor="middle" x="668" y="-455.5" font-family="Helvetica,sans-Serif" font-size="10.00">mouse.h</text>
</a>
</g>
</g>
<!-- Node1&#45;&gt;Node4 -->
<g id="edge3" class="edge">
<title>Node1&#45;&gt;Node4</title>
<path fill="none" stroke="midnightblue" d="M454.93,-505.77C503.92,-495.02 595.11,-475 640.65,-465"/>
<polygon fill="midnightblue" stroke="midnightblue" points="454.16,-502.36 445.14,-507.92 455.66,-509.19 454.16,-502.36"/>
</g>
<!-- Node11 -->
<g id="node11" class="node">
<title>Node11</title>
<g id="a_node11"><a xlink:href="rectangle_8h.html" target="_top" xlink:title=" ">
<polygon fill="white" stroke="black" points="228.5,-392.5 228.5,-411.5 293.5,-411.5 293.5,-392.5 228.5,-392.5"/>
<text text-anchor="middle" x="261" y="-399.5" font-family="Helvetica,sans-Serif" font-size="10.00">rectangle.h</text>
</a>
</g>
</g>
<!-- Node1&#45;&gt;Node11 -->
<g id="edge10" class="edge">
<title>Node1&#45;&gt;Node11</title>
<path fill="none" stroke="midnightblue" d="M401.09,-498.71C367.16,-475.53 301.15,-430.43 273.57,-411.59"/>
<polygon fill="midnightblue" stroke="midnightblue" points="399.14,-501.62 409.37,-504.37 403.08,-495.84 399.14,-501.62"/>
</g>
<!-- Node13 -->
<g id="node13" class="node">
<title>Node13</title>
<g id="a_node13"><a xlink:href="sml__math_8h.html" target="_top" xlink:title=" ">
<polygon fill="white" stroke="black" points="452,-336.5 452,-355.5 520,-355.5 520,-336.5 452,-336.5"/>
<text text-anchor="middle" x="486" y="-343.5" font-family="Helvetica,sans-Serif" font-size="10.00">sml_math.h</text>
</a>
</g>
</g>
<!-- Node1&#45;&gt;Node13 -->
<g id="edge37" class="edge">
<title>Node1&#45;&gt;Node13</title>
<path fill="none" stroke="midnightblue" d="M436,-496.39C442.26,-488.26 449.28,-478.07 454,-468 472.63,-428.26 481.78,-375.9 484.82,-355.58"/>
<polygon fill="midnightblue" stroke="midnightblue" points="433.18,-494.31 429.65,-504.29 438.64,-498.69 433.18,-494.31"/>
</g>
<!-- Node29 -->
<g id="node29" class="node">
<title>Node29</title>
<g id="a_node29"><a xlink:href="vec3_8h.html" target="_top" xlink:title=" ">
<polygon fill="white" stroke="black" points="399,-448.5 399,-467.5 445,-467.5 445,-448.5 399,-448.5"/>
<text text-anchor="middle" x="422" y="-455.5" font-family="Helvetica,sans-Serif" font-size="10.00">vec3.h</text>
</a>
</g>
</g>
<!-- Node1&#45;&gt;Node29 -->
<g id="edge38" class="edge">
<title>Node1&#45;&gt;Node29</title>
<path fill="none" stroke="midnightblue" d="M422,-493.8C422,-484.91 422,-474.78 422,-467.75"/>
<polygon fill="midnightblue" stroke="midnightblue" points="418.5,-494.08 422,-504.08 425.5,-494.08 418.5,-494.08"/>
</g>
<!-- Node3 -->
<g id="node3" class="node">
<title>Node3</title>
<g id="a_node3"><a xlink:href="blur_8cpp.html" target="_top" xlink:title=" ">
<polygon fill="white" stroke="black" points="13,-112.5 13,-131.5 63,-131.5 63,-112.5 13,-112.5"/>
<text text-anchor="middle" x="38" y="-119.5" font-family="Helvetica,sans-Serif" font-size="10.00">blur.cpp</text>
</a>
</g>
</g>
<!-- Node2&#45;&gt;Node3 -->
<g id="edge2" class="edge">
<title>Node2&#45;&gt;Node3</title>
<path fill="none" stroke="midnightblue" d="M38,-157.8C38,-148.91 38,-138.78 38,-131.75"/>
<polygon fill="midnightblue" stroke="midnightblue" points="34.5,-158.08 38,-168.08 41.5,-158.08 34.5,-158.08"/>
</g>
<!-- Node5 -->
<g id="node5" class="node">
<title>Node5</title>
<g id="a_node5"><a xlink:href="mouse_8cpp.html" target="_top" xlink:title=" ">
<polygon fill="white" stroke="black" points="732.5,-392.5 732.5,-411.5 797.5,-411.5 797.5,-392.5 732.5,-392.5"/>
<text text-anchor="middle" x="765" y="-399.5" font-family="Helvetica,sans-Serif" font-size="10.00">mouse.cpp</text>
</a>
</g>
</g>
<!-- Node4&#45;&gt;Node5 -->
<g id="edge4" class="edge">
<title>Node4&#45;&gt;Node5</title>
<path fill="none" stroke="midnightblue" d="M692.34,-443.45C710.24,-433.48 734.05,-420.23 749.45,-411.65"/>
<polygon fill="midnightblue" stroke="midnightblue" points="690.62,-440.4 683.58,-448.32 694.02,-446.52 690.62,-440.4"/>
</g>
<!-- Node6 -->
<g id="node6" class="node">
<title>Node6</title>
<g id="a_node6"><a xlink:href="system__events_8h.html" target="_top" xlink:title=" ">
<polygon fill="white" stroke="black" points="622,-392.5 622,-411.5 714,-411.5 714,-392.5 622,-392.5"/>
<text text-anchor="middle" x="668" y="-399.5" font-family="Helvetica,sans-Serif" font-size="10.00">system_events.h</text>
</a>
</g>
</g>
<!-- Node4&#45;&gt;Node6 -->
<g id="edge5" class="edge">
<title>Node4&#45;&gt;Node6</title>
<path fill="none" stroke="midnightblue" d="M668,-437.8C668,-428.91 668,-418.78 668,-411.75"/>
<polygon fill="midnightblue" stroke="midnightblue" points="664.5,-438.08 668,-448.08 671.5,-438.08 664.5,-438.08"/>
</g>
<!-- Node7 -->
<g id="node7" class="node">
<title>Node7</title>
<g id="a_node7"><a xlink:href="observable__property_8h.html" target="_top" xlink:title=" ">
<polygon fill="white" stroke="black" points="750.5,-336.5 750.5,-355.5 861.5,-355.5 861.5,-336.5 750.5,-336.5"/>
<text text-anchor="middle" x="806" y="-343.5" font-family="Helvetica,sans-Serif" font-size="10.00">observable_property.h</text>
</a>
</g>
</g>
<!-- Node6&#45;&gt;Node7 -->
<g id="edge6" class="edge">
<title>Node6&#45;&gt;Node7</title>
<path fill="none" stroke="midnightblue" d="M699.25,-388.77C725.17,-378.63 761.36,-364.47 784.24,-355.52"/>
<polygon fill="midnightblue" stroke="midnightblue" points="697.9,-385.54 689.87,-392.44 700.45,-392.06 697.9,-385.54"/>
</g>
<!-- Node8 -->
<g id="node8" class="node">
<title>Node8</title>
<g id="a_node8"><a xlink:href="system__event__manager_8h.html" target="_top" xlink:title=" ">
<polygon fill="white" stroke="black" points="604,-336.5 604,-355.5 732,-355.5 732,-336.5 604,-336.5"/>
<text text-anchor="middle" x="668" y="-343.5" font-family="Helvetica,sans-Serif" font-size="10.00">system_event_manager.h</text>
</a>
</g>
</g>
<!-- Node6&#45;&gt;Node8 -->
<g id="edge7" class="edge">
<title>Node6&#45;&gt;Node8</title>
<path fill="none" stroke="midnightblue" d="M668,-381.8C668,-372.91 668,-362.78 668,-355.75"/>
<polygon fill="midnightblue" stroke="midnightblue" points="664.5,-382.08 668,-392.08 671.5,-382.08 664.5,-382.08"/>
</g>
<!-- Node9 -->
<g id="node9" class="node">
<title>Node9</title>
<g id="a_node9"><a xlink:href="sml__events_8h.html" target="_top" xlink:title=" ">
<polygon fill="white" stroke="black" points="610.5,-280.5 610.5,-299.5 685.5,-299.5 685.5,-280.5 610.5,-280.5"/>
<text text-anchor="middle" x="648" y="-287.5" font-family="Helvetica,sans-Serif" font-size="10.00">sml_events.h</text>
</a>
</g>
</g>
<!-- Node8&#45;&gt;Node9 -->
<g id="edge8" class="edge">
<title>Node8&#45;&gt;Node9</title>
<path fill="none" stroke="midnightblue" d="M661.22,-326.69C657.85,-317.59 653.93,-307.01 651.24,-299.75"/>
<polygon fill="midnightblue" stroke="midnightblue" points="657.94,-327.92 664.7,-336.08 664.51,-325.49 657.94,-327.92"/>
</g>
<!-- Node10 -->
<g id="node10" class="node">
<title>Node10</title>
<g id="a_node10"><a xlink:href="system__event__manager_8cpp.html" target="_top" xlink:title=" ">
<polygon fill="white" stroke="black" points="703.5,-280.5 703.5,-299.5 842.5,-299.5 842.5,-280.5 703.5,-280.5"/>
<text text-anchor="middle" x="773" y="-287.5" font-family="Helvetica,sans-Serif" font-size="10.00">system_event_manager.cpp</text>
</a>
</g>
</g>
<!-- Node8&#45;&gt;Node10 -->
<g id="edge9" class="edge">
<title>Node8&#45;&gt;Node10</title>
<path fill="none" stroke="midnightblue" d="M693.81,-331.73C713.25,-321.73 739.35,-308.31 756.17,-299.65"/>
<polygon fill="midnightblue" stroke="midnightblue" points="692.16,-328.64 684.87,-336.32 695.36,-334.86 692.16,-328.64"/>
</g>
<!-- Node12 -->
<g id="node12" class="node">
<title>Node12</title>
<g id="a_node12"><a xlink:href="rectangle_8cpp.html" target="_top" xlink:title=" ">
<polygon fill="white" stroke="black" points="220.5,-336.5 220.5,-355.5 295.5,-355.5 295.5,-336.5 220.5,-336.5"/>
<text text-anchor="middle" x="258" y="-343.5" font-family="Helvetica,sans-Serif" font-size="10.00">rectangle.cpp</text>
</a>
</g>
</g>
<!-- Node11&#45;&gt;Node12 -->
<g id="edge11" class="edge">
<title>Node11&#45;&gt;Node12</title>
<path fill="none" stroke="midnightblue" d="M259.93,-381.8C259.44,-372.91 258.88,-362.78 258.49,-355.75"/>
<polygon fill="midnightblue" stroke="midnightblue" points="256.46,-382.29 260.5,-392.08 263.44,-381.9 256.46,-382.29"/>
</g>
<!-- Node11&#45;&gt;Node13 -->
<g id="edge12" class="edge">
<title>Node11&#45;&gt;Node13</title>
<path fill="none" stroke="midnightblue" d="M303.59,-390.78C346.56,-380.47 412.06,-364.75 451.77,-355.22"/>
<polygon fill="midnightblue" stroke="midnightblue" points="302.62,-387.41 293.72,-393.15 304.26,-394.22 302.62,-387.41"/>
</g>
<!-- Node27 -->
<g id="node27" class="node">
<title>Node27</title>
<g id="a_node27"><a xlink:href="window_8h.html" target="_top" xlink:title=" ">
<polygon fill="white" stroke="black" points="172,-280.5 172,-299.5 228,-299.5 228,-280.5 172,-280.5"/>
<text text-anchor="middle" x="200" y="-287.5" font-family="Helvetica,sans-Serif" font-size="10.00">window.h</text>
</a>
</g>
</g>
<!-- Node11&#45;&gt;Node27 -->
<g id="edge32" class="edge">
<title>Node11&#45;&gt;Node27</title>
<path fill="none" stroke="midnightblue" d="M239.06,-386.54C228.92,-378.71 217.68,-368.15 211,-356 200.96,-337.75 199.64,-312.59 199.71,-299.58"/>
<polygon fill="midnightblue" stroke="midnightblue" points="237.04,-389.4 247.18,-392.46 241.16,-383.74 237.04,-389.4"/>
</g>
<!-- Node14 -->
<g id="node14" class="node">
<title>Node14</title>
<g id="a_node14"><a xlink:href="renderer_8h.html" target="_top" xlink:title=" ">
<polygon fill="white" stroke="black" points="259.5,-224.5 259.5,-243.5 318.5,-243.5 318.5,-224.5 259.5,-224.5"/>
<text text-anchor="middle" x="289" y="-231.5" font-family="Helvetica,sans-Serif" font-size="10.00">renderer.h</text>
</a>
</g>
</g>
<!-- Node13&#45;&gt;Node14 -->
<g id="edge13" class="edge">
<title>Node13&#45;&gt;Node14</title>
<path fill="none" stroke="midnightblue" d="M483.23,-326.48C480.08,-311.83 473.5,-291.93 460,-280 420.21,-244.83 356.1,-236.64 318.72,-235.03"/>
<polygon fill="midnightblue" stroke="midnightblue" points="479.81,-327.22 485.03,-336.44 486.7,-325.97 479.81,-327.22"/>
</g>
<!-- Node25 -->
<g id="node25" class="node">
<title>Node25</title>
<g id="a_node25"><a xlink:href="texture_8h.html" target="_top" xlink:title="Basic texture management.">
<polygon fill="white" stroke="black" points="396.5,-280.5 396.5,-299.5 451.5,-299.5 451.5,-280.5 396.5,-280.5"/>
<text text-anchor="middle" x="424" y="-287.5" font-family="Helvetica,sans-Serif" font-size="10.00">texture.h</text>
</a>
</g>
</g>
<!-- Node13&#45;&gt;Node25 -->
<g id="edge27" class="edge">
<title>Node13&#45;&gt;Node25</title>
<path fill="none" stroke="midnightblue" d="M468.25,-329.54C457.19,-319.91 443.37,-307.87 434.14,-299.83"/>
<polygon fill="midnightblue" stroke="midnightblue" points="466.2,-332.4 476.04,-336.32 470.8,-327.12 466.2,-332.4"/>
</g>
<!-- Node14&#45;&gt;Node2 -->
<g id="edge14" class="edge">
<title>Node14&#45;&gt;Node2</title>
<path fill="none" stroke="midnightblue" d="M249.4,-223.9C172.86,-207 94.37,-190.65 58.19,-183.16"/>
<polygon fill="midnightblue" stroke="midnightblue" points="248.68,-227.32 259.2,-226.07 250.19,-220.49 248.68,-227.32"/>
</g>
<!-- Node15 -->
<g id="node15" class="node">
<title>Node15</title>
<g id="a_node15"><a xlink:href="primitives_8h.html" target="_top" xlink:title=" ">
<polygon fill="white" stroke="black" points="190.5,-168.5 190.5,-187.5 257.5,-187.5 257.5,-168.5 190.5,-168.5"/>
<text text-anchor="middle" x="224" y="-175.5" font-family="Helvetica,sans-Serif" font-size="10.00">primitives.h</text>
</a>
</g>
</g>
<!-- Node14&#45;&gt;Node15 -->
<g id="edge15" class="edge">
<title>Node14&#45;&gt;Node15</title>
<path fill="none" stroke="midnightblue" d="M270.73,-217.82C259.08,-208.15 244.4,-195.95 234.63,-187.83"/>
<polygon fill="midnightblue" stroke="midnightblue" points="268.63,-220.63 278.56,-224.32 273.1,-215.24 268.63,-220.63"/>
</g>
<!-- Node17 -->
<g id="node17" class="node">
<title>Node17</title>
<g id="a_node17"><a xlink:href="sml__graphics__wrapper_8h.html" target="_top" xlink:title=" ">
<polygon fill="white" stroke="black" points="264,-112.5 264,-131.5 386,-131.5 386,-112.5 264,-112.5"/>
<text text-anchor="middle" x="325" y="-119.5" font-family="Helvetica,sans-Serif" font-size="10.00">sml_graphics_wrapper.h</text>
</a>
</g>
</g>
<!-- Node14&#45;&gt;Node17 -->
<g id="edge22" class="edge">
<title>Node14&#45;&gt;Node17</title>
<path fill="none" stroke="midnightblue" d="M292.68,-214.32C295.49,-201.19 299.76,-183.31 305,-168 309.43,-155.06 316.13,-140.72 320.54,-131.78"/>
<polygon fill="midnightblue" stroke="midnightblue" points="289.18,-213.95 290.6,-224.45 296.04,-215.36 289.18,-213.95"/>
</g>
<!-- Node21 -->
<g id="node21" class="node">
<title>Node21</title>
<g id="a_node21"><a xlink:href="renderer_8cpp.html" target="_top" xlink:title=" ">
<polygon fill="white" stroke="black" points="314,-168.5 314,-187.5 384,-187.5 384,-168.5 314,-168.5"/>
<text text-anchor="middle" x="349" y="-175.5" font-family="Helvetica,sans-Serif" font-size="10.00">renderer.cpp</text>
</a>
</g>
</g>
<!-- Node14&#45;&gt;Node21 -->
<g id="edge21" class="edge">
<title>Node14&#45;&gt;Node21</title>
<path fill="none" stroke="midnightblue" d="M306.18,-217.54C316.88,-207.91 330.26,-195.87 339.18,-187.83"/>
<polygon fill="midnightblue" stroke="midnightblue" points="303.73,-215.03 298.64,-224.32 308.41,-220.24 303.73,-215.03"/>
</g>
<!-- Node22 -->
<g id="node22" class="node">
<title>Node22</title>
<g id="a_node22"><a xlink:href="text_8h.html" target="_top" xlink:title=" ">
<polygon fill="white" stroke="black" points="131.5,-168.5 131.5,-187.5 172.5,-187.5 172.5,-168.5 131.5,-168.5"/>
<text text-anchor="middle" x="152" y="-175.5" font-family="Helvetica,sans-Serif" font-size="10.00">text.h</text>
</a>
</g>
</g>
<!-- Node14&#45;&gt;Node22 -->
<g id="edge23" class="edge">
<title>Node14&#45;&gt;Node22</title>
<path fill="none" stroke="midnightblue" d="M257.86,-220.73C231.79,-210.45 195.33,-196.08 172.71,-187.16"/>
<polygon fill="midnightblue" stroke="midnightblue" points="256.71,-224.03 267.29,-224.44 259.27,-217.52 256.71,-224.03"/>
</g>
<!-- Node24 -->
<g id="node24" class="node">
<title>Node24</title>
<g id="a_node24"><a xlink:href="texture_8cpp.html" target="_top" xlink:title=" ">
<polygon fill="white" stroke="black" points="402.5,-168.5 402.5,-187.5 467.5,-187.5 467.5,-168.5 402.5,-168.5"/>
<text text-anchor="middle" x="435" y="-175.5" font-family="Helvetica,sans-Serif" font-size="10.00">texture.cpp</text>
</a>
</g>
</g>
<!-- Node14&#45;&gt;Node24 -->
<g id="edge26" class="edge">
<title>Node14&#45;&gt;Node24</title>
<path fill="none" stroke="midnightblue" d="M321.7,-220.91C349.15,-210.75 387.67,-196.51 411.97,-187.52"/>
<polygon fill="midnightblue" stroke="midnightblue" points="320.3,-217.69 312.13,-224.44 322.73,-224.26 320.3,-217.69"/>
</g>
<!-- Node16 -->
<g id="node16" class="node">
<title>Node16</title>
<g id="a_node16"><a xlink:href="primitives_8cpp.html" target="_top" xlink:title=" ">
<polygon fill="white" stroke="black" points="168.5,-112.5 168.5,-131.5 245.5,-131.5 245.5,-112.5 168.5,-112.5"/>
<text text-anchor="middle" x="207" y="-119.5" font-family="Helvetica,sans-Serif" font-size="10.00">primitives.cpp</text>
</a>
</g>
</g>
<!-- Node15&#45;&gt;Node16 -->
<g id="edge16" class="edge">
<title>Node15&#45;&gt;Node16</title>
<path fill="none" stroke="midnightblue" d="M218.14,-158.4C215.3,-149.36 212.02,-138.94 209.75,-131.75"/>
<polygon fill="midnightblue" stroke="midnightblue" points="214.85,-159.6 221.19,-168.08 221.53,-157.49 214.85,-159.6"/>
</g>
<!-- Node15&#45;&gt;Node17 -->
<g id="edge17" class="edge">
<title>Node15&#45;&gt;Node17</title>
<path fill="none" stroke="midnightblue" d="M249.08,-163.59C267.76,-153.61 292.7,-140.27 308.81,-131.65"/>
<polygon fill="midnightblue" stroke="midnightblue" points="247.4,-160.52 240.23,-168.32 250.7,-166.7 247.4,-160.52"/>
</g>
<!-- Node18 -->
<g id="node18" class="node">
<title>Node18</title>
<g id="a_node18"><a xlink:href="viewport_8h.html" target="_top" xlink:title=" ">
<polygon fill="white" stroke="black" points="294,-56.5 294,-75.5 356,-75.5 356,-56.5 294,-56.5"/>
<text text-anchor="middle" x="325" y="-63.5" font-family="Helvetica,sans-Serif" font-size="10.00">viewport.h</text>
</a>
</g>
</g>
<!-- Node17&#45;&gt;Node18 -->
<g id="edge18" class="edge">
<title>Node17&#45;&gt;Node18</title>
<path fill="none" stroke="midnightblue" d="M325,-101.8C325,-92.91 325,-82.78 325,-75.75"/>
<polygon fill="midnightblue" stroke="midnightblue" points="321.5,-102.08 325,-112.08 328.5,-102.08 321.5,-102.08"/>
</g>
<!-- Node19 -->
<g id="node19" class="node">
<title>Node19</title>
<g id="a_node19"><a xlink:href="sml__utils_8h.html" target="_top" xlink:title=" ">
<polygon fill="white" stroke="black" points="250,-0.5 250,-19.5 314,-19.5 314,-0.5 250,-0.5"/>
<text text-anchor="middle" x="282" y="-7.5" font-family="Helvetica,sans-Serif" font-size="10.00">sml_utils.h</text>
</a>
</g>
</g>
<!-- Node18&#45;&gt;Node19 -->
<g id="edge19" class="edge">
<title>Node18&#45;&gt;Node19</title>
<path fill="none" stroke="midnightblue" d="M311.58,-48.14C304.09,-38.74 295.06,-27.4 288.97,-19.75"/>
<polygon fill="midnightblue" stroke="midnightblue" points="308.93,-50.44 317.9,-56.08 314.41,-46.08 308.93,-50.44"/>
</g>
<!-- Node20 -->
<g id="node20" class="node">
<title>Node20</title>
<g id="a_node20"><a xlink:href="viewport_8cpp.html" target="_top" xlink:title=" ">
<polygon fill="white" stroke="black" points="332,-0.5 332,-19.5 404,-19.5 404,-0.5 332,-0.5"/>
<text text-anchor="middle" x="368" y="-7.5" font-family="Helvetica,sans-Serif" font-size="10.00">viewport.cpp</text>
</a>
</g>
</g>
<!-- Node18&#45;&gt;Node20 -->
<g id="edge20" class="edge">
<title>Node18&#45;&gt;Node20</title>
<path fill="none" stroke="midnightblue" d="M338.42,-48.14C345.91,-38.74 354.94,-27.4 361.03,-19.75"/>
<polygon fill="midnightblue" stroke="midnightblue" points="335.59,-46.08 332.1,-56.08 341.07,-50.44 335.59,-46.08"/>
</g>
<!-- Node22&#45;&gt;Node17 -->
<g id="edge24" class="edge">
<title>Node22&#45;&gt;Node17</title>
<path fill="none" stroke="midnightblue" d="M182.4,-167.51C215.01,-157.33 266.31,-141.32 297.68,-131.53"/>
<polygon fill="midnightblue" stroke="midnightblue" points="181.03,-164.27 172.52,-170.59 183.11,-170.95 181.03,-164.27"/>
</g>
<!-- Node23 -->
<g id="node23" class="node">
<title>Node23</title>
<g id="a_node23"><a xlink:href="text_8cpp.html" target="_top" xlink:title=" ">
<polygon fill="white" stroke="black" points="98,-112.5 98,-131.5 150,-131.5 150,-112.5 98,-112.5"/>
<text text-anchor="middle" x="124" y="-119.5" font-family="Helvetica,sans-Serif" font-size="10.00">text.cpp</text>
</a>
</g>
</g>
<!-- Node22&#45;&gt;Node23 -->
<g id="edge25" class="edge">
<title>Node22&#45;&gt;Node23</title>
<path fill="none" stroke="midnightblue" d="M142.66,-158.98C137.91,-149.82 132.34,-139.09 128.54,-131.75"/>
<polygon fill="midnightblue" stroke="midnightblue" points="139.67,-160.82 147.38,-168.08 145.88,-157.59 139.67,-160.82"/>
</g>
<!-- Node25&#45;&gt;Node14 -->
<g id="edge28" class="edge">
<title>Node25&#45;&gt;Node14</title>
<path fill="none" stroke="midnightblue" d="M393.09,-276.64C367.76,-266.5 332.57,-252.43 310.29,-243.52"/>
<polygon fill="midnightblue" stroke="midnightblue" points="392.02,-279.98 402.61,-280.44 394.62,-273.48 392.02,-279.98"/>
</g>
<!-- Node25&#45;&gt;Node17 -->
<g id="edge29" class="edge">
<title>Node25&#45;&gt;Node17</title>
<path fill="none" stroke="midnightblue" d="M440.61,-273.03C463.94,-248.64 500.92,-201.43 476,-168 455.4,-140.37 418.5,-129.03 386.33,-124.65"/>
<polygon fill="midnightblue" stroke="midnightblue" points="437.89,-270.81 433.33,-280.37 442.86,-275.74 437.89,-270.81"/>
</g>
<!-- Node25&#45;&gt;Node24 -->
<g id="edge30" class="edge">
<title>Node25&#45;&gt;Node24</title>
<path fill="none" stroke="midnightblue" d="M425.87,-270.35C428.27,-246.25 432.37,-205.31 434.14,-187.59"/>
<polygon fill="midnightblue" stroke="midnightblue" points="422.38,-270.07 424.86,-280.37 429.34,-270.77 422.38,-270.07"/>
</g>
<!-- Node26 -->
<g id="node26" class="node">
<title>Node26</title>
<g id="a_node26"><a xlink:href="window_8cpp.html" target="_top" xlink:title=" ">
<polygon fill="white" stroke="black" points="174.5,-224.5 174.5,-243.5 241.5,-243.5 241.5,-224.5 174.5,-224.5"/>
<text text-anchor="middle" x="208" y="-231.5" font-family="Helvetica,sans-Serif" font-size="10.00">window.cpp</text>
</a>
</g>
</g>
<!-- Node25&#45;&gt;Node26 -->
<g id="edge31" class="edge">
<title>Node25&#45;&gt;Node26</title>
<path fill="none" stroke="midnightblue" d="M386.37,-279.59C345.54,-269.38 280.95,-253.24 241.72,-243.43"/>
<polygon fill="midnightblue" stroke="midnightblue" points="385.65,-283.02 396.2,-282.05 387.35,-276.23 385.65,-283.02"/>
</g>
<!-- Node27&#45;&gt;Node14 -->
<g id="edge34" class="edge">
<title>Node27&#45;&gt;Node14</title>
<path fill="none" stroke="midnightblue" d="M223.24,-274.9C239.56,-265 260.87,-252.07 274.74,-243.65"/>
<polygon fill="midnightblue" stroke="midnightblue" points="221.03,-272.14 214.3,-280.32 224.66,-278.13 221.03,-272.14"/>
</g>
<!-- Node27&#45;&gt;Node17 -->
<g id="edge35" class="edge">
<title>Node27&#45;&gt;Node17</title>
<path fill="none" stroke="midnightblue" d="M178.46,-274.43C146.47,-251.01 93.11,-203.99 122,-168 131.35,-156.35 213.45,-140.96 270.33,-131.53"/>
<polygon fill="midnightblue" stroke="midnightblue" points="176.66,-277.43 186.83,-280.38 180.71,-271.73 176.66,-277.43"/>
</g>
<!-- Node27&#45;&gt;Node26 -->
<g id="edge36" class="edge">
<title>Node27&#45;&gt;Node26</title>
<path fill="none" stroke="midnightblue" d="M202.8,-270.1C204.13,-261.14 205.65,-250.86 206.7,-243.75"/>
<polygon fill="midnightblue" stroke="midnightblue" points="199.32,-269.68 201.32,-280.08 206.25,-270.7 199.32,-269.68"/>
</g>
<!-- Node28 -->
<g id="node28" class="node">
<title>Node28</title>
<g id="a_node28"><a xlink:href="app_8cpp.html" target="_top" xlink:title=" ">
<polygon fill="white" stroke="black" points="66.5,-224.5 66.5,-243.5 117.5,-243.5 117.5,-224.5 66.5,-224.5"/>
<text text-anchor="middle" x="92" y="-231.5" font-family="Helvetica,sans-Serif" font-size="10.00">app.cpp</text>
</a>
</g>
</g>
<!-- Node27&#45;&gt;Node28 -->
<g id="edge33" class="edge">
<title>Node27&#45;&gt;Node28</title>
<path fill="none" stroke="midnightblue" d="M173.45,-275.73C153.45,-265.73 126.61,-252.31 109.31,-243.65"/>
<polygon fill="midnightblue" stroke="midnightblue" points="172.14,-278.98 182.65,-280.32 175.27,-272.72 172.14,-278.98"/>
</g>
<!-- Node29&#45;&gt;Node13 -->
<g id="edge45" class="edge">
<title>Node29&#45;&gt;Node13</title>
<path fill="none" stroke="midnightblue" d="M432.1,-439.64C446,-415.74 470.51,-373.63 481,-355.59"/>
<polygon fill="midnightblue" stroke="midnightblue" points="429.03,-437.96 427.02,-448.37 435.08,-441.49 429.03,-437.96"/>
</g>
<!-- Node30 -->
<g id="node30" class="node">
<title>Node30</title>
<g id="a_node30"><a xlink:href="mat4_8h.html" target="_top" xlink:title=" ">
<polygon fill="white" stroke="black" points="379.5,-392.5 379.5,-411.5 426.5,-411.5 426.5,-392.5 379.5,-392.5"/>
<text text-anchor="middle" x="403" y="-399.5" font-family="Helvetica,sans-Serif" font-size="10.00">mat4.h</text>
</a>
</g>
</g>
<!-- Node29&#45;&gt;Node30 -->
<g id="edge39" class="edge">
<title>Node29&#45;&gt;Node30</title>
<path fill="none" stroke="midnightblue" d="M415.45,-438.4C412.28,-429.36 408.61,-418.94 406.08,-411.75"/>
<polygon fill="midnightblue" stroke="midnightblue" points="412.24,-439.81 418.86,-448.08 418.85,-437.49 412.24,-439.81"/>
</g>
<!-- Node32 -->
<g id="node32" class="node">
<title>Node32</title>
<g id="a_node32"><a xlink:href="ray_8h.html" target="_top" xlink:title=" ">
<polygon fill="white" stroke="black" points="521.5,-392.5 521.5,-411.5 558.5,-411.5 558.5,-392.5 521.5,-392.5"/>
<text text-anchor="middle" x="540" y="-399.5" font-family="Helvetica,sans-Serif" font-size="10.00">ray.h</text>
</a>
</g>
</g>
<!-- Node29&#45;&gt;Node32 -->
<g id="edge42" class="edge">
<title>Node29&#45;&gt;Node32</title>
<path fill="none" stroke="midnightblue" d="M449.9,-444.23C471.97,-434.13 502.18,-420.31 521.39,-411.52"/>
<polygon fill="midnightblue" stroke="midnightblue" points="448.33,-441.1 440.7,-448.44 451.25,-447.46 448.33,-441.1"/>
</g>
<!-- Node34 -->
<g id="node34" class="node">
<title>Node34</title>
<g id="a_node34"><a xlink:href="vec4_8h.html" target="_top" xlink:title=" ">
<polygon fill="white" stroke="black" points="314,-392.5 314,-411.5 360,-411.5 360,-392.5 314,-392.5"/>
<text text-anchor="middle" x="337" y="-399.5" font-family="Helvetica,sans-Serif" font-size="10.00">vec4.h</text>
</a>
</g>
</g>
<!-- Node29&#45;&gt;Node34 -->
<g id="edge46" class="edge">
<title>Node29&#45;&gt;Node34</title>
<path fill="none" stroke="midnightblue" d="M399.81,-442.9C384.22,-433 363.87,-420.07 350.62,-411.65"/>
<polygon fill="midnightblue" stroke="midnightblue" points="398.03,-445.92 408.34,-448.32 401.78,-440.01 398.03,-445.92"/>
</g>
<!-- Node30&#45;&gt;Node13 -->
<g id="edge41" class="edge">
<title>Node30&#45;&gt;Node13</title>
<path fill="none" stroke="midnightblue" d="M425.1,-386.62C440.26,-376.76 459.88,-363.99 472.7,-355.65"/>
<polygon fill="midnightblue" stroke="midnightblue" points="422.81,-383.94 416.34,-392.32 426.63,-389.8 422.81,-383.94"/>
</g>
<!-- Node31 -->
<g id="node31" class="node">
<title>Node31</title>
<g id="a_node31"><a xlink:href="mat4_8cpp.html" target="_top" xlink:title=" ">
<polygon fill="white" stroke="black" points="376.5,-336.5 376.5,-355.5 433.5,-355.5 433.5,-336.5 376.5,-336.5"/>
<text text-anchor="middle" x="405" y="-343.5" font-family="Helvetica,sans-Serif" font-size="10.00">mat4.cpp</text>
</a>
</g>
</g>
<!-- Node30&#45;&gt;Node31 -->
<g id="edge40" class="edge">
<title>Node30&#45;&gt;Node31</title>
<path fill="none" stroke="midnightblue" d="M403.71,-381.8C404.04,-372.91 404.42,-362.78 404.68,-355.75"/>
<polygon fill="midnightblue" stroke="midnightblue" points="400.2,-381.96 403.33,-392.08 407.2,-382.22 400.2,-381.96"/>
</g>
<!-- Node32&#45;&gt;Node13 -->
<g id="edge44" class="edge">
<title>Node32&#45;&gt;Node13</title>
<path fill="none" stroke="midnightblue" d="M524,-385C514.43,-375.43 502.64,-363.64 494.75,-355.75"/>
<polygon fill="midnightblue" stroke="midnightblue" points="521.54,-387.49 531.08,-392.08 526.49,-382.54 521.54,-387.49"/>
</g>
<!-- Node33 -->
<g id="node33" class="node">
<title>Node33</title>
<g id="a_node33"><a xlink:href="ray_8cpp.html" target="_top" xlink:title=" ">
<polygon fill="white" stroke="black" points="538.5,-336.5 538.5,-355.5 585.5,-355.5 585.5,-336.5 538.5,-336.5"/>
<text text-anchor="middle" x="562" y="-343.5" font-family="Helvetica,sans-Serif" font-size="10.00">ray.cpp</text>
</a>
</g>
</g>
<!-- Node32&#45;&gt;Node33 -->
<g id="edge43" class="edge">
<title>Node32&#45;&gt;Node33</title>
<path fill="none" stroke="midnightblue" d="M547.46,-382.69C551.17,-373.59 555.48,-363.01 558.43,-355.75"/>
<polygon fill="midnightblue" stroke="midnightblue" points="544.16,-381.5 543.63,-392.08 550.65,-384.14 544.16,-381.5"/>
</g>
<!-- Node35 -->
<g id="node35" class="node">
<title>Node35</title>
<g id="a_node35"><a xlink:href="color_8h.html" target="_top" xlink:title=" ">
<polygon fill="white" stroke="black" points="313.5,-336.5 313.5,-355.5 358.5,-355.5 358.5,-336.5 313.5,-336.5"/>
<text text-anchor="middle" x="336" y="-343.5" font-family="Helvetica,sans-Serif" font-size="10.00">color.h</text>
</a>
</g>
</g>
<!-- Node34&#45;&gt;Node35 -->
<g id="edge47" class="edge">
<title>Node34&#45;&gt;Node35</title>
<path fill="none" stroke="midnightblue" d="M336.64,-381.8C336.48,-372.91 336.29,-362.78 336.16,-355.75"/>
<polygon fill="midnightblue" stroke="midnightblue" points="333.15,-382.15 336.83,-392.08 340.15,-382.02 333.15,-382.15"/>
</g>
<!-- Node35&#45;&gt;Node2 -->
<g id="edge48" class="edge">
<title>Node35&#45;&gt;Node2</title>
<path fill="none" stroke="midnightblue" d="M303.39,-335.98C187.57,-307.15 129.05,-332.27 57,-244 43.32,-227.24 39.49,-200.99 38.42,-187.56"/>
<polygon fill="midnightblue" stroke="midnightblue" points="302.74,-339.42 313.29,-338.54 304.49,-332.65 302.74,-339.42"/>
</g>
<!-- Node35&#45;&gt;Node14 -->
<g id="edge50" class="edge">
<title>Node35&#45;&gt;Node14</title>
<path fill="none" stroke="midnightblue" d="M323.98,-328.14C318.54,-319.94 312.37,-309.76 308,-300 299.36,-280.68 293.48,-256.39 290.75,-243.68"/>
<polygon fill="midnightblue" stroke="midnightblue" points="321.13,-330.17 329.68,-336.43 326.9,-326.21 321.13,-330.17"/>
</g>
<!-- Node35&#45;&gt;Node17 -->
<g id="edge51" class="edge">
<title>Node35&#45;&gt;Node17</title>
<path fill="none" stroke="midnightblue" d="M368.28,-334.74C402.63,-323.59 453.02,-306.5 460,-300 504.35,-258.73 530.92,-216.03 494,-168 480.68,-150.67 428.87,-138.6 386.09,-131.35"/>
<polygon fill="midnightblue" stroke="midnightblue" points="367.07,-331.45 358.63,-337.85 369.22,-338.11 367.07,-331.45"/>
</g>
<!-- Node35&#45;&gt;Node25 -->
<g id="edge52" class="edge">
<title>Node35&#45;&gt;Node25</title>
<path fill="none" stroke="midnightblue" d="M358.98,-330.9C375.11,-321 396.18,-308.07 409.9,-299.65"/>
<polygon fill="midnightblue" stroke="midnightblue" points="356.83,-328.11 350.14,-336.32 360.49,-334.08 356.83,-328.11"/>
</g>
<!-- Node35&#45;&gt;Node27 -->
<g id="edge53" class="edge">
<title>Node35&#45;&gt;Node27</title>
<path fill="none" stroke="midnightblue" d="M304.87,-332.64C279.34,-322.5 243.89,-308.43 221.45,-299.52"/>
<polygon fill="midnightblue" stroke="midnightblue" points="303.86,-336.01 314.45,-336.44 306.45,-329.5 303.86,-336.01"/>
</g>
<!-- Node36 -->
<g id="node36" class="node">
<title>Node36</title>
<g id="a_node36"><a xlink:href="color_8cpp.html" target="_top" xlink:title=" ">
<polygon fill="white" stroke="black" points="317,-280.5 317,-299.5 373,-299.5 373,-280.5 317,-280.5"/>
<text text-anchor="middle" x="345" y="-287.5" font-family="Helvetica,sans-Serif" font-size="10.00">color.cpp</text>
</a>
</g>
</g>
<!-- Node35&#45;&gt;Node36 -->
<g id="edge49" class="edge">
<title>Node35&#45;&gt;Node36</title>
<path fill="none" stroke="midnightblue" d="M339.15,-326.1C340.64,-317.14 342.36,-306.86 343.54,-299.75"/>
<polygon fill="midnightblue" stroke="midnightblue" points="335.68,-325.64 337.49,-336.08 342.58,-326.79 335.68,-325.64"/>
</g>
</g>
</svg>
        <g id="navigator" transform="translate(0 0)" fill="#404254">
                <rect fill="#f2f5e9" fill-opacity="0.5" stroke="#606060" stroke-width=".5" x="0" y="0" width="60" height="60"/>
                <use id="zoomplus" xlink:href="#zoomPlus" x="17" y="9" onmousedown="handleZoom(evt,'in')"/>
                <use id="zoomminus" xlink:href="#zoomMin" x="42" y="9" onmousedown="handleZoom(evt,'out')"/>
                <use id="reset" xlink:href="#resetDef" x="30" y="36" onmousedown="handleReset()"/>
                <g id="arrowUp" xlink:href="#dirArrow" transform="translate(30 24)" onmousedown="handlePan(0,-1)">
                  <use xlink:href="#rim" fill="#404040">
                        <set attributeName="fill" to="#808080" begin="arrowUp.mouseover" end="arrowUp.mouseout"/>
                  </use>
                  <path fill="none" stroke="white" stroke-width="1.5" d="M0,-3.0v7 M-2.5,-0.5L0,-3.0L2.5,-0.5"/>
                </g>
                <g id="arrowRight" xlink:href="#dirArrow" transform="rotate(90) translate(36 -43)" onmousedown="handlePan(1,0)">
                  <use xlink:href="#rim" fill="#404040">
                        <set attributeName="fill" to="#808080" begin="arrowRight.mouseover" end="arrowRight.mouseout"/>
                  </use>
                  <path fill="none" stroke="white" stroke-width="1.5" d="M0,-3.0v7 M-2.5,-0.5L0,-3.0L2.5,-0.5"/>
                </g>
                <g id="arrowDown" xlink:href="#dirArrow" transform="rotate(180) translate(-30 -48)" onmousedown="handlePan(0,1)">
                  <use xlink:href="#rim" fill="#404040">
                        <set attributeName="fill" to="#808080" begin="arrowDown.mouseover" end="arrowDown.mouseout"/>
                  </use>
                  <path fill="none" stroke="white" stroke-width="1.5" d="M0,-3.0v7 M-2.5,-0.5L0,-3.0L2.5,-0.5"/>
                </g>
                <g id="arrowLeft" xlink:href="#dirArrow" transform="rotate(270) translate(-36 17)" onmousedown="handlePan(-1,0)">
                  <use xlink:href="#rim" fill="#404040">
                        <set attributeName="fill" to="#808080" begin="arrowLeft.mouseover" end="arrowLeft.mouseout"/>
                  </use>
                  <path fill="none" stroke="white" stroke-width="1.5" d="M0,-3.0v7 M-2.5,-0.5L0,-3.0L2.5,-0.5"/>
                </g>
        </g>
        <svg viewBox="0 0 15 15" width="100%" height="30px" preserveAspectRatio="xMaxYMin meet">
         <g id="arrow_out" transform="scale(0.3 0.3)">
          <a xlink:href="vec2_8h__dep__incl_org.svg" target="_base">
           <rect id="button" ry="5" rx="5" y="6" x="6" height="38" width="38"
                fill="#f2f5e9" fill-opacity="0.5" stroke="#606060" stroke-width="1.0"/>
           <path id="arrow"
             d="M 11.500037,31.436501 C 11.940474,20.09759 22.043105,11.32322 32.158766,21.979434 L 37.068811,17.246167 C 37.068811,17.246167 37.088388,32 37.088388,32 L 22.160133,31.978069 C 22.160133,31.978069 26.997745,27.140456 26.997745,27.140456 C 18.528582,18.264221 13.291696,25.230495 11.500037,31.436501 z"
             style="fill:#404040;"/>
          </a>
         </g>
        </svg>
</svg>
