<?xml version="1.0" encoding="UTF-8" standalone="no"?>
<!DOCTYPE svg PUBLIC "-//W3C//DTD SVG 1.1//EN"
 "http://www.w3.org/Graphics/SVG/1.1/DTD/svg11.dtd">
<!-- Generated by graphviz version 2.50.0 (20211204.2007)
 -->
<!-- Title: vec3.h Pages: 1 -->
<svg width="549pt" height="476pt"
 viewBox="0.00 0.00 549.45 476.00" xmlns="http://www.w3.org/2000/svg" xmlns:xlink="http://www.w3.org/1999/xlink">
<g id="graph0" class="graph" transform="scale(1 1) rotate(0) translate(4 472)">
<title>vec3.h</title>
<polygon fill="white" stroke="transparent" points="-4,4 -4,-472 545.45,-472 545.45,4 -4,4"/>
<!-- Node1 -->
<g id="node1" class="node">
<title>Node1</title>
<g id="a_node1"><a xlink:title=" ">
<polygon fill="#bfbfbf" stroke="black" points="279,-448.5 279,-467.5 325,-467.5 325,-448.5 279,-448.5"/>
<text text-anchor="middle" x="302" y="-455.5" font-family="Helvetica,sans-Serif" font-size="10.00">vec3.h</text>
</a>
</g>
</g>
<!-- Node2 -->
<g id="node2" class="node">
<title>Node2</title>
<g id="a_node2"><a xlink:href="mat4_8h.html" target="_top" xlink:title=" ">
<polygon fill="white" stroke="black" points="252.5,-392.5 252.5,-411.5 299.5,-411.5 299.5,-392.5 252.5,-392.5"/>
<text text-anchor="middle" x="276" y="-399.5" font-family="Helvetica,sans-Serif" font-size="10.00">mat4.h</text>
</a>
</g>
</g>
<!-- Node1&#45;&gt;Node2 -->
<g id="edge1" class="edge">
<title>Node1&#45;&gt;Node2</title>
<path fill="none" stroke="midnightblue" d="M293.33,-438.98C288.91,-429.82 283.75,-419.09 280.21,-411.75"/>
<polygon fill="midnightblue" stroke="midnightblue" points="290.21,-440.59 297.71,-448.08 296.52,-437.55 290.21,-440.59"/>
</g>
<!-- Node4 -->
<g id="node4" class="node">
<title>Node4</title>
<g id="a_node4"><a xlink:href="sml__math_8h.html" target="_top" xlink:title=" ">
<polygon fill="white" stroke="black" points="309,-336.5 309,-355.5 377,-355.5 377,-336.5 309,-336.5"/>
<text text-anchor="middle" x="343" y="-343.5" font-family="Helvetica,sans-Serif" font-size="10.00">sml_math.h</text>
</a>
</g>
</g>
<!-- Node1&#45;&gt;Node4 -->
<g id="edge27" class="edge">
<title>Node1&#45;&gt;Node4</title>
<path fill="none" stroke="midnightblue" d="M308.71,-439C317.66,-415 333.13,-373.47 339.8,-355.59"/>
<polygon fill="midnightblue" stroke="midnightblue" points="305.43,-437.78 305.22,-448.37 311.99,-440.22 305.43,-437.78"/>
</g>
<!-- Node20 -->
<g id="node20" class="node">
<title>Node20</title>
<g id="a_node20"><a xlink:href="ray_8h.html" target="_top" xlink:title=" ">
<polygon fill="white" stroke="black" points="356.5,-392.5 356.5,-411.5 393.5,-411.5 393.5,-392.5 356.5,-392.5"/>
<text text-anchor="middle" x="375" y="-399.5" font-family="Helvetica,sans-Serif" font-size="10.00">ray.h</text>
</a>
</g>
</g>
<!-- Node1&#45;&gt;Node20 -->
<g id="edge24" class="edge">
<title>Node1&#45;&gt;Node20</title>
<path fill="none" stroke="midnightblue" d="M322.14,-442.1C335.28,-432.38 351.98,-420.03 363.06,-411.83"/>
<polygon fill="midnightblue" stroke="midnightblue" points="319.69,-439.56 313.73,-448.32 323.85,-445.19 319.69,-439.56"/>
</g>
<!-- Node22 -->
<g id="node22" class="node">
<title>Node22</title>
<g id="a_node22"><a xlink:href="vec4_8h.html" target="_top" xlink:title=" ">
<polygon fill="white" stroke="black" points="186,-392.5 186,-411.5 232,-411.5 232,-392.5 186,-392.5"/>
<text text-anchor="middle" x="209" y="-399.5" font-family="Helvetica,sans-Serif" font-size="10.00">vec4.h</text>
</a>
</g>
</g>
<!-- Node1&#45;&gt;Node22 -->
<g id="edge28" class="edge">
<title>Node1&#45;&gt;Node22</title>
<path fill="none" stroke="midnightblue" d="M278.19,-443.18C261.08,-433.24 238.53,-420.15 223.9,-411.65"/>
<polygon fill="midnightblue" stroke="midnightblue" points="276.65,-446.33 287.06,-448.32 280.17,-440.28 276.65,-446.33"/>
</g>
<!-- Node3 -->
<g id="node3" class="node">
<title>Node3</title>
<g id="a_node3"><a xlink:href="mat4_8cpp.html" target="_top" xlink:title=" ">
<polygon fill="white" stroke="black" points="233.5,-336.5 233.5,-355.5 290.5,-355.5 290.5,-336.5 233.5,-336.5"/>
<text text-anchor="middle" x="262" y="-343.5" font-family="Helvetica,sans-Serif" font-size="10.00">mat4.cpp</text>
</a>
</g>
</g>
<!-- Node2&#45;&gt;Node3 -->
<g id="edge2" class="edge">
<title>Node2&#45;&gt;Node3</title>
<path fill="none" stroke="midnightblue" d="M271.18,-382.4C268.83,-373.36 266.13,-362.94 264.27,-355.75"/>
<polygon fill="midnightblue" stroke="midnightblue" points="267.79,-383.28 273.69,-392.08 274.57,-381.52 267.79,-383.28"/>
</g>
<!-- Node2&#45;&gt;Node4 -->
<g id="edge3" class="edge">
<title>Node2&#45;&gt;Node4</title>
<path fill="none" stroke="midnightblue" d="M294.83,-385.82C306.84,-376.15 321.97,-363.95 332.04,-355.83"/>
<polygon fill="midnightblue" stroke="midnightblue" points="292.35,-383.32 286.76,-392.32 296.75,-388.77 292.35,-383.32"/>
</g>
<!-- Node5 -->
<g id="node5" class="node">
<title>Node5</title>
<g id="a_node5"><a xlink:href="renderer_8h.html" target="_top" xlink:title=" ">
<polygon fill="white" stroke="black" points="294.5,-224.5 294.5,-243.5 353.5,-243.5 353.5,-224.5 294.5,-224.5"/>
<text text-anchor="middle" x="324" y="-231.5" font-family="Helvetica,sans-Serif" font-size="10.00">renderer.h</text>
</a>
</g>
</g>
<!-- Node4&#45;&gt;Node5 -->
<g id="edge4" class="edge">
<title>Node4&#45;&gt;Node5</title>
<path fill="none" stroke="midnightblue" d="M339.78,-326.35C335.62,-302.25 328.54,-261.31 325.48,-243.59"/>
<polygon fill="midnightblue" stroke="midnightblue" points="336.36,-327.11 341.51,-336.37 343.26,-325.92 336.36,-327.11"/>
</g>
<!-- Node18 -->
<g id="node18" class="node">
<title>Node18</title>
<g id="a_node18"><a xlink:href="texture_8h.html" target="_top" xlink:title="Basic texture management.">
<polygon fill="white" stroke="black" points="348.5,-280.5 348.5,-299.5 403.5,-299.5 403.5,-280.5 348.5,-280.5"/>
<text text-anchor="middle" x="376" y="-287.5" font-family="Helvetica,sans-Serif" font-size="10.00">texture.h</text>
</a>
</g>
</g>
<!-- Node4&#45;&gt;Node18 -->
<g id="edge19" class="edge">
<title>Node4&#45;&gt;Node18</title>
<path fill="none" stroke="midnightblue" d="M353.83,-327.27C359.47,-318.05 366.12,-307.17 370.65,-299.75"/>
<polygon fill="midnightblue" stroke="midnightblue" points="350.68,-325.73 348.45,-336.08 356.65,-329.38 350.68,-325.73"/>
</g>
<!-- Node6 -->
<g id="node6" class="node">
<title>Node6</title>
<g id="a_node6"><a xlink:href="blur_8h.html" target="_top" xlink:title=" ">
<polygon fill="white" stroke="black" points="5,-168.5 5,-187.5 45,-187.5 45,-168.5 5,-168.5"/>
<text text-anchor="middle" x="25" y="-175.5" font-family="Helvetica,sans-Serif" font-size="10.00">blur.h</text>
</a>
</g>
</g>
<!-- Node5&#45;&gt;Node6 -->
<g id="edge5" class="edge">
<title>Node5&#45;&gt;Node6</title>
<path fill="none" stroke="midnightblue" d="M284.14,-223.92C188.85,-204.9 87.68,-188.72 45.3,-182.12"/>
<polygon fill="midnightblue" stroke="midnightblue" points="283.73,-227.41 294.23,-225.95 285.11,-220.55 283.73,-227.41"/>
</g>
<!-- Node8 -->
<g id="node8" class="node">
<title>Node8</title>
<g id="a_node8"><a xlink:href="primitives_8h.html" target="_top" xlink:title=" ">
<polygon fill="white" stroke="black" points="312.5,-168.5 312.5,-187.5 379.5,-187.5 379.5,-168.5 312.5,-168.5"/>
<text text-anchor="middle" x="346" y="-175.5" font-family="Helvetica,sans-Serif" font-size="10.00">primitives.h</text>
</a>
</g>
</g>
<!-- Node5&#45;&gt;Node8 -->
<g id="edge7" class="edge">
<title>Node5&#45;&gt;Node8</title>
<path fill="none" stroke="midnightblue" d="M331.46,-214.69C335.17,-205.59 339.48,-195.01 342.43,-187.75"/>
<polygon fill="midnightblue" stroke="midnightblue" points="328.16,-213.5 327.63,-224.08 334.65,-216.14 328.16,-213.5"/>
</g>
<!-- Node10 -->
<g id="node10" class="node">
<title>Node10</title>
<g id="a_node10"><a xlink:href="sml__graphics__wrapper_8h.html" target="_top" xlink:title=" ">
<polygon fill="white" stroke="black" points="145,-112.5 145,-131.5 267,-131.5 267,-112.5 145,-112.5"/>
<text text-anchor="middle" x="206" y="-119.5" font-family="Helvetica,sans-Serif" font-size="10.00">sml_graphics_wrapper.h</text>
</a>
</g>
</g>
<!-- Node5&#45;&gt;Node10 -->
<g id="edge14" class="edge">
<title>Node5&#45;&gt;Node10</title>
<path fill="none" stroke="midnightblue" d="M284.75,-221.36C257.3,-212.41 224.01,-199.65 215,-188 202.17,-171.42 203.14,-145.09 204.69,-131.6"/>
<polygon fill="midnightblue" stroke="midnightblue" points="283.95,-224.78 294.54,-224.48 286.07,-218.11 283.95,-224.78"/>
</g>
<!-- Node14 -->
<g id="node14" class="node">
<title>Node14</title>
<g id="a_node14"><a xlink:href="renderer_8cpp.html" target="_top" xlink:title=" ">
<polygon fill="white" stroke="black" points="224,-168.5 224,-187.5 294,-187.5 294,-168.5 224,-168.5"/>
<text text-anchor="middle" x="259" y="-175.5" font-family="Helvetica,sans-Serif" font-size="10.00">renderer.cpp</text>
</a>
</g>
</g>
<!-- Node5&#45;&gt;Node14 -->
<g id="edge13" class="edge">
<title>Node5&#45;&gt;Node14</title>
<path fill="none" stroke="midnightblue" d="M305.73,-217.82C294.08,-208.15 279.4,-195.95 269.63,-187.83"/>
<polygon fill="midnightblue" stroke="midnightblue" points="303.63,-220.63 313.56,-224.32 308.1,-215.24 303.63,-220.63"/>
</g>
<!-- Node15 -->
<g id="node15" class="node">
<title>Node15</title>
<g id="a_node15"><a xlink:href="text_8h.html" target="_top" xlink:title=" ">
<polygon fill="white" stroke="black" points="397.5,-168.5 397.5,-187.5 438.5,-187.5 438.5,-168.5 397.5,-168.5"/>
<text text-anchor="middle" x="418" y="-175.5" font-family="Helvetica,sans-Serif" font-size="10.00">text.h</text>
</a>
</g>
</g>
<!-- Node5&#45;&gt;Node15 -->
<g id="edge15" class="edge">
<title>Node5&#45;&gt;Node15</title>
<path fill="none" stroke="midnightblue" d="M348.06,-219.18C365.36,-209.24 388.15,-196.15 402.93,-187.65"/>
<polygon fill="midnightblue" stroke="midnightblue" points="346.03,-216.31 339.1,-224.32 349.52,-222.38 346.03,-216.31"/>
</g>
<!-- Node17 -->
<g id="node17" class="node">
<title>Node17</title>
<g id="a_node17"><a xlink:href="texture_8cpp.html" target="_top" xlink:title=" ">
<polygon fill="white" stroke="black" points="456.5,-168.5 456.5,-187.5 521.5,-187.5 521.5,-168.5 456.5,-168.5"/>
<text text-anchor="middle" x="489" y="-175.5" font-family="Helvetica,sans-Serif" font-size="10.00">texture.cpp</text>
</a>
</g>
</g>
<!-- Node5&#45;&gt;Node17 -->
<g id="edge18" class="edge">
<title>Node5&#45;&gt;Node17</title>
<path fill="none" stroke="midnightblue" d="M359.74,-221.3C390.83,-211.13 435.15,-196.62 462.98,-187.52"/>
<polygon fill="midnightblue" stroke="midnightblue" points="358.56,-218.01 350.14,-224.44 360.74,-224.66 358.56,-218.01"/>
</g>
<!-- Node7 -->
<g id="node7" class="node">
<title>Node7</title>
<g id="a_node7"><a xlink:href="blur_8cpp.html" target="_top" xlink:title=" ">
<polygon fill="white" stroke="black" points="0,-112.5 0,-131.5 50,-131.5 50,-112.5 0,-112.5"/>
<text text-anchor="middle" x="25" y="-119.5" font-family="Helvetica,sans-Serif" font-size="10.00">blur.cpp</text>
</a>
</g>
</g>
<!-- Node6&#45;&gt;Node7 -->
<g id="edge6" class="edge">
<title>Node6&#45;&gt;Node7</title>
<path fill="none" stroke="midnightblue" d="M25,-157.8C25,-148.91 25,-138.78 25,-131.75"/>
<polygon fill="midnightblue" stroke="midnightblue" points="21.5,-158.08 25,-168.08 28.5,-158.08 21.5,-158.08"/>
</g>
<!-- Node9 -->
<g id="node9" class="node">
<title>Node9</title>
<g id="a_node9"><a xlink:href="primitives_8cpp.html" target="_top" xlink:title=" ">
<polygon fill="white" stroke="black" points="301.5,-112.5 301.5,-131.5 378.5,-131.5 378.5,-112.5 301.5,-112.5"/>
<text text-anchor="middle" x="340" y="-119.5" font-family="Helvetica,sans-Serif" font-size="10.00">primitives.cpp</text>
</a>
</g>
</g>
<!-- Node8&#45;&gt;Node9 -->
<g id="edge8" class="edge">
<title>Node8&#45;&gt;Node9</title>
<path fill="none" stroke="midnightblue" d="M343.9,-158.1C342.9,-149.14 341.76,-138.86 340.97,-131.75"/>
<polygon fill="midnightblue" stroke="midnightblue" points="340.43,-158.53 345.01,-168.08 347.38,-157.76 340.43,-158.53"/>
</g>
<!-- Node8&#45;&gt;Node10 -->
<g id="edge9" class="edge">
<title>Node8&#45;&gt;Node10</title>
<path fill="none" stroke="midnightblue" d="M314.3,-164.77C288,-154.63 251.28,-140.47 228.08,-131.52"/>
<polygon fill="midnightblue" stroke="midnightblue" points="313.23,-168.11 323.82,-168.44 315.75,-161.58 313.23,-168.11"/>
</g>
<!-- Node11 -->
<g id="node11" class="node">
<title>Node11</title>
<g id="a_node11"><a xlink:href="viewport_8h.html" target="_top" xlink:title=" ">
<polygon fill="white" stroke="black" points="175,-56.5 175,-75.5 237,-75.5 237,-56.5 175,-56.5"/>
<text text-anchor="middle" x="206" y="-63.5" font-family="Helvetica,sans-Serif" font-size="10.00">viewport.h</text>
</a>
</g>
</g>
<!-- Node10&#45;&gt;Node11 -->
<g id="edge10" class="edge">
<title>Node10&#45;&gt;Node11</title>
<path fill="none" stroke="midnightblue" d="M206,-101.8C206,-92.91 206,-82.78 206,-75.75"/>
<polygon fill="midnightblue" stroke="midnightblue" points="202.5,-102.08 206,-112.08 209.5,-102.08 202.5,-102.08"/>
</g>
<!-- Node12 -->
<g id="node12" class="node">
<title>Node12</title>
<g id="a_node12"><a xlink:href="sml__utils_8h.html" target="_top" xlink:title=" ">
<polygon fill="white" stroke="black" points="131,-0.5 131,-19.5 195,-19.5 195,-0.5 131,-0.5"/>
<text text-anchor="middle" x="163" y="-7.5" font-family="Helvetica,sans-Serif" font-size="10.00">sml_utils.h</text>
</a>
</g>
</g>
<!-- Node11&#45;&gt;Node12 -->
<g id="edge11" class="edge">
<title>Node11&#45;&gt;Node12</title>
<path fill="none" stroke="midnightblue" d="M192.58,-48.14C185.09,-38.74 176.06,-27.4 169.97,-19.75"/>
<polygon fill="midnightblue" stroke="midnightblue" points="189.93,-50.44 198.9,-56.08 195.41,-46.08 189.93,-50.44"/>
</g>
<!-- Node13 -->
<g id="node13" class="node">
<title>Node13</title>
<g id="a_node13"><a xlink:href="viewport_8cpp.html" target="_top" xlink:title=" ">
<polygon fill="white" stroke="black" points="213,-0.5 213,-19.5 285,-19.5 285,-0.5 213,-0.5"/>
<text text-anchor="middle" x="249" y="-7.5" font-family="Helvetica,sans-Serif" font-size="10.00">viewport.cpp</text>
</a>
</g>
</g>
<!-- Node11&#45;&gt;Node13 -->
<g id="edge12" class="edge">
<title>Node11&#45;&gt;Node13</title>
<path fill="none" stroke="midnightblue" d="M219.42,-48.14C226.91,-38.74 235.94,-27.4 242.03,-19.75"/>
<polygon fill="midnightblue" stroke="midnightblue" points="216.59,-46.08 213.1,-56.08 222.07,-50.44 216.59,-46.08"/>
</g>
<!-- Node15&#45;&gt;Node10 -->
<g id="edge16" class="edge">
<title>Node15&#45;&gt;Node10</title>
<path fill="none" stroke="midnightblue" d="M387.53,-167.7C332.51,-152.55 278.69,-139.69 243.67,-131.57"/>
<polygon fill="midnightblue" stroke="midnightblue" points="386.88,-171.15 397.45,-170.46 388.75,-164.41 386.88,-171.15"/>
</g>
<!-- Node16 -->
<g id="node16" class="node">
<title>Node16</title>
<g id="a_node16"><a xlink:href="text_8cpp.html" target="_top" xlink:title=" ">
<polygon fill="white" stroke="black" points="397,-112.5 397,-131.5 449,-131.5 449,-112.5 397,-112.5"/>
<text text-anchor="middle" x="423" y="-119.5" font-family="Helvetica,sans-Serif" font-size="10.00">text.cpp</text>
</a>
</g>
</g>
<!-- Node15&#45;&gt;Node16 -->
<g id="edge17" class="edge">
<title>Node15&#45;&gt;Node16</title>
<path fill="none" stroke="midnightblue" d="M419.75,-158.1C420.58,-149.14 421.53,-138.86 422.19,-131.75"/>
<polygon fill="midnightblue" stroke="midnightblue" points="416.26,-157.8 418.83,-168.08 423.23,-158.45 416.26,-157.8"/>
</g>
<!-- Node18&#45;&gt;Node5 -->
<g id="edge20" class="edge">
<title>Node18&#45;&gt;Node5</title>
<path fill="none" stroke="midnightblue" d="M360.32,-272.72C351.16,-263.2 339.95,-251.56 332.43,-243.75"/>
<polygon fill="midnightblue" stroke="midnightblue" points="357.96,-275.31 367.41,-280.08 363,-270.45 357.96,-275.31"/>
</g>
<!-- Node18&#45;&gt;Node10 -->
<g id="edge21" class="edge">
<title>Node18&#45;&gt;Node10</title>
<path fill="none" stroke="midnightblue" d="M413.13,-277.77C471.23,-258.38 572.86,-216.06 531,-168 522.42,-158.15 359.15,-139.3 267.37,-129.41"/>
<polygon fill="midnightblue" stroke="midnightblue" points="411.94,-274.47 403.52,-280.9 414.11,-281.13 411.94,-274.47"/>
</g>
<!-- Node18&#45;&gt;Node17 -->
<g id="edge22" class="edge">
<title>Node18&#45;&gt;Node17</title>
<path fill="none" stroke="midnightblue" d="M392.23,-273.21C416.45,-249.63 461.23,-206.03 480.17,-187.59"/>
<polygon fill="midnightblue" stroke="midnightblue" points="389.59,-270.89 384.87,-280.37 394.47,-275.9 389.59,-270.89"/>
</g>
<!-- Node19 -->
<g id="node19" class="node">
<title>Node19</title>
<g id="a_node19"><a xlink:href="window_8cpp.html" target="_top" xlink:title=" ">
<polygon fill="white" stroke="black" points="209.5,-224.5 209.5,-243.5 276.5,-243.5 276.5,-224.5 209.5,-224.5"/>
<text text-anchor="middle" x="243" y="-231.5" font-family="Helvetica,sans-Serif" font-size="10.00">window.cpp</text>
</a>
</g>
</g>
<!-- Node18&#45;&gt;Node19 -->
<g id="edge23" class="edge">
<title>Node18&#45;&gt;Node19</title>
<path fill="none" stroke="midnightblue" d="M345.55,-276.64C320.59,-266.5 285.92,-252.43 263.98,-243.52"/>
<polygon fill="midnightblue" stroke="midnightblue" points="344.34,-279.92 354.93,-280.44 346.98,-273.44 344.34,-279.92"/>
</g>
<!-- Node20&#45;&gt;Node4 -->
<g id="edge26" class="edge">
<title>Node20&#45;&gt;Node4</title>
<path fill="none" stroke="midnightblue" d="M364.5,-383.27C359.03,-374.05 352.58,-363.17 348.19,-355.75"/>
<polygon fill="midnightblue" stroke="midnightblue" points="361.61,-385.26 369.72,-392.08 367.63,-381.7 361.61,-385.26"/>
</g>
<!-- Node21 -->
<g id="node21" class="node">
<title>Node21</title>
<g id="a_node21"><a xlink:href="ray_8cpp.html" target="_top" xlink:title=" ">
<polygon fill="white" stroke="black" points="395.5,-336.5 395.5,-355.5 442.5,-355.5 442.5,-336.5 395.5,-336.5"/>
<text text-anchor="middle" x="419" y="-343.5" font-family="Helvetica,sans-Serif" font-size="10.00">ray.cpp</text>
</a>
</g>
</g>
<!-- Node20&#45;&gt;Node21 -->
<g id="edge25" class="edge">
<title>Node20&#45;&gt;Node21</title>
<path fill="none" stroke="midnightblue" d="M388.73,-384.14C396.4,-374.74 405.63,-363.4 411.87,-355.75"/>
<polygon fill="midnightblue" stroke="midnightblue" points="385.87,-382.12 382.27,-392.08 391.3,-386.54 385.87,-382.12"/>
</g>
<!-- Node23 -->
<g id="node23" class="node">
<title>Node23</title>
<g id="a_node23"><a xlink:href="color_8h.html" target="_top" xlink:title=" ">
<polygon fill="white" stroke="black" points="170.5,-336.5 170.5,-355.5 215.5,-355.5 215.5,-336.5 170.5,-336.5"/>
<text text-anchor="middle" x="193" y="-343.5" font-family="Helvetica,sans-Serif" font-size="10.00">color.h</text>
</a>
</g>
</g>
<!-- Node22&#45;&gt;Node23 -->
<g id="edge29" class="edge">
<title>Node22&#45;&gt;Node23</title>
<path fill="none" stroke="midnightblue" d="M203.49,-382.4C200.81,-373.36 197.72,-362.94 195.59,-355.75"/>
<polygon fill="midnightblue" stroke="midnightblue" points="200.16,-383.49 206.36,-392.08 206.87,-381.5 200.16,-383.49"/>
</g>
<!-- Node23&#45;&gt;Node5 -->
<g id="edge32" class="edge">
<title>Node23&#45;&gt;Node5</title>
<path fill="none" stroke="midnightblue" d="M213.52,-330.38C225.29,-321.8 240.22,-310.6 253,-300 276.15,-280.8 301.85,-256.46 315.06,-243.71"/>
<polygon fill="midnightblue" stroke="midnightblue" points="211.28,-327.68 205.22,-336.37 215.38,-333.35 211.28,-327.68"/>
</g>
<!-- Node23&#45;&gt;Node6 -->
<g id="edge30" class="edge">
<title>Node23&#45;&gt;Node6</title>
<path fill="none" stroke="midnightblue" d="M160.29,-342.54C129.93,-338.52 85.55,-327.92 59,-300 28.17,-267.59 24.91,-209.49 24.84,-187.63"/>
<polygon fill="midnightblue" stroke="midnightblue" points="160.05,-346.04 170.39,-343.71 160.86,-339.08 160.05,-346.04"/>
</g>
<!-- Node23&#45;&gt;Node10 -->
<g id="edge33" class="edge">
<title>Node23&#45;&gt;Node10</title>
<path fill="none" stroke="midnightblue" d="M160.87,-336.12C141.9,-329.26 118.94,-317.85 105,-300 83.91,-272.99 77.94,-255.25 92,-224 112.08,-179.39 162.67,-146.51 189.19,-131.7"/>
<polygon fill="midnightblue" stroke="midnightblue" points="159.77,-339.44 170.36,-339.3 161.99,-332.8 159.77,-339.44"/>
</g>
<!-- Node23&#45;&gt;Node18 -->
<g id="edge34" class="edge">
<title>Node23&#45;&gt;Node18</title>
<path fill="none" stroke="midnightblue" d="M225.54,-335.4C260.51,-325.08 315.49,-308.85 348.42,-299.14"/>
<polygon fill="midnightblue" stroke="midnightblue" points="224.41,-332.08 215.81,-338.27 226.39,-338.8 224.41,-332.08"/>
</g>
<!-- Node24 -->
<g id="node24" class="node">
<title>Node24</title>
<g id="a_node24"><a xlink:href="color_8cpp.html" target="_top" xlink:title=" ">
<polygon fill="white" stroke="black" points="114,-280.5 114,-299.5 170,-299.5 170,-280.5 114,-280.5"/>
<text text-anchor="middle" x="142" y="-287.5" font-family="Helvetica,sans-Serif" font-size="10.00">color.cpp</text>
</a>
</g>
</g>
<!-- Node23&#45;&gt;Node24 -->
<g id="edge31" class="edge">
<title>Node23&#45;&gt;Node24</title>
<path fill="none" stroke="midnightblue" d="M177.62,-328.72C168.63,-319.2 157.64,-307.56 150.26,-299.75"/>
<polygon fill="midnightblue" stroke="midnightblue" points="175.17,-331.22 184.58,-336.08 180.26,-326.41 175.17,-331.22"/>
</g>
<!-- Node25 -->
<g id="node25" class="node">
<title>Node25</title>
<g id="a_node25"><a xlink:href="window_8h.html" target="_top" xlink:title=" ">
<polygon fill="white" stroke="black" points="188,-280.5 188,-299.5 244,-299.5 244,-280.5 188,-280.5"/>
<text text-anchor="middle" x="216" y="-287.5" font-family="Helvetica,sans-Serif" font-size="10.00">window.h</text>
</a>
</g>
</g>
<!-- Node23&#45;&gt;Node25 -->
<g id="edge35" class="edge">
<title>Node23&#45;&gt;Node25</title>
<path fill="none" stroke="midnightblue" d="M200.8,-326.69C204.68,-317.59 209.18,-307.01 212.27,-299.75"/>
<polygon fill="midnightblue" stroke="midnightblue" points="197.5,-325.51 196.8,-336.08 203.94,-328.25 197.5,-325.51"/>
</g>
<!-- Node25&#45;&gt;Node5 -->
<g id="edge37" class="edge">
<title>Node25&#45;&gt;Node5</title>
<path fill="none" stroke="midnightblue" d="M242.55,-275.73C262.55,-265.73 289.39,-252.31 306.69,-243.65"/>
<polygon fill="midnightblue" stroke="midnightblue" points="240.73,-272.72 233.35,-280.32 243.86,-278.98 240.73,-272.72"/>
</g>
<!-- Node25&#45;&gt;Node10 -->
<g id="edge38" class="edge">
<title>Node25&#45;&gt;Node10</title>
<path fill="none" stroke="midnightblue" d="M207.94,-270.83C204.79,-262.78 201.57,-253.09 200,-244 192.81,-202.34 200.61,-151.51 204.29,-131.59"/>
<polygon fill="midnightblue" stroke="midnightblue" points="204.81,-272.4 211.89,-280.28 211.26,-269.7 204.81,-272.4"/>
</g>
<!-- Node25&#45;&gt;Node19 -->
<g id="edge39" class="edge">
<title>Node25&#45;&gt;Node19</title>
<path fill="none" stroke="midnightblue" d="M225.01,-270.98C229.59,-261.82 234.95,-251.09 238.62,-243.75"/>
<polygon fill="midnightblue" stroke="midnightblue" points="221.8,-269.57 220.46,-280.08 228.06,-272.7 221.8,-269.57"/>
</g>
<!-- Node26 -->
<g id="node26" class="node">
<title>Node26</title>
<g id="a_node26"><a xlink:href="app_8cpp.html" target="_top" xlink:title=" ">
<polygon fill="white" stroke="black" points="101.5,-224.5 101.5,-243.5 152.5,-243.5 152.5,-224.5 101.5,-224.5"/>
<text text-anchor="middle" x="127" y="-231.5" font-family="Helvetica,sans-Serif" font-size="10.00">app.cpp</text>
</a>
</g>
</g>
<!-- Node25&#45;&gt;Node26 -->
<g id="edge36" class="edge">
<title>Node25&#45;&gt;Node26</title>
<path fill="none" stroke="midnightblue" d="M192.76,-274.9C176.44,-265 155.13,-252.07 141.26,-243.65"/>
<polygon fill="midnightblue" stroke="midnightblue" points="191.34,-278.13 201.7,-280.32 194.97,-272.14 191.34,-278.13"/>
</g>
</g>
</svg>
