<?xml version="1.0" encoding="UTF-8" standalone="no"?>
<!DOCTYPE svg PUBLIC "-//W3C//DTD SVG 1.1//EN"
 "http://www.w3.org/Graphics/SVG/1.1/DTD/svg11.dtd">
<!-- Generated by graphviz version 2.50.0 (20211204.2007)
 -->
<!-- Title: vec4.h Pages: 1 -->
<!--zoomable 420 -->
<svg id="main" version="1.1" xmlns="http://www.w3.org/2000/svg" xmlns:xlink="http://www.w3.org/1999/xlink" xml:space="preserve" onload="init(evt)">
<style type="text/css"><![CDATA[
.edge:hover path { stroke: red; }
.edge:hover polygon { stroke: red; fill: red; }
]]></style>
<script type="text/javascript"><![CDATA[
var edges = document.getElementsByTagName('g');
if (edges && edges.length) {
  for (var i=0;i<edges.length;i++) {
    if (edges[i].id.substr(0,4)=='edge') {
      edges[i].setAttribute('class','edge');
    }
  }
}
]]></script>
        <defs>
                <circle id="rim" cx="0" cy="0" r="7"/>
                <circle id="rim2" cx="0" cy="0" r="3.5"/>
                <g id="zoomPlus">
                        <use xlink:href="#rim" fill="#404040">
                                <set attributeName="fill" to="#808080" begin="zoomplus.mouseover" end="zoomplus.mouseout"/>
                        </use>
                        <path d="M-4,0h8M0,-4v8" fill="none" stroke="white" stroke-width="1.5" pointer-events="none"/>
                </g>
                <g id="zoomMin">
                        <use xlink:href="#rim" fill="#404040">
                                <set attributeName="fill" to="#808080" begin="zoomminus.mouseover" end="zoomminus.mouseout"/>
                        </use>
                        <path d="M-4,0h8" fill="none" stroke="white" stroke-width="1.5" pointer-events="none"/>
                </g>
                <g id="dirArrow">
                        <path fill="none" stroke="white" stroke-width="1.5" d="M0,-3.0v7 M-2.5,-0.5L0,-3.0L2.5,-0.5"/>
                </g>
               <g id="resetDef">
                       <use xlink:href="#rim2" fill="#404040">
                               <set attributeName="fill" to="#808080" begin="reset.mouseover" end="reset.mouseout"/>
                       </use>
               </g>
        </defs>

<script type="text/javascript">
var viewWidth = 666;
var viewHeight = 420;
var sectionId = 'dynsection-1';
</script>
<script xlink:href="svgpan.js"/>
<svg id="graph" class="graph">
<g id="viewport">
<title>vec4.h</title>
<polygon fill="white" stroke="transparent" points="-4,4 -4,-416 662,-416 662,4 -4,4"/>
<!-- Node1 -->
<g id="node1" class="node">
<title>Node1</title>
<g id="a_node1"><a xlink:title=" ">
<polygon fill="#bfbfbf" stroke="black" points="355,-392.5 355,-411.5 401,-411.5 401,-392.5 355,-392.5"/>
<text text-anchor="middle" x="378" y="-399.5" font-family="Helvetica,sans-Serif" font-size="10.00">vec4.h</text>
</a>
</g>
</g>
<!-- Node2 -->
<g id="node2" class="node">
<title>Node2</title>
<g id="a_node2"><a xlink:href="color_8h.html" target="_top" xlink:title=" ">
<polygon fill="white" stroke="black" points="355.5,-336.5 355.5,-355.5 400.5,-355.5 400.5,-336.5 355.5,-336.5"/>
<text text-anchor="middle" x="378" y="-343.5" font-family="Helvetica,sans-Serif" font-size="10.00">color.h</text>
</a>
</g>
</g>
<!-- Node1&#45;&gt;Node2 -->
<g id="edge1" class="edge">
<title>Node1&#45;&gt;Node2</title>
<path fill="none" stroke="midnightblue" d="M378,-381.8C378,-372.91 378,-362.78 378,-355.75"/>
<polygon fill="midnightblue" stroke="midnightblue" points="374.5,-382.08 378,-392.08 381.5,-382.08 374.5,-382.08"/>
</g>
<!-- Node3 -->
<g id="node3" class="node">
<title>Node3</title>
<g id="a_node3"><a xlink:href="blur_8h.html" target="_top" xlink:title=" ">
<polygon fill="white" stroke="black" points="5,-168.5 5,-187.5 45,-187.5 45,-168.5 5,-168.5"/>
<text text-anchor="middle" x="25" y="-175.5" font-family="Helvetica,sans-Serif" font-size="10.00">blur.h</text>
</a>
</g>
</g>
<!-- Node2&#45;&gt;Node3 -->
<g id="edge2" class="edge">
<title>Node2&#45;&gt;Node3</title>
<path fill="none" stroke="midnightblue" d="M350.09,-331.87C280.58,-299.19 101.18,-214.83 43.3,-187.61"/>
<polygon fill="midnightblue" stroke="midnightblue" points="348.98,-335.22 359.52,-336.31 351.96,-328.89 348.98,-335.22"/>
</g>
<!-- Node5 -->
<g id="node5" class="node">
<title>Node5</title>
<g id="a_node5"><a xlink:href="color_8cpp.html" target="_top" xlink:title=" ">
<polygon fill="white" stroke="black" points="602,-280.5 602,-299.5 658,-299.5 658,-280.5 602,-280.5"/>
<text text-anchor="middle" x="630" y="-287.5" font-family="Helvetica,sans-Serif" font-size="10.00">color.cpp</text>
</a>
</g>
</g>
<!-- Node2&#45;&gt;Node5 -->
<g id="edge4" class="edge">
<title>Node2&#45;&gt;Node5</title>
<path fill="none" stroke="midnightblue" d="M410.74,-337.98C460.59,-327.3 554.69,-307.14 601.73,-297.06"/>
<polygon fill="midnightblue" stroke="midnightblue" points="409.85,-334.59 400.81,-340.11 411.32,-341.44 409.85,-334.59"/>
</g>
<!-- Node6 -->
<g id="node6" class="node">
<title>Node6</title>
<g id="a_node6"><a xlink:href="renderer_8h.html" target="_top" xlink:title=" ">
<polygon fill="white" stroke="black" points="254.5,-224.5 254.5,-243.5 313.5,-243.5 313.5,-224.5 254.5,-224.5"/>
<text text-anchor="middle" x="284" y="-231.5" font-family="Helvetica,sans-Serif" font-size="10.00">renderer.h</text>
</a>
</g>
</g>
<!-- Node2&#45;&gt;Node6 -->
<g id="edge5" class="edge">
<title>Node2&#45;&gt;Node6</title>
<path fill="none" stroke="midnightblue" d="M345.91,-331.94C331.28,-324.53 314.83,-313.92 304,-300 290.8,-283.04 286.26,-257.34 284.74,-243.9"/>
<polygon fill="midnightblue" stroke="midnightblue" points="344.66,-335.22 355.19,-336.35 347.67,-328.9 344.66,-335.22"/>
</g>
<!-- Node9 -->
<g id="node9" class="node">
<title>Node9</title>
<g id="a_node9"><a xlink:href="sml__graphics__wrapper_8h.html" target="_top" xlink:title=" ">
<polygon fill="white" stroke="black" points="367,-112.5 367,-131.5 489,-131.5 489,-112.5 367,-112.5"/>
<text text-anchor="middle" x="428" y="-119.5" font-family="Helvetica,sans-Serif" font-size="10.00">sml_graphics_wrapper.h</text>
</a>
</g>
</g>
<!-- Node2&#45;&gt;Node9 -->
<g id="edge19" class="edge">
<title>Node2&#45;&gt;Node9</title>
<path fill="none" stroke="midnightblue" d="M410.56,-337.16C452.56,-325.1 523.9,-297.56 555,-244 584.82,-192.65 495.52,-149.32 451.28,-131.59"/>
<polygon fill="midnightblue" stroke="midnightblue" points="409.53,-333.81 400.81,-339.83 411.38,-340.56 409.53,-333.81"/>
</g>
<!-- Node17 -->
<g id="node17" class="node">
<title>Node17</title>
<g id="a_node17"><a xlink:href="texture_8h.html" target="_top" xlink:title="Basic texture management.">
<polygon fill="white" stroke="black" points="313.5,-280.5 313.5,-299.5 368.5,-299.5 368.5,-280.5 313.5,-280.5"/>
<text text-anchor="middle" x="341" y="-287.5" font-family="Helvetica,sans-Serif" font-size="10.00">texture.h</text>
</a>
</g>
</g>
<!-- Node2&#45;&gt;Node17 -->
<g id="edge20" class="edge">
<title>Node2&#45;&gt;Node17</title>
<path fill="none" stroke="midnightblue" d="M366.05,-327.57C359.69,-318.27 352.13,-307.25 347,-299.75"/>
<polygon fill="midnightblue" stroke="midnightblue" points="363.35,-329.81 371.89,-336.08 369.13,-325.86 363.35,-329.81"/>
</g>
<!-- Node19 -->
<g id="node19" class="node">
<title>Node19</title>
<g id="a_node19"><a xlink:href="window_8h.html" target="_top" xlink:title=" ">
<polygon fill="white" stroke="black" points="387,-280.5 387,-299.5 443,-299.5 443,-280.5 387,-280.5"/>
<text text-anchor="middle" x="415" y="-287.5" font-family="Helvetica,sans-Serif" font-size="10.00">window.h</text>
</a>
</g>
</g>
<!-- Node2&#45;&gt;Node19 -->
<g id="edge25" class="edge">
<title>Node2&#45;&gt;Node19</title>
<path fill="none" stroke="midnightblue" d="M389.95,-327.57C396.31,-318.27 403.87,-307.25 409,-299.75"/>
<polygon fill="midnightblue" stroke="midnightblue" points="386.87,-325.86 384.11,-336.08 392.65,-329.81 386.87,-325.86"/>
</g>
<!-- Node4 -->
<g id="node4" class="node">
<title>Node4</title>
<g id="a_node4"><a xlink:href="blur_8cpp.html" target="_top" xlink:title=" ">
<polygon fill="white" stroke="black" points="0,-112.5 0,-131.5 50,-131.5 50,-112.5 0,-112.5"/>
<text text-anchor="middle" x="25" y="-119.5" font-family="Helvetica,sans-Serif" font-size="10.00">blur.cpp</text>
</a>
</g>
</g>
<!-- Node3&#45;&gt;Node4 -->
<g id="edge3" class="edge">
<title>Node3&#45;&gt;Node4</title>
<path fill="none" stroke="midnightblue" d="M25,-157.8C25,-148.91 25,-138.78 25,-131.75"/>
<polygon fill="midnightblue" stroke="midnightblue" points="21.5,-158.08 25,-168.08 28.5,-158.08 21.5,-158.08"/>
</g>
<!-- Node6&#45;&gt;Node3 -->
<g id="edge6" class="edge">
<title>Node6&#45;&gt;Node3</title>
<path fill="none" stroke="midnightblue" d="M244.49,-226.6C198.44,-218.84 120.2,-204.7 54,-188 51.14,-187.28 48.14,-186.44 45.2,-185.57"/>
<polygon fill="midnightblue" stroke="midnightblue" points="243.93,-230.06 254.37,-228.25 245.08,-223.15 243.93,-230.06"/>
</g>
<!-- Node7 -->
<g id="node7" class="node">
<title>Node7</title>
<g id="a_node7"><a xlink:href="primitives_8h.html" target="_top" xlink:title=" ">
<polygon fill="white" stroke="black" points="146.5,-168.5 146.5,-187.5 213.5,-187.5 213.5,-168.5 146.5,-168.5"/>
<text text-anchor="middle" x="180" y="-175.5" font-family="Helvetica,sans-Serif" font-size="10.00">primitives.h</text>
</a>
</g>
</g>
<!-- Node6&#45;&gt;Node7 -->
<g id="edge7" class="edge">
<title>Node6&#45;&gt;Node7</title>
<path fill="none" stroke="midnightblue" d="M258.17,-219.59C238.94,-209.61 213.26,-196.27 196.67,-187.65"/>
<polygon fill="midnightblue" stroke="midnightblue" points="256.8,-222.82 267.29,-224.32 260.03,-216.61 256.8,-222.82"/>
</g>
<!-- Node6&#45;&gt;Node9 -->
<g id="edge14" class="edge">
<title>Node6&#45;&gt;Node9</title>
<path fill="none" stroke="midnightblue" d="M314.96,-220.11C332.08,-212.2 353.22,-201.08 370,-188 391.71,-171.08 411.87,-145.36 421.7,-131.91"/>
<polygon fill="midnightblue" stroke="midnightblue" points="313.1,-217.11 305.41,-224.39 315.96,-223.5 313.1,-217.11"/>
</g>
<!-- Node13 -->
<g id="node13" class="node">
<title>Node13</title>
<g id="a_node13"><a xlink:href="renderer_8cpp.html" target="_top" xlink:title=" ">
<polygon fill="white" stroke="black" points="232,-168.5 232,-187.5 302,-187.5 302,-168.5 232,-168.5"/>
<text text-anchor="middle" x="267" y="-175.5" font-family="Helvetica,sans-Serif" font-size="10.00">renderer.cpp</text>
</a>
</g>
</g>
<!-- Node6&#45;&gt;Node13 -->
<g id="edge13" class="edge">
<title>Node6&#45;&gt;Node13</title>
<path fill="none" stroke="midnightblue" d="M278.14,-214.4C275.3,-205.36 272.02,-194.94 269.75,-187.75"/>
<polygon fill="midnightblue" stroke="midnightblue" points="274.85,-215.6 281.19,-224.08 281.53,-213.49 274.85,-215.6"/>
</g>
<!-- Node14 -->
<g id="node14" class="node">
<title>Node14</title>
<g id="a_node14"><a xlink:href="text_8h.html" target="_top" xlink:title=" ">
<polygon fill="white" stroke="black" points="320.5,-168.5 320.5,-187.5 361.5,-187.5 361.5,-168.5 320.5,-168.5"/>
<text text-anchor="middle" x="341" y="-175.5" font-family="Helvetica,sans-Serif" font-size="10.00">text.h</text>
</a>
</g>
</g>
<!-- Node6&#45;&gt;Node14 -->
<g id="edge15" class="edge">
<title>Node6&#45;&gt;Node14</title>
<path fill="none" stroke="midnightblue" d="M300.62,-217.25C310.73,-207.67 323.28,-195.79 331.68,-187.83"/>
<polygon fill="midnightblue" stroke="midnightblue" points="298.01,-214.91 293.16,-224.32 302.82,-219.99 298.01,-214.91"/>
</g>
<!-- Node16 -->
<g id="node16" class="node">
<title>Node16</title>
<g id="a_node16"><a xlink:href="texture_8cpp.html" target="_top" xlink:title=" ">
<polygon fill="white" stroke="black" points="63.5,-168.5 63.5,-187.5 128.5,-187.5 128.5,-168.5 63.5,-168.5"/>
<text text-anchor="middle" x="96" y="-175.5" font-family="Helvetica,sans-Serif" font-size="10.00">texture.cpp</text>
</a>
</g>
</g>
<!-- Node6&#45;&gt;Node16 -->
<g id="edge18" class="edge">
<title>Node6&#45;&gt;Node16</title>
<path fill="none" stroke="midnightblue" d="M244.2,-221.57C208.73,-211.38 157.63,-196.7 125.65,-187.52"/>
<polygon fill="midnightblue" stroke="midnightblue" points="243.63,-225.05 254.21,-224.44 245.57,-218.32 243.63,-225.05"/>
</g>
<!-- Node8 -->
<g id="node8" class="node">
<title>Node8</title>
<g id="a_node8"><a xlink:href="primitives_8cpp.html" target="_top" xlink:title=" ">
<polygon fill="white" stroke="black" points="141.5,-112.5 141.5,-131.5 218.5,-131.5 218.5,-112.5 141.5,-112.5"/>
<text text-anchor="middle" x="180" y="-119.5" font-family="Helvetica,sans-Serif" font-size="10.00">primitives.cpp</text>
</a>
</g>
</g>
<!-- Node7&#45;&gt;Node8 -->
<g id="edge8" class="edge">
<title>Node7&#45;&gt;Node8</title>
<path fill="none" stroke="midnightblue" d="M180,-157.8C180,-148.91 180,-138.78 180,-131.75"/>
<polygon fill="midnightblue" stroke="midnightblue" points="176.5,-158.08 180,-168.08 183.5,-158.08 176.5,-158.08"/>
</g>
<!-- Node7&#45;&gt;Node9 -->
<g id="edge9" class="edge">
<title>Node7&#45;&gt;Node9</title>
<path fill="none" stroke="midnightblue" d="M223.52,-167.52C270.19,-157.36 343.64,-141.37 388.64,-131.57"/>
<polygon fill="midnightblue" stroke="midnightblue" points="222.73,-164.11 213.7,-169.66 224.22,-170.95 222.73,-164.11"/>
</g>
<!-- Node10 -->
<g id="node10" class="node">
<title>Node10</title>
<g id="a_node10"><a xlink:href="viewport_8h.html" target="_top" xlink:title=" ">
<polygon fill="white" stroke="black" points="397,-56.5 397,-75.5 459,-75.5 459,-56.5 397,-56.5"/>
<text text-anchor="middle" x="428" y="-63.5" font-family="Helvetica,sans-Serif" font-size="10.00">viewport.h</text>
</a>
</g>
</g>
<!-- Node9&#45;&gt;Node10 -->
<g id="edge10" class="edge">
<title>Node9&#45;&gt;Node10</title>
<path fill="none" stroke="midnightblue" d="M428,-101.8C428,-92.91 428,-82.78 428,-75.75"/>
<polygon fill="midnightblue" stroke="midnightblue" points="424.5,-102.08 428,-112.08 431.5,-102.08 424.5,-102.08"/>
</g>
<!-- Node11 -->
<g id="node11" class="node">
<title>Node11</title>
<g id="a_node11"><a xlink:href="sml__utils_8h.html" target="_top" xlink:title=" ">
<polygon fill="white" stroke="black" points="353,-0.5 353,-19.5 417,-19.5 417,-0.5 353,-0.5"/>
<text text-anchor="middle" x="385" y="-7.5" font-family="Helvetica,sans-Serif" font-size="10.00">sml_utils.h</text>
</a>
</g>
</g>
<!-- Node10&#45;&gt;Node11 -->
<g id="edge11" class="edge">
<title>Node10&#45;&gt;Node11</title>
<path fill="none" stroke="midnightblue" d="M414.58,-48.14C407.09,-38.74 398.06,-27.4 391.97,-19.75"/>
<polygon fill="midnightblue" stroke="midnightblue" points="411.93,-50.44 420.9,-56.08 417.41,-46.08 411.93,-50.44"/>
</g>
<!-- Node12 -->
<g id="node12" class="node">
<title>Node12</title>
<g id="a_node12"><a xlink:href="viewport_8cpp.html" target="_top" xlink:title=" ">
<polygon fill="white" stroke="black" points="435,-0.5 435,-19.5 507,-19.5 507,-0.5 435,-0.5"/>
<text text-anchor="middle" x="471" y="-7.5" font-family="Helvetica,sans-Serif" font-size="10.00">viewport.cpp</text>
</a>
</g>
</g>
<!-- Node10&#45;&gt;Node12 -->
<g id="edge12" class="edge">
<title>Node10&#45;&gt;Node12</title>
<path fill="none" stroke="midnightblue" d="M441.42,-48.14C448.91,-38.74 457.94,-27.4 464.03,-19.75"/>
<polygon fill="midnightblue" stroke="midnightblue" points="438.59,-46.08 435.1,-56.08 444.07,-50.44 438.59,-46.08"/>
</g>
<!-- Node14&#45;&gt;Node9 -->
<g id="edge16" class="edge">
<title>Node14&#45;&gt;Node9</title>
<path fill="none" stroke="midnightblue" d="M363.72,-162.9C379.67,-153 400.5,-140.07 414.06,-131.65"/>
<polygon fill="midnightblue" stroke="midnightblue" points="361.63,-160.08 354.98,-168.32 365.32,-166.02 361.63,-160.08"/>
</g>
<!-- Node15 -->
<g id="node15" class="node">
<title>Node15</title>
<g id="a_node15"><a xlink:href="text_8cpp.html" target="_top" xlink:title=" ">
<polygon fill="white" stroke="black" points="297,-112.5 297,-131.5 349,-131.5 349,-112.5 297,-112.5"/>
<text text-anchor="middle" x="323" y="-119.5" font-family="Helvetica,sans-Serif" font-size="10.00">text.cpp</text>
</a>
</g>
</g>
<!-- Node14&#45;&gt;Node15 -->
<g id="edge17" class="edge">
<title>Node14&#45;&gt;Node15</title>
<path fill="none" stroke="midnightblue" d="M334.8,-158.4C331.79,-149.36 328.31,-138.94 325.92,-131.75"/>
<polygon fill="midnightblue" stroke="midnightblue" points="331.54,-159.7 338.03,-168.08 338.19,-157.49 331.54,-159.7"/>
</g>
<!-- Node17&#45;&gt;Node6 -->
<g id="edge21" class="edge">
<title>Node17&#45;&gt;Node6</title>
<path fill="none" stroke="midnightblue" d="M324.38,-273.25C314.27,-263.67 301.72,-251.79 293.32,-243.83"/>
<polygon fill="midnightblue" stroke="midnightblue" points="322.18,-275.99 331.84,-280.32 326.99,-270.91 322.18,-275.99"/>
</g>
<!-- Node17&#45;&gt;Node9 -->
<g id="edge22" class="edge">
<title>Node17&#45;&gt;Node9</title>
<path fill="none" stroke="midnightblue" d="M344.43,-270.03C347.43,-256.54 352.64,-238.35 361,-224 372.08,-204.99 382.33,-206 395,-188 408.11,-169.37 419.1,-144.8 424.47,-131.86"/>
<polygon fill="midnightblue" stroke="midnightblue" points="340.95,-269.58 342.41,-280.07 347.82,-270.96 340.95,-269.58"/>
</g>
<!-- Node17&#45;&gt;Node16 -->
<g id="edge23" class="edge">
<title>Node17&#45;&gt;Node16</title>
<path fill="none" stroke="midnightblue" d="M312.41,-276.16C261.86,-253.47 157.99,-206.83 115.14,-187.59"/>
<polygon fill="midnightblue" stroke="midnightblue" points="311.22,-279.47 321.78,-280.37 314.09,-273.08 311.22,-279.47"/>
</g>
<!-- Node18 -->
<g id="node18" class="node">
<title>Node18</title>
<g id="a_node18"><a xlink:href="window_8cpp.html" target="_top" xlink:title=" ">
<polygon fill="white" stroke="black" points="370.5,-224.5 370.5,-243.5 437.5,-243.5 437.5,-224.5 370.5,-224.5"/>
<text text-anchor="middle" x="404" y="-231.5" font-family="Helvetica,sans-Serif" font-size="10.00">window.cpp</text>
</a>
</g>
</g>
<!-- Node17&#45;&gt;Node18 -->
<g id="edge24" class="edge">
<title>Node17&#45;&gt;Node18</title>
<path fill="none" stroke="midnightblue" d="M359.04,-273.54C370.27,-263.91 384.32,-251.87 393.69,-243.83"/>
<polygon fill="midnightblue" stroke="midnightblue" points="356.44,-271.16 351.12,-280.32 360.99,-276.47 356.44,-271.16"/>
</g>
<!-- Node19&#45;&gt;Node6 -->
<g id="edge27" class="edge">
<title>Node19&#45;&gt;Node6</title>
<path fill="none" stroke="midnightblue" d="M384.68,-276.5C360.12,-266.38 326.18,-252.39 304.66,-243.52"/>
<polygon fill="midnightblue" stroke="midnightblue" points="383.66,-279.87 394.24,-280.44 386.33,-273.4 383.66,-279.87"/>
</g>
<!-- Node19&#45;&gt;Node9 -->
<g id="edge28" class="edge">
<title>Node19&#45;&gt;Node9</title>
<path fill="none" stroke="midnightblue" d="M429.98,-272.47C436.22,-264.48 442.77,-254.38 446,-244 458.68,-203.24 440.35,-151.89 431.89,-131.71"/>
<polygon fill="midnightblue" stroke="midnightblue" points="427.21,-270.32 423.48,-280.23 432.58,-274.81 427.21,-270.32"/>
</g>
<!-- Node19&#45;&gt;Node18 -->
<g id="edge29" class="edge">
<title>Node19&#45;&gt;Node18</title>
<path fill="none" stroke="midnightblue" d="M411.15,-270.1C409.32,-261.14 407.23,-250.86 405.78,-243.75"/>
<polygon fill="midnightblue" stroke="midnightblue" points="407.76,-270.98 413.18,-280.08 414.62,-269.59 407.76,-270.98"/>
</g>
<!-- Node20 -->
<g id="node20" class="node">
<title>Node20</title>
<g id="a_node20"><a xlink:href="app_8cpp.html" target="_top" xlink:title=" ">
<polygon fill="white" stroke="black" points="494.5,-224.5 494.5,-243.5 545.5,-243.5 545.5,-224.5 494.5,-224.5"/>
<text text-anchor="middle" x="520" y="-231.5" font-family="Helvetica,sans-Serif" font-size="10.00">app.cpp</text>
</a>
</g>
</g>
<!-- Node19&#45;&gt;Node20 -->
<g id="edge26" class="edge">
<title>Node19&#45;&gt;Node20</title>
<path fill="none" stroke="midnightblue" d="M440.81,-275.73C460.25,-265.73 486.35,-252.31 503.17,-243.65"/>
<polygon fill="midnightblue" stroke="midnightblue" points="439.16,-272.64 431.87,-280.32 442.36,-278.86 439.16,-272.64"/>
</g>
</g>
</svg>
        <g id="navigator" transform="translate(0 0)" fill="#404254">
                <rect fill="#f2f5e9" fill-opacity="0.5" stroke="#606060" stroke-width=".5" x="0" y="0" width="60" height="60"/>
                <use id="zoomplus" xlink:href="#zoomPlus" x="17" y="9" onmousedown="handleZoom(evt,'in')"/>
                <use id="zoomminus" xlink:href="#zoomMin" x="42" y="9" onmousedown="handleZoom(evt,'out')"/>
                <use id="reset" xlink:href="#resetDef" x="30" y="36" onmousedown="handleReset()"/>
                <g id="arrowUp" xlink:href="#dirArrow" transform="translate(30 24)" onmousedown="handlePan(0,-1)">
                  <use xlink:href="#rim" fill="#404040">
                        <set attributeName="fill" to="#808080" begin="arrowUp.mouseover" end="arrowUp.mouseout"/>
                  </use>
                  <path fill="none" stroke="white" stroke-width="1.5" d="M0,-3.0v7 M-2.5,-0.5L0,-3.0L2.5,-0.5"/>
                </g>
                <g id="arrowRight" xlink:href="#dirArrow" transform="rotate(90) translate(36 -43)" onmousedown="handlePan(1,0)">
                  <use xlink:href="#rim" fill="#404040">
                        <set attributeName="fill" to="#808080" begin="arrowRight.mouseover" end="arrowRight.mouseout"/>
                  </use>
                  <path fill="none" stroke="white" stroke-width="1.5" d="M0,-3.0v7 M-2.5,-0.5L0,-3.0L2.5,-0.5"/>
                </g>
                <g id="arrowDown" xlink:href="#dirArrow" transform="rotate(180) translate(-30 -48)" onmousedown="handlePan(0,1)">
                  <use xlink:href="#rim" fill="#404040">
                        <set attributeName="fill" to="#808080" begin="arrowDown.mouseover" end="arrowDown.mouseout"/>
                  </use>
                  <path fill="none" stroke="white" stroke-width="1.5" d="M0,-3.0v7 M-2.5,-0.5L0,-3.0L2.5,-0.5"/>
                </g>
                <g id="arrowLeft" xlink:href="#dirArrow" transform="rotate(270) translate(-36 17)" onmousedown="handlePan(-1,0)">
                  <use xlink:href="#rim" fill="#404040">
                        <set attributeName="fill" to="#808080" begin="arrowLeft.mouseover" end="arrowLeft.mouseout"/>
                  </use>
                  <path fill="none" stroke="white" stroke-width="1.5" d="M0,-3.0v7 M-2.5,-0.5L0,-3.0L2.5,-0.5"/>
                </g>
        </g>
        <svg viewBox="0 0 15 15" width="100%" height="30px" preserveAspectRatio="xMaxYMin meet">
         <g id="arrow_out" transform="scale(0.3 0.3)">
          <a xlink:href="vec4_8h__dep__incl_org.svg" target="_base">
           <rect id="button" ry="5" rx="5" y="6" x="6" height="38" width="38"
                fill="#f2f5e9" fill-opacity="0.5" stroke="#606060" stroke-width="1.0"/>
           <path id="arrow"
             d="M 11.500037,31.436501 C 11.940474,20.09759 22.043105,11.32322 32.158766,21.979434 L 37.068811,17.246167 C 37.068811,17.246167 37.088388,32 37.088388,32 L 22.160133,31.978069 C 22.160133,31.978069 26.997745,27.140456 26.997745,27.140456 C 18.528582,18.264221 13.291696,25.230495 11.500037,31.436501 z"
             style="fill:#404040;"/>
          </a>
         </g>
        </svg>
</svg>
