<?xml version="1.0" encoding="UTF-8" standalone="no"?>
<!DOCTYPE svg PUBLIC "-//W3C//DTD SVG 1.1//EN"
 "http://www.w3.org/Graphics/SVG/1.1/DTD/svg11.dtd">
<!-- Generated by graphviz version 2.50.0 (20211204.2007)
 -->
<!-- Title: vec4.h Pages: 1 -->
<svg width="268pt" height="252pt"
 viewBox="0.00 0.00 267.50 252.00" xmlns="http://www.w3.org/2000/svg" xmlns:xlink="http://www.w3.org/1999/xlink">
<g id="graph0" class="graph" transform="scale(1 1) rotate(0) translate(4 248)">
<title>vec4.h</title>
<polygon fill="white" stroke="transparent" points="-4,4 -4,-248 263.5,-248 263.5,4 -4,4"/>
<!-- Node1 -->
<g id="node1" class="node">
<title>Node1</title>
<g id="a_node1"><a xlink:title=" ">
<polygon fill="#bfbfbf" stroke="black" points="120,-224.5 120,-243.5 166,-243.5 166,-224.5 120,-224.5"/>
<text text-anchor="middle" x="143" y="-231.5" font-family="Helvetica,sans-Serif" font-size="10.00">vec4.h</text>
</a>
</g>
</g>
<!-- Node2 -->
<g id="node2" class="node">
<title>Node2</title>
<g id="a_node2"><a xlink:title=" ">
<polygon fill="white" stroke="#bfbfbf" points="0,-56.5 0,-75.5 52,-75.5 52,-56.5 0,-56.5"/>
<text text-anchor="middle" x="26" y="-63.5" font-family="Helvetica,sans-Serif" font-size="10.00">assert.h</text>
</a>
</g>
</g>
<!-- Node1&#45;&gt;Node2 -->
<g id="edge1" class="edge">
<title>Node1&#45;&gt;Node2</title>
<path fill="none" stroke="midnightblue" d="M136.8,-224.38C124.28,-206.98 95.14,-166.36 71,-132 59.7,-115.91 46.96,-97.48 37.92,-84.36"/>
<polygon fill="midnightblue" stroke="midnightblue" points="40.63,-82.11 32.08,-75.86 34.86,-86.08 40.63,-82.11"/>
</g>
<!-- Node3 -->
<g id="node3" class="node">
<title>Node3</title>
<g id="a_node3"><a xlink:title=" ">
<polygon fill="white" stroke="#bfbfbf" points="212.5,-56.5 212.5,-75.5 259.5,-75.5 259.5,-56.5 212.5,-56.5"/>
<text text-anchor="middle" x="236" y="-63.5" font-family="Helvetica,sans-Serif" font-size="10.00">math.h</text>
</a>
</g>
</g>
<!-- Node1&#45;&gt;Node3 -->
<g id="edge2" class="edge">
<title>Node1&#45;&gt;Node3</title>
<path fill="none" stroke="midnightblue" d="M149.78,-224.3C156.56,-215.43 167.08,-201.14 175,-188 196.27,-152.72 216.98,-109.1 227.94,-85.05"/>
<polygon fill="midnightblue" stroke="midnightblue" points="231.22,-86.3 232.14,-75.75 224.84,-83.42 231.22,-86.3"/>
</g>
<!-- Node4 -->
<g id="node4" class="node">
<title>Node4</title>
<g id="a_node4"><a xlink:href="vec3_8h.html" target="_top" xlink:title=" ">
<polygon fill="white" stroke="black" points="120,-168.5 120,-187.5 166,-187.5 166,-168.5 120,-168.5"/>
<text text-anchor="middle" x="143" y="-175.5" font-family="Helvetica,sans-Serif" font-size="10.00">vec3.h</text>
</a>
</g>
</g>
<!-- Node1&#45;&gt;Node4 -->
<g id="edge3" class="edge">
<title>Node1&#45;&gt;Node4</title>
<path fill="none" stroke="midnightblue" d="M143,-224.08C143,-217.01 143,-206.86 143,-197.99"/>
<polygon fill="midnightblue" stroke="midnightblue" points="146.5,-197.75 143,-187.75 139.5,-197.75 146.5,-197.75"/>
</g>
<!-- Node4&#45;&gt;Node2 -->
<g id="edge4" class="edge">
<title>Node4&#45;&gt;Node2</title>
<path fill="none" stroke="midnightblue" d="M133.82,-168.37C114.17,-149.89 67.79,-106.29 42.75,-82.74"/>
<polygon fill="midnightblue" stroke="midnightblue" points="44.82,-79.89 35.14,-75.59 40.03,-84.99 44.82,-79.89"/>
</g>
<!-- Node4&#45;&gt;Node3 -->
<g id="edge5" class="edge">
<title>Node4&#45;&gt;Node3</title>
<path fill="none" stroke="midnightblue" d="M150.3,-168.37C165.78,-150.05 202.14,-107.05 222.17,-83.36"/>
<polygon fill="midnightblue" stroke="midnightblue" points="224.95,-85.49 228.74,-75.59 219.61,-80.97 224.95,-85.49"/>
</g>
<!-- Node5 -->
<g id="node5" class="node">
<title>Node5</title>
<g id="a_node5"><a xlink:href="vec2_8h.html" target="_top" xlink:title=" ">
<polygon fill="white" stroke="black" points="120,-112.5 120,-131.5 166,-131.5 166,-112.5 120,-112.5"/>
<text text-anchor="middle" x="143" y="-119.5" font-family="Helvetica,sans-Serif" font-size="10.00">vec2.h</text>
</a>
</g>
</g>
<!-- Node4&#45;&gt;Node5 -->
<g id="edge6" class="edge">
<title>Node4&#45;&gt;Node5</title>
<path fill="none" stroke="midnightblue" d="M143,-168.08C143,-161.01 143,-150.86 143,-141.99"/>
<polygon fill="midnightblue" stroke="midnightblue" points="146.5,-141.75 143,-131.75 139.5,-141.75 146.5,-141.75"/>
</g>
<!-- Node5&#45;&gt;Node2 -->
<g id="edge7" class="edge">
<title>Node5&#45;&gt;Node2</title>
<path fill="none" stroke="midnightblue" d="M124.46,-112.44C105.38,-103.64 75.43,-89.81 53.56,-79.72"/>
<polygon fill="midnightblue" stroke="midnightblue" points="55,-76.53 44.45,-75.52 52.07,-82.88 55,-76.53"/>
</g>
<!-- Node5&#45;&gt;Node3 -->
<g id="edge9" class="edge">
<title>Node5&#45;&gt;Node3</title>
<path fill="none" stroke="midnightblue" d="M157.94,-112.32C172.59,-103.82 195.13,-90.73 212.24,-80.8"/>
<polygon fill="midnightblue" stroke="midnightblue" points="214.2,-83.7 221.1,-75.65 210.69,-77.65 214.2,-83.7"/>
</g>
<!-- Node6 -->
<g id="node6" class="node">
<title>Node6</title>
<g id="a_node6"><a xlink:title=" ">
<polygon fill="white" stroke="#bfbfbf" points="51.5,-0.5 51.5,-19.5 110.5,-19.5 110.5,-0.5 51.5,-0.5"/>
<text text-anchor="middle" x="81" y="-7.5" font-family="Helvetica,sans-Serif" font-size="10.00">inttypes.h</text>
</a>
</g>
</g>
<!-- Node5&#45;&gt;Node6 -->
<g id="edge8" class="edge">
<title>Node5&#45;&gt;Node6</title>
<path fill="none" stroke="midnightblue" d="M131.61,-112.21C121.61,-103.91 107.39,-90.58 99,-76 90.7,-61.57 86.06,-43.12 83.59,-29.56"/>
<polygon fill="midnightblue" stroke="midnightblue" points="87.02,-28.84 81.98,-19.52 80.1,-29.95 87.02,-28.84"/>
</g>
<!-- Node7 -->
<g id="node7" class="node">
<title>Node7</title>
<g id="a_node7"><a xlink:href="float__compare_8h.html" target="_top" xlink:title=" ">
<polygon fill="white" stroke="black" points="108,-56.5 108,-75.5 194,-75.5 194,-56.5 108,-56.5"/>
<text text-anchor="middle" x="151" y="-63.5" font-family="Helvetica,sans-Serif" font-size="10.00">float_compare.h</text>
</a>
</g>
</g>
<!-- Node5&#45;&gt;Node7 -->
<g id="edge10" class="edge">
<title>Node5&#45;&gt;Node7</title>
<path fill="none" stroke="midnightblue" d="M144.32,-112.08C145.38,-104.93 146.91,-94.64 148.23,-85.69"/>
<polygon fill="midnightblue" stroke="midnightblue" points="151.7,-86.16 149.7,-75.75 144.78,-85.13 151.7,-86.16"/>
</g>
<!-- Node7&#45;&gt;Node6 -->
<g id="edge11" class="edge">
<title>Node7&#45;&gt;Node6</title>
<path fill="none" stroke="midnightblue" d="M139.75,-56.32C129.2,-48.18 113.2,-35.84 100.56,-26.09"/>
<polygon fill="midnightblue" stroke="midnightblue" points="102.51,-23.17 92.45,-19.83 98.23,-28.71 102.51,-23.17"/>
</g>
<!-- Node8 -->
<g id="node8" class="node">
<title>Node8</title>
<g id="a_node8"><a xlink:title=" ">
<polygon fill="white" stroke="#bfbfbf" points="129,-0.5 129,-19.5 173,-19.5 173,-0.5 129,-0.5"/>
<text text-anchor="middle" x="151" y="-7.5" font-family="Helvetica,sans-Serif" font-size="10.00">float.h</text>
</a>
</g>
</g>
<!-- Node7&#45;&gt;Node8 -->
<g id="edge12" class="edge">
<title>Node7&#45;&gt;Node8</title>
<path fill="none" stroke="midnightblue" d="M151,-56.08C151,-49.01 151,-38.86 151,-29.99"/>
<polygon fill="midnightblue" stroke="midnightblue" points="154.5,-29.75 151,-19.75 147.5,-29.75 154.5,-29.75"/>
</g>
</g>
</svg>
