<?xml version="1.0" encoding="UTF-8" standalone="no"?>
<!DOCTYPE svg PUBLIC "-//W3C//DTD SVG 1.1//EN"
 "http://www.w3.org/Graphics/SVG/1.1/DTD/svg11.dtd">
<!-- Generated by graphviz version 2.50.0 (20211204.2007)
 -->
<!-- Title: window.cpp Pages: 1 -->
<svg width="919pt" height="420pt"
 viewBox="0.00 0.00 919.46 420.00" xmlns="http://www.w3.org/2000/svg" xmlns:xlink="http://www.w3.org/1999/xlink">
<g id="graph0" class="graph" transform="scale(1 1) rotate(0) translate(4 416)">
<title>window.cpp</title>
<polygon fill="white" stroke="transparent" points="-4,4 -4,-416 915.46,-416 915.46,4 -4,4"/>
<!-- Node1 -->
<g id="node1" class="node">
<title>Node1</title>
<g id="a_node1"><a xlink:title=" ">
<polygon fill="#bfbfbf" stroke="black" points="182.5,-392.5 182.5,-411.5 249.5,-411.5 249.5,-392.5 182.5,-392.5"/>
<text text-anchor="middle" x="216" y="-399.5" font-family="Helvetica,sans-Serif" font-size="10.00">window.cpp</text>
</a>
</g>
</g>
<!-- Node2 -->
<g id="node2" class="node">
<title>Node2</title>
<g id="a_node2"><a xlink:title=" ">
<polygon fill="white" stroke="#bfbfbf" points="430,-56.5 430,-75.5 482,-75.5 482,-56.5 430,-56.5"/>
<text text-anchor="middle" x="456" y="-63.5" font-family="Helvetica,sans-Serif" font-size="10.00">assert.h</text>
</a>
</g>
</g>
<!-- Node1&#45;&gt;Node2 -->
<g id="edge1" class="edge">
<title>Node1&#45;&gt;Node2</title>
<path fill="none" stroke="midnightblue" d="M182.25,-398.96C121.5,-393.27 0,-371.8 0,-291 0,-291 0,-291 0,-177 0,-131.87 36.55,-129.85 78,-112 139.06,-85.71 337.6,-72.95 419.82,-68.69"/>
<polygon fill="midnightblue" stroke="midnightblue" points="420.13,-72.18 429.95,-68.18 419.78,-65.19 420.13,-72.18"/>
</g>
<!-- Node3 -->
<g id="node3" class="node">
<title>Node3</title>
<g id="a_node3"><a xlink:title=" ">
<polygon fill="white" stroke="#bfbfbf" points="378.5,-336.5 378.5,-355.5 437.5,-355.5 437.5,-336.5 378.5,-336.5"/>
<text text-anchor="middle" x="408" y="-343.5" font-family="Helvetica,sans-Serif" font-size="10.00">SDL_ttf.h</text>
</a>
</g>
</g>
<!-- Node1&#45;&gt;Node3 -->
<g id="edge2" class="edge">
<title>Node1&#45;&gt;Node3</title>
<path fill="none" stroke="midnightblue" d="M246.42,-392.44C279.48,-383.15 332.4,-368.26 368.61,-358.08"/>
<polygon fill="midnightblue" stroke="midnightblue" points="369.67,-361.42 378.35,-355.34 367.78,-354.68 369.67,-361.42"/>
</g>
<!-- Node4 -->
<g id="node4" class="node">
<title>Node4</title>
<g id="a_node4"><a xlink:href="window_8h.html" target="_top" xlink:title=" ">
<polygon fill="white" stroke="black" points="72,-336.5 72,-355.5 208,-355.5 208,-336.5 72,-336.5"/>
<text text-anchor="middle" x="140" y="-343.5" font-family="Helvetica,sans-Serif" font-size="10.00">graphics_wrapper/window.h</text>
</a>
</g>
</g>
<!-- Node1&#45;&gt;Node4 -->
<g id="edge3" class="edge">
<title>Node1&#45;&gt;Node4</title>
<path fill="none" stroke="midnightblue" d="M203.79,-392.32C192.22,-384.11 174.62,-371.6 160.84,-361.81"/>
<polygon fill="midnightblue" stroke="midnightblue" points="162.61,-358.77 152.43,-355.83 158.56,-364.48 162.61,-358.77"/>
</g>
<!-- Node18 -->
<g id="node18" class="node">
<title>Node18</title>
<g id="a_node18"><a xlink:href="texture_8h.html" target="_top" xlink:title="Basic texture management.">
<polygon fill="white" stroke="black" points="226,-336.5 226,-355.5 360,-355.5 360,-336.5 226,-336.5"/>
<text text-anchor="middle" x="293" y="-343.5" font-family="Helvetica,sans-Serif" font-size="10.00">graphics_wrapper/texture.h</text>
</a>
</g>
</g>
<!-- Node1&#45;&gt;Node18 -->
<g id="edge27" class="edge">
<title>Node1&#45;&gt;Node18</title>
<path fill="none" stroke="midnightblue" d="M228.37,-392.32C240.16,-384.06 258.13,-371.45 272.14,-361.63"/>
<polygon fill="midnightblue" stroke="midnightblue" points="274.48,-364.26 280.66,-355.65 270.46,-358.53 274.48,-364.26"/>
</g>
<!-- Node4&#45;&gt;Node2 -->
<g id="edge4" class="edge">
<title>Node4&#45;&gt;Node2</title>
<path fill="none" stroke="midnightblue" d="M112.41,-336.35C94.22,-329.3 71.21,-317.6 57,-300 38.09,-276.58 38,-265.1 38,-235 38,-235 38,-235 38,-177 38,-98.36 318.16,-74.76 419.76,-68.78"/>
<polygon fill="midnightblue" stroke="midnightblue" points="420.07,-72.27 429.85,-68.21 419.67,-65.28 420.07,-72.27"/>
</g>
<!-- Node5 -->
<g id="node5" class="node">
<title>Node5</title>
<g id="a_node5"><a xlink:title=" ">
<polygon fill="white" stroke="#bfbfbf" points="66,-280.5 66,-299.5 112,-299.5 112,-280.5 66,-280.5"/>
<text text-anchor="middle" x="89" y="-287.5" font-family="Helvetica,sans-Serif" font-size="10.00">stdio.h</text>
</a>
</g>
</g>
<!-- Node4&#45;&gt;Node5 -->
<g id="edge5" class="edge">
<title>Node4&#45;&gt;Node5</title>
<path fill="none" stroke="midnightblue" d="M131.58,-336.08C124.15,-328.22 113.15,-316.57 104.19,-307.08"/>
<polygon fill="midnightblue" stroke="midnightblue" points="106.68,-304.62 97.26,-299.75 101.59,-309.42 106.68,-304.62"/>
</g>
<!-- Node6 -->
<g id="node6" class="node">
<title>Node6</title>
<g id="a_node6"><a xlink:title=" ">
<polygon fill="white" stroke="#bfbfbf" points="182,-168.5 182,-187.5 226,-187.5 226,-168.5 182,-168.5"/>
<text text-anchor="middle" x="204" y="-175.5" font-family="Helvetica,sans-Serif" font-size="10.00">SDL.h</text>
</a>
</g>
</g>
<!-- Node4&#45;&gt;Node6 -->
<g id="edge6" class="edge">
<title>Node4&#45;&gt;Node6</title>
<path fill="none" stroke="midnightblue" d="M137.64,-336.2C131.27,-311.68 114.95,-243.14 126,-224 135.94,-206.8 155.22,-195.59 172.13,-188.66"/>
<polygon fill="midnightblue" stroke="midnightblue" points="173.59,-191.85 181.72,-185.06 171.13,-185.29 173.59,-191.85"/>
</g>
<!-- Node7 -->
<g id="node7" class="node">
<title>Node7</title>
<g id="a_node7"><a xlink:href="color_8h.html" target="_top" xlink:title=" ">
<polygon fill="white" stroke="black" points="192.5,-280.5 192.5,-299.5 237.5,-299.5 237.5,-280.5 192.5,-280.5"/>
<text text-anchor="middle" x="215" y="-287.5" font-family="Helvetica,sans-Serif" font-size="10.00">color.h</text>
</a>
</g>
</g>
<!-- Node4&#45;&gt;Node7 -->
<g id="edge7" class="edge">
<title>Node4&#45;&gt;Node7</title>
<path fill="none" stroke="midnightblue" d="M152.05,-336.32C163.46,-328.11 180.83,-315.6 194.43,-305.81"/>
<polygon fill="midnightblue" stroke="midnightblue" points="196.66,-308.52 202.73,-299.83 192.57,-302.84 196.66,-308.52"/>
</g>
<!-- Node17 -->
<g id="node17" class="node">
<title>Node17</title>
<g id="a_node17"><a xlink:href="rectangle_8h.html" target="_top" xlink:title=" ">
<polygon fill="white" stroke="black" points="322,-224.5 322,-243.5 420,-243.5 420,-224.5 322,-224.5"/>
<text text-anchor="middle" x="371" y="-231.5" font-family="Helvetica,sans-Serif" font-size="10.00">../math/rectangle.h</text>
</a>
</g>
</g>
<!-- Node4&#45;&gt;Node17 -->
<g id="edge24" class="edge">
<title>Node4&#45;&gt;Node17</title>
<path fill="none" stroke="midnightblue" d="M161.74,-336.35C183.32,-327.63 217.25,-313.55 246,-300 281.51,-283.26 321.63,-261.96 346.62,-248.4"/>
<polygon fill="midnightblue" stroke="midnightblue" points="348.31,-251.47 355.41,-243.61 344.96,-245.32 348.31,-251.47"/>
</g>
<!-- Node7&#45;&gt;Node6 -->
<g id="edge9" class="edge">
<title>Node7&#45;&gt;Node6</title>
<path fill="none" stroke="midnightblue" d="M192.39,-283.51C172.82,-277.43 145.74,-265.52 133,-244 119.94,-221.94 148.03,-202.98 172.64,-191.32"/>
<polygon fill="midnightblue" stroke="midnightblue" points="174.11,-194.5 181.81,-187.22 171.25,-188.11 174.11,-194.5"/>
</g>
<!-- Node8 -->
<g id="node8" class="node">
<title>Node8</title>
<g id="a_node8"><a xlink:title=" ">
<polygon fill="white" stroke="#bfbfbf" points="142.5,-224.5 142.5,-243.5 191.5,-243.5 191.5,-224.5 142.5,-224.5"/>
<text text-anchor="middle" x="167" y="-231.5" font-family="Helvetica,sans-Serif" font-size="10.00">stdint.h</text>
</a>
</g>
</g>
<!-- Node7&#45;&gt;Node8 -->
<g id="edge8" class="edge">
<title>Node7&#45;&gt;Node8</title>
<path fill="none" stroke="midnightblue" d="M207.07,-280.08C200.15,-272.3 189.93,-260.8 181.55,-251.37"/>
<polygon fill="midnightblue" stroke="midnightblue" points="184.04,-248.9 174.78,-243.75 178.81,-253.55 184.04,-248.9"/>
</g>
<!-- Node9 -->
<g id="node9" class="node">
<title>Node9</title>
<g id="a_node9"><a xlink:title=" ">
<polygon fill="white" stroke="#bfbfbf" points="210,-224.5 210,-243.5 266,-243.5 266,-224.5 210,-224.5"/>
<text text-anchor="middle" x="238" y="-231.5" font-family="Helvetica,sans-Serif" font-size="10.00">algorithm</text>
</a>
</g>
</g>
<!-- Node7&#45;&gt;Node9 -->
<g id="edge10" class="edge">
<title>Node7&#45;&gt;Node9</title>
<path fill="none" stroke="midnightblue" d="M218.8,-280.08C221.91,-272.77 226.42,-262.18 230.29,-253.1"/>
<polygon fill="midnightblue" stroke="midnightblue" points="233.57,-254.32 234.27,-243.75 227.13,-251.58 233.57,-254.32"/>
</g>
<!-- Node10 -->
<g id="node10" class="node">
<title>Node10</title>
<g id="a_node10"><a xlink:href="vec4_8h.html" target="_top" xlink:title=" ">
<polygon fill="white" stroke="black" points="438,-224.5 438,-243.5 518,-243.5 518,-224.5 438,-224.5"/>
<text text-anchor="middle" x="478" y="-231.5" font-family="Helvetica,sans-Serif" font-size="10.00">../math/vec4.h</text>
</a>
</g>
</g>
<!-- Node7&#45;&gt;Node10 -->
<g id="edge11" class="edge">
<title>Node7&#45;&gt;Node10</title>
<path fill="none" stroke="midnightblue" d="M237.88,-284.3C279.97,-275.66 370.58,-257.06 427.67,-245.33"/>
<polygon fill="midnightblue" stroke="midnightblue" points="428.48,-248.74 437.57,-243.3 427.07,-241.88 428.48,-248.74"/>
</g>
<!-- Node10&#45;&gt;Node2 -->
<g id="edge12" class="edge">
<title>Node10&#45;&gt;Node2</title>
<path fill="none" stroke="midnightblue" d="M476.82,-224.08C473.35,-197.95 463.18,-121.21 458.46,-85.58"/>
<polygon fill="midnightblue" stroke="midnightblue" points="461.92,-85.02 457.14,-75.57 454.98,-85.94 461.92,-85.02"/>
</g>
<!-- Node11 -->
<g id="node11" class="node">
<title>Node11</title>
<g id="a_node11"><a xlink:title=" ">
<polygon fill="white" stroke="#bfbfbf" points="552.5,-56.5 552.5,-75.5 599.5,-75.5 599.5,-56.5 552.5,-56.5"/>
<text text-anchor="middle" x="576" y="-63.5" font-family="Helvetica,sans-Serif" font-size="10.00">math.h</text>
</a>
</g>
</g>
<!-- Node10&#45;&gt;Node11 -->
<g id="edge13" class="edge">
<title>Node10&#45;&gt;Node11</title>
<path fill="none" stroke="midnightblue" d="M483.27,-224.08C498.9,-197.61 545.18,-119.21 565.84,-84.21"/>
<polygon fill="midnightblue" stroke="midnightblue" points="568.87,-85.96 570.94,-75.57 562.84,-82.4 568.87,-85.96"/>
</g>
<!-- Node12 -->
<g id="node12" class="node">
<title>Node12</title>
<g id="a_node12"><a xlink:href="vec3_8h.html" target="_top" xlink:title=" ">
<polygon fill="white" stroke="black" points="560,-168.5 560,-187.5 606,-187.5 606,-168.5 560,-168.5"/>
<text text-anchor="middle" x="583" y="-175.5" font-family="Helvetica,sans-Serif" font-size="10.00">vec3.h</text>
</a>
</g>
</g>
<!-- Node10&#45;&gt;Node12 -->
<g id="edge14" class="edge">
<title>Node10&#45;&gt;Node12</title>
<path fill="none" stroke="midnightblue" d="M494.87,-224.32C511.71,-215.66 537.81,-202.24 557.24,-192.25"/>
<polygon fill="midnightblue" stroke="midnightblue" points="558.88,-195.34 566.17,-187.65 555.68,-189.12 558.88,-195.34"/>
</g>
<!-- Node12&#45;&gt;Node2 -->
<g id="edge15" class="edge">
<title>Node12&#45;&gt;Node2</title>
<path fill="none" stroke="midnightblue" d="M573.03,-168.37C551.61,-149.81 500.93,-105.91 473.82,-82.44"/>
<polygon fill="midnightblue" stroke="midnightblue" points="475.77,-79.49 465.92,-75.59 471.19,-84.78 475.77,-79.49"/>
</g>
<!-- Node12&#45;&gt;Node11 -->
<g id="edge16" class="edge">
<title>Node12&#45;&gt;Node11</title>
<path fill="none" stroke="midnightblue" d="M582.45,-168.37C581.32,-150.62 578.72,-109.67 577.18,-85.6"/>
<polygon fill="midnightblue" stroke="midnightblue" points="580.67,-85.35 576.55,-75.59 573.69,-85.79 580.67,-85.35"/>
</g>
<!-- Node13 -->
<g id="node13" class="node">
<title>Node13</title>
<g id="a_node13"><a xlink:href="vec2_8h.html" target="_top" xlink:title=" ">
<polygon fill="white" stroke="black" points="604,-112.5 604,-131.5 650,-131.5 650,-112.5 604,-112.5"/>
<text text-anchor="middle" x="627" y="-119.5" font-family="Helvetica,sans-Serif" font-size="10.00">vec2.h</text>
</a>
</g>
</g>
<!-- Node12&#45;&gt;Node13 -->
<g id="edge17" class="edge">
<title>Node12&#45;&gt;Node13</title>
<path fill="none" stroke="midnightblue" d="M590.27,-168.08C596.54,-160.38 605.79,-149.03 613.43,-139.65"/>
<polygon fill="midnightblue" stroke="midnightblue" points="616.27,-141.71 619.87,-131.75 610.84,-137.29 616.27,-141.71"/>
</g>
<!-- Node13&#45;&gt;Node2 -->
<g id="edge18" class="edge">
<title>Node13&#45;&gt;Node2</title>
<path fill="none" stroke="midnightblue" d="M603.94,-113.72C575.19,-104.64 525.73,-89.02 491.98,-78.36"/>
<polygon fill="midnightblue" stroke="midnightblue" points="492.64,-74.9 482.05,-75.23 490.53,-81.57 492.64,-74.9"/>
</g>
<!-- Node13&#45;&gt;Node11 -->
<g id="edge20" class="edge">
<title>Node13&#45;&gt;Node11</title>
<path fill="none" stroke="midnightblue" d="M618.58,-112.08C611.15,-104.22 600.15,-92.57 591.19,-83.08"/>
<polygon fill="midnightblue" stroke="midnightblue" points="593.68,-80.62 584.26,-75.75 588.59,-85.42 593.68,-80.62"/>
</g>
<!-- Node14 -->
<g id="node14" class="node">
<title>Node14</title>
<g id="a_node14"><a xlink:title=" ">
<polygon fill="white" stroke="#bfbfbf" points="734.5,-0.5 734.5,-19.5 793.5,-19.5 793.5,-0.5 734.5,-0.5"/>
<text text-anchor="middle" x="764" y="-7.5" font-family="Helvetica,sans-Serif" font-size="10.00">inttypes.h</text>
</a>
</g>
</g>
<!-- Node13&#45;&gt;Node14 -->
<g id="edge19" class="edge">
<title>Node13&#45;&gt;Node14</title>
<path fill="none" stroke="midnightblue" d="M637.75,-112.37C660.96,-93.73 716.01,-49.53 745.15,-26.13"/>
<polygon fill="midnightblue" stroke="midnightblue" points="747.69,-28.58 753.3,-19.59 743.31,-23.12 747.69,-28.58"/>
</g>
<!-- Node15 -->
<g id="node15" class="node">
<title>Node15</title>
<g id="a_node15"><a xlink:href="float__compare_8h.html" target="_top" xlink:title=" ">
<polygon fill="white" stroke="black" points="792,-56.5 792,-75.5 878,-75.5 878,-56.5 792,-56.5"/>
<text text-anchor="middle" x="835" y="-63.5" font-family="Helvetica,sans-Serif" font-size="10.00">float_compare.h</text>
</a>
</g>
</g>
<!-- Node13&#45;&gt;Node15 -->
<g id="edge21" class="edge">
<title>Node13&#45;&gt;Node15</title>
<path fill="none" stroke="midnightblue" d="M650.05,-115.01C684.23,-106.14 748.92,-89.35 792.01,-78.16"/>
<polygon fill="midnightblue" stroke="midnightblue" points="793.13,-81.49 801.93,-75.59 791.37,-74.71 793.13,-81.49"/>
</g>
<!-- Node15&#45;&gt;Node14 -->
<g id="edge22" class="edge">
<title>Node15&#45;&gt;Node14</title>
<path fill="none" stroke="midnightblue" d="M823.59,-56.32C812.89,-48.18 796.66,-35.84 783.84,-26.09"/>
<polygon fill="midnightblue" stroke="midnightblue" points="785.69,-23.1 775.61,-19.83 781.46,-28.67 785.69,-23.1"/>
</g>
<!-- Node16 -->
<g id="node16" class="node">
<title>Node16</title>
<g id="a_node16"><a xlink:title=" ">
<polygon fill="white" stroke="#bfbfbf" points="813,-0.5 813,-19.5 857,-19.5 857,-0.5 813,-0.5"/>
<text text-anchor="middle" x="835" y="-7.5" font-family="Helvetica,sans-Serif" font-size="10.00">float.h</text>
</a>
</g>
</g>
<!-- Node15&#45;&gt;Node16 -->
<g id="edge23" class="edge">
<title>Node15&#45;&gt;Node16</title>
<path fill="none" stroke="midnightblue" d="M835,-56.08C835,-49.01 835,-38.86 835,-29.99"/>
<polygon fill="midnightblue" stroke="midnightblue" points="838.5,-29.75 835,-19.75 831.5,-29.75 838.5,-29.75"/>
</g>
<!-- Node17&#45;&gt;Node6 -->
<g id="edge25" class="edge">
<title>Node17&#45;&gt;Node6</title>
<path fill="none" stroke="midnightblue" d="M344.54,-224.44C314.99,-214.89 267.2,-199.44 235.69,-189.25"/>
<polygon fill="midnightblue" stroke="midnightblue" points="236.66,-185.88 226.07,-186.14 234.51,-192.54 236.66,-185.88"/>
</g>
<!-- Node17&#45;&gt;Node13 -->
<g id="edge26" class="edge">
<title>Node17&#45;&gt;Node13</title>
<path fill="none" stroke="midnightblue" d="M391.09,-224.37C436.05,-205.05 544.94,-158.26 597.56,-135.65"/>
<polygon fill="midnightblue" stroke="midnightblue" points="599.2,-138.76 607.01,-131.59 596.44,-132.32 599.2,-138.76"/>
</g>
<!-- Node18&#45;&gt;Node6 -->
<g id="edge28" class="edge">
<title>Node18&#45;&gt;Node6</title>
<path fill="none" stroke="midnightblue" d="M294.03,-336.24C296.05,-315.05 298.51,-260.14 275,-224 265.6,-209.55 249.76,-198.85 235.42,-191.52"/>
<polygon fill="midnightblue" stroke="midnightblue" points="236.83,-188.32 226.3,-187.19 233.83,-194.64 236.83,-188.32"/>
</g>
<!-- Node18&#45;&gt;Node7 -->
<g id="edge29" class="edge">
<title>Node18&#45;&gt;Node7</title>
<path fill="none" stroke="midnightblue" d="M280.47,-336.32C268.41,-327.98 249.97,-315.21 235.73,-305.35"/>
<polygon fill="midnightblue" stroke="midnightblue" points="237.72,-302.47 227.5,-299.65 233.73,-308.22 237.72,-302.47"/>
</g>
<!-- Node19 -->
<g id="node19" class="node">
<title>Node19</title>
<g id="a_node19"><a xlink:href="sml__math_8h.html" target="_top" xlink:title=" ">
<polygon fill="white" stroke="black" points="677.5,-280.5 677.5,-299.5 754.5,-299.5 754.5,-280.5 677.5,-280.5"/>
<text text-anchor="middle" x="716" y="-287.5" font-family="Helvetica,sans-Serif" font-size="10.00">../sml_math.h</text>
</a>
</g>
</g>
<!-- Node18&#45;&gt;Node19 -->
<g id="edge30" class="edge">
<title>Node18&#45;&gt;Node19</title>
<path fill="none" stroke="midnightblue" d="M360.03,-336.44C445.57,-325.52 591.53,-306.89 667.23,-297.23"/>
<polygon fill="midnightblue" stroke="midnightblue" points="667.96,-300.66 677.43,-295.92 667.07,-293.72 667.96,-300.66"/>
</g>
<!-- Node19&#45;&gt;Node12 -->
<g id="edge41" class="edge">
<title>Node19&#45;&gt;Node12</title>
<path fill="none" stroke="midnightblue" d="M715.8,-280.26C715.02,-266.57 711.58,-239.98 697,-224 675.95,-200.93 641.56,-189.52 616.05,-183.99"/>
<polygon fill="midnightblue" stroke="midnightblue" points="616.56,-180.52 606.07,-182.02 615.21,-187.39 616.56,-180.52"/>
</g>
<!-- Node19&#45;&gt;Node13 -->
<g id="edge40" class="edge">
<title>Node19&#45;&gt;Node13</title>
<path fill="none" stroke="midnightblue" d="M717.9,-280.24C720.26,-267.42 723.18,-243 716,-224 702.22,-187.52 668.6,-155.69 646.85,-137.94"/>
<polygon fill="midnightblue" stroke="midnightblue" points="648.9,-135.1 638.89,-131.64 644.56,-140.59 648.9,-135.1"/>
</g>
<!-- Node19&#45;&gt;Node15 -->
<g id="edge31" class="edge">
<title>Node19&#45;&gt;Node15</title>
<path fill="none" stroke="midnightblue" d="M754.68,-284.97C802.74,-279.07 880.54,-266.3 898,-244 937.48,-193.57 879.33,-116.37 850.09,-83.13"/>
<polygon fill="midnightblue" stroke="midnightblue" points="852.66,-80.75 843.36,-75.67 847.46,-85.44 852.66,-80.75"/>
</g>
<!-- Node19&#45;&gt;Node17 -->
<g id="edge37" class="edge">
<title>Node19&#45;&gt;Node17</title>
<path fill="none" stroke="midnightblue" d="M677.43,-282.96C617.35,-273.56 500.98,-255.34 430.21,-244.27"/>
<polygon fill="midnightblue" stroke="midnightblue" points="430.54,-240.78 420.12,-242.69 429.45,-247.69 430.54,-240.78"/>
</g>
<!-- Node20 -->
<g id="node20" class="node">
<title>Node20</title>
<g id="a_node20"><a xlink:href="geometry_8h.html" target="_top" xlink:title=" ">
<polygon fill="white" stroke="black" points="782.5,-224.5 782.5,-243.5 871.5,-243.5 871.5,-224.5 782.5,-224.5"/>
<text text-anchor="middle" x="827" y="-231.5" font-family="Helvetica,sans-Serif" font-size="10.00">math/geometry.h</text>
</a>
</g>
</g>
<!-- Node19&#45;&gt;Node20 -->
<g id="edge32" class="edge">
<title>Node19&#45;&gt;Node20</title>
<path fill="none" stroke="midnightblue" d="M733.83,-280.32C751.72,-271.62 779.48,-258.12 800.05,-248.11"/>
<polygon fill="midnightblue" stroke="midnightblue" points="801.75,-251.18 809.21,-243.65 798.69,-244.88 801.75,-251.18"/>
</g>
<!-- Node21 -->
<g id="node21" class="node">
<title>Node21</title>
<g id="a_node21"><a xlink:href="mat4_8h.html" target="_top" xlink:title=" ">
<polygon fill="white" stroke="black" points="616.5,-224.5 616.5,-243.5 687.5,-243.5 687.5,-224.5 616.5,-224.5"/>
<text text-anchor="middle" x="652" y="-231.5" font-family="Helvetica,sans-Serif" font-size="10.00">math/mat4.h</text>
</a>
</g>
</g>
<!-- Node19&#45;&gt;Node21 -->
<g id="edge33" class="edge">
<title>Node19&#45;&gt;Node21</title>
<path fill="none" stroke="midnightblue" d="M705.72,-280.32C696.16,-272.26 681.72,-260.08 670.22,-250.37"/>
<polygon fill="midnightblue" stroke="midnightblue" points="672.37,-247.61 662.47,-243.83 667.86,-252.96 672.37,-247.61"/>
</g>
<!-- Node22 -->
<g id="node22" class="node">
<title>Node22</title>
<g id="a_node22"><a xlink:href="ray_8h.html" target="_top" xlink:title=" ">
<polygon fill="white" stroke="black" points="536,-224.5 536,-243.5 598,-243.5 598,-224.5 536,-224.5"/>
<text text-anchor="middle" x="567" y="-231.5" font-family="Helvetica,sans-Serif" font-size="10.00">math/ray.h</text>
</a>
</g>
</g>
<!-- Node19&#45;&gt;Node22 -->
<g id="edge35" class="edge">
<title>Node19&#45;&gt;Node22</title>
<path fill="none" stroke="midnightblue" d="M692.39,-280.44C667.54,-271.44 628.23,-257.19 600.25,-247.05"/>
<polygon fill="midnightblue" stroke="midnightblue" points="601.09,-243.63 590.5,-243.52 598.71,-250.21 601.09,-243.63"/>
</g>
<!-- Node23 -->
<g id="node23" class="node">
<title>Node23</title>
<g id="a_node23"><a xlink:href="solve__equation_8h.html" target="_top" xlink:title=" ">
<polygon fill="white" stroke="black" points="723.5,-112.5 723.5,-131.5 838.5,-131.5 838.5,-112.5 723.5,-112.5"/>
<text text-anchor="middle" x="781" y="-119.5" font-family="Helvetica,sans-Serif" font-size="10.00">math/solve_equation.h</text>
</a>
</g>
</g>
<!-- Node19&#45;&gt;Node23 -->
<g id="edge38" class="edge">
<title>Node19&#45;&gt;Node23</title>
<path fill="none" stroke="midnightblue" d="M754.55,-283.91C798.34,-277.24 865.73,-264 881,-244 911.63,-203.9 845.64,-158.51 806.77,-136.46"/>
<polygon fill="midnightblue" stroke="midnightblue" points="808.46,-133.39 798.01,-131.62 805.07,-139.52 808.46,-133.39"/>
</g>
<!-- Node21&#45;&gt;Node12 -->
<g id="edge34" class="edge">
<title>Node21&#45;&gt;Node12</title>
<path fill="none" stroke="midnightblue" d="M640.91,-224.32C630.51,-216.18 614.74,-203.84 602.28,-194.09"/>
<polygon fill="midnightblue" stroke="midnightblue" points="604.32,-191.24 594.29,-187.83 600.01,-196.75 604.32,-191.24"/>
</g>
<!-- Node22&#45;&gt;Node12 -->
<g id="edge36" class="edge">
<title>Node22&#45;&gt;Node12</title>
<path fill="none" stroke="midnightblue" d="M569.64,-224.08C571.79,-216.85 574.88,-206.41 577.55,-197.4"/>
<polygon fill="midnightblue" stroke="midnightblue" points="580.92,-198.33 580.41,-187.75 574.21,-196.34 580.92,-198.33"/>
</g>
<!-- Node23&#45;&gt;Node14 -->
<g id="edge39" class="edge">
<title>Node23&#45;&gt;Node14</title>
<path fill="none" stroke="midnightblue" d="M779.67,-112.37C776.92,-94.62 770.59,-53.67 766.87,-29.6"/>
<polygon fill="midnightblue" stroke="midnightblue" points="770.31,-28.94 765.33,-19.59 763.4,-30.01 770.31,-28.94"/>
</g>
</g>
</svg>
