<?xml version="1.0" encoding="UTF-8" standalone="no"?>
<!DOCTYPE svg PUBLIC "-//W3C//DTD SVG 1.1//EN"
 "http://www.w3.org/Graphics/SVG/1.1/DTD/svg11.dtd">
<!-- Generated by graphviz version 2.50.0 (20211204.2007)
 -->
<!-- Title: window.h Pages: 1 -->
<svg width="524pt" height="308pt"
 viewBox="0.00 0.00 523.50 308.00" xmlns="http://www.w3.org/2000/svg" xmlns:xlink="http://www.w3.org/1999/xlink">
<g id="graph0" class="graph" transform="scale(1 1) rotate(0) translate(4 304)">
<title>window.h</title>
<polygon fill="white" stroke="transparent" points="-4,4 -4,-304 519.5,-304 519.5,4 -4,4"/>
<!-- Node1 -->
<g id="node1" class="node">
<title>Node1</title>
<g id="a_node1"><a xlink:title=" ">
<polygon fill="#bfbfbf" stroke="black" points="112.5,-280.5 112.5,-299.5 168.5,-299.5 168.5,-280.5 112.5,-280.5"/>
<text text-anchor="middle" x="140.5" y="-287.5" font-family="Helvetica,sans-Serif" font-size="10.00">window.h</text>
</a>
</g>
</g>
<!-- Node2 -->
<g id="node2" class="node">
<title>Node2</title>
<g id="a_node2"><a xlink:href="app_8cpp.html" target="_top" xlink:title=" ">
<polygon fill="white" stroke="black" points="0,-224.5 0,-243.5 51,-243.5 51,-224.5 0,-224.5"/>
<text text-anchor="middle" x="25.5" y="-231.5" font-family="Helvetica,sans-Serif" font-size="10.00">app.cpp</text>
</a>
</g>
</g>
<!-- Node1&#45;&gt;Node2 -->
<g id="edge1" class="edge">
<title>Node1&#45;&gt;Node2</title>
<path fill="none" stroke="midnightblue" d="M113.02,-276.1C91.53,-266.01 62.28,-252.27 43.64,-243.52"/>
<polygon fill="midnightblue" stroke="midnightblue" points="111.74,-279.36 122.28,-280.44 114.71,-273.02 111.74,-279.36"/>
</g>
<!-- Node3 -->
<g id="node3" class="node">
<title>Node3</title>
<g id="a_node3"><a xlink:href="renderer_8h.html" target="_top" xlink:title=" ">
<polygon fill="white" stroke="black" points="216,-224.5 216,-243.5 275,-243.5 275,-224.5 216,-224.5"/>
<text text-anchor="middle" x="245.5" y="-231.5" font-family="Helvetica,sans-Serif" font-size="10.00">renderer.h</text>
</a>
</g>
</g>
<!-- Node1&#45;&gt;Node3 -->
<g id="edge2" class="edge">
<title>Node1&#45;&gt;Node3</title>
<path fill="none" stroke="midnightblue" d="M166.31,-275.73C185.75,-265.73 211.85,-252.31 228.67,-243.65"/>
<polygon fill="midnightblue" stroke="midnightblue" points="164.66,-272.64 157.37,-280.32 167.86,-278.86 164.66,-272.64"/>
</g>
<!-- Node8 -->
<g id="node8" class="node">
<title>Node8</title>
<g id="a_node8"><a xlink:href="sml__graphics__wrapper_8h.html" target="_top" xlink:title=" ">
<polygon fill="white" stroke="black" points="204.5,-112.5 204.5,-131.5 326.5,-131.5 326.5,-112.5 204.5,-112.5"/>
<text text-anchor="middle" x="265.5" y="-119.5" font-family="Helvetica,sans-Serif" font-size="10.00">sml_graphics_wrapper.h</text>
</a>
</g>
</g>
<!-- Node1&#45;&gt;Node8 -->
<g id="edge17" class="edge">
<title>Node1&#45;&gt;Node8</title>
<path fill="none" stroke="midnightblue" d="M125.69,-272.4C105.36,-247.51 73.94,-200.05 98.5,-168 111.6,-150.9 162.49,-138.83 204.68,-131.53"/>
<polygon fill="midnightblue" stroke="midnightblue" points="123.17,-274.84 132.31,-280.2 128.51,-270.31 123.17,-274.84"/>
</g>
<!-- Node16 -->
<g id="node16" class="node">
<title>Node16</title>
<g id="a_node16"><a xlink:href="window_8cpp.html" target="_top" xlink:title=" ">
<polygon fill="white" stroke="black" points="293,-224.5 293,-243.5 360,-243.5 360,-224.5 293,-224.5"/>
<text text-anchor="middle" x="326.5" y="-231.5" font-family="Helvetica,sans-Serif" font-size="10.00">window.cpp</text>
</a>
</g>
</g>
<!-- Node1&#45;&gt;Node16 -->
<g id="edge18" class="edge">
<title>Node1&#45;&gt;Node16</title>
<path fill="none" stroke="midnightblue" d="M178.63,-277.93C213.72,-267.74 265.03,-252.85 297.06,-243.55"/>
<polygon fill="midnightblue" stroke="midnightblue" points="177.38,-274.65 168.75,-280.8 179.33,-281.37 177.38,-274.65"/>
</g>
<!-- Node4 -->
<g id="node4" class="node">
<title>Node4</title>
<g id="a_node4"><a xlink:href="blur_8h.html" target="_top" xlink:title=" ">
<polygon fill="white" stroke="black" points="468.5,-168.5 468.5,-187.5 508.5,-187.5 508.5,-168.5 468.5,-168.5"/>
<text text-anchor="middle" x="488.5" y="-175.5" font-family="Helvetica,sans-Serif" font-size="10.00">blur.h</text>
</a>
</g>
</g>
<!-- Node3&#45;&gt;Node4 -->
<g id="edge3" class="edge">
<title>Node3&#45;&gt;Node4</title>
<path fill="none" stroke="midnightblue" d="M285.39,-223.84C361.6,-207.17 382.45,-205.15 454.5,-188 459.01,-186.93 463.85,-185.7 468.41,-184.5"/>
<polygon fill="midnightblue" stroke="midnightblue" points="284.31,-220.5 275.3,-226.07 285.82,-227.33 284.31,-220.5"/>
</g>
<!-- Node6 -->
<g id="node6" class="node">
<title>Node6</title>
<g id="a_node6"><a xlink:href="primitives_8h.html" target="_top" xlink:title=" ">
<polygon fill="white" stroke="black" points="378,-168.5 378,-187.5 445,-187.5 445,-168.5 378,-168.5"/>
<text text-anchor="middle" x="411.5" y="-175.5" font-family="Helvetica,sans-Serif" font-size="10.00">primitives.h</text>
</a>
</g>
</g>
<!-- Node3&#45;&gt;Node6 -->
<g id="edge5" class="edge">
<title>Node3&#45;&gt;Node6</title>
<path fill="none" stroke="midnightblue" d="M281.45,-221.3C312.73,-211.13 357.32,-196.62 385.32,-187.52"/>
<polygon fill="midnightblue" stroke="midnightblue" points="280.23,-218.02 271.8,-224.44 282.4,-224.68 280.23,-218.02"/>
</g>
<!-- Node3&#45;&gt;Node8 -->
<g id="edge12" class="edge">
<title>Node3&#45;&gt;Node8</title>
<path fill="none" stroke="midnightblue" d="M284.91,-222.27C302.06,-215.42 320.49,-204.62 330.5,-188 344.74,-164.35 310.05,-142.98 286.06,-131.61"/>
<polygon fill="midnightblue" stroke="midnightblue" points="283.24,-219.15 275.03,-225.85 285.63,-225.73 283.24,-219.15"/>
</g>
<!-- Node12 -->
<g id="node12" class="node">
<title>Node12</title>
<g id="a_node12"><a xlink:href="renderer_8cpp.html" target="_top" xlink:title=" ">
<polygon fill="white" stroke="black" points="167.5,-168.5 167.5,-187.5 237.5,-187.5 237.5,-168.5 167.5,-168.5"/>
<text text-anchor="middle" x="202.5" y="-175.5" font-family="Helvetica,sans-Serif" font-size="10.00">renderer.cpp</text>
</a>
</g>
</g>
<!-- Node3&#45;&gt;Node12 -->
<g id="edge11" class="edge">
<title>Node3&#45;&gt;Node12</title>
<path fill="none" stroke="midnightblue" d="M232.08,-216.14C224.59,-206.74 215.56,-195.4 209.47,-187.75"/>
<polygon fill="midnightblue" stroke="midnightblue" points="229.43,-218.44 238.4,-224.08 234.91,-214.08 229.43,-218.44"/>
</g>
<!-- Node13 -->
<g id="node13" class="node">
<title>Node13</title>
<g id="a_node13"><a xlink:href="text_8h.html" target="_top" xlink:title=" ">
<polygon fill="white" stroke="black" points="108,-168.5 108,-187.5 149,-187.5 149,-168.5 108,-168.5"/>
<text text-anchor="middle" x="128.5" y="-175.5" font-family="Helvetica,sans-Serif" font-size="10.00">text.h</text>
</a>
</g>
</g>
<!-- Node3&#45;&gt;Node13 -->
<g id="edge13" class="edge">
<title>Node3&#45;&gt;Node13</title>
<path fill="none" stroke="midnightblue" d="M217.84,-220.23C195.95,-210.13 166,-196.31 146.95,-187.52"/>
<polygon fill="midnightblue" stroke="midnightblue" points="216.41,-223.43 226.96,-224.44 219.35,-217.08 216.41,-223.43"/>
</g>
<!-- Node15 -->
<g id="node15" class="node">
<title>Node15</title>
<g id="a_node15"><a xlink:href="texture_8cpp.html" target="_top" xlink:title=" ">
<polygon fill="white" stroke="black" points="256,-168.5 256,-187.5 321,-187.5 321,-168.5 256,-168.5"/>
<text text-anchor="middle" x="288.5" y="-175.5" font-family="Helvetica,sans-Serif" font-size="10.00">texture.cpp</text>
</a>
</g>
</g>
<!-- Node3&#45;&gt;Node15 -->
<g id="edge16" class="edge">
<title>Node3&#45;&gt;Node15</title>
<path fill="none" stroke="midnightblue" d="M258.92,-216.14C266.41,-206.74 275.44,-195.4 281.53,-187.75"/>
<polygon fill="midnightblue" stroke="midnightblue" points="256.09,-214.08 252.6,-224.08 261.57,-218.44 256.09,-214.08"/>
</g>
<!-- Node5 -->
<g id="node5" class="node">
<title>Node5</title>
<g id="a_node5"><a xlink:href="blur_8cpp.html" target="_top" xlink:title=" ">
<polygon fill="white" stroke="black" points="465.5,-112.5 465.5,-131.5 515.5,-131.5 515.5,-112.5 465.5,-112.5"/>
<text text-anchor="middle" x="490.5" y="-119.5" font-family="Helvetica,sans-Serif" font-size="10.00">blur.cpp</text>
</a>
</g>
</g>
<!-- Node4&#45;&gt;Node5 -->
<g id="edge4" class="edge">
<title>Node4&#45;&gt;Node5</title>
<path fill="none" stroke="midnightblue" d="M489.21,-157.8C489.54,-148.91 489.92,-138.78 490.18,-131.75"/>
<polygon fill="midnightblue" stroke="midnightblue" points="485.7,-157.96 488.83,-168.08 492.7,-158.22 485.7,-157.96"/>
</g>
<!-- Node7 -->
<g id="node7" class="node">
<title>Node7</title>
<g id="a_node7"><a xlink:href="primitives_8cpp.html" target="_top" xlink:title=" ">
<polygon fill="white" stroke="black" points="370,-112.5 370,-131.5 447,-131.5 447,-112.5 370,-112.5"/>
<text text-anchor="middle" x="408.5" y="-119.5" font-family="Helvetica,sans-Serif" font-size="10.00">primitives.cpp</text>
</a>
</g>
</g>
<!-- Node6&#45;&gt;Node7 -->
<g id="edge6" class="edge">
<title>Node6&#45;&gt;Node7</title>
<path fill="none" stroke="midnightblue" d="M410.43,-157.8C409.94,-148.91 409.38,-138.78 408.99,-131.75"/>
<polygon fill="midnightblue" stroke="midnightblue" points="406.96,-158.29 411,-168.08 413.94,-157.9 406.96,-158.29"/>
</g>
<!-- Node6&#45;&gt;Node8 -->
<g id="edge7" class="edge">
<title>Node6&#45;&gt;Node8</title>
<path fill="none" stroke="midnightblue" d="M378.8,-164.91C351.35,-154.75 312.83,-140.51 288.53,-131.52"/>
<polygon fill="midnightblue" stroke="midnightblue" points="377.77,-168.26 388.37,-168.44 380.2,-161.69 377.77,-168.26"/>
</g>
<!-- Node9 -->
<g id="node9" class="node">
<title>Node9</title>
<g id="a_node9"><a xlink:href="viewport_8h.html" target="_top" xlink:title=" ">
<polygon fill="white" stroke="black" points="234.5,-56.5 234.5,-75.5 296.5,-75.5 296.5,-56.5 234.5,-56.5"/>
<text text-anchor="middle" x="265.5" y="-63.5" font-family="Helvetica,sans-Serif" font-size="10.00">viewport.h</text>
</a>
</g>
</g>
<!-- Node8&#45;&gt;Node9 -->
<g id="edge8" class="edge">
<title>Node8&#45;&gt;Node9</title>
<path fill="none" stroke="midnightblue" d="M265.5,-101.8C265.5,-92.91 265.5,-82.78 265.5,-75.75"/>
<polygon fill="midnightblue" stroke="midnightblue" points="262,-102.08 265.5,-112.08 269,-102.08 262,-102.08"/>
</g>
<!-- Node10 -->
<g id="node10" class="node">
<title>Node10</title>
<g id="a_node10"><a xlink:href="sml__utils_8h.html" target="_top" xlink:title=" ">
<polygon fill="white" stroke="black" points="190.5,-0.5 190.5,-19.5 254.5,-19.5 254.5,-0.5 190.5,-0.5"/>
<text text-anchor="middle" x="222.5" y="-7.5" font-family="Helvetica,sans-Serif" font-size="10.00">sml_utils.h</text>
</a>
</g>
</g>
<!-- Node9&#45;&gt;Node10 -->
<g id="edge9" class="edge">
<title>Node9&#45;&gt;Node10</title>
<path fill="none" stroke="midnightblue" d="M252.08,-48.14C244.59,-38.74 235.56,-27.4 229.47,-19.75"/>
<polygon fill="midnightblue" stroke="midnightblue" points="249.43,-50.44 258.4,-56.08 254.91,-46.08 249.43,-50.44"/>
</g>
<!-- Node11 -->
<g id="node11" class="node">
<title>Node11</title>
<g id="a_node11"><a xlink:href="viewport_8cpp.html" target="_top" xlink:title=" ">
<polygon fill="white" stroke="black" points="272.5,-0.5 272.5,-19.5 344.5,-19.5 344.5,-0.5 272.5,-0.5"/>
<text text-anchor="middle" x="308.5" y="-7.5" font-family="Helvetica,sans-Serif" font-size="10.00">viewport.cpp</text>
</a>
</g>
</g>
<!-- Node9&#45;&gt;Node11 -->
<g id="edge10" class="edge">
<title>Node9&#45;&gt;Node11</title>
<path fill="none" stroke="midnightblue" d="M278.92,-48.14C286.41,-38.74 295.44,-27.4 301.53,-19.75"/>
<polygon fill="midnightblue" stroke="midnightblue" points="276.09,-46.08 272.6,-56.08 281.57,-50.44 276.09,-46.08"/>
</g>
<!-- Node13&#45;&gt;Node8 -->
<g id="edge14" class="edge">
<title>Node13&#45;&gt;Node8</title>
<path fill="none" stroke="midnightblue" d="M158.6,-165.13C184.24,-155.03 220.48,-140.74 243.49,-131.68"/>
<polygon fill="midnightblue" stroke="midnightblue" points="157.03,-161.99 149.01,-168.92 159.6,-168.5 157.03,-161.99"/>
</g>
<!-- Node14 -->
<g id="node14" class="node">
<title>Node14</title>
<g id="a_node14"><a xlink:href="text_8cpp.html" target="_top" xlink:title=" ">
<polygon fill="white" stroke="black" points="102.5,-112.5 102.5,-131.5 154.5,-131.5 154.5,-112.5 102.5,-112.5"/>
<text text-anchor="middle" x="128.5" y="-119.5" font-family="Helvetica,sans-Serif" font-size="10.00">text.cpp</text>
</a>
</g>
</g>
<!-- Node13&#45;&gt;Node14 -->
<g id="edge15" class="edge">
<title>Node13&#45;&gt;Node14</title>
<path fill="none" stroke="midnightblue" d="M128.5,-157.8C128.5,-148.91 128.5,-138.78 128.5,-131.75"/>
<polygon fill="midnightblue" stroke="midnightblue" points="125,-158.08 128.5,-168.08 132,-158.08 125,-158.08"/>
</g>
</g>
</svg>
