<?xml version="1.0" encoding="UTF-8" standalone="no"?>
<!DOCTYPE svg PUBLIC "-//W3C//DTD SVG 1.1//EN"
 "http://www.w3.org/Graphics/SVG/1.1/DTD/svg11.dtd">
<!-- Generated by graphviz version 2.50.0 (20211204.2007)
 -->
<!-- Title: window.h Pages: 1 -->
<svg width="377pt" height="364pt"
 viewBox="0.00 0.00 377.00 364.00" xmlns="http://www.w3.org/2000/svg" xmlns:xlink="http://www.w3.org/1999/xlink">
<g id="graph0" class="graph" transform="scale(1 1) rotate(0) translate(4 360)">
<title>window.h</title>
<polygon fill="white" stroke="transparent" points="-4,4 -4,-360 373,-360 373,4 -4,4"/>
<!-- Node1 -->
<g id="node1" class="node">
<title>Node1</title>
<g id="a_node1"><a xlink:title=" ">
<polygon fill="#bfbfbf" stroke="black" points="164,-336.5 164,-355.5 220,-355.5 220,-336.5 164,-336.5"/>
<text text-anchor="middle" x="192" y="-343.5" font-family="Helvetica,sans-Serif" font-size="10.00">window.h</text>
</a>
</g>
</g>
<!-- Node2 -->
<g id="node2" class="node">
<title>Node2</title>
<g id="a_node2"><a xlink:title=" ">
<polygon fill="white" stroke="#bfbfbf" points="0,-56.5 0,-75.5 52,-75.5 52,-56.5 0,-56.5"/>
<text text-anchor="middle" x="26" y="-63.5" font-family="Helvetica,sans-Serif" font-size="10.00">assert.h</text>
</a>
</g>
</g>
<!-- Node1&#45;&gt;Node2 -->
<g id="edge1" class="edge">
<title>Node1&#45;&gt;Node2</title>
<path fill="none" stroke="midnightblue" d="M163.6,-341.5C111.29,-333.3 5,-307.69 5,-235 5,-235 5,-235 5,-177 5,-144.38 14.02,-107.28 20.23,-85.57"/>
<polygon fill="midnightblue" stroke="midnightblue" points="23.67,-86.32 23.17,-75.73 16.96,-84.32 23.67,-86.32"/>
</g>
<!-- Node3 -->
<g id="node3" class="node">
<title>Node3</title>
<g id="a_node3"><a xlink:title=" ">
<polygon fill="white" stroke="#bfbfbf" points="105,-280.5 105,-299.5 151,-299.5 151,-280.5 105,-280.5"/>
<text text-anchor="middle" x="128" y="-287.5" font-family="Helvetica,sans-Serif" font-size="10.00">stdio.h</text>
</a>
</g>
</g>
<!-- Node1&#45;&gt;Node3 -->
<g id="edge2" class="edge">
<title>Node1&#45;&gt;Node3</title>
<path fill="none" stroke="midnightblue" d="M181.72,-336.32C172.16,-328.26 157.72,-316.08 146.22,-306.37"/>
<polygon fill="midnightblue" stroke="midnightblue" points="148.37,-303.61 138.47,-299.83 143.86,-308.96 148.37,-303.61"/>
</g>
<!-- Node4 -->
<g id="node4" class="node">
<title>Node4</title>
<g id="a_node4"><a xlink:title=" ">
<polygon fill="white" stroke="#bfbfbf" points="273,-224.5 273,-243.5 317,-243.5 317,-224.5 273,-224.5"/>
<text text-anchor="middle" x="295" y="-231.5" font-family="Helvetica,sans-Serif" font-size="10.00">SDL.h</text>
</a>
</g>
</g>
<!-- Node1&#45;&gt;Node4 -->
<g id="edge3" class="edge">
<title>Node1&#45;&gt;Node4</title>
<path fill="none" stroke="midnightblue" d="M200.08,-336.37C217.31,-317.97 257.85,-274.67 279.97,-251.05"/>
<polygon fill="midnightblue" stroke="midnightblue" points="282.68,-253.28 286.96,-243.59 277.57,-248.5 282.68,-253.28"/>
</g>
<!-- Node5 -->
<g id="node5" class="node">
<title>Node5</title>
<g id="a_node5"><a xlink:href="color_8h.html" target="_top" xlink:title=" ">
<polygon fill="white" stroke="black" points="169.5,-280.5 169.5,-299.5 214.5,-299.5 214.5,-280.5 169.5,-280.5"/>
<text text-anchor="middle" x="192" y="-287.5" font-family="Helvetica,sans-Serif" font-size="10.00">color.h</text>
</a>
</g>
</g>
<!-- Node1&#45;&gt;Node5 -->
<g id="edge4" class="edge">
<title>Node1&#45;&gt;Node5</title>
<path fill="none" stroke="midnightblue" d="M192,-336.08C192,-329.01 192,-318.86 192,-309.99"/>
<polygon fill="midnightblue" stroke="midnightblue" points="195.5,-309.75 192,-299.75 188.5,-309.75 195.5,-309.75"/>
</g>
<!-- Node15 -->
<g id="node15" class="node">
<title>Node15</title>
<g id="a_node15"><a xlink:href="rectangle_8h.html" target="_top" xlink:title=" ">
<polygon fill="white" stroke="black" points="271,-280.5 271,-299.5 369,-299.5 369,-280.5 271,-280.5"/>
<text text-anchor="middle" x="320" y="-287.5" font-family="Helvetica,sans-Serif" font-size="10.00">../math/rectangle.h</text>
</a>
</g>
</g>
<!-- Node1&#45;&gt;Node15 -->
<g id="edge21" class="edge">
<title>Node1&#45;&gt;Node15</title>
<path fill="none" stroke="midnightblue" d="M212.28,-336.44C233.35,-327.56 266.52,-313.56 290.49,-303.45"/>
<polygon fill="midnightblue" stroke="midnightblue" points="291.96,-306.63 299.81,-299.52 289.24,-300.18 291.96,-306.63"/>
</g>
<!-- Node5&#45;&gt;Node4 -->
<g id="edge6" class="edge">
<title>Node5&#45;&gt;Node4</title>
<path fill="none" stroke="midnightblue" d="M208.55,-280.32C224.99,-271.7 250.43,-258.36 269.47,-248.39"/>
<polygon fill="midnightblue" stroke="midnightblue" points="271.26,-251.4 278.49,-243.65 268.01,-245.2 271.26,-251.4"/>
</g>
<!-- Node6 -->
<g id="node6" class="node">
<title>Node6</title>
<g id="a_node6"><a xlink:title=" ">
<polygon fill="white" stroke="#bfbfbf" points="205.5,-224.5 205.5,-243.5 254.5,-243.5 254.5,-224.5 205.5,-224.5"/>
<text text-anchor="middle" x="230" y="-231.5" font-family="Helvetica,sans-Serif" font-size="10.00">stdint.h</text>
</a>
</g>
</g>
<!-- Node5&#45;&gt;Node6 -->
<g id="edge5" class="edge">
<title>Node5&#45;&gt;Node6</title>
<path fill="none" stroke="midnightblue" d="M198.27,-280.08C203.64,-272.46 211.52,-261.26 218.08,-251.94"/>
<polygon fill="midnightblue" stroke="midnightblue" points="220.95,-253.94 223.84,-243.75 215.22,-249.91 220.95,-253.94"/>
</g>
<!-- Node7 -->
<g id="node7" class="node">
<title>Node7</title>
<g id="a_node7"><a xlink:title=" ">
<polygon fill="white" stroke="#bfbfbf" points="33,-224.5 33,-243.5 89,-243.5 89,-224.5 33,-224.5"/>
<text text-anchor="middle" x="61" y="-231.5" font-family="Helvetica,sans-Serif" font-size="10.00">algorithm</text>
</a>
</g>
</g>
<!-- Node5&#45;&gt;Node7 -->
<g id="edge7" class="edge">
<title>Node5&#45;&gt;Node7</title>
<path fill="none" stroke="midnightblue" d="M171.24,-280.44C149.68,-271.56 115.74,-257.56 91.21,-247.45"/>
<polygon fill="midnightblue" stroke="midnightblue" points="92.24,-244.09 81.66,-243.52 89.57,-250.56 92.24,-244.09"/>
</g>
<!-- Node8 -->
<g id="node8" class="node">
<title>Node8</title>
<g id="a_node8"><a xlink:href="vec4_8h.html" target="_top" xlink:title=" ">
<polygon fill="white" stroke="black" points="107,-224.5 107,-243.5 187,-243.5 187,-224.5 107,-224.5"/>
<text text-anchor="middle" x="147" y="-231.5" font-family="Helvetica,sans-Serif" font-size="10.00">../math/vec4.h</text>
</a>
</g>
</g>
<!-- Node5&#45;&gt;Node8 -->
<g id="edge8" class="edge">
<title>Node5&#45;&gt;Node8</title>
<path fill="none" stroke="midnightblue" d="M184.57,-280.08C178.15,-272.38 168.69,-261.03 160.88,-251.65"/>
<polygon fill="midnightblue" stroke="midnightblue" points="163.38,-249.19 154.29,-243.75 158.01,-253.67 163.38,-249.19"/>
</g>
<!-- Node8&#45;&gt;Node2 -->
<g id="edge9" class="edge">
<title>Node8&#45;&gt;Node2</title>
<path fill="none" stroke="midnightblue" d="M140.51,-224.4C127.43,-207.03 97,-166.48 72,-132 60.38,-115.97 47.36,-97.53 38.15,-84.39"/>
<polygon fill="midnightblue" stroke="midnightblue" points="40.79,-82.06 32.19,-75.88 35.05,-86.08 40.79,-82.06"/>
</g>
<!-- Node9 -->
<g id="node9" class="node">
<title>Node9</title>
<g id="a_node9"><a xlink:title=" ">
<polygon fill="white" stroke="#bfbfbf" points="212.5,-56.5 212.5,-75.5 259.5,-75.5 259.5,-56.5 212.5,-56.5"/>
<text text-anchor="middle" x="236" y="-63.5" font-family="Helvetica,sans-Serif" font-size="10.00">math.h</text>
</a>
</g>
</g>
<!-- Node8&#45;&gt;Node9 -->
<g id="edge10" class="edge">
<title>Node8&#45;&gt;Node9</title>
<path fill="none" stroke="midnightblue" d="M153.86,-224.35C160.69,-215.51 171.26,-201.24 179,-188 199.53,-152.9 218.64,-109.21 228.67,-85.1"/>
<polygon fill="midnightblue" stroke="midnightblue" points="231.94,-86.36 232.5,-75.78 225.46,-83.7 231.94,-86.36"/>
</g>
<!-- Node10 -->
<g id="node10" class="node">
<title>Node10</title>
<g id="a_node10"><a xlink:href="vec3_8h.html" target="_top" xlink:title=" ">
<polygon fill="white" stroke="black" points="124,-168.5 124,-187.5 170,-187.5 170,-168.5 124,-168.5"/>
<text text-anchor="middle" x="147" y="-175.5" font-family="Helvetica,sans-Serif" font-size="10.00">vec3.h</text>
</a>
</g>
</g>
<!-- Node8&#45;&gt;Node10 -->
<g id="edge11" class="edge">
<title>Node8&#45;&gt;Node10</title>
<path fill="none" stroke="midnightblue" d="M147,-224.08C147,-217.01 147,-206.86 147,-197.99"/>
<polygon fill="midnightblue" stroke="midnightblue" points="150.5,-197.75 147,-187.75 143.5,-197.75 150.5,-197.75"/>
</g>
<!-- Node10&#45;&gt;Node2 -->
<g id="edge12" class="edge">
<title>Node10&#45;&gt;Node2</title>
<path fill="none" stroke="midnightblue" d="M137.51,-168.37C117.1,-149.81 68.8,-105.91 42.98,-82.44"/>
<polygon fill="midnightblue" stroke="midnightblue" points="45.2,-79.73 35.45,-75.59 40.5,-84.91 45.2,-79.73"/>
</g>
<!-- Node10&#45;&gt;Node9 -->
<g id="edge13" class="edge">
<title>Node10&#45;&gt;Node9</title>
<path fill="none" stroke="midnightblue" d="M153.98,-168.37C168.74,-150.14 203.29,-107.43 222.51,-83.68"/>
<polygon fill="midnightblue" stroke="midnightblue" points="225.48,-85.57 229.05,-75.59 220.04,-81.16 225.48,-85.57"/>
</g>
<!-- Node11 -->
<g id="node11" class="node">
<title>Node11</title>
<g id="a_node11"><a xlink:href="vec2_8h.html" target="_top" xlink:title=" ">
<polygon fill="white" stroke="black" points="124,-112.5 124,-131.5 170,-131.5 170,-112.5 124,-112.5"/>
<text text-anchor="middle" x="147" y="-119.5" font-family="Helvetica,sans-Serif" font-size="10.00">vec2.h</text>
</a>
</g>
</g>
<!-- Node10&#45;&gt;Node11 -->
<g id="edge14" class="edge">
<title>Node10&#45;&gt;Node11</title>
<path fill="none" stroke="midnightblue" d="M147,-168.08C147,-161.01 147,-150.86 147,-141.99"/>
<polygon fill="midnightblue" stroke="midnightblue" points="150.5,-141.75 147,-131.75 143.5,-141.75 150.5,-141.75"/>
</g>
<!-- Node11&#45;&gt;Node2 -->
<g id="edge15" class="edge">
<title>Node11&#45;&gt;Node2</title>
<path fill="none" stroke="midnightblue" d="M127.83,-112.44C108.09,-103.64 77.11,-89.81 54.51,-79.72"/>
<polygon fill="midnightblue" stroke="midnightblue" points="55.64,-76.4 45.08,-75.52 52.79,-82.79 55.64,-76.4"/>
</g>
<!-- Node11&#45;&gt;Node9 -->
<g id="edge17" class="edge">
<title>Node11&#45;&gt;Node9</title>
<path fill="none" stroke="midnightblue" d="M161.3,-112.32C175.18,-103.9 196.49,-90.97 212.8,-81.07"/>
<polygon fill="midnightblue" stroke="midnightblue" points="215,-83.83 221.74,-75.65 211.37,-77.85 215,-83.83"/>
</g>
<!-- Node12 -->
<g id="node12" class="node">
<title>Node12</title>
<g id="a_node12"><a xlink:title=" ">
<polygon fill="white" stroke="#bfbfbf" points="51.5,-0.5 51.5,-19.5 110.5,-19.5 110.5,-0.5 51.5,-0.5"/>
<text text-anchor="middle" x="81" y="-7.5" font-family="Helvetica,sans-Serif" font-size="10.00">inttypes.h</text>
</a>
</g>
</g>
<!-- Node11&#45;&gt;Node12 -->
<g id="edge16" class="edge">
<title>Node11&#45;&gt;Node12</title>
<path fill="none" stroke="midnightblue" d="M134.55,-112.43C123.62,-104.28 108.1,-91.05 99,-76 90.38,-61.75 85.79,-43.28 83.4,-29.67"/>
<polygon fill="midnightblue" stroke="midnightblue" points="86.83,-28.95 81.88,-19.58 79.91,-29.99 86.83,-28.95"/>
</g>
<!-- Node13 -->
<g id="node13" class="node">
<title>Node13</title>
<g id="a_node13"><a xlink:href="float__compare_8h.html" target="_top" xlink:title=" ">
<polygon fill="white" stroke="black" points="108,-56.5 108,-75.5 194,-75.5 194,-56.5 108,-56.5"/>
<text text-anchor="middle" x="151" y="-63.5" font-family="Helvetica,sans-Serif" font-size="10.00">float_compare.h</text>
</a>
</g>
</g>
<!-- Node11&#45;&gt;Node13 -->
<g id="edge18" class="edge">
<title>Node11&#45;&gt;Node13</title>
<path fill="none" stroke="midnightblue" d="M147.66,-112.08C148.18,-105.01 148.94,-94.86 149.59,-85.99"/>
<polygon fill="midnightblue" stroke="midnightblue" points="153.1,-85.98 150.35,-75.75 146.12,-85.47 153.1,-85.98"/>
</g>
<!-- Node13&#45;&gt;Node12 -->
<g id="edge19" class="edge">
<title>Node13&#45;&gt;Node12</title>
<path fill="none" stroke="midnightblue" d="M139.75,-56.32C129.2,-48.18 113.2,-35.84 100.56,-26.09"/>
<polygon fill="midnightblue" stroke="midnightblue" points="102.51,-23.17 92.45,-19.83 98.23,-28.71 102.51,-23.17"/>
</g>
<!-- Node14 -->
<g id="node14" class="node">
<title>Node14</title>
<g id="a_node14"><a xlink:title=" ">
<polygon fill="white" stroke="#bfbfbf" points="129,-0.5 129,-19.5 173,-19.5 173,-0.5 129,-0.5"/>
<text text-anchor="middle" x="151" y="-7.5" font-family="Helvetica,sans-Serif" font-size="10.00">float.h</text>
</a>
</g>
</g>
<!-- Node13&#45;&gt;Node14 -->
<g id="edge20" class="edge">
<title>Node13&#45;&gt;Node14</title>
<path fill="none" stroke="midnightblue" d="M151,-56.08C151,-49.01 151,-38.86 151,-29.99"/>
<polygon fill="midnightblue" stroke="midnightblue" points="154.5,-29.75 151,-19.75 147.5,-29.75 154.5,-29.75"/>
</g>
<!-- Node15&#45;&gt;Node4 -->
<g id="edge22" class="edge">
<title>Node15&#45;&gt;Node4</title>
<path fill="none" stroke="midnightblue" d="M315.87,-280.08C312.49,-272.77 307.58,-262.18 303.38,-253.1"/>
<polygon fill="midnightblue" stroke="midnightblue" points="306.43,-251.36 299.05,-243.75 300.08,-254.3 306.43,-251.36"/>
</g>
<!-- Node15&#45;&gt;Node11 -->
<g id="edge23" class="edge">
<title>Node15&#45;&gt;Node11</title>
<path fill="none" stroke="midnightblue" d="M323.82,-280.31C328.98,-267.15 336.4,-241.81 326,-224 294.5,-170.06 222.37,-142.66 179.92,-130.73"/>
<polygon fill="midnightblue" stroke="midnightblue" points="180.62,-127.29 170.06,-128.08 178.81,-134.05 180.62,-127.29"/>
</g>
</g>
</svg>
